%TF.GenerationSoftware,KiCad,Pcbnew,(6.0.7-1)-1*%
%TF.CreationDate,2022-11-19T17:58:52-08:00*%
%TF.ProjectId,telemetry-pcb,74656c65-6d65-4747-9279-2d7063622e6b,rev?*%
%TF.SameCoordinates,Original*%
%TF.FileFunction,Legend,Top*%
%TF.FilePolarity,Positive*%
%FSLAX46Y46*%
G04 Gerber Fmt 4.6, Leading zero omitted, Abs format (unit mm)*
G04 Created by KiCad (PCBNEW (6.0.7-1)-1) date 2022-11-19 17:58:52*
%MOMM*%
%LPD*%
G01*
G04 APERTURE LIST*
G04 Aperture macros list*
%AMRoundRect*
0 Rectangle with rounded corners*
0 $1 Rounding radius*
0 $2 $3 $4 $5 $6 $7 $8 $9 X,Y pos of 4 corners*
0 Add a 4 corners polygon primitive as box body*
4,1,4,$2,$3,$4,$5,$6,$7,$8,$9,$2,$3,0*
0 Add four circle primitives for the rounded corners*
1,1,$1+$1,$2,$3*
1,1,$1+$1,$4,$5*
1,1,$1+$1,$6,$7*
1,1,$1+$1,$8,$9*
0 Add four rect primitives between the rounded corners*
20,1,$1+$1,$2,$3,$4,$5,0*
20,1,$1+$1,$4,$5,$6,$7,0*
20,1,$1+$1,$6,$7,$8,$9,0*
20,1,$1+$1,$8,$9,$2,$3,0*%
G04 Aperture macros list end*
%ADD10C,0.150000*%
%ADD11C,0.300000*%
%ADD12C,0.400000*%
%ADD13C,0.120000*%
%ADD14C,0.101600*%
%ADD15RoundRect,0.250000X-0.250000X-0.475000X0.250000X-0.475000X0.250000X0.475000X-0.250000X0.475000X0*%
%ADD16C,2.000000*%
%ADD17RoundRect,0.243750X0.243750X0.456250X-0.243750X0.456250X-0.243750X-0.456250X0.243750X-0.456250X0*%
%ADD18RoundRect,0.249999X-0.262501X-0.450001X0.262501X-0.450001X0.262501X0.450001X-0.262501X0.450001X0*%
%ADD19RoundRect,0.249999X0.262501X0.450001X-0.262501X0.450001X-0.262501X-0.450001X0.262501X-0.450001X0*%
%ADD20C,1.400000*%
%ADD21R,1.700000X1.700000*%
%ADD22O,1.700000X1.700000*%
%ADD23R,2.000000X4.500000*%
%ADD24C,3.556000*%
%ADD25C,1.524000*%
%ADD26RoundRect,0.250000X1.500000X0.550000X-1.500000X0.550000X-1.500000X-0.550000X1.500000X-0.550000X0*%
%ADD27C,3.400000*%
%ADD28R,1.690000X1.690000*%
%ADD29C,1.690000*%
%ADD30C,3.454400*%
%ADD31C,1.676400*%
%ADD32R,2.500000X1.800000*%
%ADD33R,4.241800X3.810000*%
%ADD34C,4.000000*%
%ADD35C,3.300000*%
%ADD36RoundRect,0.101600X-0.939800X0.939800X-0.939800X-0.939800X0.939800X-0.939800X0.939800X0.939800X0*%
%ADD37C,2.082800*%
%ADD38RoundRect,0.249999X0.450001X-0.262501X0.450001X0.262501X-0.450001X0.262501X-0.450001X-0.262501X0*%
%ADD39RoundRect,0.150000X-0.150000X-0.700000X0.150000X-0.700000X0.150000X0.700000X-0.150000X0.700000X0*%
%ADD40RoundRect,0.250000X-0.250000X-1.100000X0.250000X-1.100000X0.250000X1.100000X-0.250000X1.100000X0*%
%ADD41R,1.600000X1.600000*%
%ADD42C,1.600000*%
G04 APERTURE END LIST*
D10*
X106355233Y-85218261D02*
X106498090Y-85265880D01*
X106736185Y-85265880D01*
X106831423Y-85218261D01*
X106879042Y-85170642D01*
X106926661Y-85075404D01*
X106926661Y-84980166D01*
X106879042Y-84884928D01*
X106831423Y-84837309D01*
X106736185Y-84789690D01*
X106545709Y-84742071D01*
X106450471Y-84694452D01*
X106402852Y-84646833D01*
X106355233Y-84551595D01*
X106355233Y-84456357D01*
X106402852Y-84361119D01*
X106450471Y-84313500D01*
X106545709Y-84265880D01*
X106783804Y-84265880D01*
X106926661Y-84313500D01*
X107355233Y-85265880D02*
X107355233Y-84599214D01*
X107355233Y-84265880D02*
X107307614Y-84313500D01*
X107355233Y-84361119D01*
X107402852Y-84313500D01*
X107355233Y-84265880D01*
X107355233Y-84361119D01*
X107974280Y-85265880D02*
X107879042Y-85218261D01*
X107831423Y-85123023D01*
X107831423Y-84265880D01*
X108259995Y-84599214D02*
X108498090Y-85265880D01*
X108736185Y-84599214D01*
X109117138Y-85265880D02*
X109117138Y-84599214D01*
X109117138Y-84265880D02*
X109069519Y-84313500D01*
X109117138Y-84361119D01*
X109164757Y-84313500D01*
X109117138Y-84265880D01*
X109117138Y-84361119D01*
X110021899Y-84599214D02*
X110021899Y-85265880D01*
X109593328Y-84599214D02*
X109593328Y-85123023D01*
X109640947Y-85218261D01*
X109736185Y-85265880D01*
X109879042Y-85265880D01*
X109974280Y-85218261D01*
X110021899Y-85170642D01*
X111117138Y-84265880D02*
X111688566Y-84265880D01*
X111402852Y-85265880D02*
X111402852Y-84265880D01*
X112164757Y-85265880D02*
X112069519Y-85218261D01*
X112021899Y-85170642D01*
X111974280Y-85075404D01*
X111974280Y-84789690D01*
X112021899Y-84694452D01*
X112069519Y-84646833D01*
X112164757Y-84599214D01*
X112307614Y-84599214D01*
X112402852Y-84646833D01*
X112450471Y-84694452D01*
X112498090Y-84789690D01*
X112498090Y-85075404D01*
X112450471Y-85170642D01*
X112402852Y-85218261D01*
X112307614Y-85265880D01*
X112164757Y-85265880D01*
X113355233Y-85265880D02*
X113355233Y-84265880D01*
X113355233Y-85218261D02*
X113259995Y-85265880D01*
X113069519Y-85265880D01*
X112974280Y-85218261D01*
X112926661Y-85170642D01*
X112879042Y-85075404D01*
X112879042Y-84789690D01*
X112926661Y-84694452D01*
X112974280Y-84646833D01*
X113069519Y-84599214D01*
X113259995Y-84599214D01*
X113355233Y-84646833D01*
X114212376Y-85218261D02*
X114117138Y-85265880D01*
X113926661Y-85265880D01*
X113831423Y-85218261D01*
X113783804Y-85123023D01*
X113783804Y-84742071D01*
X113831423Y-84646833D01*
X113926661Y-84599214D01*
X114117138Y-84599214D01*
X114212376Y-84646833D01*
X114259995Y-84742071D01*
X114259995Y-84837309D01*
X113783804Y-84932547D01*
X114688566Y-85265880D02*
X114688566Y-84599214D01*
X114688566Y-84789690D02*
X114736185Y-84694452D01*
X114783804Y-84646833D01*
X114879042Y-84599214D01*
X114974280Y-84599214D01*
X115307614Y-85265880D02*
X115307614Y-84599214D01*
X115307614Y-84265880D02*
X115259995Y-84313500D01*
X115307614Y-84361119D01*
X115355233Y-84313500D01*
X115307614Y-84265880D01*
X115307614Y-84361119D01*
X115640947Y-84599214D02*
X116021899Y-84599214D01*
X115783804Y-84265880D02*
X115783804Y-85123023D01*
X115831423Y-85218261D01*
X115926661Y-85265880D01*
X116021899Y-85265880D01*
X116783804Y-85265880D02*
X116783804Y-84742071D01*
X116736185Y-84646833D01*
X116640947Y-84599214D01*
X116450471Y-84599214D01*
X116355233Y-84646833D01*
X116783804Y-85218261D02*
X116688566Y-85265880D01*
X116450471Y-85265880D01*
X116355233Y-85218261D01*
X116307614Y-85123023D01*
X116307614Y-85027785D01*
X116355233Y-84932547D01*
X116450471Y-84884928D01*
X116688566Y-84884928D01*
X116783804Y-84837309D01*
X105402852Y-85875880D02*
X105736185Y-86875880D01*
X106069519Y-85875880D01*
X106831423Y-86875880D02*
X106831423Y-86352071D01*
X106783804Y-86256833D01*
X106688566Y-86209214D01*
X106498090Y-86209214D01*
X106402852Y-86256833D01*
X106831423Y-86828261D02*
X106736185Y-86875880D01*
X106498090Y-86875880D01*
X106402852Y-86828261D01*
X106355233Y-86733023D01*
X106355233Y-86637785D01*
X106402852Y-86542547D01*
X106498090Y-86494928D01*
X106736185Y-86494928D01*
X106831423Y-86447309D01*
X107450471Y-86875880D02*
X107355233Y-86828261D01*
X107307614Y-86733023D01*
X107307614Y-85875880D01*
X108212376Y-86828261D02*
X108117138Y-86875880D01*
X107926661Y-86875880D01*
X107831423Y-86828261D01*
X107783804Y-86733023D01*
X107783804Y-86352071D01*
X107831423Y-86256833D01*
X107926661Y-86209214D01*
X108117138Y-86209214D01*
X108212376Y-86256833D01*
X108259995Y-86352071D01*
X108259995Y-86447309D01*
X107783804Y-86542547D01*
X108688566Y-86209214D02*
X108688566Y-86875880D01*
X108688566Y-86304452D02*
X108736185Y-86256833D01*
X108831423Y-86209214D01*
X108974280Y-86209214D01*
X109069519Y-86256833D01*
X109117138Y-86352071D01*
X109117138Y-86875880D01*
X109450471Y-86209214D02*
X109831423Y-86209214D01*
X109593328Y-85875880D02*
X109593328Y-86733023D01*
X109640947Y-86828261D01*
X109736185Y-86875880D01*
X109831423Y-86875880D01*
X110164757Y-86875880D02*
X110164757Y-86209214D01*
X110164757Y-85875880D02*
X110117138Y-85923500D01*
X110164757Y-85971119D01*
X110212376Y-85923500D01*
X110164757Y-85875880D01*
X110164757Y-85971119D01*
X110640947Y-86209214D02*
X110640947Y-86875880D01*
X110640947Y-86304452D02*
X110688566Y-86256833D01*
X110783804Y-86209214D01*
X110926661Y-86209214D01*
X111021900Y-86256833D01*
X111069519Y-86352071D01*
X111069519Y-86875880D01*
X111688566Y-86875880D02*
X111593328Y-86828261D01*
X111545709Y-86780642D01*
X111498090Y-86685404D01*
X111498090Y-86399690D01*
X111545709Y-86304452D01*
X111593328Y-86256833D01*
X111688566Y-86209214D01*
X111831423Y-86209214D01*
X111926661Y-86256833D01*
X111974280Y-86304452D01*
X112021900Y-86399690D01*
X112021900Y-86685404D01*
X111974280Y-86780642D01*
X111926661Y-86828261D01*
X111831423Y-86875880D01*
X111688566Y-86875880D01*
X113498090Y-85875880D02*
X113498090Y-86590166D01*
X113450471Y-86733023D01*
X113355233Y-86828261D01*
X113212376Y-86875880D01*
X113117138Y-86875880D01*
X114402852Y-86875880D02*
X114402852Y-86352071D01*
X114355233Y-86256833D01*
X114259995Y-86209214D01*
X114069519Y-86209214D01*
X113974280Y-86256833D01*
X114402852Y-86828261D02*
X114307614Y-86875880D01*
X114069519Y-86875880D01*
X113974280Y-86828261D01*
X113926661Y-86733023D01*
X113926661Y-86637785D01*
X113974280Y-86542547D01*
X114069519Y-86494928D01*
X114307614Y-86494928D01*
X114402852Y-86447309D01*
X114879042Y-86875880D02*
X114879042Y-85875880D01*
X114879042Y-86256833D02*
X114974280Y-86209214D01*
X115164757Y-86209214D01*
X115259995Y-86256833D01*
X115307614Y-86304452D01*
X115355233Y-86399690D01*
X115355233Y-86685404D01*
X115307614Y-86780642D01*
X115259995Y-86828261D01*
X115164757Y-86875880D01*
X114974280Y-86875880D01*
X114879042Y-86828261D01*
X116164757Y-86828261D02*
X116069519Y-86875880D01*
X115879042Y-86875880D01*
X115783804Y-86828261D01*
X115736185Y-86733023D01*
X115736185Y-86352071D01*
X115783804Y-86256833D01*
X115879042Y-86209214D01*
X116069519Y-86209214D01*
X116164757Y-86256833D01*
X116212376Y-86352071D01*
X116212376Y-86447309D01*
X115736185Y-86542547D01*
X116640947Y-86875880D02*
X116640947Y-86209214D01*
X116640947Y-86399690D02*
X116688566Y-86304452D01*
X116736185Y-86256833D01*
X116831423Y-86209214D01*
X116926661Y-86209214D01*
X107974280Y-88390642D02*
X107926661Y-88438261D01*
X107783804Y-88485880D01*
X107688566Y-88485880D01*
X107545709Y-88438261D01*
X107450471Y-88343023D01*
X107402852Y-88247785D01*
X107355233Y-88057309D01*
X107355233Y-87914452D01*
X107402852Y-87723976D01*
X107450471Y-87628738D01*
X107545709Y-87533500D01*
X107688566Y-87485880D01*
X107783804Y-87485880D01*
X107926661Y-87533500D01*
X107974280Y-87581119D01*
X108545709Y-88485880D02*
X108450471Y-88438261D01*
X108402852Y-88390642D01*
X108355233Y-88295404D01*
X108355233Y-88009690D01*
X108402852Y-87914452D01*
X108450471Y-87866833D01*
X108545709Y-87819214D01*
X108688566Y-87819214D01*
X108783804Y-87866833D01*
X108831423Y-87914452D01*
X108879042Y-88009690D01*
X108879042Y-88295404D01*
X108831423Y-88390642D01*
X108783804Y-88438261D01*
X108688566Y-88485880D01*
X108545709Y-88485880D01*
X109450471Y-88485880D02*
X109355233Y-88438261D01*
X109307614Y-88343023D01*
X109307614Y-87485880D01*
X109831423Y-88485880D02*
X109831423Y-87485880D01*
X109831423Y-87866833D02*
X109926661Y-87819214D01*
X110117138Y-87819214D01*
X110212376Y-87866833D01*
X110259995Y-87914452D01*
X110307614Y-88009690D01*
X110307614Y-88295404D01*
X110259995Y-88390642D01*
X110212376Y-88438261D01*
X110117138Y-88485880D01*
X109926661Y-88485880D01*
X109831423Y-88438261D01*
X110640947Y-87819214D02*
X110879042Y-88485880D01*
X111117138Y-87819214D02*
X110879042Y-88485880D01*
X110783804Y-88723976D01*
X110736185Y-88771595D01*
X110640947Y-88819214D01*
X112212376Y-88438261D02*
X112355233Y-88485880D01*
X112593328Y-88485880D01*
X112688566Y-88438261D01*
X112736185Y-88390642D01*
X112783804Y-88295404D01*
X112783804Y-88200166D01*
X112736185Y-88104928D01*
X112688566Y-88057309D01*
X112593328Y-88009690D01*
X112402852Y-87962071D01*
X112307614Y-87914452D01*
X112259995Y-87866833D01*
X112212376Y-87771595D01*
X112212376Y-87676357D01*
X112259995Y-87581119D01*
X112307614Y-87533500D01*
X112402852Y-87485880D01*
X112640947Y-87485880D01*
X112783804Y-87533500D01*
X113212376Y-87819214D02*
X113212376Y-88819214D01*
X113212376Y-87866833D02*
X113307614Y-87819214D01*
X113498090Y-87819214D01*
X113593328Y-87866833D01*
X113640947Y-87914452D01*
X113688566Y-88009690D01*
X113688566Y-88295404D01*
X113640947Y-88390642D01*
X113593328Y-88438261D01*
X113498090Y-88485880D01*
X113307614Y-88485880D01*
X113212376Y-88438261D01*
X114545709Y-88485880D02*
X114545709Y-87962071D01*
X114498090Y-87866833D01*
X114402852Y-87819214D01*
X114212376Y-87819214D01*
X114117138Y-87866833D01*
X114545709Y-88438261D02*
X114450471Y-88485880D01*
X114212376Y-88485880D01*
X114117138Y-88438261D01*
X114069519Y-88343023D01*
X114069519Y-88247785D01*
X114117138Y-88152547D01*
X114212376Y-88104928D01*
X114450471Y-88104928D01*
X114545709Y-88057309D01*
X115021899Y-88485880D02*
X115021899Y-87819214D01*
X115021899Y-88009690D02*
X115069519Y-87914452D01*
X115117138Y-87866833D01*
X115212376Y-87819214D01*
X115307614Y-87819214D01*
X115640947Y-88485880D02*
X115640947Y-87485880D01*
X115736185Y-88104928D02*
X116021900Y-88485880D01*
X116021900Y-87819214D02*
X115640947Y-88200166D01*
X116402852Y-88438261D02*
X116498090Y-88485880D01*
X116688566Y-88485880D01*
X116783804Y-88438261D01*
X116831423Y-88343023D01*
X116831423Y-88295404D01*
X116783804Y-88200166D01*
X116688566Y-88152547D01*
X116545709Y-88152547D01*
X116450471Y-88104928D01*
X116402852Y-88009690D01*
X116402852Y-87962071D01*
X116450471Y-87866833D01*
X116545709Y-87819214D01*
X116688566Y-87819214D01*
X116783804Y-87866833D01*
X97085685Y-82526166D02*
X97561876Y-82526166D01*
X96990447Y-82811880D02*
X97323780Y-81811880D01*
X97657114Y-82811880D01*
X98419019Y-82145214D02*
X98419019Y-82811880D01*
X97990447Y-82145214D02*
X97990447Y-82669023D01*
X98038066Y-82764261D01*
X98133304Y-82811880D01*
X98276161Y-82811880D01*
X98371400Y-82764261D01*
X98419019Y-82716642D01*
X99323780Y-82145214D02*
X99323780Y-82954738D01*
X99276161Y-83049976D01*
X99228542Y-83097595D01*
X99133304Y-83145214D01*
X98990447Y-83145214D01*
X98895209Y-83097595D01*
X99323780Y-82764261D02*
X99228542Y-82811880D01*
X99038066Y-82811880D01*
X98942828Y-82764261D01*
X98895209Y-82716642D01*
X98847590Y-82621404D01*
X98847590Y-82335690D01*
X98895209Y-82240452D01*
X98942828Y-82192833D01*
X99038066Y-82145214D01*
X99228542Y-82145214D01*
X99323780Y-82192833D01*
X100609495Y-82811880D02*
X100799971Y-82811880D01*
X100895209Y-82764261D01*
X100942828Y-82716642D01*
X101038066Y-82573785D01*
X101085685Y-82383309D01*
X101085685Y-82002357D01*
X101038066Y-81907119D01*
X100990447Y-81859500D01*
X100895209Y-81811880D01*
X100704733Y-81811880D01*
X100609495Y-81859500D01*
X100561876Y-81907119D01*
X100514257Y-82002357D01*
X100514257Y-82240452D01*
X100561876Y-82335690D01*
X100609495Y-82383309D01*
X100704733Y-82430928D01*
X100895209Y-82430928D01*
X100990447Y-82383309D01*
X101038066Y-82335690D01*
X101085685Y-82240452D01*
X102228542Y-81907119D02*
X102276161Y-81859500D01*
X102371400Y-81811880D01*
X102609495Y-81811880D01*
X102704733Y-81859500D01*
X102752352Y-81907119D01*
X102799971Y-82002357D01*
X102799971Y-82097595D01*
X102752352Y-82240452D01*
X102180923Y-82811880D01*
X102799971Y-82811880D01*
X103419019Y-81811880D02*
X103514257Y-81811880D01*
X103609495Y-81859500D01*
X103657114Y-81907119D01*
X103704733Y-82002357D01*
X103752352Y-82192833D01*
X103752352Y-82430928D01*
X103704733Y-82621404D01*
X103657114Y-82716642D01*
X103609495Y-82764261D01*
X103514257Y-82811880D01*
X103419019Y-82811880D01*
X103323780Y-82764261D01*
X103276161Y-82716642D01*
X103228542Y-82621404D01*
X103180923Y-82430928D01*
X103180923Y-82192833D01*
X103228542Y-82002357D01*
X103276161Y-81907119D01*
X103323780Y-81859500D01*
X103419019Y-81811880D01*
X104133304Y-81907119D02*
X104180923Y-81859500D01*
X104276161Y-81811880D01*
X104514257Y-81811880D01*
X104609495Y-81859500D01*
X104657114Y-81907119D01*
X104704733Y-82002357D01*
X104704733Y-82097595D01*
X104657114Y-82240452D01*
X104085685Y-82811880D01*
X104704733Y-82811880D01*
X105085685Y-81907119D02*
X105133304Y-81859500D01*
X105228542Y-81811880D01*
X105466638Y-81811880D01*
X105561876Y-81859500D01*
X105609495Y-81907119D01*
X105657114Y-82002357D01*
X105657114Y-82097595D01*
X105609495Y-82240452D01*
X105038066Y-82811880D01*
X105657114Y-82811880D01*
D11*
X96864161Y-78724261D02*
X98007019Y-78724261D01*
X97435590Y-80724261D02*
X97435590Y-78724261D01*
X99435590Y-80629023D02*
X99245114Y-80724261D01*
X98864161Y-80724261D01*
X98673685Y-80629023D01*
X98578447Y-80438547D01*
X98578447Y-79676642D01*
X98673685Y-79486166D01*
X98864161Y-79390928D01*
X99245114Y-79390928D01*
X99435590Y-79486166D01*
X99530828Y-79676642D01*
X99530828Y-79867119D01*
X98578447Y-80057595D01*
X100673685Y-80724261D02*
X100483209Y-80629023D01*
X100387971Y-80438547D01*
X100387971Y-78724261D01*
X102197495Y-80629023D02*
X102007019Y-80724261D01*
X101626066Y-80724261D01*
X101435590Y-80629023D01*
X101340352Y-80438547D01*
X101340352Y-79676642D01*
X101435590Y-79486166D01*
X101626066Y-79390928D01*
X102007019Y-79390928D01*
X102197495Y-79486166D01*
X102292733Y-79676642D01*
X102292733Y-79867119D01*
X101340352Y-80057595D01*
X103149876Y-80724261D02*
X103149876Y-79390928D01*
X103149876Y-79581404D02*
X103245114Y-79486166D01*
X103435590Y-79390928D01*
X103721304Y-79390928D01*
X103911780Y-79486166D01*
X104007019Y-79676642D01*
X104007019Y-80724261D01*
X104007019Y-79676642D02*
X104102257Y-79486166D01*
X104292733Y-79390928D01*
X104578447Y-79390928D01*
X104768923Y-79486166D01*
X104864161Y-79676642D01*
X104864161Y-80724261D01*
X106578447Y-80629023D02*
X106387971Y-80724261D01*
X106007019Y-80724261D01*
X105816542Y-80629023D01*
X105721304Y-80438547D01*
X105721304Y-79676642D01*
X105816542Y-79486166D01*
X106007019Y-79390928D01*
X106387971Y-79390928D01*
X106578447Y-79486166D01*
X106673685Y-79676642D01*
X106673685Y-79867119D01*
X105721304Y-80057595D01*
X107245114Y-79390928D02*
X108007019Y-79390928D01*
X107530828Y-78724261D02*
X107530828Y-80438547D01*
X107626066Y-80629023D01*
X107816542Y-80724261D01*
X108007019Y-80724261D01*
X108673685Y-80724261D02*
X108673685Y-79390928D01*
X108673685Y-79771880D02*
X108768923Y-79581404D01*
X108864161Y-79486166D01*
X109054638Y-79390928D01*
X109245114Y-79390928D01*
X109721304Y-79390928D02*
X110197495Y-80724261D01*
X110673685Y-79390928D02*
X110197495Y-80724261D01*
X110007019Y-81200452D01*
X109911780Y-81295690D01*
X109721304Y-81390928D01*
X112864161Y-78914738D02*
X112959400Y-78819500D01*
X113149876Y-78724261D01*
X113626066Y-78724261D01*
X113816542Y-78819500D01*
X113911780Y-78914738D01*
X114007019Y-79105214D01*
X114007019Y-79295690D01*
X113911780Y-79581404D01*
X112768923Y-80724261D01*
X114007019Y-80724261D01*
X114864161Y-80533785D02*
X114959400Y-80629023D01*
X114864161Y-80724261D01*
X114768923Y-80629023D01*
X114864161Y-80533785D01*
X114864161Y-80724261D01*
X116197495Y-78724261D02*
X116387971Y-78724261D01*
X116578447Y-78819500D01*
X116673685Y-78914738D01*
X116768923Y-79105214D01*
X116864161Y-79486166D01*
X116864161Y-79962357D01*
X116768923Y-80343309D01*
X116673685Y-80533785D01*
X116578447Y-80629023D01*
X116387971Y-80724261D01*
X116197495Y-80724261D01*
X116007019Y-80629023D01*
X115911780Y-80533785D01*
X115816542Y-80343309D01*
X115721304Y-79962357D01*
X115721304Y-79486166D01*
X115816542Y-79105214D01*
X115911780Y-78914738D01*
X116007019Y-78819500D01*
X116197495Y-78724261D01*
D10*
X141876542Y-112532642D02*
X141828923Y-112580261D01*
X141686066Y-112627880D01*
X141590828Y-112627880D01*
X141447971Y-112580261D01*
X141352733Y-112485023D01*
X141305114Y-112389785D01*
X141257495Y-112199309D01*
X141257495Y-112056452D01*
X141305114Y-111865976D01*
X141352733Y-111770738D01*
X141447971Y-111675500D01*
X141590828Y-111627880D01*
X141686066Y-111627880D01*
X141828923Y-111675500D01*
X141876542Y-111723119D01*
X142828923Y-112627880D02*
X142257495Y-112627880D01*
X142543209Y-112627880D02*
X142543209Y-111627880D01*
X142447971Y-111770738D01*
X142352733Y-111865976D01*
X142257495Y-111913595D01*
X143781304Y-112627880D02*
X143209876Y-112627880D01*
X143495590Y-112627880D02*
X143495590Y-111627880D01*
X143400352Y-111770738D01*
X143305114Y-111865976D01*
X143209876Y-111913595D01*
X141876542Y-97800642D02*
X141828923Y-97848261D01*
X141686066Y-97895880D01*
X141590828Y-97895880D01*
X141447971Y-97848261D01*
X141352733Y-97753023D01*
X141305114Y-97657785D01*
X141257495Y-97467309D01*
X141257495Y-97324452D01*
X141305114Y-97133976D01*
X141352733Y-97038738D01*
X141447971Y-96943500D01*
X141590828Y-96895880D01*
X141686066Y-96895880D01*
X141828923Y-96943500D01*
X141876542Y-96991119D01*
X142828923Y-97895880D02*
X142257495Y-97895880D01*
X142543209Y-97895880D02*
X142543209Y-96895880D01*
X142447971Y-97038738D01*
X142352733Y-97133976D01*
X142257495Y-97181595D01*
X143209876Y-96991119D02*
X143257495Y-96943500D01*
X143352733Y-96895880D01*
X143590828Y-96895880D01*
X143686066Y-96943500D01*
X143733685Y-96991119D01*
X143781304Y-97086357D01*
X143781304Y-97181595D01*
X143733685Y-97324452D01*
X143162257Y-97895880D01*
X143781304Y-97895880D01*
X95926542Y-91939976D02*
X95974161Y-91987595D01*
X96021780Y-92130452D01*
X96021780Y-92225690D01*
X95974161Y-92368547D01*
X95878923Y-92463785D01*
X95783685Y-92511404D01*
X95593209Y-92559023D01*
X95450352Y-92559023D01*
X95259876Y-92511404D01*
X95164638Y-92463785D01*
X95069400Y-92368547D01*
X95021780Y-92225690D01*
X95021780Y-92130452D01*
X95069400Y-91987595D01*
X95117019Y-91939976D01*
X96021780Y-91511404D02*
X95021780Y-91511404D01*
X96021780Y-90939976D01*
X95021780Y-90939976D01*
X95021780Y-89987595D02*
X95021780Y-90463785D01*
X95497971Y-90511404D01*
X95450352Y-90463785D01*
X95402733Y-90368547D01*
X95402733Y-90130452D01*
X95450352Y-90035214D01*
X95497971Y-89987595D01*
X95593209Y-89939976D01*
X95831304Y-89939976D01*
X95926542Y-89987595D01*
X95974161Y-90035214D01*
X96021780Y-90130452D01*
X96021780Y-90368547D01*
X95974161Y-90463785D01*
X95926542Y-90511404D01*
X92196066Y-85621880D02*
X92767495Y-85621880D01*
X92481780Y-86621880D02*
X92481780Y-85621880D01*
X93100828Y-86621880D02*
X93100828Y-85621880D01*
X93100828Y-86098071D02*
X93672257Y-86098071D01*
X93672257Y-86621880D02*
X93672257Y-85621880D01*
X94148447Y-86098071D02*
X94481780Y-86098071D01*
X94624638Y-86621880D02*
X94148447Y-86621880D01*
X94148447Y-85621880D01*
X94624638Y-85621880D01*
X95624638Y-86621880D02*
X95291304Y-86145690D01*
X95053209Y-86621880D02*
X95053209Y-85621880D01*
X95434161Y-85621880D01*
X95529400Y-85669500D01*
X95577019Y-85717119D01*
X95624638Y-85812357D01*
X95624638Y-85955214D01*
X95577019Y-86050452D01*
X95529400Y-86098071D01*
X95434161Y-86145690D01*
X95053209Y-86145690D01*
X96053209Y-86621880D02*
X96053209Y-85621880D01*
X96386542Y-86336166D01*
X96719876Y-85621880D01*
X96719876Y-86621880D01*
X97386542Y-85621880D02*
X97577019Y-85621880D01*
X97672257Y-85669500D01*
X97767495Y-85764738D01*
X97815114Y-85955214D01*
X97815114Y-86288547D01*
X97767495Y-86479023D01*
X97672257Y-86574261D01*
X97577019Y-86621880D01*
X97386542Y-86621880D01*
X97291304Y-86574261D01*
X97196066Y-86479023D01*
X97148447Y-86288547D01*
X97148447Y-85955214D01*
X97196066Y-85764738D01*
X97291304Y-85669500D01*
X97386542Y-85621880D01*
X98767495Y-86621880D02*
X98196066Y-86621880D01*
X98481780Y-86621880D02*
X98481780Y-85621880D01*
X98386542Y-85764738D01*
X98291304Y-85859976D01*
X98196066Y-85907595D01*
X100172828Y-93408452D02*
X100172828Y-92646547D01*
X100172828Y-89852452D02*
X100172828Y-89090547D01*
X100553780Y-89471500D02*
X99791876Y-89471500D01*
X95926542Y-73651976D02*
X95974161Y-73699595D01*
X96021780Y-73842452D01*
X96021780Y-73937690D01*
X95974161Y-74080547D01*
X95878923Y-74175785D01*
X95783685Y-74223404D01*
X95593209Y-74271023D01*
X95450352Y-74271023D01*
X95259876Y-74223404D01*
X95164638Y-74175785D01*
X95069400Y-74080547D01*
X95021780Y-73937690D01*
X95021780Y-73842452D01*
X95069400Y-73699595D01*
X95117019Y-73651976D01*
X96021780Y-73223404D02*
X95021780Y-73223404D01*
X96021780Y-72651976D01*
X95021780Y-72651976D01*
X95021780Y-71747214D02*
X95021780Y-71937690D01*
X95069400Y-72032928D01*
X95117019Y-72080547D01*
X95259876Y-72175785D01*
X95450352Y-72223404D01*
X95831304Y-72223404D01*
X95926542Y-72175785D01*
X95974161Y-72128166D01*
X96021780Y-72032928D01*
X96021780Y-71842452D01*
X95974161Y-71747214D01*
X95926542Y-71699595D01*
X95831304Y-71651976D01*
X95593209Y-71651976D01*
X95497971Y-71699595D01*
X95450352Y-71747214D01*
X95402733Y-71842452D01*
X95402733Y-72032928D01*
X95450352Y-72128166D01*
X95497971Y-72175785D01*
X95593209Y-72223404D01*
X92196066Y-67333880D02*
X92767495Y-67333880D01*
X92481780Y-68333880D02*
X92481780Y-67333880D01*
X93100828Y-68333880D02*
X93100828Y-67333880D01*
X93100828Y-67810071D02*
X93672257Y-67810071D01*
X93672257Y-68333880D02*
X93672257Y-67333880D01*
X94148447Y-67810071D02*
X94481780Y-67810071D01*
X94624638Y-68333880D02*
X94148447Y-68333880D01*
X94148447Y-67333880D01*
X94624638Y-67333880D01*
X95624638Y-68333880D02*
X95291304Y-67857690D01*
X95053209Y-68333880D02*
X95053209Y-67333880D01*
X95434161Y-67333880D01*
X95529400Y-67381500D01*
X95577019Y-67429119D01*
X95624638Y-67524357D01*
X95624638Y-67667214D01*
X95577019Y-67762452D01*
X95529400Y-67810071D01*
X95434161Y-67857690D01*
X95053209Y-67857690D01*
X96053209Y-68333880D02*
X96053209Y-67333880D01*
X96386542Y-68048166D01*
X96719876Y-67333880D01*
X96719876Y-68333880D01*
X97386542Y-67333880D02*
X97577019Y-67333880D01*
X97672257Y-67381500D01*
X97767495Y-67476738D01*
X97815114Y-67667214D01*
X97815114Y-68000547D01*
X97767495Y-68191023D01*
X97672257Y-68286261D01*
X97577019Y-68333880D01*
X97386542Y-68333880D01*
X97291304Y-68286261D01*
X97196066Y-68191023D01*
X97148447Y-68000547D01*
X97148447Y-67667214D01*
X97196066Y-67476738D01*
X97291304Y-67381500D01*
X97386542Y-67333880D01*
X98196066Y-67429119D02*
X98243685Y-67381500D01*
X98338923Y-67333880D01*
X98577019Y-67333880D01*
X98672257Y-67381500D01*
X98719876Y-67429119D01*
X98767495Y-67524357D01*
X98767495Y-67619595D01*
X98719876Y-67762452D01*
X98148447Y-68333880D01*
X98767495Y-68333880D01*
X100172828Y-71564452D02*
X100172828Y-70802547D01*
X100553780Y-71183500D02*
X99791876Y-71183500D01*
X100172828Y-75120452D02*
X100172828Y-74358547D01*
X168260733Y-113925880D02*
X167784542Y-113925880D01*
X167784542Y-112925880D01*
X169022638Y-113259214D02*
X169022638Y-113925880D01*
X168784542Y-112878261D02*
X168546447Y-113592547D01*
X169165495Y-113592547D01*
X166760733Y-109673500D02*
X166665495Y-109625880D01*
X166522638Y-109625880D01*
X166379780Y-109673500D01*
X166284542Y-109768738D01*
X166236923Y-109863976D01*
X166189304Y-110054452D01*
X166189304Y-110197309D01*
X166236923Y-110387785D01*
X166284542Y-110483023D01*
X166379780Y-110578261D01*
X166522638Y-110625880D01*
X166617876Y-110625880D01*
X166760733Y-110578261D01*
X166808352Y-110530642D01*
X166808352Y-110197309D01*
X166617876Y-110197309D01*
X167808352Y-110625880D02*
X167475019Y-110149690D01*
X167236923Y-110625880D02*
X167236923Y-109625880D01*
X167617876Y-109625880D01*
X167713114Y-109673500D01*
X167760733Y-109721119D01*
X167808352Y-109816357D01*
X167808352Y-109959214D01*
X167760733Y-110054452D01*
X167713114Y-110102071D01*
X167617876Y-110149690D01*
X167236923Y-110149690D01*
X168236923Y-110102071D02*
X168570257Y-110102071D01*
X168713114Y-110625880D02*
X168236923Y-110625880D01*
X168236923Y-109625880D01*
X168713114Y-109625880D01*
X169141685Y-110102071D02*
X169475019Y-110102071D01*
X169617876Y-110625880D02*
X169141685Y-110625880D01*
X169141685Y-109625880D01*
X169617876Y-109625880D01*
X170046447Y-110625880D02*
X170046447Y-109625880D01*
X170617876Y-110625880D01*
X170617876Y-109625880D01*
X168260733Y-107829880D02*
X167784542Y-107829880D01*
X167784542Y-106829880D01*
X168498828Y-106829880D02*
X169117876Y-106829880D01*
X168784542Y-107210833D01*
X168927400Y-107210833D01*
X169022638Y-107258452D01*
X169070257Y-107306071D01*
X169117876Y-107401309D01*
X169117876Y-107639404D01*
X169070257Y-107734642D01*
X169022638Y-107782261D01*
X168927400Y-107829880D01*
X168641685Y-107829880D01*
X168546447Y-107782261D01*
X168498828Y-107734642D01*
X167117876Y-104006071D02*
X167260733Y-104053690D01*
X167308352Y-104101309D01*
X167355971Y-104196547D01*
X167355971Y-104339404D01*
X167308352Y-104434642D01*
X167260733Y-104482261D01*
X167165495Y-104529880D01*
X166784542Y-104529880D01*
X166784542Y-103529880D01*
X167117876Y-103529880D01*
X167213114Y-103577500D01*
X167260733Y-103625119D01*
X167308352Y-103720357D01*
X167308352Y-103815595D01*
X167260733Y-103910833D01*
X167213114Y-103958452D01*
X167117876Y-104006071D01*
X166784542Y-104006071D01*
X168260733Y-104529880D02*
X167784542Y-104529880D01*
X167784542Y-103529880D01*
X168594066Y-103529880D02*
X168594066Y-104339404D01*
X168641685Y-104434642D01*
X168689304Y-104482261D01*
X168784542Y-104529880D01*
X168975019Y-104529880D01*
X169070257Y-104482261D01*
X169117876Y-104434642D01*
X169165495Y-104339404D01*
X169165495Y-103529880D01*
X169641685Y-104006071D02*
X169975019Y-104006071D01*
X170117876Y-104529880D02*
X169641685Y-104529880D01*
X169641685Y-103529880D01*
X170117876Y-103529880D01*
X168260733Y-101733880D02*
X167784542Y-101733880D01*
X167784542Y-100733880D01*
X168546447Y-100829119D02*
X168594066Y-100781500D01*
X168689304Y-100733880D01*
X168927400Y-100733880D01*
X169022638Y-100781500D01*
X169070257Y-100829119D01*
X169117876Y-100924357D01*
X169117876Y-101019595D01*
X169070257Y-101162452D01*
X168498828Y-101733880D01*
X169117876Y-101733880D01*
X165927400Y-97433880D02*
X166117876Y-97433880D01*
X166213114Y-97481500D01*
X166308352Y-97576738D01*
X166355971Y-97767214D01*
X166355971Y-98100547D01*
X166308352Y-98291023D01*
X166213114Y-98386261D01*
X166117876Y-98433880D01*
X165927400Y-98433880D01*
X165832161Y-98386261D01*
X165736923Y-98291023D01*
X165689304Y-98100547D01*
X165689304Y-97767214D01*
X165736923Y-97576738D01*
X165832161Y-97481500D01*
X165927400Y-97433880D01*
X167355971Y-98433880D02*
X167022638Y-97957690D01*
X166784542Y-98433880D02*
X166784542Y-97433880D01*
X167165495Y-97433880D01*
X167260733Y-97481500D01*
X167308352Y-97529119D01*
X167355971Y-97624357D01*
X167355971Y-97767214D01*
X167308352Y-97862452D01*
X167260733Y-97910071D01*
X167165495Y-97957690D01*
X166784542Y-97957690D01*
X167736923Y-98148166D02*
X168213114Y-98148166D01*
X167641685Y-98433880D02*
X167975019Y-97433880D01*
X168308352Y-98433880D01*
X168641685Y-98433880D02*
X168641685Y-97433880D01*
X169213114Y-98433880D01*
X169213114Y-97433880D01*
X170213114Y-97481500D02*
X170117876Y-97433880D01*
X169975019Y-97433880D01*
X169832161Y-97481500D01*
X169736923Y-97576738D01*
X169689304Y-97671976D01*
X169641685Y-97862452D01*
X169641685Y-98005309D01*
X169689304Y-98195785D01*
X169736923Y-98291023D01*
X169832161Y-98386261D01*
X169975019Y-98433880D01*
X170070257Y-98433880D01*
X170213114Y-98386261D01*
X170260733Y-98338642D01*
X170260733Y-98005309D01*
X170070257Y-98005309D01*
X170689304Y-97910071D02*
X171022638Y-97910071D01*
X171165495Y-98433880D02*
X170689304Y-98433880D01*
X170689304Y-97433880D01*
X171165495Y-97433880D01*
X163180733Y-113799880D02*
X162847400Y-113323690D01*
X162609304Y-113799880D02*
X162609304Y-112799880D01*
X162990257Y-112799880D01*
X163085495Y-112847500D01*
X163133114Y-112895119D01*
X163180733Y-112990357D01*
X163180733Y-113133214D01*
X163133114Y-113228452D01*
X163085495Y-113276071D01*
X162990257Y-113323690D01*
X162609304Y-113323690D01*
X164037876Y-112799880D02*
X163847400Y-112799880D01*
X163752161Y-112847500D01*
X163704542Y-112895119D01*
X163609304Y-113037976D01*
X163561685Y-113228452D01*
X163561685Y-113609404D01*
X163609304Y-113704642D01*
X163656923Y-113752261D01*
X163752161Y-113799880D01*
X163942638Y-113799880D01*
X164037876Y-113752261D01*
X164085495Y-113704642D01*
X164133114Y-113609404D01*
X164133114Y-113371309D01*
X164085495Y-113276071D01*
X164037876Y-113228452D01*
X163942638Y-113180833D01*
X163752161Y-113180833D01*
X163656923Y-113228452D01*
X163609304Y-113276071D01*
X163561685Y-113371309D01*
X162680733Y-110243880D02*
X162109304Y-110243880D01*
X162395019Y-110243880D02*
X162395019Y-109243880D01*
X162299780Y-109386738D01*
X162204542Y-109481976D01*
X162109304Y-109529595D01*
X163585495Y-109243880D02*
X163109304Y-109243880D01*
X163061685Y-109720071D01*
X163109304Y-109672452D01*
X163204542Y-109624833D01*
X163442638Y-109624833D01*
X163537876Y-109672452D01*
X163585495Y-109720071D01*
X163633114Y-109815309D01*
X163633114Y-110053404D01*
X163585495Y-110148642D01*
X163537876Y-110196261D01*
X163442638Y-110243880D01*
X163204542Y-110243880D01*
X163109304Y-110196261D01*
X163061685Y-110148642D01*
X164252161Y-109243880D02*
X164347400Y-109243880D01*
X164442638Y-109291500D01*
X164490257Y-109339119D01*
X164537876Y-109434357D01*
X164585495Y-109624833D01*
X164585495Y-109862928D01*
X164537876Y-110053404D01*
X164490257Y-110148642D01*
X164442638Y-110196261D01*
X164347400Y-110243880D01*
X164252161Y-110243880D01*
X164156923Y-110196261D01*
X164109304Y-110148642D01*
X164061685Y-110053404D01*
X164014066Y-109862928D01*
X164014066Y-109624833D01*
X164061685Y-109434357D01*
X164109304Y-109339119D01*
X164156923Y-109291500D01*
X164252161Y-109243880D01*
X163180733Y-107703880D02*
X162847400Y-107227690D01*
X162609304Y-107703880D02*
X162609304Y-106703880D01*
X162990257Y-106703880D01*
X163085495Y-106751500D01*
X163133114Y-106799119D01*
X163180733Y-106894357D01*
X163180733Y-107037214D01*
X163133114Y-107132452D01*
X163085495Y-107180071D01*
X162990257Y-107227690D01*
X162609304Y-107227690D01*
X164085495Y-106703880D02*
X163609304Y-106703880D01*
X163561685Y-107180071D01*
X163609304Y-107132452D01*
X163704542Y-107084833D01*
X163942638Y-107084833D01*
X164037876Y-107132452D01*
X164085495Y-107180071D01*
X164133114Y-107275309D01*
X164133114Y-107513404D01*
X164085495Y-107608642D01*
X164037876Y-107656261D01*
X163942638Y-107703880D01*
X163704542Y-107703880D01*
X163609304Y-107656261D01*
X163561685Y-107608642D01*
X162823590Y-103147880D02*
X162633114Y-103147880D01*
X162537876Y-103195500D01*
X162490257Y-103243119D01*
X162395019Y-103385976D01*
X162347400Y-103576452D01*
X162347400Y-103957404D01*
X162395019Y-104052642D01*
X162442638Y-104100261D01*
X162537876Y-104147880D01*
X162728352Y-104147880D01*
X162823590Y-104100261D01*
X162871209Y-104052642D01*
X162918828Y-103957404D01*
X162918828Y-103719309D01*
X162871209Y-103624071D01*
X162823590Y-103576452D01*
X162728352Y-103528833D01*
X162537876Y-103528833D01*
X162442638Y-103576452D01*
X162395019Y-103624071D01*
X162347400Y-103719309D01*
X163347400Y-104052642D02*
X163395019Y-104100261D01*
X163347400Y-104147880D01*
X163299780Y-104100261D01*
X163347400Y-104052642D01*
X163347400Y-104147880D01*
X163966447Y-103576452D02*
X163871209Y-103528833D01*
X163823590Y-103481214D01*
X163775971Y-103385976D01*
X163775971Y-103338357D01*
X163823590Y-103243119D01*
X163871209Y-103195500D01*
X163966447Y-103147880D01*
X164156923Y-103147880D01*
X164252161Y-103195500D01*
X164299780Y-103243119D01*
X164347400Y-103338357D01*
X164347400Y-103385976D01*
X164299780Y-103481214D01*
X164252161Y-103528833D01*
X164156923Y-103576452D01*
X163966447Y-103576452D01*
X163871209Y-103624071D01*
X163823590Y-103671690D01*
X163775971Y-103766928D01*
X163775971Y-103957404D01*
X163823590Y-104052642D01*
X163871209Y-104100261D01*
X163966447Y-104147880D01*
X164156923Y-104147880D01*
X164252161Y-104100261D01*
X164299780Y-104052642D01*
X164347400Y-103957404D01*
X164347400Y-103766928D01*
X164299780Y-103671690D01*
X164252161Y-103624071D01*
X164156923Y-103576452D01*
X163180733Y-101733880D02*
X162847400Y-101257690D01*
X162609304Y-101733880D02*
X162609304Y-100733880D01*
X162990257Y-100733880D01*
X163085495Y-100781500D01*
X163133114Y-100829119D01*
X163180733Y-100924357D01*
X163180733Y-101067214D01*
X163133114Y-101162452D01*
X163085495Y-101210071D01*
X162990257Y-101257690D01*
X162609304Y-101257690D01*
X164037876Y-101067214D02*
X164037876Y-101733880D01*
X163799780Y-100686261D02*
X163561685Y-101400547D01*
X164180733Y-101400547D01*
X163061685Y-97433880D02*
X162871209Y-97433880D01*
X162775971Y-97481500D01*
X162728352Y-97529119D01*
X162633114Y-97671976D01*
X162585495Y-97862452D01*
X162585495Y-98243404D01*
X162633114Y-98338642D01*
X162680733Y-98386261D01*
X162775971Y-98433880D01*
X162966447Y-98433880D01*
X163061685Y-98386261D01*
X163109304Y-98338642D01*
X163156923Y-98243404D01*
X163156923Y-98005309D01*
X163109304Y-97910071D01*
X163061685Y-97862452D01*
X162966447Y-97814833D01*
X162775971Y-97814833D01*
X162680733Y-97862452D01*
X162633114Y-97910071D01*
X162585495Y-98005309D01*
X163728352Y-97862452D02*
X163633114Y-97814833D01*
X163585495Y-97767214D01*
X163537876Y-97671976D01*
X163537876Y-97624357D01*
X163585495Y-97529119D01*
X163633114Y-97481500D01*
X163728352Y-97433880D01*
X163918828Y-97433880D01*
X164014066Y-97481500D01*
X164061685Y-97529119D01*
X164109304Y-97624357D01*
X164109304Y-97671976D01*
X164061685Y-97767214D01*
X164014066Y-97814833D01*
X163918828Y-97862452D01*
X163728352Y-97862452D01*
X163633114Y-97910071D01*
X163585495Y-97957690D01*
X163537876Y-98052928D01*
X163537876Y-98243404D01*
X163585495Y-98338642D01*
X163633114Y-98386261D01*
X163728352Y-98433880D01*
X163918828Y-98433880D01*
X164014066Y-98386261D01*
X164061685Y-98338642D01*
X164109304Y-98243404D01*
X164109304Y-98052928D01*
X164061685Y-97957690D01*
X164014066Y-97910071D01*
X163918828Y-97862452D01*
X119096257Y-122959880D02*
X119667685Y-122959880D01*
X119381971Y-123959880D02*
X119381971Y-122959880D01*
X120001019Y-123436071D02*
X120334352Y-123436071D01*
X120477209Y-123959880D02*
X120001019Y-123959880D01*
X120001019Y-122959880D01*
X120477209Y-122959880D01*
X120858161Y-123912261D02*
X121001019Y-123959880D01*
X121239114Y-123959880D01*
X121334352Y-123912261D01*
X121381971Y-123864642D01*
X121429590Y-123769404D01*
X121429590Y-123674166D01*
X121381971Y-123578928D01*
X121334352Y-123531309D01*
X121239114Y-123483690D01*
X121048638Y-123436071D01*
X120953400Y-123388452D01*
X120905780Y-123340833D01*
X120858161Y-123245595D01*
X120858161Y-123150357D01*
X120905780Y-123055119D01*
X120953400Y-123007500D01*
X121048638Y-122959880D01*
X121286733Y-122959880D01*
X121429590Y-123007500D01*
X121715304Y-122959880D02*
X122286733Y-122959880D01*
X122001019Y-123959880D02*
X122001019Y-122959880D01*
X122381971Y-124055119D02*
X123143876Y-124055119D01*
X123286733Y-122959880D02*
X123905780Y-122959880D01*
X123572447Y-123340833D01*
X123715304Y-123340833D01*
X123810542Y-123388452D01*
X123858161Y-123436071D01*
X123905780Y-123531309D01*
X123905780Y-123769404D01*
X123858161Y-123864642D01*
X123810542Y-123912261D01*
X123715304Y-123959880D01*
X123429590Y-123959880D01*
X123334352Y-123912261D01*
X123286733Y-123864642D01*
X124191495Y-122959880D02*
X124524828Y-123959880D01*
X124858161Y-122959880D01*
X125096257Y-122959880D02*
X125715304Y-122959880D01*
X125381971Y-123340833D01*
X125524828Y-123340833D01*
X125620066Y-123388452D01*
X125667685Y-123436071D01*
X125715304Y-123531309D01*
X125715304Y-123769404D01*
X125667685Y-123864642D01*
X125620066Y-123912261D01*
X125524828Y-123959880D01*
X125239114Y-123959880D01*
X125143876Y-123912261D01*
X125096257Y-123864642D01*
X123794828Y-120332452D02*
X123794828Y-119570547D01*
X124175780Y-119951500D02*
X123413876Y-119951500D01*
X120802447Y-120022928D02*
X121564352Y-120022928D01*
X151409495Y-120649880D02*
X151980923Y-120649880D01*
X151695209Y-121649880D02*
X151695209Y-120649880D01*
X152266638Y-120745119D02*
X152314257Y-120697500D01*
X152409495Y-120649880D01*
X152647590Y-120649880D01*
X152742828Y-120697500D01*
X152790447Y-120745119D01*
X152838066Y-120840357D01*
X152838066Y-120935595D01*
X152790447Y-121078452D01*
X152219019Y-121649880D01*
X152838066Y-121649880D01*
X150385685Y-79597500D02*
X150290447Y-79549880D01*
X150147590Y-79549880D01*
X150004733Y-79597500D01*
X149909495Y-79692738D01*
X149861876Y-79787976D01*
X149814257Y-79978452D01*
X149814257Y-80121309D01*
X149861876Y-80311785D01*
X149909495Y-80407023D01*
X150004733Y-80502261D01*
X150147590Y-80549880D01*
X150242828Y-80549880D01*
X150385685Y-80502261D01*
X150433304Y-80454642D01*
X150433304Y-80121309D01*
X150242828Y-80121309D01*
X150861876Y-80549880D02*
X150861876Y-79549880D01*
X151242828Y-79549880D01*
X151338066Y-79597500D01*
X151385685Y-79645119D01*
X151433304Y-79740357D01*
X151433304Y-79883214D01*
X151385685Y-79978452D01*
X151338066Y-80026071D01*
X151242828Y-80073690D01*
X150861876Y-80073690D01*
X151861876Y-80549880D02*
X151861876Y-79549880D01*
X152528542Y-79549880D02*
X152719019Y-79549880D01*
X152814257Y-79597500D01*
X152909495Y-79692738D01*
X152957114Y-79883214D01*
X152957114Y-80216547D01*
X152909495Y-80407023D01*
X152814257Y-80502261D01*
X152719019Y-80549880D01*
X152528542Y-80549880D01*
X152433304Y-80502261D01*
X152338066Y-80407023D01*
X152290447Y-80216547D01*
X152290447Y-79883214D01*
X152338066Y-79692738D01*
X152433304Y-79597500D01*
X152528542Y-79549880D01*
X153147590Y-80645119D02*
X153909495Y-80645119D01*
X154623780Y-80549880D02*
X154147590Y-80549880D01*
X154147590Y-79549880D01*
X154759114Y-108434166D02*
X155235304Y-108434166D01*
X154663876Y-108719880D02*
X154997209Y-107719880D01*
X155330542Y-108719880D01*
X155854352Y-107719880D02*
X155949590Y-107719880D01*
X156044828Y-107767500D01*
X156092447Y-107815119D01*
X156140066Y-107910357D01*
X156187685Y-108100833D01*
X156187685Y-108338928D01*
X156140066Y-108529404D01*
X156092447Y-108624642D01*
X156044828Y-108672261D01*
X155949590Y-108719880D01*
X155854352Y-108719880D01*
X155759114Y-108672261D01*
X155711495Y-108624642D01*
X155663876Y-108529404D01*
X155616257Y-108338928D01*
X155616257Y-108100833D01*
X155663876Y-107910357D01*
X155711495Y-107815119D01*
X155759114Y-107767500D01*
X155854352Y-107719880D01*
X154711495Y-82319880D02*
X155282923Y-82319880D01*
X154997209Y-83319880D02*
X154997209Y-82319880D01*
X155521019Y-82319880D02*
X156187685Y-83319880D01*
X156187685Y-82319880D02*
X155521019Y-83319880D01*
X154616257Y-90939880D02*
X154616257Y-89939880D01*
X154949590Y-90654166D01*
X155282923Y-89939880D01*
X155282923Y-90939880D01*
X155949590Y-89939880D02*
X156140066Y-89939880D01*
X156235304Y-89987500D01*
X156330542Y-90082738D01*
X156378161Y-90273214D01*
X156378161Y-90606547D01*
X156330542Y-90797023D01*
X156235304Y-90892261D01*
X156140066Y-90939880D01*
X155949590Y-90939880D01*
X155854352Y-90892261D01*
X155759114Y-90797023D01*
X155711495Y-90606547D01*
X155711495Y-90273214D01*
X155759114Y-90082738D01*
X155854352Y-89987500D01*
X155949590Y-89939880D01*
X154759114Y-95734166D02*
X155235304Y-95734166D01*
X154663876Y-96019880D02*
X154997209Y-95019880D01*
X155330542Y-96019880D01*
X156140066Y-95019880D02*
X155663876Y-95019880D01*
X155616257Y-95496071D01*
X155663876Y-95448452D01*
X155759114Y-95400833D01*
X155997209Y-95400833D01*
X156092447Y-95448452D01*
X156140066Y-95496071D01*
X156187685Y-95591309D01*
X156187685Y-95829404D01*
X156140066Y-95924642D01*
X156092447Y-95972261D01*
X155997209Y-96019880D01*
X155759114Y-96019880D01*
X155663876Y-95972261D01*
X155616257Y-95924642D01*
X154441685Y-93432261D02*
X154584542Y-93479880D01*
X154822638Y-93479880D01*
X154917876Y-93432261D01*
X154965495Y-93384642D01*
X155013114Y-93289404D01*
X155013114Y-93194166D01*
X154965495Y-93098928D01*
X154917876Y-93051309D01*
X154822638Y-93003690D01*
X154632161Y-92956071D01*
X154536923Y-92908452D01*
X154489304Y-92860833D01*
X154441685Y-92765595D01*
X154441685Y-92670357D01*
X154489304Y-92575119D01*
X154536923Y-92527500D01*
X154632161Y-92479880D01*
X154870257Y-92479880D01*
X155013114Y-92527500D01*
X156013114Y-93384642D02*
X155965495Y-93432261D01*
X155822638Y-93479880D01*
X155727400Y-93479880D01*
X155584542Y-93432261D01*
X155489304Y-93337023D01*
X155441685Y-93241785D01*
X155394066Y-93051309D01*
X155394066Y-92908452D01*
X155441685Y-92717976D01*
X155489304Y-92622738D01*
X155584542Y-92527500D01*
X155727400Y-92479880D01*
X155822638Y-92479880D01*
X155965495Y-92527500D01*
X156013114Y-92575119D01*
X156441685Y-93479880D02*
X156441685Y-92479880D01*
X157013114Y-93479880D02*
X156584542Y-92908452D01*
X157013114Y-92479880D02*
X156441685Y-93051309D01*
X155306733Y-85859880D02*
X154973400Y-85383690D01*
X154735304Y-85859880D02*
X154735304Y-84859880D01*
X155116257Y-84859880D01*
X155211495Y-84907500D01*
X155259114Y-84955119D01*
X155306733Y-85050357D01*
X155306733Y-85193214D01*
X155259114Y-85288452D01*
X155211495Y-85336071D01*
X155116257Y-85383690D01*
X154735304Y-85383690D01*
X155640066Y-84859880D02*
X156306733Y-85859880D01*
X156306733Y-84859880D02*
X155640066Y-85859880D01*
X154759114Y-98274166D02*
X155235304Y-98274166D01*
X154663876Y-98559880D02*
X154997209Y-97559880D01*
X155330542Y-98559880D01*
X156092447Y-97893214D02*
X156092447Y-98559880D01*
X155854352Y-97512261D02*
X155616257Y-98226547D01*
X156235304Y-98226547D01*
X154489304Y-115339880D02*
X155108352Y-115339880D01*
X154775019Y-115720833D01*
X154917876Y-115720833D01*
X155013114Y-115768452D01*
X155060733Y-115816071D01*
X155108352Y-115911309D01*
X155108352Y-116149404D01*
X155060733Y-116244642D01*
X155013114Y-116292261D01*
X154917876Y-116339880D01*
X154632161Y-116339880D01*
X154536923Y-116292261D01*
X154489304Y-116244642D01*
X155394066Y-115339880D02*
X155727400Y-116339880D01*
X156060733Y-115339880D01*
X156298828Y-115339880D02*
X156917876Y-115339880D01*
X156584542Y-115720833D01*
X156727400Y-115720833D01*
X156822638Y-115768452D01*
X156870257Y-115816071D01*
X156917876Y-115911309D01*
X156917876Y-116149404D01*
X156870257Y-116244642D01*
X156822638Y-116292261D01*
X156727400Y-116339880D01*
X156441685Y-116339880D01*
X156346447Y-116292261D01*
X156298828Y-116244642D01*
X154759114Y-100814166D02*
X155235304Y-100814166D01*
X154663876Y-101099880D02*
X154997209Y-100099880D01*
X155330542Y-101099880D01*
X155568638Y-100099880D02*
X156187685Y-100099880D01*
X155854352Y-100480833D01*
X155997209Y-100480833D01*
X156092447Y-100528452D01*
X156140066Y-100576071D01*
X156187685Y-100671309D01*
X156187685Y-100909404D01*
X156140066Y-101004642D01*
X156092447Y-101052261D01*
X155997209Y-101099880D01*
X155711495Y-101099880D01*
X155616257Y-101052261D01*
X155568638Y-101004642D01*
X154759114Y-105894166D02*
X155235304Y-105894166D01*
X154663876Y-106179880D02*
X154997209Y-105179880D01*
X155330542Y-106179880D01*
X156187685Y-106179880D02*
X155616257Y-106179880D01*
X155901971Y-106179880D02*
X155901971Y-105179880D01*
X155806733Y-105322738D01*
X155711495Y-105417976D01*
X155616257Y-105465595D01*
X154759114Y-103354166D02*
X155235304Y-103354166D01*
X154663876Y-103639880D02*
X154997209Y-102639880D01*
X155330542Y-103639880D01*
X155616257Y-102735119D02*
X155663876Y-102687500D01*
X155759114Y-102639880D01*
X155997209Y-102639880D01*
X156092447Y-102687500D01*
X156140066Y-102735119D01*
X156187685Y-102830357D01*
X156187685Y-102925595D01*
X156140066Y-103068452D01*
X155568638Y-103639880D01*
X156187685Y-103639880D01*
X154640066Y-113799880D02*
X154640066Y-112799880D01*
X154973400Y-113514166D01*
X155306733Y-112799880D01*
X155306733Y-113799880D01*
X155782923Y-113799880D02*
X155782923Y-112799880D01*
X156021019Y-112799880D01*
X156163876Y-112847500D01*
X156259114Y-112942738D01*
X156306733Y-113037976D01*
X156354352Y-113228452D01*
X156354352Y-113371309D01*
X156306733Y-113561785D01*
X156259114Y-113657023D01*
X156163876Y-113752261D01*
X156021019Y-113799880D01*
X155782923Y-113799880D01*
X154965495Y-110307500D02*
X154870257Y-110259880D01*
X154727400Y-110259880D01*
X154584542Y-110307500D01*
X154489304Y-110402738D01*
X154441685Y-110497976D01*
X154394066Y-110688452D01*
X154394066Y-110831309D01*
X154441685Y-111021785D01*
X154489304Y-111117023D01*
X154584542Y-111212261D01*
X154727400Y-111259880D01*
X154822638Y-111259880D01*
X154965495Y-111212261D01*
X155013114Y-111164642D01*
X155013114Y-110831309D01*
X154822638Y-110831309D01*
X155441685Y-111259880D02*
X155441685Y-110259880D01*
X156013114Y-111259880D01*
X156013114Y-110259880D01*
X156489304Y-111259880D02*
X156489304Y-110259880D01*
X156727400Y-110259880D01*
X156870257Y-110307500D01*
X156965495Y-110402738D01*
X157013114Y-110497976D01*
X157060733Y-110688452D01*
X157060733Y-110831309D01*
X157013114Y-111021785D01*
X156965495Y-111117023D01*
X156870257Y-111212261D01*
X156727400Y-111259880D01*
X156489304Y-111259880D01*
X154647971Y-88399880D02*
X154647971Y-87399880D01*
X154981304Y-88114166D01*
X155314638Y-87399880D01*
X155314638Y-88399880D01*
X155790828Y-88399880D02*
X155790828Y-87399880D01*
X123977495Y-110997880D02*
X124548923Y-110997880D01*
X124263209Y-111997880D02*
X124263209Y-110997880D01*
X124787019Y-110997880D02*
X125406066Y-110997880D01*
X125072733Y-111378833D01*
X125215590Y-111378833D01*
X125310828Y-111426452D01*
X125358447Y-111474071D01*
X125406066Y-111569309D01*
X125406066Y-111807404D01*
X125358447Y-111902642D01*
X125310828Y-111950261D01*
X125215590Y-111997880D01*
X124929876Y-111997880D01*
X124834638Y-111950261D01*
X124787019Y-111902642D01*
X122858447Y-77565500D02*
X122763209Y-77517880D01*
X122620352Y-77517880D01*
X122477495Y-77565500D01*
X122382257Y-77660738D01*
X122334638Y-77755976D01*
X122287019Y-77946452D01*
X122287019Y-78089309D01*
X122334638Y-78279785D01*
X122382257Y-78375023D01*
X122477495Y-78470261D01*
X122620352Y-78517880D01*
X122715590Y-78517880D01*
X122858447Y-78470261D01*
X122906066Y-78422642D01*
X122906066Y-78089309D01*
X122715590Y-78089309D01*
X123334638Y-78517880D02*
X123334638Y-77517880D01*
X123715590Y-77517880D01*
X123810828Y-77565500D01*
X123858447Y-77613119D01*
X123906066Y-77708357D01*
X123906066Y-77851214D01*
X123858447Y-77946452D01*
X123810828Y-77994071D01*
X123715590Y-78041690D01*
X123334638Y-78041690D01*
X124334638Y-78517880D02*
X124334638Y-77517880D01*
X125001304Y-77517880D02*
X125191780Y-77517880D01*
X125287019Y-77565500D01*
X125382257Y-77660738D01*
X125429876Y-77851214D01*
X125429876Y-78184547D01*
X125382257Y-78375023D01*
X125287019Y-78470261D01*
X125191780Y-78517880D01*
X125001304Y-78517880D01*
X124906066Y-78470261D01*
X124810828Y-78375023D01*
X124763209Y-78184547D01*
X124763209Y-77851214D01*
X124810828Y-77660738D01*
X124906066Y-77565500D01*
X125001304Y-77517880D01*
X125620352Y-78613119D02*
X126382257Y-78613119D01*
X127191780Y-78517880D02*
X126858447Y-78041690D01*
X126620352Y-78517880D02*
X126620352Y-77517880D01*
X127001304Y-77517880D01*
X127096542Y-77565500D01*
X127144161Y-77613119D01*
X127191780Y-77708357D01*
X127191780Y-77851214D01*
X127144161Y-77946452D01*
X127096542Y-77994071D01*
X127001304Y-78041690D01*
X126620352Y-78041690D01*
X121080304Y-101607880D02*
X121080304Y-100607880D01*
X121318400Y-100607880D01*
X121461257Y-100655500D01*
X121556495Y-100750738D01*
X121604114Y-100845976D01*
X121651733Y-101036452D01*
X121651733Y-101179309D01*
X121604114Y-101369785D01*
X121556495Y-101465023D01*
X121461257Y-101560261D01*
X121318400Y-101607880D01*
X121080304Y-101607880D01*
X122223161Y-101036452D02*
X122127923Y-100988833D01*
X122080304Y-100941214D01*
X122032685Y-100845976D01*
X122032685Y-100798357D01*
X122080304Y-100703119D01*
X122127923Y-100655500D01*
X122223161Y-100607880D01*
X122413638Y-100607880D01*
X122508876Y-100655500D01*
X122556495Y-100703119D01*
X122604114Y-100798357D01*
X122604114Y-100845976D01*
X122556495Y-100941214D01*
X122508876Y-100988833D01*
X122413638Y-101036452D01*
X122223161Y-101036452D01*
X122127923Y-101084071D01*
X122080304Y-101131690D01*
X122032685Y-101226928D01*
X122032685Y-101417404D01*
X122080304Y-101512642D01*
X122127923Y-101560261D01*
X122223161Y-101607880D01*
X122413638Y-101607880D01*
X122508876Y-101560261D01*
X122556495Y-101512642D01*
X122604114Y-101417404D01*
X122604114Y-101226928D01*
X122556495Y-101131690D01*
X122508876Y-101084071D01*
X122413638Y-101036452D01*
X121080304Y-99067880D02*
X121080304Y-98067880D01*
X121318400Y-98067880D01*
X121461257Y-98115500D01*
X121556495Y-98210738D01*
X121604114Y-98305976D01*
X121651733Y-98496452D01*
X121651733Y-98639309D01*
X121604114Y-98829785D01*
X121556495Y-98925023D01*
X121461257Y-99020261D01*
X121318400Y-99067880D01*
X121080304Y-99067880D01*
X121985066Y-98067880D02*
X122651733Y-98067880D01*
X122223161Y-99067880D01*
X121016780Y-109227880D02*
X120540590Y-109227880D01*
X120540590Y-108227880D01*
X121350114Y-109227880D02*
X121350114Y-108227880D01*
X121826304Y-108846928D02*
X122588209Y-108846928D01*
X122207257Y-109227880D02*
X122207257Y-108465976D01*
X121080304Y-86367880D02*
X121080304Y-85367880D01*
X121318400Y-85367880D01*
X121461257Y-85415500D01*
X121556495Y-85510738D01*
X121604114Y-85605976D01*
X121651733Y-85796452D01*
X121651733Y-85939309D01*
X121604114Y-86129785D01*
X121556495Y-86225023D01*
X121461257Y-86320261D01*
X121318400Y-86367880D01*
X121080304Y-86367880D01*
X122032685Y-85463119D02*
X122080304Y-85415500D01*
X122175542Y-85367880D01*
X122413638Y-85367880D01*
X122508876Y-85415500D01*
X122556495Y-85463119D01*
X122604114Y-85558357D01*
X122604114Y-85653595D01*
X122556495Y-85796452D01*
X121985066Y-86367880D01*
X122604114Y-86367880D01*
X120953304Y-106164071D02*
X121286638Y-106164071D01*
X121429495Y-106687880D02*
X120953304Y-106687880D01*
X120953304Y-105687880D01*
X121429495Y-105687880D01*
X121858066Y-106687880D02*
X121858066Y-105687880D01*
X122429495Y-106687880D01*
X122429495Y-105687880D01*
X121080304Y-91447880D02*
X121080304Y-90447880D01*
X121318400Y-90447880D01*
X121461257Y-90495500D01*
X121556495Y-90590738D01*
X121604114Y-90685976D01*
X121651733Y-90876452D01*
X121651733Y-91019309D01*
X121604114Y-91209785D01*
X121556495Y-91305023D01*
X121461257Y-91400261D01*
X121318400Y-91447880D01*
X121080304Y-91447880D01*
X122508876Y-90781214D02*
X122508876Y-91447880D01*
X122270780Y-90400261D02*
X122032685Y-91114547D01*
X122651733Y-91114547D01*
X121080304Y-93987880D02*
X121080304Y-92987880D01*
X121318400Y-92987880D01*
X121461257Y-93035500D01*
X121556495Y-93130738D01*
X121604114Y-93225976D01*
X121651733Y-93416452D01*
X121651733Y-93559309D01*
X121604114Y-93749785D01*
X121556495Y-93845023D01*
X121461257Y-93940261D01*
X121318400Y-93987880D01*
X121080304Y-93987880D01*
X122556495Y-92987880D02*
X122080304Y-92987880D01*
X122032685Y-93464071D01*
X122080304Y-93416452D01*
X122175542Y-93368833D01*
X122413638Y-93368833D01*
X122508876Y-93416452D01*
X122556495Y-93464071D01*
X122604114Y-93559309D01*
X122604114Y-93797404D01*
X122556495Y-93892642D01*
X122508876Y-93940261D01*
X122413638Y-93987880D01*
X122175542Y-93987880D01*
X122080304Y-93940261D01*
X122032685Y-93892642D01*
X121080304Y-88907880D02*
X121080304Y-87907880D01*
X121318400Y-87907880D01*
X121461257Y-87955500D01*
X121556495Y-88050738D01*
X121604114Y-88145976D01*
X121651733Y-88336452D01*
X121651733Y-88479309D01*
X121604114Y-88669785D01*
X121556495Y-88765023D01*
X121461257Y-88860261D01*
X121318400Y-88907880D01*
X121080304Y-88907880D01*
X121985066Y-87907880D02*
X122604114Y-87907880D01*
X122270780Y-88288833D01*
X122413638Y-88288833D01*
X122508876Y-88336452D01*
X122556495Y-88384071D01*
X122604114Y-88479309D01*
X122604114Y-88717404D01*
X122556495Y-88812642D01*
X122508876Y-88860261D01*
X122413638Y-88907880D01*
X122127923Y-88907880D01*
X122032685Y-88860261D01*
X121985066Y-88812642D01*
X120373923Y-83780261D02*
X120516780Y-83827880D01*
X120754876Y-83827880D01*
X120850114Y-83780261D01*
X120897733Y-83732642D01*
X120945352Y-83637404D01*
X120945352Y-83542166D01*
X120897733Y-83446928D01*
X120850114Y-83399309D01*
X120754876Y-83351690D01*
X120564400Y-83304071D01*
X120469161Y-83256452D01*
X120421542Y-83208833D01*
X120373923Y-83113595D01*
X120373923Y-83018357D01*
X120421542Y-82923119D01*
X120469161Y-82875500D01*
X120564400Y-82827880D01*
X120802495Y-82827880D01*
X120945352Y-82875500D01*
X121945352Y-83732642D02*
X121897733Y-83780261D01*
X121754876Y-83827880D01*
X121659638Y-83827880D01*
X121516780Y-83780261D01*
X121421542Y-83685023D01*
X121373923Y-83589785D01*
X121326304Y-83399309D01*
X121326304Y-83256452D01*
X121373923Y-83065976D01*
X121421542Y-82970738D01*
X121516780Y-82875500D01*
X121659638Y-82827880D01*
X121754876Y-82827880D01*
X121897733Y-82875500D01*
X121945352Y-82923119D01*
X122850114Y-83827880D02*
X122373923Y-83827880D01*
X122373923Y-82827880D01*
X121080304Y-96527880D02*
X121080304Y-95527880D01*
X121318400Y-95527880D01*
X121461257Y-95575500D01*
X121556495Y-95670738D01*
X121604114Y-95765976D01*
X121651733Y-95956452D01*
X121651733Y-96099309D01*
X121604114Y-96289785D01*
X121556495Y-96385023D01*
X121461257Y-96480261D01*
X121318400Y-96527880D01*
X121080304Y-96527880D01*
X122508876Y-95527880D02*
X122318400Y-95527880D01*
X122223161Y-95575500D01*
X122175542Y-95623119D01*
X122080304Y-95765976D01*
X122032685Y-95956452D01*
X122032685Y-96337404D01*
X122080304Y-96432642D01*
X122127923Y-96480261D01*
X122223161Y-96527880D01*
X122413638Y-96527880D01*
X122508876Y-96480261D01*
X122556495Y-96432642D01*
X122604114Y-96337404D01*
X122604114Y-96099309D01*
X122556495Y-96004071D01*
X122508876Y-95956452D01*
X122413638Y-95908833D01*
X122223161Y-95908833D01*
X122127923Y-95956452D01*
X122080304Y-96004071D01*
X122032685Y-96099309D01*
X120469161Y-103147880D02*
X120802495Y-104147880D01*
X121135828Y-103147880D01*
X121469161Y-104147880D02*
X121469161Y-103147880D01*
X121945352Y-104147880D02*
X121945352Y-103147880D01*
X122516780Y-104147880D01*
X122516780Y-103147880D01*
X120350114Y-81240261D02*
X120492971Y-81287880D01*
X120731066Y-81287880D01*
X120826304Y-81240261D01*
X120873923Y-81192642D01*
X120921542Y-81097404D01*
X120921542Y-81002166D01*
X120873923Y-80906928D01*
X120826304Y-80859309D01*
X120731066Y-80811690D01*
X120540590Y-80764071D01*
X120445352Y-80716452D01*
X120397733Y-80668833D01*
X120350114Y-80573595D01*
X120350114Y-80478357D01*
X120397733Y-80383119D01*
X120445352Y-80335500D01*
X120540590Y-80287880D01*
X120778685Y-80287880D01*
X120921542Y-80335500D01*
X121350114Y-81287880D02*
X121350114Y-80287880D01*
X121588209Y-80287880D01*
X121731066Y-80335500D01*
X121826304Y-80430738D01*
X121873923Y-80525976D01*
X121921542Y-80716452D01*
X121921542Y-80859309D01*
X121873923Y-81049785D01*
X121826304Y-81145023D01*
X121731066Y-81240261D01*
X121588209Y-81287880D01*
X121350114Y-81287880D01*
X122302495Y-81002166D02*
X122778685Y-81002166D01*
X122207257Y-81287880D02*
X122540590Y-80287880D01*
X122873923Y-81287880D01*
X180556447Y-65587880D02*
X181127876Y-65587880D01*
X180842161Y-66587880D02*
X180842161Y-65587880D01*
X181461209Y-66064071D02*
X181794542Y-66064071D01*
X181937400Y-66587880D02*
X181461209Y-66587880D01*
X181461209Y-65587880D01*
X181937400Y-65587880D01*
X182318352Y-66540261D02*
X182461209Y-66587880D01*
X182699304Y-66587880D01*
X182794542Y-66540261D01*
X182842161Y-66492642D01*
X182889780Y-66397404D01*
X182889780Y-66302166D01*
X182842161Y-66206928D01*
X182794542Y-66159309D01*
X182699304Y-66111690D01*
X182508828Y-66064071D01*
X182413590Y-66016452D01*
X182365971Y-65968833D01*
X182318352Y-65873595D01*
X182318352Y-65778357D01*
X182365971Y-65683119D01*
X182413590Y-65635500D01*
X182508828Y-65587880D01*
X182746923Y-65587880D01*
X182889780Y-65635500D01*
X183175495Y-65587880D02*
X183746923Y-65587880D01*
X183461209Y-66587880D02*
X183461209Y-65587880D01*
X183842161Y-66683119D02*
X184604066Y-66683119D01*
X185413590Y-66587880D02*
X185080257Y-66111690D01*
X184842161Y-66587880D02*
X184842161Y-65587880D01*
X185223114Y-65587880D01*
X185318352Y-65635500D01*
X185365971Y-65683119D01*
X185413590Y-65778357D01*
X185413590Y-65921214D01*
X185365971Y-66016452D01*
X185318352Y-66064071D01*
X185223114Y-66111690D01*
X184842161Y-66111690D01*
X185794542Y-66540261D02*
X185937400Y-66587880D01*
X186175495Y-66587880D01*
X186270733Y-66540261D01*
X186318352Y-66492642D01*
X186365971Y-66397404D01*
X186365971Y-66302166D01*
X186318352Y-66206928D01*
X186270733Y-66159309D01*
X186175495Y-66111690D01*
X185985019Y-66064071D01*
X185889780Y-66016452D01*
X185842161Y-65968833D01*
X185794542Y-65873595D01*
X185794542Y-65778357D01*
X185842161Y-65683119D01*
X185889780Y-65635500D01*
X185985019Y-65587880D01*
X186223114Y-65587880D01*
X186365971Y-65635500D01*
X186746923Y-65683119D02*
X186794542Y-65635500D01*
X186889780Y-65587880D01*
X187127876Y-65587880D01*
X187223114Y-65635500D01*
X187270733Y-65683119D01*
X187318352Y-65778357D01*
X187318352Y-65873595D01*
X187270733Y-66016452D01*
X186699304Y-66587880D01*
X187318352Y-66587880D01*
X187651685Y-65587880D02*
X188270733Y-65587880D01*
X187937400Y-65968833D01*
X188080257Y-65968833D01*
X188175495Y-66016452D01*
X188223114Y-66064071D01*
X188270733Y-66159309D01*
X188270733Y-66397404D01*
X188223114Y-66492642D01*
X188175495Y-66540261D01*
X188080257Y-66587880D01*
X187794542Y-66587880D01*
X187699304Y-66540261D01*
X187651685Y-66492642D01*
X188651685Y-65683119D02*
X188699304Y-65635500D01*
X188794542Y-65587880D01*
X189032638Y-65587880D01*
X189127876Y-65635500D01*
X189175495Y-65683119D01*
X189223114Y-65778357D01*
X189223114Y-65873595D01*
X189175495Y-66016452D01*
X188604066Y-66587880D01*
X189223114Y-66587880D01*
X184119780Y-70334166D02*
X183643590Y-70667500D01*
X184119780Y-70905595D02*
X183119780Y-70905595D01*
X183119780Y-70524642D01*
X183167400Y-70429404D01*
X183215019Y-70381785D01*
X183310257Y-70334166D01*
X183453114Y-70334166D01*
X183548352Y-70381785D01*
X183595971Y-70429404D01*
X183643590Y-70524642D01*
X183643590Y-70905595D01*
X183119780Y-70000833D02*
X184119780Y-69334166D01*
X183119780Y-69334166D02*
X184119780Y-70000833D01*
X185659780Y-70929404D02*
X185659780Y-70357976D01*
X186659780Y-70643690D02*
X185659780Y-70643690D01*
X185659780Y-70119880D02*
X186659780Y-69453214D01*
X185659780Y-69453214D02*
X186659780Y-70119880D01*
X133859590Y-105187690D02*
X134335780Y-105187690D01*
X133335780Y-105521023D02*
X133859590Y-105187690D01*
X133335780Y-104854357D01*
X134335780Y-103997214D02*
X134335780Y-104568642D01*
X134335780Y-104282928D02*
X133335780Y-104282928D01*
X133478638Y-104378166D01*
X133573876Y-104473404D01*
X133621495Y-104568642D01*
X133764352Y-97670738D02*
X133716733Y-97765976D01*
X133669114Y-97813595D01*
X133573876Y-97861214D01*
X133526257Y-97861214D01*
X133431019Y-97813595D01*
X133383400Y-97765976D01*
X133335780Y-97670738D01*
X133335780Y-97480261D01*
X133383400Y-97385023D01*
X133431019Y-97337404D01*
X133526257Y-97289785D01*
X133573876Y-97289785D01*
X133669114Y-97337404D01*
X133716733Y-97385023D01*
X133764352Y-97480261D01*
X133764352Y-97670738D01*
X133811971Y-97765976D01*
X133859590Y-97813595D01*
X133954828Y-97861214D01*
X134145304Y-97861214D01*
X134240542Y-97813595D01*
X134288161Y-97765976D01*
X134335780Y-97670738D01*
X134335780Y-97480261D01*
X134288161Y-97385023D01*
X134240542Y-97337404D01*
X134145304Y-97289785D01*
X133954828Y-97289785D01*
X133859590Y-97337404D01*
X133811971Y-97385023D01*
X133764352Y-97480261D01*
X134335780Y-96861214D02*
X133335780Y-96861214D01*
X134050066Y-96527880D01*
X133335780Y-96194547D01*
X134335780Y-96194547D01*
X134335780Y-95718357D02*
X133335780Y-95718357D01*
X133811971Y-95718357D02*
X133811971Y-95146928D01*
X134335780Y-95146928D02*
X133335780Y-95146928D01*
X133669114Y-94765976D02*
X133669114Y-94242166D01*
X134335780Y-94765976D01*
X134335780Y-94242166D01*
D12*
X139868161Y-110060071D02*
X137868161Y-110060071D01*
X137868161Y-109298166D01*
X137963400Y-109107690D01*
X138058638Y-109012452D01*
X138249114Y-108917214D01*
X138534828Y-108917214D01*
X138725304Y-109012452D01*
X138820542Y-109107690D01*
X138915780Y-109298166D01*
X138915780Y-110060071D01*
X139868161Y-107202928D02*
X138820542Y-107202928D01*
X138630066Y-107298166D01*
X138534828Y-107488642D01*
X138534828Y-107869595D01*
X138630066Y-108060071D01*
X139772923Y-107202928D02*
X139868161Y-107393404D01*
X139868161Y-107869595D01*
X139772923Y-108060071D01*
X139582447Y-108155309D01*
X139391971Y-108155309D01*
X139201495Y-108060071D01*
X139106257Y-107869595D01*
X139106257Y-107393404D01*
X139011019Y-107202928D01*
X139868161Y-106250547D02*
X138534828Y-106250547D01*
X138915780Y-106250547D02*
X138725304Y-106155309D01*
X138630066Y-106060071D01*
X138534828Y-105869595D01*
X138534828Y-105679119D01*
X138534828Y-105298166D02*
X138534828Y-104536261D01*
X137868161Y-105012452D02*
X139582447Y-105012452D01*
X139772923Y-104917214D01*
X139868161Y-104726738D01*
X139868161Y-104536261D01*
X139868161Y-103869595D02*
X138534828Y-103869595D01*
X137868161Y-103869595D02*
X137963400Y-103964833D01*
X138058638Y-103869595D01*
X137963400Y-103774357D01*
X137868161Y-103869595D01*
X138058638Y-103869595D01*
X139772923Y-102060071D02*
X139868161Y-102250547D01*
X139868161Y-102631500D01*
X139772923Y-102821976D01*
X139677685Y-102917214D01*
X139487209Y-103012452D01*
X138915780Y-103012452D01*
X138725304Y-102917214D01*
X138630066Y-102821976D01*
X138534828Y-102631500D01*
X138534828Y-102250547D01*
X138630066Y-102060071D01*
X139868161Y-100917214D02*
X139772923Y-101107690D01*
X139582447Y-101202928D01*
X137868161Y-101202928D01*
X139772923Y-99393404D02*
X139868161Y-99583880D01*
X139868161Y-99964833D01*
X139772923Y-100155309D01*
X139582447Y-100250547D01*
X138820542Y-100250547D01*
X138630066Y-100155309D01*
X138534828Y-99964833D01*
X138534828Y-99583880D01*
X138630066Y-99393404D01*
X138820542Y-99298166D01*
X139011019Y-99298166D01*
X139201495Y-100250547D01*
X140058638Y-98917214D02*
X140058638Y-97393404D01*
X138820542Y-96250547D02*
X138915780Y-95964833D01*
X139011019Y-95869595D01*
X139201495Y-95774357D01*
X139487209Y-95774357D01*
X139677685Y-95869595D01*
X139772923Y-95964833D01*
X139868161Y-96155309D01*
X139868161Y-96917214D01*
X137868161Y-96917214D01*
X137868161Y-96250547D01*
X137963400Y-96060071D01*
X138058638Y-95964833D01*
X138249114Y-95869595D01*
X138439590Y-95869595D01*
X138630066Y-95964833D01*
X138725304Y-96060071D01*
X138820542Y-96250547D01*
X138820542Y-96917214D01*
X139868161Y-94631500D02*
X139772923Y-94821976D01*
X139677685Y-94917214D01*
X139487209Y-95012452D01*
X138915780Y-95012452D01*
X138725304Y-94917214D01*
X138630066Y-94821976D01*
X138534828Y-94631500D01*
X138534828Y-94345785D01*
X138630066Y-94155309D01*
X138725304Y-94060071D01*
X138915780Y-93964833D01*
X139487209Y-93964833D01*
X139677685Y-94060071D01*
X139772923Y-94155309D01*
X139868161Y-94345785D01*
X139868161Y-94631500D01*
X139868161Y-93107690D02*
X138534828Y-93107690D01*
X138915780Y-93107690D02*
X138725304Y-93012452D01*
X138630066Y-92917214D01*
X138534828Y-92726738D01*
X138534828Y-92536261D01*
X139868161Y-91583880D02*
X139772923Y-91774357D01*
X139677685Y-91869595D01*
X139487209Y-91964833D01*
X138915780Y-91964833D01*
X138725304Y-91869595D01*
X138630066Y-91774357D01*
X138534828Y-91583880D01*
X138534828Y-91298166D01*
X138630066Y-91107690D01*
X138725304Y-91012452D01*
X138915780Y-90917214D01*
X139487209Y-90917214D01*
X139677685Y-91012452D01*
X139772923Y-91107690D01*
X139868161Y-91298166D01*
X139868161Y-91583880D01*
X138534828Y-90060071D02*
X139868161Y-90060071D01*
X138725304Y-90060071D02*
X138630066Y-89964833D01*
X138534828Y-89774357D01*
X138534828Y-89488642D01*
X138630066Y-89298166D01*
X138820542Y-89202928D01*
X139868161Y-89202928D01*
D10*
X116444733Y-115990642D02*
X116397114Y-116038261D01*
X116254257Y-116085880D01*
X116159019Y-116085880D01*
X116016161Y-116038261D01*
X115920923Y-115943023D01*
X115873304Y-115847785D01*
X115825685Y-115657309D01*
X115825685Y-115514452D01*
X115873304Y-115323976D01*
X115920923Y-115228738D01*
X116016161Y-115133500D01*
X116159019Y-115085880D01*
X116254257Y-115085880D01*
X116397114Y-115133500D01*
X116444733Y-115181119D01*
X117397114Y-116085880D02*
X116825685Y-116085880D01*
X117111400Y-116085880D02*
X117111400Y-115085880D01*
X117016161Y-115228738D01*
X116920923Y-115323976D01*
X116825685Y-115371595D01*
X104818423Y-116752642D02*
X104770804Y-116800261D01*
X104627947Y-116847880D01*
X104532709Y-116847880D01*
X104389852Y-116800261D01*
X104294614Y-116705023D01*
X104246995Y-116609785D01*
X104199376Y-116419309D01*
X104199376Y-116276452D01*
X104246995Y-116085976D01*
X104294614Y-115990738D01*
X104389852Y-115895500D01*
X104532709Y-115847880D01*
X104627947Y-115847880D01*
X104770804Y-115895500D01*
X104818423Y-115943119D01*
X105246995Y-116847880D02*
X105246995Y-115847880D01*
X105818423Y-116847880D01*
X105818423Y-115847880D01*
X106818423Y-116847880D02*
X106246995Y-116847880D01*
X106532709Y-116847880D02*
X106532709Y-115847880D01*
X106437471Y-115990738D01*
X106342233Y-116085976D01*
X106246995Y-116133595D01*
X100421923Y-123023690D02*
X100421923Y-123749404D01*
X100421923Y-123386547D02*
X99151923Y-123386547D01*
X99333352Y-123507500D01*
X99454304Y-123628452D01*
X99514780Y-123749404D01*
X99272876Y-122539880D02*
X99212400Y-122479404D01*
X99151923Y-122358452D01*
X99151923Y-122056071D01*
X99212400Y-121935119D01*
X99272876Y-121874642D01*
X99393828Y-121814166D01*
X99514780Y-121814166D01*
X99696209Y-121874642D01*
X100421923Y-122600357D01*
X100421923Y-121814166D01*
X99151923Y-121451309D02*
X100421923Y-121027976D01*
X99151923Y-120604642D01*
X105951400Y-109791404D02*
X105903780Y-109886642D01*
X105903780Y-110029500D01*
X105951400Y-110172357D01*
X106046638Y-110267595D01*
X106141876Y-110315214D01*
X106332352Y-110362833D01*
X106475209Y-110362833D01*
X106665685Y-110315214D01*
X106760923Y-110267595D01*
X106856161Y-110172357D01*
X106903780Y-110029500D01*
X106903780Y-109934261D01*
X106856161Y-109791404D01*
X106808542Y-109743785D01*
X106475209Y-109743785D01*
X106475209Y-109934261D01*
X106903780Y-109315214D02*
X105903780Y-109315214D01*
X106903780Y-108743785D01*
X105903780Y-108743785D01*
X106903780Y-108267595D02*
X105903780Y-108267595D01*
X105903780Y-108029500D01*
X105951400Y-107886642D01*
X106046638Y-107791404D01*
X106141876Y-107743785D01*
X106332352Y-107696166D01*
X106475209Y-107696166D01*
X106665685Y-107743785D01*
X106760923Y-107791404D01*
X106856161Y-107886642D01*
X106903780Y-108029500D01*
X106903780Y-108267595D01*
X104363780Y-109854928D02*
X104363780Y-110426357D01*
X104363780Y-110140642D02*
X103363780Y-110140642D01*
X103506638Y-110235880D01*
X103601876Y-110331119D01*
X103649495Y-110426357D01*
X103459019Y-109473976D02*
X103411400Y-109426357D01*
X103363780Y-109331119D01*
X103363780Y-109093023D01*
X103411400Y-108997785D01*
X103459019Y-108950166D01*
X103554257Y-108902547D01*
X103649495Y-108902547D01*
X103792352Y-108950166D01*
X104363780Y-109521595D01*
X104363780Y-108902547D01*
X103697114Y-108569214D02*
X104363780Y-108331119D01*
X103697114Y-108093023D01*
X135478923Y-62396642D02*
X135431304Y-62444261D01*
X135288447Y-62491880D01*
X135193209Y-62491880D01*
X135050352Y-62444261D01*
X134955114Y-62349023D01*
X134907495Y-62253785D01*
X134859876Y-62063309D01*
X134859876Y-61920452D01*
X134907495Y-61729976D01*
X134955114Y-61634738D01*
X135050352Y-61539500D01*
X135193209Y-61491880D01*
X135288447Y-61491880D01*
X135431304Y-61539500D01*
X135478923Y-61587119D01*
X135907495Y-62491880D02*
X135907495Y-61491880D01*
X136478923Y-62491880D01*
X136478923Y-61491880D01*
X137383685Y-61825214D02*
X137383685Y-62491880D01*
X137145590Y-61444261D02*
X136907495Y-62158547D01*
X137526542Y-62158547D01*
X134574161Y-72159880D02*
X134574161Y-72969404D01*
X134621780Y-73064642D01*
X134669400Y-73112261D01*
X134764638Y-73159880D01*
X134955114Y-73159880D01*
X135050352Y-73112261D01*
X135097971Y-73064642D01*
X135145590Y-72969404D01*
X135145590Y-72159880D01*
X135574161Y-72874166D02*
X136050352Y-72874166D01*
X135478923Y-73159880D02*
X135812257Y-72159880D01*
X136145590Y-73159880D01*
X137050352Y-73159880D02*
X136717019Y-72683690D01*
X136478923Y-73159880D02*
X136478923Y-72159880D01*
X136859876Y-72159880D01*
X136955114Y-72207500D01*
X137002733Y-72255119D01*
X137050352Y-72350357D01*
X137050352Y-72493214D01*
X137002733Y-72588452D01*
X136955114Y-72636071D01*
X136859876Y-72683690D01*
X136478923Y-72683690D01*
X137336066Y-72159880D02*
X137907495Y-72159880D01*
X137621780Y-73159880D02*
X137621780Y-72159880D01*
X145003780Y-64555119D02*
X144003780Y-64555119D01*
X144718066Y-64221785D01*
X144003780Y-63888452D01*
X145003780Y-63888452D01*
X144718066Y-63459880D02*
X144718066Y-62983690D01*
X145003780Y-63555119D02*
X144003780Y-63221785D01*
X145003780Y-62888452D01*
X144003780Y-62650357D02*
X145003780Y-61983690D01*
X144003780Y-61983690D02*
X145003780Y-62650357D01*
X144003780Y-60936071D02*
X144003780Y-60317023D01*
X144384733Y-60650357D01*
X144384733Y-60507500D01*
X144432352Y-60412261D01*
X144479971Y-60364642D01*
X144575209Y-60317023D01*
X144813304Y-60317023D01*
X144908542Y-60364642D01*
X144956161Y-60412261D01*
X145003780Y-60507500D01*
X145003780Y-60793214D01*
X144956161Y-60888452D01*
X144908542Y-60936071D01*
X144337114Y-59983690D02*
X145003780Y-59745595D01*
X144337114Y-59507500D01*
X144003780Y-59221785D02*
X144003780Y-58602738D01*
X144384733Y-58936071D01*
X144384733Y-58793214D01*
X144432352Y-58697976D01*
X144479971Y-58650357D01*
X144575209Y-58602738D01*
X144813304Y-58602738D01*
X144908542Y-58650357D01*
X144956161Y-58697976D01*
X145003780Y-58793214D01*
X145003780Y-59078928D01*
X144956161Y-59174166D01*
X144908542Y-59221785D01*
X145003780Y-56840833D02*
X144527590Y-57174166D01*
X145003780Y-57412261D02*
X144003780Y-57412261D01*
X144003780Y-57031309D01*
X144051400Y-56936071D01*
X144099019Y-56888452D01*
X144194257Y-56840833D01*
X144337114Y-56840833D01*
X144432352Y-56888452D01*
X144479971Y-56936071D01*
X144527590Y-57031309D01*
X144527590Y-57412261D01*
X144003780Y-56507500D02*
X145003780Y-55840833D01*
X144003780Y-55840833D02*
X145003780Y-56507500D01*
X144908542Y-55459880D02*
X144956161Y-55412261D01*
X145003780Y-55459880D01*
X144956161Y-55507500D01*
X144908542Y-55459880D01*
X145003780Y-55459880D01*
X144622828Y-55459880D02*
X144051400Y-55507500D01*
X144003780Y-55459880D01*
X144051400Y-55412261D01*
X144622828Y-55459880D01*
X144003780Y-55459880D01*
X131859400Y-71691404D02*
X131811780Y-71786642D01*
X131811780Y-71929500D01*
X131859400Y-72072357D01*
X131954638Y-72167595D01*
X132049876Y-72215214D01*
X132240352Y-72262833D01*
X132383209Y-72262833D01*
X132573685Y-72215214D01*
X132668923Y-72167595D01*
X132764161Y-72072357D01*
X132811780Y-71929500D01*
X132811780Y-71834261D01*
X132764161Y-71691404D01*
X132716542Y-71643785D01*
X132383209Y-71643785D01*
X132383209Y-71834261D01*
X132811780Y-71215214D02*
X131811780Y-71215214D01*
X132811780Y-70643785D01*
X131811780Y-70643785D01*
X132811780Y-70167595D02*
X131811780Y-70167595D01*
X131811780Y-69929500D01*
X131859400Y-69786642D01*
X131954638Y-69691404D01*
X132049876Y-69643785D01*
X132240352Y-69596166D01*
X132383209Y-69596166D01*
X132573685Y-69643785D01*
X132668923Y-69691404D01*
X132764161Y-69786642D01*
X132811780Y-69929500D01*
X132811780Y-70167595D01*
X135351780Y-70588166D02*
X134875590Y-70921500D01*
X135351780Y-71159595D02*
X134351780Y-71159595D01*
X134351780Y-70778642D01*
X134399400Y-70683404D01*
X134447019Y-70635785D01*
X134542257Y-70588166D01*
X134685114Y-70588166D01*
X134780352Y-70635785D01*
X134827971Y-70683404D01*
X134875590Y-70778642D01*
X134875590Y-71159595D01*
X134351780Y-70254833D02*
X135351780Y-69588166D01*
X134351780Y-69588166D02*
X135351780Y-70254833D01*
X132359400Y-67587880D02*
X132359400Y-67825976D01*
X132121304Y-67730738D02*
X132359400Y-67825976D01*
X132597495Y-67730738D01*
X132216542Y-68016452D02*
X132359400Y-67825976D01*
X132502257Y-68016452D01*
X136891780Y-71183404D02*
X136891780Y-70611976D01*
X137891780Y-70897690D02*
X136891780Y-70897690D01*
X136891780Y-70373880D02*
X137891780Y-69707214D01*
X136891780Y-69707214D02*
X137891780Y-70373880D01*
X139431780Y-71865976D02*
X139431780Y-71246928D01*
X139812733Y-71580261D01*
X139812733Y-71437404D01*
X139860352Y-71342166D01*
X139907971Y-71294547D01*
X140003209Y-71246928D01*
X140241304Y-71246928D01*
X140336542Y-71294547D01*
X140384161Y-71342166D01*
X140431780Y-71437404D01*
X140431780Y-71723119D01*
X140384161Y-71818357D01*
X140336542Y-71865976D01*
X139765114Y-70913595D02*
X140431780Y-70675500D01*
X139765114Y-70437404D01*
X139431780Y-70151690D02*
X139431780Y-69532642D01*
X139812733Y-69865976D01*
X139812733Y-69723119D01*
X139860352Y-69627880D01*
X139907971Y-69580261D01*
X140003209Y-69532642D01*
X140241304Y-69532642D01*
X140336542Y-69580261D01*
X140384161Y-69627880D01*
X140431780Y-69723119D01*
X140431780Y-70008833D01*
X140384161Y-70104071D01*
X140336542Y-70151690D01*
X188596542Y-109900476D02*
X188644161Y-109948095D01*
X188691780Y-110090952D01*
X188691780Y-110186190D01*
X188644161Y-110329047D01*
X188548923Y-110424285D01*
X188453685Y-110471904D01*
X188263209Y-110519523D01*
X188120352Y-110519523D01*
X187929876Y-110471904D01*
X187834638Y-110424285D01*
X187739400Y-110329047D01*
X187691780Y-110186190D01*
X187691780Y-110090952D01*
X187739400Y-109948095D01*
X187787019Y-109900476D01*
X188691780Y-109471904D02*
X187691780Y-109471904D01*
X188691780Y-108900476D01*
X187691780Y-108900476D01*
X187691780Y-108519523D02*
X187691780Y-107852857D01*
X188691780Y-108281428D01*
X174214971Y-110099928D02*
X174275447Y-110160404D01*
X174335923Y-110341833D01*
X174335923Y-110462785D01*
X174275447Y-110644214D01*
X174154495Y-110765166D01*
X174033542Y-110825642D01*
X173791638Y-110886119D01*
X173610209Y-110886119D01*
X173368304Y-110825642D01*
X173247352Y-110765166D01*
X173126400Y-110644214D01*
X173065923Y-110462785D01*
X173065923Y-110341833D01*
X173126400Y-110160404D01*
X173186876Y-110099928D01*
X173973066Y-109616119D02*
X173973066Y-109011357D01*
X174335923Y-109737071D02*
X173065923Y-109313738D01*
X174335923Y-108890404D01*
X174335923Y-108467071D02*
X173065923Y-108467071D01*
X174335923Y-107741357D01*
X173065923Y-107741357D01*
X175229780Y-106433976D02*
X175229780Y-106910166D01*
X174229780Y-106910166D01*
X175229780Y-112109214D02*
X174229780Y-112109214D01*
X174705971Y-112109214D02*
X174705971Y-111537785D01*
X175229780Y-111537785D02*
X174229780Y-111537785D01*
X188596542Y-97708476D02*
X188644161Y-97756095D01*
X188691780Y-97898952D01*
X188691780Y-97994190D01*
X188644161Y-98137047D01*
X188548923Y-98232285D01*
X188453685Y-98279904D01*
X188263209Y-98327523D01*
X188120352Y-98327523D01*
X187929876Y-98279904D01*
X187834638Y-98232285D01*
X187739400Y-98137047D01*
X187691780Y-97994190D01*
X187691780Y-97898952D01*
X187739400Y-97756095D01*
X187787019Y-97708476D01*
X188691780Y-97279904D02*
X187691780Y-97279904D01*
X188691780Y-96708476D01*
X187691780Y-96708476D01*
X187787019Y-96279904D02*
X187739400Y-96232285D01*
X187691780Y-96137047D01*
X187691780Y-95898952D01*
X187739400Y-95803714D01*
X187787019Y-95756095D01*
X187882257Y-95708476D01*
X187977495Y-95708476D01*
X188120352Y-95756095D01*
X188691780Y-96327523D01*
X188691780Y-95708476D01*
X174214971Y-97907928D02*
X174275447Y-97968404D01*
X174335923Y-98149833D01*
X174335923Y-98270785D01*
X174275447Y-98452214D01*
X174154495Y-98573166D01*
X174033542Y-98633642D01*
X173791638Y-98694119D01*
X173610209Y-98694119D01*
X173368304Y-98633642D01*
X173247352Y-98573166D01*
X173126400Y-98452214D01*
X173065923Y-98270785D01*
X173065923Y-98149833D01*
X173126400Y-97968404D01*
X173186876Y-97907928D01*
X173973066Y-97424119D02*
X173973066Y-96819357D01*
X174335923Y-97545071D02*
X173065923Y-97121738D01*
X174335923Y-96698404D01*
X174335923Y-96275071D02*
X173065923Y-96275071D01*
X174335923Y-95549357D01*
X173065923Y-95549357D01*
X175229780Y-99917214D02*
X174229780Y-99917214D01*
X174705971Y-99917214D02*
X174705971Y-99345785D01*
X175229780Y-99345785D02*
X174229780Y-99345785D01*
X175229780Y-94241976D02*
X175229780Y-94718166D01*
X174229780Y-94718166D01*
X111301304Y-106139880D02*
X111301304Y-105139880D01*
X111539400Y-105139880D01*
X111682257Y-105187500D01*
X111777495Y-105282738D01*
X111825114Y-105377976D01*
X111872733Y-105568452D01*
X111872733Y-105711309D01*
X111825114Y-105901785D01*
X111777495Y-105997023D01*
X111682257Y-106092261D01*
X111539400Y-106139880D01*
X111301304Y-106139880D01*
X112825114Y-106139880D02*
X112253685Y-106139880D01*
X112539400Y-106139880D02*
X112539400Y-105139880D01*
X112444161Y-105282738D01*
X112348923Y-105377976D01*
X112253685Y-105425595D01*
X96720066Y-104894071D02*
X96386733Y-104894071D01*
X96386733Y-105417880D02*
X96386733Y-104417880D01*
X96862923Y-104417880D01*
X97767685Y-105417880D02*
X97196257Y-105417880D01*
X97481971Y-105417880D02*
X97481971Y-104417880D01*
X97386733Y-104560738D01*
X97291495Y-104655976D01*
X97196257Y-104703595D01*
X96910542Y-108973880D02*
X96339114Y-108973880D01*
X96624828Y-108973880D02*
X96624828Y-107973880D01*
X96529590Y-108116738D01*
X96434352Y-108211976D01*
X96339114Y-108259595D01*
X97291495Y-108688166D02*
X97767685Y-108688166D01*
X97196257Y-108973880D02*
X97529590Y-107973880D01*
X97862923Y-108973880D01*
X110475780Y-59324833D02*
X111190066Y-59324833D01*
X111332923Y-59372452D01*
X111428161Y-59467690D01*
X111475780Y-59610547D01*
X111475780Y-59705785D01*
X111475780Y-58324833D02*
X111475780Y-58896261D01*
X111475780Y-58610547D02*
X110475780Y-58610547D01*
X110618638Y-58705785D01*
X110713876Y-58801023D01*
X110761495Y-58896261D01*
X105903780Y-60451690D02*
X105903780Y-59880261D01*
X106903780Y-60165976D02*
X105903780Y-60165976D01*
X105903780Y-59642166D02*
X106903780Y-58975500D01*
X105903780Y-58975500D02*
X106903780Y-59642166D01*
X106999019Y-58832642D02*
X106999019Y-58070738D01*
X106856161Y-57880261D02*
X106903780Y-57737404D01*
X106903780Y-57499309D01*
X106856161Y-57404071D01*
X106808542Y-57356452D01*
X106713304Y-57308833D01*
X106618066Y-57308833D01*
X106522828Y-57356452D01*
X106475209Y-57404071D01*
X106427590Y-57499309D01*
X106379971Y-57689785D01*
X106332352Y-57785023D01*
X106284733Y-57832642D01*
X106189495Y-57880261D01*
X106094257Y-57880261D01*
X105999019Y-57832642D01*
X105951400Y-57785023D01*
X105903780Y-57689785D01*
X105903780Y-57451690D01*
X105951400Y-57308833D01*
X106379971Y-56880261D02*
X106379971Y-56546928D01*
X106903780Y-56404071D02*
X106903780Y-56880261D01*
X105903780Y-56880261D01*
X105903780Y-56404071D01*
X106903780Y-55499309D02*
X106903780Y-55975500D01*
X105903780Y-55975500D01*
X111491780Y-73286738D02*
X112301304Y-73286738D01*
X112396542Y-73239119D01*
X112444161Y-73191500D01*
X112491780Y-73096261D01*
X112491780Y-72905785D01*
X112444161Y-72810547D01*
X112396542Y-72762928D01*
X112301304Y-72715309D01*
X111491780Y-72715309D01*
X112206066Y-72286738D02*
X112206066Y-71810547D01*
X112491780Y-72381976D02*
X111491780Y-72048642D01*
X112491780Y-71715309D01*
X112491780Y-70810547D02*
X112015590Y-71143880D01*
X112491780Y-71381976D02*
X111491780Y-71381976D01*
X111491780Y-71001023D01*
X111539400Y-70905785D01*
X111587019Y-70858166D01*
X111682257Y-70810547D01*
X111825114Y-70810547D01*
X111920352Y-70858166D01*
X111967971Y-70905785D01*
X112015590Y-71001023D01*
X112015590Y-71381976D01*
X111491780Y-70524833D02*
X111491780Y-69953404D01*
X112491780Y-70239119D02*
X111491780Y-70239119D01*
X109951780Y-73794738D02*
X109475590Y-74128071D01*
X109951780Y-74366166D02*
X108951780Y-74366166D01*
X108951780Y-73985214D01*
X108999400Y-73889976D01*
X109047019Y-73842357D01*
X109142257Y-73794738D01*
X109285114Y-73794738D01*
X109380352Y-73842357D01*
X109427971Y-73889976D01*
X109475590Y-73985214D01*
X109475590Y-74366166D01*
X109904161Y-73413785D02*
X109951780Y-73270928D01*
X109951780Y-73032833D01*
X109904161Y-72937595D01*
X109856542Y-72889976D01*
X109761304Y-72842357D01*
X109666066Y-72842357D01*
X109570828Y-72889976D01*
X109523209Y-72937595D01*
X109475590Y-73032833D01*
X109427971Y-73223309D01*
X109380352Y-73318547D01*
X109332733Y-73366166D01*
X109237495Y-73413785D01*
X109142257Y-73413785D01*
X109047019Y-73366166D01*
X108999400Y-73318547D01*
X108951780Y-73223309D01*
X108951780Y-72985214D01*
X108999400Y-72842357D01*
X109047019Y-72461404D02*
X108999400Y-72413785D01*
X108951780Y-72318547D01*
X108951780Y-72080452D01*
X108999400Y-71985214D01*
X109047019Y-71937595D01*
X109142257Y-71889976D01*
X109237495Y-71889976D01*
X109380352Y-71937595D01*
X109951780Y-72509023D01*
X109951780Y-71889976D01*
X108951780Y-71556642D02*
X108951780Y-70937595D01*
X109332733Y-71270928D01*
X109332733Y-71128071D01*
X109380352Y-71032833D01*
X109427971Y-70985214D01*
X109523209Y-70937595D01*
X109761304Y-70937595D01*
X109856542Y-70985214D01*
X109904161Y-71032833D01*
X109951780Y-71128071D01*
X109951780Y-71413785D01*
X109904161Y-71509023D01*
X109856542Y-71556642D01*
X109047019Y-70556642D02*
X108999400Y-70509023D01*
X108951780Y-70413785D01*
X108951780Y-70175690D01*
X108999400Y-70080452D01*
X109047019Y-70032833D01*
X109142257Y-69985214D01*
X109237495Y-69985214D01*
X109380352Y-70032833D01*
X109951780Y-70604261D01*
X109951780Y-69985214D01*
X118095780Y-59324833D02*
X118810066Y-59324833D01*
X118952923Y-59372452D01*
X119048161Y-59467690D01*
X119095780Y-59610547D01*
X119095780Y-59705785D01*
X118191019Y-58896261D02*
X118143400Y-58848642D01*
X118095780Y-58753404D01*
X118095780Y-58515309D01*
X118143400Y-58420071D01*
X118191019Y-58372452D01*
X118286257Y-58324833D01*
X118381495Y-58324833D01*
X118524352Y-58372452D01*
X119095780Y-58943880D01*
X119095780Y-58324833D01*
X125699780Y-59856452D02*
X125223590Y-60189785D01*
X125699780Y-60427880D02*
X124699780Y-60427880D01*
X124699780Y-60046928D01*
X124747400Y-59951690D01*
X124795019Y-59904071D01*
X124890257Y-59856452D01*
X125033114Y-59856452D01*
X125128352Y-59904071D01*
X125175971Y-59951690D01*
X125223590Y-60046928D01*
X125223590Y-60427880D01*
X124699780Y-59523119D02*
X125699780Y-58856452D01*
X124699780Y-58856452D02*
X125699780Y-59523119D01*
X125795019Y-58713595D02*
X125795019Y-57951690D01*
X125652161Y-57761214D02*
X125699780Y-57618357D01*
X125699780Y-57380261D01*
X125652161Y-57285023D01*
X125604542Y-57237404D01*
X125509304Y-57189785D01*
X125414066Y-57189785D01*
X125318828Y-57237404D01*
X125271209Y-57285023D01*
X125223590Y-57380261D01*
X125175971Y-57570738D01*
X125128352Y-57665976D01*
X125080733Y-57713595D01*
X124985495Y-57761214D01*
X124890257Y-57761214D01*
X124795019Y-57713595D01*
X124747400Y-57665976D01*
X124699780Y-57570738D01*
X124699780Y-57332642D01*
X124747400Y-57189785D01*
X125175971Y-56761214D02*
X125175971Y-56427880D01*
X125699780Y-56285023D02*
X125699780Y-56761214D01*
X124699780Y-56761214D01*
X124699780Y-56285023D01*
X125699780Y-55380261D02*
X125699780Y-55856452D01*
X124699780Y-55856452D01*
X122127971Y-73747119D02*
X122127971Y-74080452D01*
X122651780Y-74080452D02*
X121651780Y-74080452D01*
X121651780Y-73604261D01*
X122651780Y-73223309D02*
X121651780Y-73223309D01*
X122127971Y-72413785D02*
X122175590Y-72270928D01*
X122223209Y-72223309D01*
X122318447Y-72175690D01*
X122461304Y-72175690D01*
X122556542Y-72223309D01*
X122604161Y-72270928D01*
X122651780Y-72366166D01*
X122651780Y-72747119D01*
X121651780Y-72747119D01*
X121651780Y-72413785D01*
X121699400Y-72318547D01*
X121747019Y-72270928D01*
X121842257Y-72223309D01*
X121937495Y-72223309D01*
X122032733Y-72270928D01*
X122080352Y-72318547D01*
X122127971Y-72413785D01*
X122127971Y-72747119D01*
X122127971Y-71747119D02*
X122127971Y-71413785D01*
X122651780Y-71270928D02*
X122651780Y-71747119D01*
X121651780Y-71747119D01*
X121651780Y-71270928D01*
X122651780Y-70270928D02*
X122175590Y-70604261D01*
X122651780Y-70842357D02*
X121651780Y-70842357D01*
X121651780Y-70461404D01*
X121699400Y-70366166D01*
X121747019Y-70318547D01*
X121842257Y-70270928D01*
X121985114Y-70270928D01*
X122080352Y-70318547D01*
X122127971Y-70366166D01*
X122175590Y-70461404D01*
X122175590Y-70842357D01*
X119111780Y-73286738D02*
X119921304Y-73286738D01*
X120016542Y-73239119D01*
X120064161Y-73191500D01*
X120111780Y-73096261D01*
X120111780Y-72905785D01*
X120064161Y-72810547D01*
X120016542Y-72762928D01*
X119921304Y-72715309D01*
X119111780Y-72715309D01*
X119826066Y-72286738D02*
X119826066Y-71810547D01*
X120111780Y-72381976D02*
X119111780Y-72048642D01*
X120111780Y-71715309D01*
X120111780Y-70810547D02*
X119635590Y-71143880D01*
X120111780Y-71381976D02*
X119111780Y-71381976D01*
X119111780Y-71001023D01*
X119159400Y-70905785D01*
X119207019Y-70858166D01*
X119302257Y-70810547D01*
X119445114Y-70810547D01*
X119540352Y-70858166D01*
X119587971Y-70905785D01*
X119635590Y-71001023D01*
X119635590Y-71381976D01*
X119111780Y-70524833D02*
X119111780Y-69953404D01*
X120111780Y-70239119D02*
X119111780Y-70239119D01*
X117571780Y-73794738D02*
X117095590Y-74128071D01*
X117571780Y-74366166D02*
X116571780Y-74366166D01*
X116571780Y-73985214D01*
X116619400Y-73889976D01*
X116667019Y-73842357D01*
X116762257Y-73794738D01*
X116905114Y-73794738D01*
X117000352Y-73842357D01*
X117047971Y-73889976D01*
X117095590Y-73985214D01*
X117095590Y-74366166D01*
X117524161Y-73413785D02*
X117571780Y-73270928D01*
X117571780Y-73032833D01*
X117524161Y-72937595D01*
X117476542Y-72889976D01*
X117381304Y-72842357D01*
X117286066Y-72842357D01*
X117190828Y-72889976D01*
X117143209Y-72937595D01*
X117095590Y-73032833D01*
X117047971Y-73223309D01*
X117000352Y-73318547D01*
X116952733Y-73366166D01*
X116857495Y-73413785D01*
X116762257Y-73413785D01*
X116667019Y-73366166D01*
X116619400Y-73318547D01*
X116571780Y-73223309D01*
X116571780Y-72985214D01*
X116619400Y-72842357D01*
X116667019Y-72461404D02*
X116619400Y-72413785D01*
X116571780Y-72318547D01*
X116571780Y-72080452D01*
X116619400Y-71985214D01*
X116667019Y-71937595D01*
X116762257Y-71889976D01*
X116857495Y-71889976D01*
X117000352Y-71937595D01*
X117571780Y-72509023D01*
X117571780Y-71889976D01*
X116571780Y-71556642D02*
X116571780Y-70937595D01*
X116952733Y-71270928D01*
X116952733Y-71128071D01*
X117000352Y-71032833D01*
X117047971Y-70985214D01*
X117143209Y-70937595D01*
X117381304Y-70937595D01*
X117476542Y-70985214D01*
X117524161Y-71032833D01*
X117571780Y-71128071D01*
X117571780Y-71413785D01*
X117524161Y-71509023D01*
X117476542Y-71556642D01*
X116667019Y-70556642D02*
X116619400Y-70509023D01*
X116571780Y-70413785D01*
X116571780Y-70175690D01*
X116619400Y-70080452D01*
X116667019Y-70032833D01*
X116762257Y-69985214D01*
X116857495Y-69985214D01*
X117000352Y-70032833D01*
X117571780Y-70604261D01*
X117571780Y-69985214D01*
X114920733Y-96019880D02*
X114444542Y-96019880D01*
X114444542Y-95019880D01*
X115777876Y-96019880D02*
X115206447Y-96019880D01*
X115492161Y-96019880D02*
X115492161Y-95019880D01*
X115396923Y-95162738D01*
X115301685Y-95257976D01*
X115206447Y-95305595D01*
X114444542Y-91955880D02*
X114111209Y-91479690D01*
X113873114Y-91955880D02*
X113873114Y-90955880D01*
X114254066Y-90955880D01*
X114349304Y-91003500D01*
X114396923Y-91051119D01*
X114444542Y-91146357D01*
X114444542Y-91289214D01*
X114396923Y-91384452D01*
X114349304Y-91432071D01*
X114254066Y-91479690D01*
X113873114Y-91479690D01*
X114873114Y-91432071D02*
X115206447Y-91432071D01*
X115349304Y-91955880D02*
X114873114Y-91955880D01*
X114873114Y-90955880D01*
X115349304Y-90955880D01*
X115777876Y-91955880D02*
X115777876Y-90955880D01*
X116015971Y-90955880D01*
X116158828Y-91003500D01*
X116254066Y-91098738D01*
X116301685Y-91193976D01*
X116349304Y-91384452D01*
X116349304Y-91527309D01*
X116301685Y-91717785D01*
X116254066Y-91813023D01*
X116158828Y-91908261D01*
X116015971Y-91955880D01*
X115777876Y-91955880D01*
X182457876Y-76540952D02*
X182397400Y-76661904D01*
X182276447Y-76782857D01*
X182095019Y-76964285D01*
X182034542Y-77085238D01*
X182034542Y-77206190D01*
X182336923Y-77145714D02*
X182276447Y-77266666D01*
X182155495Y-77387619D01*
X181913590Y-77448095D01*
X181490257Y-77448095D01*
X181248352Y-77387619D01*
X181127400Y-77266666D01*
X181066923Y-77145714D01*
X181066923Y-76903809D01*
X181127400Y-76782857D01*
X181248352Y-76661904D01*
X181490257Y-76601428D01*
X181913590Y-76601428D01*
X182155495Y-76661904D01*
X182276447Y-76782857D01*
X182336923Y-76903809D01*
X182336923Y-77145714D01*
X182336923Y-75391904D02*
X182336923Y-76117619D01*
X182336923Y-75754761D02*
X181066923Y-75754761D01*
X181248352Y-75875714D01*
X181369304Y-75996666D01*
X181429780Y-76117619D01*
X167604923Y-79927619D02*
X166334923Y-79927619D01*
X166939685Y-78899523D02*
X166939685Y-79322857D01*
X167604923Y-79322857D02*
X166334923Y-79322857D01*
X166334923Y-78718095D01*
X167121114Y-78234285D02*
X167121114Y-77266666D01*
X167604923Y-76661904D02*
X166334923Y-76661904D01*
X166334923Y-76359523D01*
X166395400Y-76178095D01*
X166516352Y-76057142D01*
X166637304Y-75996666D01*
X166879209Y-75936190D01*
X167060638Y-75936190D01*
X167302542Y-75996666D01*
X167423495Y-76057142D01*
X167544447Y-76178095D01*
X167604923Y-76359523D01*
X167604923Y-76661904D01*
X167604923Y-75331428D02*
X167604923Y-75089523D01*
X167544447Y-74968571D01*
X167483971Y-74908095D01*
X167302542Y-74787142D01*
X167060638Y-74726666D01*
X166576828Y-74726666D01*
X166455876Y-74787142D01*
X166395400Y-74847619D01*
X166334923Y-74968571D01*
X166334923Y-75210476D01*
X166395400Y-75331428D01*
X166455876Y-75391904D01*
X166576828Y-75452380D01*
X166879209Y-75452380D01*
X167000161Y-75391904D01*
X167060638Y-75331428D01*
X167121114Y-75210476D01*
X167121114Y-74968571D01*
X167060638Y-74847619D01*
X167000161Y-74787142D01*
X166879209Y-74726666D01*
X166455876Y-74242857D02*
X166395400Y-74182380D01*
X166334923Y-74061428D01*
X166334923Y-73759047D01*
X166395400Y-73638095D01*
X166455876Y-73577619D01*
X166576828Y-73517142D01*
X166697780Y-73517142D01*
X166879209Y-73577619D01*
X167604923Y-74303333D01*
X167604923Y-73517142D01*
X142337780Y-108942166D02*
X141861590Y-109275500D01*
X142337780Y-109513595D02*
X141337780Y-109513595D01*
X141337780Y-109132642D01*
X141385400Y-109037404D01*
X141433019Y-108989785D01*
X141528257Y-108942166D01*
X141671114Y-108942166D01*
X141766352Y-108989785D01*
X141813971Y-109037404D01*
X141861590Y-109132642D01*
X141861590Y-109513595D01*
X142337780Y-107989785D02*
X142337780Y-108561214D01*
X142337780Y-108275500D02*
X141337780Y-108275500D01*
X141480638Y-108370738D01*
X141575876Y-108465976D01*
X141623495Y-108561214D01*
X109840733Y-95511880D02*
X109507400Y-95035690D01*
X109269304Y-95511880D02*
X109269304Y-94511880D01*
X109650257Y-94511880D01*
X109745495Y-94559500D01*
X109793114Y-94607119D01*
X109840733Y-94702357D01*
X109840733Y-94845214D01*
X109793114Y-94940452D01*
X109745495Y-94988071D01*
X109650257Y-95035690D01*
X109269304Y-95035690D01*
X110221685Y-94607119D02*
X110269304Y-94559500D01*
X110364542Y-94511880D01*
X110602638Y-94511880D01*
X110697876Y-94559500D01*
X110745495Y-94607119D01*
X110793114Y-94702357D01*
X110793114Y-94797595D01*
X110745495Y-94940452D01*
X110174066Y-95511880D01*
X110793114Y-95511880D01*
X109245495Y-90955880D02*
X109055019Y-90955880D01*
X108959780Y-91003500D01*
X108912161Y-91051119D01*
X108816923Y-91193976D01*
X108769304Y-91384452D01*
X108769304Y-91765404D01*
X108816923Y-91860642D01*
X108864542Y-91908261D01*
X108959780Y-91955880D01*
X109150257Y-91955880D01*
X109245495Y-91908261D01*
X109293114Y-91860642D01*
X109340733Y-91765404D01*
X109340733Y-91527309D01*
X109293114Y-91432071D01*
X109245495Y-91384452D01*
X109150257Y-91336833D01*
X108959780Y-91336833D01*
X108864542Y-91384452D01*
X108816923Y-91432071D01*
X108769304Y-91527309D01*
X109912161Y-91384452D02*
X109816923Y-91336833D01*
X109769304Y-91289214D01*
X109721685Y-91193976D01*
X109721685Y-91146357D01*
X109769304Y-91051119D01*
X109816923Y-91003500D01*
X109912161Y-90955880D01*
X110102638Y-90955880D01*
X110197876Y-91003500D01*
X110245495Y-91051119D01*
X110293114Y-91146357D01*
X110293114Y-91193976D01*
X110245495Y-91289214D01*
X110197876Y-91336833D01*
X110102638Y-91384452D01*
X109912161Y-91384452D01*
X109816923Y-91432071D01*
X109769304Y-91479690D01*
X109721685Y-91574928D01*
X109721685Y-91765404D01*
X109769304Y-91860642D01*
X109816923Y-91908261D01*
X109912161Y-91955880D01*
X110102638Y-91955880D01*
X110197876Y-91908261D01*
X110245495Y-91860642D01*
X110293114Y-91765404D01*
X110293114Y-91574928D01*
X110245495Y-91479690D01*
X110197876Y-91432071D01*
X110102638Y-91384452D01*
X110912161Y-90955880D02*
X111007400Y-90955880D01*
X111102638Y-91003500D01*
X111150257Y-91051119D01*
X111197876Y-91146357D01*
X111245495Y-91336833D01*
X111245495Y-91574928D01*
X111197876Y-91765404D01*
X111150257Y-91860642D01*
X111102638Y-91908261D01*
X111007400Y-91955880D01*
X110912161Y-91955880D01*
X110816923Y-91908261D01*
X110769304Y-91860642D01*
X110721685Y-91765404D01*
X110674066Y-91574928D01*
X110674066Y-91336833D01*
X110721685Y-91146357D01*
X110769304Y-91051119D01*
X110816923Y-91003500D01*
X110912161Y-90955880D01*
X142337780Y-104370166D02*
X141861590Y-104703500D01*
X142337780Y-104941595D02*
X141337780Y-104941595D01*
X141337780Y-104560642D01*
X141385400Y-104465404D01*
X141433019Y-104417785D01*
X141528257Y-104370166D01*
X141671114Y-104370166D01*
X141766352Y-104417785D01*
X141813971Y-104465404D01*
X141861590Y-104560642D01*
X141861590Y-104941595D01*
X141337780Y-104036833D02*
X141337780Y-103417785D01*
X141718733Y-103751119D01*
X141718733Y-103608261D01*
X141766352Y-103513023D01*
X141813971Y-103465404D01*
X141909209Y-103417785D01*
X142147304Y-103417785D01*
X142242542Y-103465404D01*
X142290161Y-103513023D01*
X142337780Y-103608261D01*
X142337780Y-103893976D01*
X142290161Y-103989214D01*
X142242542Y-104036833D01*
X159029495Y-121372261D02*
X159172352Y-121419880D01*
X159410447Y-121419880D01*
X159505685Y-121372261D01*
X159553304Y-121324642D01*
X159600923Y-121229404D01*
X159600923Y-121134166D01*
X159553304Y-121038928D01*
X159505685Y-120991309D01*
X159410447Y-120943690D01*
X159219971Y-120896071D01*
X159124733Y-120848452D01*
X159077114Y-120800833D01*
X159029495Y-120705595D01*
X159029495Y-120610357D01*
X159077114Y-120515119D01*
X159124733Y-120467500D01*
X159219971Y-120419880D01*
X159458066Y-120419880D01*
X159600923Y-120467500D01*
X160553304Y-121419880D02*
X159981876Y-121419880D01*
X160267590Y-121419880D02*
X160267590Y-120419880D01*
X160172352Y-120562738D01*
X160077114Y-120657976D01*
X159981876Y-120705595D01*
X159077114Y-116593880D02*
X158600923Y-116593880D01*
X158600923Y-115593880D01*
X159600923Y-115593880D02*
X159791400Y-115593880D01*
X159886638Y-115641500D01*
X159981876Y-115736738D01*
X160029495Y-115927214D01*
X160029495Y-116260547D01*
X159981876Y-116451023D01*
X159886638Y-116546261D01*
X159791400Y-116593880D01*
X159600923Y-116593880D01*
X159505685Y-116546261D01*
X159410447Y-116451023D01*
X159362828Y-116260547D01*
X159362828Y-115927214D01*
X159410447Y-115736738D01*
X159505685Y-115641500D01*
X159600923Y-115593880D01*
X160981876Y-115641500D02*
X160886638Y-115593880D01*
X160743780Y-115593880D01*
X160600923Y-115641500D01*
X160505685Y-115736738D01*
X160458066Y-115831976D01*
X160410447Y-116022452D01*
X160410447Y-116165309D01*
X160458066Y-116355785D01*
X160505685Y-116451023D01*
X160600923Y-116546261D01*
X160743780Y-116593880D01*
X160839019Y-116593880D01*
X160981876Y-116546261D01*
X161029495Y-116498642D01*
X161029495Y-116165309D01*
X160839019Y-116165309D01*
X90394257Y-113815880D02*
X90965685Y-113815880D01*
X90679971Y-114815880D02*
X90679971Y-113815880D01*
X91299019Y-114292071D02*
X91632352Y-114292071D01*
X91775209Y-114815880D02*
X91299019Y-114815880D01*
X91299019Y-113815880D01*
X91775209Y-113815880D01*
X92156161Y-114768261D02*
X92299019Y-114815880D01*
X92537114Y-114815880D01*
X92632352Y-114768261D01*
X92679971Y-114720642D01*
X92727590Y-114625404D01*
X92727590Y-114530166D01*
X92679971Y-114434928D01*
X92632352Y-114387309D01*
X92537114Y-114339690D01*
X92346638Y-114292071D01*
X92251400Y-114244452D01*
X92203780Y-114196833D01*
X92156161Y-114101595D01*
X92156161Y-114006357D01*
X92203780Y-113911119D01*
X92251400Y-113863500D01*
X92346638Y-113815880D01*
X92584733Y-113815880D01*
X92727590Y-113863500D01*
X93013304Y-113815880D02*
X93584733Y-113815880D01*
X93299019Y-114815880D02*
X93299019Y-113815880D01*
X93679971Y-114911119D02*
X94441876Y-114911119D01*
X95203780Y-114815880D02*
X94632352Y-114815880D01*
X94918066Y-114815880D02*
X94918066Y-113815880D01*
X94822828Y-113958738D01*
X94727590Y-114053976D01*
X94632352Y-114101595D01*
X95584733Y-113911119D02*
X95632352Y-113863500D01*
X95727590Y-113815880D01*
X95965685Y-113815880D01*
X96060923Y-113863500D01*
X96108542Y-113911119D01*
X96156161Y-114006357D01*
X96156161Y-114101595D01*
X96108542Y-114244452D01*
X95537114Y-114815880D01*
X96156161Y-114815880D01*
X96441876Y-113815880D02*
X96775209Y-114815880D01*
X97108542Y-113815880D01*
X92354447Y-110370928D02*
X93116352Y-110370928D01*
X92735400Y-110751880D02*
X92735400Y-109989976D01*
X94894447Y-110370928D02*
X95656352Y-110370928D01*
X180071780Y-124904071D02*
X180071780Y-124332642D01*
X181071780Y-124618357D02*
X180071780Y-124618357D01*
X180547971Y-123999309D02*
X180547971Y-123665976D01*
X181071780Y-123523119D02*
X181071780Y-123999309D01*
X180071780Y-123999309D01*
X180071780Y-123523119D01*
X181024161Y-123142166D02*
X181071780Y-122999309D01*
X181071780Y-122761214D01*
X181024161Y-122665976D01*
X180976542Y-122618357D01*
X180881304Y-122570738D01*
X180786066Y-122570738D01*
X180690828Y-122618357D01*
X180643209Y-122665976D01*
X180595590Y-122761214D01*
X180547971Y-122951690D01*
X180500352Y-123046928D01*
X180452733Y-123094547D01*
X180357495Y-123142166D01*
X180262257Y-123142166D01*
X180167019Y-123094547D01*
X180119400Y-123046928D01*
X180071780Y-122951690D01*
X180071780Y-122713595D01*
X180119400Y-122570738D01*
X180071780Y-122285023D02*
X180071780Y-121713595D01*
X181071780Y-121999309D02*
X180071780Y-121999309D01*
X181167019Y-121618357D02*
X181167019Y-120856452D01*
X180976542Y-120046928D02*
X181024161Y-120094547D01*
X181071780Y-120237404D01*
X181071780Y-120332642D01*
X181024161Y-120475500D01*
X180928923Y-120570738D01*
X180833685Y-120618357D01*
X180643209Y-120665976D01*
X180500352Y-120665976D01*
X180309876Y-120618357D01*
X180214638Y-120570738D01*
X180119400Y-120475500D01*
X180071780Y-120332642D01*
X180071780Y-120237404D01*
X180119400Y-120094547D01*
X180167019Y-120046928D01*
X180786066Y-119665976D02*
X180786066Y-119189785D01*
X181071780Y-119761214D02*
X180071780Y-119427880D01*
X181071780Y-119094547D01*
X181071780Y-118761214D02*
X180071780Y-118761214D01*
X181071780Y-118189785D01*
X180071780Y-118189785D01*
X177007780Y-122181976D02*
X177007780Y-122658166D01*
X176007780Y-122658166D01*
X177007780Y-120237214D02*
X176007780Y-120237214D01*
X176483971Y-120237214D02*
X176483971Y-119665785D01*
X177007780Y-119665785D02*
X176007780Y-119665785D01*
X186890066Y-85367880D02*
X186890066Y-86082166D01*
X186842447Y-86225023D01*
X186747209Y-86320261D01*
X186604352Y-86367880D01*
X186509114Y-86367880D01*
X187271019Y-85367880D02*
X187890066Y-85367880D01*
X187556733Y-85748833D01*
X187699590Y-85748833D01*
X187794828Y-85796452D01*
X187842447Y-85844071D01*
X187890066Y-85939309D01*
X187890066Y-86177404D01*
X187842447Y-86272642D01*
X187794828Y-86320261D01*
X187699590Y-86367880D01*
X187413876Y-86367880D01*
X187318638Y-86320261D01*
X187271019Y-86272642D01*
X182770828Y-90336642D02*
X182723209Y-90384261D01*
X182580352Y-90431880D01*
X182485114Y-90431880D01*
X182342257Y-90384261D01*
X182247019Y-90289023D01*
X182199400Y-90193785D01*
X182151780Y-90003309D01*
X182151780Y-89860452D01*
X182199400Y-89669976D01*
X182247019Y-89574738D01*
X182342257Y-89479500D01*
X182485114Y-89431880D01*
X182580352Y-89431880D01*
X182723209Y-89479500D01*
X182770828Y-89527119D01*
X183151780Y-90146166D02*
X183627971Y-90146166D01*
X183056542Y-90431880D02*
X183389876Y-89431880D01*
X183723209Y-90431880D01*
X184056542Y-90431880D02*
X184056542Y-89431880D01*
X184627971Y-90431880D01*
X184627971Y-89431880D01*
X184866066Y-90527119D02*
X185627971Y-90527119D01*
X185723209Y-89431880D02*
X186294638Y-89431880D01*
X186008923Y-90431880D02*
X186008923Y-89431880D01*
X186627971Y-89908071D02*
X186961304Y-89908071D01*
X187104161Y-90431880D02*
X186627971Y-90431880D01*
X186627971Y-89431880D01*
X187104161Y-89431880D01*
X188104161Y-90431880D02*
X187770828Y-89955690D01*
X187532733Y-90431880D02*
X187532733Y-89431880D01*
X187913685Y-89431880D01*
X188008923Y-89479500D01*
X188056542Y-89527119D01*
X188104161Y-89622357D01*
X188104161Y-89765214D01*
X188056542Y-89860452D01*
X188008923Y-89908071D01*
X187913685Y-89955690D01*
X187532733Y-89955690D01*
X188532733Y-90431880D02*
X188532733Y-89431880D01*
X188866066Y-90146166D01*
X189199400Y-89431880D01*
X189199400Y-90431880D01*
X170022923Y-122340642D02*
X169975304Y-122388261D01*
X169832447Y-122435880D01*
X169737209Y-122435880D01*
X169594352Y-122388261D01*
X169499114Y-122293023D01*
X169451495Y-122197785D01*
X169403876Y-122007309D01*
X169403876Y-121864452D01*
X169451495Y-121673976D01*
X169499114Y-121578738D01*
X169594352Y-121483500D01*
X169737209Y-121435880D01*
X169832447Y-121435880D01*
X169975304Y-121483500D01*
X170022923Y-121531119D01*
X170451495Y-122435880D02*
X170451495Y-121435880D01*
X171022923Y-122435880D01*
X171022923Y-121435880D01*
X171641971Y-121864452D02*
X171546733Y-121816833D01*
X171499114Y-121769214D01*
X171451495Y-121673976D01*
X171451495Y-121626357D01*
X171499114Y-121531119D01*
X171546733Y-121483500D01*
X171641971Y-121435880D01*
X171832447Y-121435880D01*
X171927685Y-121483500D01*
X171975304Y-121531119D01*
X172022923Y-121626357D01*
X172022923Y-121673976D01*
X171975304Y-121769214D01*
X171927685Y-121816833D01*
X171832447Y-121864452D01*
X171641971Y-121864452D01*
X171546733Y-121912071D01*
X171499114Y-121959690D01*
X171451495Y-122054928D01*
X171451495Y-122245404D01*
X171499114Y-122340642D01*
X171546733Y-122388261D01*
X171641971Y-122435880D01*
X171832447Y-122435880D01*
X171927685Y-122388261D01*
X171975304Y-122340642D01*
X172022923Y-122245404D01*
X172022923Y-122054928D01*
X171975304Y-121959690D01*
X171927685Y-121912071D01*
X171832447Y-121864452D01*
X169999114Y-116911500D02*
X169903876Y-116863880D01*
X169761019Y-116863880D01*
X169618161Y-116911500D01*
X169522923Y-117006738D01*
X169475304Y-117101976D01*
X169427685Y-117292452D01*
X169427685Y-117435309D01*
X169475304Y-117625785D01*
X169522923Y-117721023D01*
X169618161Y-117816261D01*
X169761019Y-117863880D01*
X169856257Y-117863880D01*
X169999114Y-117816261D01*
X170046733Y-117768642D01*
X170046733Y-117435309D01*
X169856257Y-117435309D01*
X170475304Y-117863880D02*
X170475304Y-116863880D01*
X170856257Y-116863880D01*
X170951495Y-116911500D01*
X170999114Y-116959119D01*
X171046733Y-117054357D01*
X171046733Y-117197214D01*
X170999114Y-117292452D01*
X170951495Y-117340071D01*
X170856257Y-117387690D01*
X170475304Y-117387690D01*
X171427685Y-117816261D02*
X171570542Y-117863880D01*
X171808638Y-117863880D01*
X171903876Y-117816261D01*
X171951495Y-117768642D01*
X171999114Y-117673404D01*
X171999114Y-117578166D01*
X171951495Y-117482928D01*
X171903876Y-117435309D01*
X171808638Y-117387690D01*
X171618161Y-117340071D01*
X171522923Y-117292452D01*
X171475304Y-117244833D01*
X171427685Y-117149595D01*
X171427685Y-117054357D01*
X171475304Y-116959119D01*
X171522923Y-116911500D01*
X171618161Y-116863880D01*
X171856257Y-116863880D01*
X171999114Y-116911500D01*
X162148923Y-59602642D02*
X162101304Y-59650261D01*
X161958447Y-59697880D01*
X161863209Y-59697880D01*
X161720352Y-59650261D01*
X161625114Y-59555023D01*
X161577495Y-59459785D01*
X161529876Y-59269309D01*
X161529876Y-59126452D01*
X161577495Y-58935976D01*
X161625114Y-58840738D01*
X161720352Y-58745500D01*
X161863209Y-58697880D01*
X161958447Y-58697880D01*
X162101304Y-58745500D01*
X162148923Y-58793119D01*
X162577495Y-59697880D02*
X162577495Y-58697880D01*
X163148923Y-59697880D01*
X163148923Y-58697880D01*
X163529876Y-58697880D02*
X164148923Y-58697880D01*
X163815590Y-59078833D01*
X163958447Y-59078833D01*
X164053685Y-59126452D01*
X164101304Y-59174071D01*
X164148923Y-59269309D01*
X164148923Y-59507404D01*
X164101304Y-59602642D01*
X164053685Y-59650261D01*
X163958447Y-59697880D01*
X163672733Y-59697880D01*
X163577495Y-59650261D01*
X163529876Y-59602642D01*
X169118161Y-69349880D02*
X168784828Y-68873690D01*
X168546733Y-69349880D02*
X168546733Y-68349880D01*
X168927685Y-68349880D01*
X169022923Y-68397500D01*
X169070542Y-68445119D01*
X169118161Y-68540357D01*
X169118161Y-68683214D01*
X169070542Y-68778452D01*
X169022923Y-68826071D01*
X168927685Y-68873690D01*
X168546733Y-68873690D01*
X169499114Y-69302261D02*
X169641971Y-69349880D01*
X169880066Y-69349880D01*
X169975304Y-69302261D01*
X170022923Y-69254642D01*
X170070542Y-69159404D01*
X170070542Y-69064166D01*
X170022923Y-68968928D01*
X169975304Y-68921309D01*
X169880066Y-68873690D01*
X169689590Y-68826071D01*
X169594352Y-68778452D01*
X169546733Y-68730833D01*
X169499114Y-68635595D01*
X169499114Y-68540357D01*
X169546733Y-68445119D01*
X169594352Y-68397500D01*
X169689590Y-68349880D01*
X169927685Y-68349880D01*
X170070542Y-68397500D01*
X170451495Y-68445119D02*
X170499114Y-68397500D01*
X170594352Y-68349880D01*
X170832447Y-68349880D01*
X170927685Y-68397500D01*
X170975304Y-68445119D01*
X171022923Y-68540357D01*
X171022923Y-68635595D01*
X170975304Y-68778452D01*
X170403876Y-69349880D01*
X171022923Y-69349880D01*
X171356257Y-68349880D02*
X171975304Y-68349880D01*
X171641971Y-68730833D01*
X171784828Y-68730833D01*
X171880066Y-68778452D01*
X171927685Y-68826071D01*
X171975304Y-68921309D01*
X171975304Y-69159404D01*
X171927685Y-69254642D01*
X171880066Y-69302261D01*
X171784828Y-69349880D01*
X171499114Y-69349880D01*
X171403876Y-69302261D01*
X171356257Y-69254642D01*
X172356257Y-68445119D02*
X172403876Y-68397500D01*
X172499114Y-68349880D01*
X172737209Y-68349880D01*
X172832447Y-68397500D01*
X172880066Y-68445119D01*
X172927685Y-68540357D01*
X172927685Y-68635595D01*
X172880066Y-68778452D01*
X172308638Y-69349880D01*
X172927685Y-69349880D01*
X163037780Y-71731023D02*
X162561590Y-72064357D01*
X163037780Y-72302452D02*
X162037780Y-72302452D01*
X162037780Y-71921500D01*
X162085400Y-71826261D01*
X162133019Y-71778642D01*
X162228257Y-71731023D01*
X162371114Y-71731023D01*
X162466352Y-71778642D01*
X162513971Y-71826261D01*
X162561590Y-71921500D01*
X162561590Y-72302452D01*
X162037780Y-71397690D02*
X163037780Y-70731023D01*
X162037780Y-70731023D02*
X163037780Y-71397690D01*
X163418733Y-70064357D02*
X163371114Y-70111976D01*
X163228257Y-70207214D01*
X163133019Y-70254833D01*
X162990161Y-70302452D01*
X162752066Y-70350071D01*
X162561590Y-70350071D01*
X162323495Y-70302452D01*
X162180638Y-70254833D01*
X162085400Y-70207214D01*
X161942542Y-70111976D01*
X161894923Y-70064357D01*
X162037780Y-69778642D02*
X162037780Y-69159595D01*
X162418733Y-69492928D01*
X162418733Y-69350071D01*
X162466352Y-69254833D01*
X162513971Y-69207214D01*
X162609209Y-69159595D01*
X162847304Y-69159595D01*
X162942542Y-69207214D01*
X162990161Y-69254833D01*
X163037780Y-69350071D01*
X163037780Y-69635785D01*
X162990161Y-69731023D01*
X162942542Y-69778642D01*
X163418733Y-68826261D02*
X163371114Y-68778642D01*
X163228257Y-68683404D01*
X163133019Y-68635785D01*
X162990161Y-68588166D01*
X162752066Y-68540547D01*
X162561590Y-68540547D01*
X162323495Y-68588166D01*
X162180638Y-68635785D01*
X162085400Y-68683404D01*
X161942542Y-68778642D01*
X161894923Y-68826261D01*
X159243780Y-72326261D02*
X159243780Y-71754833D01*
X160243780Y-72040547D02*
X159243780Y-72040547D01*
X159243780Y-71516738D02*
X160243780Y-70850071D01*
X159243780Y-70850071D02*
X160243780Y-71516738D01*
X160624733Y-70183404D02*
X160577114Y-70231023D01*
X160434257Y-70326261D01*
X160339019Y-70373880D01*
X160196161Y-70421500D01*
X159958066Y-70469119D01*
X159767590Y-70469119D01*
X159529495Y-70421500D01*
X159386638Y-70373880D01*
X159291400Y-70326261D01*
X159148542Y-70231023D01*
X159100923Y-70183404D01*
X159339019Y-69850071D02*
X159291400Y-69802452D01*
X159243780Y-69707214D01*
X159243780Y-69469119D01*
X159291400Y-69373880D01*
X159339019Y-69326261D01*
X159434257Y-69278642D01*
X159529495Y-69278642D01*
X159672352Y-69326261D01*
X160243780Y-69897690D01*
X160243780Y-69278642D01*
X160624733Y-68945309D02*
X160577114Y-68897690D01*
X160434257Y-68802452D01*
X160339019Y-68754833D01*
X160196161Y-68707214D01*
X159958066Y-68659595D01*
X159767590Y-68659595D01*
X159529495Y-68707214D01*
X159386638Y-68754833D01*
X159291400Y-68802452D01*
X159148542Y-68897690D01*
X159100923Y-68945309D01*
D13*
X142258148Y-114590500D02*
X142780652Y-114590500D01*
X142258148Y-113120500D02*
X142780652Y-113120500D01*
X142258148Y-98388500D02*
X142780652Y-98388500D01*
X142258148Y-99858500D02*
X142780652Y-99858500D01*
X99269400Y-95249500D02*
X91569400Y-95249500D01*
X91569400Y-95249500D02*
X91569400Y-87249500D01*
X91569400Y-95249500D02*
X90069400Y-95949500D01*
X90069400Y-95949500D02*
X90069400Y-86549500D01*
X91569400Y-87249500D02*
X90069400Y-86549500D01*
X99269400Y-87249500D02*
X99269400Y-95249500D01*
X91569400Y-87249500D02*
X99269400Y-87249500D01*
X99269400Y-68961500D02*
X99269400Y-76961500D01*
X99269400Y-76961500D02*
X91569400Y-76961500D01*
X90069400Y-77661500D02*
X90069400Y-68261500D01*
X91569400Y-76961500D02*
X91569400Y-68961500D01*
X91569400Y-76961500D02*
X90069400Y-77661500D01*
X91569400Y-68961500D02*
X90069400Y-68261500D01*
X91569400Y-68961500D02*
X99269400Y-68961500D01*
X170112400Y-112783500D02*
X170112400Y-110863500D01*
X170112400Y-110863500D02*
X167427400Y-110863500D01*
X167427400Y-112783500D02*
X170112400Y-112783500D01*
X167427400Y-106687500D02*
X170112400Y-106687500D01*
X170112400Y-104767500D02*
X167427400Y-104767500D01*
X170112400Y-106687500D02*
X170112400Y-104767500D01*
X170112400Y-98671500D02*
X167427400Y-98671500D01*
X170112400Y-100591500D02*
X170112400Y-98671500D01*
X167427400Y-100591500D02*
X170112400Y-100591500D01*
X163120336Y-112558500D02*
X163574464Y-112558500D01*
X163120336Y-111088500D02*
X163574464Y-111088500D01*
X163120336Y-106462500D02*
X163574464Y-106462500D01*
X163120336Y-104992500D02*
X163574464Y-104992500D01*
X163574464Y-98896500D02*
X163120336Y-98896500D01*
X163574464Y-100366500D02*
X163120336Y-100366500D01*
D10*
X120153400Y-121875500D02*
X120153400Y-121075500D01*
X120153400Y-121075500D02*
X120653400Y-120575500D01*
X120653400Y-120575500D02*
X124253400Y-120575500D01*
X124753400Y-121875500D02*
X124253400Y-122375500D01*
X120653400Y-122375500D02*
X120153400Y-121875500D01*
X124253400Y-120575500D02*
X124753400Y-121075500D01*
X124253400Y-122375500D02*
X120653400Y-122375500D01*
X124753400Y-121075500D02*
X124753400Y-121875500D01*
D13*
X150841400Y-117157500D02*
X150841400Y-81537500D01*
X152171400Y-119757500D02*
X150841400Y-119757500D01*
X153501400Y-117157500D02*
X150841400Y-117157500D01*
X150841400Y-119757500D02*
X150841400Y-118427500D01*
X153501400Y-81537500D02*
X150841400Y-81537500D01*
X153501400Y-117157500D02*
X153501400Y-81537500D01*
X126069400Y-107505500D02*
X123409400Y-107505500D01*
X123409400Y-110105500D02*
X123409400Y-108775500D01*
X126069400Y-79505500D02*
X123409400Y-79505500D01*
X123409400Y-107505500D02*
X123409400Y-79505500D01*
X124739400Y-110105500D02*
X123409400Y-110105500D01*
X126069400Y-107505500D02*
X126069400Y-79505500D01*
D10*
X186737400Y-69035500D02*
X183137400Y-69035500D01*
X187237400Y-67735500D02*
X187237400Y-68535500D01*
X182637400Y-67735500D02*
X183137400Y-67235500D01*
X183137400Y-69035500D02*
X182637400Y-68535500D01*
X186737400Y-67235500D02*
X187237400Y-67735500D01*
X187237400Y-68535500D02*
X186737400Y-69035500D01*
X183137400Y-67235500D02*
X186737400Y-67235500D01*
X182637400Y-68535500D02*
X182637400Y-67735500D01*
D13*
X131333400Y-111411500D02*
X136433400Y-111411500D01*
X131333400Y-98811500D02*
X131333400Y-111411500D01*
X136433400Y-111411500D02*
X136433400Y-98811500D01*
X113455400Y-110953500D02*
X113455400Y-113303500D01*
X120275400Y-112017937D02*
X119210963Y-110953500D01*
X120275400Y-116709063D02*
X120275400Y-115423500D01*
X120909150Y-116604750D02*
X120909150Y-115817250D01*
X121302900Y-116211000D02*
X120515400Y-116211000D01*
X120275400Y-112017937D02*
X120275400Y-113303500D01*
X119210963Y-117773500D02*
X113455400Y-117773500D01*
X120275400Y-116709063D02*
X119210963Y-117773500D01*
X113455400Y-117773500D02*
X113455400Y-115423500D01*
X119210963Y-110953500D02*
X113455400Y-110953500D01*
D10*
X105131400Y-111059500D02*
X105231400Y-111059500D01*
X107671400Y-111059500D02*
X109061400Y-111059500D01*
X101301400Y-124779500D02*
X101301400Y-111059500D01*
X109061400Y-124779500D02*
X109061400Y-111059500D01*
X101301400Y-111059500D02*
X102691400Y-111059500D01*
X101301400Y-124779500D02*
X109061400Y-124779500D01*
D13*
X129057400Y-55128500D02*
X129057400Y-59157374D01*
X143281400Y-55128500D02*
X129057400Y-55128500D01*
X133179280Y-68971500D02*
X134079520Y-68971500D01*
X143281400Y-59157374D02*
X143281400Y-55128500D01*
X138259280Y-68971500D02*
X139159520Y-68971500D01*
X140799280Y-68971500D02*
X143281400Y-68971500D01*
X135719280Y-68971500D02*
X136619520Y-68971500D01*
X143281400Y-68971500D02*
X143281400Y-59833625D01*
X129057400Y-59833625D02*
X129057400Y-68971500D01*
X129057400Y-68971500D02*
X131539520Y-68971500D01*
X127660400Y-68135500D02*
G75*
G03*
X127660400Y-68135500I-381000J0D01*
G01*
D10*
X175856400Y-114563500D02*
X175856400Y-113043500D01*
X189576400Y-114563500D02*
X175856400Y-114563500D01*
X189576400Y-104003500D02*
X175856400Y-104003500D01*
X175856400Y-105523500D02*
X175856400Y-104003500D01*
X189576400Y-114563500D02*
X189576400Y-104003500D01*
X189576400Y-102371500D02*
X189576400Y-91811500D01*
X189576400Y-91811500D02*
X175856400Y-91811500D01*
X189576400Y-102371500D02*
X175856400Y-102371500D01*
X175856400Y-102371500D02*
X175856400Y-100851500D01*
X175856400Y-93331500D02*
X175856400Y-91811500D01*
D13*
X115947400Y-104837500D02*
X115947400Y-101537500D01*
X115439400Y-104837500D02*
X115439400Y-101537500D01*
X115439400Y-104837500D02*
X110039400Y-104837500D01*
X115439400Y-101537500D02*
X110039400Y-101537500D01*
X102044500Y-107607100D02*
X102044500Y-107203240D01*
X102044500Y-102323900D02*
X92062300Y-102323900D01*
X92062300Y-107607100D02*
X102044500Y-107607100D01*
X92062300Y-102323900D02*
X92062300Y-102727760D01*
X92062300Y-107203240D02*
X92062300Y-107607100D01*
X102044500Y-102727760D02*
X102044500Y-102323900D01*
X109419400Y-60987500D02*
X109419400Y-54987500D01*
X111659400Y-60987500D02*
X111659400Y-54987500D01*
X109119400Y-54987500D02*
X109879400Y-54987500D01*
X111659400Y-64044571D02*
X111659400Y-63647500D01*
X108169400Y-60987500D02*
X108169400Y-63647500D01*
X109879400Y-66517500D02*
X109879400Y-66130429D01*
X109659400Y-60987500D02*
X109659400Y-54987500D01*
X109119400Y-60987500D02*
X109119400Y-54987500D01*
X113369400Y-63647500D02*
X113369400Y-60987500D01*
X108169400Y-63647500D02*
X113369400Y-63647500D01*
X112419400Y-54987500D02*
X112419400Y-60987500D01*
X111659400Y-66584571D02*
X111659400Y-66130429D01*
X108229400Y-68897500D02*
X108229400Y-67627500D01*
X112419400Y-66584571D02*
X112419400Y-66130429D01*
X109119400Y-64044571D02*
X109119400Y-63647500D01*
X109499400Y-68897500D02*
X108229400Y-68897500D01*
X109119400Y-66517500D02*
X109119400Y-66130429D01*
X109539400Y-60987500D02*
X109539400Y-54987500D01*
X109879400Y-64044571D02*
X109879400Y-63647500D01*
X109779400Y-60987500D02*
X109779400Y-54987500D01*
X109879400Y-54987500D02*
X109879400Y-60987500D01*
X112419400Y-64044571D02*
X112419400Y-63647500D01*
X109179400Y-60987500D02*
X109179400Y-54987500D01*
X109299400Y-60987500D02*
X109299400Y-54987500D01*
X111659400Y-54987500D02*
X112419400Y-54987500D01*
X110769400Y-63647500D02*
X110769400Y-60987500D01*
X113369400Y-60987500D02*
X108169400Y-60987500D01*
X116739400Y-64044571D02*
X116739400Y-63647500D01*
X117119400Y-68897500D02*
X115849400Y-68897500D01*
X122579400Y-54987500D02*
X122579400Y-60987500D01*
X115789400Y-63647500D02*
X123529400Y-63647500D01*
X120929400Y-63647500D02*
X120929400Y-60987500D01*
X120039400Y-66584571D02*
X120039400Y-66130429D01*
X121819400Y-66584571D02*
X121819400Y-66130429D01*
X119279400Y-54987500D02*
X120039400Y-54987500D01*
X117039400Y-60987500D02*
X117039400Y-54987500D01*
X117159400Y-60987500D02*
X117159400Y-54987500D01*
X115789400Y-60987500D02*
X115789400Y-63647500D01*
X119279400Y-64044571D02*
X119279400Y-63647500D01*
X122579400Y-66584571D02*
X122579400Y-66130429D01*
X115849400Y-68897500D02*
X115849400Y-67627500D01*
X118389400Y-63647500D02*
X118389400Y-60987500D01*
X123529400Y-60987500D02*
X115789400Y-60987500D01*
X120039400Y-54987500D02*
X120039400Y-60987500D01*
X116739400Y-54987500D02*
X117499400Y-54987500D01*
X116739400Y-66517500D02*
X116739400Y-66130429D01*
X116739400Y-60987500D02*
X116739400Y-54987500D01*
X123529400Y-63647500D02*
X123529400Y-60987500D01*
X117499400Y-64044571D02*
X117499400Y-63647500D01*
X120039400Y-64044571D02*
X120039400Y-63647500D01*
X117499400Y-54987500D02*
X117499400Y-60987500D01*
X122579400Y-64044571D02*
X122579400Y-63647500D01*
X117399400Y-60987500D02*
X117399400Y-54987500D01*
X121819400Y-64044571D02*
X121819400Y-63647500D01*
X119279400Y-66584571D02*
X119279400Y-66130429D01*
X117499400Y-66517500D02*
X117499400Y-66130429D01*
X121819400Y-54987500D02*
X122579400Y-54987500D01*
X116919400Y-60987500D02*
X116919400Y-54987500D01*
X119279400Y-60987500D02*
X119279400Y-54987500D01*
X121819400Y-60987500D02*
X121819400Y-54987500D01*
X116799400Y-60987500D02*
X116799400Y-54987500D01*
X117279400Y-60987500D02*
X117279400Y-54987500D01*
X114087400Y-94495500D02*
X116772400Y-94495500D01*
X116772400Y-94495500D02*
X116772400Y-92575500D01*
X116772400Y-92575500D02*
X114087400Y-92575500D01*
D14*
X179079400Y-73011500D02*
X171729400Y-73011500D01*
X179079400Y-73011500D02*
X179079400Y-80511500D01*
X179079400Y-80511500D02*
X171729400Y-80511500D01*
X171729400Y-73011500D02*
G75*
G03*
X171729400Y-80511500I0J-3750000D01*
G01*
D13*
X142800400Y-109002564D02*
X142800400Y-108548436D01*
X144270400Y-109002564D02*
X144270400Y-108548436D01*
X109780336Y-94270500D02*
X110234464Y-94270500D01*
X109780336Y-92800500D02*
X110234464Y-92800500D01*
X142800400Y-104430564D02*
X142800400Y-103976436D01*
X144270400Y-104430564D02*
X144270400Y-103976436D01*
X157743400Y-123927500D02*
X162243400Y-123927500D01*
X162243400Y-117427500D02*
X157743400Y-117427500D01*
X163493400Y-121427500D02*
X163493400Y-119927500D01*
X156493400Y-119927500D02*
X156493400Y-121427500D01*
D10*
X96305400Y-111931500D02*
X96305400Y-112731500D01*
X91705400Y-111931500D02*
X92205400Y-111431500D01*
X96305400Y-112731500D02*
X95805400Y-113231500D01*
X92205400Y-113231500D02*
X91705400Y-112731500D01*
X95805400Y-113231500D02*
X92205400Y-113231500D01*
X92205400Y-111431500D02*
X95805400Y-111431500D01*
X91705400Y-112731500D02*
X91705400Y-111931500D01*
X95805400Y-111431500D02*
X96305400Y-111931500D01*
X179487400Y-123021500D02*
X178987400Y-123521500D01*
X178987400Y-123521500D02*
X178187400Y-123521500D01*
X177687400Y-119421500D02*
X178187400Y-118921500D01*
X178187400Y-118921500D02*
X178987400Y-118921500D01*
X178987400Y-118921500D02*
X179487400Y-119421500D01*
X179487400Y-119421500D02*
X179487400Y-123021500D01*
X178187400Y-123521500D02*
X177687400Y-123021500D01*
X177687400Y-123021500D02*
X177687400Y-119421500D01*
D13*
X180713400Y-84771500D02*
X181043400Y-84771500D01*
X181043400Y-88261500D02*
X183703400Y-88261500D01*
X178333400Y-84391500D02*
X178333400Y-83121500D01*
X181043400Y-83061500D02*
X181043400Y-88261500D01*
X180713400Y-84011500D02*
X181043400Y-84011500D01*
X178333400Y-83121500D02*
X179603400Y-83121500D01*
X189703400Y-87311500D02*
X183703400Y-87311500D01*
X189703400Y-86551500D02*
X189703400Y-87311500D01*
X183703400Y-84671500D02*
X189703400Y-84671500D01*
X189703400Y-84771500D02*
X183703400Y-84771500D01*
X183703400Y-88261500D02*
X183703400Y-83061500D01*
X183703400Y-84551500D02*
X189703400Y-84551500D01*
X181043400Y-85661500D02*
X183703400Y-85661500D01*
X183703400Y-84431500D02*
X189703400Y-84431500D01*
X183703400Y-84071500D02*
X189703400Y-84071500D01*
X180646329Y-86551500D02*
X181043400Y-86551500D01*
X183703400Y-83061500D02*
X181043400Y-83061500D01*
X189703400Y-84011500D02*
X189703400Y-84771500D01*
X183703400Y-84011500D02*
X189703400Y-84011500D01*
X183703400Y-84191500D02*
X189703400Y-84191500D01*
X180646329Y-87311500D02*
X181043400Y-87311500D01*
X183703400Y-86551500D02*
X189703400Y-86551500D01*
X183703400Y-84311500D02*
X189703400Y-84311500D01*
X174948400Y-121215500D02*
X174948400Y-119765500D01*
X167748400Y-124035500D02*
X173678400Y-124035500D01*
X166478400Y-119765500D02*
X168278400Y-119765500D01*
X166478400Y-121215500D02*
X166478400Y-119765500D01*
X168278400Y-119765500D02*
X168278400Y-118775500D01*
X174948400Y-119765500D02*
X173148400Y-119765500D01*
X178022400Y-55115500D02*
X178022400Y-67455500D01*
X178022400Y-67455500D02*
X147052400Y-67455500D01*
X156747400Y-68349838D02*
X156997400Y-67916825D01*
X157247400Y-68349838D02*
X156747400Y-68349838D01*
X147052400Y-67455500D02*
X147052400Y-55115500D01*
X156997400Y-67916825D02*
X157247400Y-68349838D01*
%LPC*%
D15*
X141569400Y-113855500D03*
X143469400Y-113855500D03*
X141569400Y-99123500D03*
X143469400Y-99123500D03*
D16*
X98069400Y-89499500D03*
X98069400Y-92999500D03*
X98069400Y-71211500D03*
X98069400Y-74711500D03*
D17*
X169364900Y-111823500D03*
X167489900Y-111823500D03*
X169364900Y-105727500D03*
X167489900Y-105727500D03*
X169364900Y-99631500D03*
X167489900Y-99631500D03*
D18*
X162434900Y-111823500D03*
X164259900Y-111823500D03*
X162434900Y-105727500D03*
X164259900Y-105727500D03*
D19*
X164259900Y-99631500D03*
X162434900Y-99631500D03*
D20*
X123723400Y-121475500D03*
X121183400Y-121475500D03*
D21*
X152171400Y-118645500D03*
D22*
X152171400Y-115887500D03*
X152171400Y-113347500D03*
X152171400Y-110807500D03*
X152171400Y-108267500D03*
X152171400Y-105727500D03*
X152171400Y-103187500D03*
X152171400Y-100647500D03*
X152171400Y-98107500D03*
X152171400Y-95567500D03*
X152171400Y-93027500D03*
X152171400Y-90487500D03*
X152171400Y-87947500D03*
X152171400Y-85407500D03*
X152171400Y-82867500D03*
D21*
X124739400Y-108775500D03*
D22*
X124739400Y-106235500D03*
X124739400Y-103695500D03*
X124739400Y-101155500D03*
X124739400Y-98615500D03*
X124739400Y-96075500D03*
X124739400Y-93535500D03*
X124739400Y-90995500D03*
X124739400Y-88455500D03*
X124739400Y-85915500D03*
X124739400Y-83375500D03*
X124739400Y-80835500D03*
D20*
X186207400Y-68135500D03*
X183667400Y-68135500D03*
D23*
X133883400Y-108961500D03*
X133883400Y-100461500D03*
D24*
X147345400Y-122491500D03*
X129565400Y-76771500D03*
X147345400Y-76771500D03*
X129565400Y-122491500D03*
D25*
X148615400Y-116141500D03*
X148615400Y-80581500D03*
X148615400Y-108521500D03*
X148615400Y-105981500D03*
X148615400Y-103441500D03*
X148615400Y-100901500D03*
X148615400Y-98361500D03*
X148615400Y-95821500D03*
X128295400Y-85661500D03*
X128295400Y-88201500D03*
X128295400Y-90741500D03*
X128295400Y-93281500D03*
X128295400Y-95821500D03*
X128295400Y-98361500D03*
X128295400Y-100901500D03*
X128295400Y-105981500D03*
X148615400Y-111061500D03*
X128295400Y-108521500D03*
X148615400Y-113601500D03*
X148615400Y-88201500D03*
X148615400Y-90741500D03*
X148615400Y-118681500D03*
X148615400Y-85661500D03*
X148615400Y-93281500D03*
X128295400Y-83121500D03*
X128295400Y-80581500D03*
X148615400Y-83121500D03*
X128295400Y-103441500D03*
D26*
X119665400Y-114363500D03*
X114065400Y-114363500D03*
D27*
X107721400Y-120464500D03*
X102641400Y-120464500D03*
D28*
X106451400Y-111824500D03*
D29*
X103911400Y-111824500D03*
D30*
X131089400Y-59495499D03*
X141249400Y-59495499D03*
D31*
X132359400Y-68135500D03*
X134899400Y-68135500D03*
X137439400Y-68135500D03*
X139979400Y-68135500D03*
D27*
X185196400Y-113093500D03*
X185196400Y-105473500D03*
D28*
X176556400Y-106743500D03*
D29*
X176556400Y-109283500D03*
X176556400Y-111823500D03*
D27*
X185196400Y-93281500D03*
X185196400Y-100901500D03*
D28*
X176556400Y-94551500D03*
D29*
X176556400Y-97091500D03*
X176556400Y-99631500D03*
D32*
X114039400Y-103187500D03*
X110039400Y-103187500D03*
D33*
X93865700Y-104965500D03*
X100241100Y-104965500D03*
D21*
X109499400Y-67627500D03*
D22*
X109499400Y-65087500D03*
X112039400Y-67627500D03*
X112039400Y-65087500D03*
D21*
X117119400Y-67627500D03*
D22*
X117119400Y-65087500D03*
X119659400Y-67627500D03*
X119659400Y-65087500D03*
X122199400Y-67627500D03*
X122199400Y-65087500D03*
D17*
X116024900Y-93535500D03*
X114149900Y-93535500D03*
D34*
X95000000Y-60000000D03*
X95000000Y-120000000D03*
X185000000Y-60000000D03*
X185000000Y-120000000D03*
D35*
X170459400Y-76761500D03*
D16*
X178079400Y-79301500D03*
X178079400Y-74221500D03*
D36*
X175539400Y-78041500D03*
D37*
X175539400Y-75501500D03*
D38*
X143535400Y-109688000D03*
X143535400Y-107863000D03*
D18*
X109094900Y-93535500D03*
X110919900Y-93535500D03*
D38*
X143535400Y-105116000D03*
X143535400Y-103291000D03*
D16*
X156743400Y-122927500D03*
X156743400Y-118427500D03*
X163243400Y-118427500D03*
X163243400Y-122927500D03*
D20*
X92735400Y-112331500D03*
X95275400Y-112331500D03*
X178587400Y-122491500D03*
X178587400Y-119951500D03*
D21*
X179603400Y-84391500D03*
D22*
X179603400Y-86931500D03*
D39*
X168838400Y-119625500D03*
X170088400Y-119625500D03*
X171338400Y-119625500D03*
X172588400Y-119625500D03*
D40*
X166988400Y-122825500D03*
X174438400Y-122825500D03*
D34*
X175037400Y-64175500D03*
X150037400Y-64175500D03*
D41*
X156997400Y-65595500D03*
D42*
X159767400Y-65595500D03*
X162537400Y-65595500D03*
X165307400Y-65595500D03*
X168077400Y-65595500D03*
X158382400Y-62755500D03*
X161152400Y-62755500D03*
X163922400Y-62755500D03*
X166692400Y-62755500D03*
M02*
