G04 #@! TF.GenerationSoftware,KiCad,Pcbnew,(5.1.9-0-10_14)*
G04 #@! TF.CreationDate,2022-08-09T16:59:01-07:00*
G04 #@! TF.ProjectId,telemetry-pcb,74656c65-6d65-4747-9279-2d7063622e6b,rev?*
G04 #@! TF.SameCoordinates,Original*
G04 #@! TF.FileFunction,Paste,Top*
G04 #@! TF.FilePolarity,Positive*
%FSLAX46Y46*%
G04 Gerber Fmt 4.6, Leading zero omitted, Abs format (unit mm)*
G04 Created by KiCad (PCBNEW (5.1.9-0-10_14)) date 2022-08-09 16:59:01*
%MOMM*%
%LPD*%
G01*
G04 APERTURE LIST*
%ADD10R,2.500000X1.800000*%
%ADD11R,4.241800X3.810000*%
%ADD12R,2.000000X4.500000*%
G04 APERTURE END LIST*
D10*
X110039400Y-103187500D03*
X114039400Y-103187500D03*
G36*
G01*
X173938400Y-123925500D02*
X173938400Y-121725500D01*
G75*
G02*
X174188400Y-121475500I250000J0D01*
G01*
X174688400Y-121475500D01*
G75*
G02*
X174938400Y-121725500I0J-250000D01*
G01*
X174938400Y-123925500D01*
G75*
G02*
X174688400Y-124175500I-250000J0D01*
G01*
X174188400Y-124175500D01*
G75*
G02*
X173938400Y-123925500I0J250000D01*
G01*
G37*
G36*
G01*
X166488400Y-123925500D02*
X166488400Y-121725500D01*
G75*
G02*
X166738400Y-121475500I250000J0D01*
G01*
X167238400Y-121475500D01*
G75*
G02*
X167488400Y-121725500I0J-250000D01*
G01*
X167488400Y-123925500D01*
G75*
G02*
X167238400Y-124175500I-250000J0D01*
G01*
X166738400Y-124175500D01*
G75*
G02*
X166488400Y-123925500I0J250000D01*
G01*
G37*
G36*
G01*
X172288400Y-120325500D02*
X172288400Y-118925500D01*
G75*
G02*
X172438400Y-118775500I150000J0D01*
G01*
X172738400Y-118775500D01*
G75*
G02*
X172888400Y-118925500I0J-150000D01*
G01*
X172888400Y-120325500D01*
G75*
G02*
X172738400Y-120475500I-150000J0D01*
G01*
X172438400Y-120475500D01*
G75*
G02*
X172288400Y-120325500I0J150000D01*
G01*
G37*
G36*
G01*
X171038400Y-120325500D02*
X171038400Y-118925500D01*
G75*
G02*
X171188400Y-118775500I150000J0D01*
G01*
X171488400Y-118775500D01*
G75*
G02*
X171638400Y-118925500I0J-150000D01*
G01*
X171638400Y-120325500D01*
G75*
G02*
X171488400Y-120475500I-150000J0D01*
G01*
X171188400Y-120475500D01*
G75*
G02*
X171038400Y-120325500I0J150000D01*
G01*
G37*
G36*
G01*
X169788400Y-120325500D02*
X169788400Y-118925500D01*
G75*
G02*
X169938400Y-118775500I150000J0D01*
G01*
X170238400Y-118775500D01*
G75*
G02*
X170388400Y-118925500I0J-150000D01*
G01*
X170388400Y-120325500D01*
G75*
G02*
X170238400Y-120475500I-150000J0D01*
G01*
X169938400Y-120475500D01*
G75*
G02*
X169788400Y-120325500I0J150000D01*
G01*
G37*
G36*
G01*
X168538400Y-120325500D02*
X168538400Y-118925500D01*
G75*
G02*
X168688400Y-118775500I150000J0D01*
G01*
X168988400Y-118775500D01*
G75*
G02*
X169138400Y-118925500I0J-150000D01*
G01*
X169138400Y-120325500D01*
G75*
G02*
X168988400Y-120475500I-150000J0D01*
G01*
X168688400Y-120475500D01*
G75*
G02*
X168538400Y-120325500I0J150000D01*
G01*
G37*
G36*
G01*
X115815400Y-113813500D02*
X115815400Y-114913500D01*
G75*
G02*
X115565400Y-115163500I-250000J0D01*
G01*
X112565400Y-115163500D01*
G75*
G02*
X112315400Y-114913500I0J250000D01*
G01*
X112315400Y-113813500D01*
G75*
G02*
X112565400Y-113563500I250000J0D01*
G01*
X115565400Y-113563500D01*
G75*
G02*
X115815400Y-113813500I0J-250000D01*
G01*
G37*
G36*
G01*
X121415400Y-113813500D02*
X121415400Y-114913500D01*
G75*
G02*
X121165400Y-115163500I-250000J0D01*
G01*
X118165400Y-115163500D01*
G75*
G02*
X117915400Y-114913500I0J250000D01*
G01*
X117915400Y-113813500D01*
G75*
G02*
X118165400Y-113563500I250000J0D01*
G01*
X121165400Y-113563500D01*
G75*
G02*
X121415400Y-113813500I0J-250000D01*
G01*
G37*
D11*
X100241100Y-104965500D03*
X93865700Y-104965500D03*
G36*
G01*
X143985401Y-103803500D02*
X143085399Y-103803500D01*
G75*
G02*
X142835400Y-103553501I0J249999D01*
G01*
X142835400Y-103028499D01*
G75*
G02*
X143085399Y-102778500I249999J0D01*
G01*
X143985401Y-102778500D01*
G75*
G02*
X144235400Y-103028499I0J-249999D01*
G01*
X144235400Y-103553501D01*
G75*
G02*
X143985401Y-103803500I-249999J0D01*
G01*
G37*
G36*
G01*
X143985401Y-105628500D02*
X143085399Y-105628500D01*
G75*
G02*
X142835400Y-105378501I0J249999D01*
G01*
X142835400Y-104853499D01*
G75*
G02*
X143085399Y-104603500I249999J0D01*
G01*
X143985401Y-104603500D01*
G75*
G02*
X144235400Y-104853499I0J-249999D01*
G01*
X144235400Y-105378501D01*
G75*
G02*
X143985401Y-105628500I-249999J0D01*
G01*
G37*
G36*
G01*
X110407400Y-93985501D02*
X110407400Y-93085499D01*
G75*
G02*
X110657399Y-92835500I249999J0D01*
G01*
X111182401Y-92835500D01*
G75*
G02*
X111432400Y-93085499I0J-249999D01*
G01*
X111432400Y-93985501D01*
G75*
G02*
X111182401Y-94235500I-249999J0D01*
G01*
X110657399Y-94235500D01*
G75*
G02*
X110407400Y-93985501I0J249999D01*
G01*
G37*
G36*
G01*
X108582400Y-93985501D02*
X108582400Y-93085499D01*
G75*
G02*
X108832399Y-92835500I249999J0D01*
G01*
X109357401Y-92835500D01*
G75*
G02*
X109607400Y-93085499I0J-249999D01*
G01*
X109607400Y-93985501D01*
G75*
G02*
X109357401Y-94235500I-249999J0D01*
G01*
X108832399Y-94235500D01*
G75*
G02*
X108582400Y-93985501I0J249999D01*
G01*
G37*
G36*
G01*
X143985401Y-108375500D02*
X143085399Y-108375500D01*
G75*
G02*
X142835400Y-108125501I0J249999D01*
G01*
X142835400Y-107600499D01*
G75*
G02*
X143085399Y-107350500I249999J0D01*
G01*
X143985401Y-107350500D01*
G75*
G02*
X144235400Y-107600499I0J-249999D01*
G01*
X144235400Y-108125501D01*
G75*
G02*
X143985401Y-108375500I-249999J0D01*
G01*
G37*
G36*
G01*
X143985401Y-110200500D02*
X143085399Y-110200500D01*
G75*
G02*
X142835400Y-109950501I0J249999D01*
G01*
X142835400Y-109425499D01*
G75*
G02*
X143085399Y-109175500I249999J0D01*
G01*
X143985401Y-109175500D01*
G75*
G02*
X144235400Y-109425499I0J-249999D01*
G01*
X144235400Y-109950501D01*
G75*
G02*
X143985401Y-110200500I-249999J0D01*
G01*
G37*
G36*
G01*
X116512400Y-93079250D02*
X116512400Y-93991750D01*
G75*
G02*
X116268650Y-94235500I-243750J0D01*
G01*
X115781150Y-94235500D01*
G75*
G02*
X115537400Y-93991750I0J243750D01*
G01*
X115537400Y-93079250D01*
G75*
G02*
X115781150Y-92835500I243750J0D01*
G01*
X116268650Y-92835500D01*
G75*
G02*
X116512400Y-93079250I0J-243750D01*
G01*
G37*
G36*
G01*
X114637400Y-93079250D02*
X114637400Y-93991750D01*
G75*
G02*
X114393650Y-94235500I-243750J0D01*
G01*
X113906150Y-94235500D01*
G75*
G02*
X113662400Y-93991750I0J243750D01*
G01*
X113662400Y-93079250D01*
G75*
G02*
X113906150Y-92835500I243750J0D01*
G01*
X114393650Y-92835500D01*
G75*
G02*
X114637400Y-93079250I0J-243750D01*
G01*
G37*
D12*
X133883400Y-100461500D03*
X133883400Y-108961500D03*
G36*
G01*
X162947400Y-99181499D02*
X162947400Y-100081501D01*
G75*
G02*
X162697401Y-100331500I-249999J0D01*
G01*
X162172399Y-100331500D01*
G75*
G02*
X161922400Y-100081501I0J249999D01*
G01*
X161922400Y-99181499D01*
G75*
G02*
X162172399Y-98931500I249999J0D01*
G01*
X162697401Y-98931500D01*
G75*
G02*
X162947400Y-99181499I0J-249999D01*
G01*
G37*
G36*
G01*
X164772400Y-99181499D02*
X164772400Y-100081501D01*
G75*
G02*
X164522401Y-100331500I-249999J0D01*
G01*
X163997399Y-100331500D01*
G75*
G02*
X163747400Y-100081501I0J249999D01*
G01*
X163747400Y-99181499D01*
G75*
G02*
X163997399Y-98931500I249999J0D01*
G01*
X164522401Y-98931500D01*
G75*
G02*
X164772400Y-99181499I0J-249999D01*
G01*
G37*
G36*
G01*
X163747400Y-106177501D02*
X163747400Y-105277499D01*
G75*
G02*
X163997399Y-105027500I249999J0D01*
G01*
X164522401Y-105027500D01*
G75*
G02*
X164772400Y-105277499I0J-249999D01*
G01*
X164772400Y-106177501D01*
G75*
G02*
X164522401Y-106427500I-249999J0D01*
G01*
X163997399Y-106427500D01*
G75*
G02*
X163747400Y-106177501I0J249999D01*
G01*
G37*
G36*
G01*
X161922400Y-106177501D02*
X161922400Y-105277499D01*
G75*
G02*
X162172399Y-105027500I249999J0D01*
G01*
X162697401Y-105027500D01*
G75*
G02*
X162947400Y-105277499I0J-249999D01*
G01*
X162947400Y-106177501D01*
G75*
G02*
X162697401Y-106427500I-249999J0D01*
G01*
X162172399Y-106427500D01*
G75*
G02*
X161922400Y-106177501I0J249999D01*
G01*
G37*
G36*
G01*
X163747400Y-112273501D02*
X163747400Y-111373499D01*
G75*
G02*
X163997399Y-111123500I249999J0D01*
G01*
X164522401Y-111123500D01*
G75*
G02*
X164772400Y-111373499I0J-249999D01*
G01*
X164772400Y-112273501D01*
G75*
G02*
X164522401Y-112523500I-249999J0D01*
G01*
X163997399Y-112523500D01*
G75*
G02*
X163747400Y-112273501I0J249999D01*
G01*
G37*
G36*
G01*
X161922400Y-112273501D02*
X161922400Y-111373499D01*
G75*
G02*
X162172399Y-111123500I249999J0D01*
G01*
X162697401Y-111123500D01*
G75*
G02*
X162947400Y-111373499I0J-249999D01*
G01*
X162947400Y-112273501D01*
G75*
G02*
X162697401Y-112523500I-249999J0D01*
G01*
X162172399Y-112523500D01*
G75*
G02*
X161922400Y-112273501I0J249999D01*
G01*
G37*
G36*
G01*
X167977400Y-99175250D02*
X167977400Y-100087750D01*
G75*
G02*
X167733650Y-100331500I-243750J0D01*
G01*
X167246150Y-100331500D01*
G75*
G02*
X167002400Y-100087750I0J243750D01*
G01*
X167002400Y-99175250D01*
G75*
G02*
X167246150Y-98931500I243750J0D01*
G01*
X167733650Y-98931500D01*
G75*
G02*
X167977400Y-99175250I0J-243750D01*
G01*
G37*
G36*
G01*
X169852400Y-99175250D02*
X169852400Y-100087750D01*
G75*
G02*
X169608650Y-100331500I-243750J0D01*
G01*
X169121150Y-100331500D01*
G75*
G02*
X168877400Y-100087750I0J243750D01*
G01*
X168877400Y-99175250D01*
G75*
G02*
X169121150Y-98931500I243750J0D01*
G01*
X169608650Y-98931500D01*
G75*
G02*
X169852400Y-99175250I0J-243750D01*
G01*
G37*
G36*
G01*
X167977400Y-105271250D02*
X167977400Y-106183750D01*
G75*
G02*
X167733650Y-106427500I-243750J0D01*
G01*
X167246150Y-106427500D01*
G75*
G02*
X167002400Y-106183750I0J243750D01*
G01*
X167002400Y-105271250D01*
G75*
G02*
X167246150Y-105027500I243750J0D01*
G01*
X167733650Y-105027500D01*
G75*
G02*
X167977400Y-105271250I0J-243750D01*
G01*
G37*
G36*
G01*
X169852400Y-105271250D02*
X169852400Y-106183750D01*
G75*
G02*
X169608650Y-106427500I-243750J0D01*
G01*
X169121150Y-106427500D01*
G75*
G02*
X168877400Y-106183750I0J243750D01*
G01*
X168877400Y-105271250D01*
G75*
G02*
X169121150Y-105027500I243750J0D01*
G01*
X169608650Y-105027500D01*
G75*
G02*
X169852400Y-105271250I0J-243750D01*
G01*
G37*
G36*
G01*
X167977400Y-111367250D02*
X167977400Y-112279750D01*
G75*
G02*
X167733650Y-112523500I-243750J0D01*
G01*
X167246150Y-112523500D01*
G75*
G02*
X167002400Y-112279750I0J243750D01*
G01*
X167002400Y-111367250D01*
G75*
G02*
X167246150Y-111123500I243750J0D01*
G01*
X167733650Y-111123500D01*
G75*
G02*
X167977400Y-111367250I0J-243750D01*
G01*
G37*
G36*
G01*
X169852400Y-111367250D02*
X169852400Y-112279750D01*
G75*
G02*
X169608650Y-112523500I-243750J0D01*
G01*
X169121150Y-112523500D01*
G75*
G02*
X168877400Y-112279750I0J243750D01*
G01*
X168877400Y-111367250D01*
G75*
G02*
X169121150Y-111123500I243750J0D01*
G01*
X169608650Y-111123500D01*
G75*
G02*
X169852400Y-111367250I0J-243750D01*
G01*
G37*
G36*
G01*
X142969400Y-99598500D02*
X142969400Y-98648500D01*
G75*
G02*
X143219400Y-98398500I250000J0D01*
G01*
X143719400Y-98398500D01*
G75*
G02*
X143969400Y-98648500I0J-250000D01*
G01*
X143969400Y-99598500D01*
G75*
G02*
X143719400Y-99848500I-250000J0D01*
G01*
X143219400Y-99848500D01*
G75*
G02*
X142969400Y-99598500I0J250000D01*
G01*
G37*
G36*
G01*
X141069400Y-99598500D02*
X141069400Y-98648500D01*
G75*
G02*
X141319400Y-98398500I250000J0D01*
G01*
X141819400Y-98398500D01*
G75*
G02*
X142069400Y-98648500I0J-250000D01*
G01*
X142069400Y-99598500D01*
G75*
G02*
X141819400Y-99848500I-250000J0D01*
G01*
X141319400Y-99848500D01*
G75*
G02*
X141069400Y-99598500I0J250000D01*
G01*
G37*
G36*
G01*
X142969400Y-114330500D02*
X142969400Y-113380500D01*
G75*
G02*
X143219400Y-113130500I250000J0D01*
G01*
X143719400Y-113130500D01*
G75*
G02*
X143969400Y-113380500I0J-250000D01*
G01*
X143969400Y-114330500D01*
G75*
G02*
X143719400Y-114580500I-250000J0D01*
G01*
X143219400Y-114580500D01*
G75*
G02*
X142969400Y-114330500I0J250000D01*
G01*
G37*
G36*
G01*
X141069400Y-114330500D02*
X141069400Y-113380500D01*
G75*
G02*
X141319400Y-113130500I250000J0D01*
G01*
X141819400Y-113130500D01*
G75*
G02*
X142069400Y-113380500I0J-250000D01*
G01*
X142069400Y-114330500D01*
G75*
G02*
X141819400Y-114580500I-250000J0D01*
G01*
X141319400Y-114580500D01*
G75*
G02*
X141069400Y-114330500I0J250000D01*
G01*
G37*
M02*
