M48
; DRILL file {KiCad (6.0.7-1)-1} date Saturday, November 19, 2022 at 05:59:21 pm
; FORMAT={-:-/ absolute / metric / decimal}
; #@! TF.CreationDate,2022-11-19T17:59:21-08:00
; #@! TF.GenerationSoftware,Kicad,Pcbnew,(6.0.7-1)-1
; #@! TF.FileFunction,MixedPlating,1,2
FMAT,2
METRIC
; #@! TA.AperFunction,Plated,PTH,ViaDrill
T1C0.400
; #@! TA.AperFunction,Plated,PTH,ComponentDrill
T2C0.762
; #@! TA.AperFunction,Plated,PTH,ComponentDrill
T3C0.800
; #@! TA.AperFunction,Plated,PTH,ComponentDrill
T4C0.813
; #@! TA.AperFunction,Plated,PTH,ComponentDrill
T5C1.000
; #@! TA.AperFunction,Plated,PTH,ComponentDrill
T6C1.090
; #@! TA.AperFunction,Plated,PTH,ComponentDrill
T7C1.100
; #@! TA.AperFunction,Plated,PTH,ComponentDrill
T8C1.168
; #@! TA.AperFunction,Plated,PTH,ComponentDrill
T9C3.200
; #@! TA.AperFunction,NonPlated,NPTH,ComponentDrill
T10C2.000
; #@! TA.AperFunction,NonPlated,NPTH,ComponentDrill
T11C2.540
; #@! TA.AperFunction,NonPlated,NPTH,ComponentDrill
T12C3.300
; #@! TA.AperFunction,NonPlated,NPTH,ComponentDrill
T13C3.400
; #@! TA.AperFunction,NonPlated,NPTH,ComponentDrill
T14C3.454
%
G90
G05
T1
X106.451Y-75.755
X106.451Y-87.439
X107.975Y-90.487
X111.023Y-90.233
X117.627Y-93.535
X121.547Y-77.279
X121.547Y-78.295
X121.691Y-88.456
X122.199Y-94.043
X125.563Y-75.923
X126.263Y-102.918
X126.629Y-90.0
X126.629Y-91.504
X126.629Y-93.498
X126.629Y-104.712
X126.771Y-97.599
X127.063Y-72.423
X130.063Y-71.923
X130.835Y-85.407
X130.835Y-95.423
X130.835Y-104.093
X131.343Y-105.219
X131.851Y-101.663
X132.359Y-105.219
X134.535Y-96.075
X135.407Y-92.519
X135.407Y-94.551
X135.407Y-104.745
X135.768Y-90.848
X136.423Y-91.504
X136.931Y-83.376
X136.931Y-84.899
X137.439Y-92.519
X137.439Y-101.663
X137.947Y-76.263
X137.947Y-91.504
X137.947Y-119.444
X139.441Y-102.649
X139.471Y-85.407
X139.549Y-119.444
X142.011Y-77.787
X142.011Y-83.376
X143.027Y-101.663
X143.497Y-117.881
X144.407Y-109.283
X144.407Y-111.316
X145.059Y-105.768
X145.702Y-118.054
X145.868Y-102.379
X146.727Y-104.203
X147.235Y-93.532
X147.379Y-107.251
X150.139Y-86.931
X150.281Y-95.567
X151.663Y-121.983
X153.695Y-120.459
X156.743Y-106.743
X160.063Y-116.423
X164.063Y-101.923
X164.871Y-84.391
X167.411Y-85.407
X167.919Y-87.439
X168.563Y-117.423
X169.189Y-115.125
X170.967Y-93.027
X170.967Y-111.823
X171.475Y-101.155
X172.563Y-102.423
X175.793Y-87.694
X177.317Y-92.773
X180.873Y-78.549
X181.563Y-75.423
X181.563Y-81.423
T2
X128.295Y-80.581
X128.295Y-83.121
X128.295Y-85.661
X128.295Y-88.201
X128.295Y-90.742
X128.295Y-93.281
X128.295Y-95.822
X128.295Y-98.361
X128.295Y-100.901
X128.295Y-103.441
X128.295Y-105.981
X128.295Y-108.521
X148.615Y-80.581
X148.615Y-83.121
X148.615Y-85.661
X148.615Y-88.201
X148.615Y-90.742
X148.615Y-93.281
X148.615Y-95.822
X148.615Y-98.361
X148.615Y-100.901
X148.615Y-103.441
X148.615Y-105.981
X148.615Y-108.521
X148.615Y-111.061
X148.615Y-113.602
X148.615Y-116.141
X148.615Y-118.681
T3
X92.735Y-112.331
X95.275Y-112.331
X121.183Y-121.475
X123.723Y-121.475
X178.587Y-119.951
X178.587Y-122.491
X183.667Y-68.135
X186.207Y-68.135
T4
X175.539Y-75.501
X175.539Y-78.041
T5
X109.499Y-65.087
X109.499Y-67.627
X112.039Y-65.087
X112.039Y-67.627
X117.119Y-65.087
X117.119Y-67.627
X119.659Y-65.087
X119.659Y-67.627
X122.199Y-65.087
X122.199Y-67.627
X124.739Y-80.835
X124.739Y-83.376
X124.739Y-85.915
X124.739Y-88.456
X124.739Y-90.995
X124.739Y-93.535
X124.739Y-96.075
X124.739Y-98.615
X124.739Y-101.155
X124.739Y-103.695
X124.739Y-106.236
X124.739Y-108.775
X152.171Y-82.867
X152.171Y-85.407
X152.171Y-87.947
X152.171Y-90.487
X152.171Y-93.027
X152.171Y-95.567
X152.171Y-98.108
X152.171Y-100.647
X152.171Y-103.188
X152.171Y-105.727
X152.171Y-108.267
X152.171Y-110.807
X152.171Y-113.347
X152.171Y-115.887
X152.171Y-118.645
X156.997Y-65.596
X158.382Y-62.755
X159.767Y-65.596
X161.152Y-62.755
X162.537Y-65.596
X163.922Y-62.755
X165.307Y-65.596
X166.692Y-62.755
X168.077Y-65.596
X179.603Y-84.391
X179.603Y-86.931
T6
X103.911Y-111.825
X106.451Y-111.825
X176.556Y-94.551
X176.556Y-97.091
X176.556Y-99.631
X176.556Y-106.743
X176.556Y-109.283
X176.556Y-111.823
T7
X98.069Y-71.212
X98.069Y-74.712
X98.069Y-89.499
X98.069Y-92.999
X156.743Y-118.427
X156.743Y-122.927
X163.243Y-118.427
X163.243Y-122.927
T8
X132.359Y-68.135
X134.899Y-68.135
X137.439Y-68.135
X139.979Y-68.135
T9
X95.0Y-60.0
X95.0Y-120.0
X150.037Y-64.175
X175.037Y-64.175
X185.0Y-60.0
X185.0Y-120.0
T10
X178.079Y-74.221
X178.079Y-79.301
T11
X129.565Y-76.772
X129.565Y-122.491
X147.345Y-76.772
X147.345Y-122.491
T12
X170.459Y-76.761
T13
X102.641Y-120.465
X107.721Y-120.465
X185.196Y-93.281
X185.196Y-100.901
X185.196Y-105.474
X185.196Y-113.093
T14
X131.089Y-59.495
X141.249Y-59.495
T0
M30
