G04 #@! TF.GenerationSoftware,KiCad,Pcbnew,(5.1.9-0-10_14)*
G04 #@! TF.CreationDate,2022-08-09T16:59:01-07:00*
G04 #@! TF.ProjectId,telemetry-pcb,74656c65-6d65-4747-9279-2d7063622e6b,rev?*
G04 #@! TF.SameCoordinates,Original*
G04 #@! TF.FileFunction,Soldermask,Top*
G04 #@! TF.FilePolarity,Negative*
%FSLAX46Y46*%
G04 Gerber Fmt 4.6, Leading zero omitted, Abs format (unit mm)*
G04 Created by KiCad (PCBNEW (5.1.9-0-10_14)) date 2022-08-09 16:59:01*
%MOMM*%
%LPD*%
G01*
G04 APERTURE LIST*
%ADD10C,2.000000*%
%ADD11C,4.000000*%
%ADD12C,1.600000*%
%ADD13R,1.600000X1.600000*%
%ADD14R,2.500000X1.800000*%
%ADD15C,3.400000*%
%ADD16C,1.690000*%
%ADD17R,1.690000X1.690000*%
%ADD18C,3.454400*%
%ADD19C,1.676400*%
%ADD20C,3.556000*%
%ADD21C,1.524000*%
%ADD22R,1.700000X1.700000*%
%ADD23O,1.700000X1.700000*%
%ADD24C,1.400000*%
%ADD25R,4.241800X3.810000*%
%ADD26C,3.300000*%
%ADD27C,2.082800*%
%ADD28R,2.000000X4.500000*%
G04 APERTURE END LIST*
D10*
X98069400Y-92999500D03*
X98069400Y-89499500D03*
X98069400Y-74711500D03*
X98069400Y-71211500D03*
D11*
X95000000Y-60000000D03*
X150037400Y-64175500D03*
X175037400Y-64175500D03*
D12*
X166692400Y-62755500D03*
X163922400Y-62755500D03*
X161152400Y-62755500D03*
X158382400Y-62755500D03*
X168077400Y-65595500D03*
X165307400Y-65595500D03*
X162537400Y-65595500D03*
X159767400Y-65595500D03*
D13*
X156997400Y-65595500D03*
D14*
X110039400Y-103187500D03*
X114039400Y-103187500D03*
D15*
X107721400Y-120464500D03*
X102641400Y-120464500D03*
D16*
X103911400Y-111824500D03*
D17*
X106451400Y-111824500D03*
D18*
X141249400Y-59495499D03*
X131089400Y-59495499D03*
D19*
X139979400Y-68135500D03*
X137439400Y-68135500D03*
X134899400Y-68135500D03*
X132359400Y-68135500D03*
G36*
G01*
X173938400Y-123925500D02*
X173938400Y-121725500D01*
G75*
G02*
X174188400Y-121475500I250000J0D01*
G01*
X174688400Y-121475500D01*
G75*
G02*
X174938400Y-121725500I0J-250000D01*
G01*
X174938400Y-123925500D01*
G75*
G02*
X174688400Y-124175500I-250000J0D01*
G01*
X174188400Y-124175500D01*
G75*
G02*
X173938400Y-123925500I0J250000D01*
G01*
G37*
G36*
G01*
X166488400Y-123925500D02*
X166488400Y-121725500D01*
G75*
G02*
X166738400Y-121475500I250000J0D01*
G01*
X167238400Y-121475500D01*
G75*
G02*
X167488400Y-121725500I0J-250000D01*
G01*
X167488400Y-123925500D01*
G75*
G02*
X167238400Y-124175500I-250000J0D01*
G01*
X166738400Y-124175500D01*
G75*
G02*
X166488400Y-123925500I0J250000D01*
G01*
G37*
G36*
G01*
X172288400Y-120325500D02*
X172288400Y-118925500D01*
G75*
G02*
X172438400Y-118775500I150000J0D01*
G01*
X172738400Y-118775500D01*
G75*
G02*
X172888400Y-118925500I0J-150000D01*
G01*
X172888400Y-120325500D01*
G75*
G02*
X172738400Y-120475500I-150000J0D01*
G01*
X172438400Y-120475500D01*
G75*
G02*
X172288400Y-120325500I0J150000D01*
G01*
G37*
G36*
G01*
X171038400Y-120325500D02*
X171038400Y-118925500D01*
G75*
G02*
X171188400Y-118775500I150000J0D01*
G01*
X171488400Y-118775500D01*
G75*
G02*
X171638400Y-118925500I0J-150000D01*
G01*
X171638400Y-120325500D01*
G75*
G02*
X171488400Y-120475500I-150000J0D01*
G01*
X171188400Y-120475500D01*
G75*
G02*
X171038400Y-120325500I0J150000D01*
G01*
G37*
G36*
G01*
X169788400Y-120325500D02*
X169788400Y-118925500D01*
G75*
G02*
X169938400Y-118775500I150000J0D01*
G01*
X170238400Y-118775500D01*
G75*
G02*
X170388400Y-118925500I0J-150000D01*
G01*
X170388400Y-120325500D01*
G75*
G02*
X170238400Y-120475500I-150000J0D01*
G01*
X169938400Y-120475500D01*
G75*
G02*
X169788400Y-120325500I0J150000D01*
G01*
G37*
G36*
G01*
X168538400Y-120325500D02*
X168538400Y-118925500D01*
G75*
G02*
X168688400Y-118775500I150000J0D01*
G01*
X168988400Y-118775500D01*
G75*
G02*
X169138400Y-118925500I0J-150000D01*
G01*
X169138400Y-120325500D01*
G75*
G02*
X168988400Y-120475500I-150000J0D01*
G01*
X168688400Y-120475500D01*
G75*
G02*
X168538400Y-120325500I0J150000D01*
G01*
G37*
G36*
G01*
X115815400Y-113813500D02*
X115815400Y-114913500D01*
G75*
G02*
X115565400Y-115163500I-250000J0D01*
G01*
X112565400Y-115163500D01*
G75*
G02*
X112315400Y-114913500I0J250000D01*
G01*
X112315400Y-113813500D01*
G75*
G02*
X112565400Y-113563500I250000J0D01*
G01*
X115565400Y-113563500D01*
G75*
G02*
X115815400Y-113813500I0J-250000D01*
G01*
G37*
G36*
G01*
X121415400Y-113813500D02*
X121415400Y-114913500D01*
G75*
G02*
X121165400Y-115163500I-250000J0D01*
G01*
X118165400Y-115163500D01*
G75*
G02*
X117915400Y-114913500I0J250000D01*
G01*
X117915400Y-113813500D01*
G75*
G02*
X118165400Y-113563500I250000J0D01*
G01*
X121165400Y-113563500D01*
G75*
G02*
X121415400Y-113813500I0J-250000D01*
G01*
G37*
D15*
X185196400Y-105473500D03*
X185196400Y-113093500D03*
D16*
X176556400Y-111823500D03*
X176556400Y-109283500D03*
D17*
X176556400Y-106743500D03*
D15*
X185196400Y-93281500D03*
X185196400Y-100901500D03*
D16*
X176556400Y-99631500D03*
X176556400Y-97091500D03*
D17*
X176556400Y-94551500D03*
D20*
X129565400Y-122491500D03*
X129565400Y-76771500D03*
X147345400Y-122491500D03*
X147345400Y-76771500D03*
D21*
X148615400Y-118681500D03*
X148615400Y-116141500D03*
X148615400Y-113601500D03*
X148615400Y-111061500D03*
X148615400Y-108521500D03*
X148615400Y-105981500D03*
X148615400Y-103441500D03*
X148615400Y-100901500D03*
X148615400Y-98361500D03*
X148615400Y-95821500D03*
X148615400Y-93281500D03*
X148615400Y-90741500D03*
X148615400Y-88201500D03*
X148615400Y-85661500D03*
X148615400Y-83121500D03*
X148615400Y-80581500D03*
X128295400Y-80581500D03*
X128295400Y-83121500D03*
X128295400Y-85661500D03*
X128295400Y-88201500D03*
X128295400Y-90741500D03*
X128295400Y-93281500D03*
X128295400Y-95821500D03*
X128295400Y-98361500D03*
X128295400Y-100901500D03*
X128295400Y-103441500D03*
X128295400Y-105981500D03*
X128295400Y-108521500D03*
D22*
X117119400Y-67627500D03*
D23*
X117119400Y-65087500D03*
X119659400Y-67627500D03*
X119659400Y-65087500D03*
X122199400Y-67627500D03*
X122199400Y-65087500D03*
D24*
X95275400Y-112331500D03*
X92735400Y-112331500D03*
D23*
X179603400Y-86931500D03*
D22*
X179603400Y-84391500D03*
D25*
X100241100Y-104965500D03*
X93865700Y-104965500D03*
D22*
X124739400Y-108775500D03*
D23*
X124739400Y-106235500D03*
X124739400Y-103695500D03*
X124739400Y-101155500D03*
X124739400Y-98615500D03*
X124739400Y-96075500D03*
X124739400Y-93535500D03*
X124739400Y-90995500D03*
X124739400Y-88455500D03*
X124739400Y-85915500D03*
X124739400Y-83375500D03*
X124739400Y-80835500D03*
D22*
X152171400Y-118645500D03*
D23*
X152171400Y-115887500D03*
X152171400Y-113347500D03*
X152171400Y-110807500D03*
X152171400Y-108267500D03*
X152171400Y-105727500D03*
X152171400Y-103187500D03*
X152171400Y-100647500D03*
X152171400Y-98107500D03*
X152171400Y-95567500D03*
X152171400Y-93027500D03*
X152171400Y-90487500D03*
X152171400Y-87947500D03*
X152171400Y-85407500D03*
X152171400Y-82867500D03*
D10*
X178079400Y-79301500D03*
X178079400Y-74221500D03*
D26*
X170459400Y-76761500D03*
D27*
X175539400Y-75501500D03*
G36*
G01*
X174599600Y-77000100D02*
X176479200Y-77000100D01*
G75*
G02*
X176580800Y-77101700I0J-101600D01*
G01*
X176580800Y-78981300D01*
G75*
G02*
X176479200Y-79082900I-101600J0D01*
G01*
X174599600Y-79082900D01*
G75*
G02*
X174498000Y-78981300I0J101600D01*
G01*
X174498000Y-77101700D01*
G75*
G02*
X174599600Y-77000100I101600J0D01*
G01*
G37*
D23*
X112039400Y-65087500D03*
X112039400Y-67627500D03*
X109499400Y-65087500D03*
D22*
X109499400Y-67627500D03*
D24*
X178587400Y-119951500D03*
X178587400Y-122491500D03*
X121183400Y-121475500D03*
X123723400Y-121475500D03*
X183667400Y-68135500D03*
X186207400Y-68135500D03*
D10*
X163243400Y-118427500D03*
X163243400Y-122927500D03*
X156743400Y-118427500D03*
X156743400Y-122927500D03*
G36*
G01*
X143985401Y-103803500D02*
X143085399Y-103803500D01*
G75*
G02*
X142835400Y-103553501I0J249999D01*
G01*
X142835400Y-103028499D01*
G75*
G02*
X143085399Y-102778500I249999J0D01*
G01*
X143985401Y-102778500D01*
G75*
G02*
X144235400Y-103028499I0J-249999D01*
G01*
X144235400Y-103553501D01*
G75*
G02*
X143985401Y-103803500I-249999J0D01*
G01*
G37*
G36*
G01*
X143985401Y-105628500D02*
X143085399Y-105628500D01*
G75*
G02*
X142835400Y-105378501I0J249999D01*
G01*
X142835400Y-104853499D01*
G75*
G02*
X143085399Y-104603500I249999J0D01*
G01*
X143985401Y-104603500D01*
G75*
G02*
X144235400Y-104853499I0J-249999D01*
G01*
X144235400Y-105378501D01*
G75*
G02*
X143985401Y-105628500I-249999J0D01*
G01*
G37*
G36*
G01*
X110407400Y-93985501D02*
X110407400Y-93085499D01*
G75*
G02*
X110657399Y-92835500I249999J0D01*
G01*
X111182401Y-92835500D01*
G75*
G02*
X111432400Y-93085499I0J-249999D01*
G01*
X111432400Y-93985501D01*
G75*
G02*
X111182401Y-94235500I-249999J0D01*
G01*
X110657399Y-94235500D01*
G75*
G02*
X110407400Y-93985501I0J249999D01*
G01*
G37*
G36*
G01*
X108582400Y-93985501D02*
X108582400Y-93085499D01*
G75*
G02*
X108832399Y-92835500I249999J0D01*
G01*
X109357401Y-92835500D01*
G75*
G02*
X109607400Y-93085499I0J-249999D01*
G01*
X109607400Y-93985501D01*
G75*
G02*
X109357401Y-94235500I-249999J0D01*
G01*
X108832399Y-94235500D01*
G75*
G02*
X108582400Y-93985501I0J249999D01*
G01*
G37*
G36*
G01*
X143985401Y-108375500D02*
X143085399Y-108375500D01*
G75*
G02*
X142835400Y-108125501I0J249999D01*
G01*
X142835400Y-107600499D01*
G75*
G02*
X143085399Y-107350500I249999J0D01*
G01*
X143985401Y-107350500D01*
G75*
G02*
X144235400Y-107600499I0J-249999D01*
G01*
X144235400Y-108125501D01*
G75*
G02*
X143985401Y-108375500I-249999J0D01*
G01*
G37*
G36*
G01*
X143985401Y-110200500D02*
X143085399Y-110200500D01*
G75*
G02*
X142835400Y-109950501I0J249999D01*
G01*
X142835400Y-109425499D01*
G75*
G02*
X143085399Y-109175500I249999J0D01*
G01*
X143985401Y-109175500D01*
G75*
G02*
X144235400Y-109425499I0J-249999D01*
G01*
X144235400Y-109950501D01*
G75*
G02*
X143985401Y-110200500I-249999J0D01*
G01*
G37*
D11*
X185000000Y-120000000D03*
X185000000Y-60000000D03*
X95000000Y-120000000D03*
G36*
G01*
X116512400Y-93079250D02*
X116512400Y-93991750D01*
G75*
G02*
X116268650Y-94235500I-243750J0D01*
G01*
X115781150Y-94235500D01*
G75*
G02*
X115537400Y-93991750I0J243750D01*
G01*
X115537400Y-93079250D01*
G75*
G02*
X115781150Y-92835500I243750J0D01*
G01*
X116268650Y-92835500D01*
G75*
G02*
X116512400Y-93079250I0J-243750D01*
G01*
G37*
G36*
G01*
X114637400Y-93079250D02*
X114637400Y-93991750D01*
G75*
G02*
X114393650Y-94235500I-243750J0D01*
G01*
X113906150Y-94235500D01*
G75*
G02*
X113662400Y-93991750I0J243750D01*
G01*
X113662400Y-93079250D01*
G75*
G02*
X113906150Y-92835500I243750J0D01*
G01*
X114393650Y-92835500D01*
G75*
G02*
X114637400Y-93079250I0J-243750D01*
G01*
G37*
D28*
X133883400Y-100461500D03*
X133883400Y-108961500D03*
G36*
G01*
X162947400Y-99181499D02*
X162947400Y-100081501D01*
G75*
G02*
X162697401Y-100331500I-249999J0D01*
G01*
X162172399Y-100331500D01*
G75*
G02*
X161922400Y-100081501I0J249999D01*
G01*
X161922400Y-99181499D01*
G75*
G02*
X162172399Y-98931500I249999J0D01*
G01*
X162697401Y-98931500D01*
G75*
G02*
X162947400Y-99181499I0J-249999D01*
G01*
G37*
G36*
G01*
X164772400Y-99181499D02*
X164772400Y-100081501D01*
G75*
G02*
X164522401Y-100331500I-249999J0D01*
G01*
X163997399Y-100331500D01*
G75*
G02*
X163747400Y-100081501I0J249999D01*
G01*
X163747400Y-99181499D01*
G75*
G02*
X163997399Y-98931500I249999J0D01*
G01*
X164522401Y-98931500D01*
G75*
G02*
X164772400Y-99181499I0J-249999D01*
G01*
G37*
G36*
G01*
X163747400Y-106177501D02*
X163747400Y-105277499D01*
G75*
G02*
X163997399Y-105027500I249999J0D01*
G01*
X164522401Y-105027500D01*
G75*
G02*
X164772400Y-105277499I0J-249999D01*
G01*
X164772400Y-106177501D01*
G75*
G02*
X164522401Y-106427500I-249999J0D01*
G01*
X163997399Y-106427500D01*
G75*
G02*
X163747400Y-106177501I0J249999D01*
G01*
G37*
G36*
G01*
X161922400Y-106177501D02*
X161922400Y-105277499D01*
G75*
G02*
X162172399Y-105027500I249999J0D01*
G01*
X162697401Y-105027500D01*
G75*
G02*
X162947400Y-105277499I0J-249999D01*
G01*
X162947400Y-106177501D01*
G75*
G02*
X162697401Y-106427500I-249999J0D01*
G01*
X162172399Y-106427500D01*
G75*
G02*
X161922400Y-106177501I0J249999D01*
G01*
G37*
G36*
G01*
X163747400Y-112273501D02*
X163747400Y-111373499D01*
G75*
G02*
X163997399Y-111123500I249999J0D01*
G01*
X164522401Y-111123500D01*
G75*
G02*
X164772400Y-111373499I0J-249999D01*
G01*
X164772400Y-112273501D01*
G75*
G02*
X164522401Y-112523500I-249999J0D01*
G01*
X163997399Y-112523500D01*
G75*
G02*
X163747400Y-112273501I0J249999D01*
G01*
G37*
G36*
G01*
X161922400Y-112273501D02*
X161922400Y-111373499D01*
G75*
G02*
X162172399Y-111123500I249999J0D01*
G01*
X162697401Y-111123500D01*
G75*
G02*
X162947400Y-111373499I0J-249999D01*
G01*
X162947400Y-112273501D01*
G75*
G02*
X162697401Y-112523500I-249999J0D01*
G01*
X162172399Y-112523500D01*
G75*
G02*
X161922400Y-112273501I0J249999D01*
G01*
G37*
G36*
G01*
X167977400Y-99175250D02*
X167977400Y-100087750D01*
G75*
G02*
X167733650Y-100331500I-243750J0D01*
G01*
X167246150Y-100331500D01*
G75*
G02*
X167002400Y-100087750I0J243750D01*
G01*
X167002400Y-99175250D01*
G75*
G02*
X167246150Y-98931500I243750J0D01*
G01*
X167733650Y-98931500D01*
G75*
G02*
X167977400Y-99175250I0J-243750D01*
G01*
G37*
G36*
G01*
X169852400Y-99175250D02*
X169852400Y-100087750D01*
G75*
G02*
X169608650Y-100331500I-243750J0D01*
G01*
X169121150Y-100331500D01*
G75*
G02*
X168877400Y-100087750I0J243750D01*
G01*
X168877400Y-99175250D01*
G75*
G02*
X169121150Y-98931500I243750J0D01*
G01*
X169608650Y-98931500D01*
G75*
G02*
X169852400Y-99175250I0J-243750D01*
G01*
G37*
G36*
G01*
X167977400Y-105271250D02*
X167977400Y-106183750D01*
G75*
G02*
X167733650Y-106427500I-243750J0D01*
G01*
X167246150Y-106427500D01*
G75*
G02*
X167002400Y-106183750I0J243750D01*
G01*
X167002400Y-105271250D01*
G75*
G02*
X167246150Y-105027500I243750J0D01*
G01*
X167733650Y-105027500D01*
G75*
G02*
X167977400Y-105271250I0J-243750D01*
G01*
G37*
G36*
G01*
X169852400Y-105271250D02*
X169852400Y-106183750D01*
G75*
G02*
X169608650Y-106427500I-243750J0D01*
G01*
X169121150Y-106427500D01*
G75*
G02*
X168877400Y-106183750I0J243750D01*
G01*
X168877400Y-105271250D01*
G75*
G02*
X169121150Y-105027500I243750J0D01*
G01*
X169608650Y-105027500D01*
G75*
G02*
X169852400Y-105271250I0J-243750D01*
G01*
G37*
G36*
G01*
X167977400Y-111367250D02*
X167977400Y-112279750D01*
G75*
G02*
X167733650Y-112523500I-243750J0D01*
G01*
X167246150Y-112523500D01*
G75*
G02*
X167002400Y-112279750I0J243750D01*
G01*
X167002400Y-111367250D01*
G75*
G02*
X167246150Y-111123500I243750J0D01*
G01*
X167733650Y-111123500D01*
G75*
G02*
X167977400Y-111367250I0J-243750D01*
G01*
G37*
G36*
G01*
X169852400Y-111367250D02*
X169852400Y-112279750D01*
G75*
G02*
X169608650Y-112523500I-243750J0D01*
G01*
X169121150Y-112523500D01*
G75*
G02*
X168877400Y-112279750I0J243750D01*
G01*
X168877400Y-111367250D01*
G75*
G02*
X169121150Y-111123500I243750J0D01*
G01*
X169608650Y-111123500D01*
G75*
G02*
X169852400Y-111367250I0J-243750D01*
G01*
G37*
G36*
G01*
X142969400Y-99598500D02*
X142969400Y-98648500D01*
G75*
G02*
X143219400Y-98398500I250000J0D01*
G01*
X143719400Y-98398500D01*
G75*
G02*
X143969400Y-98648500I0J-250000D01*
G01*
X143969400Y-99598500D01*
G75*
G02*
X143719400Y-99848500I-250000J0D01*
G01*
X143219400Y-99848500D01*
G75*
G02*
X142969400Y-99598500I0J250000D01*
G01*
G37*
G36*
G01*
X141069400Y-99598500D02*
X141069400Y-98648500D01*
G75*
G02*
X141319400Y-98398500I250000J0D01*
G01*
X141819400Y-98398500D01*
G75*
G02*
X142069400Y-98648500I0J-250000D01*
G01*
X142069400Y-99598500D01*
G75*
G02*
X141819400Y-99848500I-250000J0D01*
G01*
X141319400Y-99848500D01*
G75*
G02*
X141069400Y-99598500I0J250000D01*
G01*
G37*
G36*
G01*
X142969400Y-114330500D02*
X142969400Y-113380500D01*
G75*
G02*
X143219400Y-113130500I250000J0D01*
G01*
X143719400Y-113130500D01*
G75*
G02*
X143969400Y-113380500I0J-250000D01*
G01*
X143969400Y-114330500D01*
G75*
G02*
X143719400Y-114580500I-250000J0D01*
G01*
X143219400Y-114580500D01*
G75*
G02*
X142969400Y-114330500I0J250000D01*
G01*
G37*
G36*
G01*
X141069400Y-114330500D02*
X141069400Y-113380500D01*
G75*
G02*
X141319400Y-113130500I250000J0D01*
G01*
X141819400Y-113130500D01*
G75*
G02*
X142069400Y-113380500I0J-250000D01*
G01*
X142069400Y-114330500D01*
G75*
G02*
X141819400Y-114580500I-250000J0D01*
G01*
X141319400Y-114580500D01*
G75*
G02*
X141069400Y-114330500I0J250000D01*
G01*
G37*
M02*
