G04 #@! TF.GenerationSoftware,KiCad,Pcbnew,(5.1.9-0-10_14)*
G04 #@! TF.CreationDate,2022-08-09T16:59:01-07:00*
G04 #@! TF.ProjectId,telemetry-pcb,74656c65-6d65-4747-9279-2d7063622e6b,rev?*
G04 #@! TF.SameCoordinates,Original*
G04 #@! TF.FileFunction,Legend,Top*
G04 #@! TF.FilePolarity,Positive*
%FSLAX46Y46*%
G04 Gerber Fmt 4.6, Leading zero omitted, Abs format (unit mm)*
G04 Created by KiCad (PCBNEW (5.1.9-0-10_14)) date 2022-08-09 16:59:01*
%MOMM*%
%LPD*%
G01*
G04 APERTURE LIST*
%ADD10C,0.300000*%
%ADD11C,0.150000*%
%ADD12C,0.010000*%
%ADD13C,0.120000*%
%ADD14C,0.101600*%
%ADD15C,0.400000*%
G04 APERTURE END LIST*
D10*
X96864161Y-78724261D02*
X98007019Y-78724261D01*
X97435590Y-80724261D02*
X97435590Y-78724261D01*
X99435590Y-80629023D02*
X99245114Y-80724261D01*
X98864161Y-80724261D01*
X98673685Y-80629023D01*
X98578447Y-80438547D01*
X98578447Y-79676642D01*
X98673685Y-79486166D01*
X98864161Y-79390928D01*
X99245114Y-79390928D01*
X99435590Y-79486166D01*
X99530828Y-79676642D01*
X99530828Y-79867119D01*
X98578447Y-80057595D01*
X100673685Y-80724261D02*
X100483209Y-80629023D01*
X100387971Y-80438547D01*
X100387971Y-78724261D01*
X102197495Y-80629023D02*
X102007019Y-80724261D01*
X101626066Y-80724261D01*
X101435590Y-80629023D01*
X101340352Y-80438547D01*
X101340352Y-79676642D01*
X101435590Y-79486166D01*
X101626066Y-79390928D01*
X102007019Y-79390928D01*
X102197495Y-79486166D01*
X102292733Y-79676642D01*
X102292733Y-79867119D01*
X101340352Y-80057595D01*
X103149876Y-80724261D02*
X103149876Y-79390928D01*
X103149876Y-79581404D02*
X103245114Y-79486166D01*
X103435590Y-79390928D01*
X103721304Y-79390928D01*
X103911780Y-79486166D01*
X104007019Y-79676642D01*
X104007019Y-80724261D01*
X104007019Y-79676642D02*
X104102257Y-79486166D01*
X104292733Y-79390928D01*
X104578447Y-79390928D01*
X104768923Y-79486166D01*
X104864161Y-79676642D01*
X104864161Y-80724261D01*
X106578447Y-80629023D02*
X106387971Y-80724261D01*
X106007019Y-80724261D01*
X105816542Y-80629023D01*
X105721304Y-80438547D01*
X105721304Y-79676642D01*
X105816542Y-79486166D01*
X106007019Y-79390928D01*
X106387971Y-79390928D01*
X106578447Y-79486166D01*
X106673685Y-79676642D01*
X106673685Y-79867119D01*
X105721304Y-80057595D01*
X107245114Y-79390928D02*
X108007019Y-79390928D01*
X107530828Y-78724261D02*
X107530828Y-80438547D01*
X107626066Y-80629023D01*
X107816542Y-80724261D01*
X108007019Y-80724261D01*
X108673685Y-80724261D02*
X108673685Y-79390928D01*
X108673685Y-79771880D02*
X108768923Y-79581404D01*
X108864161Y-79486166D01*
X109054638Y-79390928D01*
X109245114Y-79390928D01*
X109721304Y-79390928D02*
X110197495Y-80724261D01*
X110673685Y-79390928D02*
X110197495Y-80724261D01*
X110007019Y-81200452D01*
X109911780Y-81295690D01*
X109721304Y-81390928D01*
X112864161Y-78914738D02*
X112959400Y-78819500D01*
X113149876Y-78724261D01*
X113626066Y-78724261D01*
X113816542Y-78819500D01*
X113911780Y-78914738D01*
X114007019Y-79105214D01*
X114007019Y-79295690D01*
X113911780Y-79581404D01*
X112768923Y-80724261D01*
X114007019Y-80724261D01*
X114864161Y-80533785D02*
X114959400Y-80629023D01*
X114864161Y-80724261D01*
X114768923Y-80629023D01*
X114864161Y-80533785D01*
X114864161Y-80724261D01*
X116197495Y-78724261D02*
X116387971Y-78724261D01*
X116578447Y-78819500D01*
X116673685Y-78914738D01*
X116768923Y-79105214D01*
X116864161Y-79486166D01*
X116864161Y-79962357D01*
X116768923Y-80343309D01*
X116673685Y-80533785D01*
X116578447Y-80629023D01*
X116387971Y-80724261D01*
X116197495Y-80724261D01*
X116007019Y-80629023D01*
X115911780Y-80533785D01*
X115816542Y-80343309D01*
X115721304Y-79962357D01*
X115721304Y-79486166D01*
X115816542Y-79105214D01*
X115911780Y-78914738D01*
X116007019Y-78819500D01*
X116197495Y-78724261D01*
D11*
X97085685Y-82526166D02*
X97561876Y-82526166D01*
X96990447Y-82811880D02*
X97323780Y-81811880D01*
X97657114Y-82811880D01*
X98419019Y-82145214D02*
X98419019Y-82811880D01*
X97990447Y-82145214D02*
X97990447Y-82669023D01*
X98038066Y-82764261D01*
X98133304Y-82811880D01*
X98276161Y-82811880D01*
X98371400Y-82764261D01*
X98419019Y-82716642D01*
X99323780Y-82145214D02*
X99323780Y-82954738D01*
X99276161Y-83049976D01*
X99228542Y-83097595D01*
X99133304Y-83145214D01*
X98990447Y-83145214D01*
X98895209Y-83097595D01*
X99323780Y-82764261D02*
X99228542Y-82811880D01*
X99038066Y-82811880D01*
X98942828Y-82764261D01*
X98895209Y-82716642D01*
X98847590Y-82621404D01*
X98847590Y-82335690D01*
X98895209Y-82240452D01*
X98942828Y-82192833D01*
X99038066Y-82145214D01*
X99228542Y-82145214D01*
X99323780Y-82192833D01*
X100609495Y-82811880D02*
X100799971Y-82811880D01*
X100895209Y-82764261D01*
X100942828Y-82716642D01*
X101038066Y-82573785D01*
X101085685Y-82383309D01*
X101085685Y-82002357D01*
X101038066Y-81907119D01*
X100990447Y-81859500D01*
X100895209Y-81811880D01*
X100704733Y-81811880D01*
X100609495Y-81859500D01*
X100561876Y-81907119D01*
X100514257Y-82002357D01*
X100514257Y-82240452D01*
X100561876Y-82335690D01*
X100609495Y-82383309D01*
X100704733Y-82430928D01*
X100895209Y-82430928D01*
X100990447Y-82383309D01*
X101038066Y-82335690D01*
X101085685Y-82240452D01*
X102228542Y-81907119D02*
X102276161Y-81859500D01*
X102371400Y-81811880D01*
X102609495Y-81811880D01*
X102704733Y-81859500D01*
X102752352Y-81907119D01*
X102799971Y-82002357D01*
X102799971Y-82097595D01*
X102752352Y-82240452D01*
X102180923Y-82811880D01*
X102799971Y-82811880D01*
X103419019Y-81811880D02*
X103514257Y-81811880D01*
X103609495Y-81859500D01*
X103657114Y-81907119D01*
X103704733Y-82002357D01*
X103752352Y-82192833D01*
X103752352Y-82430928D01*
X103704733Y-82621404D01*
X103657114Y-82716642D01*
X103609495Y-82764261D01*
X103514257Y-82811880D01*
X103419019Y-82811880D01*
X103323780Y-82764261D01*
X103276161Y-82716642D01*
X103228542Y-82621404D01*
X103180923Y-82430928D01*
X103180923Y-82192833D01*
X103228542Y-82002357D01*
X103276161Y-81907119D01*
X103323780Y-81859500D01*
X103419019Y-81811880D01*
X104133304Y-81907119D02*
X104180923Y-81859500D01*
X104276161Y-81811880D01*
X104514257Y-81811880D01*
X104609495Y-81859500D01*
X104657114Y-81907119D01*
X104704733Y-82002357D01*
X104704733Y-82097595D01*
X104657114Y-82240452D01*
X104085685Y-82811880D01*
X104704733Y-82811880D01*
X105085685Y-81907119D02*
X105133304Y-81859500D01*
X105228542Y-81811880D01*
X105466638Y-81811880D01*
X105561876Y-81859500D01*
X105609495Y-81907119D01*
X105657114Y-82002357D01*
X105657114Y-82097595D01*
X105609495Y-82240452D01*
X105038066Y-82811880D01*
X105657114Y-82811880D01*
X106355233Y-85178261D02*
X106498090Y-85225880D01*
X106736185Y-85225880D01*
X106831423Y-85178261D01*
X106879042Y-85130642D01*
X106926661Y-85035404D01*
X106926661Y-84940166D01*
X106879042Y-84844928D01*
X106831423Y-84797309D01*
X106736185Y-84749690D01*
X106545709Y-84702071D01*
X106450471Y-84654452D01*
X106402852Y-84606833D01*
X106355233Y-84511595D01*
X106355233Y-84416357D01*
X106402852Y-84321119D01*
X106450471Y-84273500D01*
X106545709Y-84225880D01*
X106783804Y-84225880D01*
X106926661Y-84273500D01*
X107355233Y-85225880D02*
X107355233Y-84559214D01*
X107355233Y-84225880D02*
X107307614Y-84273500D01*
X107355233Y-84321119D01*
X107402852Y-84273500D01*
X107355233Y-84225880D01*
X107355233Y-84321119D01*
X107974280Y-85225880D02*
X107879042Y-85178261D01*
X107831423Y-85083023D01*
X107831423Y-84225880D01*
X108259995Y-84559214D02*
X108498090Y-85225880D01*
X108736185Y-84559214D01*
X109117138Y-85225880D02*
X109117138Y-84559214D01*
X109117138Y-84225880D02*
X109069519Y-84273500D01*
X109117138Y-84321119D01*
X109164757Y-84273500D01*
X109117138Y-84225880D01*
X109117138Y-84321119D01*
X110021899Y-84559214D02*
X110021899Y-85225880D01*
X109593328Y-84559214D02*
X109593328Y-85083023D01*
X109640947Y-85178261D01*
X109736185Y-85225880D01*
X109879042Y-85225880D01*
X109974280Y-85178261D01*
X110021899Y-85130642D01*
X111117138Y-84225880D02*
X111688566Y-84225880D01*
X111402852Y-85225880D02*
X111402852Y-84225880D01*
X112164757Y-85225880D02*
X112069519Y-85178261D01*
X112021899Y-85130642D01*
X111974280Y-85035404D01*
X111974280Y-84749690D01*
X112021899Y-84654452D01*
X112069519Y-84606833D01*
X112164757Y-84559214D01*
X112307614Y-84559214D01*
X112402852Y-84606833D01*
X112450471Y-84654452D01*
X112498090Y-84749690D01*
X112498090Y-85035404D01*
X112450471Y-85130642D01*
X112402852Y-85178261D01*
X112307614Y-85225880D01*
X112164757Y-85225880D01*
X113355233Y-85225880D02*
X113355233Y-84225880D01*
X113355233Y-85178261D02*
X113259995Y-85225880D01*
X113069519Y-85225880D01*
X112974280Y-85178261D01*
X112926661Y-85130642D01*
X112879042Y-85035404D01*
X112879042Y-84749690D01*
X112926661Y-84654452D01*
X112974280Y-84606833D01*
X113069519Y-84559214D01*
X113259995Y-84559214D01*
X113355233Y-84606833D01*
X114212376Y-85178261D02*
X114117138Y-85225880D01*
X113926661Y-85225880D01*
X113831423Y-85178261D01*
X113783804Y-85083023D01*
X113783804Y-84702071D01*
X113831423Y-84606833D01*
X113926661Y-84559214D01*
X114117138Y-84559214D01*
X114212376Y-84606833D01*
X114259995Y-84702071D01*
X114259995Y-84797309D01*
X113783804Y-84892547D01*
X114688566Y-85225880D02*
X114688566Y-84559214D01*
X114688566Y-84749690D02*
X114736185Y-84654452D01*
X114783804Y-84606833D01*
X114879042Y-84559214D01*
X114974280Y-84559214D01*
X115307614Y-85225880D02*
X115307614Y-84559214D01*
X115307614Y-84225880D02*
X115259995Y-84273500D01*
X115307614Y-84321119D01*
X115355233Y-84273500D01*
X115307614Y-84225880D01*
X115307614Y-84321119D01*
X115640947Y-84559214D02*
X116021899Y-84559214D01*
X115783804Y-84225880D02*
X115783804Y-85083023D01*
X115831423Y-85178261D01*
X115926661Y-85225880D01*
X116021899Y-85225880D01*
X116783804Y-85225880D02*
X116783804Y-84702071D01*
X116736185Y-84606833D01*
X116640947Y-84559214D01*
X116450471Y-84559214D01*
X116355233Y-84606833D01*
X116783804Y-85178261D02*
X116688566Y-85225880D01*
X116450471Y-85225880D01*
X116355233Y-85178261D01*
X116307614Y-85083023D01*
X116307614Y-84987785D01*
X116355233Y-84892547D01*
X116450471Y-84844928D01*
X116688566Y-84844928D01*
X116783804Y-84797309D01*
X105402852Y-85875880D02*
X105736185Y-86875880D01*
X106069519Y-85875880D01*
X106831423Y-86875880D02*
X106831423Y-86352071D01*
X106783804Y-86256833D01*
X106688566Y-86209214D01*
X106498090Y-86209214D01*
X106402852Y-86256833D01*
X106831423Y-86828261D02*
X106736185Y-86875880D01*
X106498090Y-86875880D01*
X106402852Y-86828261D01*
X106355233Y-86733023D01*
X106355233Y-86637785D01*
X106402852Y-86542547D01*
X106498090Y-86494928D01*
X106736185Y-86494928D01*
X106831423Y-86447309D01*
X107450471Y-86875880D02*
X107355233Y-86828261D01*
X107307614Y-86733023D01*
X107307614Y-85875880D01*
X108212376Y-86828261D02*
X108117138Y-86875880D01*
X107926661Y-86875880D01*
X107831423Y-86828261D01*
X107783804Y-86733023D01*
X107783804Y-86352071D01*
X107831423Y-86256833D01*
X107926661Y-86209214D01*
X108117138Y-86209214D01*
X108212376Y-86256833D01*
X108259995Y-86352071D01*
X108259995Y-86447309D01*
X107783804Y-86542547D01*
X108688566Y-86209214D02*
X108688566Y-86875880D01*
X108688566Y-86304452D02*
X108736185Y-86256833D01*
X108831423Y-86209214D01*
X108974280Y-86209214D01*
X109069519Y-86256833D01*
X109117138Y-86352071D01*
X109117138Y-86875880D01*
X109450471Y-86209214D02*
X109831423Y-86209214D01*
X109593328Y-85875880D02*
X109593328Y-86733023D01*
X109640947Y-86828261D01*
X109736185Y-86875880D01*
X109831423Y-86875880D01*
X110164757Y-86875880D02*
X110164757Y-86209214D01*
X110164757Y-85875880D02*
X110117138Y-85923500D01*
X110164757Y-85971119D01*
X110212376Y-85923500D01*
X110164757Y-85875880D01*
X110164757Y-85971119D01*
X110640947Y-86209214D02*
X110640947Y-86875880D01*
X110640947Y-86304452D02*
X110688566Y-86256833D01*
X110783804Y-86209214D01*
X110926661Y-86209214D01*
X111021900Y-86256833D01*
X111069519Y-86352071D01*
X111069519Y-86875880D01*
X111688566Y-86875880D02*
X111593328Y-86828261D01*
X111545709Y-86780642D01*
X111498090Y-86685404D01*
X111498090Y-86399690D01*
X111545709Y-86304452D01*
X111593328Y-86256833D01*
X111688566Y-86209214D01*
X111831423Y-86209214D01*
X111926661Y-86256833D01*
X111974280Y-86304452D01*
X112021900Y-86399690D01*
X112021900Y-86685404D01*
X111974280Y-86780642D01*
X111926661Y-86828261D01*
X111831423Y-86875880D01*
X111688566Y-86875880D01*
X113498090Y-85875880D02*
X113498090Y-86590166D01*
X113450471Y-86733023D01*
X113355233Y-86828261D01*
X113212376Y-86875880D01*
X113117138Y-86875880D01*
X114402852Y-86875880D02*
X114402852Y-86352071D01*
X114355233Y-86256833D01*
X114259995Y-86209214D01*
X114069519Y-86209214D01*
X113974280Y-86256833D01*
X114402852Y-86828261D02*
X114307614Y-86875880D01*
X114069519Y-86875880D01*
X113974280Y-86828261D01*
X113926661Y-86733023D01*
X113926661Y-86637785D01*
X113974280Y-86542547D01*
X114069519Y-86494928D01*
X114307614Y-86494928D01*
X114402852Y-86447309D01*
X114879042Y-86875880D02*
X114879042Y-85875880D01*
X114879042Y-86256833D02*
X114974280Y-86209214D01*
X115164757Y-86209214D01*
X115259995Y-86256833D01*
X115307614Y-86304452D01*
X115355233Y-86399690D01*
X115355233Y-86685404D01*
X115307614Y-86780642D01*
X115259995Y-86828261D01*
X115164757Y-86875880D01*
X114974280Y-86875880D01*
X114879042Y-86828261D01*
X116164757Y-86828261D02*
X116069519Y-86875880D01*
X115879042Y-86875880D01*
X115783804Y-86828261D01*
X115736185Y-86733023D01*
X115736185Y-86352071D01*
X115783804Y-86256833D01*
X115879042Y-86209214D01*
X116069519Y-86209214D01*
X116164757Y-86256833D01*
X116212376Y-86352071D01*
X116212376Y-86447309D01*
X115736185Y-86542547D01*
X116640947Y-86875880D02*
X116640947Y-86209214D01*
X116640947Y-86399690D02*
X116688566Y-86304452D01*
X116736185Y-86256833D01*
X116831423Y-86209214D01*
X116926661Y-86209214D01*
X107974280Y-88430642D02*
X107926661Y-88478261D01*
X107783804Y-88525880D01*
X107688566Y-88525880D01*
X107545709Y-88478261D01*
X107450471Y-88383023D01*
X107402852Y-88287785D01*
X107355233Y-88097309D01*
X107355233Y-87954452D01*
X107402852Y-87763976D01*
X107450471Y-87668738D01*
X107545709Y-87573500D01*
X107688566Y-87525880D01*
X107783804Y-87525880D01*
X107926661Y-87573500D01*
X107974280Y-87621119D01*
X108545709Y-88525880D02*
X108450471Y-88478261D01*
X108402852Y-88430642D01*
X108355233Y-88335404D01*
X108355233Y-88049690D01*
X108402852Y-87954452D01*
X108450471Y-87906833D01*
X108545709Y-87859214D01*
X108688566Y-87859214D01*
X108783804Y-87906833D01*
X108831423Y-87954452D01*
X108879042Y-88049690D01*
X108879042Y-88335404D01*
X108831423Y-88430642D01*
X108783804Y-88478261D01*
X108688566Y-88525880D01*
X108545709Y-88525880D01*
X109450471Y-88525880D02*
X109355233Y-88478261D01*
X109307614Y-88383023D01*
X109307614Y-87525880D01*
X109831423Y-88525880D02*
X109831423Y-87525880D01*
X109831423Y-87906833D02*
X109926661Y-87859214D01*
X110117138Y-87859214D01*
X110212376Y-87906833D01*
X110259995Y-87954452D01*
X110307614Y-88049690D01*
X110307614Y-88335404D01*
X110259995Y-88430642D01*
X110212376Y-88478261D01*
X110117138Y-88525880D01*
X109926661Y-88525880D01*
X109831423Y-88478261D01*
X110640947Y-87859214D02*
X110879042Y-88525880D01*
X111117138Y-87859214D02*
X110879042Y-88525880D01*
X110783804Y-88763976D01*
X110736185Y-88811595D01*
X110640947Y-88859214D01*
X112212376Y-88478261D02*
X112355233Y-88525880D01*
X112593328Y-88525880D01*
X112688566Y-88478261D01*
X112736185Y-88430642D01*
X112783804Y-88335404D01*
X112783804Y-88240166D01*
X112736185Y-88144928D01*
X112688566Y-88097309D01*
X112593328Y-88049690D01*
X112402852Y-88002071D01*
X112307614Y-87954452D01*
X112259995Y-87906833D01*
X112212376Y-87811595D01*
X112212376Y-87716357D01*
X112259995Y-87621119D01*
X112307614Y-87573500D01*
X112402852Y-87525880D01*
X112640947Y-87525880D01*
X112783804Y-87573500D01*
X113212376Y-87859214D02*
X113212376Y-88859214D01*
X113212376Y-87906833D02*
X113307614Y-87859214D01*
X113498090Y-87859214D01*
X113593328Y-87906833D01*
X113640947Y-87954452D01*
X113688566Y-88049690D01*
X113688566Y-88335404D01*
X113640947Y-88430642D01*
X113593328Y-88478261D01*
X113498090Y-88525880D01*
X113307614Y-88525880D01*
X113212376Y-88478261D01*
X114545709Y-88525880D02*
X114545709Y-88002071D01*
X114498090Y-87906833D01*
X114402852Y-87859214D01*
X114212376Y-87859214D01*
X114117138Y-87906833D01*
X114545709Y-88478261D02*
X114450471Y-88525880D01*
X114212376Y-88525880D01*
X114117138Y-88478261D01*
X114069519Y-88383023D01*
X114069519Y-88287785D01*
X114117138Y-88192547D01*
X114212376Y-88144928D01*
X114450471Y-88144928D01*
X114545709Y-88097309D01*
X115021899Y-88525880D02*
X115021899Y-87859214D01*
X115021899Y-88049690D02*
X115069519Y-87954452D01*
X115117138Y-87906833D01*
X115212376Y-87859214D01*
X115307614Y-87859214D01*
X115640947Y-88525880D02*
X115640947Y-87525880D01*
X115736185Y-88144928D02*
X116021900Y-88525880D01*
X116021900Y-87859214D02*
X115640947Y-88240166D01*
X116402852Y-88478261D02*
X116498090Y-88525880D01*
X116688566Y-88525880D01*
X116783804Y-88478261D01*
X116831423Y-88383023D01*
X116831423Y-88335404D01*
X116783804Y-88240166D01*
X116688566Y-88192547D01*
X116545709Y-88192547D01*
X116450471Y-88144928D01*
X116402852Y-88049690D01*
X116402852Y-88002071D01*
X116450471Y-87906833D01*
X116545709Y-87859214D01*
X116688566Y-87859214D01*
X116783804Y-87906833D01*
D12*
G36*
X161062442Y-77409226D02*
G01*
X161017722Y-77633685D01*
X160939664Y-77818467D01*
X160861864Y-77931299D01*
X160765158Y-78021486D01*
X160638340Y-78104116D01*
X160503942Y-78167131D01*
X160384494Y-78198469D01*
X160359989Y-78199939D01*
X160322794Y-78198802D01*
X160295745Y-78187836D01*
X160272948Y-78156206D01*
X160248511Y-78093080D01*
X160216544Y-77987624D01*
X160185441Y-77879000D01*
X160191155Y-77842826D01*
X160241416Y-77818829D01*
X160303483Y-77806404D01*
X160441324Y-77754990D01*
X160566965Y-77655150D01*
X160665105Y-77521883D01*
X160712403Y-77405561D01*
X160741548Y-77230168D01*
X160744137Y-77037197D01*
X160722613Y-76844737D01*
X160679421Y-76670879D01*
X160617005Y-76533715D01*
X160589501Y-76495854D01*
X160449053Y-76367140D01*
X160295729Y-76289466D01*
X160139571Y-76262522D01*
X159990619Y-76285997D01*
X159858915Y-76359581D01*
X159754500Y-76482962D01*
X159733458Y-76522335D01*
X159700585Y-76606421D01*
X159659326Y-76735471D01*
X159614786Y-76892398D01*
X159572069Y-77060115D01*
X159569125Y-77072466D01*
X159505978Y-77313782D01*
X159442147Y-77501756D01*
X159373019Y-77646425D01*
X159293980Y-77757826D01*
X159221330Y-77829050D01*
X159058730Y-77925684D01*
X158866321Y-77972175D01*
X158653474Y-77968352D01*
X158429559Y-77914044D01*
X158272172Y-77846368D01*
X158068366Y-77711012D01*
X157908361Y-77534227D01*
X157791095Y-77313976D01*
X157715508Y-77048220D01*
X157680538Y-76734923D01*
X157679472Y-76708000D01*
X157678997Y-76550799D01*
X157686854Y-76394337D01*
X157701456Y-76265280D01*
X157707815Y-76231750D01*
X157768567Y-76024685D01*
X157853095Y-75861136D01*
X157971577Y-75722592D01*
X158004065Y-75692877D01*
X158165771Y-75582195D01*
X158311008Y-75531373D01*
X158443635Y-75506580D01*
X158530035Y-75508127D01*
X158584202Y-75542216D01*
X158620131Y-75615046D01*
X158637785Y-75676162D01*
X158661314Y-75770032D01*
X158676495Y-75836531D01*
X158679538Y-75854558D01*
X158651563Y-75869352D01*
X158579883Y-75884527D01*
X158533648Y-75890754D01*
X158371171Y-75934004D01*
X158237214Y-76027770D01*
X158148670Y-76135684D01*
X158076104Y-76270560D01*
X158032826Y-76426228D01*
X158014726Y-76619684D01*
X158013578Y-76694299D01*
X158034190Y-76958641D01*
X158096926Y-77176264D01*
X158202448Y-77348546D01*
X158351421Y-77476866D01*
X158405035Y-77507175D01*
X158549705Y-77558365D01*
X158705150Y-77577017D01*
X158848950Y-77562480D01*
X158946308Y-77522872D01*
X159017218Y-77451330D01*
X159089502Y-77337365D01*
X159152798Y-77200958D01*
X159196747Y-77062094D01*
X159204174Y-77025500D01*
X159271559Y-76698553D01*
X159351440Y-76431060D01*
X159446067Y-76219807D01*
X159557692Y-76061578D01*
X159688566Y-75953160D01*
X159840942Y-75891337D01*
X160011514Y-75872848D01*
X160270183Y-75902804D01*
X160502290Y-75987967D01*
X160702373Y-76125542D01*
X160861048Y-76306957D01*
X160963358Y-76487997D01*
X161030716Y-76686258D01*
X161066947Y-76916503D01*
X161076105Y-77136625D01*
X161062442Y-77409226D01*
G37*
X161062442Y-77409226D02*
X161017722Y-77633685D01*
X160939664Y-77818467D01*
X160861864Y-77931299D01*
X160765158Y-78021486D01*
X160638340Y-78104116D01*
X160503942Y-78167131D01*
X160384494Y-78198469D01*
X160359989Y-78199939D01*
X160322794Y-78198802D01*
X160295745Y-78187836D01*
X160272948Y-78156206D01*
X160248511Y-78093080D01*
X160216544Y-77987624D01*
X160185441Y-77879000D01*
X160191155Y-77842826D01*
X160241416Y-77818829D01*
X160303483Y-77806404D01*
X160441324Y-77754990D01*
X160566965Y-77655150D01*
X160665105Y-77521883D01*
X160712403Y-77405561D01*
X160741548Y-77230168D01*
X160744137Y-77037197D01*
X160722613Y-76844737D01*
X160679421Y-76670879D01*
X160617005Y-76533715D01*
X160589501Y-76495854D01*
X160449053Y-76367140D01*
X160295729Y-76289466D01*
X160139571Y-76262522D01*
X159990619Y-76285997D01*
X159858915Y-76359581D01*
X159754500Y-76482962D01*
X159733458Y-76522335D01*
X159700585Y-76606421D01*
X159659326Y-76735471D01*
X159614786Y-76892398D01*
X159572069Y-77060115D01*
X159569125Y-77072466D01*
X159505978Y-77313782D01*
X159442147Y-77501756D01*
X159373019Y-77646425D01*
X159293980Y-77757826D01*
X159221330Y-77829050D01*
X159058730Y-77925684D01*
X158866321Y-77972175D01*
X158653474Y-77968352D01*
X158429559Y-77914044D01*
X158272172Y-77846368D01*
X158068366Y-77711012D01*
X157908361Y-77534227D01*
X157791095Y-77313976D01*
X157715508Y-77048220D01*
X157680538Y-76734923D01*
X157679472Y-76708000D01*
X157678997Y-76550799D01*
X157686854Y-76394337D01*
X157701456Y-76265280D01*
X157707815Y-76231750D01*
X157768567Y-76024685D01*
X157853095Y-75861136D01*
X157971577Y-75722592D01*
X158004065Y-75692877D01*
X158165771Y-75582195D01*
X158311008Y-75531373D01*
X158443635Y-75506580D01*
X158530035Y-75508127D01*
X158584202Y-75542216D01*
X158620131Y-75615046D01*
X158637785Y-75676162D01*
X158661314Y-75770032D01*
X158676495Y-75836531D01*
X158679538Y-75854558D01*
X158651563Y-75869352D01*
X158579883Y-75884527D01*
X158533648Y-75890754D01*
X158371171Y-75934004D01*
X158237214Y-76027770D01*
X158148670Y-76135684D01*
X158076104Y-76270560D01*
X158032826Y-76426228D01*
X158014726Y-76619684D01*
X158013578Y-76694299D01*
X158034190Y-76958641D01*
X158096926Y-77176264D01*
X158202448Y-77348546D01*
X158351421Y-77476866D01*
X158405035Y-77507175D01*
X158549705Y-77558365D01*
X158705150Y-77577017D01*
X158848950Y-77562480D01*
X158946308Y-77522872D01*
X159017218Y-77451330D01*
X159089502Y-77337365D01*
X159152798Y-77200958D01*
X159196747Y-77062094D01*
X159204174Y-77025500D01*
X159271559Y-76698553D01*
X159351440Y-76431060D01*
X159446067Y-76219807D01*
X159557692Y-76061578D01*
X159688566Y-75953160D01*
X159840942Y-75891337D01*
X160011514Y-75872848D01*
X160270183Y-75902804D01*
X160502290Y-75987967D01*
X160702373Y-76125542D01*
X160861048Y-76306957D01*
X160963358Y-76487997D01*
X161030716Y-76686258D01*
X161066947Y-76916503D01*
X161076105Y-77136625D01*
X161062442Y-77409226D01*
G36*
X160799463Y-79227753D02*
G01*
X160667606Y-79202728D01*
X160544532Y-79180270D01*
X160458150Y-79165452D01*
X160395008Y-79154922D01*
X160280011Y-79135271D01*
X160123851Y-79108346D01*
X159937219Y-79075993D01*
X159730808Y-79040057D01*
X159634609Y-79023260D01*
X159419106Y-78986838D01*
X159214969Y-78954635D01*
X159033785Y-78928303D01*
X158887140Y-78909490D01*
X158786621Y-78899847D01*
X158761484Y-78898927D01*
X158532338Y-78921706D01*
X158347337Y-78989837D01*
X158205980Y-79103842D01*
X158107769Y-79264242D01*
X158052202Y-79471560D01*
X158038271Y-79653375D01*
X158056777Y-79927469D01*
X158122252Y-80160366D01*
X158237295Y-80355837D01*
X158404505Y-80517647D01*
X158626481Y-80649566D01*
X158765876Y-80708149D01*
X158881176Y-80747450D01*
X158990030Y-80778379D01*
X159037302Y-80788636D01*
X159100197Y-80799544D01*
X159214005Y-80819489D01*
X159367113Y-80846427D01*
X159547909Y-80878316D01*
X159744779Y-80913111D01*
X159759650Y-80915742D01*
X159956568Y-80950554D01*
X160137626Y-80982502D01*
X160291390Y-81009575D01*
X160406426Y-81029758D01*
X160471300Y-81041040D01*
X160474025Y-81041506D01*
X160556105Y-81055951D01*
X160672669Y-81077025D01*
X160775650Y-81095949D01*
X160884452Y-81114567D01*
X160967633Y-81125958D01*
X161005838Y-81127715D01*
X161018357Y-81152958D01*
X161026982Y-81225110D01*
X161029650Y-81311750D01*
X161024176Y-81430820D01*
X161007153Y-81491614D01*
X160989963Y-81501939D01*
X160938696Y-81496057D01*
X160834306Y-81479875D01*
X160686025Y-81455085D01*
X160503087Y-81423377D01*
X160294727Y-81386443D01*
X160070177Y-81345973D01*
X159838672Y-81303659D01*
X159609446Y-81261191D01*
X159391731Y-81220261D01*
X159194762Y-81182558D01*
X159027773Y-81149775D01*
X158899997Y-81123602D01*
X158820667Y-81105731D01*
X158808281Y-81102412D01*
X158543428Y-81000900D01*
X158299198Y-80859891D01*
X158087253Y-80688284D01*
X157919255Y-80494978D01*
X157839897Y-80363411D01*
X157735748Y-80089744D01*
X157680051Y-79790179D01*
X157674860Y-79482166D01*
X157708133Y-79242866D01*
X157786023Y-79010413D01*
X157911006Y-78820243D01*
X158083948Y-78671109D01*
X158119238Y-78649118D01*
X158214365Y-78596116D01*
X158296803Y-78562268D01*
X158387772Y-78542113D01*
X158508496Y-78530188D01*
X158602276Y-78524801D01*
X158691194Y-78521688D01*
X158780202Y-78522322D01*
X158877477Y-78527725D01*
X158991201Y-78538921D01*
X159129551Y-78556934D01*
X159300708Y-78582785D01*
X159512849Y-78617500D01*
X159774156Y-78662101D01*
X159965494Y-78695350D01*
X161029650Y-78881064D01*
X161029650Y-79272372D01*
X160799463Y-79227753D01*
G37*
X160799463Y-79227753D02*
X160667606Y-79202728D01*
X160544532Y-79180270D01*
X160458150Y-79165452D01*
X160395008Y-79154922D01*
X160280011Y-79135271D01*
X160123851Y-79108346D01*
X159937219Y-79075993D01*
X159730808Y-79040057D01*
X159634609Y-79023260D01*
X159419106Y-78986838D01*
X159214969Y-78954635D01*
X159033785Y-78928303D01*
X158887140Y-78909490D01*
X158786621Y-78899847D01*
X158761484Y-78898927D01*
X158532338Y-78921706D01*
X158347337Y-78989837D01*
X158205980Y-79103842D01*
X158107769Y-79264242D01*
X158052202Y-79471560D01*
X158038271Y-79653375D01*
X158056777Y-79927469D01*
X158122252Y-80160366D01*
X158237295Y-80355837D01*
X158404505Y-80517647D01*
X158626481Y-80649566D01*
X158765876Y-80708149D01*
X158881176Y-80747450D01*
X158990030Y-80778379D01*
X159037302Y-80788636D01*
X159100197Y-80799544D01*
X159214005Y-80819489D01*
X159367113Y-80846427D01*
X159547909Y-80878316D01*
X159744779Y-80913111D01*
X159759650Y-80915742D01*
X159956568Y-80950554D01*
X160137626Y-80982502D01*
X160291390Y-81009575D01*
X160406426Y-81029758D01*
X160471300Y-81041040D01*
X160474025Y-81041506D01*
X160556105Y-81055951D01*
X160672669Y-81077025D01*
X160775650Y-81095949D01*
X160884452Y-81114567D01*
X160967633Y-81125958D01*
X161005838Y-81127715D01*
X161018357Y-81152958D01*
X161026982Y-81225110D01*
X161029650Y-81311750D01*
X161024176Y-81430820D01*
X161007153Y-81491614D01*
X160989963Y-81501939D01*
X160938696Y-81496057D01*
X160834306Y-81479875D01*
X160686025Y-81455085D01*
X160503087Y-81423377D01*
X160294727Y-81386443D01*
X160070177Y-81345973D01*
X159838672Y-81303659D01*
X159609446Y-81261191D01*
X159391731Y-81220261D01*
X159194762Y-81182558D01*
X159027773Y-81149775D01*
X158899997Y-81123602D01*
X158820667Y-81105731D01*
X158808281Y-81102412D01*
X158543428Y-81000900D01*
X158299198Y-80859891D01*
X158087253Y-80688284D01*
X157919255Y-80494978D01*
X157839897Y-80363411D01*
X157735748Y-80089744D01*
X157680051Y-79790179D01*
X157674860Y-79482166D01*
X157708133Y-79242866D01*
X157786023Y-79010413D01*
X157911006Y-78820243D01*
X158083948Y-78671109D01*
X158119238Y-78649118D01*
X158214365Y-78596116D01*
X158296803Y-78562268D01*
X158387772Y-78542113D01*
X158508496Y-78530188D01*
X158602276Y-78524801D01*
X158691194Y-78521688D01*
X158780202Y-78522322D01*
X158877477Y-78527725D01*
X158991201Y-78538921D01*
X159129551Y-78556934D01*
X159300708Y-78582785D01*
X159512849Y-78617500D01*
X159774156Y-78662101D01*
X159965494Y-78695350D01*
X161029650Y-78881064D01*
X161029650Y-79272372D01*
X160799463Y-79227753D01*
G36*
X161064270Y-106057778D02*
G01*
X160991732Y-106336244D01*
X160875559Y-106575690D01*
X160730136Y-106766445D01*
X160640226Y-106851603D01*
X160532298Y-106934141D01*
X160420333Y-107005708D01*
X160318311Y-107057955D01*
X160240214Y-107082532D01*
X160207191Y-107078753D01*
X160185046Y-107040716D01*
X160157606Y-106963312D01*
X160131495Y-106869547D01*
X160113335Y-106782426D01*
X160108900Y-106737323D01*
X160134817Y-106700016D01*
X160201175Y-106649753D01*
X160254993Y-106618263D01*
X160428809Y-106491067D01*
X160566079Y-106316886D01*
X160663034Y-106103121D01*
X160715903Y-105857176D01*
X160724895Y-105695750D01*
X160697954Y-105379129D01*
X160616301Y-105093423D01*
X160478334Y-104834737D01*
X160282449Y-104599174D01*
X160267602Y-104584500D01*
X160021169Y-104386776D01*
X159740671Y-104242312D01*
X159435909Y-104152701D01*
X159133648Y-104115161D01*
X158864205Y-104131855D01*
X158627106Y-104202939D01*
X158421879Y-104328573D01*
X158248050Y-104508916D01*
X158208240Y-104564342D01*
X158105454Y-104769801D01*
X158047716Y-105007578D01*
X158033884Y-105266419D01*
X158062815Y-105535069D01*
X158133366Y-105802273D01*
X158244393Y-106056778D01*
X158381491Y-106270275D01*
X158453785Y-106357152D01*
X158530893Y-106438233D01*
X158601666Y-106503385D01*
X158654954Y-106542474D01*
X158679608Y-106545367D01*
X158680150Y-106541723D01*
X158708577Y-106540633D01*
X158783069Y-106550052D01*
X158886525Y-106567765D01*
X159092900Y-106606547D01*
X159092900Y-105628359D01*
X159243713Y-105649889D01*
X159337564Y-105666954D01*
X159403769Y-105685705D01*
X159418999Y-105693771D01*
X159425980Y-105730917D01*
X159431346Y-105821721D01*
X159434868Y-105956359D01*
X159436312Y-106125002D01*
X159435446Y-106317826D01*
X159434874Y-106366175D01*
X159426275Y-107016228D01*
X158584900Y-106865745D01*
X158362398Y-106825937D01*
X158161391Y-106789952D01*
X157990046Y-106759254D01*
X157856531Y-106735307D01*
X157769010Y-106719574D01*
X157735651Y-106713519D01*
X157735588Y-106713505D01*
X157731054Y-106683856D01*
X157728180Y-106609999D01*
X157727650Y-106553000D01*
X157729304Y-106467085D01*
X157742686Y-106417676D01*
X157780428Y-106398484D01*
X157855164Y-106403221D01*
X157979526Y-106425597D01*
X157982456Y-106426152D01*
X158078119Y-106441688D01*
X158144833Y-106447638D01*
X158163586Y-106445147D01*
X158152705Y-106415428D01*
X158111461Y-106351002D01*
X158058207Y-106278307D01*
X157886999Y-106006431D01*
X157763383Y-105704414D01*
X157690572Y-105385544D01*
X157671775Y-105063111D01*
X157700392Y-104797591D01*
X157783385Y-104525175D01*
X157918895Y-104281901D01*
X158100468Y-104074401D01*
X158321646Y-103909306D01*
X158575976Y-103793248D01*
X158715052Y-103755358D01*
X158903932Y-103733405D01*
X159128627Y-103736580D01*
X159367442Y-103763088D01*
X159598682Y-103811130D01*
X159682765Y-103835518D01*
X159998139Y-103967085D01*
X160282009Y-104147576D01*
X160530139Y-104370179D01*
X160738296Y-104628083D01*
X160902246Y-104914477D01*
X161017754Y-105222549D01*
X161080585Y-105545488D01*
X161086506Y-105876483D01*
X161064270Y-106057778D01*
G37*
X161064270Y-106057778D02*
X160991732Y-106336244D01*
X160875559Y-106575690D01*
X160730136Y-106766445D01*
X160640226Y-106851603D01*
X160532298Y-106934141D01*
X160420333Y-107005708D01*
X160318311Y-107057955D01*
X160240214Y-107082532D01*
X160207191Y-107078753D01*
X160185046Y-107040716D01*
X160157606Y-106963312D01*
X160131495Y-106869547D01*
X160113335Y-106782426D01*
X160108900Y-106737323D01*
X160134817Y-106700016D01*
X160201175Y-106649753D01*
X160254993Y-106618263D01*
X160428809Y-106491067D01*
X160566079Y-106316886D01*
X160663034Y-106103121D01*
X160715903Y-105857176D01*
X160724895Y-105695750D01*
X160697954Y-105379129D01*
X160616301Y-105093423D01*
X160478334Y-104834737D01*
X160282449Y-104599174D01*
X160267602Y-104584500D01*
X160021169Y-104386776D01*
X159740671Y-104242312D01*
X159435909Y-104152701D01*
X159133648Y-104115161D01*
X158864205Y-104131855D01*
X158627106Y-104202939D01*
X158421879Y-104328573D01*
X158248050Y-104508916D01*
X158208240Y-104564342D01*
X158105454Y-104769801D01*
X158047716Y-105007578D01*
X158033884Y-105266419D01*
X158062815Y-105535069D01*
X158133366Y-105802273D01*
X158244393Y-106056778D01*
X158381491Y-106270275D01*
X158453785Y-106357152D01*
X158530893Y-106438233D01*
X158601666Y-106503385D01*
X158654954Y-106542474D01*
X158679608Y-106545367D01*
X158680150Y-106541723D01*
X158708577Y-106540633D01*
X158783069Y-106550052D01*
X158886525Y-106567765D01*
X159092900Y-106606547D01*
X159092900Y-105628359D01*
X159243713Y-105649889D01*
X159337564Y-105666954D01*
X159403769Y-105685705D01*
X159418999Y-105693771D01*
X159425980Y-105730917D01*
X159431346Y-105821721D01*
X159434868Y-105956359D01*
X159436312Y-106125002D01*
X159435446Y-106317826D01*
X159434874Y-106366175D01*
X159426275Y-107016228D01*
X158584900Y-106865745D01*
X158362398Y-106825937D01*
X158161391Y-106789952D01*
X157990046Y-106759254D01*
X157856531Y-106735307D01*
X157769010Y-106719574D01*
X157735651Y-106713519D01*
X157735588Y-106713505D01*
X157731054Y-106683856D01*
X157728180Y-106609999D01*
X157727650Y-106553000D01*
X157729304Y-106467085D01*
X157742686Y-106417676D01*
X157780428Y-106398484D01*
X157855164Y-106403221D01*
X157979526Y-106425597D01*
X157982456Y-106426152D01*
X158078119Y-106441688D01*
X158144833Y-106447638D01*
X158163586Y-106445147D01*
X158152705Y-106415428D01*
X158111461Y-106351002D01*
X158058207Y-106278307D01*
X157886999Y-106006431D01*
X157763383Y-105704414D01*
X157690572Y-105385544D01*
X157671775Y-105063111D01*
X157700392Y-104797591D01*
X157783385Y-104525175D01*
X157918895Y-104281901D01*
X158100468Y-104074401D01*
X158321646Y-103909306D01*
X158575976Y-103793248D01*
X158715052Y-103755358D01*
X158903932Y-103733405D01*
X159128627Y-103736580D01*
X159367442Y-103763088D01*
X159598682Y-103811130D01*
X159682765Y-103835518D01*
X159998139Y-103967085D01*
X160282009Y-104147576D01*
X160530139Y-104370179D01*
X160738296Y-104628083D01*
X160902246Y-104914477D01*
X161017754Y-105222549D01*
X161080585Y-105545488D01*
X161086506Y-105876483D01*
X161064270Y-106057778D01*
G36*
X161022791Y-82892692D02*
G01*
X161017856Y-83124933D01*
X161012320Y-83303875D01*
X161005201Y-83439718D01*
X160995517Y-83542661D01*
X160982287Y-83622906D01*
X160964528Y-83690651D01*
X160941258Y-83756096D01*
X160939154Y-83761474D01*
X160831278Y-83961110D01*
X160685978Y-84110155D01*
X160506070Y-84207142D01*
X160294369Y-84250603D01*
X160053691Y-84239070D01*
X160030341Y-84235221D01*
X159751366Y-84158602D01*
X159513217Y-84033416D01*
X159316710Y-83860407D01*
X159162661Y-83640320D01*
X159051886Y-83373897D01*
X159039790Y-83332631D01*
X159022186Y-83241796D01*
X159005001Y-83103836D01*
X158989861Y-82935115D01*
X158978391Y-82751996D01*
X158975445Y-82684937D01*
X158967700Y-82517765D01*
X158958629Y-82375577D01*
X158949125Y-82269250D01*
X158940081Y-82209663D01*
X158935716Y-82200750D01*
X158897749Y-82195257D01*
X158810932Y-82180366D01*
X158688815Y-82158454D01*
X158567212Y-82136055D01*
X158411354Y-82107571D01*
X158265165Y-82081803D01*
X158148045Y-82062119D01*
X158092775Y-82053631D01*
X157941168Y-82032018D01*
X157841141Y-82012713D01*
X157781544Y-81988159D01*
X157751229Y-81950802D01*
X157739044Y-81893086D01*
X157734004Y-81810519D01*
X157731792Y-81704810D01*
X157741200Y-81648929D01*
X157765020Y-81629817D01*
X157772780Y-81629250D01*
X157811340Y-81634585D01*
X157905110Y-81649741D01*
X158046780Y-81673441D01*
X158229037Y-81704406D01*
X158444569Y-81741360D01*
X158686064Y-81783026D01*
X158946211Y-81828126D01*
X159217697Y-81875384D01*
X159309460Y-81891416D01*
X159309460Y-82264699D01*
X159320702Y-82748662D01*
X159326256Y-82942458D01*
X159333677Y-83085815D01*
X159344672Y-83191789D01*
X159360945Y-83273441D01*
X159384202Y-83343829D01*
X159404624Y-83391375D01*
X159515153Y-83577750D01*
X159655853Y-83714240D01*
X159831931Y-83803673D01*
X160048593Y-83848874D01*
X160258608Y-83854966D01*
X160370246Y-83823123D01*
X160481340Y-83743581D01*
X160575946Y-83630248D01*
X160624924Y-83535474D01*
X160646798Y-83462401D01*
X160661126Y-83367431D01*
X160668831Y-83238715D01*
X160670836Y-83064405D01*
X160669991Y-82956698D01*
X160664525Y-82506566D01*
X160077150Y-82403288D01*
X159885492Y-82369495D01*
X159710024Y-82338380D01*
X159562486Y-82312041D01*
X159454618Y-82292571D01*
X159399618Y-82282354D01*
X159309460Y-82264699D01*
X159309460Y-81891416D01*
X159493211Y-81923522D01*
X159765441Y-81971263D01*
X160027074Y-82017331D01*
X160270799Y-82060447D01*
X160489305Y-82099336D01*
X160675278Y-82132719D01*
X160821408Y-82159319D01*
X160920383Y-82177860D01*
X160961302Y-82186172D01*
X161035829Y-82203510D01*
X161022791Y-82892692D01*
G37*
X161022791Y-82892692D02*
X161017856Y-83124933D01*
X161012320Y-83303875D01*
X161005201Y-83439718D01*
X160995517Y-83542661D01*
X160982287Y-83622906D01*
X160964528Y-83690651D01*
X160941258Y-83756096D01*
X160939154Y-83761474D01*
X160831278Y-83961110D01*
X160685978Y-84110155D01*
X160506070Y-84207142D01*
X160294369Y-84250603D01*
X160053691Y-84239070D01*
X160030341Y-84235221D01*
X159751366Y-84158602D01*
X159513217Y-84033416D01*
X159316710Y-83860407D01*
X159162661Y-83640320D01*
X159051886Y-83373897D01*
X159039790Y-83332631D01*
X159022186Y-83241796D01*
X159005001Y-83103836D01*
X158989861Y-82935115D01*
X158978391Y-82751996D01*
X158975445Y-82684937D01*
X158967700Y-82517765D01*
X158958629Y-82375577D01*
X158949125Y-82269250D01*
X158940081Y-82209663D01*
X158935716Y-82200750D01*
X158897749Y-82195257D01*
X158810932Y-82180366D01*
X158688815Y-82158454D01*
X158567212Y-82136055D01*
X158411354Y-82107571D01*
X158265165Y-82081803D01*
X158148045Y-82062119D01*
X158092775Y-82053631D01*
X157941168Y-82032018D01*
X157841141Y-82012713D01*
X157781544Y-81988159D01*
X157751229Y-81950802D01*
X157739044Y-81893086D01*
X157734004Y-81810519D01*
X157731792Y-81704810D01*
X157741200Y-81648929D01*
X157765020Y-81629817D01*
X157772780Y-81629250D01*
X157811340Y-81634585D01*
X157905110Y-81649741D01*
X158046780Y-81673441D01*
X158229037Y-81704406D01*
X158444569Y-81741360D01*
X158686064Y-81783026D01*
X158946211Y-81828126D01*
X159217697Y-81875384D01*
X159309460Y-81891416D01*
X159309460Y-82264699D01*
X159320702Y-82748662D01*
X159326256Y-82942458D01*
X159333677Y-83085815D01*
X159344672Y-83191789D01*
X159360945Y-83273441D01*
X159384202Y-83343829D01*
X159404624Y-83391375D01*
X159515153Y-83577750D01*
X159655853Y-83714240D01*
X159831931Y-83803673D01*
X160048593Y-83848874D01*
X160258608Y-83854966D01*
X160370246Y-83823123D01*
X160481340Y-83743581D01*
X160575946Y-83630248D01*
X160624924Y-83535474D01*
X160646798Y-83462401D01*
X160661126Y-83367431D01*
X160668831Y-83238715D01*
X160670836Y-83064405D01*
X160669991Y-82956698D01*
X160664525Y-82506566D01*
X160077150Y-82403288D01*
X159885492Y-82369495D01*
X159710024Y-82338380D01*
X159562486Y-82312041D01*
X159454618Y-82292571D01*
X159399618Y-82282354D01*
X159309460Y-82264699D01*
X159309460Y-81891416D01*
X159493211Y-81923522D01*
X159765441Y-81971263D01*
X160027074Y-82017331D01*
X160270799Y-82060447D01*
X160489305Y-82099336D01*
X160675278Y-82132719D01*
X160821408Y-82159319D01*
X160920383Y-82177860D01*
X160961302Y-82186172D01*
X161035829Y-82203510D01*
X161022791Y-82892692D01*
G36*
X161028857Y-86750164D02*
G01*
X161024853Y-86891883D01*
X161016863Y-86993872D01*
X161003617Y-87062072D01*
X160983844Y-87102424D01*
X160956275Y-87120867D01*
X160919639Y-87123342D01*
X160872667Y-87115789D01*
X160814089Y-87104148D01*
X160799936Y-87101698D01*
X160681347Y-87082095D01*
X160672936Y-86159370D01*
X160664525Y-85236646D01*
X160251775Y-85164653D01*
X160087436Y-85135940D01*
X159936956Y-85109561D01*
X159816038Y-85088273D01*
X159740382Y-85074835D01*
X159735838Y-85074016D01*
X159632650Y-85055372D01*
X159632650Y-86489877D01*
X159513588Y-86469791D01*
X159439523Y-86458542D01*
X159383206Y-86447737D01*
X159342227Y-86429411D01*
X159314174Y-86395594D01*
X159296636Y-86338320D01*
X159287201Y-86249621D01*
X159283457Y-86121529D01*
X159282994Y-85946077D01*
X159283400Y-85715297D01*
X159283400Y-84999252D01*
X159116713Y-84966393D01*
X159031374Y-84950131D01*
X158909811Y-84927681D01*
X158765557Y-84901460D01*
X158612149Y-84873885D01*
X158463121Y-84847374D01*
X158332009Y-84824342D01*
X158232347Y-84807207D01*
X158177671Y-84798386D01*
X158172150Y-84797727D01*
X158144685Y-84797946D01*
X158123079Y-84806954D01*
X158106631Y-84831503D01*
X158094637Y-84878345D01*
X158086396Y-84954233D01*
X158081204Y-85065920D01*
X158078359Y-85220159D01*
X158077159Y-85423701D01*
X158076902Y-85683300D01*
X158076900Y-85713279D01*
X158076900Y-86622308D01*
X157957838Y-86602628D01*
X157864026Y-86589395D01*
X157790188Y-86582762D01*
X157783213Y-86582599D01*
X157768440Y-86579035D01*
X157756535Y-86564449D01*
X157747191Y-86532695D01*
X157740100Y-86477628D01*
X157734956Y-86393100D01*
X157731450Y-86272964D01*
X157729276Y-86111076D01*
X157728126Y-85901287D01*
X157727694Y-85637452D01*
X157727650Y-85471000D01*
X157727948Y-85172120D01*
X157729007Y-84930849D01*
X157731073Y-84741296D01*
X157734395Y-84597572D01*
X157739221Y-84493786D01*
X157745798Y-84424051D01*
X157754373Y-84382474D01*
X157765194Y-84363168D01*
X157774365Y-84359750D01*
X157812579Y-84365082D01*
X157906006Y-84380229D01*
X158047336Y-84403913D01*
X158229256Y-84434857D01*
X158444457Y-84471783D01*
X158685627Y-84513416D01*
X158945456Y-84558477D01*
X159216632Y-84605690D01*
X159491845Y-84653778D01*
X159763783Y-84701463D01*
X160025137Y-84747469D01*
X160268594Y-84790519D01*
X160486844Y-84829335D01*
X160672576Y-84862641D01*
X160818480Y-84889159D01*
X160917243Y-84907612D01*
X160958213Y-84915896D01*
X161029650Y-84932459D01*
X161029650Y-86027229D01*
X161029986Y-86323778D01*
X161030145Y-86562776D01*
X161028857Y-86750164D01*
G37*
X161028857Y-86750164D02*
X161024853Y-86891883D01*
X161016863Y-86993872D01*
X161003617Y-87062072D01*
X160983844Y-87102424D01*
X160956275Y-87120867D01*
X160919639Y-87123342D01*
X160872667Y-87115789D01*
X160814089Y-87104148D01*
X160799936Y-87101698D01*
X160681347Y-87082095D01*
X160672936Y-86159370D01*
X160664525Y-85236646D01*
X160251775Y-85164653D01*
X160087436Y-85135940D01*
X159936956Y-85109561D01*
X159816038Y-85088273D01*
X159740382Y-85074835D01*
X159735838Y-85074016D01*
X159632650Y-85055372D01*
X159632650Y-86489877D01*
X159513588Y-86469791D01*
X159439523Y-86458542D01*
X159383206Y-86447737D01*
X159342227Y-86429411D01*
X159314174Y-86395594D01*
X159296636Y-86338320D01*
X159287201Y-86249621D01*
X159283457Y-86121529D01*
X159282994Y-85946077D01*
X159283400Y-85715297D01*
X159283400Y-84999252D01*
X159116713Y-84966393D01*
X159031374Y-84950131D01*
X158909811Y-84927681D01*
X158765557Y-84901460D01*
X158612149Y-84873885D01*
X158463121Y-84847374D01*
X158332009Y-84824342D01*
X158232347Y-84807207D01*
X158177671Y-84798386D01*
X158172150Y-84797727D01*
X158144685Y-84797946D01*
X158123079Y-84806954D01*
X158106631Y-84831503D01*
X158094637Y-84878345D01*
X158086396Y-84954233D01*
X158081204Y-85065920D01*
X158078359Y-85220159D01*
X158077159Y-85423701D01*
X158076902Y-85683300D01*
X158076900Y-85713279D01*
X158076900Y-86622308D01*
X157957838Y-86602628D01*
X157864026Y-86589395D01*
X157790188Y-86582762D01*
X157783213Y-86582599D01*
X157768440Y-86579035D01*
X157756535Y-86564449D01*
X157747191Y-86532695D01*
X157740100Y-86477628D01*
X157734956Y-86393100D01*
X157731450Y-86272964D01*
X157729276Y-86111076D01*
X157728126Y-85901287D01*
X157727694Y-85637452D01*
X157727650Y-85471000D01*
X157727948Y-85172120D01*
X157729007Y-84930849D01*
X157731073Y-84741296D01*
X157734395Y-84597572D01*
X157739221Y-84493786D01*
X157745798Y-84424051D01*
X157754373Y-84382474D01*
X157765194Y-84363168D01*
X157774365Y-84359750D01*
X157812579Y-84365082D01*
X157906006Y-84380229D01*
X158047336Y-84403913D01*
X158229256Y-84434857D01*
X158444457Y-84471783D01*
X158685627Y-84513416D01*
X158945456Y-84558477D01*
X159216632Y-84605690D01*
X159491845Y-84653778D01*
X159763783Y-84701463D01*
X160025137Y-84747469D01*
X160268594Y-84790519D01*
X160486844Y-84829335D01*
X160672576Y-84862641D01*
X160818480Y-84889159D01*
X160917243Y-84907612D01*
X160958213Y-84915896D01*
X161029650Y-84932459D01*
X161029650Y-86027229D01*
X161029986Y-86323778D01*
X161030145Y-86562776D01*
X161028857Y-86750164D01*
G36*
X161022791Y-88448942D02*
G01*
X161017856Y-88681183D01*
X161012320Y-88860125D01*
X161005201Y-88995968D01*
X160995517Y-89098911D01*
X160982287Y-89179156D01*
X160964528Y-89246901D01*
X160941258Y-89312346D01*
X160939154Y-89317724D01*
X160851923Y-89479455D01*
X160730956Y-89622567D01*
X160591693Y-89731654D01*
X160469412Y-89786412D01*
X160231716Y-89820889D01*
X159992107Y-89798255D01*
X159761508Y-89723590D01*
X159550842Y-89601973D01*
X159371028Y-89438482D01*
X159232990Y-89238198D01*
X159215640Y-89203351D01*
X159168833Y-89096441D01*
X159135998Y-89006224D01*
X159124676Y-88955562D01*
X159113370Y-88908393D01*
X159100800Y-88900000D01*
X159065891Y-88911767D01*
X158981022Y-88944767D01*
X158854734Y-88995545D01*
X158695574Y-89060645D01*
X158512083Y-89136614D01*
X158402300Y-89182442D01*
X157727650Y-89464885D01*
X157727650Y-89006973D01*
X158339168Y-88762986D01*
X158524776Y-88689660D01*
X158691556Y-88625153D01*
X158830107Y-88572988D01*
X158931028Y-88536691D01*
X158984917Y-88519784D01*
X158990043Y-88519000D01*
X159008053Y-88500507D01*
X159020121Y-88440369D01*
X159026984Y-88331590D01*
X159029378Y-88167178D01*
X159029400Y-88145423D01*
X159029400Y-87771847D01*
X158608713Y-87697841D01*
X158442105Y-87668817D01*
X158288502Y-87642573D01*
X158163696Y-87621773D01*
X158083476Y-87609081D01*
X158076900Y-87608131D01*
X157929435Y-87586719D01*
X157833264Y-87567128D01*
X157776955Y-87541308D01*
X157749075Y-87501213D01*
X157738190Y-87438794D01*
X157734004Y-87366769D01*
X157731792Y-87261060D01*
X157741200Y-87205179D01*
X157765020Y-87186067D01*
X157772780Y-87185500D01*
X157811340Y-87190835D01*
X157905110Y-87205991D01*
X158046780Y-87229691D01*
X158229037Y-87260656D01*
X158444569Y-87297610D01*
X158686064Y-87339276D01*
X158946211Y-87384376D01*
X159217697Y-87431634D01*
X159346900Y-87454208D01*
X159346900Y-87829970D01*
X159347677Y-88261797D01*
X159350389Y-88435396D01*
X159357240Y-88599242D01*
X159367233Y-88736137D01*
X159379371Y-88828883D01*
X159380986Y-88836500D01*
X159457483Y-89040897D01*
X159582635Y-89206361D01*
X159751876Y-89328603D01*
X159960643Y-89403331D01*
X159990340Y-89409312D01*
X160185934Y-89424934D01*
X160346382Y-89390958D01*
X160478351Y-89305576D01*
X160516026Y-89266679D01*
X160584820Y-89165731D01*
X160633217Y-89038067D01*
X160662969Y-88874571D01*
X160675825Y-88666123D01*
X160674612Y-88440495D01*
X160664525Y-88060366D01*
X160426400Y-88020344D01*
X160300227Y-87998783D01*
X160133403Y-87969779D01*
X159947773Y-87937150D01*
X159767588Y-87905147D01*
X159346900Y-87829970D01*
X159346900Y-87454208D01*
X159493211Y-87479772D01*
X159765441Y-87527513D01*
X160027074Y-87573581D01*
X160270799Y-87616697D01*
X160489305Y-87655586D01*
X160675278Y-87688969D01*
X160821408Y-87715569D01*
X160920383Y-87734110D01*
X160961302Y-87742422D01*
X161035829Y-87759760D01*
X161022791Y-88448942D01*
G37*
X161022791Y-88448942D02*
X161017856Y-88681183D01*
X161012320Y-88860125D01*
X161005201Y-88995968D01*
X160995517Y-89098911D01*
X160982287Y-89179156D01*
X160964528Y-89246901D01*
X160941258Y-89312346D01*
X160939154Y-89317724D01*
X160851923Y-89479455D01*
X160730956Y-89622567D01*
X160591693Y-89731654D01*
X160469412Y-89786412D01*
X160231716Y-89820889D01*
X159992107Y-89798255D01*
X159761508Y-89723590D01*
X159550842Y-89601973D01*
X159371028Y-89438482D01*
X159232990Y-89238198D01*
X159215640Y-89203351D01*
X159168833Y-89096441D01*
X159135998Y-89006224D01*
X159124676Y-88955562D01*
X159113370Y-88908393D01*
X159100800Y-88900000D01*
X159065891Y-88911767D01*
X158981022Y-88944767D01*
X158854734Y-88995545D01*
X158695574Y-89060645D01*
X158512083Y-89136614D01*
X158402300Y-89182442D01*
X157727650Y-89464885D01*
X157727650Y-89006973D01*
X158339168Y-88762986D01*
X158524776Y-88689660D01*
X158691556Y-88625153D01*
X158830107Y-88572988D01*
X158931028Y-88536691D01*
X158984917Y-88519784D01*
X158990043Y-88519000D01*
X159008053Y-88500507D01*
X159020121Y-88440369D01*
X159026984Y-88331590D01*
X159029378Y-88167178D01*
X159029400Y-88145423D01*
X159029400Y-87771847D01*
X158608713Y-87697841D01*
X158442105Y-87668817D01*
X158288502Y-87642573D01*
X158163696Y-87621773D01*
X158083476Y-87609081D01*
X158076900Y-87608131D01*
X157929435Y-87586719D01*
X157833264Y-87567128D01*
X157776955Y-87541308D01*
X157749075Y-87501213D01*
X157738190Y-87438794D01*
X157734004Y-87366769D01*
X157731792Y-87261060D01*
X157741200Y-87205179D01*
X157765020Y-87186067D01*
X157772780Y-87185500D01*
X157811340Y-87190835D01*
X157905110Y-87205991D01*
X158046780Y-87229691D01*
X158229037Y-87260656D01*
X158444569Y-87297610D01*
X158686064Y-87339276D01*
X158946211Y-87384376D01*
X159217697Y-87431634D01*
X159346900Y-87454208D01*
X159346900Y-87829970D01*
X159347677Y-88261797D01*
X159350389Y-88435396D01*
X159357240Y-88599242D01*
X159367233Y-88736137D01*
X159379371Y-88828883D01*
X159380986Y-88836500D01*
X159457483Y-89040897D01*
X159582635Y-89206361D01*
X159751876Y-89328603D01*
X159960643Y-89403331D01*
X159990340Y-89409312D01*
X160185934Y-89424934D01*
X160346382Y-89390958D01*
X160478351Y-89305576D01*
X160516026Y-89266679D01*
X160584820Y-89165731D01*
X160633217Y-89038067D01*
X160662969Y-88874571D01*
X160675825Y-88666123D01*
X160674612Y-88440495D01*
X160664525Y-88060366D01*
X160426400Y-88020344D01*
X160300227Y-87998783D01*
X160133403Y-87969779D01*
X159947773Y-87937150D01*
X159767588Y-87905147D01*
X159346900Y-87829970D01*
X159346900Y-87454208D01*
X159493211Y-87479772D01*
X159765441Y-87527513D01*
X160027074Y-87573581D01*
X160270799Y-87616697D01*
X160489305Y-87655586D01*
X160675278Y-87688969D01*
X160821408Y-87715569D01*
X160920383Y-87734110D01*
X160961302Y-87742422D01*
X161035829Y-87759760D01*
X161022791Y-88448942D01*
G36*
X161029361Y-90979625D02*
G01*
X160370693Y-91228698D01*
X160172831Y-91303718D01*
X159989891Y-91373454D01*
X159832030Y-91434004D01*
X159709402Y-91481468D01*
X159632166Y-91511945D01*
X159616775Y-91518283D01*
X159539842Y-91549485D01*
X159426779Y-91593572D01*
X159301018Y-91641417D01*
X159291338Y-91645048D01*
X159182461Y-91688931D01*
X159101382Y-91727491D01*
X159062577Y-91753680D01*
X159061150Y-91757083D01*
X159085214Y-91785069D01*
X159150594Y-91841705D01*
X159247071Y-91918536D01*
X159354838Y-92000033D01*
X159475216Y-92089411D01*
X159578727Y-92166938D01*
X159653477Y-92223665D01*
X159686042Y-92249288D01*
X159721120Y-92276167D01*
X159800187Y-92335009D01*
X159915898Y-92420404D01*
X160060905Y-92526940D01*
X160227862Y-92649207D01*
X160376286Y-92757625D01*
X160410525Y-92782606D01*
X160410525Y-93122750D01*
X160394650Y-93138625D01*
X160410525Y-93154500D01*
X160426400Y-93138625D01*
X160410525Y-93122750D01*
X160410525Y-92782606D01*
X161029013Y-93233875D01*
X161029332Y-93434452D01*
X161027450Y-93543513D01*
X161018837Y-93601848D01*
X160999698Y-93622163D01*
X160974088Y-93619530D01*
X160932740Y-93611174D01*
X160834972Y-93593025D01*
X160686923Y-93566176D01*
X160494731Y-93531724D01*
X160264536Y-93490763D01*
X160002477Y-93444389D01*
X159714693Y-93393695D01*
X159407323Y-93339778D01*
X159323088Y-93325041D01*
X157727650Y-93046050D01*
X157727650Y-92862150D01*
X157733171Y-92746601D01*
X157750538Y-92688183D01*
X157768251Y-92678250D01*
X157809162Y-92683616D01*
X157902921Y-92698584D01*
X158039891Y-92721458D01*
X158210433Y-92750545D01*
X158404910Y-92784149D01*
X158613682Y-92820575D01*
X158827113Y-92858127D01*
X159035563Y-92895111D01*
X159229395Y-92929832D01*
X159398970Y-92960594D01*
X159534651Y-92985703D01*
X159626798Y-93003464D01*
X159664400Y-93011721D01*
X159725543Y-93025512D01*
X159816762Y-93041615D01*
X159839025Y-93045059D01*
X159960731Y-93065911D01*
X160084800Y-93090825D01*
X160093025Y-93092655D01*
X160218586Y-93115940D01*
X160286518Y-93115364D01*
X160297216Y-93089454D01*
X160251075Y-93036737D01*
X160148488Y-92955739D01*
X160132713Y-92944272D01*
X160062339Y-92893101D01*
X159949558Y-92810675D01*
X159803093Y-92703390D01*
X159631672Y-92577642D01*
X159444018Y-92439826D01*
X159259588Y-92304233D01*
X159051355Y-92150871D01*
X158888679Y-92030018D01*
X158765936Y-91936595D01*
X158677502Y-91865522D01*
X158617753Y-91811719D01*
X158581068Y-91770109D01*
X158561821Y-91735610D01*
X158554390Y-91703145D01*
X158553151Y-91667632D01*
X158553150Y-91666150D01*
X158553150Y-91547720D01*
X158910338Y-91411810D01*
X159059919Y-91354423D01*
X159196381Y-91301222D01*
X159303798Y-91258465D01*
X159362775Y-91233957D01*
X159425983Y-91208225D01*
X159535476Y-91165786D01*
X159677896Y-91111738D01*
X159839889Y-91051173D01*
X159909368Y-91025455D01*
X160064641Y-90966419D01*
X160194968Y-90913540D01*
X160290463Y-90871100D01*
X160341238Y-90843380D01*
X160346643Y-90836131D01*
X160309655Y-90819369D01*
X160230303Y-90801270D01*
X160169384Y-90791721D01*
X160095891Y-90780613D01*
X159969610Y-90760023D01*
X159800271Y-90731602D01*
X159597605Y-90697000D01*
X159371339Y-90657867D01*
X159131203Y-90615854D01*
X159097109Y-90609850D01*
X158859111Y-90568034D01*
X158636616Y-90529189D01*
X158438704Y-90494881D01*
X158274451Y-90466676D01*
X158152936Y-90446138D01*
X158083237Y-90434834D01*
X158076900Y-90433901D01*
X157929436Y-90412467D01*
X157833266Y-90392871D01*
X157776957Y-90367066D01*
X157749077Y-90327005D01*
X157738194Y-90264639D01*
X157734004Y-90192519D01*
X157731792Y-90086810D01*
X157741200Y-90030929D01*
X157765020Y-90011817D01*
X157772780Y-90011250D01*
X157811191Y-90016582D01*
X157904813Y-90031727D01*
X158046334Y-90055408D01*
X158228440Y-90086349D01*
X158443819Y-90123273D01*
X158685159Y-90164903D01*
X158945145Y-90209963D01*
X159216467Y-90257175D01*
X159491810Y-90305263D01*
X159763862Y-90352950D01*
X160025310Y-90398959D01*
X160268841Y-90442014D01*
X160410525Y-90467211D01*
X160410525Y-90836750D01*
X160394650Y-90852625D01*
X160410525Y-90868500D01*
X160426400Y-90852625D01*
X160410525Y-90836750D01*
X160410525Y-90467211D01*
X160487144Y-90480838D01*
X160672903Y-90514154D01*
X160818808Y-90540685D01*
X160917545Y-90559155D01*
X160958213Y-90567396D01*
X160997583Y-90582690D01*
X161019075Y-90615907D01*
X161027951Y-90682871D01*
X161029506Y-90781792D01*
X161029361Y-90979625D01*
G37*
X161029361Y-90979625D02*
X160370693Y-91228698D01*
X160172831Y-91303718D01*
X159989891Y-91373454D01*
X159832030Y-91434004D01*
X159709402Y-91481468D01*
X159632166Y-91511945D01*
X159616775Y-91518283D01*
X159539842Y-91549485D01*
X159426779Y-91593572D01*
X159301018Y-91641417D01*
X159291338Y-91645048D01*
X159182461Y-91688931D01*
X159101382Y-91727491D01*
X159062577Y-91753680D01*
X159061150Y-91757083D01*
X159085214Y-91785069D01*
X159150594Y-91841705D01*
X159247071Y-91918536D01*
X159354838Y-92000033D01*
X159475216Y-92089411D01*
X159578727Y-92166938D01*
X159653477Y-92223665D01*
X159686042Y-92249288D01*
X159721120Y-92276167D01*
X159800187Y-92335009D01*
X159915898Y-92420404D01*
X160060905Y-92526940D01*
X160227862Y-92649207D01*
X160376286Y-92757625D01*
X160410525Y-92782606D01*
X160410525Y-93122750D01*
X160394650Y-93138625D01*
X160410525Y-93154500D01*
X160426400Y-93138625D01*
X160410525Y-93122750D01*
X160410525Y-92782606D01*
X161029013Y-93233875D01*
X161029332Y-93434452D01*
X161027450Y-93543513D01*
X161018837Y-93601848D01*
X160999698Y-93622163D01*
X160974088Y-93619530D01*
X160932740Y-93611174D01*
X160834972Y-93593025D01*
X160686923Y-93566176D01*
X160494731Y-93531724D01*
X160264536Y-93490763D01*
X160002477Y-93444389D01*
X159714693Y-93393695D01*
X159407323Y-93339778D01*
X159323088Y-93325041D01*
X157727650Y-93046050D01*
X157727650Y-92862150D01*
X157733171Y-92746601D01*
X157750538Y-92688183D01*
X157768251Y-92678250D01*
X157809162Y-92683616D01*
X157902921Y-92698584D01*
X158039891Y-92721458D01*
X158210433Y-92750545D01*
X158404910Y-92784149D01*
X158613682Y-92820575D01*
X158827113Y-92858127D01*
X159035563Y-92895111D01*
X159229395Y-92929832D01*
X159398970Y-92960594D01*
X159534651Y-92985703D01*
X159626798Y-93003464D01*
X159664400Y-93011721D01*
X159725543Y-93025512D01*
X159816762Y-93041615D01*
X159839025Y-93045059D01*
X159960731Y-93065911D01*
X160084800Y-93090825D01*
X160093025Y-93092655D01*
X160218586Y-93115940D01*
X160286518Y-93115364D01*
X160297216Y-93089454D01*
X160251075Y-93036737D01*
X160148488Y-92955739D01*
X160132713Y-92944272D01*
X160062339Y-92893101D01*
X159949558Y-92810675D01*
X159803093Y-92703390D01*
X159631672Y-92577642D01*
X159444018Y-92439826D01*
X159259588Y-92304233D01*
X159051355Y-92150871D01*
X158888679Y-92030018D01*
X158765936Y-91936595D01*
X158677502Y-91865522D01*
X158617753Y-91811719D01*
X158581068Y-91770109D01*
X158561821Y-91735610D01*
X158554390Y-91703145D01*
X158553151Y-91667632D01*
X158553150Y-91666150D01*
X158553150Y-91547720D01*
X158910338Y-91411810D01*
X159059919Y-91354423D01*
X159196381Y-91301222D01*
X159303798Y-91258465D01*
X159362775Y-91233957D01*
X159425983Y-91208225D01*
X159535476Y-91165786D01*
X159677896Y-91111738D01*
X159839889Y-91051173D01*
X159909368Y-91025455D01*
X160064641Y-90966419D01*
X160194968Y-90913540D01*
X160290463Y-90871100D01*
X160341238Y-90843380D01*
X160346643Y-90836131D01*
X160309655Y-90819369D01*
X160230303Y-90801270D01*
X160169384Y-90791721D01*
X160095891Y-90780613D01*
X159969610Y-90760023D01*
X159800271Y-90731602D01*
X159597605Y-90697000D01*
X159371339Y-90657867D01*
X159131203Y-90615854D01*
X159097109Y-90609850D01*
X158859111Y-90568034D01*
X158636616Y-90529189D01*
X158438704Y-90494881D01*
X158274451Y-90466676D01*
X158152936Y-90446138D01*
X158083237Y-90434834D01*
X158076900Y-90433901D01*
X157929436Y-90412467D01*
X157833266Y-90392871D01*
X157776957Y-90367066D01*
X157749077Y-90327005D01*
X157738194Y-90264639D01*
X157734004Y-90192519D01*
X157731792Y-90086810D01*
X157741200Y-90030929D01*
X157765020Y-90011817D01*
X157772780Y-90011250D01*
X157811191Y-90016582D01*
X157904813Y-90031727D01*
X158046334Y-90055408D01*
X158228440Y-90086349D01*
X158443819Y-90123273D01*
X158685159Y-90164903D01*
X158945145Y-90209963D01*
X159216467Y-90257175D01*
X159491810Y-90305263D01*
X159763862Y-90352950D01*
X160025310Y-90398959D01*
X160268841Y-90442014D01*
X160410525Y-90467211D01*
X160410525Y-90836750D01*
X160394650Y-90852625D01*
X160410525Y-90868500D01*
X160426400Y-90852625D01*
X160410525Y-90836750D01*
X160410525Y-90467211D01*
X160487144Y-90480838D01*
X160672903Y-90514154D01*
X160818808Y-90540685D01*
X160917545Y-90559155D01*
X160958213Y-90567396D01*
X160997583Y-90582690D01*
X161019075Y-90615907D01*
X161027951Y-90682871D01*
X161029506Y-90781792D01*
X161029361Y-90979625D01*
G36*
X161023405Y-94557379D02*
G01*
X161013775Y-94729207D01*
X159632650Y-94483010D01*
X159339163Y-94430824D01*
X159060466Y-94381517D01*
X158803750Y-94336344D01*
X158576207Y-94296559D01*
X158385029Y-94263417D01*
X158237408Y-94238172D01*
X158140534Y-94222078D01*
X158108650Y-94217182D01*
X157952992Y-94195322D01*
X157849196Y-94175855D01*
X157786351Y-94151610D01*
X157753544Y-94115411D01*
X157739863Y-94060086D01*
X157734397Y-93978460D01*
X157734004Y-93970888D01*
X157731135Y-93867472D01*
X157738989Y-93812732D01*
X157761376Y-93792221D01*
X157781629Y-93790300D01*
X157827158Y-93795925D01*
X157926584Y-93811493D01*
X158072741Y-93835724D01*
X158258463Y-93867336D01*
X158476586Y-93905049D01*
X158719944Y-93947582D01*
X158981371Y-93993655D01*
X159253702Y-94041985D01*
X159529773Y-94091294D01*
X159802417Y-94140299D01*
X160064470Y-94187720D01*
X160308765Y-94232276D01*
X160528139Y-94272687D01*
X160715424Y-94307671D01*
X160863457Y-94335949D01*
X160965072Y-94356238D01*
X161013103Y-94367258D01*
X161015909Y-94368425D01*
X161023797Y-94407182D01*
X161025802Y-94488556D01*
X161023405Y-94557379D01*
G37*
X161023405Y-94557379D02*
X161013775Y-94729207D01*
X159632650Y-94483010D01*
X159339163Y-94430824D01*
X159060466Y-94381517D01*
X158803750Y-94336344D01*
X158576207Y-94296559D01*
X158385029Y-94263417D01*
X158237408Y-94238172D01*
X158140534Y-94222078D01*
X158108650Y-94217182D01*
X157952992Y-94195322D01*
X157849196Y-94175855D01*
X157786351Y-94151610D01*
X157753544Y-94115411D01*
X157739863Y-94060086D01*
X157734397Y-93978460D01*
X157734004Y-93970888D01*
X157731135Y-93867472D01*
X157738989Y-93812732D01*
X157761376Y-93792221D01*
X157781629Y-93790300D01*
X157827158Y-93795925D01*
X157926584Y-93811493D01*
X158072741Y-93835724D01*
X158258463Y-93867336D01*
X158476586Y-93905049D01*
X158719944Y-93947582D01*
X158981371Y-93993655D01*
X159253702Y-94041985D01*
X159529773Y-94091294D01*
X159802417Y-94140299D01*
X160064470Y-94187720D01*
X160308765Y-94232276D01*
X160528139Y-94272687D01*
X160715424Y-94307671D01*
X160863457Y-94335949D01*
X160965072Y-94356238D01*
X161013103Y-94367258D01*
X161015909Y-94368425D01*
X161023797Y-94407182D01*
X161025802Y-94488556D01*
X161023405Y-94557379D01*
G36*
X161023405Y-95668629D02*
G01*
X161013775Y-95840457D01*
X159632650Y-95594994D01*
X159343464Y-95543656D01*
X159072692Y-95495701D01*
X158826925Y-95452286D01*
X158612749Y-95414572D01*
X158436755Y-95383715D01*
X158305529Y-95360875D01*
X158225660Y-95347211D01*
X158203900Y-95343734D01*
X158166441Y-95339861D01*
X158137182Y-95343014D01*
X158115109Y-95360050D01*
X158099211Y-95397828D01*
X158088475Y-95463205D01*
X158081888Y-95563040D01*
X158078438Y-95704191D01*
X158077113Y-95893516D01*
X158076899Y-96137873D01*
X158076900Y-96203938D01*
X158076900Y-97062627D01*
X157957838Y-97042541D01*
X157895223Y-97033640D01*
X157845027Y-97025992D01*
X157805889Y-97013121D01*
X157776448Y-96988549D01*
X157755346Y-96945798D01*
X157741221Y-96878391D01*
X157732713Y-96779851D01*
X157728462Y-96643700D01*
X157727108Y-96463460D01*
X157727291Y-96232655D01*
X157727650Y-95946360D01*
X157727838Y-95660648D01*
X157728626Y-95432109D01*
X157730351Y-95254414D01*
X157733349Y-95121236D01*
X157737956Y-95026249D01*
X157744509Y-94963125D01*
X157753345Y-94925536D01*
X157764800Y-94907155D01*
X157779210Y-94901655D01*
X157783213Y-94901550D01*
X157828588Y-94907181D01*
X157927870Y-94922758D01*
X158073895Y-94947001D01*
X158259496Y-94978626D01*
X158477506Y-95016354D01*
X158720760Y-95058901D01*
X158982091Y-95104987D01*
X159254334Y-95153330D01*
X159530322Y-95202648D01*
X159802889Y-95251660D01*
X160064869Y-95299084D01*
X160309096Y-95343639D01*
X160528404Y-95384043D01*
X160715626Y-95419015D01*
X160863597Y-95447273D01*
X160965151Y-95467535D01*
X161013120Y-95478520D01*
X161015909Y-95479675D01*
X161023797Y-95518432D01*
X161025802Y-95599806D01*
X161023405Y-95668629D01*
G37*
X161023405Y-95668629D02*
X161013775Y-95840457D01*
X159632650Y-95594994D01*
X159343464Y-95543656D01*
X159072692Y-95495701D01*
X158826925Y-95452286D01*
X158612749Y-95414572D01*
X158436755Y-95383715D01*
X158305529Y-95360875D01*
X158225660Y-95347211D01*
X158203900Y-95343734D01*
X158166441Y-95339861D01*
X158137182Y-95343014D01*
X158115109Y-95360050D01*
X158099211Y-95397828D01*
X158088475Y-95463205D01*
X158081888Y-95563040D01*
X158078438Y-95704191D01*
X158077113Y-95893516D01*
X158076899Y-96137873D01*
X158076900Y-96203938D01*
X158076900Y-97062627D01*
X157957838Y-97042541D01*
X157895223Y-97033640D01*
X157845027Y-97025992D01*
X157805889Y-97013121D01*
X157776448Y-96988549D01*
X157755346Y-96945798D01*
X157741221Y-96878391D01*
X157732713Y-96779851D01*
X157728462Y-96643700D01*
X157727108Y-96463460D01*
X157727291Y-96232655D01*
X157727650Y-95946360D01*
X157727838Y-95660648D01*
X157728626Y-95432109D01*
X157730351Y-95254414D01*
X157733349Y-95121236D01*
X157737956Y-95026249D01*
X157744509Y-94963125D01*
X157753345Y-94925536D01*
X157764800Y-94907155D01*
X157779210Y-94901655D01*
X157783213Y-94901550D01*
X157828588Y-94907181D01*
X157927870Y-94922758D01*
X158073895Y-94947001D01*
X158259496Y-94978626D01*
X158477506Y-95016354D01*
X158720760Y-95058901D01*
X158982091Y-95104987D01*
X159254334Y-95153330D01*
X159530322Y-95202648D01*
X159802889Y-95251660D01*
X160064869Y-95299084D01*
X160309096Y-95343639D01*
X160528404Y-95384043D01*
X160715626Y-95419015D01*
X160863597Y-95447273D01*
X160965151Y-95467535D01*
X161013120Y-95478520D01*
X161015909Y-95479675D01*
X161023797Y-95518432D01*
X161025802Y-95599806D01*
X161023405Y-95668629D01*
G36*
X161028857Y-99926414D02*
G01*
X161024853Y-100068133D01*
X161016863Y-100170122D01*
X161003617Y-100238322D01*
X160983844Y-100278674D01*
X160956275Y-100297117D01*
X160919639Y-100299592D01*
X160872667Y-100292039D01*
X160814089Y-100280398D01*
X160799936Y-100277948D01*
X160681347Y-100258345D01*
X160672936Y-99335620D01*
X160664525Y-98412896D01*
X160251775Y-98340903D01*
X160087436Y-98312190D01*
X159936956Y-98285811D01*
X159816038Y-98264523D01*
X159740382Y-98251085D01*
X159735838Y-98250266D01*
X159632650Y-98231622D01*
X159632650Y-99666127D01*
X159513588Y-99646041D01*
X159439523Y-99634792D01*
X159383206Y-99623987D01*
X159342227Y-99605661D01*
X159314174Y-99571844D01*
X159296636Y-99514570D01*
X159287201Y-99425871D01*
X159283457Y-99297779D01*
X159282994Y-99122327D01*
X159283400Y-98891547D01*
X159283400Y-98175502D01*
X159116713Y-98142643D01*
X159031374Y-98126381D01*
X158909811Y-98103931D01*
X158765557Y-98077710D01*
X158612149Y-98050135D01*
X158463121Y-98023624D01*
X158332009Y-98000592D01*
X158232347Y-97983457D01*
X158177671Y-97974636D01*
X158172150Y-97973977D01*
X158144685Y-97974196D01*
X158123079Y-97983204D01*
X158106631Y-98007753D01*
X158094637Y-98054595D01*
X158086396Y-98130483D01*
X158081204Y-98242170D01*
X158078359Y-98396409D01*
X158077159Y-98599951D01*
X158076902Y-98859550D01*
X158076900Y-98889529D01*
X158076900Y-99798558D01*
X157957838Y-99778878D01*
X157864026Y-99765645D01*
X157790188Y-99759012D01*
X157783213Y-99758849D01*
X157768440Y-99755285D01*
X157756535Y-99740699D01*
X157747191Y-99708945D01*
X157740100Y-99653878D01*
X157734956Y-99569350D01*
X157731450Y-99449214D01*
X157729276Y-99287326D01*
X157728126Y-99077537D01*
X157727694Y-98813702D01*
X157727650Y-98647250D01*
X157727948Y-98348370D01*
X157729007Y-98107099D01*
X157731073Y-97917546D01*
X157734395Y-97773822D01*
X157739221Y-97670036D01*
X157745798Y-97600301D01*
X157754373Y-97558724D01*
X157765194Y-97539418D01*
X157774365Y-97536000D01*
X157812579Y-97541332D01*
X157906006Y-97556479D01*
X158047336Y-97580163D01*
X158229256Y-97611107D01*
X158444457Y-97648033D01*
X158685627Y-97689666D01*
X158945456Y-97734727D01*
X159216632Y-97781940D01*
X159491845Y-97830028D01*
X159763783Y-97877713D01*
X160025137Y-97923719D01*
X160268594Y-97966769D01*
X160486844Y-98005585D01*
X160672576Y-98038891D01*
X160818480Y-98065409D01*
X160917243Y-98083862D01*
X160958213Y-98092146D01*
X161029650Y-98108709D01*
X161029650Y-99203479D01*
X161029986Y-99500028D01*
X161030145Y-99739026D01*
X161028857Y-99926414D01*
G37*
X161028857Y-99926414D02*
X161024853Y-100068133D01*
X161016863Y-100170122D01*
X161003617Y-100238322D01*
X160983844Y-100278674D01*
X160956275Y-100297117D01*
X160919639Y-100299592D01*
X160872667Y-100292039D01*
X160814089Y-100280398D01*
X160799936Y-100277948D01*
X160681347Y-100258345D01*
X160672936Y-99335620D01*
X160664525Y-98412896D01*
X160251775Y-98340903D01*
X160087436Y-98312190D01*
X159936956Y-98285811D01*
X159816038Y-98264523D01*
X159740382Y-98251085D01*
X159735838Y-98250266D01*
X159632650Y-98231622D01*
X159632650Y-99666127D01*
X159513588Y-99646041D01*
X159439523Y-99634792D01*
X159383206Y-99623987D01*
X159342227Y-99605661D01*
X159314174Y-99571844D01*
X159296636Y-99514570D01*
X159287201Y-99425871D01*
X159283457Y-99297779D01*
X159282994Y-99122327D01*
X159283400Y-98891547D01*
X159283400Y-98175502D01*
X159116713Y-98142643D01*
X159031374Y-98126381D01*
X158909811Y-98103931D01*
X158765557Y-98077710D01*
X158612149Y-98050135D01*
X158463121Y-98023624D01*
X158332009Y-98000592D01*
X158232347Y-97983457D01*
X158177671Y-97974636D01*
X158172150Y-97973977D01*
X158144685Y-97974196D01*
X158123079Y-97983204D01*
X158106631Y-98007753D01*
X158094637Y-98054595D01*
X158086396Y-98130483D01*
X158081204Y-98242170D01*
X158078359Y-98396409D01*
X158077159Y-98599951D01*
X158076902Y-98859550D01*
X158076900Y-98889529D01*
X158076900Y-99798558D01*
X157957838Y-99778878D01*
X157864026Y-99765645D01*
X157790188Y-99759012D01*
X157783213Y-99758849D01*
X157768440Y-99755285D01*
X157756535Y-99740699D01*
X157747191Y-99708945D01*
X157740100Y-99653878D01*
X157734956Y-99569350D01*
X157731450Y-99449214D01*
X157729276Y-99287326D01*
X157728126Y-99077537D01*
X157727694Y-98813702D01*
X157727650Y-98647250D01*
X157727948Y-98348370D01*
X157729007Y-98107099D01*
X157731073Y-97917546D01*
X157734395Y-97773822D01*
X157739221Y-97670036D01*
X157745798Y-97600301D01*
X157754373Y-97558724D01*
X157765194Y-97539418D01*
X157774365Y-97536000D01*
X157812579Y-97541332D01*
X157906006Y-97556479D01*
X158047336Y-97580163D01*
X158229256Y-97611107D01*
X158444457Y-97648033D01*
X158685627Y-97689666D01*
X158945456Y-97734727D01*
X159216632Y-97781940D01*
X159491845Y-97830028D01*
X159763783Y-97877713D01*
X160025137Y-97923719D01*
X160268594Y-97966769D01*
X160486844Y-98005585D01*
X160672576Y-98038891D01*
X160818480Y-98065409D01*
X160917243Y-98083862D01*
X160958213Y-98092146D01*
X161029650Y-98108709D01*
X161029650Y-99203479D01*
X161029986Y-99500028D01*
X161030145Y-99739026D01*
X161028857Y-99926414D01*
G36*
X160912002Y-102517627D02*
G01*
X160857354Y-102531611D01*
X160747710Y-102559275D01*
X160589696Y-102598961D01*
X160389934Y-102649009D01*
X160155051Y-102707763D01*
X159891669Y-102773564D01*
X159606415Y-102844753D01*
X159315150Y-102917370D01*
X159017776Y-102991534D01*
X158738135Y-103061389D01*
X158482487Y-103125363D01*
X158257095Y-103181884D01*
X158068221Y-103229381D01*
X157922126Y-103266279D01*
X157825072Y-103291008D01*
X157783321Y-103301995D01*
X157783213Y-103302027D01*
X157753121Y-103303894D01*
X157736300Y-103278248D01*
X157729051Y-103212549D01*
X157727650Y-103113684D01*
X157727650Y-102908590D01*
X157943687Y-102855647D01*
X158058690Y-102827866D01*
X158152748Y-102805871D01*
X158205550Y-102794410D01*
X158205625Y-102794396D01*
X158260258Y-102782976D01*
X158353478Y-102762151D01*
X158434088Y-102743616D01*
X158616650Y-102701145D01*
X158615480Y-101856885D01*
X158614309Y-101012625D01*
X158172150Y-100758625D01*
X157729992Y-100504625D01*
X157728821Y-100303541D01*
X157732066Y-100202004D01*
X157741690Y-100133418D01*
X157754680Y-100113041D01*
X157787808Y-100131550D01*
X157866327Y-100177657D01*
X157981345Y-100246009D01*
X158123971Y-100331253D01*
X158285313Y-100428037D01*
X158456481Y-100531006D01*
X158628584Y-100634808D01*
X158792730Y-100734089D01*
X158940028Y-100823498D01*
X158989713Y-100853817D01*
X158989713Y-101252127D01*
X158982731Y-101281933D01*
X158976558Y-101366110D01*
X158971512Y-101495529D01*
X158967910Y-101661061D01*
X158966071Y-101853580D01*
X158965900Y-101935514D01*
X158966212Y-102160877D01*
X158967570Y-102330349D01*
X158970607Y-102451538D01*
X158975955Y-102532050D01*
X158984247Y-102579495D01*
X158996115Y-102601478D01*
X159012194Y-102605609D01*
X159021463Y-102603523D01*
X159067081Y-102591386D01*
X159164992Y-102566404D01*
X159305834Y-102530928D01*
X159480247Y-102487311D01*
X159678869Y-102437905D01*
X159807275Y-102406088D01*
X160013207Y-102354753D01*
X160197949Y-102307971D01*
X160352774Y-102268011D01*
X160468956Y-102237142D01*
X160537771Y-102217634D01*
X160552926Y-102212157D01*
X160541933Y-102186161D01*
X160491641Y-102140027D01*
X160417363Y-102086012D01*
X160334416Y-102036373D01*
X160331150Y-102034660D01*
X160281668Y-102006850D01*
X160186937Y-101951853D01*
X160056176Y-101875126D01*
X159898602Y-101782127D01*
X159723436Y-101678311D01*
X159539895Y-101569135D01*
X159357197Y-101460056D01*
X159184562Y-101356530D01*
X159129793Y-101323564D01*
X159052748Y-101279936D01*
X158999042Y-101254584D01*
X158989713Y-101252127D01*
X158989713Y-100853817D01*
X159061588Y-100897679D01*
X159148518Y-100951281D01*
X159182110Y-100972466D01*
X159264696Y-101022226D01*
X159331025Y-101057503D01*
X159373603Y-101081094D01*
X159463106Y-101133233D01*
X159592165Y-101209540D01*
X159753412Y-101305633D01*
X159939477Y-101417131D01*
X160142991Y-101539655D01*
X160204150Y-101576580D01*
X161013775Y-102065709D01*
X161023127Y-102275750D01*
X161032479Y-102485790D01*
X160912002Y-102517627D01*
G37*
X160912002Y-102517627D02*
X160857354Y-102531611D01*
X160747710Y-102559275D01*
X160589696Y-102598961D01*
X160389934Y-102649009D01*
X160155051Y-102707763D01*
X159891669Y-102773564D01*
X159606415Y-102844753D01*
X159315150Y-102917370D01*
X159017776Y-102991534D01*
X158738135Y-103061389D01*
X158482487Y-103125363D01*
X158257095Y-103181884D01*
X158068221Y-103229381D01*
X157922126Y-103266279D01*
X157825072Y-103291008D01*
X157783321Y-103301995D01*
X157783213Y-103302027D01*
X157753121Y-103303894D01*
X157736300Y-103278248D01*
X157729051Y-103212549D01*
X157727650Y-103113684D01*
X157727650Y-102908590D01*
X157943687Y-102855647D01*
X158058690Y-102827866D01*
X158152748Y-102805871D01*
X158205550Y-102794410D01*
X158205625Y-102794396D01*
X158260258Y-102782976D01*
X158353478Y-102762151D01*
X158434088Y-102743616D01*
X158616650Y-102701145D01*
X158615480Y-101856885D01*
X158614309Y-101012625D01*
X158172150Y-100758625D01*
X157729992Y-100504625D01*
X157728821Y-100303541D01*
X157732066Y-100202004D01*
X157741690Y-100133418D01*
X157754680Y-100113041D01*
X157787808Y-100131550D01*
X157866327Y-100177657D01*
X157981345Y-100246009D01*
X158123971Y-100331253D01*
X158285313Y-100428037D01*
X158456481Y-100531006D01*
X158628584Y-100634808D01*
X158792730Y-100734089D01*
X158940028Y-100823498D01*
X158989713Y-100853817D01*
X158989713Y-101252127D01*
X158982731Y-101281933D01*
X158976558Y-101366110D01*
X158971512Y-101495529D01*
X158967910Y-101661061D01*
X158966071Y-101853580D01*
X158965900Y-101935514D01*
X158966212Y-102160877D01*
X158967570Y-102330349D01*
X158970607Y-102451538D01*
X158975955Y-102532050D01*
X158984247Y-102579495D01*
X158996115Y-102601478D01*
X159012194Y-102605609D01*
X159021463Y-102603523D01*
X159067081Y-102591386D01*
X159164992Y-102566404D01*
X159305834Y-102530928D01*
X159480247Y-102487311D01*
X159678869Y-102437905D01*
X159807275Y-102406088D01*
X160013207Y-102354753D01*
X160197949Y-102307971D01*
X160352774Y-102268011D01*
X160468956Y-102237142D01*
X160537771Y-102217634D01*
X160552926Y-102212157D01*
X160541933Y-102186161D01*
X160491641Y-102140027D01*
X160417363Y-102086012D01*
X160334416Y-102036373D01*
X160331150Y-102034660D01*
X160281668Y-102006850D01*
X160186937Y-101951853D01*
X160056176Y-101875126D01*
X159898602Y-101782127D01*
X159723436Y-101678311D01*
X159539895Y-101569135D01*
X159357197Y-101460056D01*
X159184562Y-101356530D01*
X159129793Y-101323564D01*
X159052748Y-101279936D01*
X158999042Y-101254584D01*
X158989713Y-101252127D01*
X158989713Y-100853817D01*
X159061588Y-100897679D01*
X159148518Y-100951281D01*
X159182110Y-100972466D01*
X159264696Y-101022226D01*
X159331025Y-101057503D01*
X159373603Y-101081094D01*
X159463106Y-101133233D01*
X159592165Y-101209540D01*
X159753412Y-101305633D01*
X159939477Y-101417131D01*
X160142991Y-101539655D01*
X160204150Y-101576580D01*
X161013775Y-102065709D01*
X161023127Y-102275750D01*
X161032479Y-102485790D01*
X160912002Y-102517627D01*
G36*
X161028857Y-109768914D02*
G01*
X161024853Y-109910633D01*
X161016863Y-110012622D01*
X161003617Y-110080822D01*
X160983844Y-110121174D01*
X160956275Y-110139617D01*
X160919639Y-110142092D01*
X160872667Y-110134539D01*
X160814089Y-110122898D01*
X160799936Y-110120448D01*
X160681347Y-110100845D01*
X160672936Y-109178120D01*
X160664525Y-108255396D01*
X160251775Y-108183403D01*
X160087436Y-108154690D01*
X159936956Y-108128311D01*
X159816038Y-108107023D01*
X159740382Y-108093585D01*
X159735838Y-108092766D01*
X159632650Y-108074122D01*
X159632650Y-109508627D01*
X159513588Y-109488541D01*
X159439523Y-109477292D01*
X159383206Y-109466487D01*
X159342227Y-109448161D01*
X159314174Y-109414344D01*
X159296636Y-109357070D01*
X159287201Y-109268371D01*
X159283457Y-109140279D01*
X159282994Y-108964827D01*
X159283400Y-108734047D01*
X159283400Y-108018002D01*
X159116713Y-107985143D01*
X159031374Y-107968881D01*
X158909811Y-107946431D01*
X158765557Y-107920210D01*
X158612149Y-107892635D01*
X158463121Y-107866124D01*
X158332009Y-107843092D01*
X158232347Y-107825957D01*
X158177671Y-107817136D01*
X158172150Y-107816477D01*
X158144685Y-107816696D01*
X158123079Y-107825704D01*
X158106631Y-107850253D01*
X158094637Y-107897095D01*
X158086396Y-107972983D01*
X158081204Y-108084670D01*
X158078359Y-108238909D01*
X158077159Y-108442451D01*
X158076902Y-108702050D01*
X158076900Y-108732029D01*
X158076900Y-109641058D01*
X157957838Y-109621378D01*
X157864026Y-109608145D01*
X157790188Y-109601512D01*
X157783213Y-109601349D01*
X157768440Y-109597785D01*
X157756535Y-109583199D01*
X157747191Y-109551445D01*
X157740100Y-109496378D01*
X157734956Y-109411850D01*
X157731450Y-109291714D01*
X157729276Y-109129826D01*
X157728126Y-108920037D01*
X157727694Y-108656202D01*
X157727650Y-108489750D01*
X157727948Y-108190870D01*
X157729007Y-107949599D01*
X157731073Y-107760046D01*
X157734395Y-107616322D01*
X157739221Y-107512536D01*
X157745798Y-107442801D01*
X157754373Y-107401224D01*
X157765194Y-107381918D01*
X157774365Y-107378500D01*
X157812579Y-107383832D01*
X157906006Y-107398979D01*
X158047336Y-107422663D01*
X158229256Y-107453607D01*
X158444457Y-107490533D01*
X158685627Y-107532166D01*
X158945456Y-107577227D01*
X159216632Y-107624440D01*
X159491845Y-107672528D01*
X159763783Y-107720213D01*
X160025137Y-107766219D01*
X160268594Y-107809269D01*
X160486844Y-107848085D01*
X160672576Y-107881391D01*
X160818480Y-107907909D01*
X160917243Y-107926362D01*
X160958213Y-107934646D01*
X161029650Y-107951209D01*
X161029650Y-109045979D01*
X161029986Y-109342528D01*
X161030145Y-109581526D01*
X161028857Y-109768914D01*
G37*
X161028857Y-109768914D02*
X161024853Y-109910633D01*
X161016863Y-110012622D01*
X161003617Y-110080822D01*
X160983844Y-110121174D01*
X160956275Y-110139617D01*
X160919639Y-110142092D01*
X160872667Y-110134539D01*
X160814089Y-110122898D01*
X160799936Y-110120448D01*
X160681347Y-110100845D01*
X160672936Y-109178120D01*
X160664525Y-108255396D01*
X160251775Y-108183403D01*
X160087436Y-108154690D01*
X159936956Y-108128311D01*
X159816038Y-108107023D01*
X159740382Y-108093585D01*
X159735838Y-108092766D01*
X159632650Y-108074122D01*
X159632650Y-109508627D01*
X159513588Y-109488541D01*
X159439523Y-109477292D01*
X159383206Y-109466487D01*
X159342227Y-109448161D01*
X159314174Y-109414344D01*
X159296636Y-109357070D01*
X159287201Y-109268371D01*
X159283457Y-109140279D01*
X159282994Y-108964827D01*
X159283400Y-108734047D01*
X159283400Y-108018002D01*
X159116713Y-107985143D01*
X159031374Y-107968881D01*
X158909811Y-107946431D01*
X158765557Y-107920210D01*
X158612149Y-107892635D01*
X158463121Y-107866124D01*
X158332009Y-107843092D01*
X158232347Y-107825957D01*
X158177671Y-107817136D01*
X158172150Y-107816477D01*
X158144685Y-107816696D01*
X158123079Y-107825704D01*
X158106631Y-107850253D01*
X158094637Y-107897095D01*
X158086396Y-107972983D01*
X158081204Y-108084670D01*
X158078359Y-108238909D01*
X158077159Y-108442451D01*
X158076902Y-108702050D01*
X158076900Y-108732029D01*
X158076900Y-109641058D01*
X157957838Y-109621378D01*
X157864026Y-109608145D01*
X157790188Y-109601512D01*
X157783213Y-109601349D01*
X157768440Y-109597785D01*
X157756535Y-109583199D01*
X157747191Y-109551445D01*
X157740100Y-109496378D01*
X157734956Y-109411850D01*
X157731450Y-109291714D01*
X157729276Y-109129826D01*
X157728126Y-108920037D01*
X157727694Y-108656202D01*
X157727650Y-108489750D01*
X157727948Y-108190870D01*
X157729007Y-107949599D01*
X157731073Y-107760046D01*
X157734395Y-107616322D01*
X157739221Y-107512536D01*
X157745798Y-107442801D01*
X157754373Y-107401224D01*
X157765194Y-107381918D01*
X157774365Y-107378500D01*
X157812579Y-107383832D01*
X157906006Y-107398979D01*
X158047336Y-107422663D01*
X158229256Y-107453607D01*
X158444457Y-107490533D01*
X158685627Y-107532166D01*
X158945456Y-107577227D01*
X159216632Y-107624440D01*
X159491845Y-107672528D01*
X159763783Y-107720213D01*
X160025137Y-107766219D01*
X160268594Y-107809269D01*
X160486844Y-107848085D01*
X160672576Y-107881391D01*
X160818480Y-107907909D01*
X160917243Y-107926362D01*
X160958213Y-107934646D01*
X161029650Y-107951209D01*
X161029650Y-109045979D01*
X161029986Y-109342528D01*
X161030145Y-109581526D01*
X161028857Y-109768914D01*
G36*
X165409579Y-79396039D02*
G01*
X165403819Y-79491083D01*
X165392301Y-79543581D01*
X165373458Y-79563984D01*
X165363493Y-79565500D01*
X165313456Y-79559842D01*
X165210415Y-79544003D01*
X165063744Y-79519686D01*
X164882816Y-79488590D01*
X164677005Y-79452418D01*
X164455686Y-79412871D01*
X164228233Y-79371650D01*
X164004018Y-79330458D01*
X163792417Y-79290995D01*
X163602804Y-79254963D01*
X163444551Y-79224063D01*
X163327034Y-79199998D01*
X163259625Y-79184468D01*
X163252150Y-79182267D01*
X162937845Y-79051948D01*
X162665772Y-78882843D01*
X162440740Y-78678687D01*
X162267556Y-78443210D01*
X162242561Y-78398353D01*
X162134963Y-78136773D01*
X162069657Y-77846265D01*
X162049673Y-77547807D01*
X162078036Y-77262374D01*
X162078374Y-77260663D01*
X162155388Y-77009203D01*
X162277883Y-76802055D01*
X162445758Y-76639318D01*
X162658914Y-76521092D01*
X162886225Y-76453470D01*
X162963861Y-76439944D01*
X163044426Y-76431887D01*
X163134878Y-76430058D01*
X163242179Y-76435214D01*
X163373289Y-76448115D01*
X163535167Y-76469519D01*
X163734774Y-76500184D01*
X163979070Y-76540870D01*
X164275016Y-76592336D01*
X164458650Y-76624858D01*
X165395275Y-76791436D01*
X165404324Y-77114843D01*
X165407915Y-77269181D01*
X165402754Y-77369037D01*
X165380427Y-77423426D01*
X165332525Y-77441364D01*
X165250635Y-77431868D01*
X165133142Y-77405519D01*
X165014405Y-77380727D01*
X164896599Y-77359952D01*
X164879142Y-77357346D01*
X164773848Y-77340542D01*
X164647965Y-77318138D01*
X164599242Y-77308847D01*
X164541063Y-77297466D01*
X164492359Y-77288090D01*
X164443175Y-77279004D01*
X164383554Y-77268489D01*
X164303543Y-77254830D01*
X164193184Y-77236309D01*
X164042523Y-77211210D01*
X163841605Y-77177814D01*
X163783935Y-77168230D01*
X163513177Y-77128522D01*
X163295085Y-77110142D01*
X163121932Y-77114796D01*
X162985993Y-77144190D01*
X162879542Y-77200031D01*
X162794852Y-77284023D01*
X162724196Y-77397874D01*
X162721698Y-77402785D01*
X162673306Y-77556706D01*
X162661234Y-77739509D01*
X162685320Y-77928104D01*
X162726309Y-78057773D01*
X162833398Y-78234511D01*
X162992516Y-78385161D01*
X163195542Y-78503987D01*
X163434354Y-78585252D01*
X163490275Y-78597400D01*
X163554128Y-78609305D01*
X163666081Y-78629524D01*
X163816755Y-78656410D01*
X163996771Y-78688320D01*
X164196751Y-78723610D01*
X164407314Y-78760635D01*
X164619081Y-78797751D01*
X164822675Y-78833313D01*
X165008714Y-78865676D01*
X165167821Y-78893198D01*
X165290616Y-78914233D01*
X165367719Y-78927136D01*
X165390180Y-78930500D01*
X165398983Y-78960006D01*
X165405966Y-79039566D01*
X165410242Y-79155740D01*
X165411150Y-79248000D01*
X165409579Y-79396039D01*
G37*
X165409579Y-79396039D02*
X165403819Y-79491083D01*
X165392301Y-79543581D01*
X165373458Y-79563984D01*
X165363493Y-79565500D01*
X165313456Y-79559842D01*
X165210415Y-79544003D01*
X165063744Y-79519686D01*
X164882816Y-79488590D01*
X164677005Y-79452418D01*
X164455686Y-79412871D01*
X164228233Y-79371650D01*
X164004018Y-79330458D01*
X163792417Y-79290995D01*
X163602804Y-79254963D01*
X163444551Y-79224063D01*
X163327034Y-79199998D01*
X163259625Y-79184468D01*
X163252150Y-79182267D01*
X162937845Y-79051948D01*
X162665772Y-78882843D01*
X162440740Y-78678687D01*
X162267556Y-78443210D01*
X162242561Y-78398353D01*
X162134963Y-78136773D01*
X162069657Y-77846265D01*
X162049673Y-77547807D01*
X162078036Y-77262374D01*
X162078374Y-77260663D01*
X162155388Y-77009203D01*
X162277883Y-76802055D01*
X162445758Y-76639318D01*
X162658914Y-76521092D01*
X162886225Y-76453470D01*
X162963861Y-76439944D01*
X163044426Y-76431887D01*
X163134878Y-76430058D01*
X163242179Y-76435214D01*
X163373289Y-76448115D01*
X163535167Y-76469519D01*
X163734774Y-76500184D01*
X163979070Y-76540870D01*
X164275016Y-76592336D01*
X164458650Y-76624858D01*
X165395275Y-76791436D01*
X165404324Y-77114843D01*
X165407915Y-77269181D01*
X165402754Y-77369037D01*
X165380427Y-77423426D01*
X165332525Y-77441364D01*
X165250635Y-77431868D01*
X165133142Y-77405519D01*
X165014405Y-77380727D01*
X164896599Y-77359952D01*
X164879142Y-77357346D01*
X164773848Y-77340542D01*
X164647965Y-77318138D01*
X164599242Y-77308847D01*
X164541063Y-77297466D01*
X164492359Y-77288090D01*
X164443175Y-77279004D01*
X164383554Y-77268489D01*
X164303543Y-77254830D01*
X164193184Y-77236309D01*
X164042523Y-77211210D01*
X163841605Y-77177814D01*
X163783935Y-77168230D01*
X163513177Y-77128522D01*
X163295085Y-77110142D01*
X163121932Y-77114796D01*
X162985993Y-77144190D01*
X162879542Y-77200031D01*
X162794852Y-77284023D01*
X162724196Y-77397874D01*
X162721698Y-77402785D01*
X162673306Y-77556706D01*
X162661234Y-77739509D01*
X162685320Y-77928104D01*
X162726309Y-78057773D01*
X162833398Y-78234511D01*
X162992516Y-78385161D01*
X163195542Y-78503987D01*
X163434354Y-78585252D01*
X163490275Y-78597400D01*
X163554128Y-78609305D01*
X163666081Y-78629524D01*
X163816755Y-78656410D01*
X163996771Y-78688320D01*
X164196751Y-78723610D01*
X164407314Y-78760635D01*
X164619081Y-78797751D01*
X164822675Y-78833313D01*
X165008714Y-78865676D01*
X165167821Y-78893198D01*
X165290616Y-78914233D01*
X165367719Y-78927136D01*
X165390180Y-78930500D01*
X165398983Y-78960006D01*
X165405966Y-79039566D01*
X165410242Y-79155740D01*
X165411150Y-79248000D01*
X165409579Y-79396039D01*
G36*
X165451949Y-84923255D02*
G01*
X165387642Y-85206007D01*
X165276175Y-85461052D01*
X165118752Y-85679935D01*
X165107893Y-85691710D01*
X165022666Y-85770508D01*
X164917446Y-85850252D01*
X164805379Y-85923196D01*
X164699611Y-85981596D01*
X164613285Y-86017708D01*
X164559549Y-86023786D01*
X164552189Y-86019113D01*
X164534946Y-85979139D01*
X164507426Y-85893172D01*
X164474497Y-85776884D01*
X164460801Y-85725000D01*
X164427424Y-85596511D01*
X164398808Y-85487458D01*
X164379628Y-85415617D01*
X164375887Y-85402123D01*
X164387847Y-85349412D01*
X164421611Y-85329803D01*
X164504019Y-85282031D01*
X164599636Y-85194935D01*
X164692673Y-85085682D01*
X164767337Y-84971438D01*
X164786199Y-84933468D01*
X164831150Y-84780022D01*
X164851104Y-84592794D01*
X164845987Y-84396405D01*
X164815730Y-84215475D01*
X164788528Y-84131920D01*
X164653688Y-83879651D01*
X164473628Y-83670138D01*
X164252644Y-83506378D01*
X163995029Y-83391370D01*
X163705079Y-83328111D01*
X163626391Y-83320615D01*
X163363683Y-83324089D01*
X163142573Y-83375422D01*
X162962418Y-83475062D01*
X162822576Y-83623453D01*
X162722406Y-83821041D01*
X162677491Y-83979650D01*
X162660327Y-84202806D01*
X162697177Y-84437542D01*
X162783485Y-84670911D01*
X162914694Y-84889967D01*
X163054958Y-85052153D01*
X163227011Y-85220681D01*
X163152939Y-85504590D01*
X163117944Y-85628411D01*
X163085561Y-85724880D01*
X163060626Y-85780367D01*
X163052167Y-85788500D01*
X162997386Y-85767257D01*
X162911167Y-85710167D01*
X162806054Y-85627180D01*
X162694591Y-85528251D01*
X162589323Y-85423332D01*
X162581952Y-85415418D01*
X162416663Y-85205347D01*
X162269746Y-84959061D01*
X162156652Y-84703775D01*
X162126847Y-84613750D01*
X162087199Y-84427670D01*
X162064531Y-84208375D01*
X162059802Y-83981804D01*
X162073973Y-83773900D01*
X162091877Y-83669224D01*
X162184584Y-83388175D01*
X162323834Y-83148791D01*
X162506287Y-82953444D01*
X162728603Y-82804504D01*
X162987443Y-82704344D01*
X163279468Y-82655333D01*
X163522025Y-82653780D01*
X163874550Y-82703595D01*
X164207176Y-82808864D01*
X164513708Y-82965050D01*
X164787952Y-83167612D01*
X165023716Y-83412012D01*
X165214804Y-83693710D01*
X165349863Y-83993289D01*
X165434264Y-84308442D01*
X165467891Y-84621248D01*
X165451949Y-84923255D01*
G37*
X165451949Y-84923255D02*
X165387642Y-85206007D01*
X165276175Y-85461052D01*
X165118752Y-85679935D01*
X165107893Y-85691710D01*
X165022666Y-85770508D01*
X164917446Y-85850252D01*
X164805379Y-85923196D01*
X164699611Y-85981596D01*
X164613285Y-86017708D01*
X164559549Y-86023786D01*
X164552189Y-86019113D01*
X164534946Y-85979139D01*
X164507426Y-85893172D01*
X164474497Y-85776884D01*
X164460801Y-85725000D01*
X164427424Y-85596511D01*
X164398808Y-85487458D01*
X164379628Y-85415617D01*
X164375887Y-85402123D01*
X164387847Y-85349412D01*
X164421611Y-85329803D01*
X164504019Y-85282031D01*
X164599636Y-85194935D01*
X164692673Y-85085682D01*
X164767337Y-84971438D01*
X164786199Y-84933468D01*
X164831150Y-84780022D01*
X164851104Y-84592794D01*
X164845987Y-84396405D01*
X164815730Y-84215475D01*
X164788528Y-84131920D01*
X164653688Y-83879651D01*
X164473628Y-83670138D01*
X164252644Y-83506378D01*
X163995029Y-83391370D01*
X163705079Y-83328111D01*
X163626391Y-83320615D01*
X163363683Y-83324089D01*
X163142573Y-83375422D01*
X162962418Y-83475062D01*
X162822576Y-83623453D01*
X162722406Y-83821041D01*
X162677491Y-83979650D01*
X162660327Y-84202806D01*
X162697177Y-84437542D01*
X162783485Y-84670911D01*
X162914694Y-84889967D01*
X163054958Y-85052153D01*
X163227011Y-85220681D01*
X163152939Y-85504590D01*
X163117944Y-85628411D01*
X163085561Y-85724880D01*
X163060626Y-85780367D01*
X163052167Y-85788500D01*
X162997386Y-85767257D01*
X162911167Y-85710167D01*
X162806054Y-85627180D01*
X162694591Y-85528251D01*
X162589323Y-85423332D01*
X162581952Y-85415418D01*
X162416663Y-85205347D01*
X162269746Y-84959061D01*
X162156652Y-84703775D01*
X162126847Y-84613750D01*
X162087199Y-84427670D01*
X162064531Y-84208375D01*
X162059802Y-83981804D01*
X162073973Y-83773900D01*
X162091877Y-83669224D01*
X162184584Y-83388175D01*
X162323834Y-83148791D01*
X162506287Y-82953444D01*
X162728603Y-82804504D01*
X162987443Y-82704344D01*
X163279468Y-82655333D01*
X163522025Y-82653780D01*
X163874550Y-82703595D01*
X164207176Y-82808864D01*
X164513708Y-82965050D01*
X164787952Y-83167612D01*
X165023716Y-83412012D01*
X165214804Y-83693710D01*
X165349863Y-83993289D01*
X165434264Y-84308442D01*
X165467891Y-84621248D01*
X165451949Y-84923255D01*
G36*
X165410807Y-80905941D02*
G01*
X165408930Y-81198180D01*
X165402414Y-81435238D01*
X165389476Y-81625370D01*
X165368336Y-81776831D01*
X165337214Y-81897874D01*
X165294328Y-81996755D01*
X165237898Y-82081728D01*
X165166142Y-82161048D01*
X165133224Y-82192601D01*
X164980864Y-82292814D01*
X164798772Y-82344246D01*
X164599034Y-82345900D01*
X164393733Y-82296783D01*
X164308196Y-82260504D01*
X164222303Y-82206485D01*
X164127062Y-82127867D01*
X164036255Y-82038662D01*
X163963669Y-81952884D01*
X163923087Y-81884544D01*
X163918900Y-81864778D01*
X163906406Y-81813018D01*
X163873756Y-81814731D01*
X163828205Y-81866110D01*
X163791529Y-81931643D01*
X163681782Y-82091504D01*
X163534224Y-82204966D01*
X163356531Y-82269931D01*
X163156383Y-82284302D01*
X162941458Y-82245984D01*
X162813064Y-82198794D01*
X162620672Y-82092825D01*
X162462397Y-81954832D01*
X162332110Y-81776790D01*
X162223686Y-81550674D01*
X162147934Y-81327625D01*
X162142442Y-81279651D01*
X162136661Y-81177341D01*
X162130905Y-81029853D01*
X162125488Y-80846347D01*
X162120722Y-80635982D01*
X162117241Y-80430687D01*
X162113834Y-80179215D01*
X162111957Y-79984103D01*
X162112018Y-79838222D01*
X162114421Y-79734441D01*
X162119572Y-79665630D01*
X162127875Y-79624661D01*
X162139735Y-79604402D01*
X162155559Y-79597724D01*
X162164604Y-79597250D01*
X162218913Y-79602846D01*
X162320065Y-79617997D01*
X162452547Y-79640248D01*
X162571339Y-79661635D01*
X162655432Y-79677000D01*
X162655432Y-80327500D01*
X162651609Y-80357325D01*
X162649834Y-80439163D01*
X162650148Y-80561561D01*
X162652597Y-80713062D01*
X162653793Y-80764062D01*
X162659359Y-80944332D01*
X162666849Y-81074443D01*
X162678289Y-81167736D01*
X162695703Y-81237550D01*
X162721116Y-81297226D01*
X162739956Y-81331819D01*
X162852846Y-81468956D01*
X163001856Y-81560070D01*
X163173177Y-81597078D01*
X163193846Y-81597500D01*
X163319028Y-81585379D01*
X163414678Y-81544775D01*
X163484146Y-81469327D01*
X163530784Y-81352672D01*
X163557944Y-81188448D01*
X163568977Y-80970294D01*
X163569650Y-80884144D01*
X163569057Y-80733572D01*
X163567436Y-80609102D01*
X163565028Y-80522749D01*
X163562071Y-80486524D01*
X163561713Y-80486115D01*
X163529359Y-80480786D01*
X163445886Y-80466237D01*
X163322675Y-80444473D01*
X163171106Y-80417498D01*
X163110914Y-80406740D01*
X162951343Y-80378339D01*
X162815495Y-80354446D01*
X162714907Y-80337069D01*
X162661119Y-80328214D01*
X162655432Y-80327500D01*
X162655432Y-79677000D01*
X162724951Y-79689703D01*
X162866667Y-79714887D01*
X162978033Y-79733945D01*
X163029900Y-79742177D01*
X163130207Y-79758601D01*
X163252337Y-79780996D01*
X163299775Y-79790317D01*
X163419139Y-79812971D01*
X163533357Y-79832468D01*
X163569650Y-79837942D01*
X163669946Y-79854052D01*
X163792067Y-79876261D01*
X163839525Y-79885567D01*
X163958889Y-79908221D01*
X164063418Y-79926064D01*
X164063418Y-80581500D01*
X164049464Y-80610606D01*
X164043519Y-80688639D01*
X164044568Y-80801669D01*
X164051597Y-80935767D01*
X164063591Y-81077004D01*
X164079537Y-81211450D01*
X164098421Y-81325177D01*
X164119227Y-81404255D01*
X164124188Y-81416098D01*
X164217178Y-81542240D01*
X164349831Y-81629219D01*
X164504970Y-81666189D01*
X164521022Y-81666717D01*
X164643036Y-81654930D01*
X164735074Y-81611605D01*
X164800521Y-81530517D01*
X164842764Y-81405442D01*
X164865187Y-81230152D01*
X164871223Y-81022853D01*
X164871400Y-80718081D01*
X164480596Y-80649790D01*
X164329506Y-80623738D01*
X164201163Y-80602268D01*
X164108495Y-80587494D01*
X164064426Y-80581532D01*
X164063418Y-80581500D01*
X164063418Y-79926064D01*
X164073107Y-79927718D01*
X164109400Y-79933192D01*
X164209696Y-79949302D01*
X164331817Y-79971511D01*
X164379275Y-79980817D01*
X164498639Y-80003471D01*
X164612857Y-80022968D01*
X164649150Y-80028442D01*
X164749419Y-80044611D01*
X164871510Y-80066975D01*
X164919025Y-80076376D01*
X165043312Y-80099594D01*
X165166882Y-80119544D01*
X165204775Y-80124751D01*
X165295896Y-80138165D01*
X165362351Y-80151226D01*
X165371463Y-80153795D01*
X165384841Y-80173625D01*
X165395079Y-80227223D01*
X165402486Y-80320494D01*
X165407371Y-80459345D01*
X165410043Y-80649683D01*
X165410810Y-80897414D01*
X165410807Y-80905941D01*
G37*
X165410807Y-80905941D02*
X165408930Y-81198180D01*
X165402414Y-81435238D01*
X165389476Y-81625370D01*
X165368336Y-81776831D01*
X165337214Y-81897874D01*
X165294328Y-81996755D01*
X165237898Y-82081728D01*
X165166142Y-82161048D01*
X165133224Y-82192601D01*
X164980864Y-82292814D01*
X164798772Y-82344246D01*
X164599034Y-82345900D01*
X164393733Y-82296783D01*
X164308196Y-82260504D01*
X164222303Y-82206485D01*
X164127062Y-82127867D01*
X164036255Y-82038662D01*
X163963669Y-81952884D01*
X163923087Y-81884544D01*
X163918900Y-81864778D01*
X163906406Y-81813018D01*
X163873756Y-81814731D01*
X163828205Y-81866110D01*
X163791529Y-81931643D01*
X163681782Y-82091504D01*
X163534224Y-82204966D01*
X163356531Y-82269931D01*
X163156383Y-82284302D01*
X162941458Y-82245984D01*
X162813064Y-82198794D01*
X162620672Y-82092825D01*
X162462397Y-81954832D01*
X162332110Y-81776790D01*
X162223686Y-81550674D01*
X162147934Y-81327625D01*
X162142442Y-81279651D01*
X162136661Y-81177341D01*
X162130905Y-81029853D01*
X162125488Y-80846347D01*
X162120722Y-80635982D01*
X162117241Y-80430687D01*
X162113834Y-80179215D01*
X162111957Y-79984103D01*
X162112018Y-79838222D01*
X162114421Y-79734441D01*
X162119572Y-79665630D01*
X162127875Y-79624661D01*
X162139735Y-79604402D01*
X162155559Y-79597724D01*
X162164604Y-79597250D01*
X162218913Y-79602846D01*
X162320065Y-79617997D01*
X162452547Y-79640248D01*
X162571339Y-79661635D01*
X162655432Y-79677000D01*
X162655432Y-80327500D01*
X162651609Y-80357325D01*
X162649834Y-80439163D01*
X162650148Y-80561561D01*
X162652597Y-80713062D01*
X162653793Y-80764062D01*
X162659359Y-80944332D01*
X162666849Y-81074443D01*
X162678289Y-81167736D01*
X162695703Y-81237550D01*
X162721116Y-81297226D01*
X162739956Y-81331819D01*
X162852846Y-81468956D01*
X163001856Y-81560070D01*
X163173177Y-81597078D01*
X163193846Y-81597500D01*
X163319028Y-81585379D01*
X163414678Y-81544775D01*
X163484146Y-81469327D01*
X163530784Y-81352672D01*
X163557944Y-81188448D01*
X163568977Y-80970294D01*
X163569650Y-80884144D01*
X163569057Y-80733572D01*
X163567436Y-80609102D01*
X163565028Y-80522749D01*
X163562071Y-80486524D01*
X163561713Y-80486115D01*
X163529359Y-80480786D01*
X163445886Y-80466237D01*
X163322675Y-80444473D01*
X163171106Y-80417498D01*
X163110914Y-80406740D01*
X162951343Y-80378339D01*
X162815495Y-80354446D01*
X162714907Y-80337069D01*
X162661119Y-80328214D01*
X162655432Y-80327500D01*
X162655432Y-79677000D01*
X162724951Y-79689703D01*
X162866667Y-79714887D01*
X162978033Y-79733945D01*
X163029900Y-79742177D01*
X163130207Y-79758601D01*
X163252337Y-79780996D01*
X163299775Y-79790317D01*
X163419139Y-79812971D01*
X163533357Y-79832468D01*
X163569650Y-79837942D01*
X163669946Y-79854052D01*
X163792067Y-79876261D01*
X163839525Y-79885567D01*
X163958889Y-79908221D01*
X164063418Y-79926064D01*
X164063418Y-80581500D01*
X164049464Y-80610606D01*
X164043519Y-80688639D01*
X164044568Y-80801669D01*
X164051597Y-80935767D01*
X164063591Y-81077004D01*
X164079537Y-81211450D01*
X164098421Y-81325177D01*
X164119227Y-81404255D01*
X164124188Y-81416098D01*
X164217178Y-81542240D01*
X164349831Y-81629219D01*
X164504970Y-81666189D01*
X164521022Y-81666717D01*
X164643036Y-81654930D01*
X164735074Y-81611605D01*
X164800521Y-81530517D01*
X164842764Y-81405442D01*
X164865187Y-81230152D01*
X164871223Y-81022853D01*
X164871400Y-80718081D01*
X164480596Y-80649790D01*
X164329506Y-80623738D01*
X164201163Y-80602268D01*
X164108495Y-80587494D01*
X164064426Y-80581532D01*
X164063418Y-80581500D01*
X164063418Y-79926064D01*
X164073107Y-79927718D01*
X164109400Y-79933192D01*
X164209696Y-79949302D01*
X164331817Y-79971511D01*
X164379275Y-79980817D01*
X164498639Y-80003471D01*
X164612857Y-80022968D01*
X164649150Y-80028442D01*
X164749419Y-80044611D01*
X164871510Y-80066975D01*
X164919025Y-80076376D01*
X165043312Y-80099594D01*
X165166882Y-80119544D01*
X165204775Y-80124751D01*
X165295896Y-80138165D01*
X165362351Y-80151226D01*
X165371463Y-80153795D01*
X165384841Y-80173625D01*
X165395079Y-80227223D01*
X165402486Y-80320494D01*
X165407371Y-80459345D01*
X165410043Y-80649683D01*
X165410810Y-80897414D01*
X165410807Y-80905941D01*
D13*
X99269400Y-87249500D02*
X99269400Y-95249500D01*
X99269400Y-95249500D02*
X91569400Y-95249500D01*
X90069400Y-95949500D02*
X90069400Y-86549500D01*
X91569400Y-87249500D02*
X99269400Y-87249500D01*
X91569400Y-95249500D02*
X91569400Y-87249500D01*
X91569400Y-87249500D02*
X90069400Y-86549500D01*
X91569400Y-95249500D02*
X90069400Y-95949500D01*
X99269400Y-68961500D02*
X99269400Y-76961500D01*
X99269400Y-76961500D02*
X91569400Y-76961500D01*
X90069400Y-77661500D02*
X90069400Y-68261500D01*
X91569400Y-68961500D02*
X99269400Y-68961500D01*
X91569400Y-76961500D02*
X91569400Y-68961500D01*
X91569400Y-68961500D02*
X90069400Y-68261500D01*
X91569400Y-76961500D02*
X90069400Y-77661500D01*
X178022400Y-55115500D02*
X178022400Y-67455500D01*
X178022400Y-67455500D02*
X147052400Y-67455500D01*
X147052400Y-67455500D02*
X147052400Y-55115500D01*
X157247400Y-68349838D02*
X156747400Y-68349838D01*
X156747400Y-68349838D02*
X156997400Y-67916825D01*
X156997400Y-67916825D02*
X157247400Y-68349838D01*
X115439400Y-104837500D02*
X115439400Y-101537500D01*
X115439400Y-101537500D02*
X110039400Y-101537500D01*
X115439400Y-104837500D02*
X110039400Y-104837500D01*
X115947400Y-104837500D02*
X115947400Y-101537500D01*
D11*
X101301400Y-111059500D02*
X102691400Y-111059500D01*
X105131400Y-111059500D02*
X105231400Y-111059500D01*
X107671400Y-111059500D02*
X109061400Y-111059500D01*
X109061400Y-124779500D02*
X109061400Y-111059500D01*
X101301400Y-124779500D02*
X109061400Y-124779500D01*
X101301400Y-124779500D02*
X101301400Y-111059500D01*
D13*
X127660400Y-68135500D02*
G75*
G03*
X127660400Y-68135500I-381000J0D01*
G01*
X143281400Y-59157374D02*
X143281400Y-55128500D01*
X129057400Y-59833625D02*
X129057400Y-68971500D01*
X140799280Y-68971500D02*
X143281400Y-68971500D01*
X138259280Y-68971500D02*
X139159520Y-68971500D01*
X135719280Y-68971500D02*
X136619520Y-68971500D01*
X133179280Y-68971500D02*
X134079520Y-68971500D01*
X129057400Y-55128500D02*
X129057400Y-59157374D01*
X143281400Y-55128500D02*
X129057400Y-55128500D01*
X143281400Y-68971500D02*
X143281400Y-59833625D01*
X129057400Y-68971500D02*
X131539520Y-68971500D01*
X167748400Y-124035500D02*
X173678400Y-124035500D01*
X174948400Y-119765500D02*
X173148400Y-119765500D01*
X174948400Y-121215500D02*
X174948400Y-119765500D01*
X168278400Y-119765500D02*
X168278400Y-118775500D01*
X166478400Y-119765500D02*
X168278400Y-119765500D01*
X166478400Y-121215500D02*
X166478400Y-119765500D01*
X113455400Y-110953500D02*
X113455400Y-113303500D01*
X113455400Y-117773500D02*
X113455400Y-115423500D01*
X119210963Y-117773500D02*
X113455400Y-117773500D01*
X119210963Y-110953500D02*
X113455400Y-110953500D01*
X120275400Y-112017937D02*
X120275400Y-113303500D01*
X120275400Y-116709063D02*
X120275400Y-115423500D01*
X120275400Y-116709063D02*
X119210963Y-117773500D01*
X120275400Y-112017937D02*
X119210963Y-110953500D01*
X121302900Y-116211000D02*
X120515400Y-116211000D01*
X120909150Y-116604750D02*
X120909150Y-115817250D01*
D11*
X175856400Y-114563500D02*
X175856400Y-113043500D01*
X175856400Y-105523500D02*
X175856400Y-104003500D01*
X189576400Y-104003500D02*
X175856400Y-104003500D01*
X189576400Y-114563500D02*
X189576400Y-104003500D01*
X189576400Y-114563500D02*
X175856400Y-114563500D01*
X175856400Y-102371500D02*
X175856400Y-100851500D01*
X175856400Y-93331500D02*
X175856400Y-91811500D01*
X189576400Y-91811500D02*
X175856400Y-91811500D01*
X189576400Y-102371500D02*
X189576400Y-91811500D01*
X189576400Y-102371500D02*
X175856400Y-102371500D01*
D13*
X115849400Y-68897500D02*
X115849400Y-67627500D01*
X117119400Y-68897500D02*
X115849400Y-68897500D01*
X122579400Y-66584571D02*
X122579400Y-66130429D01*
X121819400Y-66584571D02*
X121819400Y-66130429D01*
X122579400Y-64044571D02*
X122579400Y-63647500D01*
X121819400Y-64044571D02*
X121819400Y-63647500D01*
X122579400Y-54987500D02*
X122579400Y-60987500D01*
X121819400Y-54987500D02*
X122579400Y-54987500D01*
X121819400Y-60987500D02*
X121819400Y-54987500D01*
X120929400Y-63647500D02*
X120929400Y-60987500D01*
X120039400Y-66584571D02*
X120039400Y-66130429D01*
X119279400Y-66584571D02*
X119279400Y-66130429D01*
X120039400Y-64044571D02*
X120039400Y-63647500D01*
X119279400Y-64044571D02*
X119279400Y-63647500D01*
X120039400Y-54987500D02*
X120039400Y-60987500D01*
X119279400Y-54987500D02*
X120039400Y-54987500D01*
X119279400Y-60987500D02*
X119279400Y-54987500D01*
X118389400Y-63647500D02*
X118389400Y-60987500D01*
X117499400Y-66517500D02*
X117499400Y-66130429D01*
X116739400Y-66517500D02*
X116739400Y-66130429D01*
X117499400Y-64044571D02*
X117499400Y-63647500D01*
X116739400Y-64044571D02*
X116739400Y-63647500D01*
X117399400Y-60987500D02*
X117399400Y-54987500D01*
X117279400Y-60987500D02*
X117279400Y-54987500D01*
X117159400Y-60987500D02*
X117159400Y-54987500D01*
X117039400Y-60987500D02*
X117039400Y-54987500D01*
X116919400Y-60987500D02*
X116919400Y-54987500D01*
X116799400Y-60987500D02*
X116799400Y-54987500D01*
X117499400Y-54987500D02*
X117499400Y-60987500D01*
X116739400Y-54987500D02*
X117499400Y-54987500D01*
X116739400Y-60987500D02*
X116739400Y-54987500D01*
X115789400Y-60987500D02*
X115789400Y-63647500D01*
X123529400Y-60987500D02*
X115789400Y-60987500D01*
X123529400Y-63647500D02*
X123529400Y-60987500D01*
X115789400Y-63647500D02*
X123529400Y-63647500D01*
D11*
X92205400Y-111431500D02*
X95805400Y-111431500D01*
X95805400Y-111431500D02*
X96305400Y-111931500D01*
X96305400Y-111931500D02*
X96305400Y-112731500D01*
X96305400Y-112731500D02*
X95805400Y-113231500D01*
X95805400Y-113231500D02*
X92205400Y-113231500D01*
X92205400Y-113231500D02*
X91705400Y-112731500D01*
X91705400Y-112731500D02*
X91705400Y-111931500D01*
X91705400Y-111931500D02*
X92205400Y-111431500D01*
D13*
X178333400Y-83121500D02*
X179603400Y-83121500D01*
X178333400Y-84391500D02*
X178333400Y-83121500D01*
X180646329Y-87311500D02*
X181043400Y-87311500D01*
X180646329Y-86551500D02*
X181043400Y-86551500D01*
X189703400Y-87311500D02*
X183703400Y-87311500D01*
X189703400Y-86551500D02*
X189703400Y-87311500D01*
X183703400Y-86551500D02*
X189703400Y-86551500D01*
X181043400Y-85661500D02*
X183703400Y-85661500D01*
X180713400Y-84771500D02*
X181043400Y-84771500D01*
X180713400Y-84011500D02*
X181043400Y-84011500D01*
X183703400Y-84671500D02*
X189703400Y-84671500D01*
X183703400Y-84551500D02*
X189703400Y-84551500D01*
X183703400Y-84431500D02*
X189703400Y-84431500D01*
X183703400Y-84311500D02*
X189703400Y-84311500D01*
X183703400Y-84191500D02*
X189703400Y-84191500D01*
X183703400Y-84071500D02*
X189703400Y-84071500D01*
X189703400Y-84771500D02*
X183703400Y-84771500D01*
X189703400Y-84011500D02*
X189703400Y-84771500D01*
X183703400Y-84011500D02*
X189703400Y-84011500D01*
X183703400Y-83061500D02*
X181043400Y-83061500D01*
X183703400Y-88261500D02*
X183703400Y-83061500D01*
X181043400Y-88261500D02*
X183703400Y-88261500D01*
X181043400Y-83061500D02*
X181043400Y-88261500D01*
X102044500Y-102727760D02*
X102044500Y-102323900D01*
X92062300Y-107203240D02*
X92062300Y-107607100D01*
X92062300Y-102323900D02*
X92062300Y-102727760D01*
X102044500Y-102323900D02*
X92062300Y-102323900D01*
X102044500Y-107607100D02*
X102044500Y-107203240D01*
X92062300Y-107607100D02*
X102044500Y-107607100D01*
X126069400Y-107505500D02*
X123409400Y-107505500D01*
X126069400Y-107505500D02*
X126069400Y-79505500D01*
X126069400Y-79505500D02*
X123409400Y-79505500D01*
X123409400Y-107505500D02*
X123409400Y-79505500D01*
X123409400Y-110105500D02*
X123409400Y-108775500D01*
X124739400Y-110105500D02*
X123409400Y-110105500D01*
X153501400Y-117157500D02*
X150841400Y-117157500D01*
X153501400Y-117157500D02*
X153501400Y-81537500D01*
X153501400Y-81537500D02*
X150841400Y-81537500D01*
X150841400Y-117157500D02*
X150841400Y-81537500D01*
X150841400Y-119757500D02*
X150841400Y-118427500D01*
X152171400Y-119757500D02*
X150841400Y-119757500D01*
D14*
X179079400Y-73011500D02*
X179079400Y-80511500D01*
X179079400Y-73011500D02*
X171729400Y-73011500D01*
X179079400Y-80511500D02*
X171729400Y-80511500D01*
X171729400Y-80511500D02*
G75*
G02*
X171729400Y-73011500I0J3750000D01*
G01*
D13*
X108169400Y-63647500D02*
X113369400Y-63647500D01*
X113369400Y-63647500D02*
X113369400Y-60987500D01*
X113369400Y-60987500D02*
X108169400Y-60987500D01*
X108169400Y-60987500D02*
X108169400Y-63647500D01*
X109119400Y-60987500D02*
X109119400Y-54987500D01*
X109119400Y-54987500D02*
X109879400Y-54987500D01*
X109879400Y-54987500D02*
X109879400Y-60987500D01*
X109179400Y-60987500D02*
X109179400Y-54987500D01*
X109299400Y-60987500D02*
X109299400Y-54987500D01*
X109419400Y-60987500D02*
X109419400Y-54987500D01*
X109539400Y-60987500D02*
X109539400Y-54987500D01*
X109659400Y-60987500D02*
X109659400Y-54987500D01*
X109779400Y-60987500D02*
X109779400Y-54987500D01*
X109119400Y-64044571D02*
X109119400Y-63647500D01*
X109879400Y-64044571D02*
X109879400Y-63647500D01*
X109119400Y-66517500D02*
X109119400Y-66130429D01*
X109879400Y-66517500D02*
X109879400Y-66130429D01*
X110769400Y-63647500D02*
X110769400Y-60987500D01*
X111659400Y-60987500D02*
X111659400Y-54987500D01*
X111659400Y-54987500D02*
X112419400Y-54987500D01*
X112419400Y-54987500D02*
X112419400Y-60987500D01*
X111659400Y-64044571D02*
X111659400Y-63647500D01*
X112419400Y-64044571D02*
X112419400Y-63647500D01*
X111659400Y-66584571D02*
X111659400Y-66130429D01*
X112419400Y-66584571D02*
X112419400Y-66130429D01*
X109499400Y-68897500D02*
X108229400Y-68897500D01*
X108229400Y-68897500D02*
X108229400Y-67627500D01*
D11*
X177687400Y-123021500D02*
X177687400Y-119421500D01*
X177687400Y-119421500D02*
X178187400Y-118921500D01*
X178187400Y-118921500D02*
X178987400Y-118921500D01*
X178987400Y-118921500D02*
X179487400Y-119421500D01*
X179487400Y-119421500D02*
X179487400Y-123021500D01*
X179487400Y-123021500D02*
X178987400Y-123521500D01*
X178987400Y-123521500D02*
X178187400Y-123521500D01*
X178187400Y-123521500D02*
X177687400Y-123021500D01*
X124753400Y-121875500D02*
X124253400Y-122375500D01*
X124753400Y-121075500D02*
X124753400Y-121875500D01*
X124253400Y-120575500D02*
X124753400Y-121075500D01*
X120653400Y-120575500D02*
X124253400Y-120575500D01*
X120153400Y-121075500D02*
X120653400Y-120575500D01*
X120153400Y-121875500D02*
X120153400Y-121075500D01*
X120653400Y-122375500D02*
X120153400Y-121875500D01*
X124253400Y-122375500D02*
X120653400Y-122375500D01*
X187237400Y-68535500D02*
X186737400Y-69035500D01*
X187237400Y-67735500D02*
X187237400Y-68535500D01*
X186737400Y-67235500D02*
X187237400Y-67735500D01*
X183137400Y-67235500D02*
X186737400Y-67235500D01*
X182637400Y-67735500D02*
X183137400Y-67235500D01*
X182637400Y-68535500D02*
X182637400Y-67735500D01*
X183137400Y-69035500D02*
X182637400Y-68535500D01*
X186737400Y-69035500D02*
X183137400Y-69035500D01*
D13*
X157743400Y-123927500D02*
X162243400Y-123927500D01*
X156493400Y-119927500D02*
X156493400Y-121427500D01*
X162243400Y-117427500D02*
X157743400Y-117427500D01*
X163493400Y-121427500D02*
X163493400Y-119927500D01*
X142800400Y-104430564D02*
X142800400Y-103976436D01*
X144270400Y-104430564D02*
X144270400Y-103976436D01*
X109780336Y-92800500D02*
X110234464Y-92800500D01*
X109780336Y-94270500D02*
X110234464Y-94270500D01*
X142800400Y-109002564D02*
X142800400Y-108548436D01*
X144270400Y-109002564D02*
X144270400Y-108548436D01*
X116772400Y-92575500D02*
X114087400Y-92575500D01*
X116772400Y-94495500D02*
X116772400Y-92575500D01*
X114087400Y-94495500D02*
X116772400Y-94495500D01*
X136433400Y-111411500D02*
X136433400Y-98811500D01*
X131333400Y-111411500D02*
X136433400Y-111411500D01*
X131333400Y-98811500D02*
X131333400Y-111411500D01*
X163574464Y-98896500D02*
X163120336Y-98896500D01*
X163574464Y-100366500D02*
X163120336Y-100366500D01*
X163120336Y-106462500D02*
X163574464Y-106462500D01*
X163120336Y-104992500D02*
X163574464Y-104992500D01*
X163120336Y-112558500D02*
X163574464Y-112558500D01*
X163120336Y-111088500D02*
X163574464Y-111088500D01*
X170112400Y-98671500D02*
X167427400Y-98671500D01*
X170112400Y-100591500D02*
X170112400Y-98671500D01*
X167427400Y-100591500D02*
X170112400Y-100591500D01*
X170112400Y-104767500D02*
X167427400Y-104767500D01*
X170112400Y-106687500D02*
X170112400Y-104767500D01*
X167427400Y-106687500D02*
X170112400Y-106687500D01*
X170112400Y-110863500D02*
X167427400Y-110863500D01*
X170112400Y-112783500D02*
X170112400Y-110863500D01*
X167427400Y-112783500D02*
X170112400Y-112783500D01*
X142258148Y-99858500D02*
X142780652Y-99858500D01*
X142258148Y-98388500D02*
X142780652Y-98388500D01*
X142258148Y-114590500D02*
X142780652Y-114590500D01*
X142258148Y-113120500D02*
X142780652Y-113120500D01*
D11*
X95926542Y-91939976D02*
X95974161Y-91987595D01*
X96021780Y-92130452D01*
X96021780Y-92225690D01*
X95974161Y-92368547D01*
X95878923Y-92463785D01*
X95783685Y-92511404D01*
X95593209Y-92559023D01*
X95450352Y-92559023D01*
X95259876Y-92511404D01*
X95164638Y-92463785D01*
X95069400Y-92368547D01*
X95021780Y-92225690D01*
X95021780Y-92130452D01*
X95069400Y-91987595D01*
X95117019Y-91939976D01*
X96021780Y-91511404D02*
X95021780Y-91511404D01*
X96021780Y-90939976D01*
X95021780Y-90939976D01*
X95021780Y-89987595D02*
X95021780Y-90463785D01*
X95497971Y-90511404D01*
X95450352Y-90463785D01*
X95402733Y-90368547D01*
X95402733Y-90130452D01*
X95450352Y-90035214D01*
X95497971Y-89987595D01*
X95593209Y-89939976D01*
X95831304Y-89939976D01*
X95926542Y-89987595D01*
X95974161Y-90035214D01*
X96021780Y-90130452D01*
X96021780Y-90368547D01*
X95974161Y-90463785D01*
X95926542Y-90511404D01*
X92196066Y-85621880D02*
X92767495Y-85621880D01*
X92481780Y-86621880D02*
X92481780Y-85621880D01*
X93100828Y-86621880D02*
X93100828Y-85621880D01*
X93100828Y-86098071D02*
X93672257Y-86098071D01*
X93672257Y-86621880D02*
X93672257Y-85621880D01*
X94148447Y-86098071D02*
X94481780Y-86098071D01*
X94624638Y-86621880D02*
X94148447Y-86621880D01*
X94148447Y-85621880D01*
X94624638Y-85621880D01*
X95624638Y-86621880D02*
X95291304Y-86145690D01*
X95053209Y-86621880D02*
X95053209Y-85621880D01*
X95434161Y-85621880D01*
X95529400Y-85669500D01*
X95577019Y-85717119D01*
X95624638Y-85812357D01*
X95624638Y-85955214D01*
X95577019Y-86050452D01*
X95529400Y-86098071D01*
X95434161Y-86145690D01*
X95053209Y-86145690D01*
X96053209Y-86621880D02*
X96053209Y-85621880D01*
X96386542Y-86336166D01*
X96719876Y-85621880D01*
X96719876Y-86621880D01*
X97386542Y-85621880D02*
X97577019Y-85621880D01*
X97672257Y-85669500D01*
X97767495Y-85764738D01*
X97815114Y-85955214D01*
X97815114Y-86288547D01*
X97767495Y-86479023D01*
X97672257Y-86574261D01*
X97577019Y-86621880D01*
X97386542Y-86621880D01*
X97291304Y-86574261D01*
X97196066Y-86479023D01*
X97148447Y-86288547D01*
X97148447Y-85955214D01*
X97196066Y-85764738D01*
X97291304Y-85669500D01*
X97386542Y-85621880D01*
X98767495Y-86621880D02*
X98196066Y-86621880D01*
X98481780Y-86621880D02*
X98481780Y-85621880D01*
X98386542Y-85764738D01*
X98291304Y-85859976D01*
X98196066Y-85907595D01*
X100172828Y-89852452D02*
X100172828Y-89090547D01*
X100553780Y-89471500D02*
X99791876Y-89471500D01*
X100172828Y-93408452D02*
X100172828Y-92646547D01*
X95926542Y-73651976D02*
X95974161Y-73699595D01*
X96021780Y-73842452D01*
X96021780Y-73937690D01*
X95974161Y-74080547D01*
X95878923Y-74175785D01*
X95783685Y-74223404D01*
X95593209Y-74271023D01*
X95450352Y-74271023D01*
X95259876Y-74223404D01*
X95164638Y-74175785D01*
X95069400Y-74080547D01*
X95021780Y-73937690D01*
X95021780Y-73842452D01*
X95069400Y-73699595D01*
X95117019Y-73651976D01*
X96021780Y-73223404D02*
X95021780Y-73223404D01*
X96021780Y-72651976D01*
X95021780Y-72651976D01*
X95021780Y-71747214D02*
X95021780Y-71937690D01*
X95069400Y-72032928D01*
X95117019Y-72080547D01*
X95259876Y-72175785D01*
X95450352Y-72223404D01*
X95831304Y-72223404D01*
X95926542Y-72175785D01*
X95974161Y-72128166D01*
X96021780Y-72032928D01*
X96021780Y-71842452D01*
X95974161Y-71747214D01*
X95926542Y-71699595D01*
X95831304Y-71651976D01*
X95593209Y-71651976D01*
X95497971Y-71699595D01*
X95450352Y-71747214D01*
X95402733Y-71842452D01*
X95402733Y-72032928D01*
X95450352Y-72128166D01*
X95497971Y-72175785D01*
X95593209Y-72223404D01*
X92196066Y-67333880D02*
X92767495Y-67333880D01*
X92481780Y-68333880D02*
X92481780Y-67333880D01*
X93100828Y-68333880D02*
X93100828Y-67333880D01*
X93100828Y-67810071D02*
X93672257Y-67810071D01*
X93672257Y-68333880D02*
X93672257Y-67333880D01*
X94148447Y-67810071D02*
X94481780Y-67810071D01*
X94624638Y-68333880D02*
X94148447Y-68333880D01*
X94148447Y-67333880D01*
X94624638Y-67333880D01*
X95624638Y-68333880D02*
X95291304Y-67857690D01*
X95053209Y-68333880D02*
X95053209Y-67333880D01*
X95434161Y-67333880D01*
X95529400Y-67381500D01*
X95577019Y-67429119D01*
X95624638Y-67524357D01*
X95624638Y-67667214D01*
X95577019Y-67762452D01*
X95529400Y-67810071D01*
X95434161Y-67857690D01*
X95053209Y-67857690D01*
X96053209Y-68333880D02*
X96053209Y-67333880D01*
X96386542Y-68048166D01*
X96719876Y-67333880D01*
X96719876Y-68333880D01*
X97386542Y-67333880D02*
X97577019Y-67333880D01*
X97672257Y-67381500D01*
X97767495Y-67476738D01*
X97815114Y-67667214D01*
X97815114Y-68000547D01*
X97767495Y-68191023D01*
X97672257Y-68286261D01*
X97577019Y-68333880D01*
X97386542Y-68333880D01*
X97291304Y-68286261D01*
X97196066Y-68191023D01*
X97148447Y-68000547D01*
X97148447Y-67667214D01*
X97196066Y-67476738D01*
X97291304Y-67381500D01*
X97386542Y-67333880D01*
X98196066Y-67429119D02*
X98243685Y-67381500D01*
X98338923Y-67333880D01*
X98577019Y-67333880D01*
X98672257Y-67381500D01*
X98719876Y-67429119D01*
X98767495Y-67524357D01*
X98767495Y-67619595D01*
X98719876Y-67762452D01*
X98148447Y-68333880D01*
X98767495Y-68333880D01*
X100172828Y-71564452D02*
X100172828Y-70802547D01*
X100553780Y-71183500D02*
X99791876Y-71183500D01*
X100172828Y-75120452D02*
X100172828Y-74358547D01*
X162148923Y-59602642D02*
X162101304Y-59650261D01*
X161958447Y-59697880D01*
X161863209Y-59697880D01*
X161720352Y-59650261D01*
X161625114Y-59555023D01*
X161577495Y-59459785D01*
X161529876Y-59269309D01*
X161529876Y-59126452D01*
X161577495Y-58935976D01*
X161625114Y-58840738D01*
X161720352Y-58745500D01*
X161863209Y-58697880D01*
X161958447Y-58697880D01*
X162101304Y-58745500D01*
X162148923Y-58793119D01*
X162577495Y-59697880D02*
X162577495Y-58697880D01*
X163148923Y-59697880D01*
X163148923Y-58697880D01*
X163529876Y-58697880D02*
X164148923Y-58697880D01*
X163815590Y-59078833D01*
X163958447Y-59078833D01*
X164053685Y-59126452D01*
X164101304Y-59174071D01*
X164148923Y-59269309D01*
X164148923Y-59507404D01*
X164101304Y-59602642D01*
X164053685Y-59650261D01*
X163958447Y-59697880D01*
X163672733Y-59697880D01*
X163577495Y-59650261D01*
X163529876Y-59602642D01*
X169118161Y-69349880D02*
X168784828Y-68873690D01*
X168546733Y-69349880D02*
X168546733Y-68349880D01*
X168927685Y-68349880D01*
X169022923Y-68397500D01*
X169070542Y-68445119D01*
X169118161Y-68540357D01*
X169118161Y-68683214D01*
X169070542Y-68778452D01*
X169022923Y-68826071D01*
X168927685Y-68873690D01*
X168546733Y-68873690D01*
X169499114Y-69302261D02*
X169641971Y-69349880D01*
X169880066Y-69349880D01*
X169975304Y-69302261D01*
X170022923Y-69254642D01*
X170070542Y-69159404D01*
X170070542Y-69064166D01*
X170022923Y-68968928D01*
X169975304Y-68921309D01*
X169880066Y-68873690D01*
X169689590Y-68826071D01*
X169594352Y-68778452D01*
X169546733Y-68730833D01*
X169499114Y-68635595D01*
X169499114Y-68540357D01*
X169546733Y-68445119D01*
X169594352Y-68397500D01*
X169689590Y-68349880D01*
X169927685Y-68349880D01*
X170070542Y-68397500D01*
X170451495Y-68445119D02*
X170499114Y-68397500D01*
X170594352Y-68349880D01*
X170832447Y-68349880D01*
X170927685Y-68397500D01*
X170975304Y-68445119D01*
X171022923Y-68540357D01*
X171022923Y-68635595D01*
X170975304Y-68778452D01*
X170403876Y-69349880D01*
X171022923Y-69349880D01*
X171356257Y-68349880D02*
X171975304Y-68349880D01*
X171641971Y-68730833D01*
X171784828Y-68730833D01*
X171880066Y-68778452D01*
X171927685Y-68826071D01*
X171975304Y-68921309D01*
X171975304Y-69159404D01*
X171927685Y-69254642D01*
X171880066Y-69302261D01*
X171784828Y-69349880D01*
X171499114Y-69349880D01*
X171403876Y-69302261D01*
X171356257Y-69254642D01*
X172356257Y-68445119D02*
X172403876Y-68397500D01*
X172499114Y-68349880D01*
X172737209Y-68349880D01*
X172832447Y-68397500D01*
X172880066Y-68445119D01*
X172927685Y-68540357D01*
X172927685Y-68635595D01*
X172880066Y-68778452D01*
X172308638Y-69349880D01*
X172927685Y-69349880D01*
X159243780Y-72326261D02*
X159243780Y-71754833D01*
X160243780Y-72040547D02*
X159243780Y-72040547D01*
X159243780Y-71516738D02*
X160243780Y-70850071D01*
X159243780Y-70850071D02*
X160243780Y-71516738D01*
X160624733Y-70183404D02*
X160577114Y-70231023D01*
X160434257Y-70326261D01*
X160339019Y-70373880D01*
X160196161Y-70421500D01*
X159958066Y-70469119D01*
X159767590Y-70469119D01*
X159529495Y-70421500D01*
X159386638Y-70373880D01*
X159291400Y-70326261D01*
X159148542Y-70231023D01*
X159100923Y-70183404D01*
X159339019Y-69850071D02*
X159291400Y-69802452D01*
X159243780Y-69707214D01*
X159243780Y-69469119D01*
X159291400Y-69373880D01*
X159339019Y-69326261D01*
X159434257Y-69278642D01*
X159529495Y-69278642D01*
X159672352Y-69326261D01*
X160243780Y-69897690D01*
X160243780Y-69278642D01*
X160624733Y-68945309D02*
X160577114Y-68897690D01*
X160434257Y-68802452D01*
X160339019Y-68754833D01*
X160196161Y-68707214D01*
X159958066Y-68659595D01*
X159767590Y-68659595D01*
X159529495Y-68707214D01*
X159386638Y-68754833D01*
X159291400Y-68802452D01*
X159148542Y-68897690D01*
X159100923Y-68945309D01*
X163037780Y-71731023D02*
X162561590Y-72064357D01*
X163037780Y-72302452D02*
X162037780Y-72302452D01*
X162037780Y-71921500D01*
X162085400Y-71826261D01*
X162133019Y-71778642D01*
X162228257Y-71731023D01*
X162371114Y-71731023D01*
X162466352Y-71778642D01*
X162513971Y-71826261D01*
X162561590Y-71921500D01*
X162561590Y-72302452D01*
X162037780Y-71397690D02*
X163037780Y-70731023D01*
X162037780Y-70731023D02*
X163037780Y-71397690D01*
X163418733Y-70064357D02*
X163371114Y-70111976D01*
X163228257Y-70207214D01*
X163133019Y-70254833D01*
X162990161Y-70302452D01*
X162752066Y-70350071D01*
X162561590Y-70350071D01*
X162323495Y-70302452D01*
X162180638Y-70254833D01*
X162085400Y-70207214D01*
X161942542Y-70111976D01*
X161894923Y-70064357D01*
X162037780Y-69778642D02*
X162037780Y-69159595D01*
X162418733Y-69492928D01*
X162418733Y-69350071D01*
X162466352Y-69254833D01*
X162513971Y-69207214D01*
X162609209Y-69159595D01*
X162847304Y-69159595D01*
X162942542Y-69207214D01*
X162990161Y-69254833D01*
X163037780Y-69350071D01*
X163037780Y-69635785D01*
X162990161Y-69731023D01*
X162942542Y-69778642D01*
X163418733Y-68826261D02*
X163371114Y-68778642D01*
X163228257Y-68683404D01*
X163133019Y-68635785D01*
X162990161Y-68588166D01*
X162752066Y-68540547D01*
X162561590Y-68540547D01*
X162323495Y-68588166D01*
X162180638Y-68635785D01*
X162085400Y-68683404D01*
X161942542Y-68778642D01*
X161894923Y-68826261D01*
X111301304Y-106139880D02*
X111301304Y-105139880D01*
X111539400Y-105139880D01*
X111682257Y-105187500D01*
X111777495Y-105282738D01*
X111825114Y-105377976D01*
X111872733Y-105568452D01*
X111872733Y-105711309D01*
X111825114Y-105901785D01*
X111777495Y-105997023D01*
X111682257Y-106092261D01*
X111539400Y-106139880D01*
X111301304Y-106139880D01*
X112825114Y-106139880D02*
X112253685Y-106139880D01*
X112539400Y-106139880D02*
X112539400Y-105139880D01*
X112444161Y-105282738D01*
X112348923Y-105377976D01*
X112253685Y-105425595D01*
X104818423Y-116752642D02*
X104770804Y-116800261D01*
X104627947Y-116847880D01*
X104532709Y-116847880D01*
X104389852Y-116800261D01*
X104294614Y-116705023D01*
X104246995Y-116609785D01*
X104199376Y-116419309D01*
X104199376Y-116276452D01*
X104246995Y-116085976D01*
X104294614Y-115990738D01*
X104389852Y-115895500D01*
X104532709Y-115847880D01*
X104627947Y-115847880D01*
X104770804Y-115895500D01*
X104818423Y-115943119D01*
X105246995Y-116847880D02*
X105246995Y-115847880D01*
X105818423Y-116847880D01*
X105818423Y-115847880D01*
X106818423Y-116847880D02*
X106246995Y-116847880D01*
X106532709Y-116847880D02*
X106532709Y-115847880D01*
X106437471Y-115990738D01*
X106342233Y-116085976D01*
X106246995Y-116133595D01*
X100421923Y-123023690D02*
X100421923Y-123749404D01*
X100421923Y-123386547D02*
X99151923Y-123386547D01*
X99333352Y-123507500D01*
X99454304Y-123628452D01*
X99514780Y-123749404D01*
X99272876Y-122539880D02*
X99212400Y-122479404D01*
X99151923Y-122358452D01*
X99151923Y-122056071D01*
X99212400Y-121935119D01*
X99272876Y-121874642D01*
X99393828Y-121814166D01*
X99514780Y-121814166D01*
X99696209Y-121874642D01*
X100421923Y-122600357D01*
X100421923Y-121814166D01*
X99151923Y-121451309D02*
X100421923Y-121027976D01*
X99151923Y-120604642D01*
X105951400Y-109791404D02*
X105903780Y-109886642D01*
X105903780Y-110029500D01*
X105951400Y-110172357D01*
X106046638Y-110267595D01*
X106141876Y-110315214D01*
X106332352Y-110362833D01*
X106475209Y-110362833D01*
X106665685Y-110315214D01*
X106760923Y-110267595D01*
X106856161Y-110172357D01*
X106903780Y-110029500D01*
X106903780Y-109934261D01*
X106856161Y-109791404D01*
X106808542Y-109743785D01*
X106475209Y-109743785D01*
X106475209Y-109934261D01*
X106903780Y-109315214D02*
X105903780Y-109315214D01*
X106903780Y-108743785D01*
X105903780Y-108743785D01*
X106903780Y-108267595D02*
X105903780Y-108267595D01*
X105903780Y-108029500D01*
X105951400Y-107886642D01*
X106046638Y-107791404D01*
X106141876Y-107743785D01*
X106332352Y-107696166D01*
X106475209Y-107696166D01*
X106665685Y-107743785D01*
X106760923Y-107791404D01*
X106856161Y-107886642D01*
X106903780Y-108029500D01*
X106903780Y-108267595D01*
X104363780Y-109854928D02*
X104363780Y-110426357D01*
X104363780Y-110140642D02*
X103363780Y-110140642D01*
X103506638Y-110235880D01*
X103601876Y-110331119D01*
X103649495Y-110426357D01*
X103459019Y-109473976D02*
X103411400Y-109426357D01*
X103363780Y-109331119D01*
X103363780Y-109093023D01*
X103411400Y-108997785D01*
X103459019Y-108950166D01*
X103554257Y-108902547D01*
X103649495Y-108902547D01*
X103792352Y-108950166D01*
X104363780Y-109521595D01*
X104363780Y-108902547D01*
X103697114Y-108569214D02*
X104363780Y-108331119D01*
X103697114Y-108093023D01*
X135478923Y-62396642D02*
X135431304Y-62444261D01*
X135288447Y-62491880D01*
X135193209Y-62491880D01*
X135050352Y-62444261D01*
X134955114Y-62349023D01*
X134907495Y-62253785D01*
X134859876Y-62063309D01*
X134859876Y-61920452D01*
X134907495Y-61729976D01*
X134955114Y-61634738D01*
X135050352Y-61539500D01*
X135193209Y-61491880D01*
X135288447Y-61491880D01*
X135431304Y-61539500D01*
X135478923Y-61587119D01*
X135907495Y-62491880D02*
X135907495Y-61491880D01*
X136478923Y-62491880D01*
X136478923Y-61491880D01*
X137383685Y-61825214D02*
X137383685Y-62491880D01*
X137145590Y-61444261D02*
X136907495Y-62158547D01*
X137526542Y-62158547D01*
X134574161Y-72159880D02*
X134574161Y-72969404D01*
X134621780Y-73064642D01*
X134669400Y-73112261D01*
X134764638Y-73159880D01*
X134955114Y-73159880D01*
X135050352Y-73112261D01*
X135097971Y-73064642D01*
X135145590Y-72969404D01*
X135145590Y-72159880D01*
X135574161Y-72874166D02*
X136050352Y-72874166D01*
X135478923Y-73159880D02*
X135812257Y-72159880D01*
X136145590Y-73159880D01*
X137050352Y-73159880D02*
X136717019Y-72683690D01*
X136478923Y-73159880D02*
X136478923Y-72159880D01*
X136859876Y-72159880D01*
X136955114Y-72207500D01*
X137002733Y-72255119D01*
X137050352Y-72350357D01*
X137050352Y-72493214D01*
X137002733Y-72588452D01*
X136955114Y-72636071D01*
X136859876Y-72683690D01*
X136478923Y-72683690D01*
X137336066Y-72159880D02*
X137907495Y-72159880D01*
X137621780Y-73159880D02*
X137621780Y-72159880D01*
X132359400Y-67587880D02*
X132359400Y-67825976D01*
X132121304Y-67730738D02*
X132359400Y-67825976D01*
X132597495Y-67730738D01*
X132216542Y-68016452D02*
X132359400Y-67825976D01*
X132502257Y-68016452D01*
X131859400Y-71691404D02*
X131811780Y-71786642D01*
X131811780Y-71929500D01*
X131859400Y-72072357D01*
X131954638Y-72167595D01*
X132049876Y-72215214D01*
X132240352Y-72262833D01*
X132383209Y-72262833D01*
X132573685Y-72215214D01*
X132668923Y-72167595D01*
X132764161Y-72072357D01*
X132811780Y-71929500D01*
X132811780Y-71834261D01*
X132764161Y-71691404D01*
X132716542Y-71643785D01*
X132383209Y-71643785D01*
X132383209Y-71834261D01*
X132811780Y-71215214D02*
X131811780Y-71215214D01*
X132811780Y-70643785D01*
X131811780Y-70643785D01*
X132811780Y-70167595D02*
X131811780Y-70167595D01*
X131811780Y-69929500D01*
X131859400Y-69786642D01*
X131954638Y-69691404D01*
X132049876Y-69643785D01*
X132240352Y-69596166D01*
X132383209Y-69596166D01*
X132573685Y-69643785D01*
X132668923Y-69691404D01*
X132764161Y-69786642D01*
X132811780Y-69929500D01*
X132811780Y-70167595D01*
X135351780Y-70588166D02*
X134875590Y-70921500D01*
X135351780Y-71159595D02*
X134351780Y-71159595D01*
X134351780Y-70778642D01*
X134399400Y-70683404D01*
X134447019Y-70635785D01*
X134542257Y-70588166D01*
X134685114Y-70588166D01*
X134780352Y-70635785D01*
X134827971Y-70683404D01*
X134875590Y-70778642D01*
X134875590Y-71159595D01*
X134351780Y-70254833D02*
X135351780Y-69588166D01*
X134351780Y-69588166D02*
X135351780Y-70254833D01*
X136891780Y-71183404D02*
X136891780Y-70611976D01*
X137891780Y-70897690D02*
X136891780Y-70897690D01*
X136891780Y-70373880D02*
X137891780Y-69707214D01*
X136891780Y-69707214D02*
X137891780Y-70373880D01*
X139431780Y-71865976D02*
X139431780Y-71246928D01*
X139812733Y-71580261D01*
X139812733Y-71437404D01*
X139860352Y-71342166D01*
X139907971Y-71294547D01*
X140003209Y-71246928D01*
X140241304Y-71246928D01*
X140336542Y-71294547D01*
X140384161Y-71342166D01*
X140431780Y-71437404D01*
X140431780Y-71723119D01*
X140384161Y-71818357D01*
X140336542Y-71865976D01*
X139765114Y-70913595D02*
X140431780Y-70675500D01*
X139765114Y-70437404D01*
X139431780Y-70151690D02*
X139431780Y-69532642D01*
X139812733Y-69865976D01*
X139812733Y-69723119D01*
X139860352Y-69627880D01*
X139907971Y-69580261D01*
X140003209Y-69532642D01*
X140241304Y-69532642D01*
X140336542Y-69580261D01*
X140384161Y-69627880D01*
X140431780Y-69723119D01*
X140431780Y-70008833D01*
X140384161Y-70104071D01*
X140336542Y-70151690D01*
X145003780Y-64555119D02*
X144003780Y-64555119D01*
X144718066Y-64221785D01*
X144003780Y-63888452D01*
X145003780Y-63888452D01*
X144718066Y-63459880D02*
X144718066Y-62983690D01*
X145003780Y-63555119D02*
X144003780Y-63221785D01*
X145003780Y-62888452D01*
X144003780Y-62650357D02*
X145003780Y-61983690D01*
X144003780Y-61983690D02*
X145003780Y-62650357D01*
X144003780Y-60936071D02*
X144003780Y-60317023D01*
X144384733Y-60650357D01*
X144384733Y-60507500D01*
X144432352Y-60412261D01*
X144479971Y-60364642D01*
X144575209Y-60317023D01*
X144813304Y-60317023D01*
X144908542Y-60364642D01*
X144956161Y-60412261D01*
X145003780Y-60507500D01*
X145003780Y-60793214D01*
X144956161Y-60888452D01*
X144908542Y-60936071D01*
X144337114Y-59983690D02*
X145003780Y-59745595D01*
X144337114Y-59507500D01*
X144003780Y-59221785D02*
X144003780Y-58602738D01*
X144384733Y-58936071D01*
X144384733Y-58793214D01*
X144432352Y-58697976D01*
X144479971Y-58650357D01*
X144575209Y-58602738D01*
X144813304Y-58602738D01*
X144908542Y-58650357D01*
X144956161Y-58697976D01*
X145003780Y-58793214D01*
X145003780Y-59078928D01*
X144956161Y-59174166D01*
X144908542Y-59221785D01*
X145003780Y-56840833D02*
X144527590Y-57174166D01*
X145003780Y-57412261D02*
X144003780Y-57412261D01*
X144003780Y-57031309D01*
X144051400Y-56936071D01*
X144099019Y-56888452D01*
X144194257Y-56840833D01*
X144337114Y-56840833D01*
X144432352Y-56888452D01*
X144479971Y-56936071D01*
X144527590Y-57031309D01*
X144527590Y-57412261D01*
X144003780Y-56507500D02*
X145003780Y-55840833D01*
X144003780Y-55840833D02*
X145003780Y-56507500D01*
X144908542Y-55459880D02*
X144956161Y-55412261D01*
X145003780Y-55459880D01*
X144956161Y-55507500D01*
X144908542Y-55459880D01*
X145003780Y-55459880D01*
X144622828Y-55459880D02*
X144051400Y-55507500D01*
X144003780Y-55459880D01*
X144051400Y-55412261D01*
X144622828Y-55459880D01*
X144003780Y-55459880D01*
X170022923Y-122340642D02*
X169975304Y-122388261D01*
X169832447Y-122435880D01*
X169737209Y-122435880D01*
X169594352Y-122388261D01*
X169499114Y-122293023D01*
X169451495Y-122197785D01*
X169403876Y-122007309D01*
X169403876Y-121864452D01*
X169451495Y-121673976D01*
X169499114Y-121578738D01*
X169594352Y-121483500D01*
X169737209Y-121435880D01*
X169832447Y-121435880D01*
X169975304Y-121483500D01*
X170022923Y-121531119D01*
X170451495Y-122435880D02*
X170451495Y-121435880D01*
X171022923Y-122435880D01*
X171022923Y-121435880D01*
X171641971Y-121864452D02*
X171546733Y-121816833D01*
X171499114Y-121769214D01*
X171451495Y-121673976D01*
X171451495Y-121626357D01*
X171499114Y-121531119D01*
X171546733Y-121483500D01*
X171641971Y-121435880D01*
X171832447Y-121435880D01*
X171927685Y-121483500D01*
X171975304Y-121531119D01*
X172022923Y-121626357D01*
X172022923Y-121673976D01*
X171975304Y-121769214D01*
X171927685Y-121816833D01*
X171832447Y-121864452D01*
X171641971Y-121864452D01*
X171546733Y-121912071D01*
X171499114Y-121959690D01*
X171451495Y-122054928D01*
X171451495Y-122245404D01*
X171499114Y-122340642D01*
X171546733Y-122388261D01*
X171641971Y-122435880D01*
X171832447Y-122435880D01*
X171927685Y-122388261D01*
X171975304Y-122340642D01*
X172022923Y-122245404D01*
X172022923Y-122054928D01*
X171975304Y-121959690D01*
X171927685Y-121912071D01*
X171832447Y-121864452D01*
X169999114Y-116911500D02*
X169903876Y-116863880D01*
X169761019Y-116863880D01*
X169618161Y-116911500D01*
X169522923Y-117006738D01*
X169475304Y-117101976D01*
X169427685Y-117292452D01*
X169427685Y-117435309D01*
X169475304Y-117625785D01*
X169522923Y-117721023D01*
X169618161Y-117816261D01*
X169761019Y-117863880D01*
X169856257Y-117863880D01*
X169999114Y-117816261D01*
X170046733Y-117768642D01*
X170046733Y-117435309D01*
X169856257Y-117435309D01*
X170475304Y-117863880D02*
X170475304Y-116863880D01*
X170856257Y-116863880D01*
X170951495Y-116911500D01*
X170999114Y-116959119D01*
X171046733Y-117054357D01*
X171046733Y-117197214D01*
X170999114Y-117292452D01*
X170951495Y-117340071D01*
X170856257Y-117387690D01*
X170475304Y-117387690D01*
X171427685Y-117816261D02*
X171570542Y-117863880D01*
X171808638Y-117863880D01*
X171903876Y-117816261D01*
X171951495Y-117768642D01*
X171999114Y-117673404D01*
X171999114Y-117578166D01*
X171951495Y-117482928D01*
X171903876Y-117435309D01*
X171808638Y-117387690D01*
X171618161Y-117340071D01*
X171522923Y-117292452D01*
X171475304Y-117244833D01*
X171427685Y-117149595D01*
X171427685Y-117054357D01*
X171475304Y-116959119D01*
X171522923Y-116911500D01*
X171618161Y-116863880D01*
X171856257Y-116863880D01*
X171999114Y-116911500D01*
X116444733Y-115990642D02*
X116397114Y-116038261D01*
X116254257Y-116085880D01*
X116159019Y-116085880D01*
X116016161Y-116038261D01*
X115920923Y-115943023D01*
X115873304Y-115847785D01*
X115825685Y-115657309D01*
X115825685Y-115514452D01*
X115873304Y-115323976D01*
X115920923Y-115228738D01*
X116016161Y-115133500D01*
X116159019Y-115085880D01*
X116254257Y-115085880D01*
X116397114Y-115133500D01*
X116444733Y-115181119D01*
X117397114Y-116085880D02*
X116825685Y-116085880D01*
X117111400Y-116085880D02*
X117111400Y-115085880D01*
X117016161Y-115228738D01*
X116920923Y-115323976D01*
X116825685Y-115371595D01*
X188596542Y-109900476D02*
X188644161Y-109948095D01*
X188691780Y-110090952D01*
X188691780Y-110186190D01*
X188644161Y-110329047D01*
X188548923Y-110424285D01*
X188453685Y-110471904D01*
X188263209Y-110519523D01*
X188120352Y-110519523D01*
X187929876Y-110471904D01*
X187834638Y-110424285D01*
X187739400Y-110329047D01*
X187691780Y-110186190D01*
X187691780Y-110090952D01*
X187739400Y-109948095D01*
X187787019Y-109900476D01*
X188691780Y-109471904D02*
X187691780Y-109471904D01*
X188691780Y-108900476D01*
X187691780Y-108900476D01*
X187691780Y-108519523D02*
X187691780Y-107852857D01*
X188691780Y-108281428D01*
X174214971Y-110099928D02*
X174275447Y-110160404D01*
X174335923Y-110341833D01*
X174335923Y-110462785D01*
X174275447Y-110644214D01*
X174154495Y-110765166D01*
X174033542Y-110825642D01*
X173791638Y-110886119D01*
X173610209Y-110886119D01*
X173368304Y-110825642D01*
X173247352Y-110765166D01*
X173126400Y-110644214D01*
X173065923Y-110462785D01*
X173065923Y-110341833D01*
X173126400Y-110160404D01*
X173186876Y-110099928D01*
X173973066Y-109616119D02*
X173973066Y-109011357D01*
X174335923Y-109737071D02*
X173065923Y-109313738D01*
X174335923Y-108890404D01*
X174335923Y-108467071D02*
X173065923Y-108467071D01*
X174335923Y-107741357D01*
X173065923Y-107741357D01*
X175229780Y-106433976D02*
X175229780Y-106910166D01*
X174229780Y-106910166D01*
X175229780Y-112109214D02*
X174229780Y-112109214D01*
X174705971Y-112109214D02*
X174705971Y-111537785D01*
X175229780Y-111537785D02*
X174229780Y-111537785D01*
X188596542Y-97708476D02*
X188644161Y-97756095D01*
X188691780Y-97898952D01*
X188691780Y-97994190D01*
X188644161Y-98137047D01*
X188548923Y-98232285D01*
X188453685Y-98279904D01*
X188263209Y-98327523D01*
X188120352Y-98327523D01*
X187929876Y-98279904D01*
X187834638Y-98232285D01*
X187739400Y-98137047D01*
X187691780Y-97994190D01*
X187691780Y-97898952D01*
X187739400Y-97756095D01*
X187787019Y-97708476D01*
X188691780Y-97279904D02*
X187691780Y-97279904D01*
X188691780Y-96708476D01*
X187691780Y-96708476D01*
X187787019Y-96279904D02*
X187739400Y-96232285D01*
X187691780Y-96137047D01*
X187691780Y-95898952D01*
X187739400Y-95803714D01*
X187787019Y-95756095D01*
X187882257Y-95708476D01*
X187977495Y-95708476D01*
X188120352Y-95756095D01*
X188691780Y-96327523D01*
X188691780Y-95708476D01*
X174214971Y-97907928D02*
X174275447Y-97968404D01*
X174335923Y-98149833D01*
X174335923Y-98270785D01*
X174275447Y-98452214D01*
X174154495Y-98573166D01*
X174033542Y-98633642D01*
X173791638Y-98694119D01*
X173610209Y-98694119D01*
X173368304Y-98633642D01*
X173247352Y-98573166D01*
X173126400Y-98452214D01*
X173065923Y-98270785D01*
X173065923Y-98149833D01*
X173126400Y-97968404D01*
X173186876Y-97907928D01*
X173973066Y-97424119D02*
X173973066Y-96819357D01*
X174335923Y-97545071D02*
X173065923Y-97121738D01*
X174335923Y-96698404D01*
X174335923Y-96275071D02*
X173065923Y-96275071D01*
X174335923Y-95549357D01*
X173065923Y-95549357D01*
X175229780Y-94241976D02*
X175229780Y-94718166D01*
X174229780Y-94718166D01*
X175229780Y-99917214D02*
X174229780Y-99917214D01*
X174705971Y-99917214D02*
X174705971Y-99345785D01*
X175229780Y-99345785D02*
X174229780Y-99345785D01*
D15*
X139868161Y-110060071D02*
X137868161Y-110060071D01*
X137868161Y-109298166D01*
X137963400Y-109107690D01*
X138058638Y-109012452D01*
X138249114Y-108917214D01*
X138534828Y-108917214D01*
X138725304Y-109012452D01*
X138820542Y-109107690D01*
X138915780Y-109298166D01*
X138915780Y-110060071D01*
X139868161Y-107202928D02*
X138820542Y-107202928D01*
X138630066Y-107298166D01*
X138534828Y-107488642D01*
X138534828Y-107869595D01*
X138630066Y-108060071D01*
X139772923Y-107202928D02*
X139868161Y-107393404D01*
X139868161Y-107869595D01*
X139772923Y-108060071D01*
X139582447Y-108155309D01*
X139391971Y-108155309D01*
X139201495Y-108060071D01*
X139106257Y-107869595D01*
X139106257Y-107393404D01*
X139011019Y-107202928D01*
X139868161Y-106250547D02*
X138534828Y-106250547D01*
X138915780Y-106250547D02*
X138725304Y-106155309D01*
X138630066Y-106060071D01*
X138534828Y-105869595D01*
X138534828Y-105679119D01*
X138534828Y-105298166D02*
X138534828Y-104536261D01*
X137868161Y-105012452D02*
X139582447Y-105012452D01*
X139772923Y-104917214D01*
X139868161Y-104726738D01*
X139868161Y-104536261D01*
X139868161Y-103869595D02*
X138534828Y-103869595D01*
X137868161Y-103869595D02*
X137963400Y-103964833D01*
X138058638Y-103869595D01*
X137963400Y-103774357D01*
X137868161Y-103869595D01*
X138058638Y-103869595D01*
X139772923Y-102060071D02*
X139868161Y-102250547D01*
X139868161Y-102631500D01*
X139772923Y-102821976D01*
X139677685Y-102917214D01*
X139487209Y-103012452D01*
X138915780Y-103012452D01*
X138725304Y-102917214D01*
X138630066Y-102821976D01*
X138534828Y-102631500D01*
X138534828Y-102250547D01*
X138630066Y-102060071D01*
X139868161Y-100917214D02*
X139772923Y-101107690D01*
X139582447Y-101202928D01*
X137868161Y-101202928D01*
X139772923Y-99393404D02*
X139868161Y-99583880D01*
X139868161Y-99964833D01*
X139772923Y-100155309D01*
X139582447Y-100250547D01*
X138820542Y-100250547D01*
X138630066Y-100155309D01*
X138534828Y-99964833D01*
X138534828Y-99583880D01*
X138630066Y-99393404D01*
X138820542Y-99298166D01*
X139011019Y-99298166D01*
X139201495Y-100250547D01*
X140058638Y-98917214D02*
X140058638Y-97393404D01*
X138820542Y-96250547D02*
X138915780Y-95964833D01*
X139011019Y-95869595D01*
X139201495Y-95774357D01*
X139487209Y-95774357D01*
X139677685Y-95869595D01*
X139772923Y-95964833D01*
X139868161Y-96155309D01*
X139868161Y-96917214D01*
X137868161Y-96917214D01*
X137868161Y-96250547D01*
X137963400Y-96060071D01*
X138058638Y-95964833D01*
X138249114Y-95869595D01*
X138439590Y-95869595D01*
X138630066Y-95964833D01*
X138725304Y-96060071D01*
X138820542Y-96250547D01*
X138820542Y-96917214D01*
X139868161Y-94631500D02*
X139772923Y-94821976D01*
X139677685Y-94917214D01*
X139487209Y-95012452D01*
X138915780Y-95012452D01*
X138725304Y-94917214D01*
X138630066Y-94821976D01*
X138534828Y-94631500D01*
X138534828Y-94345785D01*
X138630066Y-94155309D01*
X138725304Y-94060071D01*
X138915780Y-93964833D01*
X139487209Y-93964833D01*
X139677685Y-94060071D01*
X139772923Y-94155309D01*
X139868161Y-94345785D01*
X139868161Y-94631500D01*
X139868161Y-93107690D02*
X138534828Y-93107690D01*
X138915780Y-93107690D02*
X138725304Y-93012452D01*
X138630066Y-92917214D01*
X138534828Y-92726738D01*
X138534828Y-92536261D01*
X139868161Y-91583880D02*
X139772923Y-91774357D01*
X139677685Y-91869595D01*
X139487209Y-91964833D01*
X138915780Y-91964833D01*
X138725304Y-91869595D01*
X138630066Y-91774357D01*
X138534828Y-91583880D01*
X138534828Y-91298166D01*
X138630066Y-91107690D01*
X138725304Y-91012452D01*
X138915780Y-90917214D01*
X139487209Y-90917214D01*
X139677685Y-91012452D01*
X139772923Y-91107690D01*
X139868161Y-91298166D01*
X139868161Y-91583880D01*
X138534828Y-90060071D02*
X139868161Y-90060071D01*
X138725304Y-90060071D02*
X138630066Y-89964833D01*
X138534828Y-89774357D01*
X138534828Y-89488642D01*
X138630066Y-89298166D01*
X138820542Y-89202928D01*
X139868161Y-89202928D01*
D11*
X118095780Y-59324833D02*
X118810066Y-59324833D01*
X118952923Y-59372452D01*
X119048161Y-59467690D01*
X119095780Y-59610547D01*
X119095780Y-59705785D01*
X118191019Y-58896261D02*
X118143400Y-58848642D01*
X118095780Y-58753404D01*
X118095780Y-58515309D01*
X118143400Y-58420071D01*
X118191019Y-58372452D01*
X118286257Y-58324833D01*
X118381495Y-58324833D01*
X118524352Y-58372452D01*
X119095780Y-58943880D01*
X119095780Y-58324833D01*
X125699780Y-59856452D02*
X125223590Y-60189785D01*
X125699780Y-60427880D02*
X124699780Y-60427880D01*
X124699780Y-60046928D01*
X124747400Y-59951690D01*
X124795019Y-59904071D01*
X124890257Y-59856452D01*
X125033114Y-59856452D01*
X125128352Y-59904071D01*
X125175971Y-59951690D01*
X125223590Y-60046928D01*
X125223590Y-60427880D01*
X124699780Y-59523119D02*
X125699780Y-58856452D01*
X124699780Y-58856452D02*
X125699780Y-59523119D01*
X125795019Y-58713595D02*
X125795019Y-57951690D01*
X125652161Y-57761214D02*
X125699780Y-57618357D01*
X125699780Y-57380261D01*
X125652161Y-57285023D01*
X125604542Y-57237404D01*
X125509304Y-57189785D01*
X125414066Y-57189785D01*
X125318828Y-57237404D01*
X125271209Y-57285023D01*
X125223590Y-57380261D01*
X125175971Y-57570738D01*
X125128352Y-57665976D01*
X125080733Y-57713595D01*
X124985495Y-57761214D01*
X124890257Y-57761214D01*
X124795019Y-57713595D01*
X124747400Y-57665976D01*
X124699780Y-57570738D01*
X124699780Y-57332642D01*
X124747400Y-57189785D01*
X125175971Y-56761214D02*
X125175971Y-56427880D01*
X125699780Y-56285023D02*
X125699780Y-56761214D01*
X124699780Y-56761214D01*
X124699780Y-56285023D01*
X125699780Y-55380261D02*
X125699780Y-55856452D01*
X124699780Y-55856452D01*
X122270828Y-70651880D02*
X122270828Y-70318547D01*
X121747019Y-70318547D02*
X122747019Y-70318547D01*
X122747019Y-70794738D01*
X121747019Y-71175690D02*
X122747019Y-71175690D01*
X122270828Y-71985214D02*
X122223209Y-72128071D01*
X122175590Y-72175690D01*
X122080352Y-72223309D01*
X121937495Y-72223309D01*
X121842257Y-72175690D01*
X121794638Y-72128071D01*
X121747019Y-72032833D01*
X121747019Y-71651880D01*
X122747019Y-71651880D01*
X122747019Y-71985214D01*
X122699400Y-72080452D01*
X122651780Y-72128071D01*
X122556542Y-72175690D01*
X122461304Y-72175690D01*
X122366066Y-72128071D01*
X122318447Y-72080452D01*
X122270828Y-71985214D01*
X122270828Y-71651880D01*
X122270828Y-72651880D02*
X122270828Y-72985214D01*
X121747019Y-73128071D02*
X121747019Y-72651880D01*
X122747019Y-72651880D01*
X122747019Y-73128071D01*
X121747019Y-74128071D02*
X122223209Y-73794738D01*
X121747019Y-73556642D02*
X122747019Y-73556642D01*
X122747019Y-73937595D01*
X122699400Y-74032833D01*
X122651780Y-74080452D01*
X122556542Y-74128071D01*
X122413685Y-74128071D01*
X122318447Y-74080452D01*
X122270828Y-74032833D01*
X122223209Y-73937595D01*
X122223209Y-73556642D01*
X120207019Y-70096261D02*
X119397495Y-70096261D01*
X119302257Y-70143880D01*
X119254638Y-70191500D01*
X119207019Y-70286738D01*
X119207019Y-70477214D01*
X119254638Y-70572452D01*
X119302257Y-70620071D01*
X119397495Y-70667690D01*
X120207019Y-70667690D01*
X119492733Y-71096261D02*
X119492733Y-71572452D01*
X119207019Y-71001023D02*
X120207019Y-71334357D01*
X119207019Y-71667690D01*
X119207019Y-72572452D02*
X119683209Y-72239119D01*
X119207019Y-72001023D02*
X120207019Y-72001023D01*
X120207019Y-72381976D01*
X120159400Y-72477214D01*
X120111780Y-72524833D01*
X120016542Y-72572452D01*
X119873685Y-72572452D01*
X119778447Y-72524833D01*
X119730828Y-72477214D01*
X119683209Y-72381976D01*
X119683209Y-72001023D01*
X120207019Y-72858166D02*
X120207019Y-73429595D01*
X119207019Y-73143880D02*
X120207019Y-73143880D01*
X116667019Y-70604261D02*
X117143209Y-70270928D01*
X116667019Y-70032833D02*
X117667019Y-70032833D01*
X117667019Y-70413785D01*
X117619400Y-70509023D01*
X117571780Y-70556642D01*
X117476542Y-70604261D01*
X117333685Y-70604261D01*
X117238447Y-70556642D01*
X117190828Y-70509023D01*
X117143209Y-70413785D01*
X117143209Y-70032833D01*
X116714638Y-70985214D02*
X116667019Y-71128071D01*
X116667019Y-71366166D01*
X116714638Y-71461404D01*
X116762257Y-71509023D01*
X116857495Y-71556642D01*
X116952733Y-71556642D01*
X117047971Y-71509023D01*
X117095590Y-71461404D01*
X117143209Y-71366166D01*
X117190828Y-71175690D01*
X117238447Y-71080452D01*
X117286066Y-71032833D01*
X117381304Y-70985214D01*
X117476542Y-70985214D01*
X117571780Y-71032833D01*
X117619400Y-71080452D01*
X117667019Y-71175690D01*
X117667019Y-71413785D01*
X117619400Y-71556642D01*
X117571780Y-71937595D02*
X117619400Y-71985214D01*
X117667019Y-72080452D01*
X117667019Y-72318547D01*
X117619400Y-72413785D01*
X117571780Y-72461404D01*
X117476542Y-72509023D01*
X117381304Y-72509023D01*
X117238447Y-72461404D01*
X116667019Y-71889976D01*
X116667019Y-72509023D01*
X117667019Y-72842357D02*
X117667019Y-73461404D01*
X117286066Y-73128071D01*
X117286066Y-73270928D01*
X117238447Y-73366166D01*
X117190828Y-73413785D01*
X117095590Y-73461404D01*
X116857495Y-73461404D01*
X116762257Y-73413785D01*
X116714638Y-73366166D01*
X116667019Y-73270928D01*
X116667019Y-72985214D01*
X116714638Y-72889976D01*
X116762257Y-72842357D01*
X117571780Y-73842357D02*
X117619400Y-73889976D01*
X117667019Y-73985214D01*
X117667019Y-74223309D01*
X117619400Y-74318547D01*
X117571780Y-74366166D01*
X117476542Y-74413785D01*
X117381304Y-74413785D01*
X117238447Y-74366166D01*
X116667019Y-73794738D01*
X116667019Y-74413785D01*
X90394257Y-113815880D02*
X90965685Y-113815880D01*
X90679971Y-114815880D02*
X90679971Y-113815880D01*
X91299019Y-114292071D02*
X91632352Y-114292071D01*
X91775209Y-114815880D02*
X91299019Y-114815880D01*
X91299019Y-113815880D01*
X91775209Y-113815880D01*
X92156161Y-114768261D02*
X92299019Y-114815880D01*
X92537114Y-114815880D01*
X92632352Y-114768261D01*
X92679971Y-114720642D01*
X92727590Y-114625404D01*
X92727590Y-114530166D01*
X92679971Y-114434928D01*
X92632352Y-114387309D01*
X92537114Y-114339690D01*
X92346638Y-114292071D01*
X92251400Y-114244452D01*
X92203780Y-114196833D01*
X92156161Y-114101595D01*
X92156161Y-114006357D01*
X92203780Y-113911119D01*
X92251400Y-113863500D01*
X92346638Y-113815880D01*
X92584733Y-113815880D01*
X92727590Y-113863500D01*
X93013304Y-113815880D02*
X93584733Y-113815880D01*
X93299019Y-114815880D02*
X93299019Y-113815880D01*
X93679971Y-114911119D02*
X94441876Y-114911119D01*
X95203780Y-114815880D02*
X94632352Y-114815880D01*
X94918066Y-114815880D02*
X94918066Y-113815880D01*
X94822828Y-113958738D01*
X94727590Y-114053976D01*
X94632352Y-114101595D01*
X95584733Y-113911119D02*
X95632352Y-113863500D01*
X95727590Y-113815880D01*
X95965685Y-113815880D01*
X96060923Y-113863500D01*
X96108542Y-113911119D01*
X96156161Y-114006357D01*
X96156161Y-114101595D01*
X96108542Y-114244452D01*
X95537114Y-114815880D01*
X96156161Y-114815880D01*
X96441876Y-113815880D02*
X96775209Y-114815880D01*
X97108542Y-113815880D01*
X92354447Y-110370928D02*
X93116352Y-110370928D01*
X92735400Y-110751880D02*
X92735400Y-109989976D01*
X94894447Y-110370928D02*
X95656352Y-110370928D01*
X186890066Y-85367880D02*
X186890066Y-86082166D01*
X186842447Y-86225023D01*
X186747209Y-86320261D01*
X186604352Y-86367880D01*
X186509114Y-86367880D01*
X187271019Y-85367880D02*
X187890066Y-85367880D01*
X187556733Y-85748833D01*
X187699590Y-85748833D01*
X187794828Y-85796452D01*
X187842447Y-85844071D01*
X187890066Y-85939309D01*
X187890066Y-86177404D01*
X187842447Y-86272642D01*
X187794828Y-86320261D01*
X187699590Y-86367880D01*
X187413876Y-86367880D01*
X187318638Y-86320261D01*
X187271019Y-86272642D01*
X182770828Y-90336642D02*
X182723209Y-90384261D01*
X182580352Y-90431880D01*
X182485114Y-90431880D01*
X182342257Y-90384261D01*
X182247019Y-90289023D01*
X182199400Y-90193785D01*
X182151780Y-90003309D01*
X182151780Y-89860452D01*
X182199400Y-89669976D01*
X182247019Y-89574738D01*
X182342257Y-89479500D01*
X182485114Y-89431880D01*
X182580352Y-89431880D01*
X182723209Y-89479500D01*
X182770828Y-89527119D01*
X183151780Y-90146166D02*
X183627971Y-90146166D01*
X183056542Y-90431880D02*
X183389876Y-89431880D01*
X183723209Y-90431880D01*
X184056542Y-90431880D02*
X184056542Y-89431880D01*
X184627971Y-90431880D01*
X184627971Y-89431880D01*
X184866066Y-90527119D02*
X185627971Y-90527119D01*
X185723209Y-89431880D02*
X186294638Y-89431880D01*
X186008923Y-90431880D02*
X186008923Y-89431880D01*
X186627971Y-89908071D02*
X186961304Y-89908071D01*
X187104161Y-90431880D02*
X186627971Y-90431880D01*
X186627971Y-89431880D01*
X187104161Y-89431880D01*
X188104161Y-90431880D02*
X187770828Y-89955690D01*
X187532733Y-90431880D02*
X187532733Y-89431880D01*
X187913685Y-89431880D01*
X188008923Y-89479500D01*
X188056542Y-89527119D01*
X188104161Y-89622357D01*
X188104161Y-89765214D01*
X188056542Y-89860452D01*
X188008923Y-89908071D01*
X187913685Y-89955690D01*
X187532733Y-89955690D01*
X188532733Y-90431880D02*
X188532733Y-89431880D01*
X188866066Y-90146166D01*
X189199400Y-89431880D01*
X189199400Y-90431880D01*
X96720066Y-104894071D02*
X96386733Y-104894071D01*
X96386733Y-105417880D02*
X96386733Y-104417880D01*
X96862923Y-104417880D01*
X97767685Y-105417880D02*
X97196257Y-105417880D01*
X97481971Y-105417880D02*
X97481971Y-104417880D01*
X97386733Y-104560738D01*
X97291495Y-104655976D01*
X97196257Y-104703595D01*
X96910542Y-108973880D02*
X96339114Y-108973880D01*
X96624828Y-108973880D02*
X96624828Y-107973880D01*
X96529590Y-108116738D01*
X96434352Y-108211976D01*
X96339114Y-108259595D01*
X97291495Y-108688166D02*
X97767685Y-108688166D01*
X97196257Y-108973880D02*
X97529590Y-107973880D01*
X97862923Y-108973880D01*
X123977495Y-110997880D02*
X124548923Y-110997880D01*
X124263209Y-111997880D02*
X124263209Y-110997880D01*
X124787019Y-110997880D02*
X125406066Y-110997880D01*
X125072733Y-111378833D01*
X125215590Y-111378833D01*
X125310828Y-111426452D01*
X125358447Y-111474071D01*
X125406066Y-111569309D01*
X125406066Y-111807404D01*
X125358447Y-111902642D01*
X125310828Y-111950261D01*
X125215590Y-111997880D01*
X124929876Y-111997880D01*
X124834638Y-111950261D01*
X124787019Y-111902642D01*
X122858447Y-77565500D02*
X122763209Y-77517880D01*
X122620352Y-77517880D01*
X122477495Y-77565500D01*
X122382257Y-77660738D01*
X122334638Y-77755976D01*
X122287019Y-77946452D01*
X122287019Y-78089309D01*
X122334638Y-78279785D01*
X122382257Y-78375023D01*
X122477495Y-78470261D01*
X122620352Y-78517880D01*
X122715590Y-78517880D01*
X122858447Y-78470261D01*
X122906066Y-78422642D01*
X122906066Y-78089309D01*
X122715590Y-78089309D01*
X123334638Y-78517880D02*
X123334638Y-77517880D01*
X123715590Y-77517880D01*
X123810828Y-77565500D01*
X123858447Y-77613119D01*
X123906066Y-77708357D01*
X123906066Y-77851214D01*
X123858447Y-77946452D01*
X123810828Y-77994071D01*
X123715590Y-78041690D01*
X123334638Y-78041690D01*
X124334638Y-78517880D02*
X124334638Y-77517880D01*
X125001304Y-77517880D02*
X125191780Y-77517880D01*
X125287019Y-77565500D01*
X125382257Y-77660738D01*
X125429876Y-77851214D01*
X125429876Y-78184547D01*
X125382257Y-78375023D01*
X125287019Y-78470261D01*
X125191780Y-78517880D01*
X125001304Y-78517880D01*
X124906066Y-78470261D01*
X124810828Y-78375023D01*
X124763209Y-78184547D01*
X124763209Y-77851214D01*
X124810828Y-77660738D01*
X124906066Y-77565500D01*
X125001304Y-77517880D01*
X125620352Y-78613119D02*
X126382257Y-78613119D01*
X127191780Y-78517880D02*
X126858447Y-78041690D01*
X126620352Y-78517880D02*
X126620352Y-77517880D01*
X127001304Y-77517880D01*
X127096542Y-77565500D01*
X127144161Y-77613119D01*
X127191780Y-77708357D01*
X127191780Y-77851214D01*
X127144161Y-77946452D01*
X127096542Y-77994071D01*
X127001304Y-78041690D01*
X126620352Y-78041690D01*
X120350114Y-81240261D02*
X120492971Y-81287880D01*
X120731066Y-81287880D01*
X120826304Y-81240261D01*
X120873923Y-81192642D01*
X120921542Y-81097404D01*
X120921542Y-81002166D01*
X120873923Y-80906928D01*
X120826304Y-80859309D01*
X120731066Y-80811690D01*
X120540590Y-80764071D01*
X120445352Y-80716452D01*
X120397733Y-80668833D01*
X120350114Y-80573595D01*
X120350114Y-80478357D01*
X120397733Y-80383119D01*
X120445352Y-80335500D01*
X120540590Y-80287880D01*
X120778685Y-80287880D01*
X120921542Y-80335500D01*
X121350114Y-81287880D02*
X121350114Y-80287880D01*
X121588209Y-80287880D01*
X121731066Y-80335500D01*
X121826304Y-80430738D01*
X121873923Y-80525976D01*
X121921542Y-80716452D01*
X121921542Y-80859309D01*
X121873923Y-81049785D01*
X121826304Y-81145023D01*
X121731066Y-81240261D01*
X121588209Y-81287880D01*
X121350114Y-81287880D01*
X122302495Y-81002166D02*
X122778685Y-81002166D01*
X122207257Y-81287880D02*
X122540590Y-80287880D01*
X122873923Y-81287880D01*
X120373923Y-83780261D02*
X120516780Y-83827880D01*
X120754876Y-83827880D01*
X120850114Y-83780261D01*
X120897733Y-83732642D01*
X120945352Y-83637404D01*
X120945352Y-83542166D01*
X120897733Y-83446928D01*
X120850114Y-83399309D01*
X120754876Y-83351690D01*
X120564400Y-83304071D01*
X120469161Y-83256452D01*
X120421542Y-83208833D01*
X120373923Y-83113595D01*
X120373923Y-83018357D01*
X120421542Y-82923119D01*
X120469161Y-82875500D01*
X120564400Y-82827880D01*
X120802495Y-82827880D01*
X120945352Y-82875500D01*
X121945352Y-83732642D02*
X121897733Y-83780261D01*
X121754876Y-83827880D01*
X121659638Y-83827880D01*
X121516780Y-83780261D01*
X121421542Y-83685023D01*
X121373923Y-83589785D01*
X121326304Y-83399309D01*
X121326304Y-83256452D01*
X121373923Y-83065976D01*
X121421542Y-82970738D01*
X121516780Y-82875500D01*
X121659638Y-82827880D01*
X121754876Y-82827880D01*
X121897733Y-82875500D01*
X121945352Y-82923119D01*
X122850114Y-83827880D02*
X122373923Y-83827880D01*
X122373923Y-82827880D01*
X121080304Y-86367880D02*
X121080304Y-85367880D01*
X121318400Y-85367880D01*
X121461257Y-85415500D01*
X121556495Y-85510738D01*
X121604114Y-85605976D01*
X121651733Y-85796452D01*
X121651733Y-85939309D01*
X121604114Y-86129785D01*
X121556495Y-86225023D01*
X121461257Y-86320261D01*
X121318400Y-86367880D01*
X121080304Y-86367880D01*
X122032685Y-85463119D02*
X122080304Y-85415500D01*
X122175542Y-85367880D01*
X122413638Y-85367880D01*
X122508876Y-85415500D01*
X122556495Y-85463119D01*
X122604114Y-85558357D01*
X122604114Y-85653595D01*
X122556495Y-85796452D01*
X121985066Y-86367880D01*
X122604114Y-86367880D01*
X121080304Y-88907880D02*
X121080304Y-87907880D01*
X121318400Y-87907880D01*
X121461257Y-87955500D01*
X121556495Y-88050738D01*
X121604114Y-88145976D01*
X121651733Y-88336452D01*
X121651733Y-88479309D01*
X121604114Y-88669785D01*
X121556495Y-88765023D01*
X121461257Y-88860261D01*
X121318400Y-88907880D01*
X121080304Y-88907880D01*
X121985066Y-87907880D02*
X122604114Y-87907880D01*
X122270780Y-88288833D01*
X122413638Y-88288833D01*
X122508876Y-88336452D01*
X122556495Y-88384071D01*
X122604114Y-88479309D01*
X122604114Y-88717404D01*
X122556495Y-88812642D01*
X122508876Y-88860261D01*
X122413638Y-88907880D01*
X122127923Y-88907880D01*
X122032685Y-88860261D01*
X121985066Y-88812642D01*
X121080304Y-91447880D02*
X121080304Y-90447880D01*
X121318400Y-90447880D01*
X121461257Y-90495500D01*
X121556495Y-90590738D01*
X121604114Y-90685976D01*
X121651733Y-90876452D01*
X121651733Y-91019309D01*
X121604114Y-91209785D01*
X121556495Y-91305023D01*
X121461257Y-91400261D01*
X121318400Y-91447880D01*
X121080304Y-91447880D01*
X122508876Y-90781214D02*
X122508876Y-91447880D01*
X122270780Y-90400261D02*
X122032685Y-91114547D01*
X122651733Y-91114547D01*
X121080304Y-93987880D02*
X121080304Y-92987880D01*
X121318400Y-92987880D01*
X121461257Y-93035500D01*
X121556495Y-93130738D01*
X121604114Y-93225976D01*
X121651733Y-93416452D01*
X121651733Y-93559309D01*
X121604114Y-93749785D01*
X121556495Y-93845023D01*
X121461257Y-93940261D01*
X121318400Y-93987880D01*
X121080304Y-93987880D01*
X122556495Y-92987880D02*
X122080304Y-92987880D01*
X122032685Y-93464071D01*
X122080304Y-93416452D01*
X122175542Y-93368833D01*
X122413638Y-93368833D01*
X122508876Y-93416452D01*
X122556495Y-93464071D01*
X122604114Y-93559309D01*
X122604114Y-93797404D01*
X122556495Y-93892642D01*
X122508876Y-93940261D01*
X122413638Y-93987880D01*
X122175542Y-93987880D01*
X122080304Y-93940261D01*
X122032685Y-93892642D01*
X121080304Y-96527880D02*
X121080304Y-95527880D01*
X121318400Y-95527880D01*
X121461257Y-95575500D01*
X121556495Y-95670738D01*
X121604114Y-95765976D01*
X121651733Y-95956452D01*
X121651733Y-96099309D01*
X121604114Y-96289785D01*
X121556495Y-96385023D01*
X121461257Y-96480261D01*
X121318400Y-96527880D01*
X121080304Y-96527880D01*
X122508876Y-95527880D02*
X122318400Y-95527880D01*
X122223161Y-95575500D01*
X122175542Y-95623119D01*
X122080304Y-95765976D01*
X122032685Y-95956452D01*
X122032685Y-96337404D01*
X122080304Y-96432642D01*
X122127923Y-96480261D01*
X122223161Y-96527880D01*
X122413638Y-96527880D01*
X122508876Y-96480261D01*
X122556495Y-96432642D01*
X122604114Y-96337404D01*
X122604114Y-96099309D01*
X122556495Y-96004071D01*
X122508876Y-95956452D01*
X122413638Y-95908833D01*
X122223161Y-95908833D01*
X122127923Y-95956452D01*
X122080304Y-96004071D01*
X122032685Y-96099309D01*
X121080304Y-99067880D02*
X121080304Y-98067880D01*
X121318400Y-98067880D01*
X121461257Y-98115500D01*
X121556495Y-98210738D01*
X121604114Y-98305976D01*
X121651733Y-98496452D01*
X121651733Y-98639309D01*
X121604114Y-98829785D01*
X121556495Y-98925023D01*
X121461257Y-99020261D01*
X121318400Y-99067880D01*
X121080304Y-99067880D01*
X121985066Y-98067880D02*
X122651733Y-98067880D01*
X122223161Y-99067880D01*
X121080304Y-101607880D02*
X121080304Y-100607880D01*
X121318400Y-100607880D01*
X121461257Y-100655500D01*
X121556495Y-100750738D01*
X121604114Y-100845976D01*
X121651733Y-101036452D01*
X121651733Y-101179309D01*
X121604114Y-101369785D01*
X121556495Y-101465023D01*
X121461257Y-101560261D01*
X121318400Y-101607880D01*
X121080304Y-101607880D01*
X122223161Y-101036452D02*
X122127923Y-100988833D01*
X122080304Y-100941214D01*
X122032685Y-100845976D01*
X122032685Y-100798357D01*
X122080304Y-100703119D01*
X122127923Y-100655500D01*
X122223161Y-100607880D01*
X122413638Y-100607880D01*
X122508876Y-100655500D01*
X122556495Y-100703119D01*
X122604114Y-100798357D01*
X122604114Y-100845976D01*
X122556495Y-100941214D01*
X122508876Y-100988833D01*
X122413638Y-101036452D01*
X122223161Y-101036452D01*
X122127923Y-101084071D01*
X122080304Y-101131690D01*
X122032685Y-101226928D01*
X122032685Y-101417404D01*
X122080304Y-101512642D01*
X122127923Y-101560261D01*
X122223161Y-101607880D01*
X122413638Y-101607880D01*
X122508876Y-101560261D01*
X122556495Y-101512642D01*
X122604114Y-101417404D01*
X122604114Y-101226928D01*
X122556495Y-101131690D01*
X122508876Y-101084071D01*
X122413638Y-101036452D01*
X120469161Y-103147880D02*
X120802495Y-104147880D01*
X121135828Y-103147880D01*
X121469161Y-104147880D02*
X121469161Y-103147880D01*
X121945352Y-104147880D02*
X121945352Y-103147880D01*
X122516780Y-104147880D01*
X122516780Y-103147880D01*
X120953304Y-106164071D02*
X121286638Y-106164071D01*
X121429495Y-106687880D02*
X120953304Y-106687880D01*
X120953304Y-105687880D01*
X121429495Y-105687880D01*
X121858066Y-106687880D02*
X121858066Y-105687880D01*
X122429495Y-106687880D01*
X122429495Y-105687880D01*
X121016780Y-109227880D02*
X120540590Y-109227880D01*
X120540590Y-108227880D01*
X121350114Y-109227880D02*
X121350114Y-108227880D01*
X121826304Y-108846928D02*
X122588209Y-108846928D01*
X122207257Y-109227880D02*
X122207257Y-108465976D01*
X151409495Y-120649880D02*
X151980923Y-120649880D01*
X151695209Y-121649880D02*
X151695209Y-120649880D01*
X152266638Y-120745119D02*
X152314257Y-120697500D01*
X152409495Y-120649880D01*
X152647590Y-120649880D01*
X152742828Y-120697500D01*
X152790447Y-120745119D01*
X152838066Y-120840357D01*
X152838066Y-120935595D01*
X152790447Y-121078452D01*
X152219019Y-121649880D01*
X152838066Y-121649880D01*
X150385685Y-79597500D02*
X150290447Y-79549880D01*
X150147590Y-79549880D01*
X150004733Y-79597500D01*
X149909495Y-79692738D01*
X149861876Y-79787976D01*
X149814257Y-79978452D01*
X149814257Y-80121309D01*
X149861876Y-80311785D01*
X149909495Y-80407023D01*
X150004733Y-80502261D01*
X150147590Y-80549880D01*
X150242828Y-80549880D01*
X150385685Y-80502261D01*
X150433304Y-80454642D01*
X150433304Y-80121309D01*
X150242828Y-80121309D01*
X150861876Y-80549880D02*
X150861876Y-79549880D01*
X151242828Y-79549880D01*
X151338066Y-79597500D01*
X151385685Y-79645119D01*
X151433304Y-79740357D01*
X151433304Y-79883214D01*
X151385685Y-79978452D01*
X151338066Y-80026071D01*
X151242828Y-80073690D01*
X150861876Y-80073690D01*
X151861876Y-80549880D02*
X151861876Y-79549880D01*
X152528542Y-79549880D02*
X152719019Y-79549880D01*
X152814257Y-79597500D01*
X152909495Y-79692738D01*
X152957114Y-79883214D01*
X152957114Y-80216547D01*
X152909495Y-80407023D01*
X152814257Y-80502261D01*
X152719019Y-80549880D01*
X152528542Y-80549880D01*
X152433304Y-80502261D01*
X152338066Y-80407023D01*
X152290447Y-80216547D01*
X152290447Y-79883214D01*
X152338066Y-79692738D01*
X152433304Y-79597500D01*
X152528542Y-79549880D01*
X153147590Y-80645119D02*
X153909495Y-80645119D01*
X154623780Y-80549880D02*
X154147590Y-80549880D01*
X154147590Y-79549880D01*
X154711495Y-82319880D02*
X155282923Y-82319880D01*
X154997209Y-83319880D02*
X154997209Y-82319880D01*
X155521019Y-82319880D02*
X156187685Y-83319880D01*
X156187685Y-82319880D02*
X155521019Y-83319880D01*
X155306733Y-85859880D02*
X154973400Y-85383690D01*
X154735304Y-85859880D02*
X154735304Y-84859880D01*
X155116257Y-84859880D01*
X155211495Y-84907500D01*
X155259114Y-84955119D01*
X155306733Y-85050357D01*
X155306733Y-85193214D01*
X155259114Y-85288452D01*
X155211495Y-85336071D01*
X155116257Y-85383690D01*
X154735304Y-85383690D01*
X155640066Y-84859880D02*
X156306733Y-85859880D01*
X156306733Y-84859880D02*
X155640066Y-85859880D01*
X154647971Y-88399880D02*
X154647971Y-87399880D01*
X154981304Y-88114166D01*
X155314638Y-87399880D01*
X155314638Y-88399880D01*
X155790828Y-88399880D02*
X155790828Y-87399880D01*
X154616257Y-90939880D02*
X154616257Y-89939880D01*
X154949590Y-90654166D01*
X155282923Y-89939880D01*
X155282923Y-90939880D01*
X155949590Y-89939880D02*
X156140066Y-89939880D01*
X156235304Y-89987500D01*
X156330542Y-90082738D01*
X156378161Y-90273214D01*
X156378161Y-90606547D01*
X156330542Y-90797023D01*
X156235304Y-90892261D01*
X156140066Y-90939880D01*
X155949590Y-90939880D01*
X155854352Y-90892261D01*
X155759114Y-90797023D01*
X155711495Y-90606547D01*
X155711495Y-90273214D01*
X155759114Y-90082738D01*
X155854352Y-89987500D01*
X155949590Y-89939880D01*
X154441685Y-93432261D02*
X154584542Y-93479880D01*
X154822638Y-93479880D01*
X154917876Y-93432261D01*
X154965495Y-93384642D01*
X155013114Y-93289404D01*
X155013114Y-93194166D01*
X154965495Y-93098928D01*
X154917876Y-93051309D01*
X154822638Y-93003690D01*
X154632161Y-92956071D01*
X154536923Y-92908452D01*
X154489304Y-92860833D01*
X154441685Y-92765595D01*
X154441685Y-92670357D01*
X154489304Y-92575119D01*
X154536923Y-92527500D01*
X154632161Y-92479880D01*
X154870257Y-92479880D01*
X155013114Y-92527500D01*
X156013114Y-93384642D02*
X155965495Y-93432261D01*
X155822638Y-93479880D01*
X155727400Y-93479880D01*
X155584542Y-93432261D01*
X155489304Y-93337023D01*
X155441685Y-93241785D01*
X155394066Y-93051309D01*
X155394066Y-92908452D01*
X155441685Y-92717976D01*
X155489304Y-92622738D01*
X155584542Y-92527500D01*
X155727400Y-92479880D01*
X155822638Y-92479880D01*
X155965495Y-92527500D01*
X156013114Y-92575119D01*
X156441685Y-93479880D02*
X156441685Y-92479880D01*
X157013114Y-93479880D02*
X156584542Y-92908452D01*
X157013114Y-92479880D02*
X156441685Y-93051309D01*
X154759114Y-95734166D02*
X155235304Y-95734166D01*
X154663876Y-96019880D02*
X154997209Y-95019880D01*
X155330542Y-96019880D01*
X156140066Y-95019880D02*
X155663876Y-95019880D01*
X155616257Y-95496071D01*
X155663876Y-95448452D01*
X155759114Y-95400833D01*
X155997209Y-95400833D01*
X156092447Y-95448452D01*
X156140066Y-95496071D01*
X156187685Y-95591309D01*
X156187685Y-95829404D01*
X156140066Y-95924642D01*
X156092447Y-95972261D01*
X155997209Y-96019880D01*
X155759114Y-96019880D01*
X155663876Y-95972261D01*
X155616257Y-95924642D01*
X154759114Y-98274166D02*
X155235304Y-98274166D01*
X154663876Y-98559880D02*
X154997209Y-97559880D01*
X155330542Y-98559880D01*
X156092447Y-97893214D02*
X156092447Y-98559880D01*
X155854352Y-97512261D02*
X155616257Y-98226547D01*
X156235304Y-98226547D01*
X154759114Y-100814166D02*
X155235304Y-100814166D01*
X154663876Y-101099880D02*
X154997209Y-100099880D01*
X155330542Y-101099880D01*
X155568638Y-100099880D02*
X156187685Y-100099880D01*
X155854352Y-100480833D01*
X155997209Y-100480833D01*
X156092447Y-100528452D01*
X156140066Y-100576071D01*
X156187685Y-100671309D01*
X156187685Y-100909404D01*
X156140066Y-101004642D01*
X156092447Y-101052261D01*
X155997209Y-101099880D01*
X155711495Y-101099880D01*
X155616257Y-101052261D01*
X155568638Y-101004642D01*
X154759114Y-103354166D02*
X155235304Y-103354166D01*
X154663876Y-103639880D02*
X154997209Y-102639880D01*
X155330542Y-103639880D01*
X155616257Y-102735119D02*
X155663876Y-102687500D01*
X155759114Y-102639880D01*
X155997209Y-102639880D01*
X156092447Y-102687500D01*
X156140066Y-102735119D01*
X156187685Y-102830357D01*
X156187685Y-102925595D01*
X156140066Y-103068452D01*
X155568638Y-103639880D01*
X156187685Y-103639880D01*
X154759114Y-105894166D02*
X155235304Y-105894166D01*
X154663876Y-106179880D02*
X154997209Y-105179880D01*
X155330542Y-106179880D01*
X156187685Y-106179880D02*
X155616257Y-106179880D01*
X155901971Y-106179880D02*
X155901971Y-105179880D01*
X155806733Y-105322738D01*
X155711495Y-105417976D01*
X155616257Y-105465595D01*
X154759114Y-108434166D02*
X155235304Y-108434166D01*
X154663876Y-108719880D02*
X154997209Y-107719880D01*
X155330542Y-108719880D01*
X155854352Y-107719880D02*
X155949590Y-107719880D01*
X156044828Y-107767500D01*
X156092447Y-107815119D01*
X156140066Y-107910357D01*
X156187685Y-108100833D01*
X156187685Y-108338928D01*
X156140066Y-108529404D01*
X156092447Y-108624642D01*
X156044828Y-108672261D01*
X155949590Y-108719880D01*
X155854352Y-108719880D01*
X155759114Y-108672261D01*
X155711495Y-108624642D01*
X155663876Y-108529404D01*
X155616257Y-108338928D01*
X155616257Y-108100833D01*
X155663876Y-107910357D01*
X155711495Y-107815119D01*
X155759114Y-107767500D01*
X155854352Y-107719880D01*
X154965495Y-110307500D02*
X154870257Y-110259880D01*
X154727400Y-110259880D01*
X154584542Y-110307500D01*
X154489304Y-110402738D01*
X154441685Y-110497976D01*
X154394066Y-110688452D01*
X154394066Y-110831309D01*
X154441685Y-111021785D01*
X154489304Y-111117023D01*
X154584542Y-111212261D01*
X154727400Y-111259880D01*
X154822638Y-111259880D01*
X154965495Y-111212261D01*
X155013114Y-111164642D01*
X155013114Y-110831309D01*
X154822638Y-110831309D01*
X155441685Y-111259880D02*
X155441685Y-110259880D01*
X156013114Y-111259880D01*
X156013114Y-110259880D01*
X156489304Y-111259880D02*
X156489304Y-110259880D01*
X156727400Y-110259880D01*
X156870257Y-110307500D01*
X156965495Y-110402738D01*
X157013114Y-110497976D01*
X157060733Y-110688452D01*
X157060733Y-110831309D01*
X157013114Y-111021785D01*
X156965495Y-111117023D01*
X156870257Y-111212261D01*
X156727400Y-111259880D01*
X156489304Y-111259880D01*
X154640066Y-113799880D02*
X154640066Y-112799880D01*
X154973400Y-113514166D01*
X155306733Y-112799880D01*
X155306733Y-113799880D01*
X155782923Y-113799880D02*
X155782923Y-112799880D01*
X156021019Y-112799880D01*
X156163876Y-112847500D01*
X156259114Y-112942738D01*
X156306733Y-113037976D01*
X156354352Y-113228452D01*
X156354352Y-113371309D01*
X156306733Y-113561785D01*
X156259114Y-113657023D01*
X156163876Y-113752261D01*
X156021019Y-113799880D01*
X155782923Y-113799880D01*
X154489304Y-115339880D02*
X155108352Y-115339880D01*
X154775019Y-115720833D01*
X154917876Y-115720833D01*
X155013114Y-115768452D01*
X155060733Y-115816071D01*
X155108352Y-115911309D01*
X155108352Y-116149404D01*
X155060733Y-116244642D01*
X155013114Y-116292261D01*
X154917876Y-116339880D01*
X154632161Y-116339880D01*
X154536923Y-116292261D01*
X154489304Y-116244642D01*
X155394066Y-115339880D02*
X155727400Y-116339880D01*
X156060733Y-115339880D01*
X156298828Y-115339880D02*
X156917876Y-115339880D01*
X156584542Y-115720833D01*
X156727400Y-115720833D01*
X156822638Y-115768452D01*
X156870257Y-115816071D01*
X156917876Y-115911309D01*
X156917876Y-116149404D01*
X156870257Y-116244642D01*
X156822638Y-116292261D01*
X156727400Y-116339880D01*
X156441685Y-116339880D01*
X156346447Y-116292261D01*
X156298828Y-116244642D01*
X182457876Y-76540952D02*
X182397400Y-76661904D01*
X182276447Y-76782857D01*
X182095019Y-76964285D01*
X182034542Y-77085238D01*
X182034542Y-77206190D01*
X182336923Y-77145714D02*
X182276447Y-77266666D01*
X182155495Y-77387619D01*
X181913590Y-77448095D01*
X181490257Y-77448095D01*
X181248352Y-77387619D01*
X181127400Y-77266666D01*
X181066923Y-77145714D01*
X181066923Y-76903809D01*
X181127400Y-76782857D01*
X181248352Y-76661904D01*
X181490257Y-76601428D01*
X181913590Y-76601428D01*
X182155495Y-76661904D01*
X182276447Y-76782857D01*
X182336923Y-76903809D01*
X182336923Y-77145714D01*
X182336923Y-75391904D02*
X182336923Y-76117619D01*
X182336923Y-75754761D02*
X181066923Y-75754761D01*
X181248352Y-75875714D01*
X181369304Y-75996666D01*
X181429780Y-76117619D01*
X167604923Y-79927619D02*
X166334923Y-79927619D01*
X166939685Y-78899523D02*
X166939685Y-79322857D01*
X167604923Y-79322857D02*
X166334923Y-79322857D01*
X166334923Y-78718095D01*
X167121114Y-78234285D02*
X167121114Y-77266666D01*
X167604923Y-76661904D02*
X166334923Y-76661904D01*
X166334923Y-76359523D01*
X166395400Y-76178095D01*
X166516352Y-76057142D01*
X166637304Y-75996666D01*
X166879209Y-75936190D01*
X167060638Y-75936190D01*
X167302542Y-75996666D01*
X167423495Y-76057142D01*
X167544447Y-76178095D01*
X167604923Y-76359523D01*
X167604923Y-76661904D01*
X167604923Y-75331428D02*
X167604923Y-75089523D01*
X167544447Y-74968571D01*
X167483971Y-74908095D01*
X167302542Y-74787142D01*
X167060638Y-74726666D01*
X166576828Y-74726666D01*
X166455876Y-74787142D01*
X166395400Y-74847619D01*
X166334923Y-74968571D01*
X166334923Y-75210476D01*
X166395400Y-75331428D01*
X166455876Y-75391904D01*
X166576828Y-75452380D01*
X166879209Y-75452380D01*
X167000161Y-75391904D01*
X167060638Y-75331428D01*
X167121114Y-75210476D01*
X167121114Y-74968571D01*
X167060638Y-74847619D01*
X167000161Y-74787142D01*
X166879209Y-74726666D01*
X166455876Y-74242857D02*
X166395400Y-74182380D01*
X166334923Y-74061428D01*
X166334923Y-73759047D01*
X166395400Y-73638095D01*
X166455876Y-73577619D01*
X166576828Y-73517142D01*
X166697780Y-73517142D01*
X166879209Y-73577619D01*
X167604923Y-74303333D01*
X167604923Y-73517142D01*
X110475780Y-59324833D02*
X111190066Y-59324833D01*
X111332923Y-59372452D01*
X111428161Y-59467690D01*
X111475780Y-59610547D01*
X111475780Y-59705785D01*
X111475780Y-58324833D02*
X111475780Y-58896261D01*
X111475780Y-58610547D02*
X110475780Y-58610547D01*
X110618638Y-58705785D01*
X110713876Y-58801023D01*
X110761495Y-58896261D01*
X105903780Y-60451690D02*
X105903780Y-59880261D01*
X106903780Y-60165976D02*
X105903780Y-60165976D01*
X105903780Y-59642166D02*
X106903780Y-58975500D01*
X105903780Y-58975500D02*
X106903780Y-59642166D01*
X106999019Y-58832642D02*
X106999019Y-58070738D01*
X106856161Y-57880261D02*
X106903780Y-57737404D01*
X106903780Y-57499309D01*
X106856161Y-57404071D01*
X106808542Y-57356452D01*
X106713304Y-57308833D01*
X106618066Y-57308833D01*
X106522828Y-57356452D01*
X106475209Y-57404071D01*
X106427590Y-57499309D01*
X106379971Y-57689785D01*
X106332352Y-57785023D01*
X106284733Y-57832642D01*
X106189495Y-57880261D01*
X106094257Y-57880261D01*
X105999019Y-57832642D01*
X105951400Y-57785023D01*
X105903780Y-57689785D01*
X105903780Y-57451690D01*
X105951400Y-57308833D01*
X106379971Y-56880261D02*
X106379971Y-56546928D01*
X106903780Y-56404071D02*
X106903780Y-56880261D01*
X105903780Y-56880261D01*
X105903780Y-56404071D01*
X106903780Y-55499309D02*
X106903780Y-55975500D01*
X105903780Y-55975500D01*
X109047019Y-70604261D02*
X109523209Y-70270928D01*
X109047019Y-70032833D02*
X110047019Y-70032833D01*
X110047019Y-70413785D01*
X109999400Y-70509023D01*
X109951780Y-70556642D01*
X109856542Y-70604261D01*
X109713685Y-70604261D01*
X109618447Y-70556642D01*
X109570828Y-70509023D01*
X109523209Y-70413785D01*
X109523209Y-70032833D01*
X109094638Y-70985214D02*
X109047019Y-71128071D01*
X109047019Y-71366166D01*
X109094638Y-71461404D01*
X109142257Y-71509023D01*
X109237495Y-71556642D01*
X109332733Y-71556642D01*
X109427971Y-71509023D01*
X109475590Y-71461404D01*
X109523209Y-71366166D01*
X109570828Y-71175690D01*
X109618447Y-71080452D01*
X109666066Y-71032833D01*
X109761304Y-70985214D01*
X109856542Y-70985214D01*
X109951780Y-71032833D01*
X109999400Y-71080452D01*
X110047019Y-71175690D01*
X110047019Y-71413785D01*
X109999400Y-71556642D01*
X109951780Y-71937595D02*
X109999400Y-71985214D01*
X110047019Y-72080452D01*
X110047019Y-72318547D01*
X109999400Y-72413785D01*
X109951780Y-72461404D01*
X109856542Y-72509023D01*
X109761304Y-72509023D01*
X109618447Y-72461404D01*
X109047019Y-71889976D01*
X109047019Y-72509023D01*
X110047019Y-72842357D02*
X110047019Y-73461404D01*
X109666066Y-73128071D01*
X109666066Y-73270928D01*
X109618447Y-73366166D01*
X109570828Y-73413785D01*
X109475590Y-73461404D01*
X109237495Y-73461404D01*
X109142257Y-73413785D01*
X109094638Y-73366166D01*
X109047019Y-73270928D01*
X109047019Y-72985214D01*
X109094638Y-72889976D01*
X109142257Y-72842357D01*
X109951780Y-73842357D02*
X109999400Y-73889976D01*
X110047019Y-73985214D01*
X110047019Y-74223309D01*
X109999400Y-74318547D01*
X109951780Y-74366166D01*
X109856542Y-74413785D01*
X109761304Y-74413785D01*
X109618447Y-74366166D01*
X109047019Y-73794738D01*
X109047019Y-74413785D01*
X112587019Y-70096261D02*
X111777495Y-70096261D01*
X111682257Y-70143880D01*
X111634638Y-70191500D01*
X111587019Y-70286738D01*
X111587019Y-70477214D01*
X111634638Y-70572452D01*
X111682257Y-70620071D01*
X111777495Y-70667690D01*
X112587019Y-70667690D01*
X111872733Y-71096261D02*
X111872733Y-71572452D01*
X111587019Y-71001023D02*
X112587019Y-71334357D01*
X111587019Y-71667690D01*
X111587019Y-72572452D02*
X112063209Y-72239119D01*
X111587019Y-72001023D02*
X112587019Y-72001023D01*
X112587019Y-72381976D01*
X112539400Y-72477214D01*
X112491780Y-72524833D01*
X112396542Y-72572452D01*
X112253685Y-72572452D01*
X112158447Y-72524833D01*
X112110828Y-72477214D01*
X112063209Y-72381976D01*
X112063209Y-72001023D01*
X112587019Y-72858166D02*
X112587019Y-73429595D01*
X111587019Y-73143880D02*
X112587019Y-73143880D01*
X180071780Y-124904071D02*
X180071780Y-124332642D01*
X181071780Y-124618357D02*
X180071780Y-124618357D01*
X180547971Y-123999309D02*
X180547971Y-123665976D01*
X181071780Y-123523119D02*
X181071780Y-123999309D01*
X180071780Y-123999309D01*
X180071780Y-123523119D01*
X181024161Y-123142166D02*
X181071780Y-122999309D01*
X181071780Y-122761214D01*
X181024161Y-122665976D01*
X180976542Y-122618357D01*
X180881304Y-122570738D01*
X180786066Y-122570738D01*
X180690828Y-122618357D01*
X180643209Y-122665976D01*
X180595590Y-122761214D01*
X180547971Y-122951690D01*
X180500352Y-123046928D01*
X180452733Y-123094547D01*
X180357495Y-123142166D01*
X180262257Y-123142166D01*
X180167019Y-123094547D01*
X180119400Y-123046928D01*
X180071780Y-122951690D01*
X180071780Y-122713595D01*
X180119400Y-122570738D01*
X180071780Y-122285023D02*
X180071780Y-121713595D01*
X181071780Y-121999309D02*
X180071780Y-121999309D01*
X181167019Y-121618357D02*
X181167019Y-120856452D01*
X180976542Y-120046928D02*
X181024161Y-120094547D01*
X181071780Y-120237404D01*
X181071780Y-120332642D01*
X181024161Y-120475500D01*
X180928923Y-120570738D01*
X180833685Y-120618357D01*
X180643209Y-120665976D01*
X180500352Y-120665976D01*
X180309876Y-120618357D01*
X180214638Y-120570738D01*
X180119400Y-120475500D01*
X180071780Y-120332642D01*
X180071780Y-120237404D01*
X180119400Y-120094547D01*
X180167019Y-120046928D01*
X180786066Y-119665976D02*
X180786066Y-119189785D01*
X181071780Y-119761214D02*
X180071780Y-119427880D01*
X181071780Y-119094547D01*
X181071780Y-118761214D02*
X180071780Y-118761214D01*
X181071780Y-118189785D01*
X180071780Y-118189785D01*
X177007780Y-122181976D02*
X177007780Y-122658166D01*
X176007780Y-122658166D01*
X177007780Y-120237214D02*
X176007780Y-120237214D01*
X176483971Y-120237214D02*
X176483971Y-119665785D01*
X177007780Y-119665785D02*
X176007780Y-119665785D01*
X119096257Y-122959880D02*
X119667685Y-122959880D01*
X119381971Y-123959880D02*
X119381971Y-122959880D01*
X120001019Y-123436071D02*
X120334352Y-123436071D01*
X120477209Y-123959880D02*
X120001019Y-123959880D01*
X120001019Y-122959880D01*
X120477209Y-122959880D01*
X120858161Y-123912261D02*
X121001019Y-123959880D01*
X121239114Y-123959880D01*
X121334352Y-123912261D01*
X121381971Y-123864642D01*
X121429590Y-123769404D01*
X121429590Y-123674166D01*
X121381971Y-123578928D01*
X121334352Y-123531309D01*
X121239114Y-123483690D01*
X121048638Y-123436071D01*
X120953400Y-123388452D01*
X120905780Y-123340833D01*
X120858161Y-123245595D01*
X120858161Y-123150357D01*
X120905780Y-123055119D01*
X120953400Y-123007500D01*
X121048638Y-122959880D01*
X121286733Y-122959880D01*
X121429590Y-123007500D01*
X121715304Y-122959880D02*
X122286733Y-122959880D01*
X122001019Y-123959880D02*
X122001019Y-122959880D01*
X122381971Y-124055119D02*
X123143876Y-124055119D01*
X123286733Y-122959880D02*
X123905780Y-122959880D01*
X123572447Y-123340833D01*
X123715304Y-123340833D01*
X123810542Y-123388452D01*
X123858161Y-123436071D01*
X123905780Y-123531309D01*
X123905780Y-123769404D01*
X123858161Y-123864642D01*
X123810542Y-123912261D01*
X123715304Y-123959880D01*
X123429590Y-123959880D01*
X123334352Y-123912261D01*
X123286733Y-123864642D01*
X124191495Y-122959880D02*
X124524828Y-123959880D01*
X124858161Y-122959880D01*
X125096257Y-122959880D02*
X125715304Y-122959880D01*
X125381971Y-123340833D01*
X125524828Y-123340833D01*
X125620066Y-123388452D01*
X125667685Y-123436071D01*
X125715304Y-123531309D01*
X125715304Y-123769404D01*
X125667685Y-123864642D01*
X125620066Y-123912261D01*
X125524828Y-123959880D01*
X125239114Y-123959880D01*
X125143876Y-123912261D01*
X125096257Y-123864642D01*
X123794828Y-120332452D02*
X123794828Y-119570547D01*
X124175780Y-119951500D02*
X123413876Y-119951500D01*
X120802447Y-120022928D02*
X121564352Y-120022928D01*
X180556447Y-65587880D02*
X181127876Y-65587880D01*
X180842161Y-66587880D02*
X180842161Y-65587880D01*
X181461209Y-66064071D02*
X181794542Y-66064071D01*
X181937400Y-66587880D02*
X181461209Y-66587880D01*
X181461209Y-65587880D01*
X181937400Y-65587880D01*
X182318352Y-66540261D02*
X182461209Y-66587880D01*
X182699304Y-66587880D01*
X182794542Y-66540261D01*
X182842161Y-66492642D01*
X182889780Y-66397404D01*
X182889780Y-66302166D01*
X182842161Y-66206928D01*
X182794542Y-66159309D01*
X182699304Y-66111690D01*
X182508828Y-66064071D01*
X182413590Y-66016452D01*
X182365971Y-65968833D01*
X182318352Y-65873595D01*
X182318352Y-65778357D01*
X182365971Y-65683119D01*
X182413590Y-65635500D01*
X182508828Y-65587880D01*
X182746923Y-65587880D01*
X182889780Y-65635500D01*
X183175495Y-65587880D02*
X183746923Y-65587880D01*
X183461209Y-66587880D02*
X183461209Y-65587880D01*
X183842161Y-66683119D02*
X184604066Y-66683119D01*
X185413590Y-66587880D02*
X185080257Y-66111690D01*
X184842161Y-66587880D02*
X184842161Y-65587880D01*
X185223114Y-65587880D01*
X185318352Y-65635500D01*
X185365971Y-65683119D01*
X185413590Y-65778357D01*
X185413590Y-65921214D01*
X185365971Y-66016452D01*
X185318352Y-66064071D01*
X185223114Y-66111690D01*
X184842161Y-66111690D01*
X185794542Y-66540261D02*
X185937400Y-66587880D01*
X186175495Y-66587880D01*
X186270733Y-66540261D01*
X186318352Y-66492642D01*
X186365971Y-66397404D01*
X186365971Y-66302166D01*
X186318352Y-66206928D01*
X186270733Y-66159309D01*
X186175495Y-66111690D01*
X185985019Y-66064071D01*
X185889780Y-66016452D01*
X185842161Y-65968833D01*
X185794542Y-65873595D01*
X185794542Y-65778357D01*
X185842161Y-65683119D01*
X185889780Y-65635500D01*
X185985019Y-65587880D01*
X186223114Y-65587880D01*
X186365971Y-65635500D01*
X186746923Y-65683119D02*
X186794542Y-65635500D01*
X186889780Y-65587880D01*
X187127876Y-65587880D01*
X187223114Y-65635500D01*
X187270733Y-65683119D01*
X187318352Y-65778357D01*
X187318352Y-65873595D01*
X187270733Y-66016452D01*
X186699304Y-66587880D01*
X187318352Y-66587880D01*
X187651685Y-65587880D02*
X188270733Y-65587880D01*
X187937400Y-65968833D01*
X188080257Y-65968833D01*
X188175495Y-66016452D01*
X188223114Y-66064071D01*
X188270733Y-66159309D01*
X188270733Y-66397404D01*
X188223114Y-66492642D01*
X188175495Y-66540261D01*
X188080257Y-66587880D01*
X187794542Y-66587880D01*
X187699304Y-66540261D01*
X187651685Y-66492642D01*
X188651685Y-65683119D02*
X188699304Y-65635500D01*
X188794542Y-65587880D01*
X189032638Y-65587880D01*
X189127876Y-65635500D01*
X189175495Y-65683119D01*
X189223114Y-65778357D01*
X189223114Y-65873595D01*
X189175495Y-66016452D01*
X188604066Y-66587880D01*
X189223114Y-66587880D01*
X185659780Y-70929404D02*
X185659780Y-70357976D01*
X186659780Y-70643690D02*
X185659780Y-70643690D01*
X185659780Y-70119880D02*
X186659780Y-69453214D01*
X185659780Y-69453214D02*
X186659780Y-70119880D01*
X184119780Y-70334166D02*
X183643590Y-70667500D01*
X184119780Y-70905595D02*
X183119780Y-70905595D01*
X183119780Y-70524642D01*
X183167400Y-70429404D01*
X183215019Y-70381785D01*
X183310257Y-70334166D01*
X183453114Y-70334166D01*
X183548352Y-70381785D01*
X183595971Y-70429404D01*
X183643590Y-70524642D01*
X183643590Y-70905595D01*
X183119780Y-70000833D02*
X184119780Y-69334166D01*
X183119780Y-69334166D02*
X184119780Y-70000833D01*
X159029495Y-121372261D02*
X159172352Y-121419880D01*
X159410447Y-121419880D01*
X159505685Y-121372261D01*
X159553304Y-121324642D01*
X159600923Y-121229404D01*
X159600923Y-121134166D01*
X159553304Y-121038928D01*
X159505685Y-120991309D01*
X159410447Y-120943690D01*
X159219971Y-120896071D01*
X159124733Y-120848452D01*
X159077114Y-120800833D01*
X159029495Y-120705595D01*
X159029495Y-120610357D01*
X159077114Y-120515119D01*
X159124733Y-120467500D01*
X159219971Y-120419880D01*
X159458066Y-120419880D01*
X159600923Y-120467500D01*
X160553304Y-121419880D02*
X159981876Y-121419880D01*
X160267590Y-121419880D02*
X160267590Y-120419880D01*
X160172352Y-120562738D01*
X160077114Y-120657976D01*
X159981876Y-120705595D01*
X159077114Y-116593880D02*
X158600923Y-116593880D01*
X158600923Y-115593880D01*
X159600923Y-115593880D02*
X159791400Y-115593880D01*
X159886638Y-115641500D01*
X159981876Y-115736738D01*
X160029495Y-115927214D01*
X160029495Y-116260547D01*
X159981876Y-116451023D01*
X159886638Y-116546261D01*
X159791400Y-116593880D01*
X159600923Y-116593880D01*
X159505685Y-116546261D01*
X159410447Y-116451023D01*
X159362828Y-116260547D01*
X159362828Y-115927214D01*
X159410447Y-115736738D01*
X159505685Y-115641500D01*
X159600923Y-115593880D01*
X160981876Y-115641500D02*
X160886638Y-115593880D01*
X160743780Y-115593880D01*
X160600923Y-115641500D01*
X160505685Y-115736738D01*
X160458066Y-115831976D01*
X160410447Y-116022452D01*
X160410447Y-116165309D01*
X160458066Y-116355785D01*
X160505685Y-116451023D01*
X160600923Y-116546261D01*
X160743780Y-116593880D01*
X160839019Y-116593880D01*
X160981876Y-116546261D01*
X161029495Y-116498642D01*
X161029495Y-116165309D01*
X160839019Y-116165309D01*
X142337780Y-104370166D02*
X141861590Y-104703500D01*
X142337780Y-104941595D02*
X141337780Y-104941595D01*
X141337780Y-104560642D01*
X141385400Y-104465404D01*
X141433019Y-104417785D01*
X141528257Y-104370166D01*
X141671114Y-104370166D01*
X141766352Y-104417785D01*
X141813971Y-104465404D01*
X141861590Y-104560642D01*
X141861590Y-104941595D01*
X141337780Y-104036833D02*
X141337780Y-103417785D01*
X141718733Y-103751119D01*
X141718733Y-103608261D01*
X141766352Y-103513023D01*
X141813971Y-103465404D01*
X141909209Y-103417785D01*
X142147304Y-103417785D01*
X142242542Y-103465404D01*
X142290161Y-103513023D01*
X142337780Y-103608261D01*
X142337780Y-103893976D01*
X142290161Y-103989214D01*
X142242542Y-104036833D01*
X109840733Y-95511880D02*
X109507400Y-95035690D01*
X109269304Y-95511880D02*
X109269304Y-94511880D01*
X109650257Y-94511880D01*
X109745495Y-94559500D01*
X109793114Y-94607119D01*
X109840733Y-94702357D01*
X109840733Y-94845214D01*
X109793114Y-94940452D01*
X109745495Y-94988071D01*
X109650257Y-95035690D01*
X109269304Y-95035690D01*
X110221685Y-94607119D02*
X110269304Y-94559500D01*
X110364542Y-94511880D01*
X110602638Y-94511880D01*
X110697876Y-94559500D01*
X110745495Y-94607119D01*
X110793114Y-94702357D01*
X110793114Y-94797595D01*
X110745495Y-94940452D01*
X110174066Y-95511880D01*
X110793114Y-95511880D01*
X109245495Y-90955880D02*
X109055019Y-90955880D01*
X108959780Y-91003500D01*
X108912161Y-91051119D01*
X108816923Y-91193976D01*
X108769304Y-91384452D01*
X108769304Y-91765404D01*
X108816923Y-91860642D01*
X108864542Y-91908261D01*
X108959780Y-91955880D01*
X109150257Y-91955880D01*
X109245495Y-91908261D01*
X109293114Y-91860642D01*
X109340733Y-91765404D01*
X109340733Y-91527309D01*
X109293114Y-91432071D01*
X109245495Y-91384452D01*
X109150257Y-91336833D01*
X108959780Y-91336833D01*
X108864542Y-91384452D01*
X108816923Y-91432071D01*
X108769304Y-91527309D01*
X109912161Y-91384452D02*
X109816923Y-91336833D01*
X109769304Y-91289214D01*
X109721685Y-91193976D01*
X109721685Y-91146357D01*
X109769304Y-91051119D01*
X109816923Y-91003500D01*
X109912161Y-90955880D01*
X110102638Y-90955880D01*
X110197876Y-91003500D01*
X110245495Y-91051119D01*
X110293114Y-91146357D01*
X110293114Y-91193976D01*
X110245495Y-91289214D01*
X110197876Y-91336833D01*
X110102638Y-91384452D01*
X109912161Y-91384452D01*
X109816923Y-91432071D01*
X109769304Y-91479690D01*
X109721685Y-91574928D01*
X109721685Y-91765404D01*
X109769304Y-91860642D01*
X109816923Y-91908261D01*
X109912161Y-91955880D01*
X110102638Y-91955880D01*
X110197876Y-91908261D01*
X110245495Y-91860642D01*
X110293114Y-91765404D01*
X110293114Y-91574928D01*
X110245495Y-91479690D01*
X110197876Y-91432071D01*
X110102638Y-91384452D01*
X110912161Y-90955880D02*
X111007400Y-90955880D01*
X111102638Y-91003500D01*
X111150257Y-91051119D01*
X111197876Y-91146357D01*
X111245495Y-91336833D01*
X111245495Y-91574928D01*
X111197876Y-91765404D01*
X111150257Y-91860642D01*
X111102638Y-91908261D01*
X111007400Y-91955880D01*
X110912161Y-91955880D01*
X110816923Y-91908261D01*
X110769304Y-91860642D01*
X110721685Y-91765404D01*
X110674066Y-91574928D01*
X110674066Y-91336833D01*
X110721685Y-91146357D01*
X110769304Y-91051119D01*
X110816923Y-91003500D01*
X110912161Y-90955880D01*
X142337780Y-108942166D02*
X141861590Y-109275500D01*
X142337780Y-109513595D02*
X141337780Y-109513595D01*
X141337780Y-109132642D01*
X141385400Y-109037404D01*
X141433019Y-108989785D01*
X141528257Y-108942166D01*
X141671114Y-108942166D01*
X141766352Y-108989785D01*
X141813971Y-109037404D01*
X141861590Y-109132642D01*
X141861590Y-109513595D01*
X142337780Y-107989785D02*
X142337780Y-108561214D01*
X142337780Y-108275500D02*
X141337780Y-108275500D01*
X141480638Y-108370738D01*
X141575876Y-108465976D01*
X141623495Y-108561214D01*
X114920733Y-96019880D02*
X114444542Y-96019880D01*
X114444542Y-95019880D01*
X115777876Y-96019880D02*
X115206447Y-96019880D01*
X115492161Y-96019880D02*
X115492161Y-95019880D01*
X115396923Y-95162738D01*
X115301685Y-95257976D01*
X115206447Y-95305595D01*
X114444542Y-91955880D02*
X114111209Y-91479690D01*
X113873114Y-91955880D02*
X113873114Y-90955880D01*
X114254066Y-90955880D01*
X114349304Y-91003500D01*
X114396923Y-91051119D01*
X114444542Y-91146357D01*
X114444542Y-91289214D01*
X114396923Y-91384452D01*
X114349304Y-91432071D01*
X114254066Y-91479690D01*
X113873114Y-91479690D01*
X114873114Y-91432071D02*
X115206447Y-91432071D01*
X115349304Y-91955880D02*
X114873114Y-91955880D01*
X114873114Y-90955880D01*
X115349304Y-90955880D01*
X115777876Y-91955880D02*
X115777876Y-90955880D01*
X116015971Y-90955880D01*
X116158828Y-91003500D01*
X116254066Y-91098738D01*
X116301685Y-91193976D01*
X116349304Y-91384452D01*
X116349304Y-91527309D01*
X116301685Y-91717785D01*
X116254066Y-91813023D01*
X116158828Y-91908261D01*
X116015971Y-91955880D01*
X115777876Y-91955880D01*
X133859590Y-105187690D02*
X134335780Y-105187690D01*
X133335780Y-105521023D02*
X133859590Y-105187690D01*
X133335780Y-104854357D01*
X134335780Y-103997214D02*
X134335780Y-104568642D01*
X134335780Y-104282928D02*
X133335780Y-104282928D01*
X133478638Y-104378166D01*
X133573876Y-104473404D01*
X133621495Y-104568642D01*
X133764352Y-97670738D02*
X133716733Y-97765976D01*
X133669114Y-97813595D01*
X133573876Y-97861214D01*
X133526257Y-97861214D01*
X133431019Y-97813595D01*
X133383400Y-97765976D01*
X133335780Y-97670738D01*
X133335780Y-97480261D01*
X133383400Y-97385023D01*
X133431019Y-97337404D01*
X133526257Y-97289785D01*
X133573876Y-97289785D01*
X133669114Y-97337404D01*
X133716733Y-97385023D01*
X133764352Y-97480261D01*
X133764352Y-97670738D01*
X133811971Y-97765976D01*
X133859590Y-97813595D01*
X133954828Y-97861214D01*
X134145304Y-97861214D01*
X134240542Y-97813595D01*
X134288161Y-97765976D01*
X134335780Y-97670738D01*
X134335780Y-97480261D01*
X134288161Y-97385023D01*
X134240542Y-97337404D01*
X134145304Y-97289785D01*
X133954828Y-97289785D01*
X133859590Y-97337404D01*
X133811971Y-97385023D01*
X133764352Y-97480261D01*
X134335780Y-96861214D02*
X133335780Y-96861214D01*
X134050066Y-96527880D01*
X133335780Y-96194547D01*
X134335780Y-96194547D01*
X134335780Y-95718357D02*
X133335780Y-95718357D01*
X133811971Y-95718357D02*
X133811971Y-95146928D01*
X134335780Y-95146928D02*
X133335780Y-95146928D01*
X133669114Y-94765976D02*
X133669114Y-94242166D01*
X134335780Y-94765976D01*
X134335780Y-94242166D01*
X163180733Y-101733880D02*
X162847400Y-101257690D01*
X162609304Y-101733880D02*
X162609304Y-100733880D01*
X162990257Y-100733880D01*
X163085495Y-100781500D01*
X163133114Y-100829119D01*
X163180733Y-100924357D01*
X163180733Y-101067214D01*
X163133114Y-101162452D01*
X163085495Y-101210071D01*
X162990257Y-101257690D01*
X162609304Y-101257690D01*
X164037876Y-101067214D02*
X164037876Y-101733880D01*
X163799780Y-100686261D02*
X163561685Y-101400547D01*
X164180733Y-101400547D01*
X163061685Y-97433880D02*
X162871209Y-97433880D01*
X162775971Y-97481500D01*
X162728352Y-97529119D01*
X162633114Y-97671976D01*
X162585495Y-97862452D01*
X162585495Y-98243404D01*
X162633114Y-98338642D01*
X162680733Y-98386261D01*
X162775971Y-98433880D01*
X162966447Y-98433880D01*
X163061685Y-98386261D01*
X163109304Y-98338642D01*
X163156923Y-98243404D01*
X163156923Y-98005309D01*
X163109304Y-97910071D01*
X163061685Y-97862452D01*
X162966447Y-97814833D01*
X162775971Y-97814833D01*
X162680733Y-97862452D01*
X162633114Y-97910071D01*
X162585495Y-98005309D01*
X163728352Y-97862452D02*
X163633114Y-97814833D01*
X163585495Y-97767214D01*
X163537876Y-97671976D01*
X163537876Y-97624357D01*
X163585495Y-97529119D01*
X163633114Y-97481500D01*
X163728352Y-97433880D01*
X163918828Y-97433880D01*
X164014066Y-97481500D01*
X164061685Y-97529119D01*
X164109304Y-97624357D01*
X164109304Y-97671976D01*
X164061685Y-97767214D01*
X164014066Y-97814833D01*
X163918828Y-97862452D01*
X163728352Y-97862452D01*
X163633114Y-97910071D01*
X163585495Y-97957690D01*
X163537876Y-98052928D01*
X163537876Y-98243404D01*
X163585495Y-98338642D01*
X163633114Y-98386261D01*
X163728352Y-98433880D01*
X163918828Y-98433880D01*
X164014066Y-98386261D01*
X164061685Y-98338642D01*
X164109304Y-98243404D01*
X164109304Y-98052928D01*
X164061685Y-97957690D01*
X164014066Y-97910071D01*
X163918828Y-97862452D01*
X163180733Y-107703880D02*
X162847400Y-107227690D01*
X162609304Y-107703880D02*
X162609304Y-106703880D01*
X162990257Y-106703880D01*
X163085495Y-106751500D01*
X163133114Y-106799119D01*
X163180733Y-106894357D01*
X163180733Y-107037214D01*
X163133114Y-107132452D01*
X163085495Y-107180071D01*
X162990257Y-107227690D01*
X162609304Y-107227690D01*
X164085495Y-106703880D02*
X163609304Y-106703880D01*
X163561685Y-107180071D01*
X163609304Y-107132452D01*
X163704542Y-107084833D01*
X163942638Y-107084833D01*
X164037876Y-107132452D01*
X164085495Y-107180071D01*
X164133114Y-107275309D01*
X164133114Y-107513404D01*
X164085495Y-107608642D01*
X164037876Y-107656261D01*
X163942638Y-107703880D01*
X163704542Y-107703880D01*
X163609304Y-107656261D01*
X163561685Y-107608642D01*
X162823590Y-103147880D02*
X162633114Y-103147880D01*
X162537876Y-103195500D01*
X162490257Y-103243119D01*
X162395019Y-103385976D01*
X162347400Y-103576452D01*
X162347400Y-103957404D01*
X162395019Y-104052642D01*
X162442638Y-104100261D01*
X162537876Y-104147880D01*
X162728352Y-104147880D01*
X162823590Y-104100261D01*
X162871209Y-104052642D01*
X162918828Y-103957404D01*
X162918828Y-103719309D01*
X162871209Y-103624071D01*
X162823590Y-103576452D01*
X162728352Y-103528833D01*
X162537876Y-103528833D01*
X162442638Y-103576452D01*
X162395019Y-103624071D01*
X162347400Y-103719309D01*
X163347400Y-104052642D02*
X163395019Y-104100261D01*
X163347400Y-104147880D01*
X163299780Y-104100261D01*
X163347400Y-104052642D01*
X163347400Y-104147880D01*
X163966447Y-103576452D02*
X163871209Y-103528833D01*
X163823590Y-103481214D01*
X163775971Y-103385976D01*
X163775971Y-103338357D01*
X163823590Y-103243119D01*
X163871209Y-103195500D01*
X163966447Y-103147880D01*
X164156923Y-103147880D01*
X164252161Y-103195500D01*
X164299780Y-103243119D01*
X164347400Y-103338357D01*
X164347400Y-103385976D01*
X164299780Y-103481214D01*
X164252161Y-103528833D01*
X164156923Y-103576452D01*
X163966447Y-103576452D01*
X163871209Y-103624071D01*
X163823590Y-103671690D01*
X163775971Y-103766928D01*
X163775971Y-103957404D01*
X163823590Y-104052642D01*
X163871209Y-104100261D01*
X163966447Y-104147880D01*
X164156923Y-104147880D01*
X164252161Y-104100261D01*
X164299780Y-104052642D01*
X164347400Y-103957404D01*
X164347400Y-103766928D01*
X164299780Y-103671690D01*
X164252161Y-103624071D01*
X164156923Y-103576452D01*
X163180733Y-113799880D02*
X162847400Y-113323690D01*
X162609304Y-113799880D02*
X162609304Y-112799880D01*
X162990257Y-112799880D01*
X163085495Y-112847500D01*
X163133114Y-112895119D01*
X163180733Y-112990357D01*
X163180733Y-113133214D01*
X163133114Y-113228452D01*
X163085495Y-113276071D01*
X162990257Y-113323690D01*
X162609304Y-113323690D01*
X164037876Y-112799880D02*
X163847400Y-112799880D01*
X163752161Y-112847500D01*
X163704542Y-112895119D01*
X163609304Y-113037976D01*
X163561685Y-113228452D01*
X163561685Y-113609404D01*
X163609304Y-113704642D01*
X163656923Y-113752261D01*
X163752161Y-113799880D01*
X163942638Y-113799880D01*
X164037876Y-113752261D01*
X164085495Y-113704642D01*
X164133114Y-113609404D01*
X164133114Y-113371309D01*
X164085495Y-113276071D01*
X164037876Y-113228452D01*
X163942638Y-113180833D01*
X163752161Y-113180833D01*
X163656923Y-113228452D01*
X163609304Y-113276071D01*
X163561685Y-113371309D01*
X162680733Y-110243880D02*
X162109304Y-110243880D01*
X162395019Y-110243880D02*
X162395019Y-109243880D01*
X162299780Y-109386738D01*
X162204542Y-109481976D01*
X162109304Y-109529595D01*
X163585495Y-109243880D02*
X163109304Y-109243880D01*
X163061685Y-109720071D01*
X163109304Y-109672452D01*
X163204542Y-109624833D01*
X163442638Y-109624833D01*
X163537876Y-109672452D01*
X163585495Y-109720071D01*
X163633114Y-109815309D01*
X163633114Y-110053404D01*
X163585495Y-110148642D01*
X163537876Y-110196261D01*
X163442638Y-110243880D01*
X163204542Y-110243880D01*
X163109304Y-110196261D01*
X163061685Y-110148642D01*
X164252161Y-109243880D02*
X164347400Y-109243880D01*
X164442638Y-109291500D01*
X164490257Y-109339119D01*
X164537876Y-109434357D01*
X164585495Y-109624833D01*
X164585495Y-109862928D01*
X164537876Y-110053404D01*
X164490257Y-110148642D01*
X164442638Y-110196261D01*
X164347400Y-110243880D01*
X164252161Y-110243880D01*
X164156923Y-110196261D01*
X164109304Y-110148642D01*
X164061685Y-110053404D01*
X164014066Y-109862928D01*
X164014066Y-109624833D01*
X164061685Y-109434357D01*
X164109304Y-109339119D01*
X164156923Y-109291500D01*
X164252161Y-109243880D01*
X168260733Y-101733880D02*
X167784542Y-101733880D01*
X167784542Y-100733880D01*
X168546447Y-100829119D02*
X168594066Y-100781500D01*
X168689304Y-100733880D01*
X168927400Y-100733880D01*
X169022638Y-100781500D01*
X169070257Y-100829119D01*
X169117876Y-100924357D01*
X169117876Y-101019595D01*
X169070257Y-101162452D01*
X168498828Y-101733880D01*
X169117876Y-101733880D01*
X165927400Y-97433880D02*
X166117876Y-97433880D01*
X166213114Y-97481500D01*
X166308352Y-97576738D01*
X166355971Y-97767214D01*
X166355971Y-98100547D01*
X166308352Y-98291023D01*
X166213114Y-98386261D01*
X166117876Y-98433880D01*
X165927400Y-98433880D01*
X165832161Y-98386261D01*
X165736923Y-98291023D01*
X165689304Y-98100547D01*
X165689304Y-97767214D01*
X165736923Y-97576738D01*
X165832161Y-97481500D01*
X165927400Y-97433880D01*
X167355971Y-98433880D02*
X167022638Y-97957690D01*
X166784542Y-98433880D02*
X166784542Y-97433880D01*
X167165495Y-97433880D01*
X167260733Y-97481500D01*
X167308352Y-97529119D01*
X167355971Y-97624357D01*
X167355971Y-97767214D01*
X167308352Y-97862452D01*
X167260733Y-97910071D01*
X167165495Y-97957690D01*
X166784542Y-97957690D01*
X167736923Y-98148166D02*
X168213114Y-98148166D01*
X167641685Y-98433880D02*
X167975019Y-97433880D01*
X168308352Y-98433880D01*
X168641685Y-98433880D02*
X168641685Y-97433880D01*
X169213114Y-98433880D01*
X169213114Y-97433880D01*
X170213114Y-97481500D02*
X170117876Y-97433880D01*
X169975019Y-97433880D01*
X169832161Y-97481500D01*
X169736923Y-97576738D01*
X169689304Y-97671976D01*
X169641685Y-97862452D01*
X169641685Y-98005309D01*
X169689304Y-98195785D01*
X169736923Y-98291023D01*
X169832161Y-98386261D01*
X169975019Y-98433880D01*
X170070257Y-98433880D01*
X170213114Y-98386261D01*
X170260733Y-98338642D01*
X170260733Y-98005309D01*
X170070257Y-98005309D01*
X170689304Y-97910071D02*
X171022638Y-97910071D01*
X171165495Y-98433880D02*
X170689304Y-98433880D01*
X170689304Y-97433880D01*
X171165495Y-97433880D01*
X168260733Y-107829880D02*
X167784542Y-107829880D01*
X167784542Y-106829880D01*
X168498828Y-106829880D02*
X169117876Y-106829880D01*
X168784542Y-107210833D01*
X168927400Y-107210833D01*
X169022638Y-107258452D01*
X169070257Y-107306071D01*
X169117876Y-107401309D01*
X169117876Y-107639404D01*
X169070257Y-107734642D01*
X169022638Y-107782261D01*
X168927400Y-107829880D01*
X168641685Y-107829880D01*
X168546447Y-107782261D01*
X168498828Y-107734642D01*
X167117876Y-104006071D02*
X167260733Y-104053690D01*
X167308352Y-104101309D01*
X167355971Y-104196547D01*
X167355971Y-104339404D01*
X167308352Y-104434642D01*
X167260733Y-104482261D01*
X167165495Y-104529880D01*
X166784542Y-104529880D01*
X166784542Y-103529880D01*
X167117876Y-103529880D01*
X167213114Y-103577500D01*
X167260733Y-103625119D01*
X167308352Y-103720357D01*
X167308352Y-103815595D01*
X167260733Y-103910833D01*
X167213114Y-103958452D01*
X167117876Y-104006071D01*
X166784542Y-104006071D01*
X168260733Y-104529880D02*
X167784542Y-104529880D01*
X167784542Y-103529880D01*
X168594066Y-103529880D02*
X168594066Y-104339404D01*
X168641685Y-104434642D01*
X168689304Y-104482261D01*
X168784542Y-104529880D01*
X168975019Y-104529880D01*
X169070257Y-104482261D01*
X169117876Y-104434642D01*
X169165495Y-104339404D01*
X169165495Y-103529880D01*
X169641685Y-104006071D02*
X169975019Y-104006071D01*
X170117876Y-104529880D02*
X169641685Y-104529880D01*
X169641685Y-103529880D01*
X170117876Y-103529880D01*
X168260733Y-113925880D02*
X167784542Y-113925880D01*
X167784542Y-112925880D01*
X169022638Y-113259214D02*
X169022638Y-113925880D01*
X168784542Y-112878261D02*
X168546447Y-113592547D01*
X169165495Y-113592547D01*
X166760733Y-109673500D02*
X166665495Y-109625880D01*
X166522638Y-109625880D01*
X166379780Y-109673500D01*
X166284542Y-109768738D01*
X166236923Y-109863976D01*
X166189304Y-110054452D01*
X166189304Y-110197309D01*
X166236923Y-110387785D01*
X166284542Y-110483023D01*
X166379780Y-110578261D01*
X166522638Y-110625880D01*
X166617876Y-110625880D01*
X166760733Y-110578261D01*
X166808352Y-110530642D01*
X166808352Y-110197309D01*
X166617876Y-110197309D01*
X167808352Y-110625880D02*
X167475019Y-110149690D01*
X167236923Y-110625880D02*
X167236923Y-109625880D01*
X167617876Y-109625880D01*
X167713114Y-109673500D01*
X167760733Y-109721119D01*
X167808352Y-109816357D01*
X167808352Y-109959214D01*
X167760733Y-110054452D01*
X167713114Y-110102071D01*
X167617876Y-110149690D01*
X167236923Y-110149690D01*
X168236923Y-110102071D02*
X168570257Y-110102071D01*
X168713114Y-110625880D02*
X168236923Y-110625880D01*
X168236923Y-109625880D01*
X168713114Y-109625880D01*
X169141685Y-110102071D02*
X169475019Y-110102071D01*
X169617876Y-110625880D02*
X169141685Y-110625880D01*
X169141685Y-109625880D01*
X169617876Y-109625880D01*
X170046447Y-110625880D02*
X170046447Y-109625880D01*
X170617876Y-110625880D01*
X170617876Y-109625880D01*
X141876542Y-97800642D02*
X141828923Y-97848261D01*
X141686066Y-97895880D01*
X141590828Y-97895880D01*
X141447971Y-97848261D01*
X141352733Y-97753023D01*
X141305114Y-97657785D01*
X141257495Y-97467309D01*
X141257495Y-97324452D01*
X141305114Y-97133976D01*
X141352733Y-97038738D01*
X141447971Y-96943500D01*
X141590828Y-96895880D01*
X141686066Y-96895880D01*
X141828923Y-96943500D01*
X141876542Y-96991119D01*
X142828923Y-97895880D02*
X142257495Y-97895880D01*
X142543209Y-97895880D02*
X142543209Y-96895880D01*
X142447971Y-97038738D01*
X142352733Y-97133976D01*
X142257495Y-97181595D01*
X143209876Y-96991119D02*
X143257495Y-96943500D01*
X143352733Y-96895880D01*
X143590828Y-96895880D01*
X143686066Y-96943500D01*
X143733685Y-96991119D01*
X143781304Y-97086357D01*
X143781304Y-97181595D01*
X143733685Y-97324452D01*
X143162257Y-97895880D01*
X143781304Y-97895880D01*
X141876542Y-112532642D02*
X141828923Y-112580261D01*
X141686066Y-112627880D01*
X141590828Y-112627880D01*
X141447971Y-112580261D01*
X141352733Y-112485023D01*
X141305114Y-112389785D01*
X141257495Y-112199309D01*
X141257495Y-112056452D01*
X141305114Y-111865976D01*
X141352733Y-111770738D01*
X141447971Y-111675500D01*
X141590828Y-111627880D01*
X141686066Y-111627880D01*
X141828923Y-111675500D01*
X141876542Y-111723119D01*
X142828923Y-112627880D02*
X142257495Y-112627880D01*
X142543209Y-112627880D02*
X142543209Y-111627880D01*
X142447971Y-111770738D01*
X142352733Y-111865976D01*
X142257495Y-111913595D01*
X143781304Y-112627880D02*
X143209876Y-112627880D01*
X143495590Y-112627880D02*
X143495590Y-111627880D01*
X143400352Y-111770738D01*
X143305114Y-111865976D01*
X143209876Y-111913595D01*
M02*
