%TF.GenerationSoftware,KiCad,Pcbnew,9.0.3*%
%TF.CreationDate,2026-01-09T18:51:27-08:00*%
%TF.ProjectId,telemetry-pcb,74656c65-6d65-4747-9279-2d7063622e6b,rev?*%
%TF.SameCoordinates,Original*%
%TF.FileFunction,Copper,L1,Top*%
%TF.FilePolarity,Positive*%
%FSLAX46Y46*%
G04 Gerber Fmt 4.6, Leading zero omitted, Abs format (unit mm)*
G04 Created by KiCad (PCBNEW 9.0.3) date 2026-01-09 18:51:27*
%MOMM*%
%LPD*%
G01*
G04 APERTURE LIST*
G04 Aperture macros list*
%AMRoundRect*
0 Rectangle with rounded corners*
0 $1 Rounding radius*
0 $2 $3 $4 $5 $6 $7 $8 $9 X,Y pos of 4 corners*
0 Add a 4 corners polygon primitive as box body*
4,1,4,$2,$3,$4,$5,$6,$7,$8,$9,$2,$3,0*
0 Add four circle primitives for the rounded corners*
1,1,$1+$1,$2,$3*
1,1,$1+$1,$4,$5*
1,1,$1+$1,$6,$7*
1,1,$1+$1,$8,$9*
0 Add four rect primitives between the rounded corners*
20,1,$1+$1,$2,$3,$4,$5,0*
20,1,$1+$1,$4,$5,$6,$7,0*
20,1,$1+$1,$6,$7,$8,$9,0*
20,1,$1+$1,$8,$9,$2,$3,0*%
G04 Aperture macros list end*
%TA.AperFunction,ComponentPad*%
%ADD10C,1.574800*%
%TD*%
%TA.AperFunction,ComponentPad*%
%ADD11C,2.362200*%
%TD*%
%TA.AperFunction,ComponentPad*%
%ADD12C,1.400000*%
%TD*%
%TA.AperFunction,WasherPad*%
%ADD13C,4.000000*%
%TD*%
%TA.AperFunction,SMDPad,CuDef*%
%ADD14RoundRect,0.250000X-0.250000X-0.475000X0.250000X-0.475000X0.250000X0.475000X-0.250000X0.475000X0*%
%TD*%
%TA.AperFunction,ComponentPad*%
%ADD15C,2.000000*%
%TD*%
%TA.AperFunction,SMDPad,CuDef*%
%ADD16RoundRect,0.243750X-0.243750X-0.456250X0.243750X-0.456250X0.243750X0.456250X-0.243750X0.456250X0*%
%TD*%
%TA.AperFunction,SMDPad,CuDef*%
%ADD17RoundRect,0.249999X-0.262501X-0.450001X0.262501X-0.450001X0.262501X0.450001X-0.262501X0.450001X0*%
%TD*%
%TA.AperFunction,SMDPad,CuDef*%
%ADD18RoundRect,0.249999X0.262501X0.450001X-0.262501X0.450001X-0.262501X-0.450001X0.262501X-0.450001X0*%
%TD*%
%TA.AperFunction,ComponentPad*%
%ADD19R,1.700000X1.700000*%
%TD*%
%TA.AperFunction,ComponentPad*%
%ADD20O,1.700000X1.700000*%
%TD*%
%TA.AperFunction,SMDPad,CuDef*%
%ADD21R,2.000000X4.500000*%
%TD*%
%TA.AperFunction,WasherPad*%
%ADD22C,3.556000*%
%TD*%
%TA.AperFunction,ComponentPad*%
%ADD23C,1.524000*%
%TD*%
%TA.AperFunction,SMDPad,CuDef*%
%ADD24RoundRect,0.250000X-0.550000X1.500000X-0.550000X-1.500000X0.550000X-1.500000X0.550000X1.500000X0*%
%TD*%
%TA.AperFunction,ComponentPad*%
%ADD25R,1.690000X1.690000*%
%TD*%
%TA.AperFunction,ComponentPad*%
%ADD26C,1.690000*%
%TD*%
%TA.AperFunction,SMDPad,CuDef*%
%ADD27R,2.500000X1.800000*%
%TD*%
%TA.AperFunction,SMDPad,CuDef*%
%ADD28R,4.241800X3.810000*%
%TD*%
%TA.AperFunction,ComponentPad*%
%ADD29R,1.879600X1.879600*%
%TD*%
%TA.AperFunction,ComponentPad*%
%ADD30C,1.879600*%
%TD*%
%TA.AperFunction,ComponentPad*%
%ADD31C,4.000000*%
%TD*%
%TA.AperFunction,ComponentPad*%
%ADD32R,1.600000X1.600000*%
%TD*%
%TA.AperFunction,ComponentPad*%
%ADD33C,1.600000*%
%TD*%
%TA.AperFunction,SMDPad,CuDef*%
%ADD34RoundRect,0.250000X0.262500X0.450000X-0.262500X0.450000X-0.262500X-0.450000X0.262500X-0.450000X0*%
%TD*%
%TA.AperFunction,SMDPad,CuDef*%
%ADD35RoundRect,0.250000X-0.262500X-0.450000X0.262500X-0.450000X0.262500X0.450000X-0.262500X0.450000X0*%
%TD*%
%TA.AperFunction,SMDPad,CuDef*%
%ADD36RoundRect,0.250000X-0.450000X0.262500X-0.450000X-0.262500X0.450000X-0.262500X0.450000X0.262500X0*%
%TD*%
%TA.AperFunction,ComponentPad*%
%ADD37R,1.530000X1.530000*%
%TD*%
%TA.AperFunction,ComponentPad*%
%ADD38C,1.530000*%
%TD*%
%TA.AperFunction,SMDPad,CuDef*%
%ADD39RoundRect,0.243750X0.456250X-0.243750X0.456250X0.243750X-0.456250X0.243750X-0.456250X-0.243750X0*%
%TD*%
%TA.AperFunction,ViaPad*%
%ADD40C,0.800000*%
%TD*%
%TA.AperFunction,ViaPad*%
%ADD41C,0.600000*%
%TD*%
%TA.AperFunction,Conductor*%
%ADD42C,0.250000*%
%TD*%
%TA.AperFunction,Conductor*%
%ADD43C,1.000000*%
%TD*%
%TA.AperFunction,Conductor*%
%ADD44C,0.175000*%
%TD*%
G04 APERTURE END LIST*
D10*
X99109701Y-75529199D03*
X99109701Y-72529200D03*
X99109701Y-69529201D03*
X102109700Y-75529199D03*
X102109700Y-72529200D03*
X102109700Y-69529201D03*
D11*
X181128149Y-81165900D03*
X181128149Y-85365898D03*
X175628150Y-81165900D03*
X175628150Y-85365898D03*
X181128149Y-94915900D03*
X181128149Y-99115898D03*
X175628150Y-94915900D03*
X175628150Y-99115898D03*
D12*
X183413400Y-66915800D03*
X185953400Y-66915800D03*
D13*
X189988400Y-59673500D03*
X189988400Y-119673500D03*
D14*
X138113400Y-85105500D03*
X140013400Y-85105500D03*
X138113400Y-82105500D03*
X140013400Y-82105500D03*
D15*
X97992000Y-94121800D03*
X97992000Y-97621800D03*
X98015000Y-84368200D03*
X98015000Y-87868200D03*
D16*
X157560800Y-121017800D03*
X159435800Y-121017800D03*
X110216100Y-97218000D03*
X112091100Y-97218000D03*
D17*
X157607000Y-118909600D03*
X159432000Y-118909600D03*
D18*
X115716100Y-97218000D03*
X113891100Y-97218000D03*
D12*
X113055400Y-120789200D03*
X113055400Y-118249200D03*
D19*
X152000000Y-118880000D03*
D20*
X152000000Y-116122000D03*
X152000000Y-113582000D03*
X152000000Y-111042000D03*
X152000000Y-108502000D03*
X152000000Y-105962000D03*
X152000000Y-103422000D03*
X152000000Y-100882000D03*
X152000000Y-98342000D03*
X152000000Y-95802000D03*
X152000000Y-93262000D03*
X152000000Y-90722000D03*
X152000000Y-88182000D03*
X152000000Y-85642000D03*
X152000000Y-83102000D03*
D19*
X124739400Y-108457500D03*
D20*
X124739400Y-105917500D03*
X124739400Y-103377500D03*
X124739400Y-100837500D03*
X124739400Y-98297500D03*
X124739400Y-95757500D03*
X124739400Y-93217500D03*
X124739400Y-90677500D03*
X124739400Y-88137500D03*
X124739400Y-85597500D03*
X124739400Y-83057500D03*
X124739400Y-80517500D03*
D21*
X134563400Y-87855500D03*
X134563400Y-79355500D03*
D22*
X129565400Y-122173500D03*
X147345400Y-122173500D03*
X129565400Y-76453500D03*
X147345400Y-76453500D03*
D23*
X148615400Y-115823500D03*
X148615400Y-80263500D03*
X148615400Y-108203500D03*
X148615400Y-105663500D03*
X148615400Y-103123500D03*
X148615400Y-100583500D03*
X148615400Y-98043500D03*
X148615400Y-95503500D03*
X128295400Y-85343500D03*
X128295400Y-87883500D03*
X128295400Y-90423500D03*
X128295400Y-92963500D03*
X128295400Y-95503500D03*
X128295400Y-98043500D03*
X128295400Y-100583500D03*
X128295400Y-105663500D03*
X148615400Y-110743500D03*
X128295400Y-108203500D03*
X148615400Y-113283500D03*
X148615400Y-87883500D03*
X148615400Y-90423500D03*
X148615400Y-118363500D03*
X148615400Y-85343500D03*
X148615400Y-92963500D03*
X128295400Y-82803500D03*
X128295400Y-80263500D03*
X148615400Y-82803500D03*
X128295400Y-103123500D03*
D24*
X114250000Y-107432000D03*
X114250000Y-113032000D03*
D25*
X107000000Y-112182000D03*
D26*
X104460000Y-112182000D03*
D27*
X114500000Y-103182000D03*
X110500000Y-103182000D03*
D28*
X97447100Y-105168200D03*
X103822500Y-105168200D03*
D19*
X109499400Y-67309500D03*
D20*
X109499400Y-64769500D03*
X112039400Y-67309500D03*
X112039400Y-64769500D03*
D19*
X117119400Y-67309500D03*
D20*
X117119400Y-64769500D03*
X119659400Y-67309500D03*
X119659400Y-64769500D03*
X122199400Y-67309500D03*
X122199400Y-64769500D03*
D16*
X101449900Y-99478600D03*
X103324900Y-99478600D03*
D13*
X95000000Y-59682000D03*
X95000000Y-119682000D03*
D29*
X180558400Y-74203500D03*
D30*
X180558400Y-71663500D03*
D18*
X106934000Y-99478600D03*
X105109000Y-99478600D03*
D12*
X93593600Y-112000800D03*
X96133600Y-112000800D03*
D19*
X184363400Y-105898500D03*
D20*
X184363400Y-108438500D03*
D31*
X175037400Y-63843500D03*
X150037400Y-63843500D03*
D32*
X156997400Y-65263500D03*
D33*
X159767400Y-65263500D03*
X162537400Y-65263500D03*
X165307400Y-65263500D03*
X168077400Y-65263500D03*
X158382400Y-62423500D03*
X161152400Y-62423500D03*
X163922400Y-62423500D03*
X166692400Y-62423500D03*
D10*
X177327999Y-115368401D03*
X174328000Y-115368401D03*
X171328001Y-115368401D03*
X168328002Y-115368401D03*
D34*
X159305000Y-82409800D03*
X157480000Y-82409800D03*
X159355800Y-84492600D03*
X157530800Y-84492600D03*
D35*
X161801800Y-101028000D03*
X163626800Y-101028000D03*
D15*
X170238400Y-104923500D03*
X176738400Y-104923500D03*
X170238400Y-109423500D03*
X176738400Y-109423500D03*
D36*
X159207200Y-112178600D03*
X159207200Y-114003600D03*
X126822200Y-113376200D03*
X126822200Y-115201200D03*
D37*
X118287800Y-119062000D03*
D38*
X120827800Y-119062000D03*
X118287800Y-121602000D03*
X120827800Y-121602000D03*
D15*
X158862200Y-79259000D03*
X158862200Y-72759000D03*
X163362200Y-79259000D03*
X163362200Y-72759000D03*
D10*
X130678801Y-63954600D03*
X133678800Y-63954600D03*
X136678799Y-63954600D03*
X139678798Y-63954600D03*
D39*
X126822200Y-118854200D03*
X126822200Y-116979200D03*
D35*
X165533700Y-101028000D03*
X167358700Y-101028000D03*
D15*
X159335400Y-104932000D03*
X165835400Y-104932000D03*
X159335400Y-109432000D03*
X165835400Y-109432000D03*
D40*
X182168800Y-97497400D03*
X99949000Y-99961200D03*
X108915200Y-97218000D03*
X159207200Y-115480600D03*
X125577600Y-120098800D03*
X141097000Y-119011200D03*
X145034000Y-112635800D03*
X155473400Y-122160800D03*
X141373604Y-84682284D03*
X141343288Y-82605500D03*
X157962600Y-85991200D03*
X137236200Y-78193400D03*
X141625000Y-89557000D03*
X137603220Y-94605500D03*
X116179600Y-95008200D03*
D41*
X137210800Y-116725200D03*
D40*
X143967200Y-108978200D03*
X142798800Y-106285800D03*
D41*
X136093200Y-116750600D03*
D40*
X117221000Y-80530200D03*
X150488400Y-73646800D03*
X120446800Y-84086200D03*
X147238400Y-72148200D03*
X115929600Y-92749200D03*
X135250000Y-73182000D03*
X141500000Y-74682000D03*
X115900200Y-73240400D03*
X141650000Y-88282000D03*
X141500000Y-86882000D03*
X140414150Y-86531250D03*
X137488400Y-102182000D03*
X133273800Y-74764400D03*
X132563400Y-85105500D03*
X132677703Y-81719803D03*
X175738400Y-80174600D03*
X164896800Y-69430400D03*
X169062400Y-78701400D03*
X168021000Y-79387200D03*
X144094200Y-103491800D03*
X154736800Y-107225600D03*
X164515800Y-94170000D03*
X145465800Y-100570800D03*
X152146000Y-68682000D03*
X168935400Y-100621600D03*
X160959800Y-83095600D03*
X168859200Y-102755200D03*
X141452600Y-117995200D03*
X145415000Y-119798600D03*
X137083800Y-120484400D03*
D41*
X138049000Y-117741200D03*
X138963400Y-120027200D03*
D42*
X190941800Y-72064000D02*
X190941800Y-66839300D01*
X187665200Y-97162900D02*
X187665200Y-91912900D01*
X182168800Y-97497400D02*
X182676800Y-96989400D01*
X156417800Y-122160800D02*
X157560800Y-121017800D01*
D43*
X108762800Y-112178600D02*
X109677200Y-113093000D01*
D42*
X99949000Y-99961200D02*
X100406200Y-99504000D01*
D43*
X107000000Y-112182000D02*
X107003400Y-112178600D01*
X109677200Y-113093000D02*
X114189000Y-113093000D01*
X114189000Y-113093000D02*
X114250000Y-113032000D01*
D42*
X101424500Y-99504000D02*
X101449900Y-99478600D01*
X155473400Y-122160800D02*
X156417800Y-122160800D01*
X100406200Y-99504000D02*
X101424500Y-99504000D01*
X141343288Y-82605500D02*
X140513400Y-82605500D01*
X141373604Y-84682284D02*
X140436616Y-84682284D01*
X108915200Y-97218000D02*
X110216100Y-97218000D01*
X140513400Y-82605500D02*
X140013400Y-82105500D01*
X140436616Y-84682284D02*
X140013400Y-85105500D01*
X125577600Y-120098800D02*
X126822200Y-118854200D01*
D43*
X107003400Y-112178600D02*
X108762800Y-112178600D01*
D42*
X159207200Y-115480600D02*
X159207200Y-114003600D01*
X157962600Y-85991200D02*
X158013400Y-85940400D01*
X157530800Y-84848200D02*
X157530800Y-84492600D01*
X158013400Y-85940400D02*
X158013400Y-85330800D01*
X158013400Y-85330800D02*
X157530800Y-84848200D01*
D43*
X124543900Y-103182000D02*
X124739400Y-103377500D01*
X114339400Y-103182000D02*
X124543900Y-103182000D01*
X114250000Y-103092600D02*
X114339400Y-103182000D01*
X114250000Y-107432000D02*
X114250000Y-103092600D01*
D42*
X109499400Y-64769500D02*
X112039400Y-64769500D01*
X141609400Y-89551600D02*
X141609400Y-89572600D01*
X128437400Y-93105500D02*
X137988400Y-93105500D01*
X128295400Y-92963500D02*
X128437400Y-93105500D01*
X141536900Y-89557000D02*
X141625000Y-89557000D01*
X137988400Y-93105500D02*
X141536900Y-89557000D01*
X141609400Y-89572600D02*
X141625000Y-89557000D01*
X137603220Y-94605500D02*
X136705220Y-95503500D01*
X136705220Y-95503500D02*
X128295400Y-95503500D01*
X124739400Y-98297500D02*
X124354900Y-98682000D01*
X117094000Y-97218000D02*
X118173500Y-98297500D01*
X118173500Y-98297500D02*
X124739400Y-98297500D01*
X115716100Y-97218000D02*
X117094000Y-97218000D01*
X159207200Y-112178600D02*
X159207200Y-109560200D01*
X165909400Y-109432000D02*
X165934800Y-109457400D01*
X159335400Y-109432000D02*
X165835400Y-109432000D01*
X165835400Y-109432000D02*
X165909400Y-109432000D01*
X159207200Y-109560200D02*
X159335400Y-109432000D01*
X165934800Y-109457400D02*
X168860400Y-109457400D01*
X115138200Y-95109800D02*
X109601000Y-89572600D01*
X116179600Y-95008200D02*
X116078000Y-95109800D01*
X148596900Y-105682000D02*
X148615400Y-105663500D01*
X99109701Y-76820701D02*
X99109701Y-75529199D01*
X109601000Y-89572600D02*
X109601000Y-87312000D01*
X116078000Y-95109800D02*
X115138200Y-95109800D01*
X109601000Y-87312000D02*
X99109701Y-76820701D01*
X143967200Y-109765600D02*
X143967200Y-108978200D01*
X137210800Y-116522000D02*
X143967200Y-109765600D01*
X137210800Y-116725200D02*
X137210800Y-116522000D01*
X140030200Y-109054400D02*
X142798800Y-106285800D01*
X140030200Y-112661200D02*
X140030200Y-109054400D01*
X136093200Y-116598200D02*
X140030200Y-112661200D01*
X136093200Y-116750600D02*
X136093200Y-116598200D01*
X182676800Y-91739400D02*
X180735801Y-89798401D01*
X172110400Y-96252800D02*
X172110400Y-113205202D01*
X150488400Y-73646800D02*
X150488400Y-73870500D01*
X166471600Y-90614000D02*
X172110400Y-96252800D01*
X123532900Y-84264000D02*
X124739400Y-83057500D01*
X157886400Y-90614000D02*
X166471600Y-90614000D01*
X120929400Y-84264000D02*
X123532900Y-84264000D01*
X120446800Y-84086200D02*
X120751600Y-84086200D01*
X120751600Y-84086200D02*
X120929400Y-84264000D01*
X155473400Y-78855500D02*
X155473400Y-88201000D01*
X150488400Y-73870500D02*
X155473400Y-78855500D01*
X172110400Y-113205202D02*
X174273599Y-115368401D01*
X155473400Y-88201000D02*
X157886400Y-90614000D01*
X171273600Y-96584400D02*
X171273600Y-115368401D01*
X154738400Y-79648200D02*
X154738400Y-79855500D01*
X157683200Y-91477600D02*
X166166800Y-91477600D01*
X154738400Y-88532800D02*
X157683200Y-91477600D01*
X147238400Y-72148200D02*
X154738400Y-79648200D01*
X154738400Y-79855500D02*
X154738400Y-88532800D01*
X166166800Y-91477600D02*
X171273600Y-96584400D01*
X132463900Y-75605500D02*
X130963900Y-74105500D01*
X126185700Y-74105500D02*
X117170200Y-83121000D01*
X130963900Y-74105500D02*
X126185700Y-74105500D01*
X102108000Y-78041000D02*
X102109700Y-78039300D01*
X117094000Y-83121000D02*
X113309400Y-83121000D01*
X148615400Y-87883500D02*
X136337400Y-75605500D01*
X117170200Y-83121000D02*
X117094000Y-83121000D01*
X117094000Y-83121000D02*
X117094000Y-83128550D01*
X136337400Y-75605500D02*
X132463900Y-75605500D01*
X102109700Y-78039300D02*
X102109700Y-75529199D01*
X110337600Y-80149200D02*
X104216200Y-80149200D01*
X117094000Y-83128550D02*
X119000000Y-85034550D01*
X113309400Y-83121000D02*
X110337600Y-80149200D01*
X119000000Y-87209400D02*
X115929600Y-90279800D01*
X104216200Y-80149200D02*
X102108000Y-78041000D01*
X115929600Y-90279800D02*
X115929600Y-92749200D01*
X119000000Y-85034550D02*
X119000000Y-87209400D01*
X109680010Y-73240400D02*
X108841810Y-74078600D01*
X115900200Y-73240400D02*
X109680010Y-73240400D01*
X108841810Y-74078600D02*
X100659101Y-74078600D01*
X100659101Y-74078600D02*
X99109701Y-72529200D01*
X140000000Y-73182000D02*
X135250000Y-73182000D01*
X141500000Y-74682000D02*
X140000000Y-73182000D01*
X130555400Y-90423500D02*
X132237400Y-92105500D01*
X128295400Y-90423500D02*
X130555400Y-90423500D01*
X132237400Y-92105500D02*
X137811700Y-92105500D01*
X141635200Y-88282000D02*
X141650000Y-88282000D01*
X137811700Y-92105500D02*
X141635200Y-88282000D01*
X141374800Y-87007200D02*
X141500000Y-86882000D01*
X130063400Y-88105500D02*
X133563400Y-91605500D01*
X136776500Y-91605500D02*
X141500000Y-86882000D01*
X133563400Y-91605500D02*
X136776500Y-91605500D01*
X130063400Y-88105500D02*
X128517400Y-88105500D01*
D44*
X141500000Y-86882000D02*
X141600000Y-86782000D01*
D42*
X128517400Y-88105500D02*
X128295400Y-87883500D01*
X135776500Y-91105500D02*
X134057400Y-91105500D01*
X134057400Y-91105500D02*
X128295400Y-85343500D01*
X140414150Y-86531250D02*
X135839900Y-91105500D01*
X154889200Y-104660200D02*
X156413200Y-106184200D01*
X150342600Y-104660200D02*
X154889200Y-104660200D01*
X156413200Y-117715800D02*
X157607000Y-118909600D01*
X150114400Y-104432000D02*
X150342600Y-104660200D01*
X144250000Y-102182000D02*
X146500000Y-104432000D01*
X156413200Y-106184200D02*
X156413200Y-117715800D01*
X146500000Y-104432000D02*
X150114400Y-104432000D01*
X137488400Y-102182000D02*
X144250000Y-102182000D01*
X103606600Y-67347600D02*
X100634800Y-67347600D01*
X133273800Y-74764400D02*
X129641600Y-71132200D01*
X100634800Y-67347600D02*
X99109701Y-68872699D01*
X129641600Y-71132200D02*
X107391200Y-71132200D01*
X148615400Y-90566600D02*
X148615400Y-90423500D01*
X107391200Y-71132200D02*
X103606600Y-67347600D01*
X99109701Y-68872699D02*
X99109701Y-69529201D01*
X134563400Y-86780500D02*
X134563400Y-87855500D01*
X138113400Y-85105500D02*
X136238400Y-85105500D01*
X133238400Y-85105500D02*
X134563400Y-86430500D01*
X136238400Y-85105500D02*
X134563400Y-86780500D01*
X132563400Y-85105500D02*
X133238400Y-85105500D01*
X134563400Y-86430500D02*
X134563400Y-87855500D01*
X138113400Y-82105500D02*
X136063400Y-82105500D01*
X134563400Y-80605500D02*
X134563400Y-79355500D01*
X132677703Y-81719803D02*
X133463688Y-81719803D01*
X134563400Y-79355500D02*
X134563400Y-80680500D01*
X134313400Y-79605500D02*
X134563400Y-79355500D01*
X136063400Y-82105500D02*
X134563400Y-80605500D01*
X133463688Y-81719803D02*
X134233196Y-80950296D01*
X134233196Y-80950296D02*
X134313400Y-81030500D01*
X134313400Y-81030500D02*
X134313400Y-79605500D01*
D43*
X98145600Y-106717600D02*
X98145600Y-109054400D01*
X101273200Y-112182000D02*
X104460000Y-112182000D01*
X98145600Y-109054400D02*
X101273200Y-112182000D01*
D42*
X179798900Y-78295000D02*
X185953400Y-72140500D01*
X167309800Y-73926900D02*
X167309800Y-70344800D01*
X173557500Y-80174600D02*
X167309800Y-73926900D01*
X175738400Y-80174600D02*
X175738400Y-80128000D01*
X177571400Y-78295000D02*
X179798900Y-78295000D01*
X175738400Y-80128000D02*
X177571400Y-78295000D01*
X162537400Y-65572400D02*
X162537400Y-65277500D01*
X167309800Y-70344800D02*
X162537400Y-65572400D01*
X175738400Y-80174600D02*
X173557500Y-80174600D01*
X166497000Y-75882000D02*
X166497000Y-71030600D01*
X169062400Y-78447400D02*
X166497000Y-75882000D01*
X162382200Y-66915800D02*
X164896800Y-69430400D01*
X166497000Y-71030600D02*
X164896800Y-69430400D01*
X159767400Y-65277500D02*
X160032700Y-65277500D01*
X161671000Y-66915800D02*
X162382200Y-66915800D01*
X160032700Y-65277500D02*
X161671000Y-66915800D01*
X169062400Y-78701400D02*
X169062400Y-78447400D01*
D43*
X110012400Y-103182000D02*
X110500000Y-103182000D01*
D42*
X100101400Y-101663000D02*
X95046800Y-101663000D01*
X106934000Y-99795751D02*
X103822500Y-102907251D01*
X104521000Y-106082600D02*
X100101400Y-101663000D01*
X104521000Y-106209600D02*
X104521000Y-106082600D01*
X106934000Y-99478600D02*
X106934000Y-99795751D01*
X109989400Y-102932000D02*
X110039400Y-102882000D01*
X95046800Y-101663000D02*
X93593600Y-103116200D01*
X93593600Y-103116200D02*
X93593600Y-112000800D01*
X103822500Y-102907251D02*
X103822500Y-104037900D01*
D43*
X107848400Y-105346000D02*
X110012400Y-103182000D01*
X105892600Y-105346000D02*
X107848400Y-105346000D01*
D42*
X115951000Y-62394600D02*
X114750000Y-63595600D01*
X168021000Y-79184000D02*
X165658800Y-76821800D01*
X156514800Y-70573400D02*
X153441400Y-67500000D01*
X153441400Y-67500000D02*
X147068000Y-67500000D01*
X165658800Y-76821800D02*
X165658800Y-71843400D01*
X165658800Y-71843400D02*
X164388800Y-70573400D01*
X168021000Y-79387200D02*
X168021000Y-79184000D01*
X141962600Y-62394600D02*
X115951000Y-62394600D01*
X164388800Y-70573400D02*
X156514800Y-70573400D01*
X115877500Y-67309500D02*
X117119400Y-67309500D01*
X147068000Y-67500000D02*
X141962600Y-62394600D01*
X114750000Y-66182000D02*
X115877500Y-67309500D01*
X114750000Y-63595600D02*
X114750000Y-66182000D01*
X147548600Y-106946200D02*
X150317200Y-106946200D01*
X150596600Y-107225600D02*
X154736800Y-107225600D01*
X144094200Y-103491800D02*
X147548600Y-106946200D01*
X150317200Y-106946200D02*
X150596600Y-107225600D01*
X153517600Y-102120200D02*
X161467800Y-94170000D01*
X150215600Y-101866200D02*
X150469600Y-102120200D01*
X161467800Y-94170000D02*
X164515800Y-94170000D01*
X150469600Y-102120200D02*
X153517600Y-102120200D01*
X145465800Y-100570800D02*
X146761200Y-101866200D01*
X146761200Y-101866200D02*
X150215600Y-101866200D01*
X105109000Y-99478600D02*
X103309000Y-99478600D01*
X112091100Y-97218000D02*
X113891100Y-97218000D01*
X159435800Y-121017800D02*
X159435800Y-118913400D01*
X114911900Y-70182000D02*
X135036800Y-70182000D01*
X112039400Y-67309500D02*
X114911900Y-70182000D01*
X136678799Y-63954600D02*
X136678799Y-68540001D01*
X136678799Y-68540001D02*
X136410700Y-68808100D01*
X135036800Y-70182000D02*
X136410700Y-68808100D01*
X121531900Y-69182000D02*
X119659400Y-67309500D01*
X132125200Y-69182000D02*
X121531900Y-69182000D01*
X133678800Y-63954600D02*
X133678800Y-67628400D01*
X133678800Y-67628400D02*
X132125200Y-69182000D01*
X165533700Y-101028000D02*
X165533700Y-104630300D01*
X163626800Y-102933000D02*
X163626800Y-101028000D01*
X163626800Y-101028000D02*
X165533700Y-101028000D01*
X161627800Y-104932000D02*
X163626800Y-102933000D01*
X165533700Y-104630300D02*
X165835400Y-104932000D01*
X159335400Y-104932000D02*
X161627800Y-104932000D01*
X160274000Y-82409800D02*
X159305000Y-82409800D01*
X167387900Y-101055300D02*
X167386000Y-101055300D01*
X168859200Y-102526600D02*
X167387900Y-101055300D01*
X167765100Y-100621600D02*
X168935400Y-100621600D01*
X167386000Y-101055300D02*
X167358700Y-101028000D01*
X167358700Y-101028000D02*
X167765100Y-100621600D01*
X160959800Y-83095600D02*
X160274000Y-82409800D01*
X168935400Y-100621600D02*
X168732200Y-100621600D01*
X168859200Y-102755200D02*
X168859200Y-102526600D01*
X157480000Y-82613000D02*
X157480000Y-82409800D01*
X157480000Y-82409800D02*
X157429200Y-82359000D01*
X157251400Y-82181200D02*
X157480000Y-82409800D01*
X159355800Y-84492600D02*
X159355800Y-84488800D01*
X157429200Y-82359000D02*
X157429200Y-80692000D01*
X159355800Y-84488800D02*
X157480000Y-82613000D01*
X157429200Y-80692000D02*
X158862200Y-79259000D01*
X126822200Y-115201200D02*
X126822200Y-116979200D01*
X141452600Y-117995200D02*
X141782800Y-118325400D01*
X144094200Y-118325400D02*
X145364200Y-119595400D01*
X141782800Y-118325400D02*
X144094200Y-118325400D01*
X130280400Y-113376200D02*
X126822200Y-113376200D01*
X137083800Y-120484400D02*
X137083800Y-120179600D01*
X137083800Y-120179600D02*
X130280400Y-113376200D01*
M02*
