%TF.GenerationSoftware,KiCad,Pcbnew,9.0.3*%
%TF.CreationDate,2026-01-09T18:51:28-08:00*%
%TF.ProjectId,telemetry-pcb,74656c65-6d65-4747-9279-2d7063622e6b,rev?*%
%TF.SameCoordinates,Original*%
%TF.FileFunction,Paste,Bot*%
%TF.FilePolarity,Positive*%
%FSLAX46Y46*%
G04 Gerber Fmt 4.6, Leading zero omitted, Abs format (unit mm)*
G04 Created by KiCad (PCBNEW 9.0.3) date 2026-01-09 18:51:28*
%MOMM*%
%LPD*%
G01*
G04 APERTURE LIST*
G04 Aperture macros list*
%AMRoundRect*
0 Rectangle with rounded corners*
0 $1 Rounding radius*
0 $2 $3 $4 $5 $6 $7 $8 $9 X,Y pos of 4 corners*
0 Add a 4 corners polygon primitive as box body*
4,1,4,$2,$3,$4,$5,$6,$7,$8,$9,$2,$3,0*
0 Add four circle primitives for the rounded corners*
1,1,$1+$1,$2,$3*
1,1,$1+$1,$4,$5*
1,1,$1+$1,$6,$7*
1,1,$1+$1,$8,$9*
0 Add four rect primitives between the rounded corners*
20,1,$1+$1,$2,$3,$4,$5,0*
20,1,$1+$1,$4,$5,$6,$7,0*
20,1,$1+$1,$6,$7,$8,$9,0*
20,1,$1+$1,$8,$9,$2,$3,0*%
G04 Aperture macros list end*
%ADD10R,0.304800X0.533400*%
%ADD11R,0.431800X0.304800*%
%ADD12RoundRect,0.249999X0.450001X-0.262501X0.450001X0.262501X-0.450001X0.262501X-0.450001X-0.262501X0*%
%ADD13RoundRect,0.250000X0.475000X-0.250000X0.475000X0.250000X-0.475000X0.250000X-0.475000X-0.250000X0*%
%ADD14RoundRect,0.250000X-0.475000X0.250000X-0.475000X-0.250000X0.475000X-0.250000X0.475000X0.250000X0*%
%ADD15RoundRect,0.250000X0.250000X0.475000X-0.250000X0.475000X-0.250000X-0.475000X0.250000X-0.475000X0*%
%ADD16RoundRect,0.250000X-0.250000X-0.475000X0.250000X-0.475000X0.250000X0.475000X-0.250000X0.475000X0*%
%ADD17RoundRect,0.249999X0.325001X0.650001X-0.325001X0.650001X-0.325001X-0.650001X0.325001X-0.650001X0*%
%ADD18RoundRect,0.100000X-0.637500X-0.100000X0.637500X-0.100000X0.637500X0.100000X-0.637500X0.100000X0*%
%ADD19RoundRect,0.230000X-0.230000X-0.375000X0.230000X-0.375000X0.230000X0.375000X-0.230000X0.375000X0*%
%ADD20RoundRect,0.150000X-0.825000X-0.150000X0.825000X-0.150000X0.825000X0.150000X-0.825000X0.150000X0*%
%ADD21RoundRect,0.150000X-0.875000X-0.150000X0.875000X-0.150000X0.875000X0.150000X-0.875000X0.150000X0*%
%ADD22RoundRect,0.249999X0.262501X0.450001X-0.262501X0.450001X-0.262501X-0.450001X0.262501X-0.450001X0*%
%ADD23RoundRect,0.249999X-0.450001X0.262501X-0.450001X-0.262501X0.450001X-0.262501X0.450001X0.262501X0*%
%ADD24RoundRect,0.250000X0.450000X-0.262500X0.450000X0.262500X-0.450000X0.262500X-0.450000X-0.262500X0*%
%ADD25R,1.100000X1.900000*%
%ADD26RoundRect,0.250000X0.262500X0.450000X-0.262500X0.450000X-0.262500X-0.450000X0.262500X-0.450000X0*%
%ADD27RoundRect,0.250000X0.412500X0.650000X-0.412500X0.650000X-0.412500X-0.650000X0.412500X-0.650000X0*%
%ADD28RoundRect,0.250000X-0.450000X0.262500X-0.450000X-0.262500X0.450000X-0.262500X0.450000X0.262500X0*%
G04 APERTURE END LIST*
D10*
X139638599Y-118820700D03*
D11*
X139623800Y-116533999D03*
X139623800Y-117034000D03*
X139623800Y-117534000D03*
X139623800Y-118034001D03*
D10*
X139138599Y-118820700D03*
X138638600Y-118820700D03*
X138138601Y-118820700D03*
X137638600Y-118820700D03*
X137138600Y-118820700D03*
X136638599Y-118820700D03*
X136138600Y-118820700D03*
X135638601Y-118820700D03*
X135138601Y-118820700D03*
D11*
X135153400Y-118034001D03*
X135153400Y-117534000D03*
X135153400Y-117034000D03*
X135153400Y-116533999D03*
D10*
X135138601Y-115747300D03*
X135638601Y-115747300D03*
X136138600Y-115747300D03*
X136638599Y-115747300D03*
X137138600Y-115747300D03*
X137638600Y-115747300D03*
X138138601Y-115747300D03*
X138638600Y-115747300D03*
X139138599Y-115747300D03*
X139638599Y-115747300D03*
D12*
X182500000Y-81432000D03*
X182500000Y-83257000D03*
D13*
X160985200Y-90929000D03*
X160985200Y-89029000D03*
D14*
X160959800Y-85232000D03*
X160959800Y-87132000D03*
D15*
X166050000Y-82634500D03*
X164150000Y-82634500D03*
D14*
X173507400Y-88978200D03*
X173507400Y-90878200D03*
D15*
X168361400Y-92182000D03*
X166461400Y-92182000D03*
D13*
X94492000Y-96857200D03*
X94492000Y-94957200D03*
X94742000Y-87007200D03*
X94742000Y-85107200D03*
X105689400Y-89963800D03*
X105689400Y-88063800D03*
X107137200Y-78391600D03*
X107137200Y-76491600D03*
D16*
X141239200Y-94195400D03*
X143139200Y-94195400D03*
D17*
X143205200Y-96506800D03*
X140255200Y-96506800D03*
D13*
X163525200Y-97700600D03*
X163525200Y-95800600D03*
D18*
X164548900Y-89457000D03*
X164548900Y-88807000D03*
X164548900Y-88157000D03*
X164548900Y-87507000D03*
X164548900Y-86857000D03*
X164548900Y-86207000D03*
X164548900Y-85557000D03*
X164548900Y-84907000D03*
X170273900Y-84907000D03*
X170273900Y-85557000D03*
X170273900Y-86207000D03*
X170273900Y-86857000D03*
X170273900Y-87507000D03*
X170273900Y-88157000D03*
X170273900Y-88807000D03*
X170273900Y-89457000D03*
D19*
X110529600Y-91399200D03*
X110529600Y-92899200D03*
X111669600Y-91399200D03*
X111669600Y-92899200D03*
D20*
X108624600Y-94054200D03*
X108624600Y-92784200D03*
X108624600Y-91514200D03*
X108624600Y-90244200D03*
X113574600Y-90244200D03*
X113574600Y-91514200D03*
X113574600Y-92784200D03*
X113574600Y-94054200D03*
D19*
X111621800Y-79551600D03*
X111621800Y-81051600D03*
X112761800Y-79551600D03*
X112761800Y-81051600D03*
D20*
X109716800Y-82206600D03*
X109716800Y-80936600D03*
X109716800Y-79666600D03*
X109716800Y-78396600D03*
X114666800Y-78396600D03*
X114666800Y-79666600D03*
X114666800Y-80936600D03*
X114666800Y-82206600D03*
D21*
X134313400Y-91685500D03*
X134313400Y-90415500D03*
X134313400Y-89145500D03*
X134313400Y-87875500D03*
X134313400Y-86605500D03*
X134313400Y-85335500D03*
X134313400Y-84065500D03*
X134313400Y-82795500D03*
X134313400Y-81525500D03*
X143613400Y-81525500D03*
X143613400Y-82795500D03*
X143613400Y-84065500D03*
X143613400Y-85335500D03*
X143613400Y-86605500D03*
X143613400Y-87875500D03*
X143613400Y-89145500D03*
X143613400Y-90415500D03*
X143613400Y-91685500D03*
D19*
X168619400Y-96010800D03*
X168619400Y-97510800D03*
X169759400Y-96010800D03*
X169759400Y-97510800D03*
D20*
X166714400Y-98665800D03*
X166714400Y-97395800D03*
X166714400Y-96125800D03*
X166714400Y-94855800D03*
X171664400Y-94855800D03*
X171664400Y-96125800D03*
X171664400Y-97395800D03*
X171664400Y-98665800D03*
D22*
X140325000Y-78182000D03*
X138500000Y-78182000D03*
D23*
X177673000Y-88193000D03*
X177673000Y-90018000D03*
D24*
X145415000Y-118715100D03*
X145415000Y-116890100D03*
D13*
X135238400Y-112036400D03*
X135238400Y-110136400D03*
D16*
X142966400Y-114083600D03*
X144866400Y-114083600D03*
D25*
X137238400Y-111975400D03*
X139738400Y-111975400D03*
D26*
X135763000Y-121932200D03*
X133938000Y-121932200D03*
D27*
X141795900Y-121906800D03*
X138670900Y-121906800D03*
D13*
X141738400Y-112005500D03*
X141738400Y-110105500D03*
D24*
X131648200Y-114996100D03*
X131648200Y-113171100D03*
D28*
X131622800Y-116930300D03*
X131622800Y-118755300D03*
D14*
X143002000Y-116857200D03*
X143002000Y-118757200D03*
M02*
