M48
; DRILL file {KiCad (5.1.9-0-10_14)} date Tuesday, August 09, 2022 at 04:56:39 PM
; FORMAT={-:-/ absolute / inch / decimal}
; #@! TF.CreationDate,2022-08-09T16:56:39-07:00
; #@! TF.GenerationSoftware,Kicad,Pcbnew,(5.1.9-0-10_14)
FMAT,2
INCH
T1C0.0157
T2C0.0300
T3C0.0315
T4C0.0320
T5C0.0394
T6C0.0429
T7C0.0433
T8C0.0460
T9C0.1260
T10C0.0787
T11C0.1000
T12C0.1299
T13C0.1339
T14C0.1360
%
G90
G05
T1
X4.191Y-2.9825
X4.191Y-3.4425
X4.251Y-3.5625
X4.371Y-3.5525
X4.631Y-3.6825
X4.7853Y-3.0425
X4.7853Y-3.0825
X4.791Y-3.4825
X4.811Y-3.7025
X4.971Y-4.0519
X4.9854Y-3.5433
X4.9854Y-3.6025
X4.9854Y-3.681
X4.9854Y-4.1225
X4.991Y-3.8425
X5.121Y-2.8225
X5.151Y-3.3625
X5.151Y-3.7568
X5.151Y-4.0982
X5.171Y-4.1425
X5.191Y-4.0025
X5.211Y-4.1425
X5.2967Y-3.7825
X5.331Y-3.6425
X5.331Y-3.7225
X5.331Y-4.1238
X5.3452Y-3.5767
X5.371Y-3.6025
X5.391Y-3.2825
X5.391Y-3.3425
X5.411Y-3.6425
X5.411Y-4.0025
X5.431Y-3.0025
X5.431Y-3.6025
X5.431Y-4.7025
X5.4898Y-4.0413
X5.491Y-3.3625
X5.4941Y-4.7025
X5.591Y-3.0625
X5.591Y-3.2825
X5.631Y-4.0025
X5.6495Y-4.641
X5.6853Y-4.3025
X5.6853Y-4.3825
X5.711Y-4.1641
X5.7363Y-4.6478
X5.7428Y-4.0307
X5.7767Y-4.1025
X5.7967Y-3.6824
X5.8023Y-4.2225
X5.8916Y-4.6029
X5.911Y-3.4225
X5.9166Y-3.7625
X5.971Y-4.8025
X6.051Y-4.7425
X6.171Y-4.2025
X6.491Y-3.3225
X6.591Y-3.3625
X6.611Y-3.4425
X6.661Y-4.5325
X6.731Y-3.6625
X6.731Y-4.4025
X6.751Y-3.9825
X6.921Y-3.4525
X6.981Y-3.6525
X7.121Y-3.0925
T2
X5.051Y-3.1725
X5.051Y-3.2725
X5.051Y-3.3725
X5.051Y-3.4725
X5.051Y-3.5725
X5.051Y-3.6725
X5.051Y-3.7725
X5.051Y-3.8725
X5.051Y-3.9725
X5.051Y-4.0725
X5.051Y-4.1725
X5.051Y-4.2725
X5.851Y-3.1725
X5.851Y-3.2725
X5.851Y-3.3725
X5.851Y-3.4725
X5.851Y-3.5725
X5.851Y-3.6725
X5.851Y-3.7725
X5.851Y-3.8725
X5.851Y-3.9725
X5.851Y-4.0725
X5.851Y-4.1725
X5.851Y-4.2725
X5.851Y-4.3725
X5.851Y-4.4725
X5.851Y-4.5725
X5.851Y-4.6725
T3
X3.651Y-4.4225
X3.751Y-4.4225
X4.771Y-4.7825
X4.871Y-4.7825
X7.031Y-4.7225
X7.031Y-4.8225
X7.231Y-2.6825
X7.331Y-2.6825
T4
X6.911Y-2.9725
X6.911Y-3.0725
T5
X4.311Y-2.5625
X4.311Y-2.6625
X4.411Y-2.5625
X4.411Y-2.6625
X4.611Y-2.5625
X4.611Y-2.6625
X4.711Y-2.5625
X4.711Y-2.6625
X4.811Y-2.5625
X4.811Y-2.6625
X4.911Y-3.1825
X4.911Y-3.2825
X4.911Y-3.3825
X4.911Y-3.4825
X4.911Y-3.5825
X4.911Y-3.6825
X4.911Y-3.7825
X4.911Y-3.8825
X4.911Y-3.9825
X4.911Y-4.0825
X4.911Y-4.1825
X4.911Y-4.2825
X5.991Y-3.2625
X5.991Y-3.3625
X5.991Y-3.4625
X5.991Y-3.5625
X5.991Y-3.6625
X5.991Y-3.7625
X5.991Y-3.8625
X5.991Y-3.9625
X5.991Y-4.0625
X5.991Y-4.1625
X5.991Y-4.2625
X5.991Y-4.3625
X5.991Y-4.4625
X5.991Y-4.5625
X5.991Y-4.6711
X6.181Y-2.5825
X6.2355Y-2.4707
X6.2901Y-2.5825
X6.3446Y-2.4707
X6.3991Y-2.5825
X6.4536Y-2.4707
X6.5082Y-2.5825
X6.5627Y-2.4707
X6.6172Y-2.5825
X7.071Y-3.3225
X7.071Y-3.4225
T6
X4.091Y-4.4025
X4.191Y-4.4025
X6.951Y-3.7225
X6.951Y-3.8225
X6.951Y-3.9225
X6.951Y-4.2025
X6.951Y-4.3025
X6.951Y-4.4025
T7
X3.861Y-2.8036
X3.861Y-2.9414
X3.861Y-3.5236
X3.861Y-3.6614
X6.171Y-4.6625
X6.171Y-4.8397
X6.4269Y-4.6625
X6.4269Y-4.8397
T8
X5.211Y-2.6825
X5.311Y-2.6825
X5.411Y-2.6825
X5.511Y-2.6825
T9
X3.7402Y-2.3622
X3.7402Y-4.7244
X5.907Y-2.5266
X6.8912Y-2.5266
X7.2835Y-2.3622
X7.2835Y-4.7244
T10
X7.011Y-2.9221
X7.011Y-3.1221
T11
X5.101Y-3.0225
X5.101Y-4.8225
X5.801Y-3.0225
X5.801Y-4.8225
T12
X6.711Y-3.0221
T13
X4.041Y-4.7427
X4.241Y-4.7427
X7.2912Y-3.6725
X7.2912Y-3.9725
X7.2912Y-4.1525
X7.2912Y-4.4525
T14
X5.161Y-2.3423
X5.561Y-2.3423
T0
M30
