G04 #@! TF.GenerationSoftware,KiCad,Pcbnew,(5.1.9-0-10_14)*
G04 #@! TF.CreationDate,2022-08-09T16:59:01-07:00*
G04 #@! TF.ProjectId,telemetry-pcb,74656c65-6d65-4747-9279-2d7063622e6b,rev?*
G04 #@! TF.SameCoordinates,Original*
G04 #@! TF.FileFunction,Copper,L1,Top*
G04 #@! TF.FilePolarity,Positive*
%FSLAX46Y46*%
G04 Gerber Fmt 4.6, Leading zero omitted, Abs format (unit mm)*
G04 Created by KiCad (PCBNEW (5.1.9-0-10_14)) date 2022-08-09 16:59:01*
%MOMM*%
%LPD*%
G01*
G04 APERTURE LIST*
G04 #@! TA.AperFunction,ComponentPad*
%ADD10C,2.000000*%
G04 #@! TD*
G04 #@! TA.AperFunction,ComponentPad*
%ADD11C,4.000000*%
G04 #@! TD*
G04 #@! TA.AperFunction,ComponentPad*
%ADD12C,1.600000*%
G04 #@! TD*
G04 #@! TA.AperFunction,ComponentPad*
%ADD13R,1.600000X1.600000*%
G04 #@! TD*
G04 #@! TA.AperFunction,SMDPad,CuDef*
%ADD14R,2.500000X1.800000*%
G04 #@! TD*
G04 #@! TA.AperFunction,ComponentPad*
%ADD15C,1.690000*%
G04 #@! TD*
G04 #@! TA.AperFunction,ComponentPad*
%ADD16R,1.690000X1.690000*%
G04 #@! TD*
G04 #@! TA.AperFunction,ComponentPad*
%ADD17C,1.676400*%
G04 #@! TD*
G04 #@! TA.AperFunction,WasherPad*
%ADD18C,3.556000*%
G04 #@! TD*
G04 #@! TA.AperFunction,ComponentPad*
%ADD19C,1.524000*%
G04 #@! TD*
G04 #@! TA.AperFunction,ComponentPad*
%ADD20R,1.700000X1.700000*%
G04 #@! TD*
G04 #@! TA.AperFunction,ComponentPad*
%ADD21O,1.700000X1.700000*%
G04 #@! TD*
G04 #@! TA.AperFunction,ComponentPad*
%ADD22C,1.400000*%
G04 #@! TD*
G04 #@! TA.AperFunction,SMDPad,CuDef*
%ADD23R,4.241800X3.810000*%
G04 #@! TD*
G04 #@! TA.AperFunction,ComponentPad*
%ADD24C,1.879600*%
G04 #@! TD*
G04 #@! TA.AperFunction,ComponentPad*
%ADD25R,1.879600X1.879600*%
G04 #@! TD*
G04 #@! TA.AperFunction,SMDPad,CuDef*
%ADD26R,2.000000X4.500000*%
G04 #@! TD*
G04 #@! TA.AperFunction,ViaPad*
%ADD27C,0.800000*%
G04 #@! TD*
G04 #@! TA.AperFunction,Conductor*
%ADD28C,0.250000*%
G04 #@! TD*
G04 #@! TA.AperFunction,Conductor*
%ADD29C,0.500000*%
G04 #@! TD*
G04 #@! TA.AperFunction,Conductor*
%ADD30C,0.254000*%
G04 #@! TD*
G04 #@! TA.AperFunction,Conductor*
%ADD31C,0.100000*%
G04 #@! TD*
G04 APERTURE END LIST*
D10*
X98069400Y-92999500D03*
X98069400Y-89499500D03*
X98069400Y-74711500D03*
X98069400Y-71211500D03*
D11*
X95000000Y-60000000D03*
X150037400Y-64175500D03*
X175037400Y-64175500D03*
D12*
X166692400Y-62755500D03*
X163922400Y-62755500D03*
X161152400Y-62755500D03*
X158382400Y-62755500D03*
X168077400Y-65595500D03*
X165307400Y-65595500D03*
X162537400Y-65595500D03*
X159767400Y-65595500D03*
D13*
X156997400Y-65595500D03*
D14*
X110039400Y-103187500D03*
X114039400Y-103187500D03*
D15*
X103911400Y-111824500D03*
D16*
X106451400Y-111824500D03*
D17*
X139979400Y-68135500D03*
X137439400Y-68135500D03*
X134899400Y-68135500D03*
X132359400Y-68135500D03*
G04 #@! TA.AperFunction,SMDPad,CuDef*
G36*
G01*
X173938400Y-123925500D02*
X173938400Y-121725500D01*
G75*
G02*
X174188400Y-121475500I250000J0D01*
G01*
X174688400Y-121475500D01*
G75*
G02*
X174938400Y-121725500I0J-250000D01*
G01*
X174938400Y-123925500D01*
G75*
G02*
X174688400Y-124175500I-250000J0D01*
G01*
X174188400Y-124175500D01*
G75*
G02*
X173938400Y-123925500I0J250000D01*
G01*
G37*
G04 #@! TD.AperFunction*
G04 #@! TA.AperFunction,SMDPad,CuDef*
G36*
G01*
X166488400Y-123925500D02*
X166488400Y-121725500D01*
G75*
G02*
X166738400Y-121475500I250000J0D01*
G01*
X167238400Y-121475500D01*
G75*
G02*
X167488400Y-121725500I0J-250000D01*
G01*
X167488400Y-123925500D01*
G75*
G02*
X167238400Y-124175500I-250000J0D01*
G01*
X166738400Y-124175500D01*
G75*
G02*
X166488400Y-123925500I0J250000D01*
G01*
G37*
G04 #@! TD.AperFunction*
G04 #@! TA.AperFunction,SMDPad,CuDef*
G36*
G01*
X172288400Y-120325500D02*
X172288400Y-118925500D01*
G75*
G02*
X172438400Y-118775500I150000J0D01*
G01*
X172738400Y-118775500D01*
G75*
G02*
X172888400Y-118925500I0J-150000D01*
G01*
X172888400Y-120325500D01*
G75*
G02*
X172738400Y-120475500I-150000J0D01*
G01*
X172438400Y-120475500D01*
G75*
G02*
X172288400Y-120325500I0J150000D01*
G01*
G37*
G04 #@! TD.AperFunction*
G04 #@! TA.AperFunction,SMDPad,CuDef*
G36*
G01*
X171038400Y-120325500D02*
X171038400Y-118925500D01*
G75*
G02*
X171188400Y-118775500I150000J0D01*
G01*
X171488400Y-118775500D01*
G75*
G02*
X171638400Y-118925500I0J-150000D01*
G01*
X171638400Y-120325500D01*
G75*
G02*
X171488400Y-120475500I-150000J0D01*
G01*
X171188400Y-120475500D01*
G75*
G02*
X171038400Y-120325500I0J150000D01*
G01*
G37*
G04 #@! TD.AperFunction*
G04 #@! TA.AperFunction,SMDPad,CuDef*
G36*
G01*
X169788400Y-120325500D02*
X169788400Y-118925500D01*
G75*
G02*
X169938400Y-118775500I150000J0D01*
G01*
X170238400Y-118775500D01*
G75*
G02*
X170388400Y-118925500I0J-150000D01*
G01*
X170388400Y-120325500D01*
G75*
G02*
X170238400Y-120475500I-150000J0D01*
G01*
X169938400Y-120475500D01*
G75*
G02*
X169788400Y-120325500I0J150000D01*
G01*
G37*
G04 #@! TD.AperFunction*
G04 #@! TA.AperFunction,SMDPad,CuDef*
G36*
G01*
X168538400Y-120325500D02*
X168538400Y-118925500D01*
G75*
G02*
X168688400Y-118775500I150000J0D01*
G01*
X168988400Y-118775500D01*
G75*
G02*
X169138400Y-118925500I0J-150000D01*
G01*
X169138400Y-120325500D01*
G75*
G02*
X168988400Y-120475500I-150000J0D01*
G01*
X168688400Y-120475500D01*
G75*
G02*
X168538400Y-120325500I0J150000D01*
G01*
G37*
G04 #@! TD.AperFunction*
G04 #@! TA.AperFunction,SMDPad,CuDef*
G36*
G01*
X115815400Y-113813500D02*
X115815400Y-114913500D01*
G75*
G02*
X115565400Y-115163500I-250000J0D01*
G01*
X112565400Y-115163500D01*
G75*
G02*
X112315400Y-114913500I0J250000D01*
G01*
X112315400Y-113813500D01*
G75*
G02*
X112565400Y-113563500I250000J0D01*
G01*
X115565400Y-113563500D01*
G75*
G02*
X115815400Y-113813500I0J-250000D01*
G01*
G37*
G04 #@! TD.AperFunction*
G04 #@! TA.AperFunction,SMDPad,CuDef*
G36*
G01*
X121415400Y-113813500D02*
X121415400Y-114913500D01*
G75*
G02*
X121165400Y-115163500I-250000J0D01*
G01*
X118165400Y-115163500D01*
G75*
G02*
X117915400Y-114913500I0J250000D01*
G01*
X117915400Y-113813500D01*
G75*
G02*
X118165400Y-113563500I250000J0D01*
G01*
X121165400Y-113563500D01*
G75*
G02*
X121415400Y-113813500I0J-250000D01*
G01*
G37*
G04 #@! TD.AperFunction*
D15*
X176556400Y-111823500D03*
X176556400Y-109283500D03*
D16*
X176556400Y-106743500D03*
D15*
X176556400Y-99631500D03*
X176556400Y-97091500D03*
D16*
X176556400Y-94551500D03*
D18*
X129565400Y-122491500D03*
X129565400Y-76771500D03*
X147345400Y-122491500D03*
X147345400Y-76771500D03*
D19*
X148615400Y-118681500D03*
X148615400Y-116141500D03*
X148615400Y-113601500D03*
X148615400Y-111061500D03*
X148615400Y-108521500D03*
X148615400Y-105981500D03*
X148615400Y-103441500D03*
X148615400Y-100901500D03*
X148615400Y-98361500D03*
X148615400Y-95821500D03*
X148615400Y-93281500D03*
X148615400Y-90741500D03*
X148615400Y-88201500D03*
X148615400Y-85661500D03*
X148615400Y-83121500D03*
X148615400Y-80581500D03*
X128295400Y-80581500D03*
X128295400Y-83121500D03*
X128295400Y-85661500D03*
X128295400Y-88201500D03*
X128295400Y-90741500D03*
X128295400Y-93281500D03*
X128295400Y-95821500D03*
X128295400Y-98361500D03*
X128295400Y-100901500D03*
X128295400Y-103441500D03*
X128295400Y-105981500D03*
X128295400Y-108521500D03*
D20*
X117119400Y-67627500D03*
D21*
X117119400Y-65087500D03*
X119659400Y-67627500D03*
X119659400Y-65087500D03*
X122199400Y-67627500D03*
X122199400Y-65087500D03*
D22*
X95275400Y-112331500D03*
X92735400Y-112331500D03*
D21*
X179603400Y-86931500D03*
D20*
X179603400Y-84391500D03*
D23*
X100241100Y-104965500D03*
X93865700Y-104965500D03*
D20*
X124739400Y-108775500D03*
D21*
X124739400Y-106235500D03*
X124739400Y-103695500D03*
X124739400Y-101155500D03*
X124739400Y-98615500D03*
X124739400Y-96075500D03*
X124739400Y-93535500D03*
X124739400Y-90995500D03*
X124739400Y-88455500D03*
X124739400Y-85915500D03*
X124739400Y-83375500D03*
X124739400Y-80835500D03*
D20*
X152171400Y-118645500D03*
D21*
X152171400Y-115887500D03*
X152171400Y-113347500D03*
X152171400Y-110807500D03*
X152171400Y-108267500D03*
X152171400Y-105727500D03*
X152171400Y-103187500D03*
X152171400Y-100647500D03*
X152171400Y-98107500D03*
X152171400Y-95567500D03*
X152171400Y-93027500D03*
X152171400Y-90487500D03*
X152171400Y-87947500D03*
X152171400Y-85407500D03*
X152171400Y-82867500D03*
D24*
X175539400Y-75501500D03*
D25*
X175539400Y-78041500D03*
D21*
X112039400Y-65087500D03*
X112039400Y-67627500D03*
X109499400Y-65087500D03*
D20*
X109499400Y-67627500D03*
D22*
X178587400Y-119951500D03*
X178587400Y-122491500D03*
X121183400Y-121475500D03*
X123723400Y-121475500D03*
X183667400Y-68135500D03*
X186207400Y-68135500D03*
D10*
X163243400Y-118427500D03*
X163243400Y-122927500D03*
X156743400Y-118427500D03*
X156743400Y-122927500D03*
G04 #@! TA.AperFunction,SMDPad,CuDef*
G36*
G01*
X143985401Y-103803500D02*
X143085399Y-103803500D01*
G75*
G02*
X142835400Y-103553501I0J249999D01*
G01*
X142835400Y-103028499D01*
G75*
G02*
X143085399Y-102778500I249999J0D01*
G01*
X143985401Y-102778500D01*
G75*
G02*
X144235400Y-103028499I0J-249999D01*
G01*
X144235400Y-103553501D01*
G75*
G02*
X143985401Y-103803500I-249999J0D01*
G01*
G37*
G04 #@! TD.AperFunction*
G04 #@! TA.AperFunction,SMDPad,CuDef*
G36*
G01*
X143985401Y-105628500D02*
X143085399Y-105628500D01*
G75*
G02*
X142835400Y-105378501I0J249999D01*
G01*
X142835400Y-104853499D01*
G75*
G02*
X143085399Y-104603500I249999J0D01*
G01*
X143985401Y-104603500D01*
G75*
G02*
X144235400Y-104853499I0J-249999D01*
G01*
X144235400Y-105378501D01*
G75*
G02*
X143985401Y-105628500I-249999J0D01*
G01*
G37*
G04 #@! TD.AperFunction*
G04 #@! TA.AperFunction,SMDPad,CuDef*
G36*
G01*
X110407400Y-93985501D02*
X110407400Y-93085499D01*
G75*
G02*
X110657399Y-92835500I249999J0D01*
G01*
X111182401Y-92835500D01*
G75*
G02*
X111432400Y-93085499I0J-249999D01*
G01*
X111432400Y-93985501D01*
G75*
G02*
X111182401Y-94235500I-249999J0D01*
G01*
X110657399Y-94235500D01*
G75*
G02*
X110407400Y-93985501I0J249999D01*
G01*
G37*
G04 #@! TD.AperFunction*
G04 #@! TA.AperFunction,SMDPad,CuDef*
G36*
G01*
X108582400Y-93985501D02*
X108582400Y-93085499D01*
G75*
G02*
X108832399Y-92835500I249999J0D01*
G01*
X109357401Y-92835500D01*
G75*
G02*
X109607400Y-93085499I0J-249999D01*
G01*
X109607400Y-93985501D01*
G75*
G02*
X109357401Y-94235500I-249999J0D01*
G01*
X108832399Y-94235500D01*
G75*
G02*
X108582400Y-93985501I0J249999D01*
G01*
G37*
G04 #@! TD.AperFunction*
G04 #@! TA.AperFunction,SMDPad,CuDef*
G36*
G01*
X143985401Y-108375500D02*
X143085399Y-108375500D01*
G75*
G02*
X142835400Y-108125501I0J249999D01*
G01*
X142835400Y-107600499D01*
G75*
G02*
X143085399Y-107350500I249999J0D01*
G01*
X143985401Y-107350500D01*
G75*
G02*
X144235400Y-107600499I0J-249999D01*
G01*
X144235400Y-108125501D01*
G75*
G02*
X143985401Y-108375500I-249999J0D01*
G01*
G37*
G04 #@! TD.AperFunction*
G04 #@! TA.AperFunction,SMDPad,CuDef*
G36*
G01*
X143985401Y-110200500D02*
X143085399Y-110200500D01*
G75*
G02*
X142835400Y-109950501I0J249999D01*
G01*
X142835400Y-109425499D01*
G75*
G02*
X143085399Y-109175500I249999J0D01*
G01*
X143985401Y-109175500D01*
G75*
G02*
X144235400Y-109425499I0J-249999D01*
G01*
X144235400Y-109950501D01*
G75*
G02*
X143985401Y-110200500I-249999J0D01*
G01*
G37*
G04 #@! TD.AperFunction*
D11*
X185000000Y-120000000D03*
X185000000Y-60000000D03*
X95000000Y-120000000D03*
G04 #@! TA.AperFunction,SMDPad,CuDef*
G36*
G01*
X116512400Y-93079250D02*
X116512400Y-93991750D01*
G75*
G02*
X116268650Y-94235500I-243750J0D01*
G01*
X115781150Y-94235500D01*
G75*
G02*
X115537400Y-93991750I0J243750D01*
G01*
X115537400Y-93079250D01*
G75*
G02*
X115781150Y-92835500I243750J0D01*
G01*
X116268650Y-92835500D01*
G75*
G02*
X116512400Y-93079250I0J-243750D01*
G01*
G37*
G04 #@! TD.AperFunction*
G04 #@! TA.AperFunction,SMDPad,CuDef*
G36*
G01*
X114637400Y-93079250D02*
X114637400Y-93991750D01*
G75*
G02*
X114393650Y-94235500I-243750J0D01*
G01*
X113906150Y-94235500D01*
G75*
G02*
X113662400Y-93991750I0J243750D01*
G01*
X113662400Y-93079250D01*
G75*
G02*
X113906150Y-92835500I243750J0D01*
G01*
X114393650Y-92835500D01*
G75*
G02*
X114637400Y-93079250I0J-243750D01*
G01*
G37*
G04 #@! TD.AperFunction*
D26*
X133883400Y-100461500D03*
X133883400Y-108961500D03*
G04 #@! TA.AperFunction,SMDPad,CuDef*
G36*
G01*
X162947400Y-99181499D02*
X162947400Y-100081501D01*
G75*
G02*
X162697401Y-100331500I-249999J0D01*
G01*
X162172399Y-100331500D01*
G75*
G02*
X161922400Y-100081501I0J249999D01*
G01*
X161922400Y-99181499D01*
G75*
G02*
X162172399Y-98931500I249999J0D01*
G01*
X162697401Y-98931500D01*
G75*
G02*
X162947400Y-99181499I0J-249999D01*
G01*
G37*
G04 #@! TD.AperFunction*
G04 #@! TA.AperFunction,SMDPad,CuDef*
G36*
G01*
X164772400Y-99181499D02*
X164772400Y-100081501D01*
G75*
G02*
X164522401Y-100331500I-249999J0D01*
G01*
X163997399Y-100331500D01*
G75*
G02*
X163747400Y-100081501I0J249999D01*
G01*
X163747400Y-99181499D01*
G75*
G02*
X163997399Y-98931500I249999J0D01*
G01*
X164522401Y-98931500D01*
G75*
G02*
X164772400Y-99181499I0J-249999D01*
G01*
G37*
G04 #@! TD.AperFunction*
G04 #@! TA.AperFunction,SMDPad,CuDef*
G36*
G01*
X163747400Y-106177501D02*
X163747400Y-105277499D01*
G75*
G02*
X163997399Y-105027500I249999J0D01*
G01*
X164522401Y-105027500D01*
G75*
G02*
X164772400Y-105277499I0J-249999D01*
G01*
X164772400Y-106177501D01*
G75*
G02*
X164522401Y-106427500I-249999J0D01*
G01*
X163997399Y-106427500D01*
G75*
G02*
X163747400Y-106177501I0J249999D01*
G01*
G37*
G04 #@! TD.AperFunction*
G04 #@! TA.AperFunction,SMDPad,CuDef*
G36*
G01*
X161922400Y-106177501D02*
X161922400Y-105277499D01*
G75*
G02*
X162172399Y-105027500I249999J0D01*
G01*
X162697401Y-105027500D01*
G75*
G02*
X162947400Y-105277499I0J-249999D01*
G01*
X162947400Y-106177501D01*
G75*
G02*
X162697401Y-106427500I-249999J0D01*
G01*
X162172399Y-106427500D01*
G75*
G02*
X161922400Y-106177501I0J249999D01*
G01*
G37*
G04 #@! TD.AperFunction*
G04 #@! TA.AperFunction,SMDPad,CuDef*
G36*
G01*
X163747400Y-112273501D02*
X163747400Y-111373499D01*
G75*
G02*
X163997399Y-111123500I249999J0D01*
G01*
X164522401Y-111123500D01*
G75*
G02*
X164772400Y-111373499I0J-249999D01*
G01*
X164772400Y-112273501D01*
G75*
G02*
X164522401Y-112523500I-249999J0D01*
G01*
X163997399Y-112523500D01*
G75*
G02*
X163747400Y-112273501I0J249999D01*
G01*
G37*
G04 #@! TD.AperFunction*
G04 #@! TA.AperFunction,SMDPad,CuDef*
G36*
G01*
X161922400Y-112273501D02*
X161922400Y-111373499D01*
G75*
G02*
X162172399Y-111123500I249999J0D01*
G01*
X162697401Y-111123500D01*
G75*
G02*
X162947400Y-111373499I0J-249999D01*
G01*
X162947400Y-112273501D01*
G75*
G02*
X162697401Y-112523500I-249999J0D01*
G01*
X162172399Y-112523500D01*
G75*
G02*
X161922400Y-112273501I0J249999D01*
G01*
G37*
G04 #@! TD.AperFunction*
G04 #@! TA.AperFunction,SMDPad,CuDef*
G36*
G01*
X167977400Y-99175250D02*
X167977400Y-100087750D01*
G75*
G02*
X167733650Y-100331500I-243750J0D01*
G01*
X167246150Y-100331500D01*
G75*
G02*
X167002400Y-100087750I0J243750D01*
G01*
X167002400Y-99175250D01*
G75*
G02*
X167246150Y-98931500I243750J0D01*
G01*
X167733650Y-98931500D01*
G75*
G02*
X167977400Y-99175250I0J-243750D01*
G01*
G37*
G04 #@! TD.AperFunction*
G04 #@! TA.AperFunction,SMDPad,CuDef*
G36*
G01*
X169852400Y-99175250D02*
X169852400Y-100087750D01*
G75*
G02*
X169608650Y-100331500I-243750J0D01*
G01*
X169121150Y-100331500D01*
G75*
G02*
X168877400Y-100087750I0J243750D01*
G01*
X168877400Y-99175250D01*
G75*
G02*
X169121150Y-98931500I243750J0D01*
G01*
X169608650Y-98931500D01*
G75*
G02*
X169852400Y-99175250I0J-243750D01*
G01*
G37*
G04 #@! TD.AperFunction*
G04 #@! TA.AperFunction,SMDPad,CuDef*
G36*
G01*
X167977400Y-105271250D02*
X167977400Y-106183750D01*
G75*
G02*
X167733650Y-106427500I-243750J0D01*
G01*
X167246150Y-106427500D01*
G75*
G02*
X167002400Y-106183750I0J243750D01*
G01*
X167002400Y-105271250D01*
G75*
G02*
X167246150Y-105027500I243750J0D01*
G01*
X167733650Y-105027500D01*
G75*
G02*
X167977400Y-105271250I0J-243750D01*
G01*
G37*
G04 #@! TD.AperFunction*
G04 #@! TA.AperFunction,SMDPad,CuDef*
G36*
G01*
X169852400Y-105271250D02*
X169852400Y-106183750D01*
G75*
G02*
X169608650Y-106427500I-243750J0D01*
G01*
X169121150Y-106427500D01*
G75*
G02*
X168877400Y-106183750I0J243750D01*
G01*
X168877400Y-105271250D01*
G75*
G02*
X169121150Y-105027500I243750J0D01*
G01*
X169608650Y-105027500D01*
G75*
G02*
X169852400Y-105271250I0J-243750D01*
G01*
G37*
G04 #@! TD.AperFunction*
G04 #@! TA.AperFunction,SMDPad,CuDef*
G36*
G01*
X167977400Y-111367250D02*
X167977400Y-112279750D01*
G75*
G02*
X167733650Y-112523500I-243750J0D01*
G01*
X167246150Y-112523500D01*
G75*
G02*
X167002400Y-112279750I0J243750D01*
G01*
X167002400Y-111367250D01*
G75*
G02*
X167246150Y-111123500I243750J0D01*
G01*
X167733650Y-111123500D01*
G75*
G02*
X167977400Y-111367250I0J-243750D01*
G01*
G37*
G04 #@! TD.AperFunction*
G04 #@! TA.AperFunction,SMDPad,CuDef*
G36*
G01*
X169852400Y-111367250D02*
X169852400Y-112279750D01*
G75*
G02*
X169608650Y-112523500I-243750J0D01*
G01*
X169121150Y-112523500D01*
G75*
G02*
X168877400Y-112279750I0J243750D01*
G01*
X168877400Y-111367250D01*
G75*
G02*
X169121150Y-111123500I243750J0D01*
G01*
X169608650Y-111123500D01*
G75*
G02*
X169852400Y-111367250I0J-243750D01*
G01*
G37*
G04 #@! TD.AperFunction*
G04 #@! TA.AperFunction,SMDPad,CuDef*
G36*
G01*
X142969400Y-99598500D02*
X142969400Y-98648500D01*
G75*
G02*
X143219400Y-98398500I250000J0D01*
G01*
X143719400Y-98398500D01*
G75*
G02*
X143969400Y-98648500I0J-250000D01*
G01*
X143969400Y-99598500D01*
G75*
G02*
X143719400Y-99848500I-250000J0D01*
G01*
X143219400Y-99848500D01*
G75*
G02*
X142969400Y-99598500I0J250000D01*
G01*
G37*
G04 #@! TD.AperFunction*
G04 #@! TA.AperFunction,SMDPad,CuDef*
G36*
G01*
X141069400Y-99598500D02*
X141069400Y-98648500D01*
G75*
G02*
X141319400Y-98398500I250000J0D01*
G01*
X141819400Y-98398500D01*
G75*
G02*
X142069400Y-98648500I0J-250000D01*
G01*
X142069400Y-99598500D01*
G75*
G02*
X141819400Y-99848500I-250000J0D01*
G01*
X141319400Y-99848500D01*
G75*
G02*
X141069400Y-99598500I0J250000D01*
G01*
G37*
G04 #@! TD.AperFunction*
G04 #@! TA.AperFunction,SMDPad,CuDef*
G36*
G01*
X142969400Y-114330500D02*
X142969400Y-113380500D01*
G75*
G02*
X143219400Y-113130500I250000J0D01*
G01*
X143719400Y-113130500D01*
G75*
G02*
X143969400Y-113380500I0J-250000D01*
G01*
X143969400Y-114330500D01*
G75*
G02*
X143719400Y-114580500I-250000J0D01*
G01*
X143219400Y-114580500D01*
G75*
G02*
X142969400Y-114330500I0J250000D01*
G01*
G37*
G04 #@! TD.AperFunction*
G04 #@! TA.AperFunction,SMDPad,CuDef*
G36*
G01*
X141069400Y-114330500D02*
X141069400Y-113380500D01*
G75*
G02*
X141319400Y-113130500I250000J0D01*
G01*
X141819400Y-113130500D01*
G75*
G02*
X142069400Y-113380500I0J-250000D01*
G01*
X142069400Y-114330500D01*
G75*
G02*
X141819400Y-114580500I-250000J0D01*
G01*
X141319400Y-114580500D01*
G75*
G02*
X141069400Y-114330500I0J250000D01*
G01*
G37*
G04 #@! TD.AperFunction*
D27*
X170967400Y-111823500D03*
X117627400Y-93535500D03*
X139471400Y-85407500D03*
X137439400Y-92519500D03*
X137439400Y-101663500D03*
X143027400Y-101663500D03*
X144407400Y-109283500D03*
X149646602Y-116914901D03*
X143497346Y-117881446D03*
X144407400Y-111315500D03*
X170967400Y-93027500D03*
X107975400Y-90487500D03*
X111023400Y-90233500D03*
X130073400Y-71691500D03*
X139549400Y-119443500D03*
X137947400Y-119443500D03*
X137947400Y-76263500D03*
X139440842Y-102648942D03*
X145868366Y-102378534D03*
X151663400Y-121983500D03*
X106451400Y-87439500D03*
X106451400Y-75755500D03*
X175793400Y-87693500D03*
X169189400Y-115125500D03*
X177317400Y-92773500D03*
X142011400Y-77787500D03*
X126629399Y-93497551D03*
X126771400Y-97599500D03*
X142011400Y-83375500D03*
X156743400Y-106743500D03*
X147379400Y-107251500D03*
X130835400Y-104093500D03*
X126263400Y-102918500D03*
X126629399Y-104711500D03*
X121547400Y-77279500D03*
X135407400Y-94551500D03*
X150281401Y-95567500D03*
X135407400Y-104745500D03*
X136423400Y-91503500D03*
X136931400Y-84899500D03*
X136931400Y-83375500D03*
X131343400Y-105219500D03*
X122199400Y-94043500D03*
X132359400Y-105219500D03*
X131851400Y-101663500D03*
X121547400Y-78295500D03*
X121691400Y-88455500D03*
X146727400Y-104203500D03*
X134535400Y-96075500D03*
X130835400Y-95423500D03*
X130835400Y-85407500D03*
X126629399Y-91503500D03*
X126629399Y-89999823D03*
X153695400Y-120459500D03*
X145702001Y-118054101D03*
X145059400Y-105768000D03*
X147235400Y-93532458D03*
X135767911Y-90848011D03*
X171475400Y-101155500D03*
X150139400Y-86931500D03*
X137947400Y-91503500D03*
X135407400Y-92519500D03*
X180873400Y-78549500D03*
X164871400Y-84391500D03*
X167919400Y-87439500D03*
X167411400Y-85407500D03*
D28*
X143535400Y-113789500D02*
X143469400Y-113855500D01*
X143535400Y-109688000D02*
X143535400Y-113789500D01*
X169364900Y-105727500D02*
X169364900Y-111823500D01*
X169364900Y-111823500D02*
X170967400Y-111823500D01*
X116024900Y-93535500D02*
X117627400Y-93535500D01*
X137896362Y-92519500D02*
X137439400Y-92519500D01*
X139471400Y-90944462D02*
X137896362Y-92519500D01*
X139471400Y-85407500D02*
X139471400Y-90944462D01*
X140929400Y-101663500D02*
X137439400Y-101663500D01*
X143469400Y-99123500D02*
X140929400Y-101663500D01*
X156743400Y-118427500D02*
X163243400Y-118427500D01*
X140929400Y-101663500D02*
X143027400Y-101663500D01*
X143939900Y-109283500D02*
X143535400Y-109688000D01*
X144407400Y-109283500D02*
X143939900Y-109283500D01*
X143497346Y-117881446D02*
X145092153Y-119476253D01*
X149102121Y-117155501D02*
X149629401Y-116628221D01*
X148098735Y-117155501D02*
X149102121Y-117155501D01*
X145777983Y-119476253D02*
X148098735Y-117155501D01*
X149629401Y-112075501D02*
X148615400Y-111061500D01*
X145092153Y-119476253D02*
X145777983Y-119476253D01*
X149629401Y-116628221D02*
X149629401Y-112075501D01*
X143535400Y-109688000D02*
X143535400Y-110443500D01*
X143535400Y-110443500D02*
X144407400Y-111315500D01*
X174016400Y-99631500D02*
X176556400Y-97091500D01*
X169364900Y-99631500D02*
X174016400Y-99631500D01*
X174016400Y-107172000D02*
X169364900Y-111823500D01*
X174016400Y-99631500D02*
X174016400Y-107172000D01*
X175031400Y-97091500D02*
X170967400Y-93027500D01*
X176556400Y-97091500D02*
X175031400Y-97091500D01*
X164441400Y-119625500D02*
X163243400Y-118427500D01*
X168838400Y-119625500D02*
X164441400Y-119625500D01*
X110769400Y-90487500D02*
X111023400Y-90233500D01*
X107975400Y-90487500D02*
X110769400Y-90487500D01*
D29*
X111526400Y-111824500D02*
X114065400Y-114363500D01*
X106451400Y-111824500D02*
X111526400Y-111824500D01*
D28*
X132359400Y-69405500D02*
X130073400Y-71691500D01*
X132359400Y-68135500D02*
X132359400Y-69405500D01*
X139549400Y-119443500D02*
X137947400Y-119443500D01*
X139711250Y-102378534D02*
X145868366Y-102378534D01*
X139440842Y-102648942D02*
X139711250Y-102378534D01*
X149910173Y-120230273D02*
X151663400Y-121983500D01*
X140336173Y-120230273D02*
X149910173Y-120230273D01*
X139549400Y-119443500D02*
X140336173Y-120230273D01*
X169959400Y-119475500D02*
X169959400Y-118945452D01*
X174917399Y-78663501D02*
X175539400Y-78041500D01*
X176029839Y-98534499D02*
X175031400Y-99532938D01*
X176736963Y-98534499D02*
X176029839Y-98534499D01*
X177825400Y-97446062D02*
X176736963Y-98534499D01*
X177825400Y-93281500D02*
X177825400Y-97446062D01*
X177317400Y-92773500D02*
X177825400Y-93281500D01*
X175031400Y-99532938D02*
X175031400Y-99631500D01*
D29*
X128041400Y-103695500D02*
X128295400Y-103441500D01*
X124739400Y-103695500D02*
X128041400Y-103695500D01*
D28*
X143384900Y-103441500D02*
X143535400Y-103291000D01*
X128295400Y-103441500D02*
X143384900Y-103441500D01*
D29*
X124231400Y-103187500D02*
X124739400Y-103695500D01*
X114039400Y-103187500D02*
X124231400Y-103187500D01*
X119665400Y-108769500D02*
X124739400Y-103695500D01*
X119665400Y-114363500D02*
X119665400Y-108769500D01*
D28*
X109499400Y-65087500D02*
X112039400Y-65087500D01*
X117119400Y-65087500D02*
X119659400Y-65087500D01*
X122199400Y-65087500D02*
X119659400Y-65087500D01*
X134899400Y-77787500D02*
X142011400Y-77787500D01*
X122199400Y-65087500D02*
X134899400Y-77787500D01*
X128079349Y-93497551D02*
X128295400Y-93281500D01*
X126629399Y-93497551D02*
X128079349Y-93497551D01*
X132503401Y-100029501D02*
X128295400Y-95821500D01*
X132503401Y-101976461D02*
X132503401Y-100029501D01*
X132164361Y-102315501D02*
X132503401Y-101976461D01*
X128208679Y-102315501D02*
X132164361Y-102315501D01*
X126771400Y-100878222D02*
X128208679Y-102315501D01*
X126771400Y-97599500D02*
X126771400Y-100878222D01*
X136618439Y-82723499D02*
X141359399Y-82723499D01*
X131851400Y-95567500D02*
X131851400Y-87490538D01*
X129819400Y-96075500D02*
X131343400Y-96075500D01*
X141359399Y-82723499D02*
X142011400Y-83375500D01*
X129565400Y-95821500D02*
X129819400Y-96075500D01*
X131343400Y-96075500D02*
X131851400Y-95567500D01*
X131851400Y-87490538D02*
X136618439Y-82723499D01*
X128295400Y-95821500D02*
X129565400Y-95821500D01*
X157759400Y-105727500D02*
X156743400Y-106743500D01*
X162434900Y-105727500D02*
X157759400Y-105727500D01*
X142031332Y-104093500D02*
X130835400Y-104093500D01*
X142583390Y-104645558D02*
X142031332Y-104093500D01*
X147379400Y-107251500D02*
X147379400Y-117341664D01*
X147379400Y-117341664D02*
X146014962Y-118706102D01*
X145389040Y-118706102D02*
X142583390Y-115900452D01*
X142583390Y-115900452D02*
X142583390Y-104645558D01*
X146014962Y-118706102D02*
X145389040Y-118706102D01*
X126263400Y-100139500D02*
X126263400Y-102918500D01*
X124739400Y-98615500D02*
X126263400Y-100139500D01*
X130217400Y-104711500D02*
X130835400Y-104093500D01*
X126629399Y-104711500D02*
X130217400Y-104711500D01*
X153798900Y-108267500D02*
X162434900Y-99631500D01*
X152171400Y-108267500D02*
X153798900Y-108267500D01*
X147749900Y-105116000D02*
X148615400Y-105981500D01*
X143535400Y-105116000D02*
X147749900Y-105116000D01*
X143535400Y-105116000D02*
X143535400Y-107863000D01*
X156743400Y-122927500D02*
X163243400Y-122927500D01*
X151069399Y-104289501D02*
X152171400Y-103187500D01*
X154299798Y-122927500D02*
X151069399Y-119697101D01*
X151069399Y-119697101D02*
X151069399Y-104289501D01*
X156743400Y-122927500D02*
X154299798Y-122927500D01*
X151917400Y-103441500D02*
X152171400Y-103187500D01*
X148615400Y-103441500D02*
X151917400Y-103441500D01*
X151917400Y-100901500D02*
X152171400Y-100647500D01*
X148615400Y-100901500D02*
X151917400Y-100901500D01*
X151069399Y-97005499D02*
X152171400Y-98107500D01*
X149102121Y-87187499D02*
X151069399Y-89154777D01*
X148363399Y-87187499D02*
X149102121Y-87187499D01*
X151069399Y-89154777D02*
X151069399Y-97005499D01*
X127642361Y-82107499D02*
X143283399Y-82107499D01*
X143283399Y-82107499D02*
X148363399Y-87187499D01*
X122814362Y-77279500D02*
X127642361Y-82107499D01*
X121547400Y-77279500D02*
X122814362Y-77279500D01*
X151917400Y-98361500D02*
X152171400Y-98107500D01*
X148615400Y-98361500D02*
X151917400Y-98361500D01*
X150027401Y-95821500D02*
X150281401Y-95567500D01*
X148615400Y-95821500D02*
X150027401Y-95821500D01*
X149629401Y-94807499D02*
X148615400Y-95821500D01*
X149629401Y-92794779D02*
X149629401Y-94807499D01*
X149102121Y-92267499D02*
X149629401Y-92794779D01*
X146835401Y-92267499D02*
X149102121Y-92267499D01*
X144551400Y-94551500D02*
X146835401Y-92267499D01*
X135407400Y-94551500D02*
X144551400Y-94551500D01*
X136675400Y-108961500D02*
X141569400Y-113855500D01*
X133883400Y-108961500D02*
X136675400Y-108961500D01*
X133883400Y-106269500D02*
X135407400Y-104745500D01*
X133883400Y-108961500D02*
X133883400Y-106269500D01*
X136423400Y-85407500D02*
X136931400Y-84899500D01*
X136423400Y-91503500D02*
X136423400Y-85407500D01*
X140231400Y-100461500D02*
X141569400Y-99123500D01*
X133883400Y-100461500D02*
X140231400Y-100461500D01*
X133883400Y-86423500D02*
X136931400Y-83375500D01*
X133883400Y-100461500D02*
X133883400Y-86423500D01*
X142095449Y-124556511D02*
X131343400Y-113804462D01*
X168163341Y-124556511D02*
X142095449Y-124556511D01*
X131343400Y-113804462D02*
X131343400Y-105219500D01*
X122599399Y-85515501D02*
X124739400Y-83375500D01*
X122599399Y-93643501D02*
X122599399Y-85515501D01*
X122199400Y-94043500D02*
X122599399Y-93643501D01*
X172588400Y-120131452D02*
X172588400Y-119625500D01*
X168163341Y-124556511D02*
X172588400Y-120131452D01*
X125841401Y-81937501D02*
X124739400Y-80835500D01*
X125841401Y-95380221D02*
X125841401Y-81937501D01*
X128782121Y-97347499D02*
X127808679Y-97347499D01*
X127808679Y-97347499D02*
X125841401Y-95380221D01*
X131851400Y-100416778D02*
X128782121Y-97347499D01*
X131851400Y-101663500D02*
X131851400Y-100416778D01*
X167026438Y-120727510D02*
X171086390Y-120727510D01*
X166236390Y-121517558D02*
X167026438Y-120727510D01*
X171338400Y-120475500D02*
X171338400Y-119625500D01*
X171086390Y-120727510D02*
X171338400Y-120475500D01*
X164199399Y-124179501D02*
X166236390Y-122142510D01*
X155018627Y-124179501D02*
X164199399Y-124179501D01*
X150692389Y-119853263D02*
X155018627Y-124179501D01*
X166236390Y-122142510D02*
X166236390Y-121517558D01*
X141071561Y-119853263D02*
X150692389Y-119853263D01*
X132359400Y-111141102D02*
X141071561Y-119853263D01*
X132359400Y-105219500D02*
X132359400Y-111141102D01*
X121547400Y-88311500D02*
X121691400Y-88455500D01*
X121547400Y-78295500D02*
X121547400Y-88311500D01*
X146727400Y-104203500D02*
X146727400Y-102315500D01*
X146727400Y-102315500D02*
X145567400Y-101155500D01*
X145567400Y-96329500D02*
X148615400Y-93281500D01*
X145567400Y-101155500D02*
X145567400Y-96329500D01*
X134789400Y-96329500D02*
X134535400Y-96075500D01*
X145567400Y-96329500D02*
X134789400Y-96329500D01*
X130835400Y-95423500D02*
X130835400Y-85407500D01*
X127391399Y-90741500D02*
X126629399Y-91503500D01*
X128295400Y-90741500D02*
X127391399Y-90741500D01*
X126629399Y-89867501D02*
X128295400Y-88201500D01*
X126629399Y-89999823D02*
X126629399Y-89867501D01*
X153695400Y-119622538D02*
X153695400Y-120459500D01*
X161494438Y-111823500D02*
X153695400Y-119622538D01*
X162434900Y-111823500D02*
X161494438Y-111823500D01*
X128041400Y-106235500D02*
X128295400Y-105981500D01*
X124739400Y-106235500D02*
X128041400Y-106235500D01*
X128041400Y-108775500D02*
X128295400Y-108521500D01*
X124739400Y-108775500D02*
X128041400Y-108775500D01*
X145059400Y-117411500D02*
X145059400Y-105768000D01*
X145702001Y-118054101D02*
X145059400Y-117411500D01*
X110919900Y-93535500D02*
X114149900Y-93535500D01*
X164259900Y-99631500D02*
X167489900Y-99631500D01*
X164259900Y-105727500D02*
X167489900Y-105727500D01*
X164259900Y-111823500D02*
X167489900Y-111823500D01*
X134755399Y-91860523D02*
X135767911Y-90848011D01*
X135094439Y-95203501D02*
X134755399Y-94864461D01*
X134755399Y-94864461D02*
X134755399Y-91860523D01*
X145564357Y-95203501D02*
X135094439Y-95203501D01*
X147235400Y-93532458D02*
X145564357Y-95203501D01*
X150225401Y-86845499D02*
X150139400Y-86931500D01*
X156500991Y-86845499D02*
X150225401Y-86845499D01*
X168625390Y-98969898D02*
X156500991Y-86845499D01*
X168625390Y-100293102D02*
X168625390Y-98969898D01*
X169487788Y-101155500D02*
X168625390Y-100293102D01*
X171475400Y-101155500D02*
X169487788Y-101155500D01*
X136365715Y-92519500D02*
X135407400Y-92519500D01*
X137381715Y-91503500D02*
X136365715Y-92519500D01*
X137947400Y-91503500D02*
X137381715Y-91503500D01*
X183667400Y-75755500D02*
X183667400Y-68135500D01*
X180873400Y-78549500D02*
X183667400Y-75755500D01*
X115681401Y-63985499D02*
X112039400Y-67627500D01*
X129822897Y-63985499D02*
X115681401Y-63985499D01*
X133449601Y-68299199D02*
X133449601Y-67612203D01*
X133449601Y-67612203D02*
X129822897Y-63985499D01*
X134376103Y-69225701D02*
X133449601Y-68299199D01*
X136349199Y-69225701D02*
X134376103Y-69225701D01*
X137439400Y-68135500D02*
X136349199Y-69225701D01*
X109094900Y-102243000D02*
X110039400Y-103187500D01*
X109094900Y-93535500D02*
X109094900Y-102243000D01*
D29*
X108261400Y-104965500D02*
X110039400Y-103187500D01*
X105229399Y-112791501D02*
X105229399Y-105171501D01*
X93812401Y-113408501D02*
X104612399Y-113408501D01*
X92735400Y-112331500D02*
X93812401Y-113408501D01*
X105435400Y-104965500D02*
X108261400Y-104965500D01*
X105229399Y-105171501D02*
X105435400Y-104965500D01*
X104612399Y-113408501D02*
X105229399Y-112791501D01*
X100241100Y-104965500D02*
X105435400Y-104965500D01*
D28*
X164871400Y-84391500D02*
X167919400Y-87439500D01*
X160805401Y-78801501D02*
X124869535Y-78801501D01*
X124869535Y-78801501D02*
X121823534Y-75755500D01*
X167411400Y-85407500D02*
X160805401Y-78801501D01*
X117627400Y-75755500D02*
X109499400Y-67627500D01*
X121823534Y-75755500D02*
X117627400Y-75755500D01*
X178501399Y-97686501D02*
X176556400Y-99631500D01*
X178501399Y-85493501D02*
X178501399Y-97686501D01*
X179603400Y-84391500D02*
X178501399Y-85493501D01*
X177653401Y-110726499D02*
X176556400Y-111823500D01*
X177653401Y-100728501D02*
X177653401Y-110726499D01*
X176556400Y-99631500D02*
X177653401Y-100728501D01*
X176556400Y-117920500D02*
X178587400Y-119951500D01*
X176556400Y-111823500D02*
X176556400Y-117920500D01*
D29*
X100724700Y-111824500D02*
X103911400Y-111824500D01*
X93865700Y-104965500D02*
X100724700Y-111824500D01*
D30*
X181731728Y-56017599D02*
X181017599Y-56731728D01*
X180456512Y-57571455D01*
X180070028Y-58504509D01*
X179873000Y-59495035D01*
X179873000Y-60504965D01*
X180070028Y-61495491D01*
X180456512Y-62428545D01*
X181017599Y-63268272D01*
X181731728Y-63982401D01*
X182571455Y-64543488D01*
X183504509Y-64929972D01*
X184495035Y-65127000D01*
X185504965Y-65127000D01*
X186495491Y-64929972D01*
X187428545Y-64543488D01*
X188268272Y-63982401D01*
X188982401Y-63268272D01*
X189315000Y-62770502D01*
X189315001Y-117229500D01*
X188982401Y-116731728D01*
X188268272Y-116017599D01*
X187428545Y-115456512D01*
X186495491Y-115070028D01*
X186453659Y-115061707D01*
X186684876Y-114907213D01*
X187010113Y-114581976D01*
X187265650Y-114199537D01*
X187441667Y-113774594D01*
X187531400Y-113323477D01*
X187531400Y-112863523D01*
X187441667Y-112412406D01*
X187265650Y-111987463D01*
X187010113Y-111605024D01*
X186684876Y-111279787D01*
X186302437Y-111024250D01*
X185877494Y-110848233D01*
X185426377Y-110758500D01*
X184966423Y-110758500D01*
X184515306Y-110848233D01*
X184090363Y-111024250D01*
X183707924Y-111279787D01*
X183382687Y-111605024D01*
X183127150Y-111987463D01*
X182951133Y-112412406D01*
X182861400Y-112863523D01*
X182861400Y-113323477D01*
X182951133Y-113774594D01*
X183127150Y-114199537D01*
X183382687Y-114581976D01*
X183707924Y-114907213D01*
X183849032Y-115001498D01*
X183504509Y-115070028D01*
X182571455Y-115456512D01*
X181731728Y-116017599D01*
X181017599Y-116731728D01*
X180456512Y-117571455D01*
X180070028Y-118504509D01*
X179873000Y-119495035D01*
X179873000Y-119571667D01*
X179871096Y-119562095D01*
X179770461Y-119319141D01*
X179624362Y-119100487D01*
X179438413Y-118914538D01*
X179219759Y-118768439D01*
X178976805Y-118667804D01*
X178718886Y-118616500D01*
X178455914Y-118616500D01*
X178348557Y-118637855D01*
X177316400Y-117605699D01*
X177316400Y-113095665D01*
X177499845Y-112973091D01*
X177705991Y-112766945D01*
X177867959Y-112524543D01*
X177979524Y-112255200D01*
X178036400Y-111969267D01*
X178036400Y-111677733D01*
X177993357Y-111461344D01*
X178164404Y-111290298D01*
X178193402Y-111266500D01*
X178288375Y-111150775D01*
X178358947Y-111018746D01*
X178402404Y-110875485D01*
X178413401Y-110763832D01*
X178413401Y-110763824D01*
X178417077Y-110726499D01*
X178413401Y-110689174D01*
X178413401Y-100765826D01*
X178417077Y-100728501D01*
X178413401Y-100691176D01*
X178413401Y-100691168D01*
X178411467Y-100671523D01*
X182861400Y-100671523D01*
X182861400Y-101131477D01*
X182951133Y-101582594D01*
X183127150Y-102007537D01*
X183382687Y-102389976D01*
X183707924Y-102715213D01*
X184090363Y-102970750D01*
X184515306Y-103146767D01*
X184720084Y-103187500D01*
X184515306Y-103228233D01*
X184090363Y-103404250D01*
X183707924Y-103659787D01*
X183382687Y-103985024D01*
X183127150Y-104367463D01*
X182951133Y-104792406D01*
X182861400Y-105243523D01*
X182861400Y-105703477D01*
X182951133Y-106154594D01*
X183127150Y-106579537D01*
X183382687Y-106961976D01*
X183707924Y-107287213D01*
X184090363Y-107542750D01*
X184515306Y-107718767D01*
X184966423Y-107808500D01*
X185426377Y-107808500D01*
X185877494Y-107718767D01*
X186302437Y-107542750D01*
X186684876Y-107287213D01*
X187010113Y-106961976D01*
X187265650Y-106579537D01*
X187441667Y-106154594D01*
X187531400Y-105703477D01*
X187531400Y-105243523D01*
X187441667Y-104792406D01*
X187265650Y-104367463D01*
X187010113Y-103985024D01*
X186684876Y-103659787D01*
X186302437Y-103404250D01*
X185877494Y-103228233D01*
X185672716Y-103187500D01*
X185877494Y-103146767D01*
X186302437Y-102970750D01*
X186684876Y-102715213D01*
X187010113Y-102389976D01*
X187265650Y-102007537D01*
X187441667Y-101582594D01*
X187531400Y-101131477D01*
X187531400Y-100671523D01*
X187441667Y-100220406D01*
X187265650Y-99795463D01*
X187010113Y-99413024D01*
X186684876Y-99087787D01*
X186302437Y-98832250D01*
X185877494Y-98656233D01*
X185426377Y-98566500D01*
X184966423Y-98566500D01*
X184515306Y-98656233D01*
X184090363Y-98832250D01*
X183707924Y-99087787D01*
X183382687Y-99413024D01*
X183127150Y-99795463D01*
X182951133Y-100220406D01*
X182861400Y-100671523D01*
X178411467Y-100671523D01*
X178402404Y-100579515D01*
X178358947Y-100436254D01*
X178288375Y-100304225D01*
X178193402Y-100188500D01*
X178164405Y-100164703D01*
X177993357Y-99993656D01*
X178036400Y-99777267D01*
X178036400Y-99485733D01*
X177993357Y-99269344D01*
X179012402Y-98250300D01*
X179041400Y-98226502D01*
X179102953Y-98151500D01*
X179136373Y-98110778D01*
X179206945Y-97978748D01*
X179212256Y-97961240D01*
X179250402Y-97835487D01*
X179261399Y-97723834D01*
X179261399Y-97723824D01*
X179265075Y-97686501D01*
X179261399Y-97649178D01*
X179261399Y-93051523D01*
X182861400Y-93051523D01*
X182861400Y-93511477D01*
X182951133Y-93962594D01*
X183127150Y-94387537D01*
X183382687Y-94769976D01*
X183707924Y-95095213D01*
X184090363Y-95350750D01*
X184515306Y-95526767D01*
X184966423Y-95616500D01*
X185426377Y-95616500D01*
X185877494Y-95526767D01*
X186302437Y-95350750D01*
X186684876Y-95095213D01*
X187010113Y-94769976D01*
X187265650Y-94387537D01*
X187441667Y-93962594D01*
X187531400Y-93511477D01*
X187531400Y-93051523D01*
X187441667Y-92600406D01*
X187265650Y-92175463D01*
X187010113Y-91793024D01*
X186684876Y-91467787D01*
X186302437Y-91212250D01*
X185877494Y-91036233D01*
X185426377Y-90946500D01*
X184966423Y-90946500D01*
X184515306Y-91036233D01*
X184090363Y-91212250D01*
X183707924Y-91467787D01*
X183382687Y-91793024D01*
X183127150Y-92175463D01*
X182951133Y-92600406D01*
X182861400Y-93051523D01*
X179261399Y-93051523D01*
X179261399Y-88377564D01*
X179457140Y-88416500D01*
X179749660Y-88416500D01*
X180036558Y-88359432D01*
X180306811Y-88247490D01*
X180550032Y-88084975D01*
X180756875Y-87878132D01*
X180919390Y-87634911D01*
X181031332Y-87364658D01*
X181088400Y-87077760D01*
X181088400Y-86785240D01*
X181031332Y-86498342D01*
X180919390Y-86228089D01*
X180756875Y-85984868D01*
X180625020Y-85853013D01*
X180697580Y-85831002D01*
X180807894Y-85772037D01*
X180904585Y-85692685D01*
X180983937Y-85595994D01*
X181042902Y-85485680D01*
X181079212Y-85365982D01*
X181091472Y-85241500D01*
X181091472Y-83541500D01*
X181079212Y-83417018D01*
X181042902Y-83297320D01*
X180983937Y-83187006D01*
X180904585Y-83090315D01*
X180807894Y-83010963D01*
X180697580Y-82951998D01*
X180577882Y-82915688D01*
X180453400Y-82903428D01*
X178753400Y-82903428D01*
X178628918Y-82915688D01*
X178509220Y-82951998D01*
X178398906Y-83010963D01*
X178302215Y-83090315D01*
X178222863Y-83187006D01*
X178163898Y-83297320D01*
X178127588Y-83417018D01*
X178115328Y-83541500D01*
X178115328Y-84804771D01*
X177990401Y-84929697D01*
X177961398Y-84953500D01*
X177937004Y-84983225D01*
X177866425Y-85069225D01*
X177841822Y-85115254D01*
X177795853Y-85201255D01*
X177752396Y-85344516D01*
X177741399Y-85456169D01*
X177741399Y-85456179D01*
X177737723Y-85493501D01*
X177741399Y-85530823D01*
X177741400Y-93168215D01*
X177645580Y-93116998D01*
X177525882Y-93080688D01*
X177401400Y-93068428D01*
X175711400Y-93068428D01*
X175586918Y-93080688D01*
X175467220Y-93116998D01*
X175356906Y-93175963D01*
X175260215Y-93255315D01*
X175180863Y-93352006D01*
X175121898Y-93462320D01*
X175085588Y-93582018D01*
X175073328Y-93706500D01*
X175073328Y-95396500D01*
X175085588Y-95520982D01*
X175121898Y-95640680D01*
X175180863Y-95750994D01*
X175260215Y-95847685D01*
X175356906Y-95927037D01*
X175467220Y-95986002D01*
X175545205Y-96009659D01*
X175406809Y-96148055D01*
X175309055Y-96294353D01*
X172002400Y-92987699D01*
X172002400Y-92925561D01*
X171962626Y-92725602D01*
X171884605Y-92537244D01*
X171771337Y-92367726D01*
X171627174Y-92223563D01*
X171457656Y-92110295D01*
X171269298Y-92032274D01*
X171069339Y-91992500D01*
X170865461Y-91992500D01*
X170665502Y-92032274D01*
X170477144Y-92110295D01*
X170307626Y-92223563D01*
X170163463Y-92367726D01*
X170050195Y-92537244D01*
X169972174Y-92725602D01*
X169932400Y-92925561D01*
X169932400Y-93129439D01*
X169972174Y-93329398D01*
X170050195Y-93517756D01*
X170163463Y-93687274D01*
X170307626Y-93831437D01*
X170477144Y-93944705D01*
X170665502Y-94022726D01*
X170865461Y-94062500D01*
X170927599Y-94062500D01*
X174467601Y-97602503D01*
X174491399Y-97631501D01*
X174520397Y-97655299D01*
X174607123Y-97726474D01*
X174730729Y-97792543D01*
X174739153Y-97797046D01*
X174767464Y-97805634D01*
X173701599Y-98871500D01*
X170433573Y-98871500D01*
X170423347Y-98837791D01*
X170341858Y-98685336D01*
X170232192Y-98551708D01*
X170098564Y-98442042D01*
X169946109Y-98360553D01*
X169780685Y-98310372D01*
X169608650Y-98293428D01*
X169121150Y-98293428D01*
X169032457Y-98302163D01*
X157064795Y-86334502D01*
X157040992Y-86305498D01*
X156925267Y-86210525D01*
X156793238Y-86139953D01*
X156649977Y-86096496D01*
X156538324Y-86085499D01*
X156538313Y-86085499D01*
X156500991Y-86081823D01*
X156463669Y-86085499D01*
X153497916Y-86085499D01*
X153599332Y-85840658D01*
X153656400Y-85553760D01*
X153656400Y-85261240D01*
X153599332Y-84974342D01*
X153487390Y-84704089D01*
X153324875Y-84460868D01*
X153118032Y-84254025D01*
X152943640Y-84137500D01*
X153118032Y-84020975D01*
X153324875Y-83814132D01*
X153487390Y-83570911D01*
X153599332Y-83300658D01*
X153656400Y-83013760D01*
X153656400Y-82721240D01*
X153599332Y-82434342D01*
X153487390Y-82164089D01*
X153324875Y-81920868D01*
X153118032Y-81714025D01*
X152874811Y-81551510D01*
X152604558Y-81439568D01*
X152317660Y-81382500D01*
X152025140Y-81382500D01*
X151738242Y-81439568D01*
X151467989Y-81551510D01*
X151224768Y-81714025D01*
X151017925Y-81920868D01*
X150855410Y-82164089D01*
X150743468Y-82434342D01*
X150686400Y-82721240D01*
X150686400Y-83013760D01*
X150743468Y-83300658D01*
X150855410Y-83570911D01*
X151017925Y-83814132D01*
X151224768Y-84020975D01*
X151399160Y-84137500D01*
X151224768Y-84254025D01*
X151017925Y-84460868D01*
X150855410Y-84704089D01*
X150743468Y-84974342D01*
X150686400Y-85261240D01*
X150686400Y-85553760D01*
X150743468Y-85840658D01*
X150844884Y-86085499D01*
X150736221Y-86085499D01*
X150629656Y-86014295D01*
X150441298Y-85936274D01*
X150241339Y-85896500D01*
X150037461Y-85896500D01*
X149991194Y-85905703D01*
X150012400Y-85799092D01*
X150012400Y-85523908D01*
X149958714Y-85254010D01*
X149853405Y-84999773D01*
X149700520Y-84770965D01*
X149505935Y-84576380D01*
X149277127Y-84423495D01*
X149199885Y-84391500D01*
X149277127Y-84359505D01*
X149505935Y-84206620D01*
X149700520Y-84012035D01*
X149853405Y-83783227D01*
X149958714Y-83528990D01*
X150012400Y-83259092D01*
X150012400Y-82983908D01*
X149958714Y-82714010D01*
X149853405Y-82459773D01*
X149700520Y-82230965D01*
X149505935Y-82036380D01*
X149277127Y-81883495D01*
X149199885Y-81851500D01*
X149277127Y-81819505D01*
X149505935Y-81666620D01*
X149700520Y-81472035D01*
X149853405Y-81243227D01*
X149958714Y-80988990D01*
X150012400Y-80719092D01*
X150012400Y-80443908D01*
X149958714Y-80174010D01*
X149853405Y-79919773D01*
X149700520Y-79690965D01*
X149571056Y-79561501D01*
X160490600Y-79561501D01*
X164396876Y-83467778D01*
X164381144Y-83474295D01*
X164211626Y-83587563D01*
X164067463Y-83731726D01*
X163954195Y-83901244D01*
X163876174Y-84089602D01*
X163836400Y-84289561D01*
X163836400Y-84493439D01*
X163876174Y-84693398D01*
X163954195Y-84881756D01*
X164067463Y-85051274D01*
X164211626Y-85195437D01*
X164381144Y-85308705D01*
X164569502Y-85386726D01*
X164769461Y-85426500D01*
X164831599Y-85426500D01*
X166884400Y-87479302D01*
X166884400Y-87541439D01*
X166924174Y-87741398D01*
X167002195Y-87929756D01*
X167115463Y-88099274D01*
X167259626Y-88243437D01*
X167429144Y-88356705D01*
X167617502Y-88434726D01*
X167817461Y-88474500D01*
X168021339Y-88474500D01*
X168221298Y-88434726D01*
X168409656Y-88356705D01*
X168579174Y-88243437D01*
X168723337Y-88099274D01*
X168836605Y-87929756D01*
X168914626Y-87741398D01*
X168954400Y-87541439D01*
X168954400Y-87337561D01*
X168914626Y-87137602D01*
X168836605Y-86949244D01*
X168723337Y-86779726D01*
X168579174Y-86635563D01*
X168409656Y-86522295D01*
X168221298Y-86444274D01*
X168021339Y-86404500D01*
X167959202Y-86404500D01*
X167885923Y-86331222D01*
X167901656Y-86324705D01*
X168071174Y-86211437D01*
X168215337Y-86067274D01*
X168328605Y-85897756D01*
X168406626Y-85709398D01*
X168446400Y-85509439D01*
X168446400Y-85305561D01*
X168406626Y-85105602D01*
X168328605Y-84917244D01*
X168215337Y-84747726D01*
X168071174Y-84603563D01*
X167901656Y-84490295D01*
X167713298Y-84412274D01*
X167513339Y-84372500D01*
X167451203Y-84372500D01*
X161369205Y-78290504D01*
X161345402Y-78261500D01*
X161229677Y-78166527D01*
X161097648Y-78095955D01*
X160954387Y-78052498D01*
X160842734Y-78041501D01*
X160842723Y-78041501D01*
X160805401Y-78037825D01*
X160768079Y-78041501D01*
X149398902Y-78041501D01*
X149483772Y-77914484D01*
X149665669Y-77475346D01*
X149758400Y-77009160D01*
X149758400Y-76536447D01*
X168174400Y-76536447D01*
X168174400Y-76986553D01*
X168262211Y-77428010D01*
X168434459Y-77843853D01*
X168684525Y-78218103D01*
X169002797Y-78536375D01*
X169377047Y-78786441D01*
X169792890Y-78958689D01*
X170234347Y-79046500D01*
X170684453Y-79046500D01*
X171012236Y-78981300D01*
X173961528Y-78981300D01*
X173973788Y-79105782D01*
X174010098Y-79225480D01*
X174069063Y-79335794D01*
X174148415Y-79432485D01*
X174245106Y-79511837D01*
X174355420Y-79570802D01*
X174475118Y-79607112D01*
X174599600Y-79619372D01*
X175253650Y-79616300D01*
X175412400Y-79457550D01*
X175412400Y-78168500D01*
X174123350Y-78168500D01*
X173964600Y-78327250D01*
X173961528Y-78981300D01*
X171012236Y-78981300D01*
X171125910Y-78958689D01*
X171541753Y-78786441D01*
X171916003Y-78536375D01*
X172234275Y-78218103D01*
X172484341Y-77843853D01*
X172656589Y-77428010D01*
X172721495Y-77101700D01*
X173961528Y-77101700D01*
X173964600Y-77755750D01*
X174123350Y-77914500D01*
X175412400Y-77914500D01*
X175412400Y-77894500D01*
X175666400Y-77894500D01*
X175666400Y-77914500D01*
X175686400Y-77914500D01*
X175686400Y-78168500D01*
X175666400Y-78168500D01*
X175666400Y-79457550D01*
X175825150Y-79616300D01*
X176475594Y-79619355D01*
X176507232Y-79778412D01*
X176630482Y-80075963D01*
X176809413Y-80343752D01*
X177037148Y-80571487D01*
X177304937Y-80750418D01*
X177602488Y-80873668D01*
X177918367Y-80936500D01*
X178240433Y-80936500D01*
X178556312Y-80873668D01*
X178853863Y-80750418D01*
X179121652Y-80571487D01*
X179349387Y-80343752D01*
X179528318Y-80075963D01*
X179651568Y-79778412D01*
X179714400Y-79462533D01*
X179714400Y-79140467D01*
X179651568Y-78824588D01*
X179528318Y-78527037D01*
X179475214Y-78447561D01*
X179838400Y-78447561D01*
X179838400Y-78651439D01*
X179878174Y-78851398D01*
X179956195Y-79039756D01*
X180069463Y-79209274D01*
X180213626Y-79353437D01*
X180383144Y-79466705D01*
X180571502Y-79544726D01*
X180771461Y-79584500D01*
X180975339Y-79584500D01*
X181175298Y-79544726D01*
X181363656Y-79466705D01*
X181533174Y-79353437D01*
X181677337Y-79209274D01*
X181790605Y-79039756D01*
X181868626Y-78851398D01*
X181908400Y-78651439D01*
X181908400Y-78589301D01*
X184178404Y-76319298D01*
X184207401Y-76295501D01*
X184302374Y-76179776D01*
X184372946Y-76047747D01*
X184416403Y-75904486D01*
X184427400Y-75792833D01*
X184427400Y-75792825D01*
X184431076Y-75755500D01*
X184427400Y-75718175D01*
X184427400Y-69233275D01*
X184518413Y-69172462D01*
X184704362Y-68986513D01*
X184850461Y-68767859D01*
X184937400Y-68557970D01*
X185024339Y-68767859D01*
X185170438Y-68986513D01*
X185356387Y-69172462D01*
X185575041Y-69318561D01*
X185817995Y-69419196D01*
X186075914Y-69470500D01*
X186338886Y-69470500D01*
X186596805Y-69419196D01*
X186839759Y-69318561D01*
X187058413Y-69172462D01*
X187244362Y-68986513D01*
X187390461Y-68767859D01*
X187491096Y-68524905D01*
X187542400Y-68266986D01*
X187542400Y-68004014D01*
X187491096Y-67746095D01*
X187390461Y-67503141D01*
X187244362Y-67284487D01*
X187058413Y-67098538D01*
X186839759Y-66952439D01*
X186596805Y-66851804D01*
X186338886Y-66800500D01*
X186075914Y-66800500D01*
X185817995Y-66851804D01*
X185575041Y-66952439D01*
X185356387Y-67098538D01*
X185170438Y-67284487D01*
X185024339Y-67503141D01*
X184937400Y-67713030D01*
X184850461Y-67503141D01*
X184704362Y-67284487D01*
X184518413Y-67098538D01*
X184299759Y-66952439D01*
X184056805Y-66851804D01*
X183798886Y-66800500D01*
X183535914Y-66800500D01*
X183277995Y-66851804D01*
X183035041Y-66952439D01*
X182816387Y-67098538D01*
X182630438Y-67284487D01*
X182484339Y-67503141D01*
X182383704Y-67746095D01*
X182332400Y-68004014D01*
X182332400Y-68266986D01*
X182383704Y-68524905D01*
X182484339Y-68767859D01*
X182630438Y-68986513D01*
X182816387Y-69172462D01*
X182907401Y-69233275D01*
X182907400Y-75440698D01*
X180833599Y-77514500D01*
X180771461Y-77514500D01*
X180571502Y-77554274D01*
X180383144Y-77632295D01*
X180213626Y-77745563D01*
X180069463Y-77889726D01*
X179956195Y-78059244D01*
X179878174Y-78247602D01*
X179838400Y-78447561D01*
X179475214Y-78447561D01*
X179349387Y-78259248D01*
X179121652Y-78031513D01*
X178853863Y-77852582D01*
X178556312Y-77729332D01*
X178240433Y-77666500D01*
X177918367Y-77666500D01*
X177602488Y-77729332D01*
X177304937Y-77852582D01*
X177114200Y-77980028D01*
X177114200Y-77914498D01*
X176955452Y-77914498D01*
X177114200Y-77755750D01*
X177117272Y-77101700D01*
X177105012Y-76977218D01*
X177068702Y-76857520D01*
X177009737Y-76747206D01*
X176930385Y-76650515D01*
X176833694Y-76571163D01*
X176744511Y-76523493D01*
X176762627Y-76505377D01*
X176934970Y-76247448D01*
X177053682Y-75960852D01*
X177114200Y-75656604D01*
X177114200Y-75542972D01*
X177304937Y-75670418D01*
X177602488Y-75793668D01*
X177918367Y-75856500D01*
X178240433Y-75856500D01*
X178556312Y-75793668D01*
X178853863Y-75670418D01*
X179121652Y-75491487D01*
X179349387Y-75263752D01*
X179528318Y-74995963D01*
X179651568Y-74698412D01*
X179714400Y-74382533D01*
X179714400Y-74060467D01*
X179651568Y-73744588D01*
X179528318Y-73447037D01*
X179349387Y-73179248D01*
X179121652Y-72951513D01*
X178853863Y-72772582D01*
X178556312Y-72649332D01*
X178240433Y-72586500D01*
X177918367Y-72586500D01*
X177602488Y-72649332D01*
X177304937Y-72772582D01*
X177037148Y-72951513D01*
X176809413Y-73179248D01*
X176630482Y-73447037D01*
X176507232Y-73744588D01*
X176444400Y-74060467D01*
X176444400Y-74212205D01*
X176285348Y-74105930D01*
X175998752Y-73987218D01*
X175694504Y-73926700D01*
X175384296Y-73926700D01*
X175080048Y-73987218D01*
X174793452Y-74105930D01*
X174535523Y-74278273D01*
X174316173Y-74497623D01*
X174143830Y-74755552D01*
X174025118Y-75042148D01*
X173964600Y-75346396D01*
X173964600Y-75656604D01*
X174025118Y-75960852D01*
X174143830Y-76247448D01*
X174316173Y-76505377D01*
X174334289Y-76523493D01*
X174245106Y-76571163D01*
X174148415Y-76650515D01*
X174069063Y-76747206D01*
X174010098Y-76857520D01*
X173973788Y-76977218D01*
X173961528Y-77101700D01*
X172721495Y-77101700D01*
X172744400Y-76986553D01*
X172744400Y-76536447D01*
X172656589Y-76094990D01*
X172484341Y-75679147D01*
X172234275Y-75304897D01*
X171916003Y-74986625D01*
X171541753Y-74736559D01*
X171125910Y-74564311D01*
X170684453Y-74476500D01*
X170234347Y-74476500D01*
X169792890Y-74564311D01*
X169377047Y-74736559D01*
X169002797Y-74986625D01*
X168684525Y-75304897D01*
X168434459Y-75679147D01*
X168262211Y-76094990D01*
X168174400Y-76536447D01*
X149758400Y-76536447D01*
X149758400Y-76533840D01*
X149665669Y-76067654D01*
X149483772Y-75628516D01*
X149219699Y-75233302D01*
X148883598Y-74897201D01*
X148488384Y-74633128D01*
X148049246Y-74451231D01*
X147583060Y-74358500D01*
X147107740Y-74358500D01*
X146641554Y-74451231D01*
X146202416Y-74633128D01*
X145807202Y-74897201D01*
X145471101Y-75233302D01*
X145207028Y-75628516D01*
X145025131Y-76067654D01*
X144932400Y-76533840D01*
X144932400Y-77009160D01*
X145025131Y-77475346D01*
X145207028Y-77914484D01*
X145291898Y-78041501D01*
X143016153Y-78041501D01*
X143046400Y-77889439D01*
X143046400Y-77685561D01*
X143006626Y-77485602D01*
X142928605Y-77297244D01*
X142815337Y-77127726D01*
X142671174Y-76983563D01*
X142501656Y-76870295D01*
X142313298Y-76792274D01*
X142113339Y-76752500D01*
X141909461Y-76752500D01*
X141709502Y-76792274D01*
X141521144Y-76870295D01*
X141351626Y-76983563D01*
X141307689Y-77027500D01*
X135214202Y-77027500D01*
X130702580Y-72515879D01*
X130733174Y-72495437D01*
X130877337Y-72351274D01*
X130990605Y-72181756D01*
X131068626Y-71993398D01*
X131108400Y-71793439D01*
X131108400Y-71731301D01*
X132870403Y-69969299D01*
X132899401Y-69945501D01*
X132994374Y-69829776D01*
X133064946Y-69697747D01*
X133108403Y-69554486D01*
X133119400Y-69442833D01*
X133119400Y-69442824D01*
X133123076Y-69405501D01*
X133122293Y-69397554D01*
X133298510Y-69279809D01*
X133326960Y-69251359D01*
X133812304Y-69736704D01*
X133836102Y-69765702D01*
X133951827Y-69860675D01*
X134083856Y-69931247D01*
X134227117Y-69974704D01*
X134338770Y-69985701D01*
X134338778Y-69985701D01*
X134376103Y-69989377D01*
X134413428Y-69985701D01*
X136311877Y-69985701D01*
X136349199Y-69989377D01*
X136386521Y-69985701D01*
X136386532Y-69985701D01*
X136498185Y-69974704D01*
X136641446Y-69931247D01*
X136773475Y-69860675D01*
X136889200Y-69765702D01*
X136913003Y-69736699D01*
X137083026Y-69566675D01*
X137294302Y-69608700D01*
X137584498Y-69608700D01*
X137869117Y-69552086D01*
X138137222Y-69441033D01*
X138378510Y-69279809D01*
X138502844Y-69155475D01*
X139139030Y-69155475D01*
X139215238Y-69403344D01*
X139477265Y-69528063D01*
X139758589Y-69599268D01*
X140048399Y-69614219D01*
X140335557Y-69572345D01*
X140609028Y-69475254D01*
X140743562Y-69403344D01*
X140819770Y-69155475D01*
X139979400Y-68315105D01*
X139139030Y-69155475D01*
X138502844Y-69155475D01*
X138583709Y-69074610D01*
X138706689Y-68890557D01*
X138711556Y-68899662D01*
X138959425Y-68975870D01*
X139799795Y-68135500D01*
X140159005Y-68135500D01*
X140999375Y-68975870D01*
X141247244Y-68899662D01*
X141371963Y-68637635D01*
X141443168Y-68356311D01*
X141458119Y-68066501D01*
X141416245Y-67779343D01*
X141319154Y-67505872D01*
X141247244Y-67371338D01*
X140999375Y-67295130D01*
X140159005Y-68135500D01*
X139799795Y-68135500D01*
X138959425Y-67295130D01*
X138711556Y-67371338D01*
X138707001Y-67380908D01*
X138583709Y-67196390D01*
X138502844Y-67115525D01*
X139139030Y-67115525D01*
X139979400Y-67955895D01*
X140819770Y-67115525D01*
X140743562Y-66867656D01*
X140481535Y-66742937D01*
X140200211Y-66671732D01*
X139910401Y-66656781D01*
X139623243Y-66698655D01*
X139349772Y-66795746D01*
X139215238Y-66867656D01*
X139139030Y-67115525D01*
X138502844Y-67115525D01*
X138378510Y-66991191D01*
X138137222Y-66829967D01*
X137869117Y-66718914D01*
X137584498Y-66662300D01*
X137294302Y-66662300D01*
X137009683Y-66718914D01*
X136741578Y-66829967D01*
X136500290Y-66991191D01*
X136295091Y-67196390D01*
X136169400Y-67384499D01*
X136043709Y-67196390D01*
X135838510Y-66991191D01*
X135597222Y-66829967D01*
X135329117Y-66718914D01*
X135044498Y-66662300D01*
X134754302Y-66662300D01*
X134469683Y-66718914D01*
X134201578Y-66829967D01*
X133960290Y-66991191D01*
X133931840Y-67019641D01*
X130828174Y-63915975D01*
X147402400Y-63915975D01*
X147402400Y-64435025D01*
X147503661Y-64944101D01*
X147702293Y-65423641D01*
X147990662Y-65855215D01*
X148357685Y-66222238D01*
X148789259Y-66510607D01*
X149268799Y-66709239D01*
X149777875Y-66810500D01*
X150296925Y-66810500D01*
X150806001Y-66709239D01*
X151285541Y-66510607D01*
X151717115Y-66222238D01*
X152084138Y-65855215D01*
X152372507Y-65423641D01*
X152571139Y-64944101D01*
X152600697Y-64795500D01*
X155559328Y-64795500D01*
X155559328Y-66395500D01*
X155571588Y-66519982D01*
X155607898Y-66639680D01*
X155666863Y-66749994D01*
X155746215Y-66846685D01*
X155842906Y-66926037D01*
X155953220Y-66985002D01*
X156072918Y-67021312D01*
X156197400Y-67033572D01*
X157797400Y-67033572D01*
X157921882Y-67021312D01*
X158041580Y-66985002D01*
X158151894Y-66926037D01*
X158248585Y-66846685D01*
X158327937Y-66749994D01*
X158386902Y-66639680D01*
X158423212Y-66519982D01*
X158435472Y-66395500D01*
X158435472Y-66129775D01*
X158495720Y-66275227D01*
X158652763Y-66510259D01*
X158852641Y-66710137D01*
X159087673Y-66867180D01*
X159348826Y-66975353D01*
X159626065Y-67030500D01*
X159908735Y-67030500D01*
X160185974Y-66975353D01*
X160447127Y-66867180D01*
X160682159Y-66710137D01*
X160882037Y-66510259D01*
X161039080Y-66275227D01*
X161147253Y-66014074D01*
X161152400Y-65988199D01*
X161157547Y-66014074D01*
X161265720Y-66275227D01*
X161422763Y-66510259D01*
X161622641Y-66710137D01*
X161857673Y-66867180D01*
X162118826Y-66975353D01*
X162396065Y-67030500D01*
X162678735Y-67030500D01*
X162955974Y-66975353D01*
X163217127Y-66867180D01*
X163452159Y-66710137D01*
X163652037Y-66510259D01*
X163809080Y-66275227D01*
X163917253Y-66014074D01*
X163922400Y-65988199D01*
X163927547Y-66014074D01*
X164035720Y-66275227D01*
X164192763Y-66510259D01*
X164392641Y-66710137D01*
X164627673Y-66867180D01*
X164888826Y-66975353D01*
X165166065Y-67030500D01*
X165448735Y-67030500D01*
X165725974Y-66975353D01*
X165987127Y-66867180D01*
X166222159Y-66710137D01*
X166422037Y-66510259D01*
X166579080Y-66275227D01*
X166687253Y-66014074D01*
X166692400Y-65988199D01*
X166697547Y-66014074D01*
X166805720Y-66275227D01*
X166962763Y-66510259D01*
X167162641Y-66710137D01*
X167397673Y-66867180D01*
X167658826Y-66975353D01*
X167936065Y-67030500D01*
X168218735Y-67030500D01*
X168495974Y-66975353D01*
X168757127Y-66867180D01*
X168992159Y-66710137D01*
X169192037Y-66510259D01*
X169349080Y-66275227D01*
X169457253Y-66014074D01*
X169512400Y-65736835D01*
X169512400Y-65454165D01*
X169457253Y-65176926D01*
X169349080Y-64915773D01*
X169192037Y-64680741D01*
X168992159Y-64480863D01*
X168757127Y-64323820D01*
X168495974Y-64215647D01*
X168218735Y-64160500D01*
X167936065Y-64160500D01*
X167658826Y-64215647D01*
X167397673Y-64323820D01*
X167162641Y-64480863D01*
X166962763Y-64680741D01*
X166805720Y-64915773D01*
X166697547Y-65176926D01*
X166692400Y-65202801D01*
X166687253Y-65176926D01*
X166579080Y-64915773D01*
X166422037Y-64680741D01*
X166222159Y-64480863D01*
X165987127Y-64323820D01*
X165725974Y-64215647D01*
X165448735Y-64160500D01*
X165166065Y-64160500D01*
X164888826Y-64215647D01*
X164627673Y-64323820D01*
X164392641Y-64480863D01*
X164192763Y-64680741D01*
X164035720Y-64915773D01*
X163927547Y-65176926D01*
X163922400Y-65202801D01*
X163917253Y-65176926D01*
X163809080Y-64915773D01*
X163652037Y-64680741D01*
X163452159Y-64480863D01*
X163217127Y-64323820D01*
X162955974Y-64215647D01*
X162678735Y-64160500D01*
X162396065Y-64160500D01*
X162118826Y-64215647D01*
X161857673Y-64323820D01*
X161622641Y-64480863D01*
X161422763Y-64680741D01*
X161265720Y-64915773D01*
X161157547Y-65176926D01*
X161152400Y-65202801D01*
X161147253Y-65176926D01*
X161039080Y-64915773D01*
X160882037Y-64680741D01*
X160682159Y-64480863D01*
X160447127Y-64323820D01*
X160185974Y-64215647D01*
X159908735Y-64160500D01*
X159626065Y-64160500D01*
X159348826Y-64215647D01*
X159087673Y-64323820D01*
X158852641Y-64480863D01*
X158652763Y-64680741D01*
X158495720Y-64915773D01*
X158435472Y-65061225D01*
X158435472Y-64795500D01*
X158423212Y-64671018D01*
X158386902Y-64551320D01*
X158327937Y-64441006D01*
X158248585Y-64344315D01*
X158151894Y-64264963D01*
X158041580Y-64205998D01*
X157921882Y-64169688D01*
X157797400Y-64157428D01*
X156197400Y-64157428D01*
X156072918Y-64169688D01*
X155953220Y-64205998D01*
X155842906Y-64264963D01*
X155746215Y-64344315D01*
X155666863Y-64441006D01*
X155607898Y-64551320D01*
X155571588Y-64671018D01*
X155559328Y-64795500D01*
X152600697Y-64795500D01*
X152672400Y-64435025D01*
X152672400Y-63915975D01*
X152571139Y-63406899D01*
X152372507Y-62927359D01*
X152163238Y-62614165D01*
X156947400Y-62614165D01*
X156947400Y-62896835D01*
X157002547Y-63174074D01*
X157110720Y-63435227D01*
X157267763Y-63670259D01*
X157467641Y-63870137D01*
X157702673Y-64027180D01*
X157963826Y-64135353D01*
X158241065Y-64190500D01*
X158523735Y-64190500D01*
X158800974Y-64135353D01*
X159062127Y-64027180D01*
X159297159Y-63870137D01*
X159497037Y-63670259D01*
X159654080Y-63435227D01*
X159762253Y-63174074D01*
X159767400Y-63148199D01*
X159772547Y-63174074D01*
X159880720Y-63435227D01*
X160037763Y-63670259D01*
X160237641Y-63870137D01*
X160472673Y-64027180D01*
X160733826Y-64135353D01*
X161011065Y-64190500D01*
X161293735Y-64190500D01*
X161570974Y-64135353D01*
X161832127Y-64027180D01*
X162067159Y-63870137D01*
X162267037Y-63670259D01*
X162424080Y-63435227D01*
X162532253Y-63174074D01*
X162537400Y-63148199D01*
X162542547Y-63174074D01*
X162650720Y-63435227D01*
X162807763Y-63670259D01*
X163007641Y-63870137D01*
X163242673Y-64027180D01*
X163503826Y-64135353D01*
X163781065Y-64190500D01*
X164063735Y-64190500D01*
X164340974Y-64135353D01*
X164602127Y-64027180D01*
X164837159Y-63870137D01*
X165037037Y-63670259D01*
X165194080Y-63435227D01*
X165302253Y-63174074D01*
X165307400Y-63148199D01*
X165312547Y-63174074D01*
X165420720Y-63435227D01*
X165577763Y-63670259D01*
X165777641Y-63870137D01*
X166012673Y-64027180D01*
X166273826Y-64135353D01*
X166551065Y-64190500D01*
X166833735Y-64190500D01*
X167110974Y-64135353D01*
X167372127Y-64027180D01*
X167538557Y-63915975D01*
X172402400Y-63915975D01*
X172402400Y-64435025D01*
X172503661Y-64944101D01*
X172702293Y-65423641D01*
X172990662Y-65855215D01*
X173357685Y-66222238D01*
X173789259Y-66510607D01*
X174268799Y-66709239D01*
X174777875Y-66810500D01*
X175296925Y-66810500D01*
X175806001Y-66709239D01*
X176285541Y-66510607D01*
X176717115Y-66222238D01*
X177084138Y-65855215D01*
X177372507Y-65423641D01*
X177571139Y-64944101D01*
X177672400Y-64435025D01*
X177672400Y-63915975D01*
X177571139Y-63406899D01*
X177372507Y-62927359D01*
X177084138Y-62495785D01*
X176717115Y-62128762D01*
X176285541Y-61840393D01*
X175806001Y-61641761D01*
X175296925Y-61540500D01*
X174777875Y-61540500D01*
X174268799Y-61641761D01*
X173789259Y-61840393D01*
X173357685Y-62128762D01*
X172990662Y-62495785D01*
X172702293Y-62927359D01*
X172503661Y-63406899D01*
X172402400Y-63915975D01*
X167538557Y-63915975D01*
X167607159Y-63870137D01*
X167807037Y-63670259D01*
X167964080Y-63435227D01*
X168072253Y-63174074D01*
X168127400Y-62896835D01*
X168127400Y-62614165D01*
X168072253Y-62336926D01*
X167964080Y-62075773D01*
X167807037Y-61840741D01*
X167607159Y-61640863D01*
X167372127Y-61483820D01*
X167110974Y-61375647D01*
X166833735Y-61320500D01*
X166551065Y-61320500D01*
X166273826Y-61375647D01*
X166012673Y-61483820D01*
X165777641Y-61640863D01*
X165577763Y-61840741D01*
X165420720Y-62075773D01*
X165312547Y-62336926D01*
X165307400Y-62362801D01*
X165302253Y-62336926D01*
X165194080Y-62075773D01*
X165037037Y-61840741D01*
X164837159Y-61640863D01*
X164602127Y-61483820D01*
X164340974Y-61375647D01*
X164063735Y-61320500D01*
X163781065Y-61320500D01*
X163503826Y-61375647D01*
X163242673Y-61483820D01*
X163007641Y-61640863D01*
X162807763Y-61840741D01*
X162650720Y-62075773D01*
X162542547Y-62336926D01*
X162537400Y-62362801D01*
X162532253Y-62336926D01*
X162424080Y-62075773D01*
X162267037Y-61840741D01*
X162067159Y-61640863D01*
X161832127Y-61483820D01*
X161570974Y-61375647D01*
X161293735Y-61320500D01*
X161011065Y-61320500D01*
X160733826Y-61375647D01*
X160472673Y-61483820D01*
X160237641Y-61640863D01*
X160037763Y-61840741D01*
X159880720Y-62075773D01*
X159772547Y-62336926D01*
X159767400Y-62362801D01*
X159762253Y-62336926D01*
X159654080Y-62075773D01*
X159497037Y-61840741D01*
X159297159Y-61640863D01*
X159062127Y-61483820D01*
X158800974Y-61375647D01*
X158523735Y-61320500D01*
X158241065Y-61320500D01*
X157963826Y-61375647D01*
X157702673Y-61483820D01*
X157467641Y-61640863D01*
X157267763Y-61840741D01*
X157110720Y-62075773D01*
X157002547Y-62336926D01*
X156947400Y-62614165D01*
X152163238Y-62614165D01*
X152084138Y-62495785D01*
X151717115Y-62128762D01*
X151285541Y-61840393D01*
X150806001Y-61641761D01*
X150296925Y-61540500D01*
X149777875Y-61540500D01*
X149268799Y-61641761D01*
X148789259Y-61840393D01*
X148357685Y-62128762D01*
X147990662Y-62495785D01*
X147702293Y-62927359D01*
X147503661Y-63406899D01*
X147402400Y-63915975D01*
X130828174Y-63915975D01*
X130386701Y-63474502D01*
X130362898Y-63445498D01*
X130247173Y-63350525D01*
X130115144Y-63279953D01*
X129971883Y-63236496D01*
X129860230Y-63225499D01*
X129860219Y-63225499D01*
X129822897Y-63221823D01*
X129785575Y-63225499D01*
X115718723Y-63225499D01*
X115681400Y-63221823D01*
X115644077Y-63225499D01*
X115644068Y-63225499D01*
X115532415Y-63236496D01*
X115389154Y-63279953D01*
X115257125Y-63350525D01*
X115141400Y-63445498D01*
X115117602Y-63474496D01*
X113524400Y-65067698D01*
X113524400Y-64941240D01*
X113467332Y-64654342D01*
X113355390Y-64384089D01*
X113192875Y-64140868D01*
X112986032Y-63934025D01*
X112742811Y-63771510D01*
X112472558Y-63659568D01*
X112185660Y-63602500D01*
X111893140Y-63602500D01*
X111606242Y-63659568D01*
X111335989Y-63771510D01*
X111092768Y-63934025D01*
X110885925Y-64140868D01*
X110769400Y-64315260D01*
X110652875Y-64140868D01*
X110446032Y-63934025D01*
X110202811Y-63771510D01*
X109932558Y-63659568D01*
X109645660Y-63602500D01*
X109353140Y-63602500D01*
X109066242Y-63659568D01*
X108795989Y-63771510D01*
X108552768Y-63934025D01*
X108345925Y-64140868D01*
X108183410Y-64384089D01*
X108071468Y-64654342D01*
X108014400Y-64941240D01*
X108014400Y-65233760D01*
X108071468Y-65520658D01*
X108183410Y-65790911D01*
X108345925Y-66034132D01*
X108477780Y-66165987D01*
X108405220Y-66187998D01*
X108294906Y-66246963D01*
X108198215Y-66326315D01*
X108118863Y-66423006D01*
X108059898Y-66533320D01*
X108023588Y-66653018D01*
X108011328Y-66777500D01*
X108011328Y-68477500D01*
X108023588Y-68601982D01*
X108059898Y-68721680D01*
X108118863Y-68831994D01*
X108198215Y-68928685D01*
X108294906Y-69008037D01*
X108405220Y-69067002D01*
X108524918Y-69103312D01*
X108649400Y-69115572D01*
X109912671Y-69115572D01*
X117063600Y-76266502D01*
X117087399Y-76295501D01*
X117203124Y-76390474D01*
X117335153Y-76461046D01*
X117478414Y-76504503D01*
X117590067Y-76515500D01*
X117590077Y-76515500D01*
X117627400Y-76519176D01*
X117664723Y-76515500D01*
X120847689Y-76515500D01*
X120743463Y-76619726D01*
X120630195Y-76789244D01*
X120552174Y-76977602D01*
X120512400Y-77177561D01*
X120512400Y-77381439D01*
X120552174Y-77581398D01*
X120630195Y-77769756D01*
X120642051Y-77787500D01*
X120630195Y-77805244D01*
X120552174Y-77993602D01*
X120512400Y-78193561D01*
X120512400Y-78397439D01*
X120552174Y-78597398D01*
X120630195Y-78785756D01*
X120743463Y-78955274D01*
X120787400Y-78999211D01*
X120787401Y-87945480D01*
X120774195Y-87965244D01*
X120696174Y-88153602D01*
X120656400Y-88353561D01*
X120656400Y-88557439D01*
X120696174Y-88757398D01*
X120774195Y-88945756D01*
X120887463Y-89115274D01*
X121031626Y-89259437D01*
X121201144Y-89372705D01*
X121389502Y-89450726D01*
X121589461Y-89490500D01*
X121793339Y-89490500D01*
X121839400Y-89481338D01*
X121839399Y-93072341D01*
X121709144Y-93126295D01*
X121539626Y-93239563D01*
X121395463Y-93383726D01*
X121282195Y-93553244D01*
X121204174Y-93741602D01*
X121164400Y-93941561D01*
X121164400Y-94145439D01*
X121204174Y-94345398D01*
X121282195Y-94533756D01*
X121395463Y-94703274D01*
X121539626Y-94847437D01*
X121709144Y-94960705D01*
X121897502Y-95038726D01*
X122097461Y-95078500D01*
X122301339Y-95078500D01*
X122501298Y-95038726D01*
X122689656Y-94960705D01*
X122859174Y-94847437D01*
X123003337Y-94703274D01*
X123116605Y-94533756D01*
X123194626Y-94345398D01*
X123234400Y-94145439D01*
X123234400Y-94067726D01*
X123304928Y-93935780D01*
X123311468Y-93968658D01*
X123423410Y-94238911D01*
X123585925Y-94482132D01*
X123792768Y-94688975D01*
X123967160Y-94805500D01*
X123792768Y-94922025D01*
X123585925Y-95128868D01*
X123423410Y-95372089D01*
X123311468Y-95642342D01*
X123254400Y-95929240D01*
X123254400Y-96221760D01*
X123311468Y-96508658D01*
X123423410Y-96778911D01*
X123585925Y-97022132D01*
X123792768Y-97228975D01*
X123967160Y-97345500D01*
X123792768Y-97462025D01*
X123585925Y-97668868D01*
X123423410Y-97912089D01*
X123311468Y-98182342D01*
X123254400Y-98469240D01*
X123254400Y-98761760D01*
X123311468Y-99048658D01*
X123423410Y-99318911D01*
X123585925Y-99562132D01*
X123792768Y-99768975D01*
X123967160Y-99885500D01*
X123792768Y-100002025D01*
X123585925Y-100208868D01*
X123423410Y-100452089D01*
X123311468Y-100722342D01*
X123254400Y-101009240D01*
X123254400Y-101301760D01*
X123311468Y-101588658D01*
X123423410Y-101858911D01*
X123585925Y-102102132D01*
X123786293Y-102302500D01*
X115927472Y-102302500D01*
X115927472Y-102287500D01*
X115915212Y-102163018D01*
X115878902Y-102043320D01*
X115819937Y-101933006D01*
X115740585Y-101836315D01*
X115643894Y-101756963D01*
X115533580Y-101697998D01*
X115413882Y-101661688D01*
X115289400Y-101649428D01*
X112789400Y-101649428D01*
X112664918Y-101661688D01*
X112545220Y-101697998D01*
X112434906Y-101756963D01*
X112338215Y-101836315D01*
X112258863Y-101933006D01*
X112199898Y-102043320D01*
X112163588Y-102163018D01*
X112151328Y-102287500D01*
X112151328Y-104087500D01*
X112163588Y-104211982D01*
X112199898Y-104331680D01*
X112258863Y-104441994D01*
X112338215Y-104538685D01*
X112434906Y-104618037D01*
X112545220Y-104677002D01*
X112664918Y-104713312D01*
X112789400Y-104725572D01*
X115289400Y-104725572D01*
X115413882Y-104713312D01*
X115533580Y-104677002D01*
X115643894Y-104618037D01*
X115740585Y-104538685D01*
X115819937Y-104441994D01*
X115878902Y-104331680D01*
X115915212Y-104211982D01*
X115927472Y-104087500D01*
X115927472Y-104072500D01*
X123110821Y-104072500D01*
X119070352Y-108112970D01*
X119036584Y-108140683D01*
X119008871Y-108174451D01*
X119008868Y-108174454D01*
X118925990Y-108275441D01*
X118843812Y-108429187D01*
X118793205Y-108596010D01*
X118776119Y-108769500D01*
X118780401Y-108812979D01*
X118780400Y-112925428D01*
X118165400Y-112925428D01*
X117992146Y-112942492D01*
X117825550Y-112993028D01*
X117672014Y-113075095D01*
X117537438Y-113185538D01*
X117426995Y-113320114D01*
X117344928Y-113473650D01*
X117294392Y-113640246D01*
X117277328Y-113813500D01*
X117277328Y-114913500D01*
X117294392Y-115086754D01*
X117344928Y-115253350D01*
X117426995Y-115406886D01*
X117537438Y-115541462D01*
X117672014Y-115651905D01*
X117825550Y-115733972D01*
X117992146Y-115784508D01*
X118165400Y-115801572D01*
X121165400Y-115801572D01*
X121338654Y-115784508D01*
X121505250Y-115733972D01*
X121658786Y-115651905D01*
X121793362Y-115541462D01*
X121903805Y-115406886D01*
X121985872Y-115253350D01*
X122036408Y-115086754D01*
X122053472Y-114913500D01*
X122053472Y-113813500D01*
X122036408Y-113640246D01*
X121985872Y-113473650D01*
X121903805Y-113320114D01*
X121793362Y-113185538D01*
X121658786Y-113075095D01*
X121505250Y-112993028D01*
X121338654Y-112942492D01*
X121165400Y-112925428D01*
X120550400Y-112925428D01*
X120550400Y-109136078D01*
X123262748Y-106423730D01*
X123311468Y-106668658D01*
X123423410Y-106938911D01*
X123585925Y-107182132D01*
X123717780Y-107313987D01*
X123645220Y-107335998D01*
X123534906Y-107394963D01*
X123438215Y-107474315D01*
X123358863Y-107571006D01*
X123299898Y-107681320D01*
X123263588Y-107801018D01*
X123251328Y-107925500D01*
X123251328Y-109625500D01*
X123263588Y-109749982D01*
X123299898Y-109869680D01*
X123358863Y-109979994D01*
X123438215Y-110076685D01*
X123534906Y-110156037D01*
X123645220Y-110215002D01*
X123764918Y-110251312D01*
X123889400Y-110263572D01*
X125589400Y-110263572D01*
X125713882Y-110251312D01*
X125833580Y-110215002D01*
X125943894Y-110156037D01*
X126040585Y-110076685D01*
X126119937Y-109979994D01*
X126178902Y-109869680D01*
X126215212Y-109749982D01*
X126227472Y-109625500D01*
X126227472Y-109535500D01*
X127333745Y-109535500D01*
X127404865Y-109606620D01*
X127633673Y-109759505D01*
X127887910Y-109864814D01*
X128157808Y-109918500D01*
X128432992Y-109918500D01*
X128702890Y-109864814D01*
X128957127Y-109759505D01*
X129185935Y-109606620D01*
X129380520Y-109412035D01*
X129533405Y-109183227D01*
X129638714Y-108928990D01*
X129692400Y-108659092D01*
X129692400Y-108383908D01*
X129638714Y-108114010D01*
X129533405Y-107859773D01*
X129380520Y-107630965D01*
X129185935Y-107436380D01*
X128957127Y-107283495D01*
X128879885Y-107251500D01*
X128957127Y-107219505D01*
X129185935Y-107066620D01*
X129380520Y-106872035D01*
X129533405Y-106643227D01*
X129638714Y-106388990D01*
X129692400Y-106119092D01*
X129692400Y-105843908D01*
X129638714Y-105574010D01*
X129596253Y-105471500D01*
X130180078Y-105471500D01*
X130217400Y-105475176D01*
X130254722Y-105471500D01*
X130254733Y-105471500D01*
X130336644Y-105463432D01*
X130348174Y-105521398D01*
X130426195Y-105709756D01*
X130539463Y-105879274D01*
X130583401Y-105923212D01*
X130583400Y-113767140D01*
X130579724Y-113804462D01*
X130583400Y-113841784D01*
X130583400Y-113841794D01*
X130594397Y-113953447D01*
X130633316Y-114081747D01*
X130637854Y-114096708D01*
X130708426Y-114228738D01*
X130709536Y-114230090D01*
X130803399Y-114344463D01*
X130832403Y-114368266D01*
X140779136Y-124315000D01*
X131154397Y-124315000D01*
X131439699Y-124029698D01*
X131703772Y-123634484D01*
X131885669Y-123195346D01*
X131978400Y-122729160D01*
X131978400Y-122253840D01*
X131885669Y-121787654D01*
X131703772Y-121348516D01*
X131439699Y-120953302D01*
X131103598Y-120617201D01*
X130708384Y-120353128D01*
X130269246Y-120171231D01*
X129803060Y-120078500D01*
X129327740Y-120078500D01*
X128861554Y-120171231D01*
X128422416Y-120353128D01*
X128027202Y-120617201D01*
X127691101Y-120953302D01*
X127427028Y-121348516D01*
X127245131Y-121787654D01*
X127152400Y-122253840D01*
X127152400Y-122729160D01*
X127245131Y-123195346D01*
X127427028Y-123634484D01*
X127691101Y-124029698D01*
X127976403Y-124315000D01*
X97770502Y-124315000D01*
X98268272Y-123982401D01*
X98982401Y-123268272D01*
X99543488Y-122428545D01*
X99929972Y-121495491D01*
X100127000Y-120504965D01*
X100127000Y-120234523D01*
X100306400Y-120234523D01*
X100306400Y-120694477D01*
X100396133Y-121145594D01*
X100572150Y-121570537D01*
X100827687Y-121952976D01*
X101152924Y-122278213D01*
X101535363Y-122533750D01*
X101960306Y-122709767D01*
X102411423Y-122799500D01*
X102871377Y-122799500D01*
X103322494Y-122709767D01*
X103747437Y-122533750D01*
X104129876Y-122278213D01*
X104455113Y-121952976D01*
X104710650Y-121570537D01*
X104886667Y-121145594D01*
X104976400Y-120694477D01*
X104976400Y-120234523D01*
X105386400Y-120234523D01*
X105386400Y-120694477D01*
X105476133Y-121145594D01*
X105652150Y-121570537D01*
X105907687Y-121952976D01*
X106232924Y-122278213D01*
X106615363Y-122533750D01*
X107040306Y-122709767D01*
X107491423Y-122799500D01*
X107951377Y-122799500D01*
X108402494Y-122709767D01*
X108827437Y-122533750D01*
X109209876Y-122278213D01*
X109535113Y-121952976D01*
X109790650Y-121570537D01*
X109884478Y-121344014D01*
X119848400Y-121344014D01*
X119848400Y-121606986D01*
X119899704Y-121864905D01*
X120000339Y-122107859D01*
X120146438Y-122326513D01*
X120332387Y-122512462D01*
X120551041Y-122658561D01*
X120793995Y-122759196D01*
X121051914Y-122810500D01*
X121314886Y-122810500D01*
X121572805Y-122759196D01*
X121815759Y-122658561D01*
X122034413Y-122512462D01*
X122150106Y-122396769D01*
X122981736Y-122396769D01*
X123041197Y-122630537D01*
X123279642Y-122741434D01*
X123535140Y-122803683D01*
X123797873Y-122814890D01*
X124057744Y-122774625D01*
X124304766Y-122684435D01*
X124405603Y-122630537D01*
X124465064Y-122396769D01*
X123723400Y-121655105D01*
X122981736Y-122396769D01*
X122150106Y-122396769D01*
X122220362Y-122326513D01*
X122366461Y-122107859D01*
X122455021Y-121894056D01*
X122514465Y-122056866D01*
X122568363Y-122157703D01*
X122802131Y-122217164D01*
X123543795Y-121475500D01*
X123903005Y-121475500D01*
X124644669Y-122217164D01*
X124878437Y-122157703D01*
X124989334Y-121919258D01*
X125051583Y-121663760D01*
X125062790Y-121401027D01*
X125022525Y-121141156D01*
X124932335Y-120894134D01*
X124878437Y-120793297D01*
X124644669Y-120733836D01*
X123903005Y-121475500D01*
X123543795Y-121475500D01*
X122802131Y-120733836D01*
X122568363Y-120793297D01*
X122457466Y-121031742D01*
X122452694Y-121051327D01*
X122366461Y-120843141D01*
X122220362Y-120624487D01*
X122150106Y-120554231D01*
X122981736Y-120554231D01*
X123723400Y-121295895D01*
X124465064Y-120554231D01*
X124405603Y-120320463D01*
X124167158Y-120209566D01*
X123911660Y-120147317D01*
X123648927Y-120136110D01*
X123389056Y-120176375D01*
X123142034Y-120266565D01*
X123041197Y-120320463D01*
X122981736Y-120554231D01*
X122150106Y-120554231D01*
X122034413Y-120438538D01*
X121815759Y-120292439D01*
X121572805Y-120191804D01*
X121314886Y-120140500D01*
X121051914Y-120140500D01*
X120793995Y-120191804D01*
X120551041Y-120292439D01*
X120332387Y-120438538D01*
X120146438Y-120624487D01*
X120000339Y-120843141D01*
X119899704Y-121086095D01*
X119848400Y-121344014D01*
X109884478Y-121344014D01*
X109966667Y-121145594D01*
X110056400Y-120694477D01*
X110056400Y-120234523D01*
X109966667Y-119783406D01*
X109790650Y-119358463D01*
X109535113Y-118976024D01*
X109209876Y-118650787D01*
X108827437Y-118395250D01*
X108402494Y-118219233D01*
X107951377Y-118129500D01*
X107491423Y-118129500D01*
X107040306Y-118219233D01*
X106615363Y-118395250D01*
X106232924Y-118650787D01*
X105907687Y-118976024D01*
X105652150Y-119358463D01*
X105476133Y-119783406D01*
X105386400Y-120234523D01*
X104976400Y-120234523D01*
X104886667Y-119783406D01*
X104710650Y-119358463D01*
X104455113Y-118976024D01*
X104129876Y-118650787D01*
X103747437Y-118395250D01*
X103322494Y-118219233D01*
X102871377Y-118129500D01*
X102411423Y-118129500D01*
X101960306Y-118219233D01*
X101535363Y-118395250D01*
X101152924Y-118650787D01*
X100827687Y-118976024D01*
X100572150Y-119358463D01*
X100396133Y-119783406D01*
X100306400Y-120234523D01*
X100127000Y-120234523D01*
X100127000Y-119495035D01*
X99929972Y-118504509D01*
X99543488Y-117571455D01*
X98982401Y-116731728D01*
X98268272Y-116017599D01*
X97428545Y-115456512D01*
X96495491Y-115070028D01*
X95504965Y-114873000D01*
X94495035Y-114873000D01*
X93504509Y-115070028D01*
X92571455Y-115456512D01*
X91731728Y-116017599D01*
X91017599Y-116731728D01*
X90685000Y-117229498D01*
X90685000Y-103060500D01*
X91106728Y-103060500D01*
X91106728Y-106870500D01*
X91118988Y-106994982D01*
X91155298Y-107114680D01*
X91214263Y-107224994D01*
X91293615Y-107321685D01*
X91390306Y-107401037D01*
X91500620Y-107460002D01*
X91620318Y-107496312D01*
X91744800Y-107508572D01*
X95157194Y-107508572D01*
X100068170Y-112419549D01*
X100095883Y-112453317D01*
X100129651Y-112481030D01*
X100129653Y-112481032D01*
X100181401Y-112523501D01*
X96598363Y-112523501D01*
X96610400Y-112462986D01*
X96610400Y-112200014D01*
X96559096Y-111942095D01*
X96458461Y-111699141D01*
X96312362Y-111480487D01*
X96126413Y-111294538D01*
X95907759Y-111148439D01*
X95664805Y-111047804D01*
X95406886Y-110996500D01*
X95143914Y-110996500D01*
X94885995Y-111047804D01*
X94643041Y-111148439D01*
X94424387Y-111294538D01*
X94238438Y-111480487D01*
X94092339Y-111699141D01*
X94005400Y-111909030D01*
X93918461Y-111699141D01*
X93772362Y-111480487D01*
X93586413Y-111294538D01*
X93367759Y-111148439D01*
X93124805Y-111047804D01*
X92866886Y-110996500D01*
X92603914Y-110996500D01*
X92345995Y-111047804D01*
X92103041Y-111148439D01*
X91884387Y-111294538D01*
X91698438Y-111480487D01*
X91552339Y-111699141D01*
X91451704Y-111942095D01*
X91400400Y-112200014D01*
X91400400Y-112462986D01*
X91451704Y-112720905D01*
X91552339Y-112963859D01*
X91698438Y-113182513D01*
X91884387Y-113368462D01*
X92103041Y-113514561D01*
X92345995Y-113615196D01*
X92603914Y-113666500D01*
X92818821Y-113666500D01*
X93155871Y-114003550D01*
X93183584Y-114037318D01*
X93217352Y-114065031D01*
X93217354Y-114065033D01*
X93288853Y-114123711D01*
X93318342Y-114147912D01*
X93472088Y-114230090D01*
X93638911Y-114280696D01*
X93768924Y-114293501D01*
X93768934Y-114293501D01*
X93812400Y-114297782D01*
X93855866Y-114293501D01*
X104568930Y-114293501D01*
X104612399Y-114297782D01*
X104655868Y-114293501D01*
X104655876Y-114293501D01*
X104785889Y-114280696D01*
X104952712Y-114230090D01*
X105106458Y-114147912D01*
X105241216Y-114037318D01*
X105268933Y-114003545D01*
X105824449Y-113448030D01*
X105858216Y-113420318D01*
X105900774Y-113368462D01*
X105950745Y-113307572D01*
X107296400Y-113307572D01*
X107420882Y-113295312D01*
X107540580Y-113259002D01*
X107650894Y-113200037D01*
X107747585Y-113120685D01*
X107826937Y-113023994D01*
X107885902Y-112913680D01*
X107922212Y-112793982D01*
X107930532Y-112709500D01*
X111159822Y-112709500D01*
X111807294Y-113356972D01*
X111744928Y-113473650D01*
X111694392Y-113640246D01*
X111677328Y-113813500D01*
X111677328Y-114913500D01*
X111694392Y-115086754D01*
X111744928Y-115253350D01*
X111826995Y-115406886D01*
X111937438Y-115541462D01*
X112072014Y-115651905D01*
X112225550Y-115733972D01*
X112392146Y-115784508D01*
X112565400Y-115801572D01*
X115565400Y-115801572D01*
X115738654Y-115784508D01*
X115905250Y-115733972D01*
X116058786Y-115651905D01*
X116193362Y-115541462D01*
X116303805Y-115406886D01*
X116385872Y-115253350D01*
X116436408Y-115086754D01*
X116453472Y-114913500D01*
X116453472Y-113813500D01*
X116436408Y-113640246D01*
X116385872Y-113473650D01*
X116303805Y-113320114D01*
X116193362Y-113185538D01*
X116058786Y-113075095D01*
X115905250Y-112993028D01*
X115738654Y-112942492D01*
X115565400Y-112925428D01*
X113878907Y-112925428D01*
X112182934Y-111229456D01*
X112155217Y-111195683D01*
X112020459Y-111085089D01*
X111866713Y-111002911D01*
X111699890Y-110952305D01*
X111569877Y-110939500D01*
X111569869Y-110939500D01*
X111526400Y-110935219D01*
X111482931Y-110939500D01*
X107930532Y-110939500D01*
X107922212Y-110855018D01*
X107885902Y-110735320D01*
X107826937Y-110625006D01*
X107747585Y-110528315D01*
X107650894Y-110448963D01*
X107540580Y-110389998D01*
X107420882Y-110353688D01*
X107296400Y-110341428D01*
X106114399Y-110341428D01*
X106114399Y-105850500D01*
X108217931Y-105850500D01*
X108261400Y-105854781D01*
X108304869Y-105850500D01*
X108304877Y-105850500D01*
X108434890Y-105837695D01*
X108601713Y-105787089D01*
X108755459Y-105704911D01*
X108890217Y-105594317D01*
X108917934Y-105560544D01*
X109752906Y-104725572D01*
X111289400Y-104725572D01*
X111413882Y-104713312D01*
X111533580Y-104677002D01*
X111643894Y-104618037D01*
X111740585Y-104538685D01*
X111819937Y-104441994D01*
X111878902Y-104331680D01*
X111915212Y-104211982D01*
X111927472Y-104087500D01*
X111927472Y-102287500D01*
X111915212Y-102163018D01*
X111878902Y-102043320D01*
X111819937Y-101933006D01*
X111740585Y-101836315D01*
X111643894Y-101756963D01*
X111533580Y-101697998D01*
X111413882Y-101661688D01*
X111289400Y-101649428D01*
X109854900Y-101649428D01*
X109854900Y-94720530D01*
X109985362Y-94613462D01*
X110007400Y-94586609D01*
X110029438Y-94613462D01*
X110164013Y-94723905D01*
X110317549Y-94805972D01*
X110484145Y-94856508D01*
X110657399Y-94873572D01*
X111182401Y-94873572D01*
X111355655Y-94856508D01*
X111522251Y-94805972D01*
X111675787Y-94723905D01*
X111810362Y-94613462D01*
X111920805Y-94478887D01*
X112002872Y-94325351D01*
X112011927Y-94295500D01*
X113081227Y-94295500D01*
X113091453Y-94329209D01*
X113172942Y-94481664D01*
X113282608Y-94615292D01*
X113416236Y-94724958D01*
X113568691Y-94806447D01*
X113734115Y-94856628D01*
X113906150Y-94873572D01*
X114393650Y-94873572D01*
X114565685Y-94856628D01*
X114731109Y-94806447D01*
X114883564Y-94724958D01*
X115017192Y-94615292D01*
X115087400Y-94529744D01*
X115157608Y-94615292D01*
X115291236Y-94724958D01*
X115443691Y-94806447D01*
X115609115Y-94856628D01*
X115781150Y-94873572D01*
X116268650Y-94873572D01*
X116440685Y-94856628D01*
X116606109Y-94806447D01*
X116758564Y-94724958D01*
X116892192Y-94615292D01*
X117001858Y-94481664D01*
X117048865Y-94393719D01*
X117137144Y-94452705D01*
X117325502Y-94530726D01*
X117525461Y-94570500D01*
X117729339Y-94570500D01*
X117929298Y-94530726D01*
X118117656Y-94452705D01*
X118287174Y-94339437D01*
X118431337Y-94195274D01*
X118544605Y-94025756D01*
X118622626Y-93837398D01*
X118662400Y-93637439D01*
X118662400Y-93433561D01*
X118622626Y-93233602D01*
X118544605Y-93045244D01*
X118431337Y-92875726D01*
X118287174Y-92731563D01*
X118117656Y-92618295D01*
X117929298Y-92540274D01*
X117729339Y-92500500D01*
X117525461Y-92500500D01*
X117325502Y-92540274D01*
X117137144Y-92618295D01*
X117048865Y-92677281D01*
X117001858Y-92589336D01*
X116892192Y-92455708D01*
X116758564Y-92346042D01*
X116606109Y-92264553D01*
X116440685Y-92214372D01*
X116268650Y-92197428D01*
X115781150Y-92197428D01*
X115609115Y-92214372D01*
X115443691Y-92264553D01*
X115291236Y-92346042D01*
X115157608Y-92455708D01*
X115087400Y-92541256D01*
X115017192Y-92455708D01*
X114883564Y-92346042D01*
X114731109Y-92264553D01*
X114565685Y-92214372D01*
X114393650Y-92197428D01*
X113906150Y-92197428D01*
X113734115Y-92214372D01*
X113568691Y-92264553D01*
X113416236Y-92346042D01*
X113282608Y-92455708D01*
X113172942Y-92589336D01*
X113091453Y-92741791D01*
X113081227Y-92775500D01*
X112011927Y-92775500D01*
X112002872Y-92745649D01*
X111920805Y-92592113D01*
X111810362Y-92457538D01*
X111675787Y-92347095D01*
X111522251Y-92265028D01*
X111355655Y-92214492D01*
X111182401Y-92197428D01*
X110657399Y-92197428D01*
X110484145Y-92214492D01*
X110317549Y-92265028D01*
X110164013Y-92347095D01*
X110029438Y-92457538D01*
X110007400Y-92484391D01*
X109985362Y-92457538D01*
X109850787Y-92347095D01*
X109697251Y-92265028D01*
X109530655Y-92214492D01*
X109357401Y-92197428D01*
X108832399Y-92197428D01*
X108659145Y-92214492D01*
X108492549Y-92265028D01*
X108339013Y-92347095D01*
X108204438Y-92457538D01*
X108093995Y-92592113D01*
X108011928Y-92745649D01*
X107961392Y-92912245D01*
X107944328Y-93085499D01*
X107944328Y-93985501D01*
X107961392Y-94158755D01*
X108011928Y-94325351D01*
X108093995Y-94478887D01*
X108204438Y-94613462D01*
X108334900Y-94720530D01*
X108334901Y-101840353D01*
X108258863Y-101933006D01*
X108199898Y-102043320D01*
X108163588Y-102163018D01*
X108151328Y-102287500D01*
X108151328Y-103823994D01*
X107894822Y-104080500D01*
X105478865Y-104080500D01*
X105435399Y-104076219D01*
X105391933Y-104080500D01*
X103000072Y-104080500D01*
X103000072Y-103060500D01*
X102987812Y-102936018D01*
X102951502Y-102816320D01*
X102892537Y-102706006D01*
X102813185Y-102609315D01*
X102716494Y-102529963D01*
X102606180Y-102470998D01*
X102486482Y-102434688D01*
X102362000Y-102422428D01*
X98120200Y-102422428D01*
X97995718Y-102434688D01*
X97876020Y-102470998D01*
X97765706Y-102529963D01*
X97669015Y-102609315D01*
X97589663Y-102706006D01*
X97530698Y-102816320D01*
X97494388Y-102936018D01*
X97482128Y-103060500D01*
X97482128Y-106870500D01*
X97494388Y-106994982D01*
X97530698Y-107114680D01*
X97589663Y-107224994D01*
X97669015Y-107321685D01*
X97765706Y-107401037D01*
X97876020Y-107460002D01*
X97995718Y-107496312D01*
X98120200Y-107508572D01*
X102362000Y-107508572D01*
X102486482Y-107496312D01*
X102606180Y-107460002D01*
X102716494Y-107401037D01*
X102813185Y-107321685D01*
X102892537Y-107224994D01*
X102951502Y-107114680D01*
X102987812Y-106994982D01*
X103000072Y-106870500D01*
X103000072Y-105850500D01*
X104344400Y-105850500D01*
X104344399Y-110401914D01*
X104343100Y-110401376D01*
X104057167Y-110344500D01*
X103765633Y-110344500D01*
X103479700Y-110401376D01*
X103210357Y-110512941D01*
X102967955Y-110674909D01*
X102761809Y-110881055D01*
X102722757Y-110939500D01*
X101091279Y-110939500D01*
X96624672Y-106472894D01*
X96624672Y-103060500D01*
X96612412Y-102936018D01*
X96576102Y-102816320D01*
X96517137Y-102706006D01*
X96437785Y-102609315D01*
X96341094Y-102529963D01*
X96230780Y-102470998D01*
X96111082Y-102434688D01*
X95986600Y-102422428D01*
X91744800Y-102422428D01*
X91620318Y-102434688D01*
X91500620Y-102470998D01*
X91390306Y-102529963D01*
X91293615Y-102609315D01*
X91214263Y-102706006D01*
X91155298Y-102816320D01*
X91118988Y-102936018D01*
X91106728Y-103060500D01*
X90685000Y-103060500D01*
X90685000Y-92838467D01*
X96434400Y-92838467D01*
X96434400Y-93160533D01*
X96497232Y-93476412D01*
X96620482Y-93773963D01*
X96799413Y-94041752D01*
X97027148Y-94269487D01*
X97294937Y-94448418D01*
X97592488Y-94571668D01*
X97908367Y-94634500D01*
X98230433Y-94634500D01*
X98546312Y-94571668D01*
X98843863Y-94448418D01*
X99111652Y-94269487D01*
X99339387Y-94041752D01*
X99518318Y-93773963D01*
X99641568Y-93476412D01*
X99704400Y-93160533D01*
X99704400Y-92838467D01*
X99641568Y-92522588D01*
X99518318Y-92225037D01*
X99339387Y-91957248D01*
X99111652Y-91729513D01*
X98843863Y-91550582D01*
X98546312Y-91427332D01*
X98230433Y-91364500D01*
X97908367Y-91364500D01*
X97592488Y-91427332D01*
X97294937Y-91550582D01*
X97027148Y-91729513D01*
X96799413Y-91957248D01*
X96620482Y-92225037D01*
X96497232Y-92522588D01*
X96434400Y-92838467D01*
X90685000Y-92838467D01*
X90685000Y-89338467D01*
X96434400Y-89338467D01*
X96434400Y-89660533D01*
X96497232Y-89976412D01*
X96620482Y-90273963D01*
X96799413Y-90541752D01*
X97027148Y-90769487D01*
X97294937Y-90948418D01*
X97592488Y-91071668D01*
X97908367Y-91134500D01*
X98230433Y-91134500D01*
X98546312Y-91071668D01*
X98843863Y-90948418D01*
X99111652Y-90769487D01*
X99339387Y-90541752D01*
X99443750Y-90385561D01*
X106940400Y-90385561D01*
X106940400Y-90589439D01*
X106980174Y-90789398D01*
X107058195Y-90977756D01*
X107171463Y-91147274D01*
X107315626Y-91291437D01*
X107485144Y-91404705D01*
X107673502Y-91482726D01*
X107873461Y-91522500D01*
X108077339Y-91522500D01*
X108277298Y-91482726D01*
X108465656Y-91404705D01*
X108635174Y-91291437D01*
X108679111Y-91247500D01*
X110732078Y-91247500D01*
X110769400Y-91251176D01*
X110806722Y-91247500D01*
X110806733Y-91247500D01*
X110812855Y-91246897D01*
X110921461Y-91268500D01*
X111125339Y-91268500D01*
X111325298Y-91228726D01*
X111513656Y-91150705D01*
X111683174Y-91037437D01*
X111827337Y-90893274D01*
X111940605Y-90723756D01*
X112018626Y-90535398D01*
X112058400Y-90335439D01*
X112058400Y-90131561D01*
X112018626Y-89931602D01*
X111940605Y-89743244D01*
X111827337Y-89573726D01*
X111683174Y-89429563D01*
X111513656Y-89316295D01*
X111325298Y-89238274D01*
X111125339Y-89198500D01*
X110921461Y-89198500D01*
X110721502Y-89238274D01*
X110533144Y-89316295D01*
X110363626Y-89429563D01*
X110219463Y-89573726D01*
X110116715Y-89727500D01*
X108679111Y-89727500D01*
X108635174Y-89683563D01*
X108465656Y-89570295D01*
X108277298Y-89492274D01*
X108077339Y-89452500D01*
X107873461Y-89452500D01*
X107673502Y-89492274D01*
X107485144Y-89570295D01*
X107315626Y-89683563D01*
X107171463Y-89827726D01*
X107058195Y-89997244D01*
X106980174Y-90185602D01*
X106940400Y-90385561D01*
X99443750Y-90385561D01*
X99518318Y-90273963D01*
X99641568Y-89976412D01*
X99704400Y-89660533D01*
X99704400Y-89338467D01*
X99641568Y-89022588D01*
X99518318Y-88725037D01*
X99339387Y-88457248D01*
X99111652Y-88229513D01*
X98843863Y-88050582D01*
X98546312Y-87927332D01*
X98230433Y-87864500D01*
X97908367Y-87864500D01*
X97592488Y-87927332D01*
X97294937Y-88050582D01*
X97027148Y-88229513D01*
X96799413Y-88457248D01*
X96620482Y-88725037D01*
X96497232Y-89022588D01*
X96434400Y-89338467D01*
X90685000Y-89338467D01*
X90685000Y-74550467D01*
X96434400Y-74550467D01*
X96434400Y-74872533D01*
X96497232Y-75188412D01*
X96620482Y-75485963D01*
X96799413Y-75753752D01*
X97027148Y-75981487D01*
X97294937Y-76160418D01*
X97592488Y-76283668D01*
X97908367Y-76346500D01*
X98230433Y-76346500D01*
X98546312Y-76283668D01*
X98843863Y-76160418D01*
X99111652Y-75981487D01*
X99339387Y-75753752D01*
X99518318Y-75485963D01*
X99641568Y-75188412D01*
X99704400Y-74872533D01*
X99704400Y-74550467D01*
X99641568Y-74234588D01*
X99518318Y-73937037D01*
X99339387Y-73669248D01*
X99111652Y-73441513D01*
X98843863Y-73262582D01*
X98546312Y-73139332D01*
X98230433Y-73076500D01*
X97908367Y-73076500D01*
X97592488Y-73139332D01*
X97294937Y-73262582D01*
X97027148Y-73441513D01*
X96799413Y-73669248D01*
X96620482Y-73937037D01*
X96497232Y-74234588D01*
X96434400Y-74550467D01*
X90685000Y-74550467D01*
X90685000Y-71050467D01*
X96434400Y-71050467D01*
X96434400Y-71372533D01*
X96497232Y-71688412D01*
X96620482Y-71985963D01*
X96799413Y-72253752D01*
X97027148Y-72481487D01*
X97294937Y-72660418D01*
X97592488Y-72783668D01*
X97908367Y-72846500D01*
X98230433Y-72846500D01*
X98546312Y-72783668D01*
X98843863Y-72660418D01*
X99111652Y-72481487D01*
X99339387Y-72253752D01*
X99518318Y-71985963D01*
X99641568Y-71688412D01*
X99704400Y-71372533D01*
X99704400Y-71050467D01*
X99641568Y-70734588D01*
X99518318Y-70437037D01*
X99339387Y-70169248D01*
X99111652Y-69941513D01*
X98843863Y-69762582D01*
X98546312Y-69639332D01*
X98230433Y-69576500D01*
X97908367Y-69576500D01*
X97592488Y-69639332D01*
X97294937Y-69762582D01*
X97027148Y-69941513D01*
X96799413Y-70169248D01*
X96620482Y-70437037D01*
X96497232Y-70734588D01*
X96434400Y-71050467D01*
X90685000Y-71050467D01*
X90685000Y-62770502D01*
X91017599Y-63268272D01*
X91731728Y-63982401D01*
X92571455Y-64543488D01*
X93504509Y-64929972D01*
X94495035Y-65127000D01*
X95504965Y-65127000D01*
X96495491Y-64929972D01*
X97428545Y-64543488D01*
X98268272Y-63982401D01*
X98982401Y-63268272D01*
X99543488Y-62428545D01*
X99929972Y-61495491D01*
X100127000Y-60504965D01*
X100127000Y-59495035D01*
X100080815Y-59262843D01*
X128727200Y-59262843D01*
X128727200Y-59728155D01*
X128817978Y-60184527D01*
X128996045Y-60614420D01*
X129254559Y-61001314D01*
X129583585Y-61330340D01*
X129970479Y-61588854D01*
X130400372Y-61766921D01*
X130856744Y-61857699D01*
X131322056Y-61857699D01*
X131778428Y-61766921D01*
X132208321Y-61588854D01*
X132595215Y-61330340D01*
X132924241Y-61001314D01*
X133182755Y-60614420D01*
X133360822Y-60184527D01*
X133451600Y-59728155D01*
X133451600Y-59262843D01*
X138887200Y-59262843D01*
X138887200Y-59728155D01*
X138977978Y-60184527D01*
X139156045Y-60614420D01*
X139414559Y-61001314D01*
X139743585Y-61330340D01*
X140130479Y-61588854D01*
X140560372Y-61766921D01*
X141016744Y-61857699D01*
X141482056Y-61857699D01*
X141938428Y-61766921D01*
X142368321Y-61588854D01*
X142755215Y-61330340D01*
X143084241Y-61001314D01*
X143342755Y-60614420D01*
X143520822Y-60184527D01*
X143611600Y-59728155D01*
X143611600Y-59262843D01*
X143520822Y-58806471D01*
X143342755Y-58376578D01*
X143084241Y-57989684D01*
X142755215Y-57660658D01*
X142368321Y-57402144D01*
X141938428Y-57224077D01*
X141482056Y-57133299D01*
X141016744Y-57133299D01*
X140560372Y-57224077D01*
X140130479Y-57402144D01*
X139743585Y-57660658D01*
X139414559Y-57989684D01*
X139156045Y-58376578D01*
X138977978Y-58806471D01*
X138887200Y-59262843D01*
X133451600Y-59262843D01*
X133360822Y-58806471D01*
X133182755Y-58376578D01*
X132924241Y-57989684D01*
X132595215Y-57660658D01*
X132208321Y-57402144D01*
X131778428Y-57224077D01*
X131322056Y-57133299D01*
X130856744Y-57133299D01*
X130400372Y-57224077D01*
X129970479Y-57402144D01*
X129583585Y-57660658D01*
X129254559Y-57989684D01*
X128996045Y-58376578D01*
X128817978Y-58806471D01*
X128727200Y-59262843D01*
X100080815Y-59262843D01*
X99929972Y-58504509D01*
X99543488Y-57571455D01*
X98982401Y-56731728D01*
X98268272Y-56017599D01*
X97770502Y-55685000D01*
X182229498Y-55685000D01*
X181731728Y-56017599D01*
G04 #@! TA.AperFunction,Conductor*
D31*
G36*
X181731728Y-56017599D02*
G01*
X181017599Y-56731728D01*
X180456512Y-57571455D01*
X180070028Y-58504509D01*
X179873000Y-59495035D01*
X179873000Y-60504965D01*
X180070028Y-61495491D01*
X180456512Y-62428545D01*
X181017599Y-63268272D01*
X181731728Y-63982401D01*
X182571455Y-64543488D01*
X183504509Y-64929972D01*
X184495035Y-65127000D01*
X185504965Y-65127000D01*
X186495491Y-64929972D01*
X187428545Y-64543488D01*
X188268272Y-63982401D01*
X188982401Y-63268272D01*
X189315000Y-62770502D01*
X189315001Y-117229500D01*
X188982401Y-116731728D01*
X188268272Y-116017599D01*
X187428545Y-115456512D01*
X186495491Y-115070028D01*
X186453659Y-115061707D01*
X186684876Y-114907213D01*
X187010113Y-114581976D01*
X187265650Y-114199537D01*
X187441667Y-113774594D01*
X187531400Y-113323477D01*
X187531400Y-112863523D01*
X187441667Y-112412406D01*
X187265650Y-111987463D01*
X187010113Y-111605024D01*
X186684876Y-111279787D01*
X186302437Y-111024250D01*
X185877494Y-110848233D01*
X185426377Y-110758500D01*
X184966423Y-110758500D01*
X184515306Y-110848233D01*
X184090363Y-111024250D01*
X183707924Y-111279787D01*
X183382687Y-111605024D01*
X183127150Y-111987463D01*
X182951133Y-112412406D01*
X182861400Y-112863523D01*
X182861400Y-113323477D01*
X182951133Y-113774594D01*
X183127150Y-114199537D01*
X183382687Y-114581976D01*
X183707924Y-114907213D01*
X183849032Y-115001498D01*
X183504509Y-115070028D01*
X182571455Y-115456512D01*
X181731728Y-116017599D01*
X181017599Y-116731728D01*
X180456512Y-117571455D01*
X180070028Y-118504509D01*
X179873000Y-119495035D01*
X179873000Y-119571667D01*
X179871096Y-119562095D01*
X179770461Y-119319141D01*
X179624362Y-119100487D01*
X179438413Y-118914538D01*
X179219759Y-118768439D01*
X178976805Y-118667804D01*
X178718886Y-118616500D01*
X178455914Y-118616500D01*
X178348557Y-118637855D01*
X177316400Y-117605699D01*
X177316400Y-113095665D01*
X177499845Y-112973091D01*
X177705991Y-112766945D01*
X177867959Y-112524543D01*
X177979524Y-112255200D01*
X178036400Y-111969267D01*
X178036400Y-111677733D01*
X177993357Y-111461344D01*
X178164404Y-111290298D01*
X178193402Y-111266500D01*
X178288375Y-111150775D01*
X178358947Y-111018746D01*
X178402404Y-110875485D01*
X178413401Y-110763832D01*
X178413401Y-110763824D01*
X178417077Y-110726499D01*
X178413401Y-110689174D01*
X178413401Y-100765826D01*
X178417077Y-100728501D01*
X178413401Y-100691176D01*
X178413401Y-100691168D01*
X178411467Y-100671523D01*
X182861400Y-100671523D01*
X182861400Y-101131477D01*
X182951133Y-101582594D01*
X183127150Y-102007537D01*
X183382687Y-102389976D01*
X183707924Y-102715213D01*
X184090363Y-102970750D01*
X184515306Y-103146767D01*
X184720084Y-103187500D01*
X184515306Y-103228233D01*
X184090363Y-103404250D01*
X183707924Y-103659787D01*
X183382687Y-103985024D01*
X183127150Y-104367463D01*
X182951133Y-104792406D01*
X182861400Y-105243523D01*
X182861400Y-105703477D01*
X182951133Y-106154594D01*
X183127150Y-106579537D01*
X183382687Y-106961976D01*
X183707924Y-107287213D01*
X184090363Y-107542750D01*
X184515306Y-107718767D01*
X184966423Y-107808500D01*
X185426377Y-107808500D01*
X185877494Y-107718767D01*
X186302437Y-107542750D01*
X186684876Y-107287213D01*
X187010113Y-106961976D01*
X187265650Y-106579537D01*
X187441667Y-106154594D01*
X187531400Y-105703477D01*
X187531400Y-105243523D01*
X187441667Y-104792406D01*
X187265650Y-104367463D01*
X187010113Y-103985024D01*
X186684876Y-103659787D01*
X186302437Y-103404250D01*
X185877494Y-103228233D01*
X185672716Y-103187500D01*
X185877494Y-103146767D01*
X186302437Y-102970750D01*
X186684876Y-102715213D01*
X187010113Y-102389976D01*
X187265650Y-102007537D01*
X187441667Y-101582594D01*
X187531400Y-101131477D01*
X187531400Y-100671523D01*
X187441667Y-100220406D01*
X187265650Y-99795463D01*
X187010113Y-99413024D01*
X186684876Y-99087787D01*
X186302437Y-98832250D01*
X185877494Y-98656233D01*
X185426377Y-98566500D01*
X184966423Y-98566500D01*
X184515306Y-98656233D01*
X184090363Y-98832250D01*
X183707924Y-99087787D01*
X183382687Y-99413024D01*
X183127150Y-99795463D01*
X182951133Y-100220406D01*
X182861400Y-100671523D01*
X178411467Y-100671523D01*
X178402404Y-100579515D01*
X178358947Y-100436254D01*
X178288375Y-100304225D01*
X178193402Y-100188500D01*
X178164405Y-100164703D01*
X177993357Y-99993656D01*
X178036400Y-99777267D01*
X178036400Y-99485733D01*
X177993357Y-99269344D01*
X179012402Y-98250300D01*
X179041400Y-98226502D01*
X179102953Y-98151500D01*
X179136373Y-98110778D01*
X179206945Y-97978748D01*
X179212256Y-97961240D01*
X179250402Y-97835487D01*
X179261399Y-97723834D01*
X179261399Y-97723824D01*
X179265075Y-97686501D01*
X179261399Y-97649178D01*
X179261399Y-93051523D01*
X182861400Y-93051523D01*
X182861400Y-93511477D01*
X182951133Y-93962594D01*
X183127150Y-94387537D01*
X183382687Y-94769976D01*
X183707924Y-95095213D01*
X184090363Y-95350750D01*
X184515306Y-95526767D01*
X184966423Y-95616500D01*
X185426377Y-95616500D01*
X185877494Y-95526767D01*
X186302437Y-95350750D01*
X186684876Y-95095213D01*
X187010113Y-94769976D01*
X187265650Y-94387537D01*
X187441667Y-93962594D01*
X187531400Y-93511477D01*
X187531400Y-93051523D01*
X187441667Y-92600406D01*
X187265650Y-92175463D01*
X187010113Y-91793024D01*
X186684876Y-91467787D01*
X186302437Y-91212250D01*
X185877494Y-91036233D01*
X185426377Y-90946500D01*
X184966423Y-90946500D01*
X184515306Y-91036233D01*
X184090363Y-91212250D01*
X183707924Y-91467787D01*
X183382687Y-91793024D01*
X183127150Y-92175463D01*
X182951133Y-92600406D01*
X182861400Y-93051523D01*
X179261399Y-93051523D01*
X179261399Y-88377564D01*
X179457140Y-88416500D01*
X179749660Y-88416500D01*
X180036558Y-88359432D01*
X180306811Y-88247490D01*
X180550032Y-88084975D01*
X180756875Y-87878132D01*
X180919390Y-87634911D01*
X181031332Y-87364658D01*
X181088400Y-87077760D01*
X181088400Y-86785240D01*
X181031332Y-86498342D01*
X180919390Y-86228089D01*
X180756875Y-85984868D01*
X180625020Y-85853013D01*
X180697580Y-85831002D01*
X180807894Y-85772037D01*
X180904585Y-85692685D01*
X180983937Y-85595994D01*
X181042902Y-85485680D01*
X181079212Y-85365982D01*
X181091472Y-85241500D01*
X181091472Y-83541500D01*
X181079212Y-83417018D01*
X181042902Y-83297320D01*
X180983937Y-83187006D01*
X180904585Y-83090315D01*
X180807894Y-83010963D01*
X180697580Y-82951998D01*
X180577882Y-82915688D01*
X180453400Y-82903428D01*
X178753400Y-82903428D01*
X178628918Y-82915688D01*
X178509220Y-82951998D01*
X178398906Y-83010963D01*
X178302215Y-83090315D01*
X178222863Y-83187006D01*
X178163898Y-83297320D01*
X178127588Y-83417018D01*
X178115328Y-83541500D01*
X178115328Y-84804771D01*
X177990401Y-84929697D01*
X177961398Y-84953500D01*
X177937004Y-84983225D01*
X177866425Y-85069225D01*
X177841822Y-85115254D01*
X177795853Y-85201255D01*
X177752396Y-85344516D01*
X177741399Y-85456169D01*
X177741399Y-85456179D01*
X177737723Y-85493501D01*
X177741399Y-85530823D01*
X177741400Y-93168215D01*
X177645580Y-93116998D01*
X177525882Y-93080688D01*
X177401400Y-93068428D01*
X175711400Y-93068428D01*
X175586918Y-93080688D01*
X175467220Y-93116998D01*
X175356906Y-93175963D01*
X175260215Y-93255315D01*
X175180863Y-93352006D01*
X175121898Y-93462320D01*
X175085588Y-93582018D01*
X175073328Y-93706500D01*
X175073328Y-95396500D01*
X175085588Y-95520982D01*
X175121898Y-95640680D01*
X175180863Y-95750994D01*
X175260215Y-95847685D01*
X175356906Y-95927037D01*
X175467220Y-95986002D01*
X175545205Y-96009659D01*
X175406809Y-96148055D01*
X175309055Y-96294353D01*
X172002400Y-92987699D01*
X172002400Y-92925561D01*
X171962626Y-92725602D01*
X171884605Y-92537244D01*
X171771337Y-92367726D01*
X171627174Y-92223563D01*
X171457656Y-92110295D01*
X171269298Y-92032274D01*
X171069339Y-91992500D01*
X170865461Y-91992500D01*
X170665502Y-92032274D01*
X170477144Y-92110295D01*
X170307626Y-92223563D01*
X170163463Y-92367726D01*
X170050195Y-92537244D01*
X169972174Y-92725602D01*
X169932400Y-92925561D01*
X169932400Y-93129439D01*
X169972174Y-93329398D01*
X170050195Y-93517756D01*
X170163463Y-93687274D01*
X170307626Y-93831437D01*
X170477144Y-93944705D01*
X170665502Y-94022726D01*
X170865461Y-94062500D01*
X170927599Y-94062500D01*
X174467601Y-97602503D01*
X174491399Y-97631501D01*
X174520397Y-97655299D01*
X174607123Y-97726474D01*
X174730729Y-97792543D01*
X174739153Y-97797046D01*
X174767464Y-97805634D01*
X173701599Y-98871500D01*
X170433573Y-98871500D01*
X170423347Y-98837791D01*
X170341858Y-98685336D01*
X170232192Y-98551708D01*
X170098564Y-98442042D01*
X169946109Y-98360553D01*
X169780685Y-98310372D01*
X169608650Y-98293428D01*
X169121150Y-98293428D01*
X169032457Y-98302163D01*
X157064795Y-86334502D01*
X157040992Y-86305498D01*
X156925267Y-86210525D01*
X156793238Y-86139953D01*
X156649977Y-86096496D01*
X156538324Y-86085499D01*
X156538313Y-86085499D01*
X156500991Y-86081823D01*
X156463669Y-86085499D01*
X153497916Y-86085499D01*
X153599332Y-85840658D01*
X153656400Y-85553760D01*
X153656400Y-85261240D01*
X153599332Y-84974342D01*
X153487390Y-84704089D01*
X153324875Y-84460868D01*
X153118032Y-84254025D01*
X152943640Y-84137500D01*
X153118032Y-84020975D01*
X153324875Y-83814132D01*
X153487390Y-83570911D01*
X153599332Y-83300658D01*
X153656400Y-83013760D01*
X153656400Y-82721240D01*
X153599332Y-82434342D01*
X153487390Y-82164089D01*
X153324875Y-81920868D01*
X153118032Y-81714025D01*
X152874811Y-81551510D01*
X152604558Y-81439568D01*
X152317660Y-81382500D01*
X152025140Y-81382500D01*
X151738242Y-81439568D01*
X151467989Y-81551510D01*
X151224768Y-81714025D01*
X151017925Y-81920868D01*
X150855410Y-82164089D01*
X150743468Y-82434342D01*
X150686400Y-82721240D01*
X150686400Y-83013760D01*
X150743468Y-83300658D01*
X150855410Y-83570911D01*
X151017925Y-83814132D01*
X151224768Y-84020975D01*
X151399160Y-84137500D01*
X151224768Y-84254025D01*
X151017925Y-84460868D01*
X150855410Y-84704089D01*
X150743468Y-84974342D01*
X150686400Y-85261240D01*
X150686400Y-85553760D01*
X150743468Y-85840658D01*
X150844884Y-86085499D01*
X150736221Y-86085499D01*
X150629656Y-86014295D01*
X150441298Y-85936274D01*
X150241339Y-85896500D01*
X150037461Y-85896500D01*
X149991194Y-85905703D01*
X150012400Y-85799092D01*
X150012400Y-85523908D01*
X149958714Y-85254010D01*
X149853405Y-84999773D01*
X149700520Y-84770965D01*
X149505935Y-84576380D01*
X149277127Y-84423495D01*
X149199885Y-84391500D01*
X149277127Y-84359505D01*
X149505935Y-84206620D01*
X149700520Y-84012035D01*
X149853405Y-83783227D01*
X149958714Y-83528990D01*
X150012400Y-83259092D01*
X150012400Y-82983908D01*
X149958714Y-82714010D01*
X149853405Y-82459773D01*
X149700520Y-82230965D01*
X149505935Y-82036380D01*
X149277127Y-81883495D01*
X149199885Y-81851500D01*
X149277127Y-81819505D01*
X149505935Y-81666620D01*
X149700520Y-81472035D01*
X149853405Y-81243227D01*
X149958714Y-80988990D01*
X150012400Y-80719092D01*
X150012400Y-80443908D01*
X149958714Y-80174010D01*
X149853405Y-79919773D01*
X149700520Y-79690965D01*
X149571056Y-79561501D01*
X160490600Y-79561501D01*
X164396876Y-83467778D01*
X164381144Y-83474295D01*
X164211626Y-83587563D01*
X164067463Y-83731726D01*
X163954195Y-83901244D01*
X163876174Y-84089602D01*
X163836400Y-84289561D01*
X163836400Y-84493439D01*
X163876174Y-84693398D01*
X163954195Y-84881756D01*
X164067463Y-85051274D01*
X164211626Y-85195437D01*
X164381144Y-85308705D01*
X164569502Y-85386726D01*
X164769461Y-85426500D01*
X164831599Y-85426500D01*
X166884400Y-87479302D01*
X166884400Y-87541439D01*
X166924174Y-87741398D01*
X167002195Y-87929756D01*
X167115463Y-88099274D01*
X167259626Y-88243437D01*
X167429144Y-88356705D01*
X167617502Y-88434726D01*
X167817461Y-88474500D01*
X168021339Y-88474500D01*
X168221298Y-88434726D01*
X168409656Y-88356705D01*
X168579174Y-88243437D01*
X168723337Y-88099274D01*
X168836605Y-87929756D01*
X168914626Y-87741398D01*
X168954400Y-87541439D01*
X168954400Y-87337561D01*
X168914626Y-87137602D01*
X168836605Y-86949244D01*
X168723337Y-86779726D01*
X168579174Y-86635563D01*
X168409656Y-86522295D01*
X168221298Y-86444274D01*
X168021339Y-86404500D01*
X167959202Y-86404500D01*
X167885923Y-86331222D01*
X167901656Y-86324705D01*
X168071174Y-86211437D01*
X168215337Y-86067274D01*
X168328605Y-85897756D01*
X168406626Y-85709398D01*
X168446400Y-85509439D01*
X168446400Y-85305561D01*
X168406626Y-85105602D01*
X168328605Y-84917244D01*
X168215337Y-84747726D01*
X168071174Y-84603563D01*
X167901656Y-84490295D01*
X167713298Y-84412274D01*
X167513339Y-84372500D01*
X167451203Y-84372500D01*
X161369205Y-78290504D01*
X161345402Y-78261500D01*
X161229677Y-78166527D01*
X161097648Y-78095955D01*
X160954387Y-78052498D01*
X160842734Y-78041501D01*
X160842723Y-78041501D01*
X160805401Y-78037825D01*
X160768079Y-78041501D01*
X149398902Y-78041501D01*
X149483772Y-77914484D01*
X149665669Y-77475346D01*
X149758400Y-77009160D01*
X149758400Y-76536447D01*
X168174400Y-76536447D01*
X168174400Y-76986553D01*
X168262211Y-77428010D01*
X168434459Y-77843853D01*
X168684525Y-78218103D01*
X169002797Y-78536375D01*
X169377047Y-78786441D01*
X169792890Y-78958689D01*
X170234347Y-79046500D01*
X170684453Y-79046500D01*
X171012236Y-78981300D01*
X173961528Y-78981300D01*
X173973788Y-79105782D01*
X174010098Y-79225480D01*
X174069063Y-79335794D01*
X174148415Y-79432485D01*
X174245106Y-79511837D01*
X174355420Y-79570802D01*
X174475118Y-79607112D01*
X174599600Y-79619372D01*
X175253650Y-79616300D01*
X175412400Y-79457550D01*
X175412400Y-78168500D01*
X174123350Y-78168500D01*
X173964600Y-78327250D01*
X173961528Y-78981300D01*
X171012236Y-78981300D01*
X171125910Y-78958689D01*
X171541753Y-78786441D01*
X171916003Y-78536375D01*
X172234275Y-78218103D01*
X172484341Y-77843853D01*
X172656589Y-77428010D01*
X172721495Y-77101700D01*
X173961528Y-77101700D01*
X173964600Y-77755750D01*
X174123350Y-77914500D01*
X175412400Y-77914500D01*
X175412400Y-77894500D01*
X175666400Y-77894500D01*
X175666400Y-77914500D01*
X175686400Y-77914500D01*
X175686400Y-78168500D01*
X175666400Y-78168500D01*
X175666400Y-79457550D01*
X175825150Y-79616300D01*
X176475594Y-79619355D01*
X176507232Y-79778412D01*
X176630482Y-80075963D01*
X176809413Y-80343752D01*
X177037148Y-80571487D01*
X177304937Y-80750418D01*
X177602488Y-80873668D01*
X177918367Y-80936500D01*
X178240433Y-80936500D01*
X178556312Y-80873668D01*
X178853863Y-80750418D01*
X179121652Y-80571487D01*
X179349387Y-80343752D01*
X179528318Y-80075963D01*
X179651568Y-79778412D01*
X179714400Y-79462533D01*
X179714400Y-79140467D01*
X179651568Y-78824588D01*
X179528318Y-78527037D01*
X179475214Y-78447561D01*
X179838400Y-78447561D01*
X179838400Y-78651439D01*
X179878174Y-78851398D01*
X179956195Y-79039756D01*
X180069463Y-79209274D01*
X180213626Y-79353437D01*
X180383144Y-79466705D01*
X180571502Y-79544726D01*
X180771461Y-79584500D01*
X180975339Y-79584500D01*
X181175298Y-79544726D01*
X181363656Y-79466705D01*
X181533174Y-79353437D01*
X181677337Y-79209274D01*
X181790605Y-79039756D01*
X181868626Y-78851398D01*
X181908400Y-78651439D01*
X181908400Y-78589301D01*
X184178404Y-76319298D01*
X184207401Y-76295501D01*
X184302374Y-76179776D01*
X184372946Y-76047747D01*
X184416403Y-75904486D01*
X184427400Y-75792833D01*
X184427400Y-75792825D01*
X184431076Y-75755500D01*
X184427400Y-75718175D01*
X184427400Y-69233275D01*
X184518413Y-69172462D01*
X184704362Y-68986513D01*
X184850461Y-68767859D01*
X184937400Y-68557970D01*
X185024339Y-68767859D01*
X185170438Y-68986513D01*
X185356387Y-69172462D01*
X185575041Y-69318561D01*
X185817995Y-69419196D01*
X186075914Y-69470500D01*
X186338886Y-69470500D01*
X186596805Y-69419196D01*
X186839759Y-69318561D01*
X187058413Y-69172462D01*
X187244362Y-68986513D01*
X187390461Y-68767859D01*
X187491096Y-68524905D01*
X187542400Y-68266986D01*
X187542400Y-68004014D01*
X187491096Y-67746095D01*
X187390461Y-67503141D01*
X187244362Y-67284487D01*
X187058413Y-67098538D01*
X186839759Y-66952439D01*
X186596805Y-66851804D01*
X186338886Y-66800500D01*
X186075914Y-66800500D01*
X185817995Y-66851804D01*
X185575041Y-66952439D01*
X185356387Y-67098538D01*
X185170438Y-67284487D01*
X185024339Y-67503141D01*
X184937400Y-67713030D01*
X184850461Y-67503141D01*
X184704362Y-67284487D01*
X184518413Y-67098538D01*
X184299759Y-66952439D01*
X184056805Y-66851804D01*
X183798886Y-66800500D01*
X183535914Y-66800500D01*
X183277995Y-66851804D01*
X183035041Y-66952439D01*
X182816387Y-67098538D01*
X182630438Y-67284487D01*
X182484339Y-67503141D01*
X182383704Y-67746095D01*
X182332400Y-68004014D01*
X182332400Y-68266986D01*
X182383704Y-68524905D01*
X182484339Y-68767859D01*
X182630438Y-68986513D01*
X182816387Y-69172462D01*
X182907401Y-69233275D01*
X182907400Y-75440698D01*
X180833599Y-77514500D01*
X180771461Y-77514500D01*
X180571502Y-77554274D01*
X180383144Y-77632295D01*
X180213626Y-77745563D01*
X180069463Y-77889726D01*
X179956195Y-78059244D01*
X179878174Y-78247602D01*
X179838400Y-78447561D01*
X179475214Y-78447561D01*
X179349387Y-78259248D01*
X179121652Y-78031513D01*
X178853863Y-77852582D01*
X178556312Y-77729332D01*
X178240433Y-77666500D01*
X177918367Y-77666500D01*
X177602488Y-77729332D01*
X177304937Y-77852582D01*
X177114200Y-77980028D01*
X177114200Y-77914498D01*
X176955452Y-77914498D01*
X177114200Y-77755750D01*
X177117272Y-77101700D01*
X177105012Y-76977218D01*
X177068702Y-76857520D01*
X177009737Y-76747206D01*
X176930385Y-76650515D01*
X176833694Y-76571163D01*
X176744511Y-76523493D01*
X176762627Y-76505377D01*
X176934970Y-76247448D01*
X177053682Y-75960852D01*
X177114200Y-75656604D01*
X177114200Y-75542972D01*
X177304937Y-75670418D01*
X177602488Y-75793668D01*
X177918367Y-75856500D01*
X178240433Y-75856500D01*
X178556312Y-75793668D01*
X178853863Y-75670418D01*
X179121652Y-75491487D01*
X179349387Y-75263752D01*
X179528318Y-74995963D01*
X179651568Y-74698412D01*
X179714400Y-74382533D01*
X179714400Y-74060467D01*
X179651568Y-73744588D01*
X179528318Y-73447037D01*
X179349387Y-73179248D01*
X179121652Y-72951513D01*
X178853863Y-72772582D01*
X178556312Y-72649332D01*
X178240433Y-72586500D01*
X177918367Y-72586500D01*
X177602488Y-72649332D01*
X177304937Y-72772582D01*
X177037148Y-72951513D01*
X176809413Y-73179248D01*
X176630482Y-73447037D01*
X176507232Y-73744588D01*
X176444400Y-74060467D01*
X176444400Y-74212205D01*
X176285348Y-74105930D01*
X175998752Y-73987218D01*
X175694504Y-73926700D01*
X175384296Y-73926700D01*
X175080048Y-73987218D01*
X174793452Y-74105930D01*
X174535523Y-74278273D01*
X174316173Y-74497623D01*
X174143830Y-74755552D01*
X174025118Y-75042148D01*
X173964600Y-75346396D01*
X173964600Y-75656604D01*
X174025118Y-75960852D01*
X174143830Y-76247448D01*
X174316173Y-76505377D01*
X174334289Y-76523493D01*
X174245106Y-76571163D01*
X174148415Y-76650515D01*
X174069063Y-76747206D01*
X174010098Y-76857520D01*
X173973788Y-76977218D01*
X173961528Y-77101700D01*
X172721495Y-77101700D01*
X172744400Y-76986553D01*
X172744400Y-76536447D01*
X172656589Y-76094990D01*
X172484341Y-75679147D01*
X172234275Y-75304897D01*
X171916003Y-74986625D01*
X171541753Y-74736559D01*
X171125910Y-74564311D01*
X170684453Y-74476500D01*
X170234347Y-74476500D01*
X169792890Y-74564311D01*
X169377047Y-74736559D01*
X169002797Y-74986625D01*
X168684525Y-75304897D01*
X168434459Y-75679147D01*
X168262211Y-76094990D01*
X168174400Y-76536447D01*
X149758400Y-76536447D01*
X149758400Y-76533840D01*
X149665669Y-76067654D01*
X149483772Y-75628516D01*
X149219699Y-75233302D01*
X148883598Y-74897201D01*
X148488384Y-74633128D01*
X148049246Y-74451231D01*
X147583060Y-74358500D01*
X147107740Y-74358500D01*
X146641554Y-74451231D01*
X146202416Y-74633128D01*
X145807202Y-74897201D01*
X145471101Y-75233302D01*
X145207028Y-75628516D01*
X145025131Y-76067654D01*
X144932400Y-76533840D01*
X144932400Y-77009160D01*
X145025131Y-77475346D01*
X145207028Y-77914484D01*
X145291898Y-78041501D01*
X143016153Y-78041501D01*
X143046400Y-77889439D01*
X143046400Y-77685561D01*
X143006626Y-77485602D01*
X142928605Y-77297244D01*
X142815337Y-77127726D01*
X142671174Y-76983563D01*
X142501656Y-76870295D01*
X142313298Y-76792274D01*
X142113339Y-76752500D01*
X141909461Y-76752500D01*
X141709502Y-76792274D01*
X141521144Y-76870295D01*
X141351626Y-76983563D01*
X141307689Y-77027500D01*
X135214202Y-77027500D01*
X130702580Y-72515879D01*
X130733174Y-72495437D01*
X130877337Y-72351274D01*
X130990605Y-72181756D01*
X131068626Y-71993398D01*
X131108400Y-71793439D01*
X131108400Y-71731301D01*
X132870403Y-69969299D01*
X132899401Y-69945501D01*
X132994374Y-69829776D01*
X133064946Y-69697747D01*
X133108403Y-69554486D01*
X133119400Y-69442833D01*
X133119400Y-69442824D01*
X133123076Y-69405501D01*
X133122293Y-69397554D01*
X133298510Y-69279809D01*
X133326960Y-69251359D01*
X133812304Y-69736704D01*
X133836102Y-69765702D01*
X133951827Y-69860675D01*
X134083856Y-69931247D01*
X134227117Y-69974704D01*
X134338770Y-69985701D01*
X134338778Y-69985701D01*
X134376103Y-69989377D01*
X134413428Y-69985701D01*
X136311877Y-69985701D01*
X136349199Y-69989377D01*
X136386521Y-69985701D01*
X136386532Y-69985701D01*
X136498185Y-69974704D01*
X136641446Y-69931247D01*
X136773475Y-69860675D01*
X136889200Y-69765702D01*
X136913003Y-69736699D01*
X137083026Y-69566675D01*
X137294302Y-69608700D01*
X137584498Y-69608700D01*
X137869117Y-69552086D01*
X138137222Y-69441033D01*
X138378510Y-69279809D01*
X138502844Y-69155475D01*
X139139030Y-69155475D01*
X139215238Y-69403344D01*
X139477265Y-69528063D01*
X139758589Y-69599268D01*
X140048399Y-69614219D01*
X140335557Y-69572345D01*
X140609028Y-69475254D01*
X140743562Y-69403344D01*
X140819770Y-69155475D01*
X139979400Y-68315105D01*
X139139030Y-69155475D01*
X138502844Y-69155475D01*
X138583709Y-69074610D01*
X138706689Y-68890557D01*
X138711556Y-68899662D01*
X138959425Y-68975870D01*
X139799795Y-68135500D01*
X140159005Y-68135500D01*
X140999375Y-68975870D01*
X141247244Y-68899662D01*
X141371963Y-68637635D01*
X141443168Y-68356311D01*
X141458119Y-68066501D01*
X141416245Y-67779343D01*
X141319154Y-67505872D01*
X141247244Y-67371338D01*
X140999375Y-67295130D01*
X140159005Y-68135500D01*
X139799795Y-68135500D01*
X138959425Y-67295130D01*
X138711556Y-67371338D01*
X138707001Y-67380908D01*
X138583709Y-67196390D01*
X138502844Y-67115525D01*
X139139030Y-67115525D01*
X139979400Y-67955895D01*
X140819770Y-67115525D01*
X140743562Y-66867656D01*
X140481535Y-66742937D01*
X140200211Y-66671732D01*
X139910401Y-66656781D01*
X139623243Y-66698655D01*
X139349772Y-66795746D01*
X139215238Y-66867656D01*
X139139030Y-67115525D01*
X138502844Y-67115525D01*
X138378510Y-66991191D01*
X138137222Y-66829967D01*
X137869117Y-66718914D01*
X137584498Y-66662300D01*
X137294302Y-66662300D01*
X137009683Y-66718914D01*
X136741578Y-66829967D01*
X136500290Y-66991191D01*
X136295091Y-67196390D01*
X136169400Y-67384499D01*
X136043709Y-67196390D01*
X135838510Y-66991191D01*
X135597222Y-66829967D01*
X135329117Y-66718914D01*
X135044498Y-66662300D01*
X134754302Y-66662300D01*
X134469683Y-66718914D01*
X134201578Y-66829967D01*
X133960290Y-66991191D01*
X133931840Y-67019641D01*
X130828174Y-63915975D01*
X147402400Y-63915975D01*
X147402400Y-64435025D01*
X147503661Y-64944101D01*
X147702293Y-65423641D01*
X147990662Y-65855215D01*
X148357685Y-66222238D01*
X148789259Y-66510607D01*
X149268799Y-66709239D01*
X149777875Y-66810500D01*
X150296925Y-66810500D01*
X150806001Y-66709239D01*
X151285541Y-66510607D01*
X151717115Y-66222238D01*
X152084138Y-65855215D01*
X152372507Y-65423641D01*
X152571139Y-64944101D01*
X152600697Y-64795500D01*
X155559328Y-64795500D01*
X155559328Y-66395500D01*
X155571588Y-66519982D01*
X155607898Y-66639680D01*
X155666863Y-66749994D01*
X155746215Y-66846685D01*
X155842906Y-66926037D01*
X155953220Y-66985002D01*
X156072918Y-67021312D01*
X156197400Y-67033572D01*
X157797400Y-67033572D01*
X157921882Y-67021312D01*
X158041580Y-66985002D01*
X158151894Y-66926037D01*
X158248585Y-66846685D01*
X158327937Y-66749994D01*
X158386902Y-66639680D01*
X158423212Y-66519982D01*
X158435472Y-66395500D01*
X158435472Y-66129775D01*
X158495720Y-66275227D01*
X158652763Y-66510259D01*
X158852641Y-66710137D01*
X159087673Y-66867180D01*
X159348826Y-66975353D01*
X159626065Y-67030500D01*
X159908735Y-67030500D01*
X160185974Y-66975353D01*
X160447127Y-66867180D01*
X160682159Y-66710137D01*
X160882037Y-66510259D01*
X161039080Y-66275227D01*
X161147253Y-66014074D01*
X161152400Y-65988199D01*
X161157547Y-66014074D01*
X161265720Y-66275227D01*
X161422763Y-66510259D01*
X161622641Y-66710137D01*
X161857673Y-66867180D01*
X162118826Y-66975353D01*
X162396065Y-67030500D01*
X162678735Y-67030500D01*
X162955974Y-66975353D01*
X163217127Y-66867180D01*
X163452159Y-66710137D01*
X163652037Y-66510259D01*
X163809080Y-66275227D01*
X163917253Y-66014074D01*
X163922400Y-65988199D01*
X163927547Y-66014074D01*
X164035720Y-66275227D01*
X164192763Y-66510259D01*
X164392641Y-66710137D01*
X164627673Y-66867180D01*
X164888826Y-66975353D01*
X165166065Y-67030500D01*
X165448735Y-67030500D01*
X165725974Y-66975353D01*
X165987127Y-66867180D01*
X166222159Y-66710137D01*
X166422037Y-66510259D01*
X166579080Y-66275227D01*
X166687253Y-66014074D01*
X166692400Y-65988199D01*
X166697547Y-66014074D01*
X166805720Y-66275227D01*
X166962763Y-66510259D01*
X167162641Y-66710137D01*
X167397673Y-66867180D01*
X167658826Y-66975353D01*
X167936065Y-67030500D01*
X168218735Y-67030500D01*
X168495974Y-66975353D01*
X168757127Y-66867180D01*
X168992159Y-66710137D01*
X169192037Y-66510259D01*
X169349080Y-66275227D01*
X169457253Y-66014074D01*
X169512400Y-65736835D01*
X169512400Y-65454165D01*
X169457253Y-65176926D01*
X169349080Y-64915773D01*
X169192037Y-64680741D01*
X168992159Y-64480863D01*
X168757127Y-64323820D01*
X168495974Y-64215647D01*
X168218735Y-64160500D01*
X167936065Y-64160500D01*
X167658826Y-64215647D01*
X167397673Y-64323820D01*
X167162641Y-64480863D01*
X166962763Y-64680741D01*
X166805720Y-64915773D01*
X166697547Y-65176926D01*
X166692400Y-65202801D01*
X166687253Y-65176926D01*
X166579080Y-64915773D01*
X166422037Y-64680741D01*
X166222159Y-64480863D01*
X165987127Y-64323820D01*
X165725974Y-64215647D01*
X165448735Y-64160500D01*
X165166065Y-64160500D01*
X164888826Y-64215647D01*
X164627673Y-64323820D01*
X164392641Y-64480863D01*
X164192763Y-64680741D01*
X164035720Y-64915773D01*
X163927547Y-65176926D01*
X163922400Y-65202801D01*
X163917253Y-65176926D01*
X163809080Y-64915773D01*
X163652037Y-64680741D01*
X163452159Y-64480863D01*
X163217127Y-64323820D01*
X162955974Y-64215647D01*
X162678735Y-64160500D01*
X162396065Y-64160500D01*
X162118826Y-64215647D01*
X161857673Y-64323820D01*
X161622641Y-64480863D01*
X161422763Y-64680741D01*
X161265720Y-64915773D01*
X161157547Y-65176926D01*
X161152400Y-65202801D01*
X161147253Y-65176926D01*
X161039080Y-64915773D01*
X160882037Y-64680741D01*
X160682159Y-64480863D01*
X160447127Y-64323820D01*
X160185974Y-64215647D01*
X159908735Y-64160500D01*
X159626065Y-64160500D01*
X159348826Y-64215647D01*
X159087673Y-64323820D01*
X158852641Y-64480863D01*
X158652763Y-64680741D01*
X158495720Y-64915773D01*
X158435472Y-65061225D01*
X158435472Y-64795500D01*
X158423212Y-64671018D01*
X158386902Y-64551320D01*
X158327937Y-64441006D01*
X158248585Y-64344315D01*
X158151894Y-64264963D01*
X158041580Y-64205998D01*
X157921882Y-64169688D01*
X157797400Y-64157428D01*
X156197400Y-64157428D01*
X156072918Y-64169688D01*
X155953220Y-64205998D01*
X155842906Y-64264963D01*
X155746215Y-64344315D01*
X155666863Y-64441006D01*
X155607898Y-64551320D01*
X155571588Y-64671018D01*
X155559328Y-64795500D01*
X152600697Y-64795500D01*
X152672400Y-64435025D01*
X152672400Y-63915975D01*
X152571139Y-63406899D01*
X152372507Y-62927359D01*
X152163238Y-62614165D01*
X156947400Y-62614165D01*
X156947400Y-62896835D01*
X157002547Y-63174074D01*
X157110720Y-63435227D01*
X157267763Y-63670259D01*
X157467641Y-63870137D01*
X157702673Y-64027180D01*
X157963826Y-64135353D01*
X158241065Y-64190500D01*
X158523735Y-64190500D01*
X158800974Y-64135353D01*
X159062127Y-64027180D01*
X159297159Y-63870137D01*
X159497037Y-63670259D01*
X159654080Y-63435227D01*
X159762253Y-63174074D01*
X159767400Y-63148199D01*
X159772547Y-63174074D01*
X159880720Y-63435227D01*
X160037763Y-63670259D01*
X160237641Y-63870137D01*
X160472673Y-64027180D01*
X160733826Y-64135353D01*
X161011065Y-64190500D01*
X161293735Y-64190500D01*
X161570974Y-64135353D01*
X161832127Y-64027180D01*
X162067159Y-63870137D01*
X162267037Y-63670259D01*
X162424080Y-63435227D01*
X162532253Y-63174074D01*
X162537400Y-63148199D01*
X162542547Y-63174074D01*
X162650720Y-63435227D01*
X162807763Y-63670259D01*
X163007641Y-63870137D01*
X163242673Y-64027180D01*
X163503826Y-64135353D01*
X163781065Y-64190500D01*
X164063735Y-64190500D01*
X164340974Y-64135353D01*
X164602127Y-64027180D01*
X164837159Y-63870137D01*
X165037037Y-63670259D01*
X165194080Y-63435227D01*
X165302253Y-63174074D01*
X165307400Y-63148199D01*
X165312547Y-63174074D01*
X165420720Y-63435227D01*
X165577763Y-63670259D01*
X165777641Y-63870137D01*
X166012673Y-64027180D01*
X166273826Y-64135353D01*
X166551065Y-64190500D01*
X166833735Y-64190500D01*
X167110974Y-64135353D01*
X167372127Y-64027180D01*
X167538557Y-63915975D01*
X172402400Y-63915975D01*
X172402400Y-64435025D01*
X172503661Y-64944101D01*
X172702293Y-65423641D01*
X172990662Y-65855215D01*
X173357685Y-66222238D01*
X173789259Y-66510607D01*
X174268799Y-66709239D01*
X174777875Y-66810500D01*
X175296925Y-66810500D01*
X175806001Y-66709239D01*
X176285541Y-66510607D01*
X176717115Y-66222238D01*
X177084138Y-65855215D01*
X177372507Y-65423641D01*
X177571139Y-64944101D01*
X177672400Y-64435025D01*
X177672400Y-63915975D01*
X177571139Y-63406899D01*
X177372507Y-62927359D01*
X177084138Y-62495785D01*
X176717115Y-62128762D01*
X176285541Y-61840393D01*
X175806001Y-61641761D01*
X175296925Y-61540500D01*
X174777875Y-61540500D01*
X174268799Y-61641761D01*
X173789259Y-61840393D01*
X173357685Y-62128762D01*
X172990662Y-62495785D01*
X172702293Y-62927359D01*
X172503661Y-63406899D01*
X172402400Y-63915975D01*
X167538557Y-63915975D01*
X167607159Y-63870137D01*
X167807037Y-63670259D01*
X167964080Y-63435227D01*
X168072253Y-63174074D01*
X168127400Y-62896835D01*
X168127400Y-62614165D01*
X168072253Y-62336926D01*
X167964080Y-62075773D01*
X167807037Y-61840741D01*
X167607159Y-61640863D01*
X167372127Y-61483820D01*
X167110974Y-61375647D01*
X166833735Y-61320500D01*
X166551065Y-61320500D01*
X166273826Y-61375647D01*
X166012673Y-61483820D01*
X165777641Y-61640863D01*
X165577763Y-61840741D01*
X165420720Y-62075773D01*
X165312547Y-62336926D01*
X165307400Y-62362801D01*
X165302253Y-62336926D01*
X165194080Y-62075773D01*
X165037037Y-61840741D01*
X164837159Y-61640863D01*
X164602127Y-61483820D01*
X164340974Y-61375647D01*
X164063735Y-61320500D01*
X163781065Y-61320500D01*
X163503826Y-61375647D01*
X163242673Y-61483820D01*
X163007641Y-61640863D01*
X162807763Y-61840741D01*
X162650720Y-62075773D01*
X162542547Y-62336926D01*
X162537400Y-62362801D01*
X162532253Y-62336926D01*
X162424080Y-62075773D01*
X162267037Y-61840741D01*
X162067159Y-61640863D01*
X161832127Y-61483820D01*
X161570974Y-61375647D01*
X161293735Y-61320500D01*
X161011065Y-61320500D01*
X160733826Y-61375647D01*
X160472673Y-61483820D01*
X160237641Y-61640863D01*
X160037763Y-61840741D01*
X159880720Y-62075773D01*
X159772547Y-62336926D01*
X159767400Y-62362801D01*
X159762253Y-62336926D01*
X159654080Y-62075773D01*
X159497037Y-61840741D01*
X159297159Y-61640863D01*
X159062127Y-61483820D01*
X158800974Y-61375647D01*
X158523735Y-61320500D01*
X158241065Y-61320500D01*
X157963826Y-61375647D01*
X157702673Y-61483820D01*
X157467641Y-61640863D01*
X157267763Y-61840741D01*
X157110720Y-62075773D01*
X157002547Y-62336926D01*
X156947400Y-62614165D01*
X152163238Y-62614165D01*
X152084138Y-62495785D01*
X151717115Y-62128762D01*
X151285541Y-61840393D01*
X150806001Y-61641761D01*
X150296925Y-61540500D01*
X149777875Y-61540500D01*
X149268799Y-61641761D01*
X148789259Y-61840393D01*
X148357685Y-62128762D01*
X147990662Y-62495785D01*
X147702293Y-62927359D01*
X147503661Y-63406899D01*
X147402400Y-63915975D01*
X130828174Y-63915975D01*
X130386701Y-63474502D01*
X130362898Y-63445498D01*
X130247173Y-63350525D01*
X130115144Y-63279953D01*
X129971883Y-63236496D01*
X129860230Y-63225499D01*
X129860219Y-63225499D01*
X129822897Y-63221823D01*
X129785575Y-63225499D01*
X115718723Y-63225499D01*
X115681400Y-63221823D01*
X115644077Y-63225499D01*
X115644068Y-63225499D01*
X115532415Y-63236496D01*
X115389154Y-63279953D01*
X115257125Y-63350525D01*
X115141400Y-63445498D01*
X115117602Y-63474496D01*
X113524400Y-65067698D01*
X113524400Y-64941240D01*
X113467332Y-64654342D01*
X113355390Y-64384089D01*
X113192875Y-64140868D01*
X112986032Y-63934025D01*
X112742811Y-63771510D01*
X112472558Y-63659568D01*
X112185660Y-63602500D01*
X111893140Y-63602500D01*
X111606242Y-63659568D01*
X111335989Y-63771510D01*
X111092768Y-63934025D01*
X110885925Y-64140868D01*
X110769400Y-64315260D01*
X110652875Y-64140868D01*
X110446032Y-63934025D01*
X110202811Y-63771510D01*
X109932558Y-63659568D01*
X109645660Y-63602500D01*
X109353140Y-63602500D01*
X109066242Y-63659568D01*
X108795989Y-63771510D01*
X108552768Y-63934025D01*
X108345925Y-64140868D01*
X108183410Y-64384089D01*
X108071468Y-64654342D01*
X108014400Y-64941240D01*
X108014400Y-65233760D01*
X108071468Y-65520658D01*
X108183410Y-65790911D01*
X108345925Y-66034132D01*
X108477780Y-66165987D01*
X108405220Y-66187998D01*
X108294906Y-66246963D01*
X108198215Y-66326315D01*
X108118863Y-66423006D01*
X108059898Y-66533320D01*
X108023588Y-66653018D01*
X108011328Y-66777500D01*
X108011328Y-68477500D01*
X108023588Y-68601982D01*
X108059898Y-68721680D01*
X108118863Y-68831994D01*
X108198215Y-68928685D01*
X108294906Y-69008037D01*
X108405220Y-69067002D01*
X108524918Y-69103312D01*
X108649400Y-69115572D01*
X109912671Y-69115572D01*
X117063600Y-76266502D01*
X117087399Y-76295501D01*
X117203124Y-76390474D01*
X117335153Y-76461046D01*
X117478414Y-76504503D01*
X117590067Y-76515500D01*
X117590077Y-76515500D01*
X117627400Y-76519176D01*
X117664723Y-76515500D01*
X120847689Y-76515500D01*
X120743463Y-76619726D01*
X120630195Y-76789244D01*
X120552174Y-76977602D01*
X120512400Y-77177561D01*
X120512400Y-77381439D01*
X120552174Y-77581398D01*
X120630195Y-77769756D01*
X120642051Y-77787500D01*
X120630195Y-77805244D01*
X120552174Y-77993602D01*
X120512400Y-78193561D01*
X120512400Y-78397439D01*
X120552174Y-78597398D01*
X120630195Y-78785756D01*
X120743463Y-78955274D01*
X120787400Y-78999211D01*
X120787401Y-87945480D01*
X120774195Y-87965244D01*
X120696174Y-88153602D01*
X120656400Y-88353561D01*
X120656400Y-88557439D01*
X120696174Y-88757398D01*
X120774195Y-88945756D01*
X120887463Y-89115274D01*
X121031626Y-89259437D01*
X121201144Y-89372705D01*
X121389502Y-89450726D01*
X121589461Y-89490500D01*
X121793339Y-89490500D01*
X121839400Y-89481338D01*
X121839399Y-93072341D01*
X121709144Y-93126295D01*
X121539626Y-93239563D01*
X121395463Y-93383726D01*
X121282195Y-93553244D01*
X121204174Y-93741602D01*
X121164400Y-93941561D01*
X121164400Y-94145439D01*
X121204174Y-94345398D01*
X121282195Y-94533756D01*
X121395463Y-94703274D01*
X121539626Y-94847437D01*
X121709144Y-94960705D01*
X121897502Y-95038726D01*
X122097461Y-95078500D01*
X122301339Y-95078500D01*
X122501298Y-95038726D01*
X122689656Y-94960705D01*
X122859174Y-94847437D01*
X123003337Y-94703274D01*
X123116605Y-94533756D01*
X123194626Y-94345398D01*
X123234400Y-94145439D01*
X123234400Y-94067726D01*
X123304928Y-93935780D01*
X123311468Y-93968658D01*
X123423410Y-94238911D01*
X123585925Y-94482132D01*
X123792768Y-94688975D01*
X123967160Y-94805500D01*
X123792768Y-94922025D01*
X123585925Y-95128868D01*
X123423410Y-95372089D01*
X123311468Y-95642342D01*
X123254400Y-95929240D01*
X123254400Y-96221760D01*
X123311468Y-96508658D01*
X123423410Y-96778911D01*
X123585925Y-97022132D01*
X123792768Y-97228975D01*
X123967160Y-97345500D01*
X123792768Y-97462025D01*
X123585925Y-97668868D01*
X123423410Y-97912089D01*
X123311468Y-98182342D01*
X123254400Y-98469240D01*
X123254400Y-98761760D01*
X123311468Y-99048658D01*
X123423410Y-99318911D01*
X123585925Y-99562132D01*
X123792768Y-99768975D01*
X123967160Y-99885500D01*
X123792768Y-100002025D01*
X123585925Y-100208868D01*
X123423410Y-100452089D01*
X123311468Y-100722342D01*
X123254400Y-101009240D01*
X123254400Y-101301760D01*
X123311468Y-101588658D01*
X123423410Y-101858911D01*
X123585925Y-102102132D01*
X123786293Y-102302500D01*
X115927472Y-102302500D01*
X115927472Y-102287500D01*
X115915212Y-102163018D01*
X115878902Y-102043320D01*
X115819937Y-101933006D01*
X115740585Y-101836315D01*
X115643894Y-101756963D01*
X115533580Y-101697998D01*
X115413882Y-101661688D01*
X115289400Y-101649428D01*
X112789400Y-101649428D01*
X112664918Y-101661688D01*
X112545220Y-101697998D01*
X112434906Y-101756963D01*
X112338215Y-101836315D01*
X112258863Y-101933006D01*
X112199898Y-102043320D01*
X112163588Y-102163018D01*
X112151328Y-102287500D01*
X112151328Y-104087500D01*
X112163588Y-104211982D01*
X112199898Y-104331680D01*
X112258863Y-104441994D01*
X112338215Y-104538685D01*
X112434906Y-104618037D01*
X112545220Y-104677002D01*
X112664918Y-104713312D01*
X112789400Y-104725572D01*
X115289400Y-104725572D01*
X115413882Y-104713312D01*
X115533580Y-104677002D01*
X115643894Y-104618037D01*
X115740585Y-104538685D01*
X115819937Y-104441994D01*
X115878902Y-104331680D01*
X115915212Y-104211982D01*
X115927472Y-104087500D01*
X115927472Y-104072500D01*
X123110821Y-104072500D01*
X119070352Y-108112970D01*
X119036584Y-108140683D01*
X119008871Y-108174451D01*
X119008868Y-108174454D01*
X118925990Y-108275441D01*
X118843812Y-108429187D01*
X118793205Y-108596010D01*
X118776119Y-108769500D01*
X118780401Y-108812979D01*
X118780400Y-112925428D01*
X118165400Y-112925428D01*
X117992146Y-112942492D01*
X117825550Y-112993028D01*
X117672014Y-113075095D01*
X117537438Y-113185538D01*
X117426995Y-113320114D01*
X117344928Y-113473650D01*
X117294392Y-113640246D01*
X117277328Y-113813500D01*
X117277328Y-114913500D01*
X117294392Y-115086754D01*
X117344928Y-115253350D01*
X117426995Y-115406886D01*
X117537438Y-115541462D01*
X117672014Y-115651905D01*
X117825550Y-115733972D01*
X117992146Y-115784508D01*
X118165400Y-115801572D01*
X121165400Y-115801572D01*
X121338654Y-115784508D01*
X121505250Y-115733972D01*
X121658786Y-115651905D01*
X121793362Y-115541462D01*
X121903805Y-115406886D01*
X121985872Y-115253350D01*
X122036408Y-115086754D01*
X122053472Y-114913500D01*
X122053472Y-113813500D01*
X122036408Y-113640246D01*
X121985872Y-113473650D01*
X121903805Y-113320114D01*
X121793362Y-113185538D01*
X121658786Y-113075095D01*
X121505250Y-112993028D01*
X121338654Y-112942492D01*
X121165400Y-112925428D01*
X120550400Y-112925428D01*
X120550400Y-109136078D01*
X123262748Y-106423730D01*
X123311468Y-106668658D01*
X123423410Y-106938911D01*
X123585925Y-107182132D01*
X123717780Y-107313987D01*
X123645220Y-107335998D01*
X123534906Y-107394963D01*
X123438215Y-107474315D01*
X123358863Y-107571006D01*
X123299898Y-107681320D01*
X123263588Y-107801018D01*
X123251328Y-107925500D01*
X123251328Y-109625500D01*
X123263588Y-109749982D01*
X123299898Y-109869680D01*
X123358863Y-109979994D01*
X123438215Y-110076685D01*
X123534906Y-110156037D01*
X123645220Y-110215002D01*
X123764918Y-110251312D01*
X123889400Y-110263572D01*
X125589400Y-110263572D01*
X125713882Y-110251312D01*
X125833580Y-110215002D01*
X125943894Y-110156037D01*
X126040585Y-110076685D01*
X126119937Y-109979994D01*
X126178902Y-109869680D01*
X126215212Y-109749982D01*
X126227472Y-109625500D01*
X126227472Y-109535500D01*
X127333745Y-109535500D01*
X127404865Y-109606620D01*
X127633673Y-109759505D01*
X127887910Y-109864814D01*
X128157808Y-109918500D01*
X128432992Y-109918500D01*
X128702890Y-109864814D01*
X128957127Y-109759505D01*
X129185935Y-109606620D01*
X129380520Y-109412035D01*
X129533405Y-109183227D01*
X129638714Y-108928990D01*
X129692400Y-108659092D01*
X129692400Y-108383908D01*
X129638714Y-108114010D01*
X129533405Y-107859773D01*
X129380520Y-107630965D01*
X129185935Y-107436380D01*
X128957127Y-107283495D01*
X128879885Y-107251500D01*
X128957127Y-107219505D01*
X129185935Y-107066620D01*
X129380520Y-106872035D01*
X129533405Y-106643227D01*
X129638714Y-106388990D01*
X129692400Y-106119092D01*
X129692400Y-105843908D01*
X129638714Y-105574010D01*
X129596253Y-105471500D01*
X130180078Y-105471500D01*
X130217400Y-105475176D01*
X130254722Y-105471500D01*
X130254733Y-105471500D01*
X130336644Y-105463432D01*
X130348174Y-105521398D01*
X130426195Y-105709756D01*
X130539463Y-105879274D01*
X130583401Y-105923212D01*
X130583400Y-113767140D01*
X130579724Y-113804462D01*
X130583400Y-113841784D01*
X130583400Y-113841794D01*
X130594397Y-113953447D01*
X130633316Y-114081747D01*
X130637854Y-114096708D01*
X130708426Y-114228738D01*
X130709536Y-114230090D01*
X130803399Y-114344463D01*
X130832403Y-114368266D01*
X140779136Y-124315000D01*
X131154397Y-124315000D01*
X131439699Y-124029698D01*
X131703772Y-123634484D01*
X131885669Y-123195346D01*
X131978400Y-122729160D01*
X131978400Y-122253840D01*
X131885669Y-121787654D01*
X131703772Y-121348516D01*
X131439699Y-120953302D01*
X131103598Y-120617201D01*
X130708384Y-120353128D01*
X130269246Y-120171231D01*
X129803060Y-120078500D01*
X129327740Y-120078500D01*
X128861554Y-120171231D01*
X128422416Y-120353128D01*
X128027202Y-120617201D01*
X127691101Y-120953302D01*
X127427028Y-121348516D01*
X127245131Y-121787654D01*
X127152400Y-122253840D01*
X127152400Y-122729160D01*
X127245131Y-123195346D01*
X127427028Y-123634484D01*
X127691101Y-124029698D01*
X127976403Y-124315000D01*
X97770502Y-124315000D01*
X98268272Y-123982401D01*
X98982401Y-123268272D01*
X99543488Y-122428545D01*
X99929972Y-121495491D01*
X100127000Y-120504965D01*
X100127000Y-120234523D01*
X100306400Y-120234523D01*
X100306400Y-120694477D01*
X100396133Y-121145594D01*
X100572150Y-121570537D01*
X100827687Y-121952976D01*
X101152924Y-122278213D01*
X101535363Y-122533750D01*
X101960306Y-122709767D01*
X102411423Y-122799500D01*
X102871377Y-122799500D01*
X103322494Y-122709767D01*
X103747437Y-122533750D01*
X104129876Y-122278213D01*
X104455113Y-121952976D01*
X104710650Y-121570537D01*
X104886667Y-121145594D01*
X104976400Y-120694477D01*
X104976400Y-120234523D01*
X105386400Y-120234523D01*
X105386400Y-120694477D01*
X105476133Y-121145594D01*
X105652150Y-121570537D01*
X105907687Y-121952976D01*
X106232924Y-122278213D01*
X106615363Y-122533750D01*
X107040306Y-122709767D01*
X107491423Y-122799500D01*
X107951377Y-122799500D01*
X108402494Y-122709767D01*
X108827437Y-122533750D01*
X109209876Y-122278213D01*
X109535113Y-121952976D01*
X109790650Y-121570537D01*
X109884478Y-121344014D01*
X119848400Y-121344014D01*
X119848400Y-121606986D01*
X119899704Y-121864905D01*
X120000339Y-122107859D01*
X120146438Y-122326513D01*
X120332387Y-122512462D01*
X120551041Y-122658561D01*
X120793995Y-122759196D01*
X121051914Y-122810500D01*
X121314886Y-122810500D01*
X121572805Y-122759196D01*
X121815759Y-122658561D01*
X122034413Y-122512462D01*
X122150106Y-122396769D01*
X122981736Y-122396769D01*
X123041197Y-122630537D01*
X123279642Y-122741434D01*
X123535140Y-122803683D01*
X123797873Y-122814890D01*
X124057744Y-122774625D01*
X124304766Y-122684435D01*
X124405603Y-122630537D01*
X124465064Y-122396769D01*
X123723400Y-121655105D01*
X122981736Y-122396769D01*
X122150106Y-122396769D01*
X122220362Y-122326513D01*
X122366461Y-122107859D01*
X122455021Y-121894056D01*
X122514465Y-122056866D01*
X122568363Y-122157703D01*
X122802131Y-122217164D01*
X123543795Y-121475500D01*
X123903005Y-121475500D01*
X124644669Y-122217164D01*
X124878437Y-122157703D01*
X124989334Y-121919258D01*
X125051583Y-121663760D01*
X125062790Y-121401027D01*
X125022525Y-121141156D01*
X124932335Y-120894134D01*
X124878437Y-120793297D01*
X124644669Y-120733836D01*
X123903005Y-121475500D01*
X123543795Y-121475500D01*
X122802131Y-120733836D01*
X122568363Y-120793297D01*
X122457466Y-121031742D01*
X122452694Y-121051327D01*
X122366461Y-120843141D01*
X122220362Y-120624487D01*
X122150106Y-120554231D01*
X122981736Y-120554231D01*
X123723400Y-121295895D01*
X124465064Y-120554231D01*
X124405603Y-120320463D01*
X124167158Y-120209566D01*
X123911660Y-120147317D01*
X123648927Y-120136110D01*
X123389056Y-120176375D01*
X123142034Y-120266565D01*
X123041197Y-120320463D01*
X122981736Y-120554231D01*
X122150106Y-120554231D01*
X122034413Y-120438538D01*
X121815759Y-120292439D01*
X121572805Y-120191804D01*
X121314886Y-120140500D01*
X121051914Y-120140500D01*
X120793995Y-120191804D01*
X120551041Y-120292439D01*
X120332387Y-120438538D01*
X120146438Y-120624487D01*
X120000339Y-120843141D01*
X119899704Y-121086095D01*
X119848400Y-121344014D01*
X109884478Y-121344014D01*
X109966667Y-121145594D01*
X110056400Y-120694477D01*
X110056400Y-120234523D01*
X109966667Y-119783406D01*
X109790650Y-119358463D01*
X109535113Y-118976024D01*
X109209876Y-118650787D01*
X108827437Y-118395250D01*
X108402494Y-118219233D01*
X107951377Y-118129500D01*
X107491423Y-118129500D01*
X107040306Y-118219233D01*
X106615363Y-118395250D01*
X106232924Y-118650787D01*
X105907687Y-118976024D01*
X105652150Y-119358463D01*
X105476133Y-119783406D01*
X105386400Y-120234523D01*
X104976400Y-120234523D01*
X104886667Y-119783406D01*
X104710650Y-119358463D01*
X104455113Y-118976024D01*
X104129876Y-118650787D01*
X103747437Y-118395250D01*
X103322494Y-118219233D01*
X102871377Y-118129500D01*
X102411423Y-118129500D01*
X101960306Y-118219233D01*
X101535363Y-118395250D01*
X101152924Y-118650787D01*
X100827687Y-118976024D01*
X100572150Y-119358463D01*
X100396133Y-119783406D01*
X100306400Y-120234523D01*
X100127000Y-120234523D01*
X100127000Y-119495035D01*
X99929972Y-118504509D01*
X99543488Y-117571455D01*
X98982401Y-116731728D01*
X98268272Y-116017599D01*
X97428545Y-115456512D01*
X96495491Y-115070028D01*
X95504965Y-114873000D01*
X94495035Y-114873000D01*
X93504509Y-115070028D01*
X92571455Y-115456512D01*
X91731728Y-116017599D01*
X91017599Y-116731728D01*
X90685000Y-117229498D01*
X90685000Y-103060500D01*
X91106728Y-103060500D01*
X91106728Y-106870500D01*
X91118988Y-106994982D01*
X91155298Y-107114680D01*
X91214263Y-107224994D01*
X91293615Y-107321685D01*
X91390306Y-107401037D01*
X91500620Y-107460002D01*
X91620318Y-107496312D01*
X91744800Y-107508572D01*
X95157194Y-107508572D01*
X100068170Y-112419549D01*
X100095883Y-112453317D01*
X100129651Y-112481030D01*
X100129653Y-112481032D01*
X100181401Y-112523501D01*
X96598363Y-112523501D01*
X96610400Y-112462986D01*
X96610400Y-112200014D01*
X96559096Y-111942095D01*
X96458461Y-111699141D01*
X96312362Y-111480487D01*
X96126413Y-111294538D01*
X95907759Y-111148439D01*
X95664805Y-111047804D01*
X95406886Y-110996500D01*
X95143914Y-110996500D01*
X94885995Y-111047804D01*
X94643041Y-111148439D01*
X94424387Y-111294538D01*
X94238438Y-111480487D01*
X94092339Y-111699141D01*
X94005400Y-111909030D01*
X93918461Y-111699141D01*
X93772362Y-111480487D01*
X93586413Y-111294538D01*
X93367759Y-111148439D01*
X93124805Y-111047804D01*
X92866886Y-110996500D01*
X92603914Y-110996500D01*
X92345995Y-111047804D01*
X92103041Y-111148439D01*
X91884387Y-111294538D01*
X91698438Y-111480487D01*
X91552339Y-111699141D01*
X91451704Y-111942095D01*
X91400400Y-112200014D01*
X91400400Y-112462986D01*
X91451704Y-112720905D01*
X91552339Y-112963859D01*
X91698438Y-113182513D01*
X91884387Y-113368462D01*
X92103041Y-113514561D01*
X92345995Y-113615196D01*
X92603914Y-113666500D01*
X92818821Y-113666500D01*
X93155871Y-114003550D01*
X93183584Y-114037318D01*
X93217352Y-114065031D01*
X93217354Y-114065033D01*
X93288853Y-114123711D01*
X93318342Y-114147912D01*
X93472088Y-114230090D01*
X93638911Y-114280696D01*
X93768924Y-114293501D01*
X93768934Y-114293501D01*
X93812400Y-114297782D01*
X93855866Y-114293501D01*
X104568930Y-114293501D01*
X104612399Y-114297782D01*
X104655868Y-114293501D01*
X104655876Y-114293501D01*
X104785889Y-114280696D01*
X104952712Y-114230090D01*
X105106458Y-114147912D01*
X105241216Y-114037318D01*
X105268933Y-114003545D01*
X105824449Y-113448030D01*
X105858216Y-113420318D01*
X105900774Y-113368462D01*
X105950745Y-113307572D01*
X107296400Y-113307572D01*
X107420882Y-113295312D01*
X107540580Y-113259002D01*
X107650894Y-113200037D01*
X107747585Y-113120685D01*
X107826937Y-113023994D01*
X107885902Y-112913680D01*
X107922212Y-112793982D01*
X107930532Y-112709500D01*
X111159822Y-112709500D01*
X111807294Y-113356972D01*
X111744928Y-113473650D01*
X111694392Y-113640246D01*
X111677328Y-113813500D01*
X111677328Y-114913500D01*
X111694392Y-115086754D01*
X111744928Y-115253350D01*
X111826995Y-115406886D01*
X111937438Y-115541462D01*
X112072014Y-115651905D01*
X112225550Y-115733972D01*
X112392146Y-115784508D01*
X112565400Y-115801572D01*
X115565400Y-115801572D01*
X115738654Y-115784508D01*
X115905250Y-115733972D01*
X116058786Y-115651905D01*
X116193362Y-115541462D01*
X116303805Y-115406886D01*
X116385872Y-115253350D01*
X116436408Y-115086754D01*
X116453472Y-114913500D01*
X116453472Y-113813500D01*
X116436408Y-113640246D01*
X116385872Y-113473650D01*
X116303805Y-113320114D01*
X116193362Y-113185538D01*
X116058786Y-113075095D01*
X115905250Y-112993028D01*
X115738654Y-112942492D01*
X115565400Y-112925428D01*
X113878907Y-112925428D01*
X112182934Y-111229456D01*
X112155217Y-111195683D01*
X112020459Y-111085089D01*
X111866713Y-111002911D01*
X111699890Y-110952305D01*
X111569877Y-110939500D01*
X111569869Y-110939500D01*
X111526400Y-110935219D01*
X111482931Y-110939500D01*
X107930532Y-110939500D01*
X107922212Y-110855018D01*
X107885902Y-110735320D01*
X107826937Y-110625006D01*
X107747585Y-110528315D01*
X107650894Y-110448963D01*
X107540580Y-110389998D01*
X107420882Y-110353688D01*
X107296400Y-110341428D01*
X106114399Y-110341428D01*
X106114399Y-105850500D01*
X108217931Y-105850500D01*
X108261400Y-105854781D01*
X108304869Y-105850500D01*
X108304877Y-105850500D01*
X108434890Y-105837695D01*
X108601713Y-105787089D01*
X108755459Y-105704911D01*
X108890217Y-105594317D01*
X108917934Y-105560544D01*
X109752906Y-104725572D01*
X111289400Y-104725572D01*
X111413882Y-104713312D01*
X111533580Y-104677002D01*
X111643894Y-104618037D01*
X111740585Y-104538685D01*
X111819937Y-104441994D01*
X111878902Y-104331680D01*
X111915212Y-104211982D01*
X111927472Y-104087500D01*
X111927472Y-102287500D01*
X111915212Y-102163018D01*
X111878902Y-102043320D01*
X111819937Y-101933006D01*
X111740585Y-101836315D01*
X111643894Y-101756963D01*
X111533580Y-101697998D01*
X111413882Y-101661688D01*
X111289400Y-101649428D01*
X109854900Y-101649428D01*
X109854900Y-94720530D01*
X109985362Y-94613462D01*
X110007400Y-94586609D01*
X110029438Y-94613462D01*
X110164013Y-94723905D01*
X110317549Y-94805972D01*
X110484145Y-94856508D01*
X110657399Y-94873572D01*
X111182401Y-94873572D01*
X111355655Y-94856508D01*
X111522251Y-94805972D01*
X111675787Y-94723905D01*
X111810362Y-94613462D01*
X111920805Y-94478887D01*
X112002872Y-94325351D01*
X112011927Y-94295500D01*
X113081227Y-94295500D01*
X113091453Y-94329209D01*
X113172942Y-94481664D01*
X113282608Y-94615292D01*
X113416236Y-94724958D01*
X113568691Y-94806447D01*
X113734115Y-94856628D01*
X113906150Y-94873572D01*
X114393650Y-94873572D01*
X114565685Y-94856628D01*
X114731109Y-94806447D01*
X114883564Y-94724958D01*
X115017192Y-94615292D01*
X115087400Y-94529744D01*
X115157608Y-94615292D01*
X115291236Y-94724958D01*
X115443691Y-94806447D01*
X115609115Y-94856628D01*
X115781150Y-94873572D01*
X116268650Y-94873572D01*
X116440685Y-94856628D01*
X116606109Y-94806447D01*
X116758564Y-94724958D01*
X116892192Y-94615292D01*
X117001858Y-94481664D01*
X117048865Y-94393719D01*
X117137144Y-94452705D01*
X117325502Y-94530726D01*
X117525461Y-94570500D01*
X117729339Y-94570500D01*
X117929298Y-94530726D01*
X118117656Y-94452705D01*
X118287174Y-94339437D01*
X118431337Y-94195274D01*
X118544605Y-94025756D01*
X118622626Y-93837398D01*
X118662400Y-93637439D01*
X118662400Y-93433561D01*
X118622626Y-93233602D01*
X118544605Y-93045244D01*
X118431337Y-92875726D01*
X118287174Y-92731563D01*
X118117656Y-92618295D01*
X117929298Y-92540274D01*
X117729339Y-92500500D01*
X117525461Y-92500500D01*
X117325502Y-92540274D01*
X117137144Y-92618295D01*
X117048865Y-92677281D01*
X117001858Y-92589336D01*
X116892192Y-92455708D01*
X116758564Y-92346042D01*
X116606109Y-92264553D01*
X116440685Y-92214372D01*
X116268650Y-92197428D01*
X115781150Y-92197428D01*
X115609115Y-92214372D01*
X115443691Y-92264553D01*
X115291236Y-92346042D01*
X115157608Y-92455708D01*
X115087400Y-92541256D01*
X115017192Y-92455708D01*
X114883564Y-92346042D01*
X114731109Y-92264553D01*
X114565685Y-92214372D01*
X114393650Y-92197428D01*
X113906150Y-92197428D01*
X113734115Y-92214372D01*
X113568691Y-92264553D01*
X113416236Y-92346042D01*
X113282608Y-92455708D01*
X113172942Y-92589336D01*
X113091453Y-92741791D01*
X113081227Y-92775500D01*
X112011927Y-92775500D01*
X112002872Y-92745649D01*
X111920805Y-92592113D01*
X111810362Y-92457538D01*
X111675787Y-92347095D01*
X111522251Y-92265028D01*
X111355655Y-92214492D01*
X111182401Y-92197428D01*
X110657399Y-92197428D01*
X110484145Y-92214492D01*
X110317549Y-92265028D01*
X110164013Y-92347095D01*
X110029438Y-92457538D01*
X110007400Y-92484391D01*
X109985362Y-92457538D01*
X109850787Y-92347095D01*
X109697251Y-92265028D01*
X109530655Y-92214492D01*
X109357401Y-92197428D01*
X108832399Y-92197428D01*
X108659145Y-92214492D01*
X108492549Y-92265028D01*
X108339013Y-92347095D01*
X108204438Y-92457538D01*
X108093995Y-92592113D01*
X108011928Y-92745649D01*
X107961392Y-92912245D01*
X107944328Y-93085499D01*
X107944328Y-93985501D01*
X107961392Y-94158755D01*
X108011928Y-94325351D01*
X108093995Y-94478887D01*
X108204438Y-94613462D01*
X108334900Y-94720530D01*
X108334901Y-101840353D01*
X108258863Y-101933006D01*
X108199898Y-102043320D01*
X108163588Y-102163018D01*
X108151328Y-102287500D01*
X108151328Y-103823994D01*
X107894822Y-104080500D01*
X105478865Y-104080500D01*
X105435399Y-104076219D01*
X105391933Y-104080500D01*
X103000072Y-104080500D01*
X103000072Y-103060500D01*
X102987812Y-102936018D01*
X102951502Y-102816320D01*
X102892537Y-102706006D01*
X102813185Y-102609315D01*
X102716494Y-102529963D01*
X102606180Y-102470998D01*
X102486482Y-102434688D01*
X102362000Y-102422428D01*
X98120200Y-102422428D01*
X97995718Y-102434688D01*
X97876020Y-102470998D01*
X97765706Y-102529963D01*
X97669015Y-102609315D01*
X97589663Y-102706006D01*
X97530698Y-102816320D01*
X97494388Y-102936018D01*
X97482128Y-103060500D01*
X97482128Y-106870500D01*
X97494388Y-106994982D01*
X97530698Y-107114680D01*
X97589663Y-107224994D01*
X97669015Y-107321685D01*
X97765706Y-107401037D01*
X97876020Y-107460002D01*
X97995718Y-107496312D01*
X98120200Y-107508572D01*
X102362000Y-107508572D01*
X102486482Y-107496312D01*
X102606180Y-107460002D01*
X102716494Y-107401037D01*
X102813185Y-107321685D01*
X102892537Y-107224994D01*
X102951502Y-107114680D01*
X102987812Y-106994982D01*
X103000072Y-106870500D01*
X103000072Y-105850500D01*
X104344400Y-105850500D01*
X104344399Y-110401914D01*
X104343100Y-110401376D01*
X104057167Y-110344500D01*
X103765633Y-110344500D01*
X103479700Y-110401376D01*
X103210357Y-110512941D01*
X102967955Y-110674909D01*
X102761809Y-110881055D01*
X102722757Y-110939500D01*
X101091279Y-110939500D01*
X96624672Y-106472894D01*
X96624672Y-103060500D01*
X96612412Y-102936018D01*
X96576102Y-102816320D01*
X96517137Y-102706006D01*
X96437785Y-102609315D01*
X96341094Y-102529963D01*
X96230780Y-102470998D01*
X96111082Y-102434688D01*
X95986600Y-102422428D01*
X91744800Y-102422428D01*
X91620318Y-102434688D01*
X91500620Y-102470998D01*
X91390306Y-102529963D01*
X91293615Y-102609315D01*
X91214263Y-102706006D01*
X91155298Y-102816320D01*
X91118988Y-102936018D01*
X91106728Y-103060500D01*
X90685000Y-103060500D01*
X90685000Y-92838467D01*
X96434400Y-92838467D01*
X96434400Y-93160533D01*
X96497232Y-93476412D01*
X96620482Y-93773963D01*
X96799413Y-94041752D01*
X97027148Y-94269487D01*
X97294937Y-94448418D01*
X97592488Y-94571668D01*
X97908367Y-94634500D01*
X98230433Y-94634500D01*
X98546312Y-94571668D01*
X98843863Y-94448418D01*
X99111652Y-94269487D01*
X99339387Y-94041752D01*
X99518318Y-93773963D01*
X99641568Y-93476412D01*
X99704400Y-93160533D01*
X99704400Y-92838467D01*
X99641568Y-92522588D01*
X99518318Y-92225037D01*
X99339387Y-91957248D01*
X99111652Y-91729513D01*
X98843863Y-91550582D01*
X98546312Y-91427332D01*
X98230433Y-91364500D01*
X97908367Y-91364500D01*
X97592488Y-91427332D01*
X97294937Y-91550582D01*
X97027148Y-91729513D01*
X96799413Y-91957248D01*
X96620482Y-92225037D01*
X96497232Y-92522588D01*
X96434400Y-92838467D01*
X90685000Y-92838467D01*
X90685000Y-89338467D01*
X96434400Y-89338467D01*
X96434400Y-89660533D01*
X96497232Y-89976412D01*
X96620482Y-90273963D01*
X96799413Y-90541752D01*
X97027148Y-90769487D01*
X97294937Y-90948418D01*
X97592488Y-91071668D01*
X97908367Y-91134500D01*
X98230433Y-91134500D01*
X98546312Y-91071668D01*
X98843863Y-90948418D01*
X99111652Y-90769487D01*
X99339387Y-90541752D01*
X99443750Y-90385561D01*
X106940400Y-90385561D01*
X106940400Y-90589439D01*
X106980174Y-90789398D01*
X107058195Y-90977756D01*
X107171463Y-91147274D01*
X107315626Y-91291437D01*
X107485144Y-91404705D01*
X107673502Y-91482726D01*
X107873461Y-91522500D01*
X108077339Y-91522500D01*
X108277298Y-91482726D01*
X108465656Y-91404705D01*
X108635174Y-91291437D01*
X108679111Y-91247500D01*
X110732078Y-91247500D01*
X110769400Y-91251176D01*
X110806722Y-91247500D01*
X110806733Y-91247500D01*
X110812855Y-91246897D01*
X110921461Y-91268500D01*
X111125339Y-91268500D01*
X111325298Y-91228726D01*
X111513656Y-91150705D01*
X111683174Y-91037437D01*
X111827337Y-90893274D01*
X111940605Y-90723756D01*
X112018626Y-90535398D01*
X112058400Y-90335439D01*
X112058400Y-90131561D01*
X112018626Y-89931602D01*
X111940605Y-89743244D01*
X111827337Y-89573726D01*
X111683174Y-89429563D01*
X111513656Y-89316295D01*
X111325298Y-89238274D01*
X111125339Y-89198500D01*
X110921461Y-89198500D01*
X110721502Y-89238274D01*
X110533144Y-89316295D01*
X110363626Y-89429563D01*
X110219463Y-89573726D01*
X110116715Y-89727500D01*
X108679111Y-89727500D01*
X108635174Y-89683563D01*
X108465656Y-89570295D01*
X108277298Y-89492274D01*
X108077339Y-89452500D01*
X107873461Y-89452500D01*
X107673502Y-89492274D01*
X107485144Y-89570295D01*
X107315626Y-89683563D01*
X107171463Y-89827726D01*
X107058195Y-89997244D01*
X106980174Y-90185602D01*
X106940400Y-90385561D01*
X99443750Y-90385561D01*
X99518318Y-90273963D01*
X99641568Y-89976412D01*
X99704400Y-89660533D01*
X99704400Y-89338467D01*
X99641568Y-89022588D01*
X99518318Y-88725037D01*
X99339387Y-88457248D01*
X99111652Y-88229513D01*
X98843863Y-88050582D01*
X98546312Y-87927332D01*
X98230433Y-87864500D01*
X97908367Y-87864500D01*
X97592488Y-87927332D01*
X97294937Y-88050582D01*
X97027148Y-88229513D01*
X96799413Y-88457248D01*
X96620482Y-88725037D01*
X96497232Y-89022588D01*
X96434400Y-89338467D01*
X90685000Y-89338467D01*
X90685000Y-74550467D01*
X96434400Y-74550467D01*
X96434400Y-74872533D01*
X96497232Y-75188412D01*
X96620482Y-75485963D01*
X96799413Y-75753752D01*
X97027148Y-75981487D01*
X97294937Y-76160418D01*
X97592488Y-76283668D01*
X97908367Y-76346500D01*
X98230433Y-76346500D01*
X98546312Y-76283668D01*
X98843863Y-76160418D01*
X99111652Y-75981487D01*
X99339387Y-75753752D01*
X99518318Y-75485963D01*
X99641568Y-75188412D01*
X99704400Y-74872533D01*
X99704400Y-74550467D01*
X99641568Y-74234588D01*
X99518318Y-73937037D01*
X99339387Y-73669248D01*
X99111652Y-73441513D01*
X98843863Y-73262582D01*
X98546312Y-73139332D01*
X98230433Y-73076500D01*
X97908367Y-73076500D01*
X97592488Y-73139332D01*
X97294937Y-73262582D01*
X97027148Y-73441513D01*
X96799413Y-73669248D01*
X96620482Y-73937037D01*
X96497232Y-74234588D01*
X96434400Y-74550467D01*
X90685000Y-74550467D01*
X90685000Y-71050467D01*
X96434400Y-71050467D01*
X96434400Y-71372533D01*
X96497232Y-71688412D01*
X96620482Y-71985963D01*
X96799413Y-72253752D01*
X97027148Y-72481487D01*
X97294937Y-72660418D01*
X97592488Y-72783668D01*
X97908367Y-72846500D01*
X98230433Y-72846500D01*
X98546312Y-72783668D01*
X98843863Y-72660418D01*
X99111652Y-72481487D01*
X99339387Y-72253752D01*
X99518318Y-71985963D01*
X99641568Y-71688412D01*
X99704400Y-71372533D01*
X99704400Y-71050467D01*
X99641568Y-70734588D01*
X99518318Y-70437037D01*
X99339387Y-70169248D01*
X99111652Y-69941513D01*
X98843863Y-69762582D01*
X98546312Y-69639332D01*
X98230433Y-69576500D01*
X97908367Y-69576500D01*
X97592488Y-69639332D01*
X97294937Y-69762582D01*
X97027148Y-69941513D01*
X96799413Y-70169248D01*
X96620482Y-70437037D01*
X96497232Y-70734588D01*
X96434400Y-71050467D01*
X90685000Y-71050467D01*
X90685000Y-62770502D01*
X91017599Y-63268272D01*
X91731728Y-63982401D01*
X92571455Y-64543488D01*
X93504509Y-64929972D01*
X94495035Y-65127000D01*
X95504965Y-65127000D01*
X96495491Y-64929972D01*
X97428545Y-64543488D01*
X98268272Y-63982401D01*
X98982401Y-63268272D01*
X99543488Y-62428545D01*
X99929972Y-61495491D01*
X100127000Y-60504965D01*
X100127000Y-59495035D01*
X100080815Y-59262843D01*
X128727200Y-59262843D01*
X128727200Y-59728155D01*
X128817978Y-60184527D01*
X128996045Y-60614420D01*
X129254559Y-61001314D01*
X129583585Y-61330340D01*
X129970479Y-61588854D01*
X130400372Y-61766921D01*
X130856744Y-61857699D01*
X131322056Y-61857699D01*
X131778428Y-61766921D01*
X132208321Y-61588854D01*
X132595215Y-61330340D01*
X132924241Y-61001314D01*
X133182755Y-60614420D01*
X133360822Y-60184527D01*
X133451600Y-59728155D01*
X133451600Y-59262843D01*
X138887200Y-59262843D01*
X138887200Y-59728155D01*
X138977978Y-60184527D01*
X139156045Y-60614420D01*
X139414559Y-61001314D01*
X139743585Y-61330340D01*
X140130479Y-61588854D01*
X140560372Y-61766921D01*
X141016744Y-61857699D01*
X141482056Y-61857699D01*
X141938428Y-61766921D01*
X142368321Y-61588854D01*
X142755215Y-61330340D01*
X143084241Y-61001314D01*
X143342755Y-60614420D01*
X143520822Y-60184527D01*
X143611600Y-59728155D01*
X143611600Y-59262843D01*
X143520822Y-58806471D01*
X143342755Y-58376578D01*
X143084241Y-57989684D01*
X142755215Y-57660658D01*
X142368321Y-57402144D01*
X141938428Y-57224077D01*
X141482056Y-57133299D01*
X141016744Y-57133299D01*
X140560372Y-57224077D01*
X140130479Y-57402144D01*
X139743585Y-57660658D01*
X139414559Y-57989684D01*
X139156045Y-58376578D01*
X138977978Y-58806471D01*
X138887200Y-59262843D01*
X133451600Y-59262843D01*
X133360822Y-58806471D01*
X133182755Y-58376578D01*
X132924241Y-57989684D01*
X132595215Y-57660658D01*
X132208321Y-57402144D01*
X131778428Y-57224077D01*
X131322056Y-57133299D01*
X130856744Y-57133299D01*
X130400372Y-57224077D01*
X129970479Y-57402144D01*
X129583585Y-57660658D01*
X129254559Y-57989684D01*
X128996045Y-58376578D01*
X128817978Y-58806471D01*
X128727200Y-59262843D01*
X100080815Y-59262843D01*
X99929972Y-58504509D01*
X99543488Y-57571455D01*
X98982401Y-56731728D01*
X98268272Y-56017599D01*
X97770502Y-55685000D01*
X182229498Y-55685000D01*
X181731728Y-56017599D01*
G37*
G04 #@! TD.AperFunction*
D30*
X175076400Y-99777267D02*
X175133276Y-100063200D01*
X175244841Y-100332543D01*
X175406809Y-100574945D01*
X175612955Y-100781091D01*
X175855357Y-100943059D01*
X176124700Y-101054624D01*
X176410633Y-101111500D01*
X176702167Y-101111500D01*
X176893401Y-101073461D01*
X176893401Y-105260428D01*
X175711400Y-105260428D01*
X175586918Y-105272688D01*
X175467220Y-105308998D01*
X175356906Y-105367963D01*
X175260215Y-105447315D01*
X175180863Y-105544006D01*
X175121898Y-105654320D01*
X175085588Y-105774018D01*
X175073328Y-105898500D01*
X175073328Y-107588500D01*
X175085588Y-107712982D01*
X175121898Y-107832680D01*
X175180863Y-107942994D01*
X175260215Y-108039685D01*
X175356906Y-108119037D01*
X175467220Y-108178002D01*
X175545205Y-108201659D01*
X175406809Y-108340055D01*
X175244841Y-108582457D01*
X175133276Y-108851800D01*
X175076400Y-109137733D01*
X175076400Y-109429267D01*
X175133276Y-109715200D01*
X175244841Y-109984543D01*
X175406809Y-110226945D01*
X175612955Y-110433091D01*
X175793160Y-110553500D01*
X175612955Y-110673909D01*
X175406809Y-110880055D01*
X175244841Y-111122457D01*
X175133276Y-111391800D01*
X175076400Y-111677733D01*
X175076400Y-111969267D01*
X175133276Y-112255200D01*
X175244841Y-112524543D01*
X175406809Y-112766945D01*
X175612955Y-112973091D01*
X175796400Y-113095665D01*
X175796401Y-117883168D01*
X175792724Y-117920500D01*
X175796401Y-117957833D01*
X175805132Y-118046474D01*
X175807398Y-118069485D01*
X175850854Y-118212746D01*
X175921426Y-118344776D01*
X175978119Y-118413856D01*
X176016400Y-118460501D01*
X176045398Y-118484299D01*
X177273755Y-119712657D01*
X177252400Y-119820014D01*
X177252400Y-120082986D01*
X177303704Y-120340905D01*
X177404339Y-120583859D01*
X177550438Y-120802513D01*
X177736387Y-120988462D01*
X177955041Y-121134561D01*
X178164930Y-121221500D01*
X177955041Y-121308439D01*
X177736387Y-121454538D01*
X177550438Y-121640487D01*
X177404339Y-121859141D01*
X177303704Y-122102095D01*
X177252400Y-122360014D01*
X177252400Y-122622986D01*
X177303704Y-122880905D01*
X177404339Y-123123859D01*
X177550438Y-123342513D01*
X177736387Y-123528462D01*
X177955041Y-123674561D01*
X178197995Y-123775196D01*
X178455914Y-123826500D01*
X178718886Y-123826500D01*
X178976805Y-123775196D01*
X179219759Y-123674561D01*
X179438413Y-123528462D01*
X179624362Y-123342513D01*
X179770461Y-123123859D01*
X179871096Y-122880905D01*
X179922400Y-122622986D01*
X179922400Y-122360014D01*
X179871096Y-122102095D01*
X179770461Y-121859141D01*
X179624362Y-121640487D01*
X179438413Y-121454538D01*
X179219759Y-121308439D01*
X179009870Y-121221500D01*
X179219759Y-121134561D01*
X179438413Y-120988462D01*
X179624362Y-120802513D01*
X179770461Y-120583859D01*
X179871096Y-120340905D01*
X179873000Y-120331333D01*
X179873000Y-120504965D01*
X180070028Y-121495491D01*
X180456512Y-122428545D01*
X181017599Y-123268272D01*
X181731728Y-123982401D01*
X182229498Y-124315000D01*
X175482333Y-124315000D01*
X175508872Y-124265350D01*
X175559408Y-124098754D01*
X175576472Y-123925500D01*
X175576472Y-121725500D01*
X175559408Y-121552246D01*
X175508872Y-121385650D01*
X175426805Y-121232114D01*
X175316362Y-121097538D01*
X175181786Y-120987095D01*
X175028250Y-120905028D01*
X174861654Y-120854492D01*
X174688400Y-120837428D01*
X174188400Y-120837428D01*
X174015146Y-120854492D01*
X173848550Y-120905028D01*
X173695014Y-120987095D01*
X173560438Y-121097538D01*
X173449995Y-121232114D01*
X173367928Y-121385650D01*
X173317392Y-121552246D01*
X173300328Y-121725500D01*
X173300328Y-123925500D01*
X173317392Y-124098754D01*
X173367928Y-124265350D01*
X173394467Y-124315000D01*
X169479653Y-124315000D01*
X172681083Y-121113572D01*
X172738400Y-121113572D01*
X172892145Y-121098429D01*
X173039982Y-121053584D01*
X173176229Y-120980758D01*
X173295651Y-120882751D01*
X173393658Y-120763329D01*
X173466484Y-120627082D01*
X173511329Y-120479245D01*
X173526472Y-120325500D01*
X173526472Y-118925500D01*
X173511329Y-118771755D01*
X173466484Y-118623918D01*
X173393658Y-118487671D01*
X173295651Y-118368249D01*
X173176229Y-118270242D01*
X173039982Y-118197416D01*
X172892145Y-118152571D01*
X172738400Y-118137428D01*
X172438400Y-118137428D01*
X172284655Y-118152571D01*
X172136818Y-118197416D01*
X172000571Y-118270242D01*
X171963400Y-118300747D01*
X171926229Y-118270242D01*
X171789982Y-118197416D01*
X171642145Y-118152571D01*
X171488400Y-118137428D01*
X171188400Y-118137428D01*
X171034655Y-118152571D01*
X170886818Y-118197416D01*
X170764575Y-118262756D01*
X170742894Y-118244963D01*
X170632580Y-118185998D01*
X170512882Y-118149688D01*
X170388400Y-118137428D01*
X170374150Y-118140500D01*
X170215400Y-118299250D01*
X170215400Y-119498500D01*
X170235400Y-119498500D01*
X170235400Y-119752500D01*
X170215400Y-119752500D01*
X170215400Y-119772500D01*
X169961400Y-119772500D01*
X169961400Y-119752500D01*
X169941400Y-119752500D01*
X169941400Y-119498500D01*
X169961400Y-119498500D01*
X169961400Y-118299250D01*
X169802650Y-118140500D01*
X169788400Y-118137428D01*
X169663918Y-118149688D01*
X169544220Y-118185998D01*
X169433906Y-118244963D01*
X169412225Y-118262756D01*
X169289982Y-118197416D01*
X169142145Y-118152571D01*
X168988400Y-118137428D01*
X168688400Y-118137428D01*
X168534655Y-118152571D01*
X168386818Y-118197416D01*
X168250571Y-118270242D01*
X168131149Y-118368249D01*
X168033142Y-118487671D01*
X167960316Y-118623918D01*
X167915471Y-118771755D01*
X167906238Y-118865500D01*
X164823308Y-118865500D01*
X164878400Y-118588533D01*
X164878400Y-118266467D01*
X164815568Y-117950588D01*
X164692318Y-117653037D01*
X164513387Y-117385248D01*
X164285652Y-117157513D01*
X164017863Y-116978582D01*
X163720312Y-116855332D01*
X163404433Y-116792500D01*
X163082367Y-116792500D01*
X162766488Y-116855332D01*
X162468937Y-116978582D01*
X162201148Y-117157513D01*
X161973413Y-117385248D01*
X161794482Y-117653037D01*
X161788491Y-117667500D01*
X158198309Y-117667500D01*
X158192318Y-117653037D01*
X158013387Y-117385248D01*
X157785652Y-117157513D01*
X157517863Y-116978582D01*
X157444532Y-116948207D01*
X161520476Y-112872264D01*
X161544438Y-112901462D01*
X161679013Y-113011905D01*
X161832549Y-113093972D01*
X161999145Y-113144508D01*
X162172399Y-113161572D01*
X162697401Y-113161572D01*
X162870655Y-113144508D01*
X163037251Y-113093972D01*
X163190787Y-113011905D01*
X163325362Y-112901462D01*
X163347400Y-112874609D01*
X163369438Y-112901462D01*
X163504013Y-113011905D01*
X163657549Y-113093972D01*
X163824145Y-113144508D01*
X163997399Y-113161572D01*
X164522401Y-113161572D01*
X164695655Y-113144508D01*
X164862251Y-113093972D01*
X165015787Y-113011905D01*
X165150362Y-112901462D01*
X165260805Y-112766887D01*
X165342872Y-112613351D01*
X165351927Y-112583500D01*
X166421227Y-112583500D01*
X166431453Y-112617209D01*
X166512942Y-112769664D01*
X166622608Y-112903292D01*
X166756236Y-113012958D01*
X166908691Y-113094447D01*
X167074115Y-113144628D01*
X167246150Y-113161572D01*
X167733650Y-113161572D01*
X167905685Y-113144628D01*
X168071109Y-113094447D01*
X168223564Y-113012958D01*
X168357192Y-112903292D01*
X168427400Y-112817744D01*
X168497608Y-112903292D01*
X168631236Y-113012958D01*
X168783691Y-113094447D01*
X168949115Y-113144628D01*
X169121150Y-113161572D01*
X169608650Y-113161572D01*
X169780685Y-113144628D01*
X169946109Y-113094447D01*
X170098564Y-113012958D01*
X170232192Y-112903292D01*
X170341858Y-112769664D01*
X170388865Y-112681719D01*
X170477144Y-112740705D01*
X170665502Y-112818726D01*
X170865461Y-112858500D01*
X171069339Y-112858500D01*
X171269298Y-112818726D01*
X171457656Y-112740705D01*
X171627174Y-112627437D01*
X171771337Y-112483274D01*
X171884605Y-112313756D01*
X171962626Y-112125398D01*
X172002400Y-111925439D01*
X172002400Y-111721561D01*
X171962626Y-111521602D01*
X171884605Y-111333244D01*
X171771337Y-111163726D01*
X171627174Y-111019563D01*
X171457656Y-110906295D01*
X171386416Y-110876786D01*
X174527408Y-107735795D01*
X174556401Y-107712001D01*
X174580195Y-107683008D01*
X174580199Y-107683004D01*
X174651373Y-107596277D01*
X174664881Y-107571006D01*
X174721946Y-107464247D01*
X174765403Y-107320986D01*
X174776400Y-107209333D01*
X174776400Y-107209324D01*
X174780076Y-107172001D01*
X174776400Y-107134678D01*
X174776400Y-99946301D01*
X175076400Y-99646301D01*
X175076400Y-99777267D01*
G04 #@! TA.AperFunction,Conductor*
D31*
G36*
X175076400Y-99777267D02*
G01*
X175133276Y-100063200D01*
X175244841Y-100332543D01*
X175406809Y-100574945D01*
X175612955Y-100781091D01*
X175855357Y-100943059D01*
X176124700Y-101054624D01*
X176410633Y-101111500D01*
X176702167Y-101111500D01*
X176893401Y-101073461D01*
X176893401Y-105260428D01*
X175711400Y-105260428D01*
X175586918Y-105272688D01*
X175467220Y-105308998D01*
X175356906Y-105367963D01*
X175260215Y-105447315D01*
X175180863Y-105544006D01*
X175121898Y-105654320D01*
X175085588Y-105774018D01*
X175073328Y-105898500D01*
X175073328Y-107588500D01*
X175085588Y-107712982D01*
X175121898Y-107832680D01*
X175180863Y-107942994D01*
X175260215Y-108039685D01*
X175356906Y-108119037D01*
X175467220Y-108178002D01*
X175545205Y-108201659D01*
X175406809Y-108340055D01*
X175244841Y-108582457D01*
X175133276Y-108851800D01*
X175076400Y-109137733D01*
X175076400Y-109429267D01*
X175133276Y-109715200D01*
X175244841Y-109984543D01*
X175406809Y-110226945D01*
X175612955Y-110433091D01*
X175793160Y-110553500D01*
X175612955Y-110673909D01*
X175406809Y-110880055D01*
X175244841Y-111122457D01*
X175133276Y-111391800D01*
X175076400Y-111677733D01*
X175076400Y-111969267D01*
X175133276Y-112255200D01*
X175244841Y-112524543D01*
X175406809Y-112766945D01*
X175612955Y-112973091D01*
X175796400Y-113095665D01*
X175796401Y-117883168D01*
X175792724Y-117920500D01*
X175796401Y-117957833D01*
X175805132Y-118046474D01*
X175807398Y-118069485D01*
X175850854Y-118212746D01*
X175921426Y-118344776D01*
X175978119Y-118413856D01*
X176016400Y-118460501D01*
X176045398Y-118484299D01*
X177273755Y-119712657D01*
X177252400Y-119820014D01*
X177252400Y-120082986D01*
X177303704Y-120340905D01*
X177404339Y-120583859D01*
X177550438Y-120802513D01*
X177736387Y-120988462D01*
X177955041Y-121134561D01*
X178164930Y-121221500D01*
X177955041Y-121308439D01*
X177736387Y-121454538D01*
X177550438Y-121640487D01*
X177404339Y-121859141D01*
X177303704Y-122102095D01*
X177252400Y-122360014D01*
X177252400Y-122622986D01*
X177303704Y-122880905D01*
X177404339Y-123123859D01*
X177550438Y-123342513D01*
X177736387Y-123528462D01*
X177955041Y-123674561D01*
X178197995Y-123775196D01*
X178455914Y-123826500D01*
X178718886Y-123826500D01*
X178976805Y-123775196D01*
X179219759Y-123674561D01*
X179438413Y-123528462D01*
X179624362Y-123342513D01*
X179770461Y-123123859D01*
X179871096Y-122880905D01*
X179922400Y-122622986D01*
X179922400Y-122360014D01*
X179871096Y-122102095D01*
X179770461Y-121859141D01*
X179624362Y-121640487D01*
X179438413Y-121454538D01*
X179219759Y-121308439D01*
X179009870Y-121221500D01*
X179219759Y-121134561D01*
X179438413Y-120988462D01*
X179624362Y-120802513D01*
X179770461Y-120583859D01*
X179871096Y-120340905D01*
X179873000Y-120331333D01*
X179873000Y-120504965D01*
X180070028Y-121495491D01*
X180456512Y-122428545D01*
X181017599Y-123268272D01*
X181731728Y-123982401D01*
X182229498Y-124315000D01*
X175482333Y-124315000D01*
X175508872Y-124265350D01*
X175559408Y-124098754D01*
X175576472Y-123925500D01*
X175576472Y-121725500D01*
X175559408Y-121552246D01*
X175508872Y-121385650D01*
X175426805Y-121232114D01*
X175316362Y-121097538D01*
X175181786Y-120987095D01*
X175028250Y-120905028D01*
X174861654Y-120854492D01*
X174688400Y-120837428D01*
X174188400Y-120837428D01*
X174015146Y-120854492D01*
X173848550Y-120905028D01*
X173695014Y-120987095D01*
X173560438Y-121097538D01*
X173449995Y-121232114D01*
X173367928Y-121385650D01*
X173317392Y-121552246D01*
X173300328Y-121725500D01*
X173300328Y-123925500D01*
X173317392Y-124098754D01*
X173367928Y-124265350D01*
X173394467Y-124315000D01*
X169479653Y-124315000D01*
X172681083Y-121113572D01*
X172738400Y-121113572D01*
X172892145Y-121098429D01*
X173039982Y-121053584D01*
X173176229Y-120980758D01*
X173295651Y-120882751D01*
X173393658Y-120763329D01*
X173466484Y-120627082D01*
X173511329Y-120479245D01*
X173526472Y-120325500D01*
X173526472Y-118925500D01*
X173511329Y-118771755D01*
X173466484Y-118623918D01*
X173393658Y-118487671D01*
X173295651Y-118368249D01*
X173176229Y-118270242D01*
X173039982Y-118197416D01*
X172892145Y-118152571D01*
X172738400Y-118137428D01*
X172438400Y-118137428D01*
X172284655Y-118152571D01*
X172136818Y-118197416D01*
X172000571Y-118270242D01*
X171963400Y-118300747D01*
X171926229Y-118270242D01*
X171789982Y-118197416D01*
X171642145Y-118152571D01*
X171488400Y-118137428D01*
X171188400Y-118137428D01*
X171034655Y-118152571D01*
X170886818Y-118197416D01*
X170764575Y-118262756D01*
X170742894Y-118244963D01*
X170632580Y-118185998D01*
X170512882Y-118149688D01*
X170388400Y-118137428D01*
X170374150Y-118140500D01*
X170215400Y-118299250D01*
X170215400Y-119498500D01*
X170235400Y-119498500D01*
X170235400Y-119752500D01*
X170215400Y-119752500D01*
X170215400Y-119772500D01*
X169961400Y-119772500D01*
X169961400Y-119752500D01*
X169941400Y-119752500D01*
X169941400Y-119498500D01*
X169961400Y-119498500D01*
X169961400Y-118299250D01*
X169802650Y-118140500D01*
X169788400Y-118137428D01*
X169663918Y-118149688D01*
X169544220Y-118185998D01*
X169433906Y-118244963D01*
X169412225Y-118262756D01*
X169289982Y-118197416D01*
X169142145Y-118152571D01*
X168988400Y-118137428D01*
X168688400Y-118137428D01*
X168534655Y-118152571D01*
X168386818Y-118197416D01*
X168250571Y-118270242D01*
X168131149Y-118368249D01*
X168033142Y-118487671D01*
X167960316Y-118623918D01*
X167915471Y-118771755D01*
X167906238Y-118865500D01*
X164823308Y-118865500D01*
X164878400Y-118588533D01*
X164878400Y-118266467D01*
X164815568Y-117950588D01*
X164692318Y-117653037D01*
X164513387Y-117385248D01*
X164285652Y-117157513D01*
X164017863Y-116978582D01*
X163720312Y-116855332D01*
X163404433Y-116792500D01*
X163082367Y-116792500D01*
X162766488Y-116855332D01*
X162468937Y-116978582D01*
X162201148Y-117157513D01*
X161973413Y-117385248D01*
X161794482Y-117653037D01*
X161788491Y-117667500D01*
X158198309Y-117667500D01*
X158192318Y-117653037D01*
X158013387Y-117385248D01*
X157785652Y-117157513D01*
X157517863Y-116978582D01*
X157444532Y-116948207D01*
X161520476Y-112872264D01*
X161544438Y-112901462D01*
X161679013Y-113011905D01*
X161832549Y-113093972D01*
X161999145Y-113144508D01*
X162172399Y-113161572D01*
X162697401Y-113161572D01*
X162870655Y-113144508D01*
X163037251Y-113093972D01*
X163190787Y-113011905D01*
X163325362Y-112901462D01*
X163347400Y-112874609D01*
X163369438Y-112901462D01*
X163504013Y-113011905D01*
X163657549Y-113093972D01*
X163824145Y-113144508D01*
X163997399Y-113161572D01*
X164522401Y-113161572D01*
X164695655Y-113144508D01*
X164862251Y-113093972D01*
X165015787Y-113011905D01*
X165150362Y-112901462D01*
X165260805Y-112766887D01*
X165342872Y-112613351D01*
X165351927Y-112583500D01*
X166421227Y-112583500D01*
X166431453Y-112617209D01*
X166512942Y-112769664D01*
X166622608Y-112903292D01*
X166756236Y-113012958D01*
X166908691Y-113094447D01*
X167074115Y-113144628D01*
X167246150Y-113161572D01*
X167733650Y-113161572D01*
X167905685Y-113144628D01*
X168071109Y-113094447D01*
X168223564Y-113012958D01*
X168357192Y-112903292D01*
X168427400Y-112817744D01*
X168497608Y-112903292D01*
X168631236Y-113012958D01*
X168783691Y-113094447D01*
X168949115Y-113144628D01*
X169121150Y-113161572D01*
X169608650Y-113161572D01*
X169780685Y-113144628D01*
X169946109Y-113094447D01*
X170098564Y-113012958D01*
X170232192Y-112903292D01*
X170341858Y-112769664D01*
X170388865Y-112681719D01*
X170477144Y-112740705D01*
X170665502Y-112818726D01*
X170865461Y-112858500D01*
X171069339Y-112858500D01*
X171269298Y-112818726D01*
X171457656Y-112740705D01*
X171627174Y-112627437D01*
X171771337Y-112483274D01*
X171884605Y-112313756D01*
X171962626Y-112125398D01*
X172002400Y-111925439D01*
X172002400Y-111721561D01*
X171962626Y-111521602D01*
X171884605Y-111333244D01*
X171771337Y-111163726D01*
X171627174Y-111019563D01*
X171457656Y-110906295D01*
X171386416Y-110876786D01*
X174527408Y-107735795D01*
X174556401Y-107712001D01*
X174580195Y-107683008D01*
X174580199Y-107683004D01*
X174651373Y-107596277D01*
X174664881Y-107571006D01*
X174721946Y-107464247D01*
X174765403Y-107320986D01*
X174776400Y-107209333D01*
X174776400Y-107209324D01*
X174780076Y-107172001D01*
X174776400Y-107134678D01*
X174776400Y-99946301D01*
X175076400Y-99646301D01*
X175076400Y-99777267D01*
G37*
G04 #@! TD.AperFunction*
D30*
X153560834Y-123796511D02*
X149375509Y-123796511D01*
X149483772Y-123634484D01*
X149665669Y-123195346D01*
X149758400Y-122729160D01*
X149758400Y-122253840D01*
X149665669Y-121787654D01*
X149483772Y-121348516D01*
X149219699Y-120953302D01*
X148883598Y-120617201D01*
X148877704Y-120613263D01*
X150377588Y-120613263D01*
X153560834Y-123796511D01*
G04 #@! TA.AperFunction,Conductor*
D31*
G36*
X153560834Y-123796511D02*
G01*
X149375509Y-123796511D01*
X149483772Y-123634484D01*
X149665669Y-123195346D01*
X149758400Y-122729160D01*
X149758400Y-122253840D01*
X149665669Y-121787654D01*
X149483772Y-121348516D01*
X149219699Y-120953302D01*
X148883598Y-120617201D01*
X148877704Y-120613263D01*
X150377588Y-120613263D01*
X153560834Y-123796511D01*
G37*
G04 #@! TD.AperFunction*
D30*
X140507761Y-120364265D02*
X140531560Y-120393264D01*
X140647285Y-120488237D01*
X140779314Y-120558809D01*
X140922575Y-120602266D01*
X141034228Y-120613263D01*
X141034237Y-120613263D01*
X141071560Y-120616939D01*
X141108883Y-120613263D01*
X145813096Y-120613263D01*
X145807202Y-120617201D01*
X145471101Y-120953302D01*
X145207028Y-121348516D01*
X145025131Y-121787654D01*
X144932400Y-122253840D01*
X144932400Y-122729160D01*
X145025131Y-123195346D01*
X145207028Y-123634484D01*
X145315291Y-123796511D01*
X142410251Y-123796511D01*
X132103400Y-113489661D01*
X132103400Y-111959903D01*
X140507761Y-120364265D01*
G04 #@! TA.AperFunction,Conductor*
D31*
G36*
X140507761Y-120364265D02*
G01*
X140531560Y-120393264D01*
X140647285Y-120488237D01*
X140779314Y-120558809D01*
X140922575Y-120602266D01*
X141034228Y-120613263D01*
X141034237Y-120613263D01*
X141071560Y-120616939D01*
X141108883Y-120613263D01*
X145813096Y-120613263D01*
X145807202Y-120617201D01*
X145471101Y-120953302D01*
X145207028Y-121348516D01*
X145025131Y-121787654D01*
X144932400Y-122253840D01*
X144932400Y-122729160D01*
X145025131Y-123195346D01*
X145207028Y-123634484D01*
X145315291Y-123796511D01*
X142410251Y-123796511D01*
X132103400Y-113489661D01*
X132103400Y-111959903D01*
X140507761Y-120364265D01*
G37*
G04 #@! TD.AperFunction*
D30*
X161351928Y-106517351D02*
X161433995Y-106670887D01*
X161544438Y-106805462D01*
X161679013Y-106915905D01*
X161832549Y-106997972D01*
X161999145Y-107048508D01*
X162172399Y-107065572D01*
X162697401Y-107065572D01*
X162870655Y-107048508D01*
X163037251Y-106997972D01*
X163190787Y-106915905D01*
X163325362Y-106805462D01*
X163347400Y-106778609D01*
X163369438Y-106805462D01*
X163504013Y-106915905D01*
X163657549Y-106997972D01*
X163824145Y-107048508D01*
X163997399Y-107065572D01*
X164522401Y-107065572D01*
X164695655Y-107048508D01*
X164862251Y-106997972D01*
X165015787Y-106915905D01*
X165150362Y-106805462D01*
X165260805Y-106670887D01*
X165342872Y-106517351D01*
X165351927Y-106487500D01*
X166421227Y-106487500D01*
X166431453Y-106521209D01*
X166512942Y-106673664D01*
X166622608Y-106807292D01*
X166756236Y-106916958D01*
X166908691Y-106998447D01*
X167074115Y-107048628D01*
X167246150Y-107065572D01*
X167733650Y-107065572D01*
X167905685Y-107048628D01*
X168071109Y-106998447D01*
X168223564Y-106916958D01*
X168357192Y-106807292D01*
X168427400Y-106721744D01*
X168497608Y-106807292D01*
X168604900Y-106895345D01*
X168604901Y-110655655D01*
X168497608Y-110743708D01*
X168427400Y-110829256D01*
X168357192Y-110743708D01*
X168223564Y-110634042D01*
X168071109Y-110552553D01*
X167905685Y-110502372D01*
X167733650Y-110485428D01*
X167246150Y-110485428D01*
X167074115Y-110502372D01*
X166908691Y-110552553D01*
X166756236Y-110634042D01*
X166622608Y-110743708D01*
X166512942Y-110877336D01*
X166431453Y-111029791D01*
X166421227Y-111063500D01*
X165351927Y-111063500D01*
X165342872Y-111033649D01*
X165260805Y-110880113D01*
X165150362Y-110745538D01*
X165015787Y-110635095D01*
X164862251Y-110553028D01*
X164695655Y-110502492D01*
X164522401Y-110485428D01*
X163997399Y-110485428D01*
X163824145Y-110502492D01*
X163657549Y-110553028D01*
X163504013Y-110635095D01*
X163369438Y-110745538D01*
X163347400Y-110772391D01*
X163325362Y-110745538D01*
X163190787Y-110635095D01*
X163037251Y-110553028D01*
X162870655Y-110502492D01*
X162697401Y-110485428D01*
X162172399Y-110485428D01*
X161999145Y-110502492D01*
X161832549Y-110553028D01*
X161679013Y-110635095D01*
X161544438Y-110745538D01*
X161433995Y-110880113D01*
X161351928Y-111033649D01*
X161338938Y-111076473D01*
X161202191Y-111117954D01*
X161070162Y-111188526D01*
X160954437Y-111283499D01*
X160930639Y-111312497D01*
X153659472Y-118583665D01*
X153659472Y-117795500D01*
X153647212Y-117671018D01*
X153610902Y-117551320D01*
X153551937Y-117441006D01*
X153472585Y-117344315D01*
X153375894Y-117264963D01*
X153265580Y-117205998D01*
X153145882Y-117169688D01*
X153021400Y-117157428D01*
X152927266Y-117157428D01*
X153052755Y-117082678D01*
X153268988Y-116887769D01*
X153443041Y-116654420D01*
X153568225Y-116391599D01*
X153612876Y-116244390D01*
X153491555Y-116014500D01*
X152298400Y-116014500D01*
X152298400Y-116034500D01*
X152044400Y-116034500D01*
X152044400Y-116014500D01*
X152024400Y-116014500D01*
X152024400Y-115760500D01*
X152044400Y-115760500D01*
X152044400Y-115740500D01*
X152298400Y-115740500D01*
X152298400Y-115760500D01*
X153491555Y-115760500D01*
X153612876Y-115530610D01*
X153568225Y-115383401D01*
X153443041Y-115120580D01*
X153268988Y-114887231D01*
X153052755Y-114692322D01*
X152935866Y-114622695D01*
X153118032Y-114500975D01*
X153324875Y-114294132D01*
X153487390Y-114050911D01*
X153599332Y-113780658D01*
X153656400Y-113493760D01*
X153656400Y-113201240D01*
X153599332Y-112914342D01*
X153487390Y-112644089D01*
X153324875Y-112400868D01*
X153118032Y-112194025D01*
X152943640Y-112077500D01*
X153118032Y-111960975D01*
X153324875Y-111754132D01*
X153487390Y-111510911D01*
X153599332Y-111240658D01*
X153656400Y-110953760D01*
X153656400Y-110661240D01*
X153599332Y-110374342D01*
X153487390Y-110104089D01*
X153324875Y-109860868D01*
X153118032Y-109654025D01*
X152943640Y-109537500D01*
X153118032Y-109420975D01*
X153324875Y-109214132D01*
X153449578Y-109027500D01*
X153761578Y-109027500D01*
X153798900Y-109031176D01*
X153836222Y-109027500D01*
X153836233Y-109027500D01*
X153947886Y-109016503D01*
X154091147Y-108973046D01*
X154223176Y-108902474D01*
X154338901Y-108807501D01*
X154362704Y-108778497D01*
X155858739Y-107282462D01*
X155939463Y-107403274D01*
X156083626Y-107547437D01*
X156253144Y-107660705D01*
X156441502Y-107738726D01*
X156641461Y-107778500D01*
X156845339Y-107778500D01*
X157045298Y-107738726D01*
X157233656Y-107660705D01*
X157403174Y-107547437D01*
X157547337Y-107403274D01*
X157660605Y-107233756D01*
X157738626Y-107045398D01*
X157778400Y-106845439D01*
X157778400Y-106783301D01*
X158074202Y-106487500D01*
X161342873Y-106487500D01*
X161351928Y-106517351D01*
G04 #@! TA.AperFunction,Conductor*
D31*
G36*
X161351928Y-106517351D02*
G01*
X161433995Y-106670887D01*
X161544438Y-106805462D01*
X161679013Y-106915905D01*
X161832549Y-106997972D01*
X161999145Y-107048508D01*
X162172399Y-107065572D01*
X162697401Y-107065572D01*
X162870655Y-107048508D01*
X163037251Y-106997972D01*
X163190787Y-106915905D01*
X163325362Y-106805462D01*
X163347400Y-106778609D01*
X163369438Y-106805462D01*
X163504013Y-106915905D01*
X163657549Y-106997972D01*
X163824145Y-107048508D01*
X163997399Y-107065572D01*
X164522401Y-107065572D01*
X164695655Y-107048508D01*
X164862251Y-106997972D01*
X165015787Y-106915905D01*
X165150362Y-106805462D01*
X165260805Y-106670887D01*
X165342872Y-106517351D01*
X165351927Y-106487500D01*
X166421227Y-106487500D01*
X166431453Y-106521209D01*
X166512942Y-106673664D01*
X166622608Y-106807292D01*
X166756236Y-106916958D01*
X166908691Y-106998447D01*
X167074115Y-107048628D01*
X167246150Y-107065572D01*
X167733650Y-107065572D01*
X167905685Y-107048628D01*
X168071109Y-106998447D01*
X168223564Y-106916958D01*
X168357192Y-106807292D01*
X168427400Y-106721744D01*
X168497608Y-106807292D01*
X168604900Y-106895345D01*
X168604901Y-110655655D01*
X168497608Y-110743708D01*
X168427400Y-110829256D01*
X168357192Y-110743708D01*
X168223564Y-110634042D01*
X168071109Y-110552553D01*
X167905685Y-110502372D01*
X167733650Y-110485428D01*
X167246150Y-110485428D01*
X167074115Y-110502372D01*
X166908691Y-110552553D01*
X166756236Y-110634042D01*
X166622608Y-110743708D01*
X166512942Y-110877336D01*
X166431453Y-111029791D01*
X166421227Y-111063500D01*
X165351927Y-111063500D01*
X165342872Y-111033649D01*
X165260805Y-110880113D01*
X165150362Y-110745538D01*
X165015787Y-110635095D01*
X164862251Y-110553028D01*
X164695655Y-110502492D01*
X164522401Y-110485428D01*
X163997399Y-110485428D01*
X163824145Y-110502492D01*
X163657549Y-110553028D01*
X163504013Y-110635095D01*
X163369438Y-110745538D01*
X163347400Y-110772391D01*
X163325362Y-110745538D01*
X163190787Y-110635095D01*
X163037251Y-110553028D01*
X162870655Y-110502492D01*
X162697401Y-110485428D01*
X162172399Y-110485428D01*
X161999145Y-110502492D01*
X161832549Y-110553028D01*
X161679013Y-110635095D01*
X161544438Y-110745538D01*
X161433995Y-110880113D01*
X161351928Y-111033649D01*
X161338938Y-111076473D01*
X161202191Y-111117954D01*
X161070162Y-111188526D01*
X160954437Y-111283499D01*
X160930639Y-111312497D01*
X153659472Y-118583665D01*
X153659472Y-117795500D01*
X153647212Y-117671018D01*
X153610902Y-117551320D01*
X153551937Y-117441006D01*
X153472585Y-117344315D01*
X153375894Y-117264963D01*
X153265580Y-117205998D01*
X153145882Y-117169688D01*
X153021400Y-117157428D01*
X152927266Y-117157428D01*
X153052755Y-117082678D01*
X153268988Y-116887769D01*
X153443041Y-116654420D01*
X153568225Y-116391599D01*
X153612876Y-116244390D01*
X153491555Y-116014500D01*
X152298400Y-116014500D01*
X152298400Y-116034500D01*
X152044400Y-116034500D01*
X152044400Y-116014500D01*
X152024400Y-116014500D01*
X152024400Y-115760500D01*
X152044400Y-115760500D01*
X152044400Y-115740500D01*
X152298400Y-115740500D01*
X152298400Y-115760500D01*
X153491555Y-115760500D01*
X153612876Y-115530610D01*
X153568225Y-115383401D01*
X153443041Y-115120580D01*
X153268988Y-114887231D01*
X153052755Y-114692322D01*
X152935866Y-114622695D01*
X153118032Y-114500975D01*
X153324875Y-114294132D01*
X153487390Y-114050911D01*
X153599332Y-113780658D01*
X153656400Y-113493760D01*
X153656400Y-113201240D01*
X153599332Y-112914342D01*
X153487390Y-112644089D01*
X153324875Y-112400868D01*
X153118032Y-112194025D01*
X152943640Y-112077500D01*
X153118032Y-111960975D01*
X153324875Y-111754132D01*
X153487390Y-111510911D01*
X153599332Y-111240658D01*
X153656400Y-110953760D01*
X153656400Y-110661240D01*
X153599332Y-110374342D01*
X153487390Y-110104089D01*
X153324875Y-109860868D01*
X153118032Y-109654025D01*
X152943640Y-109537500D01*
X153118032Y-109420975D01*
X153324875Y-109214132D01*
X153449578Y-109027500D01*
X153761578Y-109027500D01*
X153798900Y-109031176D01*
X153836222Y-109027500D01*
X153836233Y-109027500D01*
X153947886Y-109016503D01*
X154091147Y-108973046D01*
X154223176Y-108902474D01*
X154338901Y-108807501D01*
X154362704Y-108778497D01*
X155858739Y-107282462D01*
X155939463Y-107403274D01*
X156083626Y-107547437D01*
X156253144Y-107660705D01*
X156441502Y-107738726D01*
X156641461Y-107778500D01*
X156845339Y-107778500D01*
X157045298Y-107738726D01*
X157233656Y-107660705D01*
X157403174Y-107547437D01*
X157547337Y-107403274D01*
X157660605Y-107233756D01*
X157738626Y-107045398D01*
X157778400Y-106845439D01*
X157778400Y-106783301D01*
X158074202Y-106487500D01*
X161342873Y-106487500D01*
X161351928Y-106517351D01*
G37*
G04 #@! TD.AperFunction*
D30*
X148809148Y-116127358D02*
X148795005Y-116141500D01*
X148809148Y-116155643D01*
X148629543Y-116335248D01*
X148615400Y-116321105D01*
X148601258Y-116335248D01*
X148421653Y-116155643D01*
X148435795Y-116141500D01*
X148421653Y-116127358D01*
X148601258Y-115947753D01*
X148615400Y-115961895D01*
X148629543Y-115947753D01*
X148809148Y-116127358D01*
G04 #@! TA.AperFunction,Conductor*
D31*
G36*
X148809148Y-116127358D02*
G01*
X148795005Y-116141500D01*
X148809148Y-116155643D01*
X148629543Y-116335248D01*
X148615400Y-116321105D01*
X148601258Y-116335248D01*
X148421653Y-116155643D01*
X148435795Y-116141500D01*
X148421653Y-116127358D01*
X148601258Y-115947753D01*
X148615400Y-115961895D01*
X148629543Y-115947753D01*
X148809148Y-116127358D01*
G37*
G04 #@! TD.AperFunction*
D30*
X134752067Y-97089500D02*
X134752076Y-97089500D01*
X134789399Y-97093176D01*
X134826722Y-97089500D01*
X144807401Y-97089500D01*
X144807400Y-101118177D01*
X144803724Y-101155500D01*
X144807400Y-101192822D01*
X144807400Y-101192832D01*
X144818397Y-101304485D01*
X144859960Y-101441501D01*
X144861854Y-101447746D01*
X144932426Y-101579776D01*
X144957193Y-101609954D01*
X145027399Y-101695501D01*
X145056403Y-101719304D01*
X145967401Y-102630303D01*
X145967400Y-103499789D01*
X145923463Y-103543726D01*
X145810195Y-103713244D01*
X145732174Y-103901602D01*
X145692400Y-104101561D01*
X145692400Y-104305439D01*
X145702457Y-104356000D01*
X144720430Y-104356000D01*
X144613362Y-104225538D01*
X144586509Y-104203500D01*
X144613362Y-104181462D01*
X144723805Y-104046887D01*
X144805872Y-103893351D01*
X144856408Y-103726755D01*
X144873472Y-103553501D01*
X144873472Y-103028499D01*
X144856408Y-102855245D01*
X144805872Y-102688649D01*
X144723805Y-102535113D01*
X144613362Y-102400538D01*
X144478787Y-102290095D01*
X144325251Y-102208028D01*
X144158655Y-102157492D01*
X143985401Y-102140428D01*
X143950126Y-102140428D01*
X144022626Y-101965398D01*
X144062400Y-101765439D01*
X144062400Y-101561561D01*
X144022626Y-101361602D01*
X143944605Y-101173244D01*
X143831337Y-101003726D01*
X143687174Y-100859563D01*
X143517656Y-100746295D01*
X143329298Y-100668274D01*
X143129339Y-100628500D01*
X143039202Y-100628500D01*
X143184562Y-100483141D01*
X143219400Y-100486572D01*
X143719400Y-100486572D01*
X143892654Y-100469508D01*
X144059250Y-100418972D01*
X144212786Y-100336905D01*
X144347362Y-100226462D01*
X144457805Y-100091886D01*
X144539872Y-99938350D01*
X144590408Y-99771754D01*
X144607472Y-99598500D01*
X144607472Y-98648500D01*
X144590408Y-98475246D01*
X144539872Y-98308650D01*
X144457805Y-98155114D01*
X144347362Y-98020538D01*
X144212786Y-97910095D01*
X144059250Y-97828028D01*
X143892654Y-97777492D01*
X143719400Y-97760428D01*
X143219400Y-97760428D01*
X143046146Y-97777492D01*
X142879550Y-97828028D01*
X142726014Y-97910095D01*
X142591438Y-98020538D01*
X142519400Y-98108317D01*
X142447362Y-98020538D01*
X142312786Y-97910095D01*
X142159250Y-97828028D01*
X141992654Y-97777492D01*
X141819400Y-97760428D01*
X141319400Y-97760428D01*
X141146146Y-97777492D01*
X140979550Y-97828028D01*
X140826014Y-97910095D01*
X140691438Y-98020538D01*
X140580995Y-98155114D01*
X140498928Y-98308650D01*
X140448392Y-98475246D01*
X140431328Y-98648500D01*
X140431328Y-99186770D01*
X139916599Y-99701500D01*
X135521472Y-99701500D01*
X135521472Y-98211500D01*
X135509212Y-98087018D01*
X135472902Y-97967320D01*
X135413937Y-97857006D01*
X135334585Y-97760315D01*
X135237894Y-97680963D01*
X135127580Y-97621998D01*
X135007882Y-97585688D01*
X134883400Y-97573428D01*
X134643400Y-97573428D01*
X134643400Y-97109294D01*
X134745945Y-97088897D01*
X134752067Y-97089500D01*
G04 #@! TA.AperFunction,Conductor*
D31*
G36*
X134752067Y-97089500D02*
G01*
X134752076Y-97089500D01*
X134789399Y-97093176D01*
X134826722Y-97089500D01*
X144807401Y-97089500D01*
X144807400Y-101118177D01*
X144803724Y-101155500D01*
X144807400Y-101192822D01*
X144807400Y-101192832D01*
X144818397Y-101304485D01*
X144859960Y-101441501D01*
X144861854Y-101447746D01*
X144932426Y-101579776D01*
X144957193Y-101609954D01*
X145027399Y-101695501D01*
X145056403Y-101719304D01*
X145967401Y-102630303D01*
X145967400Y-103499789D01*
X145923463Y-103543726D01*
X145810195Y-103713244D01*
X145732174Y-103901602D01*
X145692400Y-104101561D01*
X145692400Y-104305439D01*
X145702457Y-104356000D01*
X144720430Y-104356000D01*
X144613362Y-104225538D01*
X144586509Y-104203500D01*
X144613362Y-104181462D01*
X144723805Y-104046887D01*
X144805872Y-103893351D01*
X144856408Y-103726755D01*
X144873472Y-103553501D01*
X144873472Y-103028499D01*
X144856408Y-102855245D01*
X144805872Y-102688649D01*
X144723805Y-102535113D01*
X144613362Y-102400538D01*
X144478787Y-102290095D01*
X144325251Y-102208028D01*
X144158655Y-102157492D01*
X143985401Y-102140428D01*
X143950126Y-102140428D01*
X144022626Y-101965398D01*
X144062400Y-101765439D01*
X144062400Y-101561561D01*
X144022626Y-101361602D01*
X143944605Y-101173244D01*
X143831337Y-101003726D01*
X143687174Y-100859563D01*
X143517656Y-100746295D01*
X143329298Y-100668274D01*
X143129339Y-100628500D01*
X143039202Y-100628500D01*
X143184562Y-100483141D01*
X143219400Y-100486572D01*
X143719400Y-100486572D01*
X143892654Y-100469508D01*
X144059250Y-100418972D01*
X144212786Y-100336905D01*
X144347362Y-100226462D01*
X144457805Y-100091886D01*
X144539872Y-99938350D01*
X144590408Y-99771754D01*
X144607472Y-99598500D01*
X144607472Y-98648500D01*
X144590408Y-98475246D01*
X144539872Y-98308650D01*
X144457805Y-98155114D01*
X144347362Y-98020538D01*
X144212786Y-97910095D01*
X144059250Y-97828028D01*
X143892654Y-97777492D01*
X143719400Y-97760428D01*
X143219400Y-97760428D01*
X143046146Y-97777492D01*
X142879550Y-97828028D01*
X142726014Y-97910095D01*
X142591438Y-98020538D01*
X142519400Y-98108317D01*
X142447362Y-98020538D01*
X142312786Y-97910095D01*
X142159250Y-97828028D01*
X141992654Y-97777492D01*
X141819400Y-97760428D01*
X141319400Y-97760428D01*
X141146146Y-97777492D01*
X140979550Y-97828028D01*
X140826014Y-97910095D01*
X140691438Y-98020538D01*
X140580995Y-98155114D01*
X140498928Y-98308650D01*
X140448392Y-98475246D01*
X140431328Y-98648500D01*
X140431328Y-99186770D01*
X139916599Y-99701500D01*
X135521472Y-99701500D01*
X135521472Y-98211500D01*
X135509212Y-98087018D01*
X135472902Y-97967320D01*
X135413937Y-97857006D01*
X135334585Y-97760315D01*
X135237894Y-97680963D01*
X135127580Y-97621998D01*
X135007882Y-97585688D01*
X134883400Y-97573428D01*
X134643400Y-97573428D01*
X134643400Y-97109294D01*
X134745945Y-97088897D01*
X134752067Y-97089500D01*
G37*
G04 #@! TD.AperFunction*
D30*
X140929400Y-102427176D02*
X140966722Y-102423500D01*
X142323689Y-102423500D01*
X142367626Y-102467437D01*
X142390172Y-102482502D01*
X142346995Y-102535113D01*
X142268749Y-102681500D01*
X137626804Y-102681500D01*
X137741298Y-102658726D01*
X137929656Y-102580705D01*
X138099174Y-102467437D01*
X138143111Y-102423500D01*
X140892078Y-102423500D01*
X140929400Y-102427176D01*
G04 #@! TA.AperFunction,Conductor*
D31*
G36*
X140929400Y-102427176D02*
G01*
X140966722Y-102423500D01*
X142323689Y-102423500D01*
X142367626Y-102467437D01*
X142390172Y-102482502D01*
X142346995Y-102535113D01*
X142268749Y-102681500D01*
X137626804Y-102681500D01*
X137741298Y-102658726D01*
X137929656Y-102580705D01*
X138099174Y-102467437D01*
X138143111Y-102423500D01*
X140892078Y-102423500D01*
X140929400Y-102427176D01*
G37*
G04 #@! TD.AperFunction*
M02*
