%TF.GenerationSoftware,KiCad,Pcbnew,9.0.3*%
%TF.CreationDate,2026-01-09T18:51:29-08:00*%
%TF.ProjectId,telemetry-pcb,74656c65-6d65-4747-9279-2d7063622e6b,rev?*%
%TF.SameCoordinates,Original*%
%TF.FileFunction,Soldermask,Top*%
%TF.FilePolarity,Negative*%
%FSLAX46Y46*%
G04 Gerber Fmt 4.6, Leading zero omitted, Abs format (unit mm)*
G04 Created by KiCad (PCBNEW 9.0.3) date 2026-01-09 18:51:29*
%MOMM*%
%LPD*%
G01*
G04 APERTURE LIST*
G04 Aperture macros list*
%AMRoundRect*
0 Rectangle with rounded corners*
0 $1 Rounding radius*
0 $2 $3 $4 $5 $6 $7 $8 $9 X,Y pos of 4 corners*
0 Add a 4 corners polygon primitive as box body*
4,1,4,$2,$3,$4,$5,$6,$7,$8,$9,$2,$3,0*
0 Add four circle primitives for the rounded corners*
1,1,$1+$1,$2,$3*
1,1,$1+$1,$4,$5*
1,1,$1+$1,$6,$7*
1,1,$1+$1,$8,$9*
0 Add four rect primitives between the rounded corners*
20,1,$1+$1,$2,$3,$4,$5,0*
20,1,$1+$1,$4,$5,$6,$7,0*
20,1,$1+$1,$6,$7,$8,$9,0*
20,1,$1+$1,$8,$9,$2,$3,0*%
G04 Aperture macros list end*
%ADD10C,1.574800*%
%ADD11C,2.362200*%
%ADD12C,1.400000*%
%ADD13C,4.000000*%
%ADD14RoundRect,0.250000X-0.250000X-0.475000X0.250000X-0.475000X0.250000X0.475000X-0.250000X0.475000X0*%
%ADD15C,2.000000*%
%ADD16RoundRect,0.243750X-0.243750X-0.456250X0.243750X-0.456250X0.243750X0.456250X-0.243750X0.456250X0*%
%ADD17RoundRect,0.249999X-0.262501X-0.450001X0.262501X-0.450001X0.262501X0.450001X-0.262501X0.450001X0*%
%ADD18RoundRect,0.249999X0.262501X0.450001X-0.262501X0.450001X-0.262501X-0.450001X0.262501X-0.450001X0*%
%ADD19R,1.700000X1.700000*%
%ADD20O,1.700000X1.700000*%
%ADD21R,2.000000X4.500000*%
%ADD22C,3.556000*%
%ADD23C,1.524000*%
%ADD24RoundRect,0.250000X-0.550000X1.500000X-0.550000X-1.500000X0.550000X-1.500000X0.550000X1.500000X0*%
%ADD25C,3.400000*%
%ADD26R,1.690000X1.690000*%
%ADD27C,1.690000*%
%ADD28R,2.500000X1.800000*%
%ADD29R,4.241800X3.810000*%
%ADD30C,3.300000*%
%ADD31RoundRect,0.101600X-0.939800X0.939800X-0.939800X-0.939800X0.939800X-0.939800X0.939800X0.939800X0*%
%ADD32C,2.082800*%
%ADD33R,1.600000X1.600000*%
%ADD34C,1.600000*%
%ADD35RoundRect,0.250000X0.262500X0.450000X-0.262500X0.450000X-0.262500X-0.450000X0.262500X-0.450000X0*%
%ADD36RoundRect,0.250000X-0.262500X-0.450000X0.262500X-0.450000X0.262500X0.450000X-0.262500X0.450000X0*%
%ADD37RoundRect,0.250000X-0.450000X0.262500X-0.450000X-0.262500X0.450000X-0.262500X0.450000X0.262500X0*%
%ADD38RoundRect,0.102000X-0.765000X-0.765000X0.765000X-0.765000X0.765000X0.765000X-0.765000X0.765000X0*%
%ADD39C,1.734000*%
%ADD40RoundRect,0.243750X0.456250X-0.243750X0.456250X0.243750X-0.456250X0.243750X-0.456250X-0.243750X0*%
G04 APERTURE END LIST*
D10*
X99109701Y-75529199D03*
X99109701Y-72529200D03*
X99109701Y-69529201D03*
X102109700Y-75529199D03*
X102109700Y-72529200D03*
X102109700Y-69529201D03*
D11*
X181128149Y-81165900D03*
X181128149Y-85365898D03*
X175628150Y-81165900D03*
X175628150Y-85365898D03*
X181128149Y-94915900D03*
X181128149Y-99115898D03*
X175628150Y-94915900D03*
X175628150Y-99115898D03*
D12*
X183413400Y-66915800D03*
X185953400Y-66915800D03*
D13*
X189988400Y-59673500D03*
X189988400Y-119673500D03*
D14*
X138113400Y-85105500D03*
X140013400Y-85105500D03*
X138113400Y-82105500D03*
X140013400Y-82105500D03*
D15*
X97992000Y-94121800D03*
X97992000Y-97621800D03*
X98015000Y-84368200D03*
X98015000Y-87868200D03*
D16*
X157560800Y-121017800D03*
X159435800Y-121017800D03*
X110216100Y-97218000D03*
X112091100Y-97218000D03*
D17*
X157607000Y-118909600D03*
X159432000Y-118909600D03*
D18*
X115716100Y-97218000D03*
X113891100Y-97218000D03*
D12*
X113055400Y-120789200D03*
X113055400Y-118249200D03*
D19*
X152000000Y-118880000D03*
D20*
X152000000Y-116122000D03*
X152000000Y-113582000D03*
X152000000Y-111042000D03*
X152000000Y-108502000D03*
X152000000Y-105962000D03*
X152000000Y-103422000D03*
X152000000Y-100882000D03*
X152000000Y-98342000D03*
X152000000Y-95802000D03*
X152000000Y-93262000D03*
X152000000Y-90722000D03*
X152000000Y-88182000D03*
X152000000Y-85642000D03*
X152000000Y-83102000D03*
D19*
X124739400Y-108457500D03*
D20*
X124739400Y-105917500D03*
X124739400Y-103377500D03*
X124739400Y-100837500D03*
X124739400Y-98297500D03*
X124739400Y-95757500D03*
X124739400Y-93217500D03*
X124739400Y-90677500D03*
X124739400Y-88137500D03*
X124739400Y-85597500D03*
X124739400Y-83057500D03*
X124739400Y-80517500D03*
D21*
X134563400Y-87855500D03*
X134563400Y-79355500D03*
D22*
X129565400Y-122173500D03*
X147345400Y-122173500D03*
X129565400Y-76453500D03*
X147345400Y-76453500D03*
D23*
X148615400Y-115823500D03*
X148615400Y-80263500D03*
X148615400Y-108203500D03*
X148615400Y-105663500D03*
X148615400Y-103123500D03*
X148615400Y-100583500D03*
X148615400Y-98043500D03*
X148615400Y-95503500D03*
X128295400Y-85343500D03*
X128295400Y-87883500D03*
X128295400Y-90423500D03*
X128295400Y-92963500D03*
X128295400Y-95503500D03*
X128295400Y-98043500D03*
X128295400Y-100583500D03*
X128295400Y-105663500D03*
X148615400Y-110743500D03*
X128295400Y-108203500D03*
X148615400Y-113283500D03*
X148615400Y-87883500D03*
X148615400Y-90423500D03*
X148615400Y-118363500D03*
X148615400Y-85343500D03*
X148615400Y-92963500D03*
X128295400Y-82803500D03*
X128295400Y-80263500D03*
X148615400Y-82803500D03*
X128295400Y-103123500D03*
D24*
X114250000Y-107432000D03*
X114250000Y-113032000D03*
D25*
X103190000Y-120822000D03*
X108270000Y-120822000D03*
D26*
X107000000Y-112182000D03*
D27*
X104460000Y-112182000D03*
D28*
X114500000Y-103182000D03*
X110500000Y-103182000D03*
D29*
X97447100Y-105168200D03*
X103822500Y-105168200D03*
D19*
X109499400Y-67309500D03*
D20*
X109499400Y-64769500D03*
X112039400Y-67309500D03*
X112039400Y-64769500D03*
D19*
X117119400Y-67309500D03*
D20*
X117119400Y-64769500D03*
X119659400Y-67309500D03*
X119659400Y-64769500D03*
X122199400Y-67309500D03*
X122199400Y-64769500D03*
D16*
X101449900Y-99478600D03*
X103324900Y-99478600D03*
D13*
X95000000Y-59682000D03*
X95000000Y-119682000D03*
D15*
X183098400Y-70383500D03*
D30*
X175478400Y-72923500D03*
D15*
X183098400Y-75463500D03*
D31*
X180558400Y-74203500D03*
D32*
X180558400Y-71663500D03*
D18*
X106934000Y-99478600D03*
X105109000Y-99478600D03*
D12*
X93593600Y-112000800D03*
X96133600Y-112000800D03*
X171738400Y-82105500D03*
X169198400Y-82105500D03*
D19*
X184363400Y-105898500D03*
D20*
X184363400Y-108438500D03*
D13*
X175037400Y-63843500D03*
X150037400Y-63843500D03*
D33*
X156997400Y-65263500D03*
D34*
X159767400Y-65263500D03*
X162537400Y-65263500D03*
X165307400Y-65263500D03*
X168077400Y-65263500D03*
X158382400Y-62423500D03*
X161152400Y-62423500D03*
X163922400Y-62423500D03*
X166692400Y-62423500D03*
D10*
X177327999Y-115368401D03*
X174328000Y-115368401D03*
X171328001Y-115368401D03*
X168328002Y-115368401D03*
D35*
X159305000Y-82409800D03*
X157480000Y-82409800D03*
X159355800Y-84492600D03*
X157530800Y-84492600D03*
D36*
X161801800Y-101028000D03*
X163626800Y-101028000D03*
D15*
X170238400Y-104923500D03*
X176738400Y-104923500D03*
X170238400Y-109423500D03*
X176738400Y-109423500D03*
D37*
X159207200Y-112178600D03*
X159207200Y-114003600D03*
X126822200Y-113376200D03*
X126822200Y-115201200D03*
D38*
X118287800Y-119062000D03*
D39*
X120827800Y-119062000D03*
X118287800Y-121602000D03*
X120827800Y-121602000D03*
D15*
X158862200Y-79259000D03*
X158862200Y-72759000D03*
X163362200Y-79259000D03*
X163362200Y-72759000D03*
D10*
X130678801Y-63954600D03*
X133678800Y-63954600D03*
X136678799Y-63954600D03*
X139678798Y-63954600D03*
D40*
X126822200Y-118854200D03*
X126822200Y-116979200D03*
D36*
X165533700Y-101028000D03*
X167358700Y-101028000D03*
D15*
X159335400Y-104932000D03*
X165835400Y-104932000D03*
X159335400Y-109432000D03*
X165835400Y-109432000D03*
M02*
