%TF.GenerationSoftware,KiCad,Pcbnew,(6.0.7-1)-1*%
%TF.CreationDate,2022-11-19T18:21:17-08:00*%
%TF.ProjectId,telemetry-pcb,74656c65-6d65-4747-9279-2d7063622e6b,rev?*%
%TF.SameCoordinates,Original*%
%TF.FileFunction,Legend,Bot*%
%TF.FilePolarity,Positive*%
%FSLAX46Y46*%
G04 Gerber Fmt 4.6, Leading zero omitted, Abs format (unit mm)*
G04 Created by KiCad (PCBNEW (6.0.7-1)-1) date 2022-11-19 18:21:17*
%MOMM*%
%LPD*%
G01*
G04 APERTURE LIST*
G04 Aperture macros list*
%AMRoundRect*
0 Rectangle with rounded corners*
0 $1 Rounding radius*
0 $2 $3 $4 $5 $6 $7 $8 $9 X,Y pos of 4 corners*
0 Add a 4 corners polygon primitive as box body*
4,1,4,$2,$3,$4,$5,$6,$7,$8,$9,$2,$3,0*
0 Add four circle primitives for the rounded corners*
1,1,$1+$1,$2,$3*
1,1,$1+$1,$4,$5*
1,1,$1+$1,$6,$7*
1,1,$1+$1,$8,$9*
0 Add four rect primitives between the rounded corners*
20,1,$1+$1,$2,$3,$4,$5,0*
20,1,$1+$1,$4,$5,$6,$7,0*
20,1,$1+$1,$6,$7,$8,$9,0*
20,1,$1+$1,$8,$9,$2,$3,0*%
G04 Aperture macros list end*
%ADD10C,0.120000*%
%ADD11C,0.150000*%
%ADD12C,0.100000*%
%ADD13C,2.000000*%
%ADD14C,1.400000*%
%ADD15R,1.700000X1.700000*%
%ADD16O,1.700000X1.700000*%
%ADD17C,3.556000*%
%ADD18C,1.524000*%
%ADD19C,3.400000*%
%ADD20R,1.690000X1.690000*%
%ADD21C,1.690000*%
%ADD22C,3.454400*%
%ADD23C,1.676400*%
%ADD24C,4.000000*%
%ADD25C,3.300000*%
%ADD26RoundRect,0.101600X-0.939800X0.939800X-0.939800X-0.939800X0.939800X-0.939800X0.939800X0.939800X0*%
%ADD27C,2.082800*%
%ADD28R,1.600000X1.600000*%
%ADD29C,1.600000*%
%ADD30RoundRect,0.250000X0.475000X-0.250000X0.475000X0.250000X-0.475000X0.250000X-0.475000X-0.250000X0*%
%ADD31RoundRect,0.250000X-0.475000X0.250000X-0.475000X-0.250000X0.475000X-0.250000X0.475000X0.250000X0*%
%ADD32RoundRect,0.250000X-0.250000X-0.475000X0.250000X-0.475000X0.250000X0.475000X-0.250000X0.475000X0*%
%ADD33RoundRect,0.250000X0.250000X0.475000X-0.250000X0.475000X-0.250000X-0.475000X0.250000X-0.475000X0*%
%ADD34RoundRect,0.249999X0.325001X0.650001X-0.325001X0.650001X-0.325001X-0.650001X0.325001X-0.650001X0*%
%ADD35RoundRect,0.100000X-0.637500X-0.100000X0.637500X-0.100000X0.637500X0.100000X-0.637500X0.100000X0*%
%ADD36RoundRect,0.150000X-0.825000X-0.150000X0.825000X-0.150000X0.825000X0.150000X-0.825000X0.150000X0*%
%ADD37R,2.290000X3.000000*%
%ADD38RoundRect,0.150000X-0.875000X-0.150000X0.875000X-0.150000X0.875000X0.150000X-0.875000X0.150000X0*%
%ADD39RoundRect,0.150000X0.825000X0.150000X-0.825000X0.150000X-0.825000X-0.150000X0.825000X-0.150000X0*%
%ADD40R,0.576580X0.351536*%
%ADD41R,0.351536X0.576580*%
%ADD42RoundRect,0.249999X0.262501X0.450001X-0.262501X0.450001X-0.262501X-0.450001X0.262501X-0.450001X0*%
%ADD43RoundRect,0.249999X-0.262501X-0.450001X0.262501X-0.450001X0.262501X0.450001X-0.262501X0.450001X0*%
%ADD44RoundRect,0.249999X-0.450001X0.262501X-0.450001X-0.262501X0.450001X-0.262501X0.450001X0.262501X0*%
G04 APERTURE END LIST*
D10*
X134645400Y-120459500D02*
X134899400Y-120205500D01*
X133121400Y-121983500D02*
X132867400Y-122237500D01*
X133121400Y-122491500D02*
X132867400Y-122237500D01*
X134899400Y-120205500D02*
X135153400Y-120459500D01*
X134899400Y-122237500D02*
X134899400Y-120205500D01*
X134899400Y-122237500D02*
X132867400Y-122237500D01*
D11*
X132367304Y-119229214D02*
X131843495Y-119229214D01*
X132367304Y-119895880D01*
X131843495Y-119895880D01*
D12*
X131193093Y-120238424D02*
X131226427Y-120205091D01*
X131293093Y-120105091D01*
X131326427Y-120038424D01*
X131359760Y-119938424D01*
X131393093Y-119771757D01*
X131393093Y-119638424D01*
X131359760Y-119471757D01*
X131326427Y-119371757D01*
X131293093Y-119305091D01*
X131226427Y-119205091D01*
X131193093Y-119171757D01*
X130626427Y-119971757D02*
X130626427Y-119271757D01*
X130626427Y-119938424D02*
X130693093Y-119971757D01*
X130826427Y-119971757D01*
X130893093Y-119938424D01*
X130926427Y-119905091D01*
X130959760Y-119838424D01*
X130959760Y-119638424D01*
X130926427Y-119571757D01*
X130893093Y-119538424D01*
X130826427Y-119505091D01*
X130693093Y-119505091D01*
X130626427Y-119538424D01*
X130193093Y-119971757D02*
X130259760Y-119938424D01*
X130293093Y-119905091D01*
X130326427Y-119838424D01*
X130326427Y-119638424D01*
X130293093Y-119571757D01*
X130259760Y-119538424D01*
X130193093Y-119505091D01*
X130093093Y-119505091D01*
X130026427Y-119538424D01*
X129993093Y-119571757D01*
X129959760Y-119638424D01*
X129959760Y-119838424D01*
X129993093Y-119905091D01*
X130026427Y-119938424D01*
X130093093Y-119971757D01*
X130193093Y-119971757D01*
X129726427Y-119505091D02*
X129593093Y-119971757D01*
X129459760Y-119638424D01*
X129326427Y-119971757D01*
X129193093Y-119505091D01*
X128926427Y-119505091D02*
X128926427Y-119971757D01*
X128926427Y-119571757D02*
X128893093Y-119538424D01*
X128826427Y-119505091D01*
X128726427Y-119505091D01*
X128659760Y-119538424D01*
X128626427Y-119605091D01*
X128626427Y-119971757D01*
X128359760Y-120238424D02*
X128326427Y-120205091D01*
X128259760Y-120105091D01*
X128226427Y-120038424D01*
X128193093Y-119938424D01*
X128159760Y-119771757D01*
X128159760Y-119638424D01*
X128193093Y-119471757D01*
X128226427Y-119371757D01*
X128259760Y-119305091D01*
X128326427Y-119205091D01*
X128359760Y-119171757D01*
D11*
X135161304Y-119895880D02*
X134637495Y-119229214D01*
X135161304Y-119229214D02*
X134637495Y-119895880D01*
X132597495Y-121769214D02*
X132359400Y-122435880D01*
X132121304Y-121769214D02*
X132359400Y-122435880D01*
X132454638Y-122673976D01*
X132502257Y-122721595D01*
X132597495Y-122769214D01*
X162844542Y-90386833D02*
X162892161Y-90339214D01*
X162939780Y-90196357D01*
X162939780Y-90101119D01*
X162892161Y-89958261D01*
X162796923Y-89863023D01*
X162701685Y-89815404D01*
X162511209Y-89767785D01*
X162368352Y-89767785D01*
X162177876Y-89815404D01*
X162082638Y-89863023D01*
X161987400Y-89958261D01*
X161939780Y-90101119D01*
X161939780Y-90196357D01*
X161987400Y-90339214D01*
X162035019Y-90386833D01*
X162035019Y-90767785D02*
X161987400Y-90815404D01*
X161939780Y-90910642D01*
X161939780Y-91148738D01*
X161987400Y-91243976D01*
X162035019Y-91291595D01*
X162130257Y-91339214D01*
X162225495Y-91339214D01*
X162368352Y-91291595D01*
X162939780Y-90720166D01*
X162939780Y-91339214D01*
X159484542Y-85240833D02*
X159532161Y-85193214D01*
X159579780Y-85050357D01*
X159579780Y-84955119D01*
X159532161Y-84812261D01*
X159436923Y-84717023D01*
X159341685Y-84669404D01*
X159151209Y-84621785D01*
X159008352Y-84621785D01*
X158817876Y-84669404D01*
X158722638Y-84717023D01*
X158627400Y-84812261D01*
X158579780Y-84955119D01*
X158579780Y-85050357D01*
X158627400Y-85193214D01*
X158675019Y-85240833D01*
X158579780Y-85574166D02*
X158579780Y-86193214D01*
X158960733Y-85859880D01*
X158960733Y-86002738D01*
X159008352Y-86097976D01*
X159055971Y-86145595D01*
X159151209Y-86193214D01*
X159389304Y-86193214D01*
X159484542Y-86145595D01*
X159532161Y-86097976D01*
X159579780Y-86002738D01*
X159579780Y-85717023D01*
X159532161Y-85621785D01*
X159484542Y-85574166D01*
X167578066Y-84396642D02*
X167625685Y-84444261D01*
X167768542Y-84491880D01*
X167863780Y-84491880D01*
X168006638Y-84444261D01*
X168101876Y-84349023D01*
X168149495Y-84253785D01*
X168197114Y-84063309D01*
X168197114Y-83920452D01*
X168149495Y-83729976D01*
X168101876Y-83634738D01*
X168006638Y-83539500D01*
X167863780Y-83491880D01*
X167768542Y-83491880D01*
X167625685Y-83539500D01*
X167578066Y-83587119D01*
X166720923Y-83825214D02*
X166720923Y-84491880D01*
X166959019Y-83444261D02*
X167197114Y-84158547D01*
X166578066Y-84158547D01*
X172692542Y-89812833D02*
X172740161Y-89765214D01*
X172787780Y-89622357D01*
X172787780Y-89527119D01*
X172740161Y-89384261D01*
X172644923Y-89289023D01*
X172549685Y-89241404D01*
X172359209Y-89193785D01*
X172216352Y-89193785D01*
X172025876Y-89241404D01*
X171930638Y-89289023D01*
X171835400Y-89384261D01*
X171787780Y-89527119D01*
X171787780Y-89622357D01*
X171835400Y-89765214D01*
X171883019Y-89812833D01*
X171787780Y-90717595D02*
X171787780Y-90241404D01*
X172263971Y-90193785D01*
X172216352Y-90241404D01*
X172168733Y-90336642D01*
X172168733Y-90574738D01*
X172216352Y-90669976D01*
X172263971Y-90717595D01*
X172359209Y-90765214D01*
X172597304Y-90765214D01*
X172692542Y-90717595D01*
X172740161Y-90669976D01*
X172787780Y-90574738D01*
X172787780Y-90336642D01*
X172740161Y-90241404D01*
X172692542Y-90193785D01*
X167578066Y-95924642D02*
X167625685Y-95972261D01*
X167768542Y-96019880D01*
X167863780Y-96019880D01*
X168006638Y-95972261D01*
X168101876Y-95877023D01*
X168149495Y-95781785D01*
X168197114Y-95591309D01*
X168197114Y-95448452D01*
X168149495Y-95257976D01*
X168101876Y-95162738D01*
X168006638Y-95067500D01*
X167863780Y-95019880D01*
X167768542Y-95019880D01*
X167625685Y-95067500D01*
X167578066Y-95115119D01*
X166720923Y-95019880D02*
X166911400Y-95019880D01*
X167006638Y-95067500D01*
X167054257Y-95115119D01*
X167149495Y-95257976D01*
X167197114Y-95448452D01*
X167197114Y-95829404D01*
X167149495Y-95924642D01*
X167101876Y-95972261D01*
X167006638Y-96019880D01*
X166816161Y-96019880D01*
X166720923Y-95972261D01*
X166673304Y-95924642D01*
X166625685Y-95829404D01*
X166625685Y-95591309D01*
X166673304Y-95496071D01*
X166720923Y-95448452D01*
X166816161Y-95400833D01*
X167006638Y-95400833D01*
X167101876Y-95448452D01*
X167149495Y-95496071D01*
X167197114Y-95591309D01*
X96042542Y-91082833D02*
X96090161Y-91035214D01*
X96137780Y-90892357D01*
X96137780Y-90797119D01*
X96090161Y-90654261D01*
X95994923Y-90559023D01*
X95899685Y-90511404D01*
X95709209Y-90463785D01*
X95566352Y-90463785D01*
X95375876Y-90511404D01*
X95280638Y-90559023D01*
X95185400Y-90654261D01*
X95137780Y-90797119D01*
X95137780Y-90892357D01*
X95185400Y-91035214D01*
X95233019Y-91082833D01*
X95137780Y-91416166D02*
X95137780Y-92082833D01*
X96137780Y-91654261D01*
X96042542Y-72474833D02*
X96090161Y-72427214D01*
X96137780Y-72284357D01*
X96137780Y-72189119D01*
X96090161Y-72046261D01*
X95994923Y-71951023D01*
X95899685Y-71903404D01*
X95709209Y-71855785D01*
X95566352Y-71855785D01*
X95375876Y-71903404D01*
X95280638Y-71951023D01*
X95185400Y-72046261D01*
X95137780Y-72189119D01*
X95137780Y-72284357D01*
X95185400Y-72427214D01*
X95233019Y-72474833D01*
X95566352Y-73046261D02*
X95518733Y-72951023D01*
X95471114Y-72903404D01*
X95375876Y-72855785D01*
X95328257Y-72855785D01*
X95233019Y-72903404D01*
X95185400Y-72951023D01*
X95137780Y-73046261D01*
X95137780Y-73236738D01*
X95185400Y-73331976D01*
X95233019Y-73379595D01*
X95328257Y-73427214D01*
X95375876Y-73427214D01*
X95471114Y-73379595D01*
X95518733Y-73331976D01*
X95566352Y-73236738D01*
X95566352Y-73046261D01*
X95613971Y-72951023D01*
X95661590Y-72903404D01*
X95756828Y-72855785D01*
X95947304Y-72855785D01*
X96042542Y-72903404D01*
X96090161Y-72951023D01*
X96137780Y-73046261D01*
X96137780Y-73236738D01*
X96090161Y-73331976D01*
X96042542Y-73379595D01*
X95947304Y-73427214D01*
X95756828Y-73427214D01*
X95661590Y-73379595D01*
X95613971Y-73331976D01*
X95566352Y-73236738D01*
X107668542Y-88288833D02*
X107716161Y-88241214D01*
X107763780Y-88098357D01*
X107763780Y-88003119D01*
X107716161Y-87860261D01*
X107620923Y-87765023D01*
X107525685Y-87717404D01*
X107335209Y-87669785D01*
X107192352Y-87669785D01*
X107001876Y-87717404D01*
X106906638Y-87765023D01*
X106811400Y-87860261D01*
X106763780Y-88003119D01*
X106763780Y-88098357D01*
X106811400Y-88241214D01*
X106859019Y-88288833D01*
X107763780Y-88765023D02*
X107763780Y-88955500D01*
X107716161Y-89050738D01*
X107668542Y-89098357D01*
X107525685Y-89193595D01*
X107335209Y-89241214D01*
X106954257Y-89241214D01*
X106859019Y-89193595D01*
X106811400Y-89145976D01*
X106763780Y-89050738D01*
X106763780Y-88860261D01*
X106811400Y-88765023D01*
X106859019Y-88717404D01*
X106954257Y-88669785D01*
X107192352Y-88669785D01*
X107287590Y-88717404D01*
X107335209Y-88765023D01*
X107382828Y-88860261D01*
X107382828Y-89050738D01*
X107335209Y-89145976D01*
X107287590Y-89193595D01*
X107192352Y-89241214D01*
X107668542Y-76128642D02*
X107716161Y-76081023D01*
X107763780Y-75938166D01*
X107763780Y-75842928D01*
X107716161Y-75700071D01*
X107620923Y-75604833D01*
X107525685Y-75557214D01*
X107335209Y-75509595D01*
X107192352Y-75509595D01*
X107001876Y-75557214D01*
X106906638Y-75604833D01*
X106811400Y-75700071D01*
X106763780Y-75842928D01*
X106763780Y-75938166D01*
X106811400Y-76081023D01*
X106859019Y-76128642D01*
X107763780Y-77081023D02*
X107763780Y-76509595D01*
X107763780Y-76795309D02*
X106763780Y-76795309D01*
X106906638Y-76700071D01*
X107001876Y-76604833D01*
X107049495Y-76509595D01*
X106763780Y-77700071D02*
X106763780Y-77795309D01*
X106811400Y-77890547D01*
X106859019Y-77938166D01*
X106954257Y-77985785D01*
X107144733Y-78033404D01*
X107382828Y-78033404D01*
X107573304Y-77985785D01*
X107668542Y-77938166D01*
X107716161Y-77890547D01*
X107763780Y-77795309D01*
X107763780Y-77700071D01*
X107716161Y-77604833D01*
X107668542Y-77557214D01*
X107573304Y-77509595D01*
X107382828Y-77461976D01*
X107144733Y-77461976D01*
X106954257Y-77509595D01*
X106859019Y-77557214D01*
X106811400Y-77604833D01*
X106763780Y-77700071D01*
X140114257Y-99480642D02*
X140161876Y-99528261D01*
X140304733Y-99575880D01*
X140399971Y-99575880D01*
X140542828Y-99528261D01*
X140638066Y-99433023D01*
X140685685Y-99337785D01*
X140733304Y-99147309D01*
X140733304Y-99004452D01*
X140685685Y-98813976D01*
X140638066Y-98718738D01*
X140542828Y-98623500D01*
X140399971Y-98575880D01*
X140304733Y-98575880D01*
X140161876Y-98623500D01*
X140114257Y-98671119D01*
X139161876Y-99575880D02*
X139733304Y-99575880D01*
X139447590Y-99575880D02*
X139447590Y-98575880D01*
X139542828Y-98718738D01*
X139638066Y-98813976D01*
X139733304Y-98861595D01*
X138828542Y-98575880D02*
X138209495Y-98575880D01*
X138542828Y-98956833D01*
X138399971Y-98956833D01*
X138304733Y-99004452D01*
X138257114Y-99052071D01*
X138209495Y-99147309D01*
X138209495Y-99385404D01*
X138257114Y-99480642D01*
X138304733Y-99528261D01*
X138399971Y-99575880D01*
X138685685Y-99575880D01*
X138780923Y-99528261D01*
X138828542Y-99480642D01*
X140065257Y-94582642D02*
X140112876Y-94630261D01*
X140255733Y-94677880D01*
X140350971Y-94677880D01*
X140493828Y-94630261D01*
X140589066Y-94535023D01*
X140636685Y-94439785D01*
X140684304Y-94249309D01*
X140684304Y-94106452D01*
X140636685Y-93915976D01*
X140589066Y-93820738D01*
X140493828Y-93725500D01*
X140350971Y-93677880D01*
X140255733Y-93677880D01*
X140112876Y-93725500D01*
X140065257Y-93773119D01*
X139112876Y-94677880D02*
X139684304Y-94677880D01*
X139398590Y-94677880D02*
X139398590Y-93677880D01*
X139493828Y-93820738D01*
X139589066Y-93915976D01*
X139684304Y-93963595D01*
X138255733Y-94011214D02*
X138255733Y-94677880D01*
X138493828Y-93630261D02*
X138731923Y-94344547D01*
X138112876Y-94344547D01*
X138590257Y-118940642D02*
X138637876Y-118988261D01*
X138780733Y-119035880D01*
X138875971Y-119035880D01*
X139018828Y-118988261D01*
X139114066Y-118893023D01*
X139161685Y-118797785D01*
X139209304Y-118607309D01*
X139209304Y-118464452D01*
X139161685Y-118273976D01*
X139114066Y-118178738D01*
X139018828Y-118083500D01*
X138875971Y-118035880D01*
X138780733Y-118035880D01*
X138637876Y-118083500D01*
X138590257Y-118131119D01*
X137637876Y-119035880D02*
X138209304Y-119035880D01*
X137923590Y-119035880D02*
X137923590Y-118035880D01*
X138018828Y-118178738D01*
X138114066Y-118273976D01*
X138209304Y-118321595D01*
X136733114Y-118035880D02*
X137209304Y-118035880D01*
X137256923Y-118512071D01*
X137209304Y-118464452D01*
X137114066Y-118416833D01*
X136875971Y-118416833D01*
X136780733Y-118464452D01*
X136733114Y-118512071D01*
X136685495Y-118607309D01*
X136685495Y-118845404D01*
X136733114Y-118940642D01*
X136780733Y-118988261D01*
X136875971Y-119035880D01*
X137114066Y-119035880D01*
X137209304Y-118988261D01*
X137256923Y-118940642D01*
X171168542Y-104134642D02*
X171216161Y-104087023D01*
X171263780Y-103944166D01*
X171263780Y-103848928D01*
X171216161Y-103706071D01*
X171120923Y-103610833D01*
X171025685Y-103563214D01*
X170835209Y-103515595D01*
X170692352Y-103515595D01*
X170501876Y-103563214D01*
X170406638Y-103610833D01*
X170311400Y-103706071D01*
X170263780Y-103848928D01*
X170263780Y-103944166D01*
X170311400Y-104087023D01*
X170359019Y-104134642D01*
X171263780Y-105087023D02*
X171263780Y-104515595D01*
X171263780Y-104801309D02*
X170263780Y-104801309D01*
X170406638Y-104706071D01*
X170501876Y-104610833D01*
X170549495Y-104515595D01*
X170263780Y-105944166D02*
X170263780Y-105753690D01*
X170311400Y-105658452D01*
X170359019Y-105610833D01*
X170501876Y-105515595D01*
X170692352Y-105467976D01*
X171073304Y-105467976D01*
X171168542Y-105515595D01*
X171216161Y-105563214D01*
X171263780Y-105658452D01*
X171263780Y-105848928D01*
X171216161Y-105944166D01*
X171168542Y-105991785D01*
X171073304Y-106039404D01*
X170835209Y-106039404D01*
X170739971Y-105991785D01*
X170692352Y-105944166D01*
X170644733Y-105848928D01*
X170644733Y-105658452D01*
X170692352Y-105563214D01*
X170739971Y-105515595D01*
X170835209Y-105467976D01*
X168387590Y-91849880D02*
X168387590Y-90849880D01*
X167339971Y-91754642D02*
X167387590Y-91802261D01*
X167530447Y-91849880D01*
X167625685Y-91849880D01*
X167768542Y-91802261D01*
X167863780Y-91707023D01*
X167911400Y-91611785D01*
X167959019Y-91421309D01*
X167959019Y-91278452D01*
X167911400Y-91087976D01*
X167863780Y-90992738D01*
X167768542Y-90897500D01*
X167625685Y-90849880D01*
X167530447Y-90849880D01*
X167387590Y-90897500D01*
X167339971Y-90945119D01*
X166387590Y-91849880D02*
X166959019Y-91849880D01*
X166673304Y-91849880D02*
X166673304Y-90849880D01*
X166768542Y-90992738D01*
X166863780Y-91087976D01*
X166959019Y-91135595D01*
X117649590Y-92549880D02*
X117649590Y-91549880D01*
X116601971Y-92454642D02*
X116649590Y-92502261D01*
X116792447Y-92549880D01*
X116887685Y-92549880D01*
X117030542Y-92502261D01*
X117125780Y-92407023D01*
X117173400Y-92311785D01*
X117221019Y-92121309D01*
X117221019Y-91978452D01*
X117173400Y-91787976D01*
X117125780Y-91692738D01*
X117030542Y-91597500D01*
X116887685Y-91549880D01*
X116792447Y-91549880D01*
X116649590Y-91597500D01*
X116601971Y-91645119D01*
X116221019Y-91645119D02*
X116173400Y-91597500D01*
X116078161Y-91549880D01*
X115840066Y-91549880D01*
X115744828Y-91597500D01*
X115697209Y-91645119D01*
X115649590Y-91740357D01*
X115649590Y-91835595D01*
X115697209Y-91978452D01*
X116268638Y-92549880D01*
X115649590Y-92549880D01*
X117587590Y-80623880D02*
X117587590Y-79623880D01*
X116539971Y-80528642D02*
X116587590Y-80576261D01*
X116730447Y-80623880D01*
X116825685Y-80623880D01*
X116968542Y-80576261D01*
X117063780Y-80481023D01*
X117111400Y-80385785D01*
X117159019Y-80195309D01*
X117159019Y-80052452D01*
X117111400Y-79861976D01*
X117063780Y-79766738D01*
X116968542Y-79671500D01*
X116825685Y-79623880D01*
X116730447Y-79623880D01*
X116587590Y-79671500D01*
X116539971Y-79719119D01*
X116206638Y-79623880D02*
X115587590Y-79623880D01*
X115920923Y-80004833D01*
X115778066Y-80004833D01*
X115682828Y-80052452D01*
X115635209Y-80100071D01*
X115587590Y-80195309D01*
X115587590Y-80433404D01*
X115635209Y-80528642D01*
X115682828Y-80576261D01*
X115778066Y-80623880D01*
X116063780Y-80623880D01*
X116159019Y-80576261D01*
X116206638Y-80528642D01*
X135875590Y-94103880D02*
X135875590Y-93103880D01*
X134827971Y-94008642D02*
X134875590Y-94056261D01*
X135018447Y-94103880D01*
X135113685Y-94103880D01*
X135256542Y-94056261D01*
X135351780Y-93961023D01*
X135399400Y-93865785D01*
X135447019Y-93675309D01*
X135447019Y-93532452D01*
X135399400Y-93341976D01*
X135351780Y-93246738D01*
X135256542Y-93151500D01*
X135113685Y-93103880D01*
X135018447Y-93103880D01*
X134875590Y-93151500D01*
X134827971Y-93199119D01*
X133970828Y-93437214D02*
X133970828Y-94103880D01*
X134208923Y-93056261D02*
X134447019Y-93770547D01*
X133827971Y-93770547D01*
X166355590Y-101763880D02*
X166355590Y-100763880D01*
X165307971Y-101668642D02*
X165355590Y-101716261D01*
X165498447Y-101763880D01*
X165593685Y-101763880D01*
X165736542Y-101716261D01*
X165831780Y-101621023D01*
X165879400Y-101525785D01*
X165927019Y-101335309D01*
X165927019Y-101192452D01*
X165879400Y-101001976D01*
X165831780Y-100906738D01*
X165736542Y-100811500D01*
X165593685Y-100763880D01*
X165498447Y-100763880D01*
X165355590Y-100811500D01*
X165307971Y-100859119D01*
X164403209Y-100763880D02*
X164879400Y-100763880D01*
X164927019Y-101240071D01*
X164879400Y-101192452D01*
X164784161Y-101144833D01*
X164546066Y-101144833D01*
X164450828Y-101192452D01*
X164403209Y-101240071D01*
X164355590Y-101335309D01*
X164355590Y-101573404D01*
X164403209Y-101668642D01*
X164450828Y-101716261D01*
X164546066Y-101763880D01*
X164784161Y-101763880D01*
X164879400Y-101716261D01*
X164927019Y-101668642D01*
X141971590Y-121927880D02*
X141971590Y-120927880D01*
X140923971Y-121832642D02*
X140971590Y-121880261D01*
X141114447Y-121927880D01*
X141209685Y-121927880D01*
X141352542Y-121880261D01*
X141447780Y-121785023D01*
X141495400Y-121689785D01*
X141543019Y-121499309D01*
X141543019Y-121356452D01*
X141495400Y-121165976D01*
X141447780Y-121070738D01*
X141352542Y-120975500D01*
X141209685Y-120927880D01*
X141114447Y-120927880D01*
X140971590Y-120975500D01*
X140923971Y-121023119D01*
X140066828Y-120927880D02*
X140257304Y-120927880D01*
X140352542Y-120975500D01*
X140400161Y-121023119D01*
X140495400Y-121165976D01*
X140543019Y-121356452D01*
X140543019Y-121737404D01*
X140495400Y-121832642D01*
X140447780Y-121880261D01*
X140352542Y-121927880D01*
X140162066Y-121927880D01*
X140066828Y-121880261D01*
X140019209Y-121832642D01*
X139971590Y-121737404D01*
X139971590Y-121499309D01*
X140019209Y-121404071D01*
X140066828Y-121356452D01*
X140162066Y-121308833D01*
X140352542Y-121308833D01*
X140447780Y-121356452D01*
X140495400Y-121404071D01*
X140543019Y-121499309D01*
X141542638Y-124467880D02*
X142018828Y-124467880D01*
X142018828Y-123467880D01*
X141256923Y-124420261D02*
X141114066Y-124467880D01*
X140875971Y-124467880D01*
X140780733Y-124420261D01*
X140733114Y-124372642D01*
X140685495Y-124277404D01*
X140685495Y-124182166D01*
X140733114Y-124086928D01*
X140780733Y-124039309D01*
X140875971Y-123991690D01*
X141066447Y-123944071D01*
X141161685Y-123896452D01*
X141209304Y-123848833D01*
X141256923Y-123753595D01*
X141256923Y-123658357D01*
X141209304Y-123563119D01*
X141161685Y-123515500D01*
X141066447Y-123467880D01*
X140828352Y-123467880D01*
X140685495Y-123515500D01*
X140256923Y-124467880D02*
X140256923Y-123467880D01*
X139923590Y-124182166D01*
X139590257Y-123467880D01*
X139590257Y-124467880D01*
X138685495Y-123467880D02*
X138875971Y-123467880D01*
X138971209Y-123515500D01*
X139018828Y-123563119D01*
X139114066Y-123705976D01*
X139161685Y-123896452D01*
X139161685Y-124277404D01*
X139114066Y-124372642D01*
X139066447Y-124420261D01*
X138971209Y-124467880D01*
X138780733Y-124467880D01*
X138685495Y-124420261D01*
X138637876Y-124372642D01*
X138590257Y-124277404D01*
X138590257Y-124039309D01*
X138637876Y-123944071D01*
X138685495Y-123896452D01*
X138780733Y-123848833D01*
X138971209Y-123848833D01*
X139066447Y-123896452D01*
X139114066Y-123944071D01*
X139161685Y-124039309D01*
X138161685Y-124467880D02*
X138161685Y-123467880D01*
X137923590Y-123467880D01*
X137780733Y-123515500D01*
X137685495Y-123610738D01*
X137637876Y-123705976D01*
X137590257Y-123896452D01*
X137590257Y-124039309D01*
X137637876Y-124229785D01*
X137685495Y-124325023D01*
X137780733Y-124420261D01*
X137923590Y-124467880D01*
X138161685Y-124467880D01*
X137209304Y-124420261D02*
X137066447Y-124467880D01*
X136828352Y-124467880D01*
X136733114Y-124420261D01*
X136685495Y-124372642D01*
X136637876Y-124277404D01*
X136637876Y-124182166D01*
X136685495Y-124086928D01*
X136733114Y-124039309D01*
X136828352Y-123991690D01*
X137018828Y-123944071D01*
X137114066Y-123896452D01*
X137161685Y-123848833D01*
X137209304Y-123753595D01*
X137209304Y-123658357D01*
X137161685Y-123563119D01*
X137114066Y-123515500D01*
X137018828Y-123467880D01*
X136780733Y-123467880D01*
X136637876Y-123515500D01*
X136018828Y-123467880D02*
X135828352Y-123467880D01*
X135733114Y-123515500D01*
X135637876Y-123610738D01*
X135590257Y-123801214D01*
X135590257Y-124134547D01*
X135637876Y-124325023D01*
X135733114Y-124420261D01*
X135828352Y-124467880D01*
X136018828Y-124467880D01*
X136114066Y-124420261D01*
X136209304Y-124325023D01*
X136256923Y-124134547D01*
X136256923Y-123801214D01*
X136209304Y-123610738D01*
X136114066Y-123515500D01*
X136018828Y-123467880D01*
X135304542Y-123467880D02*
X134733114Y-123467880D01*
X135018828Y-124467880D02*
X135018828Y-123467880D01*
X133828352Y-124467880D02*
X134161685Y-123991690D01*
X134399780Y-124467880D02*
X134399780Y-123467880D01*
X134018828Y-123467880D01*
X133923590Y-123515500D01*
X133875971Y-123563119D01*
X133828352Y-123658357D01*
X133828352Y-123801214D01*
X133875971Y-123896452D01*
X133923590Y-123944071D01*
X134018828Y-123991690D01*
X134399780Y-123991690D01*
X135864600Y-121927880D02*
X135864600Y-122165976D01*
X136102695Y-122070738D02*
X135864600Y-122165976D01*
X135626504Y-122070738D01*
X136007457Y-122356452D02*
X135864600Y-122165976D01*
X135721742Y-122356452D01*
X135864600Y-121927880D02*
X135864600Y-122165976D01*
X136102695Y-122070738D02*
X135864600Y-122165976D01*
X135626504Y-122070738D01*
X136007457Y-122356452D02*
X135864600Y-122165976D01*
X135721742Y-122356452D01*
X139026566Y-79763880D02*
X139359900Y-79287690D01*
X139597995Y-79763880D02*
X139597995Y-78763880D01*
X139217042Y-78763880D01*
X139121804Y-78811500D01*
X139074185Y-78859119D01*
X139026566Y-78954357D01*
X139026566Y-79097214D01*
X139074185Y-79192452D01*
X139121804Y-79240071D01*
X139217042Y-79287690D01*
X139597995Y-79287690D01*
X138455138Y-79192452D02*
X138550376Y-79144833D01*
X138597995Y-79097214D01*
X138645614Y-79001976D01*
X138645614Y-78954357D01*
X138597995Y-78859119D01*
X138550376Y-78811500D01*
X138455138Y-78763880D01*
X138264661Y-78763880D01*
X138169423Y-78811500D01*
X138121804Y-78859119D01*
X138074185Y-78954357D01*
X138074185Y-79001976D01*
X138121804Y-79097214D01*
X138169423Y-79144833D01*
X138264661Y-79192452D01*
X138455138Y-79192452D01*
X138550376Y-79240071D01*
X138597995Y-79287690D01*
X138645614Y-79382928D01*
X138645614Y-79573404D01*
X138597995Y-79668642D01*
X138550376Y-79716261D01*
X138455138Y-79763880D01*
X138264661Y-79763880D01*
X138169423Y-79716261D01*
X138121804Y-79668642D01*
X138074185Y-79573404D01*
X138074185Y-79382928D01*
X138121804Y-79287690D01*
X138169423Y-79240071D01*
X138264661Y-79192452D01*
X185254566Y-78873880D02*
X185587900Y-78397690D01*
X185825995Y-78873880D02*
X185825995Y-77873880D01*
X185445042Y-77873880D01*
X185349804Y-77921500D01*
X185302185Y-77969119D01*
X185254566Y-78064357D01*
X185254566Y-78207214D01*
X185302185Y-78302452D01*
X185349804Y-78350071D01*
X185445042Y-78397690D01*
X185825995Y-78397690D01*
X184921233Y-77873880D02*
X184254566Y-77873880D01*
X184683138Y-78873880D01*
X183993780Y-88185333D02*
X183517590Y-87852000D01*
X183993780Y-87613904D02*
X182993780Y-87613904D01*
X182993780Y-87994857D01*
X183041400Y-88090095D01*
X183089019Y-88137714D01*
X183184257Y-88185333D01*
X183327114Y-88185333D01*
X183422352Y-88137714D01*
X183469971Y-88090095D01*
X183517590Y-87994857D01*
X183517590Y-87613904D01*
X183993780Y-88661523D02*
X183993780Y-88852000D01*
X183946161Y-88947238D01*
X183898542Y-88994857D01*
X183755685Y-89090095D01*
X183565209Y-89137714D01*
X183184257Y-89137714D01*
X183089019Y-89090095D01*
X183041400Y-89042476D01*
X182993780Y-88947238D01*
X182993780Y-88756761D01*
X183041400Y-88661523D01*
X183089019Y-88613904D01*
X183184257Y-88566285D01*
X183422352Y-88566285D01*
X183517590Y-88613904D01*
X183565209Y-88661523D01*
X183612828Y-88756761D01*
X183612828Y-88947238D01*
X183565209Y-89042476D01*
X183517590Y-89090095D01*
X183422352Y-89137714D01*
D10*
X127660400Y-68135500D02*
G75*
G03*
X127660400Y-68135500I-381000J0D01*
G01*
X160072400Y-90814752D02*
X160072400Y-90292248D01*
X161542400Y-90814752D02*
X161542400Y-90292248D01*
X161542400Y-85146248D02*
X161542400Y-85668752D01*
X160072400Y-85146248D02*
X160072400Y-85668752D01*
X167150148Y-81624500D02*
X167672652Y-81624500D01*
X167150148Y-83094500D02*
X167672652Y-83094500D01*
X173280400Y-89718248D02*
X173280400Y-90240752D01*
X174750400Y-89718248D02*
X174750400Y-90240752D01*
X167672652Y-92800500D02*
X167150148Y-92800500D01*
X167672652Y-94270500D02*
X167150148Y-94270500D01*
X93270400Y-91510752D02*
X93270400Y-90988248D01*
X94740400Y-91510752D02*
X94740400Y-90988248D01*
X94740400Y-72902752D02*
X94740400Y-72380248D01*
X93270400Y-72902752D02*
X93270400Y-72380248D01*
X109726400Y-88194248D02*
X109726400Y-88716752D01*
X108256400Y-88194248D02*
X108256400Y-88716752D01*
X108256400Y-76510248D02*
X108256400Y-77032752D01*
X109726400Y-76510248D02*
X109726400Y-77032752D01*
X139210148Y-100420500D02*
X139732652Y-100420500D01*
X139210148Y-101890500D02*
X139732652Y-101890500D01*
X140133652Y-95165500D02*
X138711148Y-95165500D01*
X140133652Y-96985500D02*
X138711148Y-96985500D01*
X137686148Y-117638500D02*
X138208652Y-117638500D01*
X137686148Y-116168500D02*
X138208652Y-116168500D01*
X171756400Y-104516248D02*
X171756400Y-105038752D01*
X173226400Y-104516248D02*
X173226400Y-105038752D01*
X167411400Y-90682500D02*
X169611400Y-90682500D01*
X167411400Y-85212500D02*
X169611400Y-85212500D01*
X167411400Y-90682500D02*
X163811400Y-90682500D01*
X167411400Y-85212500D02*
X165211400Y-85212500D01*
X116673400Y-86137500D02*
X114723400Y-86137500D01*
X116673400Y-86137500D02*
X118623400Y-86137500D01*
X116673400Y-91257500D02*
X113223400Y-91257500D01*
X116673400Y-91257500D02*
X118623400Y-91257500D01*
X116611400Y-74211500D02*
X114661400Y-74211500D01*
X116611400Y-79331500D02*
X118561400Y-79331500D01*
X116611400Y-79331500D02*
X113161400Y-79331500D01*
X116611400Y-74211500D02*
X118561400Y-74211500D01*
X138963400Y-81046500D02*
X142823400Y-81046500D01*
X138963400Y-81046500D02*
X135103400Y-81046500D01*
X135103400Y-92571500D02*
X133288400Y-92571500D01*
X142823400Y-81046500D02*
X142823400Y-81291500D01*
X135103400Y-81046500D02*
X135103400Y-81291500D01*
X142823400Y-92816500D02*
X142823400Y-92571500D01*
X138963400Y-92816500D02*
X135103400Y-92816500D01*
X135103400Y-92816500D02*
X135103400Y-92571500D01*
X138963400Y-92816500D02*
X142823400Y-92816500D01*
X165379400Y-102151500D02*
X168829400Y-102151500D01*
X165379400Y-107271500D02*
X167329400Y-107271500D01*
X165379400Y-107271500D02*
X163429400Y-107271500D01*
X165379400Y-102151500D02*
X163429400Y-102151500D01*
X138814180Y-120053100D02*
X139623800Y-120053100D01*
X137080620Y-122897900D02*
X136271000Y-122897900D01*
X139623800Y-122897900D02*
X138814180Y-122897900D01*
X136271000Y-122897900D02*
X136271000Y-122592282D01*
X136271000Y-120053100D02*
X137080620Y-120053100D01*
X139623800Y-122592282D02*
X139623800Y-122897900D01*
X136271000Y-120358718D02*
X136271000Y-120053100D01*
X139623800Y-120053100D02*
X139623800Y-120358718D01*
G36*
X139903200Y-121916000D02*
G01*
X139649200Y-121916000D01*
X139649200Y-121534999D01*
X139903200Y-121534999D01*
X139903200Y-121916000D01*
G37*
D12*
X139903200Y-121916000D02*
X139649200Y-121916000D01*
X139649200Y-121534999D01*
X139903200Y-121534999D01*
X139903200Y-121916000D01*
D10*
X139086964Y-77052500D02*
X138632836Y-77052500D01*
X139086964Y-78522500D02*
X138632836Y-78522500D01*
X184860836Y-76036500D02*
X185314964Y-76036500D01*
X184860836Y-77506500D02*
X185314964Y-77506500D01*
X184456400Y-88124936D02*
X184456400Y-88579064D01*
X185926400Y-88124936D02*
X185926400Y-88579064D01*
%LPC*%
D13*
X98069400Y-89499500D03*
X98069400Y-92999500D03*
X98069400Y-71211500D03*
X98069400Y-74711500D03*
D14*
X123723400Y-121475500D03*
X121183400Y-121475500D03*
D15*
X152171400Y-118645500D03*
D16*
X152171400Y-115887500D03*
X152171400Y-113347500D03*
X152171400Y-110807500D03*
X152171400Y-108267500D03*
X152171400Y-105727500D03*
X152171400Y-103187500D03*
X152171400Y-100647500D03*
X152171400Y-98107500D03*
X152171400Y-95567500D03*
X152171400Y-93027500D03*
X152171400Y-90487500D03*
X152171400Y-87947500D03*
X152171400Y-85407500D03*
X152171400Y-82867500D03*
D15*
X124739400Y-108775500D03*
D16*
X124739400Y-106235500D03*
X124739400Y-103695500D03*
X124739400Y-101155500D03*
X124739400Y-98615500D03*
X124739400Y-96075500D03*
X124739400Y-93535500D03*
X124739400Y-90995500D03*
X124739400Y-88455500D03*
X124739400Y-85915500D03*
X124739400Y-83375500D03*
X124739400Y-80835500D03*
D14*
X186207400Y-68135500D03*
X183667400Y-68135500D03*
D17*
X147345400Y-122491500D03*
X129565400Y-76771500D03*
X147345400Y-76771500D03*
X129565400Y-122491500D03*
D18*
X148615400Y-116141500D03*
X148615400Y-80581500D03*
X148615400Y-108521500D03*
X148615400Y-105981500D03*
X148615400Y-103441500D03*
X148615400Y-100901500D03*
X148615400Y-98361500D03*
X148615400Y-95821500D03*
X128295400Y-85661500D03*
X128295400Y-88201500D03*
X128295400Y-90741500D03*
X128295400Y-93281500D03*
X128295400Y-95821500D03*
X128295400Y-98361500D03*
X128295400Y-100901500D03*
X128295400Y-105981500D03*
X148615400Y-111061500D03*
X128295400Y-108521500D03*
X148615400Y-113601500D03*
X148615400Y-88201500D03*
X148615400Y-90741500D03*
X148615400Y-118681500D03*
X148615400Y-85661500D03*
X148615400Y-93281500D03*
X128295400Y-83121500D03*
X128295400Y-80581500D03*
X148615400Y-83121500D03*
X128295400Y-103441500D03*
D19*
X107721400Y-120464500D03*
X102641400Y-120464500D03*
D20*
X106451400Y-111824500D03*
D21*
X103911400Y-111824500D03*
D22*
X131089400Y-59495499D03*
X141249400Y-59495499D03*
D23*
X132359400Y-68135500D03*
X134899400Y-68135500D03*
X137439400Y-68135500D03*
X139979400Y-68135500D03*
D19*
X185196400Y-113093500D03*
X185196400Y-105473500D03*
D20*
X176556400Y-106743500D03*
D21*
X176556400Y-109283500D03*
X176556400Y-111823500D03*
D19*
X185196400Y-93281500D03*
X185196400Y-100901500D03*
D20*
X176556400Y-94551500D03*
D21*
X176556400Y-97091500D03*
X176556400Y-99631500D03*
D15*
X109499400Y-67627500D03*
D16*
X109499400Y-65087500D03*
X112039400Y-67627500D03*
X112039400Y-65087500D03*
D15*
X117119400Y-67627500D03*
D16*
X117119400Y-65087500D03*
X119659400Y-67627500D03*
X119659400Y-65087500D03*
X122199400Y-67627500D03*
X122199400Y-65087500D03*
D24*
X95000000Y-60000000D03*
X95000000Y-120000000D03*
X185000000Y-60000000D03*
X185000000Y-120000000D03*
D25*
X170459400Y-76761500D03*
D13*
X178079400Y-79301500D03*
X178079400Y-74221500D03*
D26*
X175539400Y-78041500D03*
D27*
X175539400Y-75501500D03*
D13*
X156743400Y-122927500D03*
X156743400Y-118427500D03*
X163243400Y-118427500D03*
X163243400Y-122927500D03*
D14*
X92735400Y-112331500D03*
X95275400Y-112331500D03*
X178587400Y-122491500D03*
X178587400Y-119951500D03*
D15*
X179603400Y-84391500D03*
D16*
X179603400Y-86931500D03*
D24*
X175037400Y-64175500D03*
X150037400Y-64175500D03*
D28*
X156997400Y-65595500D03*
D29*
X159767400Y-65595500D03*
X162537400Y-65595500D03*
X165307400Y-65595500D03*
X168077400Y-65595500D03*
X158382400Y-62755500D03*
X161152400Y-62755500D03*
X163922400Y-62755500D03*
X166692400Y-62755500D03*
D30*
X160807400Y-91503500D03*
X160807400Y-89603500D03*
D31*
X160807400Y-84457500D03*
X160807400Y-86357500D03*
D32*
X166461400Y-82359500D03*
X168361400Y-82359500D03*
D31*
X174015400Y-89029500D03*
X174015400Y-90929500D03*
D33*
X168361400Y-93535500D03*
X166461400Y-93535500D03*
D30*
X94005400Y-92199500D03*
X94005400Y-90299500D03*
X94005400Y-73591500D03*
X94005400Y-71691500D03*
D31*
X108991400Y-87505500D03*
X108991400Y-89405500D03*
X108991400Y-75821500D03*
X108991400Y-77721500D03*
D32*
X138521400Y-101155500D03*
X140421400Y-101155500D03*
D34*
X140897400Y-96075500D03*
X137947400Y-96075500D03*
D32*
X136997400Y-116903500D03*
X138897400Y-116903500D03*
D31*
X172491400Y-103827500D03*
X172491400Y-105727500D03*
D35*
X164548900Y-90222500D03*
X164548900Y-89572500D03*
X164548900Y-88922500D03*
X164548900Y-88272500D03*
X164548900Y-87622500D03*
X164548900Y-86972500D03*
X164548900Y-86322500D03*
X164548900Y-85672500D03*
X170273900Y-85672500D03*
X170273900Y-86322500D03*
X170273900Y-86972500D03*
X170273900Y-87622500D03*
X170273900Y-88272500D03*
X170273900Y-88922500D03*
X170273900Y-89572500D03*
X170273900Y-90222500D03*
D36*
X114198400Y-90602500D03*
X114198400Y-89332500D03*
X114198400Y-88062500D03*
X114198400Y-86792500D03*
X119148400Y-86792500D03*
X119148400Y-88062500D03*
X119148400Y-89332500D03*
X119148400Y-90602500D03*
D37*
X116673400Y-88697500D03*
D36*
X114136400Y-78676500D03*
X114136400Y-77406500D03*
X114136400Y-76136500D03*
X114136400Y-74866500D03*
X119086400Y-74866500D03*
X119086400Y-76136500D03*
X119086400Y-77406500D03*
X119086400Y-78676500D03*
D37*
X116611400Y-76771500D03*
D38*
X134313400Y-92011500D03*
X134313400Y-90741500D03*
X134313400Y-89471500D03*
X134313400Y-88201500D03*
X134313400Y-86931500D03*
X134313400Y-85661500D03*
X134313400Y-84391500D03*
X134313400Y-83121500D03*
X134313400Y-81851500D03*
X143613400Y-81851500D03*
X143613400Y-83121500D03*
X143613400Y-84391500D03*
X143613400Y-85661500D03*
X143613400Y-86931500D03*
X143613400Y-88201500D03*
X143613400Y-89471500D03*
X143613400Y-90741500D03*
X143613400Y-92011500D03*
D39*
X167854400Y-102806500D03*
X167854400Y-104076500D03*
X167854400Y-105346500D03*
X167854400Y-106616500D03*
X162904400Y-106616500D03*
X162904400Y-105346500D03*
X162904400Y-104076500D03*
X162904400Y-102806500D03*
D37*
X165379400Y-104711500D03*
D40*
X136737100Y-122225501D03*
X136737100Y-121725500D03*
X136737100Y-121225500D03*
X136737100Y-120725499D03*
D41*
X137447401Y-120519200D03*
X137947400Y-120519200D03*
X138447399Y-120519200D03*
D40*
X139157700Y-120725499D03*
X139157700Y-121225500D03*
X139157700Y-121725500D03*
X139157700Y-122225501D03*
D41*
X138447399Y-122431800D03*
X137947400Y-122431800D03*
X137447401Y-122431800D03*
D42*
X139772400Y-77787500D03*
X137947400Y-77787500D03*
D43*
X184175400Y-76771500D03*
X186000400Y-76771500D03*
D44*
X185191400Y-87439500D03*
X185191400Y-89264500D03*
M02*
