%TF.GenerationSoftware,KiCad,Pcbnew,(6.0.7-1)-1*%
%TF.CreationDate,2022-11-19T18:22:33-08:00*%
%TF.ProjectId,telemetry-pcb,74656c65-6d65-4747-9279-2d7063622e6b,rev?*%
%TF.SameCoordinates,Original*%
%TF.FileFunction,Drillmap*%
%TF.FilePolarity,Positive*%
%FSLAX45Y45*%
G04 Gerber Fmt 4.5, Leading zero omitted, Abs format (unit mm)*
G04 Created by KiCad (PCBNEW (6.0.7-1)-1) date 2022-11-19 18:22:33*
%MOMM*%
%LPD*%
G01*
G04 APERTURE LIST*
%ADD10C,0.100000*%
%ADD11C,0.200000*%
%ADD12C,0.040000*%
%ADD13C,0.076200*%
%ADD14C,0.080000*%
%ADD15C,0.081280*%
%ADD16C,0.109000*%
%ADD17C,0.110000*%
%ADD18C,0.116840*%
%ADD19C,0.320000*%
G04 APERTURE END LIST*
D10*
X9000000Y-12000000D02*
G75*
G03*
X9500000Y-12500000I500000J0D01*
G01*
X9000000Y-6000000D02*
X9000000Y-12000000D01*
X9500000Y-5500000D02*
X18500000Y-5500000D01*
X9500000Y-5500000D02*
G75*
G03*
X9000000Y-6000000I0J-500000D01*
G01*
X18500000Y-12500000D02*
G75*
G03*
X19000000Y-12000000I0J500000D01*
G01*
X19000000Y-6000000D02*
X19000000Y-12000000D01*
X9500000Y-12500000D02*
X18500000Y-12500000D01*
X19000000Y-6000000D02*
G75*
G03*
X18500000Y-5500000I-500000J0D01*
G01*
D11*
D12*
X10625140Y-7555550D02*
X10665140Y-7595550D01*
X10665140Y-7555550D02*
X10625140Y-7595550D01*
X10625140Y-8723950D02*
X10665140Y-8763950D01*
X10665140Y-8723950D02*
X10625140Y-8763950D01*
X10777540Y-9028750D02*
X10817540Y-9068750D01*
X10817540Y-9028750D02*
X10777540Y-9068750D01*
X11082340Y-9003350D02*
X11122340Y-9043350D01*
X11122340Y-9003350D02*
X11082340Y-9043350D01*
X11742740Y-9333550D02*
X11782740Y-9373550D01*
X11782740Y-9333550D02*
X11742740Y-9373550D01*
X12134740Y-7707950D02*
X12174740Y-7747950D01*
X12174740Y-7707950D02*
X12134740Y-7747950D01*
X12134740Y-7809550D02*
X12174740Y-7849550D01*
X12174740Y-7809550D02*
X12134740Y-7849550D01*
X12149140Y-8825550D02*
X12189140Y-8865550D01*
X12189140Y-8825550D02*
X12149140Y-8865550D01*
X12199940Y-9384350D02*
X12239940Y-9424350D01*
X12239940Y-9384350D02*
X12199940Y-9424350D01*
X12536340Y-7572350D02*
X12576340Y-7612350D01*
X12576340Y-7572350D02*
X12536340Y-7612350D01*
X12606340Y-10271850D02*
X12646340Y-10311850D01*
X12646340Y-10271850D02*
X12606340Y-10311850D01*
X12642940Y-8979982D02*
X12682940Y-9019982D01*
X12682940Y-8979982D02*
X12642940Y-9019982D01*
X12642940Y-9130350D02*
X12682940Y-9170350D01*
X12682940Y-9130350D02*
X12642940Y-9170350D01*
X12642940Y-9329755D02*
X12682940Y-9369755D01*
X12682940Y-9329755D02*
X12642940Y-9369755D01*
X12642940Y-10451150D02*
X12682940Y-10491150D01*
X12682940Y-10451150D02*
X12642940Y-10491150D01*
X12657140Y-9739950D02*
X12697140Y-9779950D01*
X12697140Y-9739950D02*
X12657140Y-9779950D01*
X12686340Y-7222350D02*
X12726340Y-7262350D01*
X12726340Y-7222350D02*
X12686340Y-7262350D01*
X12986340Y-7172350D02*
X13026340Y-7212350D01*
X13026340Y-7172350D02*
X12986340Y-7212350D01*
X13063540Y-8520750D02*
X13103540Y-8560750D01*
X13103540Y-8520750D02*
X13063540Y-8560750D01*
X13063540Y-9522350D02*
X13103540Y-9562350D01*
X13103540Y-9522350D02*
X13063540Y-9562350D01*
X13063540Y-10389350D02*
X13103540Y-10429350D01*
X13103540Y-10389350D02*
X13063540Y-10429350D01*
X13114340Y-10501950D02*
X13154340Y-10541950D01*
X13154340Y-10501950D02*
X13114340Y-10541950D01*
X13165140Y-10146350D02*
X13205140Y-10186350D01*
X13205140Y-10146350D02*
X13165140Y-10186350D01*
X13215940Y-10501950D02*
X13255940Y-10541950D01*
X13255940Y-10501950D02*
X13215940Y-10541950D01*
X13433540Y-9587550D02*
X13473540Y-9627550D01*
X13473540Y-9587550D02*
X13433540Y-9627550D01*
X13520740Y-9231950D02*
X13560740Y-9271950D01*
X13560740Y-9231950D02*
X13520740Y-9271950D01*
X13520740Y-9435150D02*
X13560740Y-9475150D01*
X13560740Y-9435150D02*
X13520740Y-9475150D01*
X13520740Y-10454550D02*
X13560740Y-10494550D01*
X13560740Y-10454550D02*
X13520740Y-10494550D01*
X13556791Y-9064801D02*
X13596791Y-9104801D01*
X13596791Y-9064801D02*
X13556791Y-9104801D01*
X13622340Y-9130350D02*
X13662340Y-9170350D01*
X13662340Y-9130350D02*
X13622340Y-9170350D01*
X13673140Y-8317550D02*
X13713140Y-8357550D01*
X13713140Y-8317550D02*
X13673140Y-8357550D01*
X13673140Y-8469950D02*
X13713140Y-8509950D01*
X13713140Y-8469950D02*
X13673140Y-8509950D01*
X13723940Y-9231950D02*
X13763940Y-9271950D01*
X13763940Y-9231950D02*
X13723940Y-9271950D01*
X13723940Y-10146350D02*
X13763940Y-10186350D01*
X13763940Y-10146350D02*
X13723940Y-10186350D01*
X13774740Y-7606350D02*
X13814740Y-7646350D01*
X13814740Y-7606350D02*
X13774740Y-7646350D01*
X13774740Y-9130350D02*
X13814740Y-9170350D01*
X13814740Y-9130350D02*
X13774740Y-9170350D01*
X13774740Y-11924350D02*
X13814740Y-11964350D01*
X13814740Y-11924350D02*
X13774740Y-11964350D01*
X13924084Y-10244894D02*
X13964084Y-10284894D01*
X13964084Y-10244894D02*
X13924084Y-10284894D01*
X13927140Y-8520750D02*
X13967140Y-8560750D01*
X13967140Y-8520750D02*
X13927140Y-8560750D01*
X13934940Y-11924350D02*
X13974940Y-11964350D01*
X13974940Y-11924350D02*
X13934940Y-11964350D01*
X14181140Y-7758750D02*
X14221140Y-7798750D01*
X14221140Y-7758750D02*
X14181140Y-7798750D01*
X14181140Y-8317550D02*
X14221140Y-8357550D01*
X14221140Y-8317550D02*
X14181140Y-8357550D01*
X14282740Y-10146350D02*
X14322740Y-10186350D01*
X14322740Y-10146350D02*
X14282740Y-10186350D01*
X14329735Y-11768145D02*
X14369735Y-11808145D01*
X14369735Y-11768145D02*
X14329735Y-11808145D01*
X14420740Y-10908350D02*
X14460740Y-10948350D01*
X14460740Y-10908350D02*
X14420740Y-10948350D01*
X14420740Y-11111550D02*
X14460740Y-11151550D01*
X14460740Y-11111550D02*
X14420740Y-11151550D01*
X14485940Y-10556800D02*
X14525940Y-10596800D01*
X14525940Y-10556800D02*
X14485940Y-10596800D01*
X14550200Y-11785410D02*
X14590200Y-11825410D01*
X14590200Y-11785410D02*
X14550200Y-11825410D01*
X14566837Y-10217853D02*
X14606837Y-10257853D01*
X14606837Y-10217853D02*
X14566837Y-10257853D01*
X14652740Y-10400350D02*
X14692740Y-10440350D01*
X14692740Y-10400350D02*
X14652740Y-10440350D01*
X14703540Y-9333246D02*
X14743540Y-9373246D01*
X14743540Y-9333246D02*
X14703540Y-9373246D01*
X14717940Y-10705150D02*
X14757940Y-10745150D01*
X14757940Y-10705150D02*
X14717940Y-10745150D01*
X14993940Y-8673150D02*
X15033940Y-8713150D01*
X15033940Y-8673150D02*
X14993940Y-8713150D01*
X15008140Y-9536750D02*
X15048140Y-9576750D01*
X15048140Y-9536750D02*
X15008140Y-9576750D01*
X15146340Y-12178350D02*
X15186340Y-12218350D01*
X15186340Y-12178350D02*
X15146340Y-12218350D01*
X15349540Y-12025950D02*
X15389540Y-12065950D01*
X15389540Y-12025950D02*
X15349540Y-12065950D01*
X15654340Y-10654350D02*
X15694340Y-10694350D01*
X15694340Y-10654350D02*
X15654340Y-10694350D01*
X15986340Y-11622350D02*
X16026340Y-11662350D01*
X16026340Y-11622350D02*
X15986340Y-11662350D01*
X16386340Y-10172350D02*
X16426340Y-10212350D01*
X16426340Y-10172350D02*
X16386340Y-10212350D01*
X16467140Y-8419150D02*
X16507140Y-8459150D01*
X16507140Y-8419150D02*
X16467140Y-8459150D01*
X16721140Y-8520750D02*
X16761140Y-8560750D01*
X16761140Y-8520750D02*
X16721140Y-8560750D01*
X16771940Y-8723950D02*
X16811940Y-8763950D01*
X16811940Y-8723950D02*
X16771940Y-8763950D01*
X16836340Y-11722350D02*
X16876340Y-11762350D01*
X16876340Y-11722350D02*
X16836340Y-11762350D01*
X16898940Y-11492550D02*
X16938940Y-11532550D01*
X16938940Y-11492550D02*
X16898940Y-11532550D01*
X17076740Y-9282750D02*
X17116740Y-9322750D01*
X17116740Y-9282750D02*
X17076740Y-9322750D01*
X17076740Y-11162350D02*
X17116740Y-11202350D01*
X17116740Y-11162350D02*
X17076740Y-11202350D01*
X17127540Y-10095550D02*
X17167540Y-10135550D01*
X17167540Y-10095550D02*
X17127540Y-10135550D01*
X17236340Y-10222350D02*
X17276340Y-10262350D01*
X17276340Y-10222350D02*
X17236340Y-10262350D01*
X17559340Y-8749350D02*
X17599340Y-8789350D01*
X17599340Y-8749350D02*
X17559340Y-8789350D01*
X17711740Y-9257350D02*
X17751740Y-9297350D01*
X17751740Y-9257350D02*
X17711740Y-9297350D01*
X18067340Y-7834950D02*
X18107340Y-7874950D01*
X18107340Y-7834950D02*
X18067340Y-7874950D01*
X18136340Y-7522350D02*
X18176340Y-7562350D01*
X18176340Y-7522350D02*
X18136340Y-7562350D01*
X18136340Y-8122350D02*
X18176340Y-8162350D01*
X18176340Y-8122350D02*
X18136340Y-8162350D01*
D13*
X12867640Y-8058150D02*
G75*
G03*
X12867640Y-8058150I-38100J0D01*
G01*
X12867640Y-8312150D02*
G75*
G03*
X12867640Y-8312150I-38100J0D01*
G01*
X12867640Y-8566150D02*
G75*
G03*
X12867640Y-8566150I-38100J0D01*
G01*
X12867640Y-8820150D02*
G75*
G03*
X12867640Y-8820150I-38100J0D01*
G01*
X12867640Y-9074150D02*
G75*
G03*
X12867640Y-9074150I-38100J0D01*
G01*
X12867640Y-9328150D02*
G75*
G03*
X12867640Y-9328150I-38100J0D01*
G01*
X12867640Y-9582150D02*
G75*
G03*
X12867640Y-9582150I-38100J0D01*
G01*
X12867640Y-9836150D02*
G75*
G03*
X12867640Y-9836150I-38100J0D01*
G01*
X12867640Y-10090150D02*
G75*
G03*
X12867640Y-10090150I-38100J0D01*
G01*
X12867640Y-10344150D02*
G75*
G03*
X12867640Y-10344150I-38100J0D01*
G01*
X12867640Y-10598150D02*
G75*
G03*
X12867640Y-10598150I-38100J0D01*
G01*
X12867640Y-10852150D02*
G75*
G03*
X12867640Y-10852150I-38100J0D01*
G01*
X14899640Y-8058150D02*
G75*
G03*
X14899640Y-8058150I-38100J0D01*
G01*
X14899640Y-8312150D02*
G75*
G03*
X14899640Y-8312150I-38100J0D01*
G01*
X14899640Y-8566150D02*
G75*
G03*
X14899640Y-8566150I-38100J0D01*
G01*
X14899640Y-8820150D02*
G75*
G03*
X14899640Y-8820150I-38100J0D01*
G01*
X14899640Y-9074150D02*
G75*
G03*
X14899640Y-9074150I-38100J0D01*
G01*
X14899640Y-9328150D02*
G75*
G03*
X14899640Y-9328150I-38100J0D01*
G01*
X14899640Y-9582150D02*
G75*
G03*
X14899640Y-9582150I-38100J0D01*
G01*
X14899640Y-9836150D02*
G75*
G03*
X14899640Y-9836150I-38100J0D01*
G01*
X14899640Y-10090150D02*
G75*
G03*
X14899640Y-10090150I-38100J0D01*
G01*
X14899640Y-10344150D02*
G75*
G03*
X14899640Y-10344150I-38100J0D01*
G01*
X14899640Y-10598150D02*
G75*
G03*
X14899640Y-10598150I-38100J0D01*
G01*
X14899640Y-10852150D02*
G75*
G03*
X14899640Y-10852150I-38100J0D01*
G01*
X14899640Y-11106150D02*
G75*
G03*
X14899640Y-11106150I-38100J0D01*
G01*
X14899640Y-11360150D02*
G75*
G03*
X14899640Y-11360150I-38100J0D01*
G01*
X14899640Y-11614150D02*
G75*
G03*
X14899640Y-11614150I-38100J0D01*
G01*
X14899640Y-11868150D02*
G75*
G03*
X14899640Y-11868150I-38100J0D01*
G01*
D14*
X9273540Y-11193150D02*
X9273540Y-11273150D01*
X9233540Y-11233150D02*
X9313540Y-11233150D01*
X9527540Y-11193150D02*
X9527540Y-11273150D01*
X9487540Y-11233150D02*
X9567540Y-11233150D01*
X12118340Y-12107550D02*
X12118340Y-12187550D01*
X12078340Y-12147550D02*
X12158340Y-12147550D01*
X12372340Y-12107550D02*
X12372340Y-12187550D01*
X12332340Y-12147550D02*
X12412340Y-12147550D01*
X17858740Y-11955150D02*
X17858740Y-12035150D01*
X17818740Y-11995150D02*
X17898740Y-11995150D01*
X17858740Y-12209150D02*
X17858740Y-12289150D01*
X17818740Y-12249150D02*
X17898740Y-12249150D01*
X18366740Y-6773550D02*
X18366740Y-6853550D01*
X18326740Y-6813550D02*
X18406740Y-6813550D01*
X18620740Y-6773550D02*
X18620740Y-6853550D01*
X18580740Y-6813550D02*
X18660740Y-6813550D01*
D15*
X17582677Y-7578887D02*
X17582677Y-7521413D01*
X17525203Y-7521413D01*
X17525203Y-7578887D01*
X17582677Y-7578887D01*
X17582677Y-7832887D02*
X17582677Y-7775413D01*
X17525203Y-7775413D01*
X17525203Y-7832887D01*
X17582677Y-7832887D01*
D10*
X10949940Y-6558750D02*
X10999940Y-6508750D01*
X10949940Y-6458750D01*
X10899940Y-6508750D01*
X10949940Y-6558750D01*
X10949940Y-6812750D02*
X10999940Y-6762750D01*
X10949940Y-6712750D01*
X10899940Y-6762750D01*
X10949940Y-6812750D01*
X11203940Y-6558750D02*
X11253940Y-6508750D01*
X11203940Y-6458750D01*
X11153940Y-6508750D01*
X11203940Y-6558750D01*
X11203940Y-6812750D02*
X11253940Y-6762750D01*
X11203940Y-6712750D01*
X11153940Y-6762750D01*
X11203940Y-6812750D01*
X11711940Y-6558750D02*
X11761940Y-6508750D01*
X11711940Y-6458750D01*
X11661940Y-6508750D01*
X11711940Y-6558750D01*
X11711940Y-6812750D02*
X11761940Y-6762750D01*
X11711940Y-6712750D01*
X11661940Y-6762750D01*
X11711940Y-6812750D01*
X11965940Y-6558750D02*
X12015940Y-6508750D01*
X11965940Y-6458750D01*
X11915940Y-6508750D01*
X11965940Y-6558750D01*
X11965940Y-6812750D02*
X12015940Y-6762750D01*
X11965940Y-6712750D01*
X11915940Y-6762750D01*
X11965940Y-6812750D01*
X12219940Y-6558750D02*
X12269940Y-6508750D01*
X12219940Y-6458750D01*
X12169940Y-6508750D01*
X12219940Y-6558750D01*
X12219940Y-6812750D02*
X12269940Y-6762750D01*
X12219940Y-6712750D01*
X12169940Y-6762750D01*
X12219940Y-6812750D01*
X12473940Y-8133550D02*
X12523940Y-8083550D01*
X12473940Y-8033550D01*
X12423940Y-8083550D01*
X12473940Y-8133550D01*
X12473940Y-8387550D02*
X12523940Y-8337550D01*
X12473940Y-8287550D01*
X12423940Y-8337550D01*
X12473940Y-8387550D01*
X12473940Y-8641550D02*
X12523940Y-8591550D01*
X12473940Y-8541550D01*
X12423940Y-8591550D01*
X12473940Y-8641550D01*
X12473940Y-8895550D02*
X12523940Y-8845550D01*
X12473940Y-8795550D01*
X12423940Y-8845550D01*
X12473940Y-8895550D01*
X12473940Y-9149550D02*
X12523940Y-9099550D01*
X12473940Y-9049550D01*
X12423940Y-9099550D01*
X12473940Y-9149550D01*
X12473940Y-9403550D02*
X12523940Y-9353550D01*
X12473940Y-9303550D01*
X12423940Y-9353550D01*
X12473940Y-9403550D01*
X12473940Y-9657550D02*
X12523940Y-9607550D01*
X12473940Y-9557550D01*
X12423940Y-9607550D01*
X12473940Y-9657550D01*
X12473940Y-9911550D02*
X12523940Y-9861550D01*
X12473940Y-9811550D01*
X12423940Y-9861550D01*
X12473940Y-9911550D01*
X12473940Y-10165550D02*
X12523940Y-10115550D01*
X12473940Y-10065550D01*
X12423940Y-10115550D01*
X12473940Y-10165550D01*
X12473940Y-10419550D02*
X12523940Y-10369550D01*
X12473940Y-10319550D01*
X12423940Y-10369550D01*
X12473940Y-10419550D01*
X12473940Y-10673550D02*
X12523940Y-10623550D01*
X12473940Y-10573550D01*
X12423940Y-10623550D01*
X12473940Y-10673550D01*
X12473940Y-10927550D02*
X12523940Y-10877550D01*
X12473940Y-10827550D01*
X12423940Y-10877550D01*
X12473940Y-10927550D01*
X15217140Y-8336750D02*
X15267140Y-8286750D01*
X15217140Y-8236750D01*
X15167140Y-8286750D01*
X15217140Y-8336750D01*
X15217140Y-8590750D02*
X15267140Y-8540750D01*
X15217140Y-8490750D01*
X15167140Y-8540750D01*
X15217140Y-8590750D01*
X15217140Y-8844750D02*
X15267140Y-8794750D01*
X15217140Y-8744750D01*
X15167140Y-8794750D01*
X15217140Y-8844750D01*
X15217140Y-9098750D02*
X15267140Y-9048750D01*
X15217140Y-8998750D01*
X15167140Y-9048750D01*
X15217140Y-9098750D01*
X15217140Y-9352750D02*
X15267140Y-9302750D01*
X15217140Y-9252750D01*
X15167140Y-9302750D01*
X15217140Y-9352750D01*
X15217140Y-9606750D02*
X15267140Y-9556750D01*
X15217140Y-9506750D01*
X15167140Y-9556750D01*
X15217140Y-9606750D01*
X15217140Y-9860750D02*
X15267140Y-9810750D01*
X15217140Y-9760750D01*
X15167140Y-9810750D01*
X15217140Y-9860750D01*
X15217140Y-10114750D02*
X15267140Y-10064750D01*
X15217140Y-10014750D01*
X15167140Y-10064750D01*
X15217140Y-10114750D01*
X15217140Y-10368750D02*
X15267140Y-10318750D01*
X15217140Y-10268750D01*
X15167140Y-10318750D01*
X15217140Y-10368750D01*
X15217140Y-10622750D02*
X15267140Y-10572750D01*
X15217140Y-10522750D01*
X15167140Y-10572750D01*
X15217140Y-10622750D01*
X15217140Y-10876750D02*
X15267140Y-10826750D01*
X15217140Y-10776750D01*
X15167140Y-10826750D01*
X15217140Y-10876750D01*
X15217140Y-11130750D02*
X15267140Y-11080750D01*
X15217140Y-11030750D01*
X15167140Y-11080750D01*
X15217140Y-11130750D01*
X15217140Y-11384750D02*
X15267140Y-11334750D01*
X15217140Y-11284750D01*
X15167140Y-11334750D01*
X15217140Y-11384750D01*
X15217140Y-11638750D02*
X15267140Y-11588750D01*
X15217140Y-11538750D01*
X15167140Y-11588750D01*
X15217140Y-11638750D01*
X15217140Y-11914550D02*
X15267140Y-11864550D01*
X15217140Y-11814550D01*
X15167140Y-11864550D01*
X15217140Y-11914550D01*
X15699740Y-6609550D02*
X15749740Y-6559550D01*
X15699740Y-6509550D01*
X15649740Y-6559550D01*
X15699740Y-6609550D01*
X15838240Y-6325550D02*
X15888240Y-6275550D01*
X15838240Y-6225550D01*
X15788240Y-6275550D01*
X15838240Y-6325550D01*
X15976740Y-6609550D02*
X16026740Y-6559550D01*
X15976740Y-6509550D01*
X15926740Y-6559550D01*
X15976740Y-6609550D01*
X16115240Y-6325550D02*
X16165240Y-6275550D01*
X16115240Y-6225550D01*
X16065240Y-6275550D01*
X16115240Y-6325550D01*
X16253740Y-6609550D02*
X16303740Y-6559550D01*
X16253740Y-6509550D01*
X16203740Y-6559550D01*
X16253740Y-6609550D01*
X16392240Y-6325550D02*
X16442240Y-6275550D01*
X16392240Y-6225550D01*
X16342240Y-6275550D01*
X16392240Y-6325550D01*
X16530740Y-6609550D02*
X16580740Y-6559550D01*
X16530740Y-6509550D01*
X16480740Y-6559550D01*
X16530740Y-6609550D01*
X16669240Y-6325550D02*
X16719240Y-6275550D01*
X16669240Y-6225550D01*
X16619240Y-6275550D01*
X16669240Y-6325550D01*
X16807740Y-6609550D02*
X16857740Y-6559550D01*
X16807740Y-6509550D01*
X16757740Y-6559550D01*
X16807740Y-6609550D01*
X17960340Y-8489150D02*
X18010340Y-8439150D01*
X17960340Y-8389150D01*
X17910340Y-8439150D01*
X17960340Y-8489150D01*
X17960340Y-8743150D02*
X18010340Y-8693150D01*
X17960340Y-8643150D01*
X17910340Y-8693150D01*
X17960340Y-8743150D01*
D16*
X10336640Y-11127950D02*
X10445640Y-11236950D01*
X10445640Y-11127950D02*
X10336640Y-11236950D01*
X10445640Y-11182450D02*
G75*
G03*
X10445640Y-11182450I-54500J0D01*
G01*
X10590640Y-11127950D02*
X10699640Y-11236950D01*
X10699640Y-11127950D02*
X10590640Y-11236950D01*
X10699640Y-11182450D02*
G75*
G03*
X10699640Y-11182450I-54500J0D01*
G01*
X17601140Y-9400650D02*
X17710140Y-9509650D01*
X17710140Y-9400650D02*
X17601140Y-9509650D01*
X17710140Y-9455150D02*
G75*
G03*
X17710140Y-9455150I-54500J0D01*
G01*
X17601140Y-9654650D02*
X17710140Y-9763650D01*
X17710140Y-9654650D02*
X17601140Y-9763650D01*
X17710140Y-9709150D02*
G75*
G03*
X17710140Y-9709150I-54500J0D01*
G01*
X17601140Y-9908650D02*
X17710140Y-10017650D01*
X17710140Y-9908650D02*
X17601140Y-10017650D01*
X17710140Y-9963150D02*
G75*
G03*
X17710140Y-9963150I-54500J0D01*
G01*
X17601140Y-10619850D02*
X17710140Y-10728850D01*
X17710140Y-10619850D02*
X17601140Y-10728850D01*
X17710140Y-10674350D02*
G75*
G03*
X17710140Y-10674350I-54500J0D01*
G01*
X17601140Y-10873850D02*
X17710140Y-10982850D01*
X17710140Y-10873850D02*
X17601140Y-10982850D01*
X17710140Y-10928350D02*
G75*
G03*
X17710140Y-10928350I-54500J0D01*
G01*
X17601140Y-11127850D02*
X17710140Y-11236850D01*
X17710140Y-11127850D02*
X17601140Y-11236850D01*
X17710140Y-11182350D02*
G75*
G03*
X17710140Y-11182350I-54500J0D01*
G01*
D17*
X9751940Y-7066150D02*
X9861940Y-7176150D01*
X9861940Y-7066150D02*
X9751940Y-7176150D01*
X9806940Y-7066150D02*
X9806940Y-7176150D01*
X9751940Y-7121150D02*
X9861940Y-7121150D01*
X9751940Y-7416150D02*
X9861940Y-7526150D01*
X9861940Y-7416150D02*
X9751940Y-7526150D01*
X9806940Y-7416150D02*
X9806940Y-7526150D01*
X9751940Y-7471150D02*
X9861940Y-7471150D01*
X9751940Y-8894950D02*
X9861940Y-9004950D01*
X9861940Y-8894950D02*
X9751940Y-9004950D01*
X9806940Y-8894950D02*
X9806940Y-9004950D01*
X9751940Y-8949950D02*
X9861940Y-8949950D01*
X9751940Y-9244950D02*
X9861940Y-9354950D01*
X9861940Y-9244950D02*
X9751940Y-9354950D01*
X9806940Y-9244950D02*
X9806940Y-9354950D01*
X9751940Y-9299950D02*
X9861940Y-9299950D01*
X15619340Y-11787750D02*
X15729340Y-11897750D01*
X15729340Y-11787750D02*
X15619340Y-11897750D01*
X15674340Y-11787750D02*
X15674340Y-11897750D01*
X15619340Y-11842750D02*
X15729340Y-11842750D01*
X15619340Y-12237750D02*
X15729340Y-12347750D01*
X15729340Y-12237750D02*
X15619340Y-12347750D01*
X15674340Y-12237750D02*
X15674340Y-12347750D01*
X15619340Y-12292750D02*
X15729340Y-12292750D01*
X16269340Y-11787750D02*
X16379340Y-11897750D01*
X16379340Y-11787750D02*
X16269340Y-11897750D01*
X16324340Y-11787750D02*
X16324340Y-11897750D01*
X16269340Y-11842750D02*
X16379340Y-11842750D01*
X16269340Y-12237750D02*
X16379340Y-12347750D01*
X16379340Y-12237750D02*
X16269340Y-12347750D01*
X16324340Y-12237750D02*
X16324340Y-12347750D01*
X16269340Y-12292750D02*
X16379340Y-12292750D01*
D18*
X13177520Y-6755130D02*
X13294360Y-6871970D01*
X13294360Y-6755130D02*
X13177520Y-6871970D01*
X13277250Y-6854860D02*
X13277250Y-6772240D01*
X13194630Y-6772240D01*
X13194630Y-6854860D01*
X13277250Y-6854860D01*
X13431520Y-6755130D02*
X13548360Y-6871970D01*
X13548360Y-6755130D02*
X13431520Y-6871970D01*
X13531250Y-6854860D02*
X13531250Y-6772240D01*
X13448630Y-6772240D01*
X13448630Y-6854860D01*
X13531250Y-6854860D01*
X13685520Y-6755130D02*
X13802360Y-6871970D01*
X13802360Y-6755130D02*
X13685520Y-6871970D01*
X13785250Y-6854860D02*
X13785250Y-6772240D01*
X13702630Y-6772240D01*
X13702630Y-6854860D01*
X13785250Y-6854860D01*
X13939520Y-6755130D02*
X14056360Y-6871970D01*
X14056360Y-6755130D02*
X13939520Y-6871970D01*
X14039250Y-6854860D02*
X14039250Y-6772240D01*
X13956630Y-6772240D01*
X13956630Y-6854860D01*
X14039250Y-6854860D01*
D19*
X9340000Y-5840000D02*
X9660000Y-6160000D01*
X9660000Y-5840000D02*
X9340000Y-6160000D01*
X9500000Y-6160000D02*
X9660000Y-6000000D01*
X9500000Y-5840000D01*
X9340000Y-6000000D01*
X9500000Y-6160000D01*
X9340000Y-11840000D02*
X9660000Y-12160000D01*
X9660000Y-11840000D02*
X9340000Y-12160000D01*
X9500000Y-12160000D02*
X9660000Y-12000000D01*
X9500000Y-11840000D01*
X9340000Y-12000000D01*
X9500000Y-12160000D01*
X14843740Y-6257550D02*
X15163740Y-6577550D01*
X15163740Y-6257550D02*
X14843740Y-6577550D01*
X15003740Y-6577550D02*
X15163740Y-6417550D01*
X15003740Y-6257550D01*
X14843740Y-6417550D01*
X15003740Y-6577550D01*
X17343740Y-6257550D02*
X17663740Y-6577550D01*
X17663740Y-6257550D02*
X17343740Y-6577550D01*
X17503740Y-6577550D02*
X17663740Y-6417550D01*
X17503740Y-6257550D01*
X17343740Y-6417550D01*
X17503740Y-6577550D01*
X18340000Y-5840000D02*
X18660000Y-6160000D01*
X18660000Y-5840000D02*
X18340000Y-6160000D01*
X18500000Y-6160000D02*
X18660000Y-6000000D01*
X18500000Y-5840000D01*
X18340000Y-6000000D01*
X18500000Y-6160000D01*
X18340000Y-11840000D02*
X18660000Y-12160000D01*
X18660000Y-11840000D02*
X18340000Y-12160000D01*
X18500000Y-12160000D02*
X18660000Y-12000000D01*
X18500000Y-11840000D01*
X18340000Y-12000000D01*
X18500000Y-12160000D01*
D11*
X9252619Y-12815476D02*
X9252619Y-12615476D01*
X9300238Y-12615476D01*
X9328810Y-12625000D01*
X9347857Y-12644048D01*
X9357381Y-12663095D01*
X9366905Y-12701190D01*
X9366905Y-12729762D01*
X9357381Y-12767857D01*
X9347857Y-12786905D01*
X9328810Y-12805952D01*
X9300238Y-12815476D01*
X9252619Y-12815476D01*
X9452619Y-12815476D02*
X9452619Y-12682143D01*
X9452619Y-12720238D02*
X9462143Y-12701190D01*
X9471667Y-12691667D01*
X9490714Y-12682143D01*
X9509762Y-12682143D01*
X9576429Y-12815476D02*
X9576429Y-12682143D01*
X9576429Y-12615476D02*
X9566905Y-12625000D01*
X9576429Y-12634524D01*
X9585952Y-12625000D01*
X9576429Y-12615476D01*
X9576429Y-12634524D01*
X9700238Y-12815476D02*
X9681190Y-12805952D01*
X9671667Y-12786905D01*
X9671667Y-12615476D01*
X9805000Y-12815476D02*
X9785952Y-12805952D01*
X9776429Y-12786905D01*
X9776429Y-12615476D01*
X10033571Y-12815476D02*
X10033571Y-12615476D01*
X10100238Y-12758333D01*
X10166905Y-12615476D01*
X10166905Y-12815476D01*
X10347857Y-12815476D02*
X10347857Y-12710714D01*
X10338333Y-12691667D01*
X10319286Y-12682143D01*
X10281190Y-12682143D01*
X10262143Y-12691667D01*
X10347857Y-12805952D02*
X10328810Y-12815476D01*
X10281190Y-12815476D01*
X10262143Y-12805952D01*
X10252619Y-12786905D01*
X10252619Y-12767857D01*
X10262143Y-12748809D01*
X10281190Y-12739286D01*
X10328810Y-12739286D01*
X10347857Y-12729762D01*
X10443095Y-12682143D02*
X10443095Y-12882143D01*
X10443095Y-12691667D02*
X10462143Y-12682143D01*
X10500238Y-12682143D01*
X10519286Y-12691667D01*
X10528810Y-12701190D01*
X10538333Y-12720238D01*
X10538333Y-12777381D01*
X10528810Y-12796428D01*
X10519286Y-12805952D01*
X10500238Y-12815476D01*
X10462143Y-12815476D01*
X10443095Y-12805952D01*
X10624048Y-12796428D02*
X10633571Y-12805952D01*
X10624048Y-12815476D01*
X10614524Y-12805952D01*
X10624048Y-12796428D01*
X10624048Y-12815476D01*
X10624048Y-12691667D02*
X10633571Y-12701190D01*
X10624048Y-12710714D01*
X10614524Y-12701190D01*
X10624048Y-12691667D01*
X10624048Y-12710714D01*
D12*
X8955000Y-13125000D02*
X8995000Y-13165000D01*
X8995000Y-13125000D02*
X8955000Y-13165000D01*
D11*
X9290714Y-13035476D02*
X9309762Y-13035476D01*
X9328810Y-13045000D01*
X9338333Y-13054524D01*
X9347857Y-13073571D01*
X9357381Y-13111667D01*
X9357381Y-13159286D01*
X9347857Y-13197381D01*
X9338333Y-13216428D01*
X9328810Y-13225952D01*
X9309762Y-13235476D01*
X9290714Y-13235476D01*
X9271667Y-13225952D01*
X9262143Y-13216428D01*
X9252619Y-13197381D01*
X9243095Y-13159286D01*
X9243095Y-13111667D01*
X9252619Y-13073571D01*
X9262143Y-13054524D01*
X9271667Y-13045000D01*
X9290714Y-13035476D01*
X9443095Y-13216428D02*
X9452619Y-13225952D01*
X9443095Y-13235476D01*
X9433571Y-13225952D01*
X9443095Y-13216428D01*
X9443095Y-13235476D01*
X9624048Y-13102143D02*
X9624048Y-13235476D01*
X9576429Y-13025952D02*
X9528810Y-13168809D01*
X9652619Y-13168809D01*
X9766905Y-13035476D02*
X9785952Y-13035476D01*
X9805000Y-13045000D01*
X9814524Y-13054524D01*
X9824048Y-13073571D01*
X9833571Y-13111667D01*
X9833571Y-13159286D01*
X9824048Y-13197381D01*
X9814524Y-13216428D01*
X9805000Y-13225952D01*
X9785952Y-13235476D01*
X9766905Y-13235476D01*
X9747857Y-13225952D01*
X9738333Y-13216428D01*
X9728810Y-13197381D01*
X9719286Y-13159286D01*
X9719286Y-13111667D01*
X9728810Y-13073571D01*
X9738333Y-13054524D01*
X9747857Y-13045000D01*
X9766905Y-13035476D01*
X9957381Y-13035476D02*
X9976429Y-13035476D01*
X9995476Y-13045000D01*
X10005000Y-13054524D01*
X10014524Y-13073571D01*
X10024048Y-13111667D01*
X10024048Y-13159286D01*
X10014524Y-13197381D01*
X10005000Y-13216428D01*
X9995476Y-13225952D01*
X9976429Y-13235476D01*
X9957381Y-13235476D01*
X9938333Y-13225952D01*
X9928810Y-13216428D01*
X9919286Y-13197381D01*
X9909762Y-13159286D01*
X9909762Y-13111667D01*
X9919286Y-13073571D01*
X9928810Y-13054524D01*
X9938333Y-13045000D01*
X9957381Y-13035476D01*
X10109762Y-13235476D02*
X10109762Y-13102143D01*
X10109762Y-13121190D02*
X10119286Y-13111667D01*
X10138333Y-13102143D01*
X10166905Y-13102143D01*
X10185952Y-13111667D01*
X10195476Y-13130714D01*
X10195476Y-13235476D01*
X10195476Y-13130714D02*
X10205000Y-13111667D01*
X10224048Y-13102143D01*
X10252619Y-13102143D01*
X10271667Y-13111667D01*
X10281190Y-13130714D01*
X10281190Y-13235476D01*
X10376429Y-13235476D02*
X10376429Y-13102143D01*
X10376429Y-13121190D02*
X10385952Y-13111667D01*
X10405000Y-13102143D01*
X10433571Y-13102143D01*
X10452619Y-13111667D01*
X10462143Y-13130714D01*
X10462143Y-13235476D01*
X10462143Y-13130714D02*
X10471667Y-13111667D01*
X10490714Y-13102143D01*
X10519286Y-13102143D01*
X10538333Y-13111667D01*
X10547857Y-13130714D01*
X10547857Y-13235476D01*
X10938333Y-13025952D02*
X10766905Y-13283095D01*
X11195476Y-13035476D02*
X11214524Y-13035476D01*
X11233571Y-13045000D01*
X11243095Y-13054524D01*
X11252619Y-13073571D01*
X11262143Y-13111667D01*
X11262143Y-13159286D01*
X11252619Y-13197381D01*
X11243095Y-13216428D01*
X11233571Y-13225952D01*
X11214524Y-13235476D01*
X11195476Y-13235476D01*
X11176429Y-13225952D01*
X11166905Y-13216428D01*
X11157381Y-13197381D01*
X11147857Y-13159286D01*
X11147857Y-13111667D01*
X11157381Y-13073571D01*
X11166905Y-13054524D01*
X11176429Y-13045000D01*
X11195476Y-13035476D01*
X11347857Y-13216428D02*
X11357381Y-13225952D01*
X11347857Y-13235476D01*
X11338333Y-13225952D01*
X11347857Y-13216428D01*
X11347857Y-13235476D01*
X11481190Y-13035476D02*
X11500238Y-13035476D01*
X11519286Y-13045000D01*
X11528809Y-13054524D01*
X11538333Y-13073571D01*
X11547857Y-13111667D01*
X11547857Y-13159286D01*
X11538333Y-13197381D01*
X11528809Y-13216428D01*
X11519286Y-13225952D01*
X11500238Y-13235476D01*
X11481190Y-13235476D01*
X11462143Y-13225952D01*
X11452619Y-13216428D01*
X11443095Y-13197381D01*
X11433571Y-13159286D01*
X11433571Y-13111667D01*
X11443095Y-13073571D01*
X11452619Y-13054524D01*
X11462143Y-13045000D01*
X11481190Y-13035476D01*
X11738333Y-13235476D02*
X11624048Y-13235476D01*
X11681190Y-13235476D02*
X11681190Y-13035476D01*
X11662143Y-13064048D01*
X11643095Y-13083095D01*
X11624048Y-13092619D01*
X11919286Y-13035476D02*
X11824048Y-13035476D01*
X11814524Y-13130714D01*
X11824048Y-13121190D01*
X11843095Y-13111667D01*
X11890714Y-13111667D01*
X11909762Y-13121190D01*
X11919286Y-13130714D01*
X11928809Y-13149762D01*
X11928809Y-13197381D01*
X11919286Y-13216428D01*
X11909762Y-13225952D01*
X11890714Y-13235476D01*
X11843095Y-13235476D01*
X11824048Y-13225952D01*
X11814524Y-13216428D01*
X11995476Y-13035476D02*
X12128809Y-13035476D01*
X12043095Y-13235476D01*
X12195476Y-13035476D02*
X12195476Y-13073571D01*
X12271667Y-13035476D02*
X12271667Y-13073571D01*
X12566905Y-13311667D02*
X12557381Y-13302143D01*
X12538333Y-13273571D01*
X12528809Y-13254524D01*
X12519286Y-13225952D01*
X12509762Y-13178333D01*
X12509762Y-13140238D01*
X12519286Y-13092619D01*
X12528809Y-13064048D01*
X12538333Y-13045000D01*
X12557381Y-13016428D01*
X12566905Y-13006905D01*
X12624048Y-13035476D02*
X12757381Y-13035476D01*
X12671667Y-13235476D01*
X12814524Y-13035476D02*
X12938333Y-13035476D01*
X12871667Y-13111667D01*
X12900238Y-13111667D01*
X12919286Y-13121190D01*
X12928809Y-13130714D01*
X12938333Y-13149762D01*
X12938333Y-13197381D01*
X12928809Y-13216428D01*
X12919286Y-13225952D01*
X12900238Y-13235476D01*
X12843095Y-13235476D01*
X12824048Y-13225952D01*
X12814524Y-13216428D01*
X13176428Y-13235476D02*
X13176428Y-13035476D01*
X13262143Y-13235476D02*
X13262143Y-13130714D01*
X13252619Y-13111667D01*
X13233571Y-13102143D01*
X13205000Y-13102143D01*
X13185952Y-13111667D01*
X13176428Y-13121190D01*
X13385952Y-13235476D02*
X13366905Y-13225952D01*
X13357381Y-13216428D01*
X13347857Y-13197381D01*
X13347857Y-13140238D01*
X13357381Y-13121190D01*
X13366905Y-13111667D01*
X13385952Y-13102143D01*
X13414524Y-13102143D01*
X13433571Y-13111667D01*
X13443095Y-13121190D01*
X13452619Y-13140238D01*
X13452619Y-13197381D01*
X13443095Y-13216428D01*
X13433571Y-13225952D01*
X13414524Y-13235476D01*
X13385952Y-13235476D01*
X13566905Y-13235476D02*
X13547857Y-13225952D01*
X13538333Y-13206905D01*
X13538333Y-13035476D01*
X13719286Y-13225952D02*
X13700238Y-13235476D01*
X13662143Y-13235476D01*
X13643095Y-13225952D01*
X13633571Y-13206905D01*
X13633571Y-13130714D01*
X13643095Y-13111667D01*
X13662143Y-13102143D01*
X13700238Y-13102143D01*
X13719286Y-13111667D01*
X13728809Y-13130714D01*
X13728809Y-13149762D01*
X13633571Y-13168809D01*
X13805000Y-13225952D02*
X13824048Y-13235476D01*
X13862143Y-13235476D01*
X13881190Y-13225952D01*
X13890714Y-13206905D01*
X13890714Y-13197381D01*
X13881190Y-13178333D01*
X13862143Y-13168809D01*
X13833571Y-13168809D01*
X13814524Y-13159286D01*
X13805000Y-13140238D01*
X13805000Y-13130714D01*
X13814524Y-13111667D01*
X13833571Y-13102143D01*
X13862143Y-13102143D01*
X13881190Y-13111667D01*
X13957381Y-13311667D02*
X13966905Y-13302143D01*
X13985952Y-13273571D01*
X13995476Y-13254524D01*
X14005000Y-13225952D01*
X14014524Y-13178333D01*
X14014524Y-13140238D01*
X14005000Y-13092619D01*
X13995476Y-13064048D01*
X13985952Y-13045000D01*
X13966905Y-13016428D01*
X13957381Y-13006905D01*
D13*
X8995000Y-13409000D02*
G75*
G03*
X8995000Y-13409000I-38100J0D01*
G01*
D11*
X9290714Y-13299476D02*
X9309762Y-13299476D01*
X9328810Y-13309000D01*
X9338333Y-13318524D01*
X9347857Y-13337571D01*
X9357381Y-13375667D01*
X9357381Y-13423286D01*
X9347857Y-13461381D01*
X9338333Y-13480428D01*
X9328810Y-13489952D01*
X9309762Y-13499476D01*
X9290714Y-13499476D01*
X9271667Y-13489952D01*
X9262143Y-13480428D01*
X9252619Y-13461381D01*
X9243095Y-13423286D01*
X9243095Y-13375667D01*
X9252619Y-13337571D01*
X9262143Y-13318524D01*
X9271667Y-13309000D01*
X9290714Y-13299476D01*
X9443095Y-13480428D02*
X9452619Y-13489952D01*
X9443095Y-13499476D01*
X9433571Y-13489952D01*
X9443095Y-13480428D01*
X9443095Y-13499476D01*
X9519286Y-13299476D02*
X9652619Y-13299476D01*
X9566905Y-13499476D01*
X9814524Y-13299476D02*
X9776429Y-13299476D01*
X9757381Y-13309000D01*
X9747857Y-13318524D01*
X9728810Y-13347095D01*
X9719286Y-13385190D01*
X9719286Y-13461381D01*
X9728810Y-13480428D01*
X9738333Y-13489952D01*
X9757381Y-13499476D01*
X9795476Y-13499476D01*
X9814524Y-13489952D01*
X9824048Y-13480428D01*
X9833571Y-13461381D01*
X9833571Y-13413762D01*
X9824048Y-13394714D01*
X9814524Y-13385190D01*
X9795476Y-13375667D01*
X9757381Y-13375667D01*
X9738333Y-13385190D01*
X9728810Y-13394714D01*
X9719286Y-13413762D01*
X9909762Y-13318524D02*
X9919286Y-13309000D01*
X9938333Y-13299476D01*
X9985952Y-13299476D01*
X10005000Y-13309000D01*
X10014524Y-13318524D01*
X10024048Y-13337571D01*
X10024048Y-13356619D01*
X10014524Y-13385190D01*
X9900238Y-13499476D01*
X10024048Y-13499476D01*
X10109762Y-13499476D02*
X10109762Y-13366143D01*
X10109762Y-13385190D02*
X10119286Y-13375667D01*
X10138333Y-13366143D01*
X10166905Y-13366143D01*
X10185952Y-13375667D01*
X10195476Y-13394714D01*
X10195476Y-13499476D01*
X10195476Y-13394714D02*
X10205000Y-13375667D01*
X10224048Y-13366143D01*
X10252619Y-13366143D01*
X10271667Y-13375667D01*
X10281190Y-13394714D01*
X10281190Y-13499476D01*
X10376429Y-13499476D02*
X10376429Y-13366143D01*
X10376429Y-13385190D02*
X10385952Y-13375667D01*
X10405000Y-13366143D01*
X10433571Y-13366143D01*
X10452619Y-13375667D01*
X10462143Y-13394714D01*
X10462143Y-13499476D01*
X10462143Y-13394714D02*
X10471667Y-13375667D01*
X10490714Y-13366143D01*
X10519286Y-13366143D01*
X10538333Y-13375667D01*
X10547857Y-13394714D01*
X10547857Y-13499476D01*
X10938333Y-13289952D02*
X10766905Y-13547095D01*
X11195476Y-13299476D02*
X11214524Y-13299476D01*
X11233571Y-13309000D01*
X11243095Y-13318524D01*
X11252619Y-13337571D01*
X11262143Y-13375667D01*
X11262143Y-13423286D01*
X11252619Y-13461381D01*
X11243095Y-13480428D01*
X11233571Y-13489952D01*
X11214524Y-13499476D01*
X11195476Y-13499476D01*
X11176429Y-13489952D01*
X11166905Y-13480428D01*
X11157381Y-13461381D01*
X11147857Y-13423286D01*
X11147857Y-13375667D01*
X11157381Y-13337571D01*
X11166905Y-13318524D01*
X11176429Y-13309000D01*
X11195476Y-13299476D01*
X11347857Y-13480428D02*
X11357381Y-13489952D01*
X11347857Y-13499476D01*
X11338333Y-13489952D01*
X11347857Y-13480428D01*
X11347857Y-13499476D01*
X11481190Y-13299476D02*
X11500238Y-13299476D01*
X11519286Y-13309000D01*
X11528809Y-13318524D01*
X11538333Y-13337571D01*
X11547857Y-13375667D01*
X11547857Y-13423286D01*
X11538333Y-13461381D01*
X11528809Y-13480428D01*
X11519286Y-13489952D01*
X11500238Y-13499476D01*
X11481190Y-13499476D01*
X11462143Y-13489952D01*
X11452619Y-13480428D01*
X11443095Y-13461381D01*
X11433571Y-13423286D01*
X11433571Y-13375667D01*
X11443095Y-13337571D01*
X11452619Y-13318524D01*
X11462143Y-13309000D01*
X11481190Y-13299476D01*
X11614524Y-13299476D02*
X11738333Y-13299476D01*
X11671667Y-13375667D01*
X11700238Y-13375667D01*
X11719286Y-13385190D01*
X11728809Y-13394714D01*
X11738333Y-13413762D01*
X11738333Y-13461381D01*
X11728809Y-13480428D01*
X11719286Y-13489952D01*
X11700238Y-13499476D01*
X11643095Y-13499476D01*
X11624048Y-13489952D01*
X11614524Y-13480428D01*
X11862143Y-13299476D02*
X11881190Y-13299476D01*
X11900238Y-13309000D01*
X11909762Y-13318524D01*
X11919286Y-13337571D01*
X11928809Y-13375667D01*
X11928809Y-13423286D01*
X11919286Y-13461381D01*
X11909762Y-13480428D01*
X11900238Y-13489952D01*
X11881190Y-13499476D01*
X11862143Y-13499476D01*
X11843095Y-13489952D01*
X11833571Y-13480428D01*
X11824048Y-13461381D01*
X11814524Y-13423286D01*
X11814524Y-13375667D01*
X11824048Y-13337571D01*
X11833571Y-13318524D01*
X11843095Y-13309000D01*
X11862143Y-13299476D01*
X12052619Y-13299476D02*
X12071667Y-13299476D01*
X12090714Y-13309000D01*
X12100238Y-13318524D01*
X12109762Y-13337571D01*
X12119286Y-13375667D01*
X12119286Y-13423286D01*
X12109762Y-13461381D01*
X12100238Y-13480428D01*
X12090714Y-13489952D01*
X12071667Y-13499476D01*
X12052619Y-13499476D01*
X12033571Y-13489952D01*
X12024048Y-13480428D01*
X12014524Y-13461381D01*
X12005000Y-13423286D01*
X12005000Y-13375667D01*
X12014524Y-13337571D01*
X12024048Y-13318524D01*
X12033571Y-13309000D01*
X12052619Y-13299476D01*
X12195476Y-13299476D02*
X12195476Y-13337571D01*
X12271667Y-13299476D02*
X12271667Y-13337571D01*
X12566905Y-13575667D02*
X12557381Y-13566143D01*
X12538333Y-13537571D01*
X12528809Y-13518524D01*
X12519286Y-13489952D01*
X12509762Y-13442333D01*
X12509762Y-13404238D01*
X12519286Y-13356619D01*
X12528809Y-13328048D01*
X12538333Y-13309000D01*
X12557381Y-13280428D01*
X12566905Y-13270905D01*
X12633571Y-13318524D02*
X12643095Y-13309000D01*
X12662143Y-13299476D01*
X12709762Y-13299476D01*
X12728809Y-13309000D01*
X12738333Y-13318524D01*
X12747857Y-13337571D01*
X12747857Y-13356619D01*
X12738333Y-13385190D01*
X12624048Y-13499476D01*
X12747857Y-13499476D01*
X12862143Y-13385190D02*
X12843095Y-13375667D01*
X12833571Y-13366143D01*
X12824048Y-13347095D01*
X12824048Y-13337571D01*
X12833571Y-13318524D01*
X12843095Y-13309000D01*
X12862143Y-13299476D01*
X12900238Y-13299476D01*
X12919286Y-13309000D01*
X12928809Y-13318524D01*
X12938333Y-13337571D01*
X12938333Y-13347095D01*
X12928809Y-13366143D01*
X12919286Y-13375667D01*
X12900238Y-13385190D01*
X12862143Y-13385190D01*
X12843095Y-13394714D01*
X12833571Y-13404238D01*
X12824048Y-13423286D01*
X12824048Y-13461381D01*
X12833571Y-13480428D01*
X12843095Y-13489952D01*
X12862143Y-13499476D01*
X12900238Y-13499476D01*
X12919286Y-13489952D01*
X12928809Y-13480428D01*
X12938333Y-13461381D01*
X12938333Y-13423286D01*
X12928809Y-13404238D01*
X12919286Y-13394714D01*
X12900238Y-13385190D01*
X13176428Y-13499476D02*
X13176428Y-13299476D01*
X13262143Y-13499476D02*
X13262143Y-13394714D01*
X13252619Y-13375667D01*
X13233571Y-13366143D01*
X13205000Y-13366143D01*
X13185952Y-13375667D01*
X13176428Y-13385190D01*
X13385952Y-13499476D02*
X13366905Y-13489952D01*
X13357381Y-13480428D01*
X13347857Y-13461381D01*
X13347857Y-13404238D01*
X13357381Y-13385190D01*
X13366905Y-13375667D01*
X13385952Y-13366143D01*
X13414524Y-13366143D01*
X13433571Y-13375667D01*
X13443095Y-13385190D01*
X13452619Y-13404238D01*
X13452619Y-13461381D01*
X13443095Y-13480428D01*
X13433571Y-13489952D01*
X13414524Y-13499476D01*
X13385952Y-13499476D01*
X13566905Y-13499476D02*
X13547857Y-13489952D01*
X13538333Y-13470905D01*
X13538333Y-13299476D01*
X13719286Y-13489952D02*
X13700238Y-13499476D01*
X13662143Y-13499476D01*
X13643095Y-13489952D01*
X13633571Y-13470905D01*
X13633571Y-13394714D01*
X13643095Y-13375667D01*
X13662143Y-13366143D01*
X13700238Y-13366143D01*
X13719286Y-13375667D01*
X13728809Y-13394714D01*
X13728809Y-13413762D01*
X13633571Y-13432809D01*
X13805000Y-13489952D02*
X13824048Y-13499476D01*
X13862143Y-13499476D01*
X13881190Y-13489952D01*
X13890714Y-13470905D01*
X13890714Y-13461381D01*
X13881190Y-13442333D01*
X13862143Y-13432809D01*
X13833571Y-13432809D01*
X13814524Y-13423286D01*
X13805000Y-13404238D01*
X13805000Y-13394714D01*
X13814524Y-13375667D01*
X13833571Y-13366143D01*
X13862143Y-13366143D01*
X13881190Y-13375667D01*
X13957381Y-13575667D02*
X13966905Y-13566143D01*
X13985952Y-13537571D01*
X13995476Y-13518524D01*
X14005000Y-13489952D01*
X14014524Y-13442333D01*
X14014524Y-13404238D01*
X14005000Y-13356619D01*
X13995476Y-13328048D01*
X13985952Y-13309000D01*
X13966905Y-13280428D01*
X13957381Y-13270905D01*
D14*
X8955000Y-13633000D02*
X8955000Y-13713000D01*
X8915000Y-13673000D02*
X8995000Y-13673000D01*
D11*
X9290714Y-13563476D02*
X9309762Y-13563476D01*
X9328810Y-13573000D01*
X9338333Y-13582524D01*
X9347857Y-13601571D01*
X9357381Y-13639667D01*
X9357381Y-13687286D01*
X9347857Y-13725381D01*
X9338333Y-13744428D01*
X9328810Y-13753952D01*
X9309762Y-13763476D01*
X9290714Y-13763476D01*
X9271667Y-13753952D01*
X9262143Y-13744428D01*
X9252619Y-13725381D01*
X9243095Y-13687286D01*
X9243095Y-13639667D01*
X9252619Y-13601571D01*
X9262143Y-13582524D01*
X9271667Y-13573000D01*
X9290714Y-13563476D01*
X9443095Y-13744428D02*
X9452619Y-13753952D01*
X9443095Y-13763476D01*
X9433571Y-13753952D01*
X9443095Y-13744428D01*
X9443095Y-13763476D01*
X9566905Y-13649190D02*
X9547857Y-13639667D01*
X9538333Y-13630143D01*
X9528810Y-13611095D01*
X9528810Y-13601571D01*
X9538333Y-13582524D01*
X9547857Y-13573000D01*
X9566905Y-13563476D01*
X9605000Y-13563476D01*
X9624048Y-13573000D01*
X9633571Y-13582524D01*
X9643095Y-13601571D01*
X9643095Y-13611095D01*
X9633571Y-13630143D01*
X9624048Y-13639667D01*
X9605000Y-13649190D01*
X9566905Y-13649190D01*
X9547857Y-13658714D01*
X9538333Y-13668238D01*
X9528810Y-13687286D01*
X9528810Y-13725381D01*
X9538333Y-13744428D01*
X9547857Y-13753952D01*
X9566905Y-13763476D01*
X9605000Y-13763476D01*
X9624048Y-13753952D01*
X9633571Y-13744428D01*
X9643095Y-13725381D01*
X9643095Y-13687286D01*
X9633571Y-13668238D01*
X9624048Y-13658714D01*
X9605000Y-13649190D01*
X9766905Y-13563476D02*
X9785952Y-13563476D01*
X9805000Y-13573000D01*
X9814524Y-13582524D01*
X9824048Y-13601571D01*
X9833571Y-13639667D01*
X9833571Y-13687286D01*
X9824048Y-13725381D01*
X9814524Y-13744428D01*
X9805000Y-13753952D01*
X9785952Y-13763476D01*
X9766905Y-13763476D01*
X9747857Y-13753952D01*
X9738333Y-13744428D01*
X9728810Y-13725381D01*
X9719286Y-13687286D01*
X9719286Y-13639667D01*
X9728810Y-13601571D01*
X9738333Y-13582524D01*
X9747857Y-13573000D01*
X9766905Y-13563476D01*
X9957381Y-13563476D02*
X9976429Y-13563476D01*
X9995476Y-13573000D01*
X10005000Y-13582524D01*
X10014524Y-13601571D01*
X10024048Y-13639667D01*
X10024048Y-13687286D01*
X10014524Y-13725381D01*
X10005000Y-13744428D01*
X9995476Y-13753952D01*
X9976429Y-13763476D01*
X9957381Y-13763476D01*
X9938333Y-13753952D01*
X9928810Y-13744428D01*
X9919286Y-13725381D01*
X9909762Y-13687286D01*
X9909762Y-13639667D01*
X9919286Y-13601571D01*
X9928810Y-13582524D01*
X9938333Y-13573000D01*
X9957381Y-13563476D01*
X10109762Y-13763476D02*
X10109762Y-13630143D01*
X10109762Y-13649190D02*
X10119286Y-13639667D01*
X10138333Y-13630143D01*
X10166905Y-13630143D01*
X10185952Y-13639667D01*
X10195476Y-13658714D01*
X10195476Y-13763476D01*
X10195476Y-13658714D02*
X10205000Y-13639667D01*
X10224048Y-13630143D01*
X10252619Y-13630143D01*
X10271667Y-13639667D01*
X10281190Y-13658714D01*
X10281190Y-13763476D01*
X10376429Y-13763476D02*
X10376429Y-13630143D01*
X10376429Y-13649190D02*
X10385952Y-13639667D01*
X10405000Y-13630143D01*
X10433571Y-13630143D01*
X10452619Y-13639667D01*
X10462143Y-13658714D01*
X10462143Y-13763476D01*
X10462143Y-13658714D02*
X10471667Y-13639667D01*
X10490714Y-13630143D01*
X10519286Y-13630143D01*
X10538333Y-13639667D01*
X10547857Y-13658714D01*
X10547857Y-13763476D01*
X10938333Y-13553952D02*
X10766905Y-13811095D01*
X11195476Y-13563476D02*
X11214524Y-13563476D01*
X11233571Y-13573000D01*
X11243095Y-13582524D01*
X11252619Y-13601571D01*
X11262143Y-13639667D01*
X11262143Y-13687286D01*
X11252619Y-13725381D01*
X11243095Y-13744428D01*
X11233571Y-13753952D01*
X11214524Y-13763476D01*
X11195476Y-13763476D01*
X11176429Y-13753952D01*
X11166905Y-13744428D01*
X11157381Y-13725381D01*
X11147857Y-13687286D01*
X11147857Y-13639667D01*
X11157381Y-13601571D01*
X11166905Y-13582524D01*
X11176429Y-13573000D01*
X11195476Y-13563476D01*
X11347857Y-13744428D02*
X11357381Y-13753952D01*
X11347857Y-13763476D01*
X11338333Y-13753952D01*
X11347857Y-13744428D01*
X11347857Y-13763476D01*
X11481190Y-13563476D02*
X11500238Y-13563476D01*
X11519286Y-13573000D01*
X11528809Y-13582524D01*
X11538333Y-13601571D01*
X11547857Y-13639667D01*
X11547857Y-13687286D01*
X11538333Y-13725381D01*
X11528809Y-13744428D01*
X11519286Y-13753952D01*
X11500238Y-13763476D01*
X11481190Y-13763476D01*
X11462143Y-13753952D01*
X11452619Y-13744428D01*
X11443095Y-13725381D01*
X11433571Y-13687286D01*
X11433571Y-13639667D01*
X11443095Y-13601571D01*
X11452619Y-13582524D01*
X11462143Y-13573000D01*
X11481190Y-13563476D01*
X11614524Y-13563476D02*
X11738333Y-13563476D01*
X11671667Y-13639667D01*
X11700238Y-13639667D01*
X11719286Y-13649190D01*
X11728809Y-13658714D01*
X11738333Y-13677762D01*
X11738333Y-13725381D01*
X11728809Y-13744428D01*
X11719286Y-13753952D01*
X11700238Y-13763476D01*
X11643095Y-13763476D01*
X11624048Y-13753952D01*
X11614524Y-13744428D01*
X11928809Y-13763476D02*
X11814524Y-13763476D01*
X11871667Y-13763476D02*
X11871667Y-13563476D01*
X11852619Y-13592048D01*
X11833571Y-13611095D01*
X11814524Y-13620619D01*
X12109762Y-13563476D02*
X12014524Y-13563476D01*
X12005000Y-13658714D01*
X12014524Y-13649190D01*
X12033571Y-13639667D01*
X12081190Y-13639667D01*
X12100238Y-13649190D01*
X12109762Y-13658714D01*
X12119286Y-13677762D01*
X12119286Y-13725381D01*
X12109762Y-13744428D01*
X12100238Y-13753952D01*
X12081190Y-13763476D01*
X12033571Y-13763476D01*
X12014524Y-13753952D01*
X12005000Y-13744428D01*
X12195476Y-13563476D02*
X12195476Y-13601571D01*
X12271667Y-13563476D02*
X12271667Y-13601571D01*
X12566905Y-13839667D02*
X12557381Y-13830143D01*
X12538333Y-13801571D01*
X12528809Y-13782524D01*
X12519286Y-13753952D01*
X12509762Y-13706333D01*
X12509762Y-13668238D01*
X12519286Y-13620619D01*
X12528809Y-13592048D01*
X12538333Y-13573000D01*
X12557381Y-13544428D01*
X12566905Y-13534905D01*
X12671667Y-13649190D02*
X12652619Y-13639667D01*
X12643095Y-13630143D01*
X12633571Y-13611095D01*
X12633571Y-13601571D01*
X12643095Y-13582524D01*
X12652619Y-13573000D01*
X12671667Y-13563476D01*
X12709762Y-13563476D01*
X12728809Y-13573000D01*
X12738333Y-13582524D01*
X12747857Y-13601571D01*
X12747857Y-13611095D01*
X12738333Y-13630143D01*
X12728809Y-13639667D01*
X12709762Y-13649190D01*
X12671667Y-13649190D01*
X12652619Y-13658714D01*
X12643095Y-13668238D01*
X12633571Y-13687286D01*
X12633571Y-13725381D01*
X12643095Y-13744428D01*
X12652619Y-13753952D01*
X12671667Y-13763476D01*
X12709762Y-13763476D01*
X12728809Y-13753952D01*
X12738333Y-13744428D01*
X12747857Y-13725381D01*
X12747857Y-13687286D01*
X12738333Y-13668238D01*
X12728809Y-13658714D01*
X12709762Y-13649190D01*
X12985952Y-13763476D02*
X12985952Y-13563476D01*
X13071667Y-13763476D02*
X13071667Y-13658714D01*
X13062143Y-13639667D01*
X13043095Y-13630143D01*
X13014524Y-13630143D01*
X12995476Y-13639667D01*
X12985952Y-13649190D01*
X13195476Y-13763476D02*
X13176428Y-13753952D01*
X13166905Y-13744428D01*
X13157381Y-13725381D01*
X13157381Y-13668238D01*
X13166905Y-13649190D01*
X13176428Y-13639667D01*
X13195476Y-13630143D01*
X13224048Y-13630143D01*
X13243095Y-13639667D01*
X13252619Y-13649190D01*
X13262143Y-13668238D01*
X13262143Y-13725381D01*
X13252619Y-13744428D01*
X13243095Y-13753952D01*
X13224048Y-13763476D01*
X13195476Y-13763476D01*
X13376428Y-13763476D02*
X13357381Y-13753952D01*
X13347857Y-13734905D01*
X13347857Y-13563476D01*
X13528809Y-13753952D02*
X13509762Y-13763476D01*
X13471667Y-13763476D01*
X13452619Y-13753952D01*
X13443095Y-13734905D01*
X13443095Y-13658714D01*
X13452619Y-13639667D01*
X13471667Y-13630143D01*
X13509762Y-13630143D01*
X13528809Y-13639667D01*
X13538333Y-13658714D01*
X13538333Y-13677762D01*
X13443095Y-13696809D01*
X13614524Y-13753952D02*
X13633571Y-13763476D01*
X13671667Y-13763476D01*
X13690714Y-13753952D01*
X13700238Y-13734905D01*
X13700238Y-13725381D01*
X13690714Y-13706333D01*
X13671667Y-13696809D01*
X13643095Y-13696809D01*
X13624048Y-13687286D01*
X13614524Y-13668238D01*
X13614524Y-13658714D01*
X13624048Y-13639667D01*
X13643095Y-13630143D01*
X13671667Y-13630143D01*
X13690714Y-13639667D01*
X13766905Y-13839667D02*
X13776428Y-13830143D01*
X13795476Y-13801571D01*
X13805000Y-13782524D01*
X13814524Y-13753952D01*
X13824048Y-13706333D01*
X13824048Y-13668238D01*
X13814524Y-13620619D01*
X13805000Y-13592048D01*
X13795476Y-13573000D01*
X13776428Y-13544428D01*
X13766905Y-13534905D01*
D15*
X8983097Y-13965737D02*
X8983097Y-13908263D01*
X8925623Y-13908263D01*
X8925623Y-13965737D01*
X8983097Y-13965737D01*
D11*
X9290714Y-13827476D02*
X9309762Y-13827476D01*
X9328810Y-13837000D01*
X9338333Y-13846524D01*
X9347857Y-13865571D01*
X9357381Y-13903667D01*
X9357381Y-13951286D01*
X9347857Y-13989381D01*
X9338333Y-14008428D01*
X9328810Y-14017952D01*
X9309762Y-14027476D01*
X9290714Y-14027476D01*
X9271667Y-14017952D01*
X9262143Y-14008428D01*
X9252619Y-13989381D01*
X9243095Y-13951286D01*
X9243095Y-13903667D01*
X9252619Y-13865571D01*
X9262143Y-13846524D01*
X9271667Y-13837000D01*
X9290714Y-13827476D01*
X9443095Y-14008428D02*
X9452619Y-14017952D01*
X9443095Y-14027476D01*
X9433571Y-14017952D01*
X9443095Y-14008428D01*
X9443095Y-14027476D01*
X9566905Y-13913190D02*
X9547857Y-13903667D01*
X9538333Y-13894143D01*
X9528810Y-13875095D01*
X9528810Y-13865571D01*
X9538333Y-13846524D01*
X9547857Y-13837000D01*
X9566905Y-13827476D01*
X9605000Y-13827476D01*
X9624048Y-13837000D01*
X9633571Y-13846524D01*
X9643095Y-13865571D01*
X9643095Y-13875095D01*
X9633571Y-13894143D01*
X9624048Y-13903667D01*
X9605000Y-13913190D01*
X9566905Y-13913190D01*
X9547857Y-13922714D01*
X9538333Y-13932238D01*
X9528810Y-13951286D01*
X9528810Y-13989381D01*
X9538333Y-14008428D01*
X9547857Y-14017952D01*
X9566905Y-14027476D01*
X9605000Y-14027476D01*
X9624048Y-14017952D01*
X9633571Y-14008428D01*
X9643095Y-13989381D01*
X9643095Y-13951286D01*
X9633571Y-13932238D01*
X9624048Y-13922714D01*
X9605000Y-13913190D01*
X9833571Y-14027476D02*
X9719286Y-14027476D01*
X9776429Y-14027476D02*
X9776429Y-13827476D01*
X9757381Y-13856048D01*
X9738333Y-13875095D01*
X9719286Y-13884619D01*
X9900238Y-13827476D02*
X10024048Y-13827476D01*
X9957381Y-13903667D01*
X9985952Y-13903667D01*
X10005000Y-13913190D01*
X10014524Y-13922714D01*
X10024048Y-13941762D01*
X10024048Y-13989381D01*
X10014524Y-14008428D01*
X10005000Y-14017952D01*
X9985952Y-14027476D01*
X9928810Y-14027476D01*
X9909762Y-14017952D01*
X9900238Y-14008428D01*
X10109762Y-14027476D02*
X10109762Y-13894143D01*
X10109762Y-13913190D02*
X10119286Y-13903667D01*
X10138333Y-13894143D01*
X10166905Y-13894143D01*
X10185952Y-13903667D01*
X10195476Y-13922714D01*
X10195476Y-14027476D01*
X10195476Y-13922714D02*
X10205000Y-13903667D01*
X10224048Y-13894143D01*
X10252619Y-13894143D01*
X10271667Y-13903667D01*
X10281190Y-13922714D01*
X10281190Y-14027476D01*
X10376429Y-14027476D02*
X10376429Y-13894143D01*
X10376429Y-13913190D02*
X10385952Y-13903667D01*
X10405000Y-13894143D01*
X10433571Y-13894143D01*
X10452619Y-13903667D01*
X10462143Y-13922714D01*
X10462143Y-14027476D01*
X10462143Y-13922714D02*
X10471667Y-13903667D01*
X10490714Y-13894143D01*
X10519286Y-13894143D01*
X10538333Y-13903667D01*
X10547857Y-13922714D01*
X10547857Y-14027476D01*
X10938333Y-13817952D02*
X10766905Y-14075095D01*
X11195476Y-13827476D02*
X11214524Y-13827476D01*
X11233571Y-13837000D01*
X11243095Y-13846524D01*
X11252619Y-13865571D01*
X11262143Y-13903667D01*
X11262143Y-13951286D01*
X11252619Y-13989381D01*
X11243095Y-14008428D01*
X11233571Y-14017952D01*
X11214524Y-14027476D01*
X11195476Y-14027476D01*
X11176429Y-14017952D01*
X11166905Y-14008428D01*
X11157381Y-13989381D01*
X11147857Y-13951286D01*
X11147857Y-13903667D01*
X11157381Y-13865571D01*
X11166905Y-13846524D01*
X11176429Y-13837000D01*
X11195476Y-13827476D01*
X11347857Y-14008428D02*
X11357381Y-14017952D01*
X11347857Y-14027476D01*
X11338333Y-14017952D01*
X11347857Y-14008428D01*
X11347857Y-14027476D01*
X11481190Y-13827476D02*
X11500238Y-13827476D01*
X11519286Y-13837000D01*
X11528809Y-13846524D01*
X11538333Y-13865571D01*
X11547857Y-13903667D01*
X11547857Y-13951286D01*
X11538333Y-13989381D01*
X11528809Y-14008428D01*
X11519286Y-14017952D01*
X11500238Y-14027476D01*
X11481190Y-14027476D01*
X11462143Y-14017952D01*
X11452619Y-14008428D01*
X11443095Y-13989381D01*
X11433571Y-13951286D01*
X11433571Y-13903667D01*
X11443095Y-13865571D01*
X11452619Y-13846524D01*
X11462143Y-13837000D01*
X11481190Y-13827476D01*
X11614524Y-13827476D02*
X11738333Y-13827476D01*
X11671667Y-13903667D01*
X11700238Y-13903667D01*
X11719286Y-13913190D01*
X11728809Y-13922714D01*
X11738333Y-13941762D01*
X11738333Y-13989381D01*
X11728809Y-14008428D01*
X11719286Y-14017952D01*
X11700238Y-14027476D01*
X11643095Y-14027476D01*
X11624048Y-14017952D01*
X11614524Y-14008428D01*
X11814524Y-13846524D02*
X11824048Y-13837000D01*
X11843095Y-13827476D01*
X11890714Y-13827476D01*
X11909762Y-13837000D01*
X11919286Y-13846524D01*
X11928809Y-13865571D01*
X11928809Y-13884619D01*
X11919286Y-13913190D01*
X11805000Y-14027476D01*
X11928809Y-14027476D01*
X12052619Y-13827476D02*
X12071667Y-13827476D01*
X12090714Y-13837000D01*
X12100238Y-13846524D01*
X12109762Y-13865571D01*
X12119286Y-13903667D01*
X12119286Y-13951286D01*
X12109762Y-13989381D01*
X12100238Y-14008428D01*
X12090714Y-14017952D01*
X12071667Y-14027476D01*
X12052619Y-14027476D01*
X12033571Y-14017952D01*
X12024048Y-14008428D01*
X12014524Y-13989381D01*
X12005000Y-13951286D01*
X12005000Y-13903667D01*
X12014524Y-13865571D01*
X12024048Y-13846524D01*
X12033571Y-13837000D01*
X12052619Y-13827476D01*
X12195476Y-13827476D02*
X12195476Y-13865571D01*
X12271667Y-13827476D02*
X12271667Y-13865571D01*
X12566905Y-14103667D02*
X12557381Y-14094143D01*
X12538333Y-14065571D01*
X12528809Y-14046524D01*
X12519286Y-14017952D01*
X12509762Y-13970333D01*
X12509762Y-13932238D01*
X12519286Y-13884619D01*
X12528809Y-13856048D01*
X12538333Y-13837000D01*
X12557381Y-13808428D01*
X12566905Y-13798905D01*
X12633571Y-13846524D02*
X12643095Y-13837000D01*
X12662143Y-13827476D01*
X12709762Y-13827476D01*
X12728809Y-13837000D01*
X12738333Y-13846524D01*
X12747857Y-13865571D01*
X12747857Y-13884619D01*
X12738333Y-13913190D01*
X12624048Y-14027476D01*
X12747857Y-14027476D01*
X12985952Y-14027476D02*
X12985952Y-13827476D01*
X13071667Y-14027476D02*
X13071667Y-13922714D01*
X13062143Y-13903667D01*
X13043095Y-13894143D01*
X13014524Y-13894143D01*
X12995476Y-13903667D01*
X12985952Y-13913190D01*
X13195476Y-14027476D02*
X13176428Y-14017952D01*
X13166905Y-14008428D01*
X13157381Y-13989381D01*
X13157381Y-13932238D01*
X13166905Y-13913190D01*
X13176428Y-13903667D01*
X13195476Y-13894143D01*
X13224048Y-13894143D01*
X13243095Y-13903667D01*
X13252619Y-13913190D01*
X13262143Y-13932238D01*
X13262143Y-13989381D01*
X13252619Y-14008428D01*
X13243095Y-14017952D01*
X13224048Y-14027476D01*
X13195476Y-14027476D01*
X13376428Y-14027476D02*
X13357381Y-14017952D01*
X13347857Y-13998905D01*
X13347857Y-13827476D01*
X13528809Y-14017952D02*
X13509762Y-14027476D01*
X13471667Y-14027476D01*
X13452619Y-14017952D01*
X13443095Y-13998905D01*
X13443095Y-13922714D01*
X13452619Y-13903667D01*
X13471667Y-13894143D01*
X13509762Y-13894143D01*
X13528809Y-13903667D01*
X13538333Y-13922714D01*
X13538333Y-13941762D01*
X13443095Y-13960809D01*
X13614524Y-14017952D02*
X13633571Y-14027476D01*
X13671667Y-14027476D01*
X13690714Y-14017952D01*
X13700238Y-13998905D01*
X13700238Y-13989381D01*
X13690714Y-13970333D01*
X13671667Y-13960809D01*
X13643095Y-13960809D01*
X13624048Y-13951286D01*
X13614524Y-13932238D01*
X13614524Y-13922714D01*
X13624048Y-13903667D01*
X13643095Y-13894143D01*
X13671667Y-13894143D01*
X13690714Y-13903667D01*
X13766905Y-14103667D02*
X13776428Y-14094143D01*
X13795476Y-14065571D01*
X13805000Y-14046524D01*
X13814524Y-14017952D01*
X13824048Y-13970333D01*
X13824048Y-13932238D01*
X13814524Y-13884619D01*
X13805000Y-13856048D01*
X13795476Y-13837000D01*
X13776428Y-13808428D01*
X13766905Y-13798905D01*
D10*
X8945000Y-14251000D02*
X8995000Y-14201000D01*
X8945000Y-14151000D01*
X8895000Y-14201000D01*
X8945000Y-14251000D01*
D11*
X9357381Y-14291476D02*
X9243095Y-14291476D01*
X9300238Y-14291476D02*
X9300238Y-14091476D01*
X9281190Y-14120048D01*
X9262143Y-14139095D01*
X9243095Y-14148619D01*
X9443095Y-14272428D02*
X9452619Y-14281952D01*
X9443095Y-14291476D01*
X9433571Y-14281952D01*
X9443095Y-14272428D01*
X9443095Y-14291476D01*
X9576429Y-14091476D02*
X9595476Y-14091476D01*
X9614524Y-14101000D01*
X9624048Y-14110524D01*
X9633571Y-14129571D01*
X9643095Y-14167667D01*
X9643095Y-14215286D01*
X9633571Y-14253381D01*
X9624048Y-14272428D01*
X9614524Y-14281952D01*
X9595476Y-14291476D01*
X9576429Y-14291476D01*
X9557381Y-14281952D01*
X9547857Y-14272428D01*
X9538333Y-14253381D01*
X9528810Y-14215286D01*
X9528810Y-14167667D01*
X9538333Y-14129571D01*
X9547857Y-14110524D01*
X9557381Y-14101000D01*
X9576429Y-14091476D01*
X9766905Y-14091476D02*
X9785952Y-14091476D01*
X9805000Y-14101000D01*
X9814524Y-14110524D01*
X9824048Y-14129571D01*
X9833571Y-14167667D01*
X9833571Y-14215286D01*
X9824048Y-14253381D01*
X9814524Y-14272428D01*
X9805000Y-14281952D01*
X9785952Y-14291476D01*
X9766905Y-14291476D01*
X9747857Y-14281952D01*
X9738333Y-14272428D01*
X9728810Y-14253381D01*
X9719286Y-14215286D01*
X9719286Y-14167667D01*
X9728810Y-14129571D01*
X9738333Y-14110524D01*
X9747857Y-14101000D01*
X9766905Y-14091476D01*
X9957381Y-14091476D02*
X9976429Y-14091476D01*
X9995476Y-14101000D01*
X10005000Y-14110524D01*
X10014524Y-14129571D01*
X10024048Y-14167667D01*
X10024048Y-14215286D01*
X10014524Y-14253381D01*
X10005000Y-14272428D01*
X9995476Y-14281952D01*
X9976429Y-14291476D01*
X9957381Y-14291476D01*
X9938333Y-14281952D01*
X9928810Y-14272428D01*
X9919286Y-14253381D01*
X9909762Y-14215286D01*
X9909762Y-14167667D01*
X9919286Y-14129571D01*
X9928810Y-14110524D01*
X9938333Y-14101000D01*
X9957381Y-14091476D01*
X10109762Y-14291476D02*
X10109762Y-14158143D01*
X10109762Y-14177190D02*
X10119286Y-14167667D01*
X10138333Y-14158143D01*
X10166905Y-14158143D01*
X10185952Y-14167667D01*
X10195476Y-14186714D01*
X10195476Y-14291476D01*
X10195476Y-14186714D02*
X10205000Y-14167667D01*
X10224048Y-14158143D01*
X10252619Y-14158143D01*
X10271667Y-14167667D01*
X10281190Y-14186714D01*
X10281190Y-14291476D01*
X10376429Y-14291476D02*
X10376429Y-14158143D01*
X10376429Y-14177190D02*
X10385952Y-14167667D01*
X10405000Y-14158143D01*
X10433571Y-14158143D01*
X10452619Y-14167667D01*
X10462143Y-14186714D01*
X10462143Y-14291476D01*
X10462143Y-14186714D02*
X10471667Y-14167667D01*
X10490714Y-14158143D01*
X10519286Y-14158143D01*
X10538333Y-14167667D01*
X10547857Y-14186714D01*
X10547857Y-14291476D01*
X10938333Y-14081952D02*
X10766905Y-14339095D01*
X11195476Y-14091476D02*
X11214524Y-14091476D01*
X11233571Y-14101000D01*
X11243095Y-14110524D01*
X11252619Y-14129571D01*
X11262143Y-14167667D01*
X11262143Y-14215286D01*
X11252619Y-14253381D01*
X11243095Y-14272428D01*
X11233571Y-14281952D01*
X11214524Y-14291476D01*
X11195476Y-14291476D01*
X11176429Y-14281952D01*
X11166905Y-14272428D01*
X11157381Y-14253381D01*
X11147857Y-14215286D01*
X11147857Y-14167667D01*
X11157381Y-14129571D01*
X11166905Y-14110524D01*
X11176429Y-14101000D01*
X11195476Y-14091476D01*
X11347857Y-14272428D02*
X11357381Y-14281952D01*
X11347857Y-14291476D01*
X11338333Y-14281952D01*
X11347857Y-14272428D01*
X11347857Y-14291476D01*
X11481190Y-14091476D02*
X11500238Y-14091476D01*
X11519286Y-14101000D01*
X11528809Y-14110524D01*
X11538333Y-14129571D01*
X11547857Y-14167667D01*
X11547857Y-14215286D01*
X11538333Y-14253381D01*
X11528809Y-14272428D01*
X11519286Y-14281952D01*
X11500238Y-14291476D01*
X11481190Y-14291476D01*
X11462143Y-14281952D01*
X11452619Y-14272428D01*
X11443095Y-14253381D01*
X11433571Y-14215286D01*
X11433571Y-14167667D01*
X11443095Y-14129571D01*
X11452619Y-14110524D01*
X11462143Y-14101000D01*
X11481190Y-14091476D01*
X11614524Y-14091476D02*
X11738333Y-14091476D01*
X11671667Y-14167667D01*
X11700238Y-14167667D01*
X11719286Y-14177190D01*
X11728809Y-14186714D01*
X11738333Y-14205762D01*
X11738333Y-14253381D01*
X11728809Y-14272428D01*
X11719286Y-14281952D01*
X11700238Y-14291476D01*
X11643095Y-14291476D01*
X11624048Y-14281952D01*
X11614524Y-14272428D01*
X11833571Y-14291476D02*
X11871667Y-14291476D01*
X11890714Y-14281952D01*
X11900238Y-14272428D01*
X11919286Y-14243857D01*
X11928809Y-14205762D01*
X11928809Y-14129571D01*
X11919286Y-14110524D01*
X11909762Y-14101000D01*
X11890714Y-14091476D01*
X11852619Y-14091476D01*
X11833571Y-14101000D01*
X11824048Y-14110524D01*
X11814524Y-14129571D01*
X11814524Y-14177190D01*
X11824048Y-14196238D01*
X11833571Y-14205762D01*
X11852619Y-14215286D01*
X11890714Y-14215286D01*
X11909762Y-14205762D01*
X11919286Y-14196238D01*
X11928809Y-14177190D01*
X12100238Y-14158143D02*
X12100238Y-14291476D01*
X12052619Y-14081952D02*
X12005000Y-14224809D01*
X12128809Y-14224809D01*
X12195476Y-14091476D02*
X12195476Y-14129571D01*
X12271667Y-14091476D02*
X12271667Y-14129571D01*
X12566905Y-14367667D02*
X12557381Y-14358143D01*
X12538333Y-14329571D01*
X12528809Y-14310524D01*
X12519286Y-14281952D01*
X12509762Y-14234333D01*
X12509762Y-14196238D01*
X12519286Y-14148619D01*
X12528809Y-14120048D01*
X12538333Y-14101000D01*
X12557381Y-14072428D01*
X12566905Y-14062905D01*
X12728809Y-14158143D02*
X12728809Y-14291476D01*
X12681190Y-14081952D02*
X12633571Y-14224809D01*
X12757381Y-14224809D01*
X12862143Y-14177190D02*
X12843095Y-14167667D01*
X12833571Y-14158143D01*
X12824048Y-14139095D01*
X12824048Y-14129571D01*
X12833571Y-14110524D01*
X12843095Y-14101000D01*
X12862143Y-14091476D01*
X12900238Y-14091476D01*
X12919286Y-14101000D01*
X12928809Y-14110524D01*
X12938333Y-14129571D01*
X12938333Y-14139095D01*
X12928809Y-14158143D01*
X12919286Y-14167667D01*
X12900238Y-14177190D01*
X12862143Y-14177190D01*
X12843095Y-14186714D01*
X12833571Y-14196238D01*
X12824048Y-14215286D01*
X12824048Y-14253381D01*
X12833571Y-14272428D01*
X12843095Y-14281952D01*
X12862143Y-14291476D01*
X12900238Y-14291476D01*
X12919286Y-14281952D01*
X12928809Y-14272428D01*
X12938333Y-14253381D01*
X12938333Y-14215286D01*
X12928809Y-14196238D01*
X12919286Y-14186714D01*
X12900238Y-14177190D01*
X13176428Y-14291476D02*
X13176428Y-14091476D01*
X13262143Y-14291476D02*
X13262143Y-14186714D01*
X13252619Y-14167667D01*
X13233571Y-14158143D01*
X13205000Y-14158143D01*
X13185952Y-14167667D01*
X13176428Y-14177190D01*
X13385952Y-14291476D02*
X13366905Y-14281952D01*
X13357381Y-14272428D01*
X13347857Y-14253381D01*
X13347857Y-14196238D01*
X13357381Y-14177190D01*
X13366905Y-14167667D01*
X13385952Y-14158143D01*
X13414524Y-14158143D01*
X13433571Y-14167667D01*
X13443095Y-14177190D01*
X13452619Y-14196238D01*
X13452619Y-14253381D01*
X13443095Y-14272428D01*
X13433571Y-14281952D01*
X13414524Y-14291476D01*
X13385952Y-14291476D01*
X13566905Y-14291476D02*
X13547857Y-14281952D01*
X13538333Y-14262905D01*
X13538333Y-14091476D01*
X13719286Y-14281952D02*
X13700238Y-14291476D01*
X13662143Y-14291476D01*
X13643095Y-14281952D01*
X13633571Y-14262905D01*
X13633571Y-14186714D01*
X13643095Y-14167667D01*
X13662143Y-14158143D01*
X13700238Y-14158143D01*
X13719286Y-14167667D01*
X13728809Y-14186714D01*
X13728809Y-14205762D01*
X13633571Y-14224809D01*
X13805000Y-14281952D02*
X13824048Y-14291476D01*
X13862143Y-14291476D01*
X13881190Y-14281952D01*
X13890714Y-14262905D01*
X13890714Y-14253381D01*
X13881190Y-14234333D01*
X13862143Y-14224809D01*
X13833571Y-14224809D01*
X13814524Y-14215286D01*
X13805000Y-14196238D01*
X13805000Y-14186714D01*
X13814524Y-14167667D01*
X13833571Y-14158143D01*
X13862143Y-14158143D01*
X13881190Y-14167667D01*
X13957381Y-14367667D02*
X13966905Y-14358143D01*
X13985952Y-14329571D01*
X13995476Y-14310524D01*
X14005000Y-14281952D01*
X14014524Y-14234333D01*
X14014524Y-14196238D01*
X14005000Y-14148619D01*
X13995476Y-14120048D01*
X13985952Y-14101000D01*
X13966905Y-14072428D01*
X13957381Y-14062905D01*
D16*
X8886000Y-14410500D02*
X8995000Y-14519500D01*
X8995000Y-14410500D02*
X8886000Y-14519500D01*
X8995000Y-14465000D02*
G75*
G03*
X8995000Y-14465000I-54500J0D01*
G01*
D11*
X9357381Y-14555476D02*
X9243095Y-14555476D01*
X9300238Y-14555476D02*
X9300238Y-14355476D01*
X9281190Y-14384048D01*
X9262143Y-14403095D01*
X9243095Y-14412619D01*
X9443095Y-14536428D02*
X9452619Y-14545952D01*
X9443095Y-14555476D01*
X9433571Y-14545952D01*
X9443095Y-14536428D01*
X9443095Y-14555476D01*
X9576429Y-14355476D02*
X9595476Y-14355476D01*
X9614524Y-14365000D01*
X9624048Y-14374524D01*
X9633571Y-14393571D01*
X9643095Y-14431667D01*
X9643095Y-14479286D01*
X9633571Y-14517381D01*
X9624048Y-14536428D01*
X9614524Y-14545952D01*
X9595476Y-14555476D01*
X9576429Y-14555476D01*
X9557381Y-14545952D01*
X9547857Y-14536428D01*
X9538333Y-14517381D01*
X9528810Y-14479286D01*
X9528810Y-14431667D01*
X9538333Y-14393571D01*
X9547857Y-14374524D01*
X9557381Y-14365000D01*
X9576429Y-14355476D01*
X9738333Y-14555476D02*
X9776429Y-14555476D01*
X9795476Y-14545952D01*
X9805000Y-14536428D01*
X9824048Y-14507857D01*
X9833571Y-14469762D01*
X9833571Y-14393571D01*
X9824048Y-14374524D01*
X9814524Y-14365000D01*
X9795476Y-14355476D01*
X9757381Y-14355476D01*
X9738333Y-14365000D01*
X9728810Y-14374524D01*
X9719286Y-14393571D01*
X9719286Y-14441190D01*
X9728810Y-14460238D01*
X9738333Y-14469762D01*
X9757381Y-14479286D01*
X9795476Y-14479286D01*
X9814524Y-14469762D01*
X9824048Y-14460238D01*
X9833571Y-14441190D01*
X9957381Y-14355476D02*
X9976429Y-14355476D01*
X9995476Y-14365000D01*
X10005000Y-14374524D01*
X10014524Y-14393571D01*
X10024048Y-14431667D01*
X10024048Y-14479286D01*
X10014524Y-14517381D01*
X10005000Y-14536428D01*
X9995476Y-14545952D01*
X9976429Y-14555476D01*
X9957381Y-14555476D01*
X9938333Y-14545952D01*
X9928810Y-14536428D01*
X9919286Y-14517381D01*
X9909762Y-14479286D01*
X9909762Y-14431667D01*
X9919286Y-14393571D01*
X9928810Y-14374524D01*
X9938333Y-14365000D01*
X9957381Y-14355476D01*
X10109762Y-14555476D02*
X10109762Y-14422143D01*
X10109762Y-14441190D02*
X10119286Y-14431667D01*
X10138333Y-14422143D01*
X10166905Y-14422143D01*
X10185952Y-14431667D01*
X10195476Y-14450714D01*
X10195476Y-14555476D01*
X10195476Y-14450714D02*
X10205000Y-14431667D01*
X10224048Y-14422143D01*
X10252619Y-14422143D01*
X10271667Y-14431667D01*
X10281190Y-14450714D01*
X10281190Y-14555476D01*
X10376429Y-14555476D02*
X10376429Y-14422143D01*
X10376429Y-14441190D02*
X10385952Y-14431667D01*
X10405000Y-14422143D01*
X10433571Y-14422143D01*
X10452619Y-14431667D01*
X10462143Y-14450714D01*
X10462143Y-14555476D01*
X10462143Y-14450714D02*
X10471667Y-14431667D01*
X10490714Y-14422143D01*
X10519286Y-14422143D01*
X10538333Y-14431667D01*
X10547857Y-14450714D01*
X10547857Y-14555476D01*
X10938333Y-14345952D02*
X10766905Y-14603095D01*
X11195476Y-14355476D02*
X11214524Y-14355476D01*
X11233571Y-14365000D01*
X11243095Y-14374524D01*
X11252619Y-14393571D01*
X11262143Y-14431667D01*
X11262143Y-14479286D01*
X11252619Y-14517381D01*
X11243095Y-14536428D01*
X11233571Y-14545952D01*
X11214524Y-14555476D01*
X11195476Y-14555476D01*
X11176429Y-14545952D01*
X11166905Y-14536428D01*
X11157381Y-14517381D01*
X11147857Y-14479286D01*
X11147857Y-14431667D01*
X11157381Y-14393571D01*
X11166905Y-14374524D01*
X11176429Y-14365000D01*
X11195476Y-14355476D01*
X11347857Y-14536428D02*
X11357381Y-14545952D01*
X11347857Y-14555476D01*
X11338333Y-14545952D01*
X11347857Y-14536428D01*
X11347857Y-14555476D01*
X11481190Y-14355476D02*
X11500238Y-14355476D01*
X11519286Y-14365000D01*
X11528809Y-14374524D01*
X11538333Y-14393571D01*
X11547857Y-14431667D01*
X11547857Y-14479286D01*
X11538333Y-14517381D01*
X11528809Y-14536428D01*
X11519286Y-14545952D01*
X11500238Y-14555476D01*
X11481190Y-14555476D01*
X11462143Y-14545952D01*
X11452619Y-14536428D01*
X11443095Y-14517381D01*
X11433571Y-14479286D01*
X11433571Y-14431667D01*
X11443095Y-14393571D01*
X11452619Y-14374524D01*
X11462143Y-14365000D01*
X11481190Y-14355476D01*
X11719286Y-14422143D02*
X11719286Y-14555476D01*
X11671667Y-14345952D02*
X11624048Y-14488809D01*
X11747857Y-14488809D01*
X11814524Y-14374524D02*
X11824048Y-14365000D01*
X11843095Y-14355476D01*
X11890714Y-14355476D01*
X11909762Y-14365000D01*
X11919286Y-14374524D01*
X11928809Y-14393571D01*
X11928809Y-14412619D01*
X11919286Y-14441190D01*
X11805000Y-14555476D01*
X11928809Y-14555476D01*
X12024048Y-14555476D02*
X12062143Y-14555476D01*
X12081190Y-14545952D01*
X12090714Y-14536428D01*
X12109762Y-14507857D01*
X12119286Y-14469762D01*
X12119286Y-14393571D01*
X12109762Y-14374524D01*
X12100238Y-14365000D01*
X12081190Y-14355476D01*
X12043095Y-14355476D01*
X12024048Y-14365000D01*
X12014524Y-14374524D01*
X12005000Y-14393571D01*
X12005000Y-14441190D01*
X12014524Y-14460238D01*
X12024048Y-14469762D01*
X12043095Y-14479286D01*
X12081190Y-14479286D01*
X12100238Y-14469762D01*
X12109762Y-14460238D01*
X12119286Y-14441190D01*
X12195476Y-14355476D02*
X12195476Y-14393571D01*
X12271667Y-14355476D02*
X12271667Y-14393571D01*
X12566905Y-14631667D02*
X12557381Y-14622143D01*
X12538333Y-14593571D01*
X12528809Y-14574524D01*
X12519286Y-14545952D01*
X12509762Y-14498333D01*
X12509762Y-14460238D01*
X12519286Y-14412619D01*
X12528809Y-14384048D01*
X12538333Y-14365000D01*
X12557381Y-14336428D01*
X12566905Y-14326905D01*
X12671667Y-14441190D02*
X12652619Y-14431667D01*
X12643095Y-14422143D01*
X12633571Y-14403095D01*
X12633571Y-14393571D01*
X12643095Y-14374524D01*
X12652619Y-14365000D01*
X12671667Y-14355476D01*
X12709762Y-14355476D01*
X12728809Y-14365000D01*
X12738333Y-14374524D01*
X12747857Y-14393571D01*
X12747857Y-14403095D01*
X12738333Y-14422143D01*
X12728809Y-14431667D01*
X12709762Y-14441190D01*
X12671667Y-14441190D01*
X12652619Y-14450714D01*
X12643095Y-14460238D01*
X12633571Y-14479286D01*
X12633571Y-14517381D01*
X12643095Y-14536428D01*
X12652619Y-14545952D01*
X12671667Y-14555476D01*
X12709762Y-14555476D01*
X12728809Y-14545952D01*
X12738333Y-14536428D01*
X12747857Y-14517381D01*
X12747857Y-14479286D01*
X12738333Y-14460238D01*
X12728809Y-14450714D01*
X12709762Y-14441190D01*
X12985952Y-14555476D02*
X12985952Y-14355476D01*
X13071667Y-14555476D02*
X13071667Y-14450714D01*
X13062143Y-14431667D01*
X13043095Y-14422143D01*
X13014524Y-14422143D01*
X12995476Y-14431667D01*
X12985952Y-14441190D01*
X13195476Y-14555476D02*
X13176428Y-14545952D01*
X13166905Y-14536428D01*
X13157381Y-14517381D01*
X13157381Y-14460238D01*
X13166905Y-14441190D01*
X13176428Y-14431667D01*
X13195476Y-14422143D01*
X13224048Y-14422143D01*
X13243095Y-14431667D01*
X13252619Y-14441190D01*
X13262143Y-14460238D01*
X13262143Y-14517381D01*
X13252619Y-14536428D01*
X13243095Y-14545952D01*
X13224048Y-14555476D01*
X13195476Y-14555476D01*
X13376428Y-14555476D02*
X13357381Y-14545952D01*
X13347857Y-14526905D01*
X13347857Y-14355476D01*
X13528809Y-14545952D02*
X13509762Y-14555476D01*
X13471667Y-14555476D01*
X13452619Y-14545952D01*
X13443095Y-14526905D01*
X13443095Y-14450714D01*
X13452619Y-14431667D01*
X13471667Y-14422143D01*
X13509762Y-14422143D01*
X13528809Y-14431667D01*
X13538333Y-14450714D01*
X13538333Y-14469762D01*
X13443095Y-14488809D01*
X13614524Y-14545952D02*
X13633571Y-14555476D01*
X13671667Y-14555476D01*
X13690714Y-14545952D01*
X13700238Y-14526905D01*
X13700238Y-14517381D01*
X13690714Y-14498333D01*
X13671667Y-14488809D01*
X13643095Y-14488809D01*
X13624048Y-14479286D01*
X13614524Y-14460238D01*
X13614524Y-14450714D01*
X13624048Y-14431667D01*
X13643095Y-14422143D01*
X13671667Y-14422143D01*
X13690714Y-14431667D01*
X13766905Y-14631667D02*
X13776428Y-14622143D01*
X13795476Y-14593571D01*
X13805000Y-14574524D01*
X13814524Y-14545952D01*
X13824048Y-14498333D01*
X13824048Y-14460238D01*
X13814524Y-14412619D01*
X13805000Y-14384048D01*
X13795476Y-14365000D01*
X13776428Y-14336428D01*
X13766905Y-14326905D01*
D17*
X8885000Y-14674000D02*
X8995000Y-14784000D01*
X8995000Y-14674000D02*
X8885000Y-14784000D01*
X8940000Y-14674000D02*
X8940000Y-14784000D01*
X8885000Y-14729000D02*
X8995000Y-14729000D01*
D11*
X9357381Y-14819476D02*
X9243095Y-14819476D01*
X9300238Y-14819476D02*
X9300238Y-14619476D01*
X9281190Y-14648048D01*
X9262143Y-14667095D01*
X9243095Y-14676619D01*
X9443095Y-14800428D02*
X9452619Y-14809952D01*
X9443095Y-14819476D01*
X9433571Y-14809952D01*
X9443095Y-14800428D01*
X9443095Y-14819476D01*
X9643095Y-14819476D02*
X9528810Y-14819476D01*
X9585952Y-14819476D02*
X9585952Y-14619476D01*
X9566905Y-14648048D01*
X9547857Y-14667095D01*
X9528810Y-14676619D01*
X9766905Y-14619476D02*
X9785952Y-14619476D01*
X9805000Y-14629000D01*
X9814524Y-14638524D01*
X9824048Y-14657571D01*
X9833571Y-14695667D01*
X9833571Y-14743286D01*
X9824048Y-14781381D01*
X9814524Y-14800428D01*
X9805000Y-14809952D01*
X9785952Y-14819476D01*
X9766905Y-14819476D01*
X9747857Y-14809952D01*
X9738333Y-14800428D01*
X9728810Y-14781381D01*
X9719286Y-14743286D01*
X9719286Y-14695667D01*
X9728810Y-14657571D01*
X9738333Y-14638524D01*
X9747857Y-14629000D01*
X9766905Y-14619476D01*
X9957381Y-14619476D02*
X9976429Y-14619476D01*
X9995476Y-14629000D01*
X10005000Y-14638524D01*
X10014524Y-14657571D01*
X10024048Y-14695667D01*
X10024048Y-14743286D01*
X10014524Y-14781381D01*
X10005000Y-14800428D01*
X9995476Y-14809952D01*
X9976429Y-14819476D01*
X9957381Y-14819476D01*
X9938333Y-14809952D01*
X9928810Y-14800428D01*
X9919286Y-14781381D01*
X9909762Y-14743286D01*
X9909762Y-14695667D01*
X9919286Y-14657571D01*
X9928810Y-14638524D01*
X9938333Y-14629000D01*
X9957381Y-14619476D01*
X10109762Y-14819476D02*
X10109762Y-14686143D01*
X10109762Y-14705190D02*
X10119286Y-14695667D01*
X10138333Y-14686143D01*
X10166905Y-14686143D01*
X10185952Y-14695667D01*
X10195476Y-14714714D01*
X10195476Y-14819476D01*
X10195476Y-14714714D02*
X10205000Y-14695667D01*
X10224048Y-14686143D01*
X10252619Y-14686143D01*
X10271667Y-14695667D01*
X10281190Y-14714714D01*
X10281190Y-14819476D01*
X10376429Y-14819476D02*
X10376429Y-14686143D01*
X10376429Y-14705190D02*
X10385952Y-14695667D01*
X10405000Y-14686143D01*
X10433571Y-14686143D01*
X10452619Y-14695667D01*
X10462143Y-14714714D01*
X10462143Y-14819476D01*
X10462143Y-14714714D02*
X10471667Y-14695667D01*
X10490714Y-14686143D01*
X10519286Y-14686143D01*
X10538333Y-14695667D01*
X10547857Y-14714714D01*
X10547857Y-14819476D01*
X10938333Y-14609952D02*
X10766905Y-14867095D01*
X11195476Y-14619476D02*
X11214524Y-14619476D01*
X11233571Y-14629000D01*
X11243095Y-14638524D01*
X11252619Y-14657571D01*
X11262143Y-14695667D01*
X11262143Y-14743286D01*
X11252619Y-14781381D01*
X11243095Y-14800428D01*
X11233571Y-14809952D01*
X11214524Y-14819476D01*
X11195476Y-14819476D01*
X11176429Y-14809952D01*
X11166905Y-14800428D01*
X11157381Y-14781381D01*
X11147857Y-14743286D01*
X11147857Y-14695667D01*
X11157381Y-14657571D01*
X11166905Y-14638524D01*
X11176429Y-14629000D01*
X11195476Y-14619476D01*
X11347857Y-14800428D02*
X11357381Y-14809952D01*
X11347857Y-14819476D01*
X11338333Y-14809952D01*
X11347857Y-14800428D01*
X11347857Y-14819476D01*
X11481190Y-14619476D02*
X11500238Y-14619476D01*
X11519286Y-14629000D01*
X11528809Y-14638524D01*
X11538333Y-14657571D01*
X11547857Y-14695667D01*
X11547857Y-14743286D01*
X11538333Y-14781381D01*
X11528809Y-14800428D01*
X11519286Y-14809952D01*
X11500238Y-14819476D01*
X11481190Y-14819476D01*
X11462143Y-14809952D01*
X11452619Y-14800428D01*
X11443095Y-14781381D01*
X11433571Y-14743286D01*
X11433571Y-14695667D01*
X11443095Y-14657571D01*
X11452619Y-14638524D01*
X11462143Y-14629000D01*
X11481190Y-14619476D01*
X11719286Y-14686143D02*
X11719286Y-14819476D01*
X11671667Y-14609952D02*
X11624048Y-14752809D01*
X11747857Y-14752809D01*
X11805000Y-14619476D02*
X11928809Y-14619476D01*
X11862143Y-14695667D01*
X11890714Y-14695667D01*
X11909762Y-14705190D01*
X11919286Y-14714714D01*
X11928809Y-14733762D01*
X11928809Y-14781381D01*
X11919286Y-14800428D01*
X11909762Y-14809952D01*
X11890714Y-14819476D01*
X11833571Y-14819476D01*
X11814524Y-14809952D01*
X11805000Y-14800428D01*
X11995476Y-14619476D02*
X12119286Y-14619476D01*
X12052619Y-14695667D01*
X12081190Y-14695667D01*
X12100238Y-14705190D01*
X12109762Y-14714714D01*
X12119286Y-14733762D01*
X12119286Y-14781381D01*
X12109762Y-14800428D01*
X12100238Y-14809952D01*
X12081190Y-14819476D01*
X12024048Y-14819476D01*
X12005000Y-14809952D01*
X11995476Y-14800428D01*
X12195476Y-14619476D02*
X12195476Y-14657571D01*
X12271667Y-14619476D02*
X12271667Y-14657571D01*
X12566905Y-14895667D02*
X12557381Y-14886143D01*
X12538333Y-14857571D01*
X12528809Y-14838524D01*
X12519286Y-14809952D01*
X12509762Y-14762333D01*
X12509762Y-14724238D01*
X12519286Y-14676619D01*
X12528809Y-14648048D01*
X12538333Y-14629000D01*
X12557381Y-14600428D01*
X12566905Y-14590905D01*
X12671667Y-14705190D02*
X12652619Y-14695667D01*
X12643095Y-14686143D01*
X12633571Y-14667095D01*
X12633571Y-14657571D01*
X12643095Y-14638524D01*
X12652619Y-14629000D01*
X12671667Y-14619476D01*
X12709762Y-14619476D01*
X12728809Y-14629000D01*
X12738333Y-14638524D01*
X12747857Y-14657571D01*
X12747857Y-14667095D01*
X12738333Y-14686143D01*
X12728809Y-14695667D01*
X12709762Y-14705190D01*
X12671667Y-14705190D01*
X12652619Y-14714714D01*
X12643095Y-14724238D01*
X12633571Y-14743286D01*
X12633571Y-14781381D01*
X12643095Y-14800428D01*
X12652619Y-14809952D01*
X12671667Y-14819476D01*
X12709762Y-14819476D01*
X12728809Y-14809952D01*
X12738333Y-14800428D01*
X12747857Y-14781381D01*
X12747857Y-14743286D01*
X12738333Y-14724238D01*
X12728809Y-14714714D01*
X12709762Y-14705190D01*
X12985952Y-14819476D02*
X12985952Y-14619476D01*
X13071667Y-14819476D02*
X13071667Y-14714714D01*
X13062143Y-14695667D01*
X13043095Y-14686143D01*
X13014524Y-14686143D01*
X12995476Y-14695667D01*
X12985952Y-14705190D01*
X13195476Y-14819476D02*
X13176428Y-14809952D01*
X13166905Y-14800428D01*
X13157381Y-14781381D01*
X13157381Y-14724238D01*
X13166905Y-14705190D01*
X13176428Y-14695667D01*
X13195476Y-14686143D01*
X13224048Y-14686143D01*
X13243095Y-14695667D01*
X13252619Y-14705190D01*
X13262143Y-14724238D01*
X13262143Y-14781381D01*
X13252619Y-14800428D01*
X13243095Y-14809952D01*
X13224048Y-14819476D01*
X13195476Y-14819476D01*
X13376428Y-14819476D02*
X13357381Y-14809952D01*
X13347857Y-14790905D01*
X13347857Y-14619476D01*
X13528809Y-14809952D02*
X13509762Y-14819476D01*
X13471667Y-14819476D01*
X13452619Y-14809952D01*
X13443095Y-14790905D01*
X13443095Y-14714714D01*
X13452619Y-14695667D01*
X13471667Y-14686143D01*
X13509762Y-14686143D01*
X13528809Y-14695667D01*
X13538333Y-14714714D01*
X13538333Y-14733762D01*
X13443095Y-14752809D01*
X13614524Y-14809952D02*
X13633571Y-14819476D01*
X13671667Y-14819476D01*
X13690714Y-14809952D01*
X13700238Y-14790905D01*
X13700238Y-14781381D01*
X13690714Y-14762333D01*
X13671667Y-14752809D01*
X13643095Y-14752809D01*
X13624048Y-14743286D01*
X13614524Y-14724238D01*
X13614524Y-14714714D01*
X13624048Y-14695667D01*
X13643095Y-14686143D01*
X13671667Y-14686143D01*
X13690714Y-14695667D01*
X13766905Y-14895667D02*
X13776428Y-14886143D01*
X13795476Y-14857571D01*
X13805000Y-14838524D01*
X13814524Y-14809952D01*
X13824048Y-14762333D01*
X13824048Y-14724238D01*
X13814524Y-14676619D01*
X13805000Y-14648048D01*
X13795476Y-14629000D01*
X13776428Y-14600428D01*
X13766905Y-14590905D01*
D18*
X8878160Y-14934580D02*
X8995000Y-15051420D01*
X8995000Y-14934580D02*
X8878160Y-15051420D01*
X8977890Y-15034310D02*
X8977890Y-14951690D01*
X8895270Y-14951690D01*
X8895270Y-15034310D01*
X8977890Y-15034310D01*
D11*
X9357381Y-15083476D02*
X9243095Y-15083476D01*
X9300238Y-15083476D02*
X9300238Y-14883476D01*
X9281190Y-14912048D01*
X9262143Y-14931095D01*
X9243095Y-14940619D01*
X9443095Y-15064428D02*
X9452619Y-15073952D01*
X9443095Y-15083476D01*
X9433571Y-15073952D01*
X9443095Y-15064428D01*
X9443095Y-15083476D01*
X9643095Y-15083476D02*
X9528810Y-15083476D01*
X9585952Y-15083476D02*
X9585952Y-14883476D01*
X9566905Y-14912048D01*
X9547857Y-14931095D01*
X9528810Y-14940619D01*
X9814524Y-14883476D02*
X9776429Y-14883476D01*
X9757381Y-14893000D01*
X9747857Y-14902524D01*
X9728810Y-14931095D01*
X9719286Y-14969190D01*
X9719286Y-15045381D01*
X9728810Y-15064428D01*
X9738333Y-15073952D01*
X9757381Y-15083476D01*
X9795476Y-15083476D01*
X9814524Y-15073952D01*
X9824048Y-15064428D01*
X9833571Y-15045381D01*
X9833571Y-14997762D01*
X9824048Y-14978714D01*
X9814524Y-14969190D01*
X9795476Y-14959667D01*
X9757381Y-14959667D01*
X9738333Y-14969190D01*
X9728810Y-14978714D01*
X9719286Y-14997762D01*
X9947857Y-14969190D02*
X9928810Y-14959667D01*
X9919286Y-14950143D01*
X9909762Y-14931095D01*
X9909762Y-14921571D01*
X9919286Y-14902524D01*
X9928810Y-14893000D01*
X9947857Y-14883476D01*
X9985952Y-14883476D01*
X10005000Y-14893000D01*
X10014524Y-14902524D01*
X10024048Y-14921571D01*
X10024048Y-14931095D01*
X10014524Y-14950143D01*
X10005000Y-14959667D01*
X9985952Y-14969190D01*
X9947857Y-14969190D01*
X9928810Y-14978714D01*
X9919286Y-14988238D01*
X9909762Y-15007286D01*
X9909762Y-15045381D01*
X9919286Y-15064428D01*
X9928810Y-15073952D01*
X9947857Y-15083476D01*
X9985952Y-15083476D01*
X10005000Y-15073952D01*
X10014524Y-15064428D01*
X10024048Y-15045381D01*
X10024048Y-15007286D01*
X10014524Y-14988238D01*
X10005000Y-14978714D01*
X9985952Y-14969190D01*
X10109762Y-15083476D02*
X10109762Y-14950143D01*
X10109762Y-14969190D02*
X10119286Y-14959667D01*
X10138333Y-14950143D01*
X10166905Y-14950143D01*
X10185952Y-14959667D01*
X10195476Y-14978714D01*
X10195476Y-15083476D01*
X10195476Y-14978714D02*
X10205000Y-14959667D01*
X10224048Y-14950143D01*
X10252619Y-14950143D01*
X10271667Y-14959667D01*
X10281190Y-14978714D01*
X10281190Y-15083476D01*
X10376429Y-15083476D02*
X10376429Y-14950143D01*
X10376429Y-14969190D02*
X10385952Y-14959667D01*
X10405000Y-14950143D01*
X10433571Y-14950143D01*
X10452619Y-14959667D01*
X10462143Y-14978714D01*
X10462143Y-15083476D01*
X10462143Y-14978714D02*
X10471667Y-14959667D01*
X10490714Y-14950143D01*
X10519286Y-14950143D01*
X10538333Y-14959667D01*
X10547857Y-14978714D01*
X10547857Y-15083476D01*
X10938333Y-14873952D02*
X10766905Y-15131095D01*
X11195476Y-14883476D02*
X11214524Y-14883476D01*
X11233571Y-14893000D01*
X11243095Y-14902524D01*
X11252619Y-14921571D01*
X11262143Y-14959667D01*
X11262143Y-15007286D01*
X11252619Y-15045381D01*
X11243095Y-15064428D01*
X11233571Y-15073952D01*
X11214524Y-15083476D01*
X11195476Y-15083476D01*
X11176429Y-15073952D01*
X11166905Y-15064428D01*
X11157381Y-15045381D01*
X11147857Y-15007286D01*
X11147857Y-14959667D01*
X11157381Y-14921571D01*
X11166905Y-14902524D01*
X11176429Y-14893000D01*
X11195476Y-14883476D01*
X11347857Y-15064428D02*
X11357381Y-15073952D01*
X11347857Y-15083476D01*
X11338333Y-15073952D01*
X11347857Y-15064428D01*
X11347857Y-15083476D01*
X11481190Y-14883476D02*
X11500238Y-14883476D01*
X11519286Y-14893000D01*
X11528809Y-14902524D01*
X11538333Y-14921571D01*
X11547857Y-14959667D01*
X11547857Y-15007286D01*
X11538333Y-15045381D01*
X11528809Y-15064428D01*
X11519286Y-15073952D01*
X11500238Y-15083476D01*
X11481190Y-15083476D01*
X11462143Y-15073952D01*
X11452619Y-15064428D01*
X11443095Y-15045381D01*
X11433571Y-15007286D01*
X11433571Y-14959667D01*
X11443095Y-14921571D01*
X11452619Y-14902524D01*
X11462143Y-14893000D01*
X11481190Y-14883476D01*
X11719286Y-14950143D02*
X11719286Y-15083476D01*
X11671667Y-14873952D02*
X11624048Y-15016809D01*
X11747857Y-15016809D01*
X11909762Y-14883476D02*
X11871667Y-14883476D01*
X11852619Y-14893000D01*
X11843095Y-14902524D01*
X11824048Y-14931095D01*
X11814524Y-14969190D01*
X11814524Y-15045381D01*
X11824048Y-15064428D01*
X11833571Y-15073952D01*
X11852619Y-15083476D01*
X11890714Y-15083476D01*
X11909762Y-15073952D01*
X11919286Y-15064428D01*
X11928809Y-15045381D01*
X11928809Y-14997762D01*
X11919286Y-14978714D01*
X11909762Y-14969190D01*
X11890714Y-14959667D01*
X11852619Y-14959667D01*
X11833571Y-14969190D01*
X11824048Y-14978714D01*
X11814524Y-14997762D01*
X12052619Y-14883476D02*
X12071667Y-14883476D01*
X12090714Y-14893000D01*
X12100238Y-14902524D01*
X12109762Y-14921571D01*
X12119286Y-14959667D01*
X12119286Y-15007286D01*
X12109762Y-15045381D01*
X12100238Y-15064428D01*
X12090714Y-15073952D01*
X12071667Y-15083476D01*
X12052619Y-15083476D01*
X12033571Y-15073952D01*
X12024048Y-15064428D01*
X12014524Y-15045381D01*
X12005000Y-15007286D01*
X12005000Y-14959667D01*
X12014524Y-14921571D01*
X12024048Y-14902524D01*
X12033571Y-14893000D01*
X12052619Y-14883476D01*
X12195476Y-14883476D02*
X12195476Y-14921571D01*
X12271667Y-14883476D02*
X12271667Y-14921571D01*
X12566905Y-15159667D02*
X12557381Y-15150143D01*
X12538333Y-15121571D01*
X12528809Y-15102524D01*
X12519286Y-15073952D01*
X12509762Y-15026333D01*
X12509762Y-14988238D01*
X12519286Y-14940619D01*
X12528809Y-14912048D01*
X12538333Y-14893000D01*
X12557381Y-14864428D01*
X12566905Y-14854905D01*
X12728809Y-14950143D02*
X12728809Y-15083476D01*
X12681190Y-14873952D02*
X12633571Y-15016809D01*
X12757381Y-15016809D01*
X12985952Y-15083476D02*
X12985952Y-14883476D01*
X13071667Y-15083476D02*
X13071667Y-14978714D01*
X13062143Y-14959667D01*
X13043095Y-14950143D01*
X13014524Y-14950143D01*
X12995476Y-14959667D01*
X12985952Y-14969190D01*
X13195476Y-15083476D02*
X13176428Y-15073952D01*
X13166905Y-15064428D01*
X13157381Y-15045381D01*
X13157381Y-14988238D01*
X13166905Y-14969190D01*
X13176428Y-14959667D01*
X13195476Y-14950143D01*
X13224048Y-14950143D01*
X13243095Y-14959667D01*
X13252619Y-14969190D01*
X13262143Y-14988238D01*
X13262143Y-15045381D01*
X13252619Y-15064428D01*
X13243095Y-15073952D01*
X13224048Y-15083476D01*
X13195476Y-15083476D01*
X13376428Y-15083476D02*
X13357381Y-15073952D01*
X13347857Y-15054905D01*
X13347857Y-14883476D01*
X13528809Y-15073952D02*
X13509762Y-15083476D01*
X13471667Y-15083476D01*
X13452619Y-15073952D01*
X13443095Y-15054905D01*
X13443095Y-14978714D01*
X13452619Y-14959667D01*
X13471667Y-14950143D01*
X13509762Y-14950143D01*
X13528809Y-14959667D01*
X13538333Y-14978714D01*
X13538333Y-14997762D01*
X13443095Y-15016809D01*
X13614524Y-15073952D02*
X13633571Y-15083476D01*
X13671667Y-15083476D01*
X13690714Y-15073952D01*
X13700238Y-15054905D01*
X13700238Y-15045381D01*
X13690714Y-15026333D01*
X13671667Y-15016809D01*
X13643095Y-15016809D01*
X13624048Y-15007286D01*
X13614524Y-14988238D01*
X13614524Y-14978714D01*
X13624048Y-14959667D01*
X13643095Y-14950143D01*
X13671667Y-14950143D01*
X13690714Y-14959667D01*
X13766905Y-15159667D02*
X13776428Y-15150143D01*
X13795476Y-15121571D01*
X13805000Y-15102524D01*
X13814524Y-15073952D01*
X13824048Y-15026333D01*
X13824048Y-14988238D01*
X13814524Y-14940619D01*
X13805000Y-14912048D01*
X13795476Y-14893000D01*
X13776428Y-14864428D01*
X13766905Y-14854905D01*
X8795000Y-15157000D02*
X8995000Y-15357000D01*
X8995000Y-15157000D02*
X8795000Y-15357000D01*
X8895000Y-15357000D02*
X8995000Y-15257000D01*
X8895000Y-15157000D01*
X8795000Y-15257000D01*
X8895000Y-15357000D01*
X9233571Y-15147476D02*
X9357381Y-15147476D01*
X9290714Y-15223667D01*
X9319286Y-15223667D01*
X9338333Y-15233190D01*
X9347857Y-15242714D01*
X9357381Y-15261762D01*
X9357381Y-15309381D01*
X9347857Y-15328428D01*
X9338333Y-15337952D01*
X9319286Y-15347476D01*
X9262143Y-15347476D01*
X9243095Y-15337952D01*
X9233571Y-15328428D01*
X9443095Y-15328428D02*
X9452619Y-15337952D01*
X9443095Y-15347476D01*
X9433571Y-15337952D01*
X9443095Y-15328428D01*
X9443095Y-15347476D01*
X9528810Y-15166524D02*
X9538333Y-15157000D01*
X9557381Y-15147476D01*
X9605000Y-15147476D01*
X9624048Y-15157000D01*
X9633571Y-15166524D01*
X9643095Y-15185571D01*
X9643095Y-15204619D01*
X9633571Y-15233190D01*
X9519286Y-15347476D01*
X9643095Y-15347476D01*
X9766905Y-15147476D02*
X9785952Y-15147476D01*
X9805000Y-15157000D01*
X9814524Y-15166524D01*
X9824048Y-15185571D01*
X9833571Y-15223667D01*
X9833571Y-15271286D01*
X9824048Y-15309381D01*
X9814524Y-15328428D01*
X9805000Y-15337952D01*
X9785952Y-15347476D01*
X9766905Y-15347476D01*
X9747857Y-15337952D01*
X9738333Y-15328428D01*
X9728810Y-15309381D01*
X9719286Y-15271286D01*
X9719286Y-15223667D01*
X9728810Y-15185571D01*
X9738333Y-15166524D01*
X9747857Y-15157000D01*
X9766905Y-15147476D01*
X9957381Y-15147476D02*
X9976429Y-15147476D01*
X9995476Y-15157000D01*
X10005000Y-15166524D01*
X10014524Y-15185571D01*
X10024048Y-15223667D01*
X10024048Y-15271286D01*
X10014524Y-15309381D01*
X10005000Y-15328428D01*
X9995476Y-15337952D01*
X9976429Y-15347476D01*
X9957381Y-15347476D01*
X9938333Y-15337952D01*
X9928810Y-15328428D01*
X9919286Y-15309381D01*
X9909762Y-15271286D01*
X9909762Y-15223667D01*
X9919286Y-15185571D01*
X9928810Y-15166524D01*
X9938333Y-15157000D01*
X9957381Y-15147476D01*
X10109762Y-15347476D02*
X10109762Y-15214143D01*
X10109762Y-15233190D02*
X10119286Y-15223667D01*
X10138333Y-15214143D01*
X10166905Y-15214143D01*
X10185952Y-15223667D01*
X10195476Y-15242714D01*
X10195476Y-15347476D01*
X10195476Y-15242714D02*
X10205000Y-15223667D01*
X10224048Y-15214143D01*
X10252619Y-15214143D01*
X10271667Y-15223667D01*
X10281190Y-15242714D01*
X10281190Y-15347476D01*
X10376429Y-15347476D02*
X10376429Y-15214143D01*
X10376429Y-15233190D02*
X10385952Y-15223667D01*
X10405000Y-15214143D01*
X10433571Y-15214143D01*
X10452619Y-15223667D01*
X10462143Y-15242714D01*
X10462143Y-15347476D01*
X10462143Y-15242714D02*
X10471667Y-15223667D01*
X10490714Y-15214143D01*
X10519286Y-15214143D01*
X10538333Y-15223667D01*
X10547857Y-15242714D01*
X10547857Y-15347476D01*
X10938333Y-15137952D02*
X10766905Y-15395095D01*
X11195476Y-15147476D02*
X11214524Y-15147476D01*
X11233571Y-15157000D01*
X11243095Y-15166524D01*
X11252619Y-15185571D01*
X11262143Y-15223667D01*
X11262143Y-15271286D01*
X11252619Y-15309381D01*
X11243095Y-15328428D01*
X11233571Y-15337952D01*
X11214524Y-15347476D01*
X11195476Y-15347476D01*
X11176429Y-15337952D01*
X11166905Y-15328428D01*
X11157381Y-15309381D01*
X11147857Y-15271286D01*
X11147857Y-15223667D01*
X11157381Y-15185571D01*
X11166905Y-15166524D01*
X11176429Y-15157000D01*
X11195476Y-15147476D01*
X11347857Y-15328428D02*
X11357381Y-15337952D01*
X11347857Y-15347476D01*
X11338333Y-15337952D01*
X11347857Y-15328428D01*
X11347857Y-15347476D01*
X11547857Y-15347476D02*
X11433571Y-15347476D01*
X11490714Y-15347476D02*
X11490714Y-15147476D01*
X11471667Y-15176048D01*
X11452619Y-15195095D01*
X11433571Y-15204619D01*
X11624048Y-15166524D02*
X11633571Y-15157000D01*
X11652619Y-15147476D01*
X11700238Y-15147476D01*
X11719286Y-15157000D01*
X11728809Y-15166524D01*
X11738333Y-15185571D01*
X11738333Y-15204619D01*
X11728809Y-15233190D01*
X11614524Y-15347476D01*
X11738333Y-15347476D01*
X11909762Y-15147476D02*
X11871667Y-15147476D01*
X11852619Y-15157000D01*
X11843095Y-15166524D01*
X11824048Y-15195095D01*
X11814524Y-15233190D01*
X11814524Y-15309381D01*
X11824048Y-15328428D01*
X11833571Y-15337952D01*
X11852619Y-15347476D01*
X11890714Y-15347476D01*
X11909762Y-15337952D01*
X11919286Y-15328428D01*
X11928809Y-15309381D01*
X11928809Y-15261762D01*
X11919286Y-15242714D01*
X11909762Y-15233190D01*
X11890714Y-15223667D01*
X11852619Y-15223667D01*
X11833571Y-15233190D01*
X11824048Y-15242714D01*
X11814524Y-15261762D01*
X12052619Y-15147476D02*
X12071667Y-15147476D01*
X12090714Y-15157000D01*
X12100238Y-15166524D01*
X12109762Y-15185571D01*
X12119286Y-15223667D01*
X12119286Y-15271286D01*
X12109762Y-15309381D01*
X12100238Y-15328428D01*
X12090714Y-15337952D01*
X12071667Y-15347476D01*
X12052619Y-15347476D01*
X12033571Y-15337952D01*
X12024048Y-15328428D01*
X12014524Y-15309381D01*
X12005000Y-15271286D01*
X12005000Y-15223667D01*
X12014524Y-15185571D01*
X12024048Y-15166524D01*
X12033571Y-15157000D01*
X12052619Y-15147476D01*
X12195476Y-15147476D02*
X12195476Y-15185571D01*
X12271667Y-15147476D02*
X12271667Y-15185571D01*
X12566905Y-15423667D02*
X12557381Y-15414143D01*
X12538333Y-15385571D01*
X12528809Y-15366524D01*
X12519286Y-15337952D01*
X12509762Y-15290333D01*
X12509762Y-15252238D01*
X12519286Y-15204619D01*
X12528809Y-15176048D01*
X12538333Y-15157000D01*
X12557381Y-15128428D01*
X12566905Y-15118905D01*
X12728809Y-15147476D02*
X12690714Y-15147476D01*
X12671667Y-15157000D01*
X12662143Y-15166524D01*
X12643095Y-15195095D01*
X12633571Y-15233190D01*
X12633571Y-15309381D01*
X12643095Y-15328428D01*
X12652619Y-15337952D01*
X12671667Y-15347476D01*
X12709762Y-15347476D01*
X12728809Y-15337952D01*
X12738333Y-15328428D01*
X12747857Y-15309381D01*
X12747857Y-15261762D01*
X12738333Y-15242714D01*
X12728809Y-15233190D01*
X12709762Y-15223667D01*
X12671667Y-15223667D01*
X12652619Y-15233190D01*
X12643095Y-15242714D01*
X12633571Y-15261762D01*
X12985952Y-15347476D02*
X12985952Y-15147476D01*
X13071667Y-15347476D02*
X13071667Y-15242714D01*
X13062143Y-15223667D01*
X13043095Y-15214143D01*
X13014524Y-15214143D01*
X12995476Y-15223667D01*
X12985952Y-15233190D01*
X13195476Y-15347476D02*
X13176428Y-15337952D01*
X13166905Y-15328428D01*
X13157381Y-15309381D01*
X13157381Y-15252238D01*
X13166905Y-15233190D01*
X13176428Y-15223667D01*
X13195476Y-15214143D01*
X13224048Y-15214143D01*
X13243095Y-15223667D01*
X13252619Y-15233190D01*
X13262143Y-15252238D01*
X13262143Y-15309381D01*
X13252619Y-15328428D01*
X13243095Y-15337952D01*
X13224048Y-15347476D01*
X13195476Y-15347476D01*
X13376428Y-15347476D02*
X13357381Y-15337952D01*
X13347857Y-15318905D01*
X13347857Y-15147476D01*
X13528809Y-15337952D02*
X13509762Y-15347476D01*
X13471667Y-15347476D01*
X13452619Y-15337952D01*
X13443095Y-15318905D01*
X13443095Y-15242714D01*
X13452619Y-15223667D01*
X13471667Y-15214143D01*
X13509762Y-15214143D01*
X13528809Y-15223667D01*
X13538333Y-15242714D01*
X13538333Y-15261762D01*
X13443095Y-15280809D01*
X13614524Y-15337952D02*
X13633571Y-15347476D01*
X13671667Y-15347476D01*
X13690714Y-15337952D01*
X13700238Y-15318905D01*
X13700238Y-15309381D01*
X13690714Y-15290333D01*
X13671667Y-15280809D01*
X13643095Y-15280809D01*
X13624048Y-15271286D01*
X13614524Y-15252238D01*
X13614524Y-15242714D01*
X13624048Y-15223667D01*
X13643095Y-15214143D01*
X13671667Y-15214143D01*
X13690714Y-15223667D01*
X13766905Y-15423667D02*
X13776428Y-15414143D01*
X13795476Y-15385571D01*
X13805000Y-15366524D01*
X13814524Y-15337952D01*
X13824048Y-15290333D01*
X13824048Y-15252238D01*
X13814524Y-15204619D01*
X13805000Y-15176048D01*
X13795476Y-15157000D01*
X13776428Y-15128428D01*
X13766905Y-15118905D01*
M02*
