%TF.GenerationSoftware,KiCad,Pcbnew,9.0.3*%
%TF.CreationDate,2026-01-09T18:51:28-08:00*%
%TF.ProjectId,telemetry-pcb,74656c65-6d65-4747-9279-2d7063622e6b,rev?*%
%TF.SameCoordinates,Original*%
%TF.FileFunction,Legend,Bot*%
%TF.FilePolarity,Positive*%
%FSLAX46Y46*%
G04 Gerber Fmt 4.6, Leading zero omitted, Abs format (unit mm)*
G04 Created by KiCad (PCBNEW 9.0.3) date 2026-01-09 18:51:28*
%MOMM*%
%LPD*%
G01*
G04 APERTURE LIST*
G04 Aperture macros list*
%AMRoundRect*
0 Rectangle with rounded corners*
0 $1 Rounding radius*
0 $2 $3 $4 $5 $6 $7 $8 $9 X,Y pos of 4 corners*
0 Add a 4 corners polygon primitive as box body*
4,1,4,$2,$3,$4,$5,$6,$7,$8,$9,$2,$3,0*
0 Add four circle primitives for the rounded corners*
1,1,$1+$1,$2,$3*
1,1,$1+$1,$4,$5*
1,1,$1+$1,$6,$7*
1,1,$1+$1,$8,$9*
0 Add four rect primitives between the rounded corners*
20,1,$1+$1,$2,$3,$4,$5,0*
20,1,$1+$1,$4,$5,$6,$7,0*
20,1,$1+$1,$6,$7,$8,$9,0*
20,1,$1+$1,$8,$9,$2,$3,0*%
G04 Aperture macros list end*
%ADD10C,0.120000*%
%ADD11C,0.150000*%
%ADD12C,0.100000*%
%ADD13C,0.000000*%
%ADD14C,0.508000*%
%ADD15C,0.127000*%
%ADD16R,0.304800X0.533400*%
%ADD17R,0.431800X0.304800*%
%ADD18C,1.574800*%
%ADD19C,2.362200*%
%ADD20C,1.400000*%
%ADD21C,4.000000*%
%ADD22RoundRect,0.249999X0.450001X-0.262501X0.450001X0.262501X-0.450001X0.262501X-0.450001X-0.262501X0*%
%ADD23C,2.000000*%
%ADD24R,1.700000X1.700000*%
%ADD25O,1.700000X1.700000*%
%ADD26C,3.556000*%
%ADD27C,1.524000*%
%ADD28C,3.400000*%
%ADD29R,1.690000X1.690000*%
%ADD30C,1.690000*%
%ADD31C,3.300000*%
%ADD32RoundRect,0.101600X-0.939800X0.939800X-0.939800X-0.939800X0.939800X-0.939800X0.939800X0.939800X0*%
%ADD33C,2.082800*%
%ADD34R,1.600000X1.600000*%
%ADD35C,1.600000*%
%ADD36RoundRect,0.102000X-0.765000X-0.765000X0.765000X-0.765000X0.765000X0.765000X-0.765000X0.765000X0*%
%ADD37C,1.734000*%
%ADD38RoundRect,0.250000X0.475000X-0.250000X0.475000X0.250000X-0.475000X0.250000X-0.475000X-0.250000X0*%
%ADD39RoundRect,0.250000X-0.475000X0.250000X-0.475000X-0.250000X0.475000X-0.250000X0.475000X0.250000X0*%
%ADD40RoundRect,0.250000X0.250000X0.475000X-0.250000X0.475000X-0.250000X-0.475000X0.250000X-0.475000X0*%
%ADD41RoundRect,0.250000X-0.250000X-0.475000X0.250000X-0.475000X0.250000X0.475000X-0.250000X0.475000X0*%
%ADD42RoundRect,0.249999X0.325001X0.650001X-0.325001X0.650001X-0.325001X-0.650001X0.325001X-0.650001X0*%
%ADD43RoundRect,0.100000X-0.637500X-0.100000X0.637500X-0.100000X0.637500X0.100000X-0.637500X0.100000X0*%
%ADD44RoundRect,0.150000X-0.825000X-0.150000X0.825000X-0.150000X0.825000X0.150000X-0.825000X0.150000X0*%
%ADD45R,2.290000X3.000000*%
%ADD46RoundRect,0.150000X-0.875000X-0.150000X0.875000X-0.150000X0.875000X0.150000X-0.875000X0.150000X0*%
%ADD47RoundRect,0.249999X0.262501X0.450001X-0.262501X0.450001X-0.262501X-0.450001X0.262501X-0.450001X0*%
%ADD48RoundRect,0.249999X-0.450001X0.262501X-0.450001X-0.262501X0.450001X-0.262501X0.450001X0.262501X0*%
%ADD49RoundRect,0.250000X0.450000X-0.262500X0.450000X0.262500X-0.450000X0.262500X-0.450000X-0.262500X0*%
%ADD50RoundRect,0.102000X-0.550000X-0.950000X0.550000X-0.950000X0.550000X0.950000X-0.550000X0.950000X0*%
%ADD51RoundRect,0.250000X0.262500X0.450000X-0.262500X0.450000X-0.262500X-0.450000X0.262500X-0.450000X0*%
%ADD52RoundRect,0.250000X0.412500X0.650000X-0.412500X0.650000X-0.412500X-0.650000X0.412500X-0.650000X0*%
%ADD53RoundRect,0.250000X-0.450000X0.262500X-0.450000X-0.262500X0.450000X-0.262500X0.450000X0.262500X0*%
G04 APERTURE END LIST*
D10*
X103835200Y-60134000D02*
X104089200Y-59880000D01*
X102311200Y-61658000D02*
X102057200Y-61912000D01*
X102311200Y-62166000D02*
X102057200Y-61912000D01*
X104089200Y-59880000D02*
X104343200Y-60134000D01*
X104089200Y-61912000D02*
X104089200Y-59880000D01*
X104089200Y-61912000D02*
X102057200Y-61912000D01*
D11*
X102293704Y-59058552D02*
X101769895Y-59058552D01*
X101769895Y-59058552D02*
X102293704Y-59725219D01*
X102293704Y-59725219D02*
X101769895Y-59725219D01*
D12*
X101238666Y-59957300D02*
X101271999Y-59923966D01*
X101271999Y-59923966D02*
X101338666Y-59823966D01*
X101338666Y-59823966D02*
X101371999Y-59757300D01*
X101371999Y-59757300D02*
X101405333Y-59657300D01*
X101405333Y-59657300D02*
X101438666Y-59490633D01*
X101438666Y-59490633D02*
X101438666Y-59357300D01*
X101438666Y-59357300D02*
X101405333Y-59190633D01*
X101405333Y-59190633D02*
X101371999Y-59090633D01*
X101371999Y-59090633D02*
X101338666Y-59023966D01*
X101338666Y-59023966D02*
X101271999Y-58923966D01*
X101271999Y-58923966D02*
X101238666Y-58890633D01*
X100671999Y-59690633D02*
X100671999Y-58990633D01*
X100671999Y-59657300D02*
X100738666Y-59690633D01*
X100738666Y-59690633D02*
X100871999Y-59690633D01*
X100871999Y-59690633D02*
X100938666Y-59657300D01*
X100938666Y-59657300D02*
X100971999Y-59623966D01*
X100971999Y-59623966D02*
X101005332Y-59557300D01*
X101005332Y-59557300D02*
X101005332Y-59357300D01*
X101005332Y-59357300D02*
X100971999Y-59290633D01*
X100971999Y-59290633D02*
X100938666Y-59257300D01*
X100938666Y-59257300D02*
X100871999Y-59223966D01*
X100871999Y-59223966D02*
X100738666Y-59223966D01*
X100738666Y-59223966D02*
X100671999Y-59257300D01*
X100238666Y-59690633D02*
X100305333Y-59657300D01*
X100305333Y-59657300D02*
X100338666Y-59623966D01*
X100338666Y-59623966D02*
X100371999Y-59557300D01*
X100371999Y-59557300D02*
X100371999Y-59357300D01*
X100371999Y-59357300D02*
X100338666Y-59290633D01*
X100338666Y-59290633D02*
X100305333Y-59257300D01*
X100305333Y-59257300D02*
X100238666Y-59223966D01*
X100238666Y-59223966D02*
X100138666Y-59223966D01*
X100138666Y-59223966D02*
X100071999Y-59257300D01*
X100071999Y-59257300D02*
X100038666Y-59290633D01*
X100038666Y-59290633D02*
X100005333Y-59357300D01*
X100005333Y-59357300D02*
X100005333Y-59557300D01*
X100005333Y-59557300D02*
X100038666Y-59623966D01*
X100038666Y-59623966D02*
X100071999Y-59657300D01*
X100071999Y-59657300D02*
X100138666Y-59690633D01*
X100138666Y-59690633D02*
X100238666Y-59690633D01*
X99772000Y-59223966D02*
X99638666Y-59690633D01*
X99638666Y-59690633D02*
X99505333Y-59357300D01*
X99505333Y-59357300D02*
X99372000Y-59690633D01*
X99372000Y-59690633D02*
X99238666Y-59223966D01*
X98972000Y-59223966D02*
X98972000Y-59690633D01*
X98972000Y-59290633D02*
X98938667Y-59257300D01*
X98938667Y-59257300D02*
X98872000Y-59223966D01*
X98872000Y-59223966D02*
X98772000Y-59223966D01*
X98772000Y-59223966D02*
X98705333Y-59257300D01*
X98705333Y-59257300D02*
X98672000Y-59323966D01*
X98672000Y-59323966D02*
X98672000Y-59690633D01*
X98405334Y-59957300D02*
X98372000Y-59923966D01*
X98372000Y-59923966D02*
X98305334Y-59823966D01*
X98305334Y-59823966D02*
X98272000Y-59757300D01*
X98272000Y-59757300D02*
X98238667Y-59657300D01*
X98238667Y-59657300D02*
X98205334Y-59490633D01*
X98205334Y-59490633D02*
X98205334Y-59357300D01*
X98205334Y-59357300D02*
X98238667Y-59190633D01*
X98238667Y-59190633D02*
X98272000Y-59090633D01*
X98272000Y-59090633D02*
X98305334Y-59023966D01*
X98305334Y-59023966D02*
X98372000Y-58923966D01*
X98372000Y-58923966D02*
X98405334Y-58890633D01*
D11*
X104351104Y-59725219D02*
X103827295Y-59058552D01*
X104351104Y-59058552D02*
X103827295Y-59725219D01*
X101836194Y-61408052D02*
X101598099Y-62074719D01*
X101360004Y-61408052D02*
X101598099Y-62074719D01*
X101598099Y-62074719D02*
X101693337Y-62312814D01*
X101693337Y-62312814D02*
X101740956Y-62360433D01*
X101740956Y-62360433D02*
X101836194Y-62408052D01*
X138150504Y-116738819D02*
X138150504Y-117548342D01*
X138150504Y-117548342D02*
X138102885Y-117643580D01*
X138102885Y-117643580D02*
X138055266Y-117691200D01*
X138055266Y-117691200D02*
X137960028Y-117738819D01*
X137960028Y-117738819D02*
X137769552Y-117738819D01*
X137769552Y-117738819D02*
X137674314Y-117691200D01*
X137674314Y-117691200D02*
X137626695Y-117643580D01*
X137626695Y-117643580D02*
X137579076Y-117548342D01*
X137579076Y-117548342D02*
X137579076Y-116738819D01*
X136579076Y-117738819D02*
X137150504Y-117738819D01*
X136864790Y-117738819D02*
X136864790Y-116738819D01*
X136864790Y-116738819D02*
X136960028Y-116881676D01*
X136960028Y-116881676D02*
X137055266Y-116976914D01*
X137055266Y-116976914D02*
X137150504Y-117024533D01*
X139638600Y-114300419D02*
X139638600Y-114538514D01*
X139876695Y-114443276D02*
X139638600Y-114538514D01*
X139638600Y-114538514D02*
X139400505Y-114443276D01*
X139781457Y-114728990D02*
X139638600Y-114538514D01*
X139638600Y-114538514D02*
X139495743Y-114728990D01*
X139638600Y-114300419D02*
X139638600Y-114538514D01*
X139876695Y-114443276D02*
X139638600Y-114538514D01*
X139638600Y-114538514D02*
X139400505Y-114443276D01*
X139781457Y-114728990D02*
X139638600Y-114538514D01*
X139638600Y-114538514D02*
X139495743Y-114728990D01*
X189593219Y-82351333D02*
X189117028Y-82018000D01*
X189593219Y-81779905D02*
X188593219Y-81779905D01*
X188593219Y-81779905D02*
X188593219Y-82160857D01*
X188593219Y-82160857D02*
X188640838Y-82256095D01*
X188640838Y-82256095D02*
X188688457Y-82303714D01*
X188688457Y-82303714D02*
X188783695Y-82351333D01*
X188783695Y-82351333D02*
X188926552Y-82351333D01*
X188926552Y-82351333D02*
X189021790Y-82303714D01*
X189021790Y-82303714D02*
X189069409Y-82256095D01*
X189069409Y-82256095D02*
X189117028Y-82160857D01*
X189117028Y-82160857D02*
X189117028Y-81779905D01*
X188593219Y-82684667D02*
X188593219Y-83351333D01*
X188593219Y-83351333D02*
X189593219Y-82922762D01*
X163024780Y-89812333D02*
X163072400Y-89764714D01*
X163072400Y-89764714D02*
X163120019Y-89621857D01*
X163120019Y-89621857D02*
X163120019Y-89526619D01*
X163120019Y-89526619D02*
X163072400Y-89383762D01*
X163072400Y-89383762D02*
X162977161Y-89288524D01*
X162977161Y-89288524D02*
X162881923Y-89240905D01*
X162881923Y-89240905D02*
X162691447Y-89193286D01*
X162691447Y-89193286D02*
X162548590Y-89193286D01*
X162548590Y-89193286D02*
X162358114Y-89240905D01*
X162358114Y-89240905D02*
X162262876Y-89288524D01*
X162262876Y-89288524D02*
X162167638Y-89383762D01*
X162167638Y-89383762D02*
X162120019Y-89526619D01*
X162120019Y-89526619D02*
X162120019Y-89621857D01*
X162120019Y-89621857D02*
X162167638Y-89764714D01*
X162167638Y-89764714D02*
X162215257Y-89812333D01*
X162215257Y-90193286D02*
X162167638Y-90240905D01*
X162167638Y-90240905D02*
X162120019Y-90336143D01*
X162120019Y-90336143D02*
X162120019Y-90574238D01*
X162120019Y-90574238D02*
X162167638Y-90669476D01*
X162167638Y-90669476D02*
X162215257Y-90717095D01*
X162215257Y-90717095D02*
X162310495Y-90764714D01*
X162310495Y-90764714D02*
X162405733Y-90764714D01*
X162405733Y-90764714D02*
X162548590Y-90717095D01*
X162548590Y-90717095D02*
X163120019Y-90145667D01*
X163120019Y-90145667D02*
X163120019Y-90764714D01*
X159649580Y-86015333D02*
X159697200Y-85967714D01*
X159697200Y-85967714D02*
X159744819Y-85824857D01*
X159744819Y-85824857D02*
X159744819Y-85729619D01*
X159744819Y-85729619D02*
X159697200Y-85586762D01*
X159697200Y-85586762D02*
X159601961Y-85491524D01*
X159601961Y-85491524D02*
X159506723Y-85443905D01*
X159506723Y-85443905D02*
X159316247Y-85396286D01*
X159316247Y-85396286D02*
X159173390Y-85396286D01*
X159173390Y-85396286D02*
X158982914Y-85443905D01*
X158982914Y-85443905D02*
X158887676Y-85491524D01*
X158887676Y-85491524D02*
X158792438Y-85586762D01*
X158792438Y-85586762D02*
X158744819Y-85729619D01*
X158744819Y-85729619D02*
X158744819Y-85824857D01*
X158744819Y-85824857D02*
X158792438Y-85967714D01*
X158792438Y-85967714D02*
X158840057Y-86015333D01*
X158744819Y-86348667D02*
X158744819Y-86967714D01*
X158744819Y-86967714D02*
X159125771Y-86634381D01*
X159125771Y-86634381D02*
X159125771Y-86777238D01*
X159125771Y-86777238D02*
X159173390Y-86872476D01*
X159173390Y-86872476D02*
X159221009Y-86920095D01*
X159221009Y-86920095D02*
X159316247Y-86967714D01*
X159316247Y-86967714D02*
X159554342Y-86967714D01*
X159554342Y-86967714D02*
X159649580Y-86920095D01*
X159649580Y-86920095D02*
X159697200Y-86872476D01*
X159697200Y-86872476D02*
X159744819Y-86777238D01*
X159744819Y-86777238D02*
X159744819Y-86491524D01*
X159744819Y-86491524D02*
X159697200Y-86396286D01*
X159697200Y-86396286D02*
X159649580Y-86348667D01*
X165266666Y-81314080D02*
X165314285Y-81361700D01*
X165314285Y-81361700D02*
X165457142Y-81409319D01*
X165457142Y-81409319D02*
X165552380Y-81409319D01*
X165552380Y-81409319D02*
X165695237Y-81361700D01*
X165695237Y-81361700D02*
X165790475Y-81266461D01*
X165790475Y-81266461D02*
X165838094Y-81171223D01*
X165838094Y-81171223D02*
X165885713Y-80980747D01*
X165885713Y-80980747D02*
X165885713Y-80837890D01*
X165885713Y-80837890D02*
X165838094Y-80647414D01*
X165838094Y-80647414D02*
X165790475Y-80552176D01*
X165790475Y-80552176D02*
X165695237Y-80456938D01*
X165695237Y-80456938D02*
X165552380Y-80409319D01*
X165552380Y-80409319D02*
X165457142Y-80409319D01*
X165457142Y-80409319D02*
X165314285Y-80456938D01*
X165314285Y-80456938D02*
X165266666Y-80504557D01*
X164409523Y-80742652D02*
X164409523Y-81409319D01*
X164647618Y-80361700D02*
X164885713Y-81075985D01*
X164885713Y-81075985D02*
X164266666Y-81075985D01*
X173866980Y-92250733D02*
X173914600Y-92203114D01*
X173914600Y-92203114D02*
X173962219Y-92060257D01*
X173962219Y-92060257D02*
X173962219Y-91965019D01*
X173962219Y-91965019D02*
X173914600Y-91822162D01*
X173914600Y-91822162D02*
X173819361Y-91726924D01*
X173819361Y-91726924D02*
X173724123Y-91679305D01*
X173724123Y-91679305D02*
X173533647Y-91631686D01*
X173533647Y-91631686D02*
X173390790Y-91631686D01*
X173390790Y-91631686D02*
X173200314Y-91679305D01*
X173200314Y-91679305D02*
X173105076Y-91726924D01*
X173105076Y-91726924D02*
X173009838Y-91822162D01*
X173009838Y-91822162D02*
X172962219Y-91965019D01*
X172962219Y-91965019D02*
X172962219Y-92060257D01*
X172962219Y-92060257D02*
X173009838Y-92203114D01*
X173009838Y-92203114D02*
X173057457Y-92250733D01*
X172962219Y-93155495D02*
X172962219Y-92679305D01*
X172962219Y-92679305D02*
X173438409Y-92631686D01*
X173438409Y-92631686D02*
X173390790Y-92679305D01*
X173390790Y-92679305D02*
X173343171Y-92774543D01*
X173343171Y-92774543D02*
X173343171Y-93012638D01*
X173343171Y-93012638D02*
X173390790Y-93107876D01*
X173390790Y-93107876D02*
X173438409Y-93155495D01*
X173438409Y-93155495D02*
X173533647Y-93203114D01*
X173533647Y-93203114D02*
X173771742Y-93203114D01*
X173771742Y-93203114D02*
X173866980Y-93155495D01*
X173866980Y-93155495D02*
X173914600Y-93107876D01*
X173914600Y-93107876D02*
X173962219Y-93012638D01*
X173962219Y-93012638D02*
X173962219Y-92774543D01*
X173962219Y-92774543D02*
X173914600Y-92679305D01*
X173914600Y-92679305D02*
X173866980Y-92631686D01*
X165088866Y-92700780D02*
X165136485Y-92748400D01*
X165136485Y-92748400D02*
X165279342Y-92796019D01*
X165279342Y-92796019D02*
X165374580Y-92796019D01*
X165374580Y-92796019D02*
X165517437Y-92748400D01*
X165517437Y-92748400D02*
X165612675Y-92653161D01*
X165612675Y-92653161D02*
X165660294Y-92557923D01*
X165660294Y-92557923D02*
X165707913Y-92367447D01*
X165707913Y-92367447D02*
X165707913Y-92224590D01*
X165707913Y-92224590D02*
X165660294Y-92034114D01*
X165660294Y-92034114D02*
X165612675Y-91938876D01*
X165612675Y-91938876D02*
X165517437Y-91843638D01*
X165517437Y-91843638D02*
X165374580Y-91796019D01*
X165374580Y-91796019D02*
X165279342Y-91796019D01*
X165279342Y-91796019D02*
X165136485Y-91843638D01*
X165136485Y-91843638D02*
X165088866Y-91891257D01*
X164231723Y-91796019D02*
X164422199Y-91796019D01*
X164422199Y-91796019D02*
X164517437Y-91843638D01*
X164517437Y-91843638D02*
X164565056Y-91891257D01*
X164565056Y-91891257D02*
X164660294Y-92034114D01*
X164660294Y-92034114D02*
X164707913Y-92224590D01*
X164707913Y-92224590D02*
X164707913Y-92605542D01*
X164707913Y-92605542D02*
X164660294Y-92700780D01*
X164660294Y-92700780D02*
X164612675Y-92748400D01*
X164612675Y-92748400D02*
X164517437Y-92796019D01*
X164517437Y-92796019D02*
X164326961Y-92796019D01*
X164326961Y-92796019D02*
X164231723Y-92748400D01*
X164231723Y-92748400D02*
X164184104Y-92700780D01*
X164184104Y-92700780D02*
X164136485Y-92605542D01*
X164136485Y-92605542D02*
X164136485Y-92367447D01*
X164136485Y-92367447D02*
X164184104Y-92272209D01*
X164184104Y-92272209D02*
X164231723Y-92224590D01*
X164231723Y-92224590D02*
X164326961Y-92176971D01*
X164326961Y-92176971D02*
X164517437Y-92176971D01*
X164517437Y-92176971D02*
X164612675Y-92224590D01*
X164612675Y-92224590D02*
X164660294Y-92272209D01*
X164660294Y-92272209D02*
X164707913Y-92367447D01*
X96531580Y-95740533D02*
X96579200Y-95692914D01*
X96579200Y-95692914D02*
X96626819Y-95550057D01*
X96626819Y-95550057D02*
X96626819Y-95454819D01*
X96626819Y-95454819D02*
X96579200Y-95311962D01*
X96579200Y-95311962D02*
X96483961Y-95216724D01*
X96483961Y-95216724D02*
X96388723Y-95169105D01*
X96388723Y-95169105D02*
X96198247Y-95121486D01*
X96198247Y-95121486D02*
X96055390Y-95121486D01*
X96055390Y-95121486D02*
X95864914Y-95169105D01*
X95864914Y-95169105D02*
X95769676Y-95216724D01*
X95769676Y-95216724D02*
X95674438Y-95311962D01*
X95674438Y-95311962D02*
X95626819Y-95454819D01*
X95626819Y-95454819D02*
X95626819Y-95550057D01*
X95626819Y-95550057D02*
X95674438Y-95692914D01*
X95674438Y-95692914D02*
X95722057Y-95740533D01*
X95626819Y-96073867D02*
X95626819Y-96740533D01*
X95626819Y-96740533D02*
X96626819Y-96311962D01*
X96781580Y-85890533D02*
X96829200Y-85842914D01*
X96829200Y-85842914D02*
X96876819Y-85700057D01*
X96876819Y-85700057D02*
X96876819Y-85604819D01*
X96876819Y-85604819D02*
X96829200Y-85461962D01*
X96829200Y-85461962D02*
X96733961Y-85366724D01*
X96733961Y-85366724D02*
X96638723Y-85319105D01*
X96638723Y-85319105D02*
X96448247Y-85271486D01*
X96448247Y-85271486D02*
X96305390Y-85271486D01*
X96305390Y-85271486D02*
X96114914Y-85319105D01*
X96114914Y-85319105D02*
X96019676Y-85366724D01*
X96019676Y-85366724D02*
X95924438Y-85461962D01*
X95924438Y-85461962D02*
X95876819Y-85604819D01*
X95876819Y-85604819D02*
X95876819Y-85700057D01*
X95876819Y-85700057D02*
X95924438Y-85842914D01*
X95924438Y-85842914D02*
X95972057Y-85890533D01*
X96305390Y-86461962D02*
X96257771Y-86366724D01*
X96257771Y-86366724D02*
X96210152Y-86319105D01*
X96210152Y-86319105D02*
X96114914Y-86271486D01*
X96114914Y-86271486D02*
X96067295Y-86271486D01*
X96067295Y-86271486D02*
X95972057Y-86319105D01*
X95972057Y-86319105D02*
X95924438Y-86366724D01*
X95924438Y-86366724D02*
X95876819Y-86461962D01*
X95876819Y-86461962D02*
X95876819Y-86652438D01*
X95876819Y-86652438D02*
X95924438Y-86747676D01*
X95924438Y-86747676D02*
X95972057Y-86795295D01*
X95972057Y-86795295D02*
X96067295Y-86842914D01*
X96067295Y-86842914D02*
X96114914Y-86842914D01*
X96114914Y-86842914D02*
X96210152Y-86795295D01*
X96210152Y-86795295D02*
X96257771Y-86747676D01*
X96257771Y-86747676D02*
X96305390Y-86652438D01*
X96305390Y-86652438D02*
X96305390Y-86461962D01*
X96305390Y-86461962D02*
X96353009Y-86366724D01*
X96353009Y-86366724D02*
X96400628Y-86319105D01*
X96400628Y-86319105D02*
X96495866Y-86271486D01*
X96495866Y-86271486D02*
X96686342Y-86271486D01*
X96686342Y-86271486D02*
X96781580Y-86319105D01*
X96781580Y-86319105D02*
X96829200Y-86366724D01*
X96829200Y-86366724D02*
X96876819Y-86461962D01*
X96876819Y-86461962D02*
X96876819Y-86652438D01*
X96876819Y-86652438D02*
X96829200Y-86747676D01*
X96829200Y-86747676D02*
X96781580Y-86795295D01*
X96781580Y-86795295D02*
X96686342Y-86842914D01*
X96686342Y-86842914D02*
X96495866Y-86842914D01*
X96495866Y-86842914D02*
X96400628Y-86795295D01*
X96400628Y-86795295D02*
X96353009Y-86747676D01*
X96353009Y-86747676D02*
X96305390Y-86652438D01*
X106048980Y-86332533D02*
X106096600Y-86284914D01*
X106096600Y-86284914D02*
X106144219Y-86142057D01*
X106144219Y-86142057D02*
X106144219Y-86046819D01*
X106144219Y-86046819D02*
X106096600Y-85903962D01*
X106096600Y-85903962D02*
X106001361Y-85808724D01*
X106001361Y-85808724D02*
X105906123Y-85761105D01*
X105906123Y-85761105D02*
X105715647Y-85713486D01*
X105715647Y-85713486D02*
X105572790Y-85713486D01*
X105572790Y-85713486D02*
X105382314Y-85761105D01*
X105382314Y-85761105D02*
X105287076Y-85808724D01*
X105287076Y-85808724D02*
X105191838Y-85903962D01*
X105191838Y-85903962D02*
X105144219Y-86046819D01*
X105144219Y-86046819D02*
X105144219Y-86142057D01*
X105144219Y-86142057D02*
X105191838Y-86284914D01*
X105191838Y-86284914D02*
X105239457Y-86332533D01*
X106144219Y-86808724D02*
X106144219Y-86999200D01*
X106144219Y-86999200D02*
X106096600Y-87094438D01*
X106096600Y-87094438D02*
X106048980Y-87142057D01*
X106048980Y-87142057D02*
X105906123Y-87237295D01*
X105906123Y-87237295D02*
X105715647Y-87284914D01*
X105715647Y-87284914D02*
X105334695Y-87284914D01*
X105334695Y-87284914D02*
X105239457Y-87237295D01*
X105239457Y-87237295D02*
X105191838Y-87189676D01*
X105191838Y-87189676D02*
X105144219Y-87094438D01*
X105144219Y-87094438D02*
X105144219Y-86903962D01*
X105144219Y-86903962D02*
X105191838Y-86808724D01*
X105191838Y-86808724D02*
X105239457Y-86761105D01*
X105239457Y-86761105D02*
X105334695Y-86713486D01*
X105334695Y-86713486D02*
X105572790Y-86713486D01*
X105572790Y-86713486D02*
X105668028Y-86761105D01*
X105668028Y-86761105D02*
X105715647Y-86808724D01*
X105715647Y-86808724D02*
X105763266Y-86903962D01*
X105763266Y-86903962D02*
X105763266Y-87094438D01*
X105763266Y-87094438D02*
X105715647Y-87189676D01*
X105715647Y-87189676D02*
X105668028Y-87237295D01*
X105668028Y-87237295D02*
X105572790Y-87284914D01*
X107471380Y-73740542D02*
X107519000Y-73692923D01*
X107519000Y-73692923D02*
X107566619Y-73550066D01*
X107566619Y-73550066D02*
X107566619Y-73454828D01*
X107566619Y-73454828D02*
X107519000Y-73311971D01*
X107519000Y-73311971D02*
X107423761Y-73216733D01*
X107423761Y-73216733D02*
X107328523Y-73169114D01*
X107328523Y-73169114D02*
X107138047Y-73121495D01*
X107138047Y-73121495D02*
X106995190Y-73121495D01*
X106995190Y-73121495D02*
X106804714Y-73169114D01*
X106804714Y-73169114D02*
X106709476Y-73216733D01*
X106709476Y-73216733D02*
X106614238Y-73311971D01*
X106614238Y-73311971D02*
X106566619Y-73454828D01*
X106566619Y-73454828D02*
X106566619Y-73550066D01*
X106566619Y-73550066D02*
X106614238Y-73692923D01*
X106614238Y-73692923D02*
X106661857Y-73740542D01*
X107566619Y-74692923D02*
X107566619Y-74121495D01*
X107566619Y-74407209D02*
X106566619Y-74407209D01*
X106566619Y-74407209D02*
X106709476Y-74311971D01*
X106709476Y-74311971D02*
X106804714Y-74216733D01*
X106804714Y-74216733D02*
X106852333Y-74121495D01*
X106566619Y-75311971D02*
X106566619Y-75407209D01*
X106566619Y-75407209D02*
X106614238Y-75502447D01*
X106614238Y-75502447D02*
X106661857Y-75550066D01*
X106661857Y-75550066D02*
X106757095Y-75597685D01*
X106757095Y-75597685D02*
X106947571Y-75645304D01*
X106947571Y-75645304D02*
X107185666Y-75645304D01*
X107185666Y-75645304D02*
X107376142Y-75597685D01*
X107376142Y-75597685D02*
X107471380Y-75550066D01*
X107471380Y-75550066D02*
X107519000Y-75502447D01*
X107519000Y-75502447D02*
X107566619Y-75407209D01*
X107566619Y-75407209D02*
X107566619Y-75311971D01*
X107566619Y-75311971D02*
X107519000Y-75216733D01*
X107519000Y-75216733D02*
X107471380Y-75169114D01*
X107471380Y-75169114D02*
X107376142Y-75121495D01*
X107376142Y-75121495D02*
X107185666Y-75073876D01*
X107185666Y-75073876D02*
X106947571Y-75073876D01*
X106947571Y-75073876D02*
X106757095Y-75121495D01*
X106757095Y-75121495D02*
X106661857Y-75169114D01*
X106661857Y-75169114D02*
X106614238Y-75216733D01*
X106614238Y-75216733D02*
X106566619Y-75311971D01*
X147073857Y-94580380D02*
X147121476Y-94628000D01*
X147121476Y-94628000D02*
X147264333Y-94675619D01*
X147264333Y-94675619D02*
X147359571Y-94675619D01*
X147359571Y-94675619D02*
X147502428Y-94628000D01*
X147502428Y-94628000D02*
X147597666Y-94532761D01*
X147597666Y-94532761D02*
X147645285Y-94437523D01*
X147645285Y-94437523D02*
X147692904Y-94247047D01*
X147692904Y-94247047D02*
X147692904Y-94104190D01*
X147692904Y-94104190D02*
X147645285Y-93913714D01*
X147645285Y-93913714D02*
X147597666Y-93818476D01*
X147597666Y-93818476D02*
X147502428Y-93723238D01*
X147502428Y-93723238D02*
X147359571Y-93675619D01*
X147359571Y-93675619D02*
X147264333Y-93675619D01*
X147264333Y-93675619D02*
X147121476Y-93723238D01*
X147121476Y-93723238D02*
X147073857Y-93770857D01*
X146121476Y-94675619D02*
X146692904Y-94675619D01*
X146407190Y-94675619D02*
X146407190Y-93675619D01*
X146407190Y-93675619D02*
X146502428Y-93818476D01*
X146502428Y-93818476D02*
X146597666Y-93913714D01*
X146597666Y-93913714D02*
X146692904Y-93961333D01*
X145788142Y-93675619D02*
X145169095Y-93675619D01*
X145169095Y-93675619D02*
X145502428Y-94056571D01*
X145502428Y-94056571D02*
X145359571Y-94056571D01*
X145359571Y-94056571D02*
X145264333Y-94104190D01*
X145264333Y-94104190D02*
X145216714Y-94151809D01*
X145216714Y-94151809D02*
X145169095Y-94247047D01*
X145169095Y-94247047D02*
X145169095Y-94485142D01*
X145169095Y-94485142D02*
X145216714Y-94580380D01*
X145216714Y-94580380D02*
X145264333Y-94628000D01*
X145264333Y-94628000D02*
X145359571Y-94675619D01*
X145359571Y-94675619D02*
X145645285Y-94675619D01*
X145645285Y-94675619D02*
X145740523Y-94628000D01*
X145740523Y-94628000D02*
X145788142Y-94580380D01*
X142374857Y-98669780D02*
X142422476Y-98717400D01*
X142422476Y-98717400D02*
X142565333Y-98765019D01*
X142565333Y-98765019D02*
X142660571Y-98765019D01*
X142660571Y-98765019D02*
X142803428Y-98717400D01*
X142803428Y-98717400D02*
X142898666Y-98622161D01*
X142898666Y-98622161D02*
X142946285Y-98526923D01*
X142946285Y-98526923D02*
X142993904Y-98336447D01*
X142993904Y-98336447D02*
X142993904Y-98193590D01*
X142993904Y-98193590D02*
X142946285Y-98003114D01*
X142946285Y-98003114D02*
X142898666Y-97907876D01*
X142898666Y-97907876D02*
X142803428Y-97812638D01*
X142803428Y-97812638D02*
X142660571Y-97765019D01*
X142660571Y-97765019D02*
X142565333Y-97765019D01*
X142565333Y-97765019D02*
X142422476Y-97812638D01*
X142422476Y-97812638D02*
X142374857Y-97860257D01*
X141422476Y-98765019D02*
X141993904Y-98765019D01*
X141708190Y-98765019D02*
X141708190Y-97765019D01*
X141708190Y-97765019D02*
X141803428Y-97907876D01*
X141803428Y-97907876D02*
X141898666Y-98003114D01*
X141898666Y-98003114D02*
X141993904Y-98050733D01*
X140565333Y-98098352D02*
X140565333Y-98765019D01*
X140803428Y-97717400D02*
X141041523Y-98431685D01*
X141041523Y-98431685D02*
X140422476Y-98431685D01*
X165564780Y-96107742D02*
X165612400Y-96060123D01*
X165612400Y-96060123D02*
X165660019Y-95917266D01*
X165660019Y-95917266D02*
X165660019Y-95822028D01*
X165660019Y-95822028D02*
X165612400Y-95679171D01*
X165612400Y-95679171D02*
X165517161Y-95583933D01*
X165517161Y-95583933D02*
X165421923Y-95536314D01*
X165421923Y-95536314D02*
X165231447Y-95488695D01*
X165231447Y-95488695D02*
X165088590Y-95488695D01*
X165088590Y-95488695D02*
X164898114Y-95536314D01*
X164898114Y-95536314D02*
X164802876Y-95583933D01*
X164802876Y-95583933D02*
X164707638Y-95679171D01*
X164707638Y-95679171D02*
X164660019Y-95822028D01*
X164660019Y-95822028D02*
X164660019Y-95917266D01*
X164660019Y-95917266D02*
X164707638Y-96060123D01*
X164707638Y-96060123D02*
X164755257Y-96107742D01*
X165660019Y-97060123D02*
X165660019Y-96488695D01*
X165660019Y-96774409D02*
X164660019Y-96774409D01*
X164660019Y-96774409D02*
X164802876Y-96679171D01*
X164802876Y-96679171D02*
X164898114Y-96583933D01*
X164898114Y-96583933D02*
X164945733Y-96488695D01*
X164660019Y-97917266D02*
X164660019Y-97726790D01*
X164660019Y-97726790D02*
X164707638Y-97631552D01*
X164707638Y-97631552D02*
X164755257Y-97583933D01*
X164755257Y-97583933D02*
X164898114Y-97488695D01*
X164898114Y-97488695D02*
X165088590Y-97441076D01*
X165088590Y-97441076D02*
X165469542Y-97441076D01*
X165469542Y-97441076D02*
X165564780Y-97488695D01*
X165564780Y-97488695D02*
X165612400Y-97536314D01*
X165612400Y-97536314D02*
X165660019Y-97631552D01*
X165660019Y-97631552D02*
X165660019Y-97822028D01*
X165660019Y-97822028D02*
X165612400Y-97917266D01*
X165612400Y-97917266D02*
X165564780Y-97964885D01*
X165564780Y-97964885D02*
X165469542Y-98012504D01*
X165469542Y-98012504D02*
X165231447Y-98012504D01*
X165231447Y-98012504D02*
X165136209Y-97964885D01*
X165136209Y-97964885D02*
X165088590Y-97917266D01*
X165088590Y-97917266D02*
X165040971Y-97822028D01*
X165040971Y-97822028D02*
X165040971Y-97631552D01*
X165040971Y-97631552D02*
X165088590Y-97536314D01*
X165088590Y-97536314D02*
X165136209Y-97488695D01*
X165136209Y-97488695D02*
X165231447Y-97441076D01*
X169530589Y-91145019D02*
X169530589Y-90145019D01*
X168482971Y-91049780D02*
X168530590Y-91097400D01*
X168530590Y-91097400D02*
X168673447Y-91145019D01*
X168673447Y-91145019D02*
X168768685Y-91145019D01*
X168768685Y-91145019D02*
X168911542Y-91097400D01*
X168911542Y-91097400D02*
X169006780Y-91002161D01*
X169006780Y-91002161D02*
X169054399Y-90906923D01*
X169054399Y-90906923D02*
X169102018Y-90716447D01*
X169102018Y-90716447D02*
X169102018Y-90573590D01*
X169102018Y-90573590D02*
X169054399Y-90383114D01*
X169054399Y-90383114D02*
X169006780Y-90287876D01*
X169006780Y-90287876D02*
X168911542Y-90192638D01*
X168911542Y-90192638D02*
X168768685Y-90145019D01*
X168768685Y-90145019D02*
X168673447Y-90145019D01*
X168673447Y-90145019D02*
X168530590Y-90192638D01*
X168530590Y-90192638D02*
X168482971Y-90240257D01*
X167530590Y-91145019D02*
X168102018Y-91145019D01*
X167816304Y-91145019D02*
X167816304Y-90145019D01*
X167816304Y-90145019D02*
X167911542Y-90287876D01*
X167911542Y-90287876D02*
X168006780Y-90383114D01*
X168006780Y-90383114D02*
X168102018Y-90430733D01*
X112024989Y-96199619D02*
X112024989Y-95199619D01*
X110977371Y-96104380D02*
X111024990Y-96152000D01*
X111024990Y-96152000D02*
X111167847Y-96199619D01*
X111167847Y-96199619D02*
X111263085Y-96199619D01*
X111263085Y-96199619D02*
X111405942Y-96152000D01*
X111405942Y-96152000D02*
X111501180Y-96056761D01*
X111501180Y-96056761D02*
X111548799Y-95961523D01*
X111548799Y-95961523D02*
X111596418Y-95771047D01*
X111596418Y-95771047D02*
X111596418Y-95628190D01*
X111596418Y-95628190D02*
X111548799Y-95437714D01*
X111548799Y-95437714D02*
X111501180Y-95342476D01*
X111501180Y-95342476D02*
X111405942Y-95247238D01*
X111405942Y-95247238D02*
X111263085Y-95199619D01*
X111263085Y-95199619D02*
X111167847Y-95199619D01*
X111167847Y-95199619D02*
X111024990Y-95247238D01*
X111024990Y-95247238D02*
X110977371Y-95294857D01*
X110596418Y-95294857D02*
X110548799Y-95247238D01*
X110548799Y-95247238D02*
X110453561Y-95199619D01*
X110453561Y-95199619D02*
X110215466Y-95199619D01*
X110215466Y-95199619D02*
X110120228Y-95247238D01*
X110120228Y-95247238D02*
X110072609Y-95294857D01*
X110072609Y-95294857D02*
X110024990Y-95390095D01*
X110024990Y-95390095D02*
X110024990Y-95485333D01*
X110024990Y-95485333D02*
X110072609Y-95628190D01*
X110072609Y-95628190D02*
X110644037Y-96199619D01*
X110644037Y-96199619D02*
X110024990Y-96199619D01*
X113167989Y-84156419D02*
X113167989Y-83156419D01*
X112120371Y-84061180D02*
X112167990Y-84108800D01*
X112167990Y-84108800D02*
X112310847Y-84156419D01*
X112310847Y-84156419D02*
X112406085Y-84156419D01*
X112406085Y-84156419D02*
X112548942Y-84108800D01*
X112548942Y-84108800D02*
X112644180Y-84013561D01*
X112644180Y-84013561D02*
X112691799Y-83918323D01*
X112691799Y-83918323D02*
X112739418Y-83727847D01*
X112739418Y-83727847D02*
X112739418Y-83584990D01*
X112739418Y-83584990D02*
X112691799Y-83394514D01*
X112691799Y-83394514D02*
X112644180Y-83299276D01*
X112644180Y-83299276D02*
X112548942Y-83204038D01*
X112548942Y-83204038D02*
X112406085Y-83156419D01*
X112406085Y-83156419D02*
X112310847Y-83156419D01*
X112310847Y-83156419D02*
X112167990Y-83204038D01*
X112167990Y-83204038D02*
X112120371Y-83251657D01*
X111787037Y-83156419D02*
X111167990Y-83156419D01*
X111167990Y-83156419D02*
X111501323Y-83537371D01*
X111501323Y-83537371D02*
X111358466Y-83537371D01*
X111358466Y-83537371D02*
X111263228Y-83584990D01*
X111263228Y-83584990D02*
X111215609Y-83632609D01*
X111215609Y-83632609D02*
X111167990Y-83727847D01*
X111167990Y-83727847D02*
X111167990Y-83965942D01*
X111167990Y-83965942D02*
X111215609Y-84061180D01*
X111215609Y-84061180D02*
X111263228Y-84108800D01*
X111263228Y-84108800D02*
X111358466Y-84156419D01*
X111358466Y-84156419D02*
X111644180Y-84156419D01*
X111644180Y-84156419D02*
X111739418Y-84108800D01*
X111739418Y-84108800D02*
X111787037Y-84061180D01*
X135875589Y-93780319D02*
X135875589Y-92780319D01*
X134827971Y-93685080D02*
X134875590Y-93732700D01*
X134875590Y-93732700D02*
X135018447Y-93780319D01*
X135018447Y-93780319D02*
X135113685Y-93780319D01*
X135113685Y-93780319D02*
X135256542Y-93732700D01*
X135256542Y-93732700D02*
X135351780Y-93637461D01*
X135351780Y-93637461D02*
X135399399Y-93542223D01*
X135399399Y-93542223D02*
X135447018Y-93351747D01*
X135447018Y-93351747D02*
X135447018Y-93208890D01*
X135447018Y-93208890D02*
X135399399Y-93018414D01*
X135399399Y-93018414D02*
X135351780Y-92923176D01*
X135351780Y-92923176D02*
X135256542Y-92827938D01*
X135256542Y-92827938D02*
X135113685Y-92780319D01*
X135113685Y-92780319D02*
X135018447Y-92780319D01*
X135018447Y-92780319D02*
X134875590Y-92827938D01*
X134875590Y-92827938D02*
X134827971Y-92875557D01*
X133970828Y-93113652D02*
X133970828Y-93780319D01*
X134208923Y-92732700D02*
X134447018Y-93446985D01*
X134447018Y-93446985D02*
X133827971Y-93446985D01*
X171486389Y-100568419D02*
X171486389Y-99568419D01*
X170438771Y-100473180D02*
X170486390Y-100520800D01*
X170486390Y-100520800D02*
X170629247Y-100568419D01*
X170629247Y-100568419D02*
X170724485Y-100568419D01*
X170724485Y-100568419D02*
X170867342Y-100520800D01*
X170867342Y-100520800D02*
X170962580Y-100425561D01*
X170962580Y-100425561D02*
X171010199Y-100330323D01*
X171010199Y-100330323D02*
X171057818Y-100139847D01*
X171057818Y-100139847D02*
X171057818Y-99996990D01*
X171057818Y-99996990D02*
X171010199Y-99806514D01*
X171010199Y-99806514D02*
X170962580Y-99711276D01*
X170962580Y-99711276D02*
X170867342Y-99616038D01*
X170867342Y-99616038D02*
X170724485Y-99568419D01*
X170724485Y-99568419D02*
X170629247Y-99568419D01*
X170629247Y-99568419D02*
X170486390Y-99616038D01*
X170486390Y-99616038D02*
X170438771Y-99663657D01*
X169534009Y-99568419D02*
X170010199Y-99568419D01*
X170010199Y-99568419D02*
X170057818Y-100044609D01*
X170057818Y-100044609D02*
X170010199Y-99996990D01*
X170010199Y-99996990D02*
X169914961Y-99949371D01*
X169914961Y-99949371D02*
X169676866Y-99949371D01*
X169676866Y-99949371D02*
X169581628Y-99996990D01*
X169581628Y-99996990D02*
X169534009Y-100044609D01*
X169534009Y-100044609D02*
X169486390Y-100139847D01*
X169486390Y-100139847D02*
X169486390Y-100377942D01*
X169486390Y-100377942D02*
X169534009Y-100473180D01*
X169534009Y-100473180D02*
X169581628Y-100520800D01*
X169581628Y-100520800D02*
X169676866Y-100568419D01*
X169676866Y-100568419D02*
X169914961Y-100568419D01*
X169914961Y-100568419D02*
X170010199Y-100520800D01*
X170010199Y-100520800D02*
X170057818Y-100473180D01*
X139587266Y-77048019D02*
X139920599Y-76571828D01*
X140158694Y-77048019D02*
X140158694Y-76048019D01*
X140158694Y-76048019D02*
X139777742Y-76048019D01*
X139777742Y-76048019D02*
X139682504Y-76095638D01*
X139682504Y-76095638D02*
X139634885Y-76143257D01*
X139634885Y-76143257D02*
X139587266Y-76238495D01*
X139587266Y-76238495D02*
X139587266Y-76381352D01*
X139587266Y-76381352D02*
X139634885Y-76476590D01*
X139634885Y-76476590D02*
X139682504Y-76524209D01*
X139682504Y-76524209D02*
X139777742Y-76571828D01*
X139777742Y-76571828D02*
X140158694Y-76571828D01*
X139015837Y-76476590D02*
X139111075Y-76428971D01*
X139111075Y-76428971D02*
X139158694Y-76381352D01*
X139158694Y-76381352D02*
X139206313Y-76286114D01*
X139206313Y-76286114D02*
X139206313Y-76238495D01*
X139206313Y-76238495D02*
X139158694Y-76143257D01*
X139158694Y-76143257D02*
X139111075Y-76095638D01*
X139111075Y-76095638D02*
X139015837Y-76048019D01*
X139015837Y-76048019D02*
X138825361Y-76048019D01*
X138825361Y-76048019D02*
X138730123Y-76095638D01*
X138730123Y-76095638D02*
X138682504Y-76143257D01*
X138682504Y-76143257D02*
X138634885Y-76238495D01*
X138634885Y-76238495D02*
X138634885Y-76286114D01*
X138634885Y-76286114D02*
X138682504Y-76381352D01*
X138682504Y-76381352D02*
X138730123Y-76428971D01*
X138730123Y-76428971D02*
X138825361Y-76476590D01*
X138825361Y-76476590D02*
X139015837Y-76476590D01*
X139015837Y-76476590D02*
X139111075Y-76524209D01*
X139111075Y-76524209D02*
X139158694Y-76571828D01*
X139158694Y-76571828D02*
X139206313Y-76667066D01*
X139206313Y-76667066D02*
X139206313Y-76857542D01*
X139206313Y-76857542D02*
X139158694Y-76952780D01*
X139158694Y-76952780D02*
X139111075Y-77000400D01*
X139111075Y-77000400D02*
X139015837Y-77048019D01*
X139015837Y-77048019D02*
X138825361Y-77048019D01*
X138825361Y-77048019D02*
X138730123Y-77000400D01*
X138730123Y-77000400D02*
X138682504Y-76952780D01*
X138682504Y-76952780D02*
X138634885Y-76857542D01*
X138634885Y-76857542D02*
X138634885Y-76667066D01*
X138634885Y-76667066D02*
X138682504Y-76571828D01*
X138682504Y-76571828D02*
X138730123Y-76524209D01*
X138730123Y-76524209D02*
X138825361Y-76476590D01*
X176629219Y-88936933D02*
X176153028Y-88603600D01*
X176629219Y-88365505D02*
X175629219Y-88365505D01*
X175629219Y-88365505D02*
X175629219Y-88746457D01*
X175629219Y-88746457D02*
X175676838Y-88841695D01*
X175676838Y-88841695D02*
X175724457Y-88889314D01*
X175724457Y-88889314D02*
X175819695Y-88936933D01*
X175819695Y-88936933D02*
X175962552Y-88936933D01*
X175962552Y-88936933D02*
X176057790Y-88889314D01*
X176057790Y-88889314D02*
X176105409Y-88841695D01*
X176105409Y-88841695D02*
X176153028Y-88746457D01*
X176153028Y-88746457D02*
X176153028Y-88365505D01*
X176629219Y-89413124D02*
X176629219Y-89603600D01*
X176629219Y-89603600D02*
X176581600Y-89698838D01*
X176581600Y-89698838D02*
X176533980Y-89746457D01*
X176533980Y-89746457D02*
X176391123Y-89841695D01*
X176391123Y-89841695D02*
X176200647Y-89889314D01*
X176200647Y-89889314D02*
X175819695Y-89889314D01*
X175819695Y-89889314D02*
X175724457Y-89841695D01*
X175724457Y-89841695D02*
X175676838Y-89794076D01*
X175676838Y-89794076D02*
X175629219Y-89698838D01*
X175629219Y-89698838D02*
X175629219Y-89508362D01*
X175629219Y-89508362D02*
X175676838Y-89413124D01*
X175676838Y-89413124D02*
X175724457Y-89365505D01*
X175724457Y-89365505D02*
X175819695Y-89317886D01*
X175819695Y-89317886D02*
X176057790Y-89317886D01*
X176057790Y-89317886D02*
X176153028Y-89365505D01*
X176153028Y-89365505D02*
X176200647Y-89413124D01*
X176200647Y-89413124D02*
X176248266Y-89508362D01*
X176248266Y-89508362D02*
X176248266Y-89698838D01*
X176248266Y-89698838D02*
X176200647Y-89794076D01*
X176200647Y-89794076D02*
X176153028Y-89841695D01*
X176153028Y-89841695D02*
X176057790Y-89889314D01*
X147470019Y-117183242D02*
X146993828Y-116849909D01*
X147470019Y-116611814D02*
X146470019Y-116611814D01*
X146470019Y-116611814D02*
X146470019Y-116992766D01*
X146470019Y-116992766D02*
X146517638Y-117088004D01*
X146517638Y-117088004D02*
X146565257Y-117135623D01*
X146565257Y-117135623D02*
X146660495Y-117183242D01*
X146660495Y-117183242D02*
X146803352Y-117183242D01*
X146803352Y-117183242D02*
X146898590Y-117135623D01*
X146898590Y-117135623D02*
X146946209Y-117088004D01*
X146946209Y-117088004D02*
X146993828Y-116992766D01*
X146993828Y-116992766D02*
X146993828Y-116611814D01*
X147470019Y-118135623D02*
X147470019Y-117564195D01*
X147470019Y-117849909D02*
X146470019Y-117849909D01*
X146470019Y-117849909D02*
X146612876Y-117754671D01*
X146612876Y-117754671D02*
X146708114Y-117659433D01*
X146708114Y-117659433D02*
X146755733Y-117564195D01*
X146470019Y-118754671D02*
X146470019Y-118849909D01*
X146470019Y-118849909D02*
X146517638Y-118945147D01*
X146517638Y-118945147D02*
X146565257Y-118992766D01*
X146565257Y-118992766D02*
X146660495Y-119040385D01*
X146660495Y-119040385D02*
X146850971Y-119088004D01*
X146850971Y-119088004D02*
X147089066Y-119088004D01*
X147089066Y-119088004D02*
X147279542Y-119040385D01*
X147279542Y-119040385D02*
X147374780Y-118992766D01*
X147374780Y-118992766D02*
X147422400Y-118945147D01*
X147422400Y-118945147D02*
X147470019Y-118849909D01*
X147470019Y-118849909D02*
X147470019Y-118754671D01*
X147470019Y-118754671D02*
X147422400Y-118659433D01*
X147422400Y-118659433D02*
X147374780Y-118611814D01*
X147374780Y-118611814D02*
X147279542Y-118564195D01*
X147279542Y-118564195D02*
X147089066Y-118516576D01*
X147089066Y-118516576D02*
X146850971Y-118516576D01*
X146850971Y-118516576D02*
X146660495Y-118564195D01*
X146660495Y-118564195D02*
X146565257Y-118611814D01*
X146565257Y-118611814D02*
X146517638Y-118659433D01*
X146517638Y-118659433D02*
X146470019Y-118754671D01*
X135572580Y-107344742D02*
X135620200Y-107297123D01*
X135620200Y-107297123D02*
X135667819Y-107154266D01*
X135667819Y-107154266D02*
X135667819Y-107059028D01*
X135667819Y-107059028D02*
X135620200Y-106916171D01*
X135620200Y-106916171D02*
X135524961Y-106820933D01*
X135524961Y-106820933D02*
X135429723Y-106773314D01*
X135429723Y-106773314D02*
X135239247Y-106725695D01*
X135239247Y-106725695D02*
X135096390Y-106725695D01*
X135096390Y-106725695D02*
X134905914Y-106773314D01*
X134905914Y-106773314D02*
X134810676Y-106820933D01*
X134810676Y-106820933D02*
X134715438Y-106916171D01*
X134715438Y-106916171D02*
X134667819Y-107059028D01*
X134667819Y-107059028D02*
X134667819Y-107154266D01*
X134667819Y-107154266D02*
X134715438Y-107297123D01*
X134715438Y-107297123D02*
X134763057Y-107344742D01*
X134763057Y-107725695D02*
X134715438Y-107773314D01*
X134715438Y-107773314D02*
X134667819Y-107868552D01*
X134667819Y-107868552D02*
X134667819Y-108106647D01*
X134667819Y-108106647D02*
X134715438Y-108201885D01*
X134715438Y-108201885D02*
X134763057Y-108249504D01*
X134763057Y-108249504D02*
X134858295Y-108297123D01*
X134858295Y-108297123D02*
X134953533Y-108297123D01*
X134953533Y-108297123D02*
X135096390Y-108249504D01*
X135096390Y-108249504D02*
X135667819Y-107678076D01*
X135667819Y-107678076D02*
X135667819Y-108297123D01*
X134667819Y-108916171D02*
X134667819Y-109011409D01*
X134667819Y-109011409D02*
X134715438Y-109106647D01*
X134715438Y-109106647D02*
X134763057Y-109154266D01*
X134763057Y-109154266D02*
X134858295Y-109201885D01*
X134858295Y-109201885D02*
X135048771Y-109249504D01*
X135048771Y-109249504D02*
X135286866Y-109249504D01*
X135286866Y-109249504D02*
X135477342Y-109201885D01*
X135477342Y-109201885D02*
X135572580Y-109154266D01*
X135572580Y-109154266D02*
X135620200Y-109106647D01*
X135620200Y-109106647D02*
X135667819Y-109011409D01*
X135667819Y-109011409D02*
X135667819Y-108916171D01*
X135667819Y-108916171D02*
X135620200Y-108820933D01*
X135620200Y-108820933D02*
X135572580Y-108773314D01*
X135572580Y-108773314D02*
X135477342Y-108725695D01*
X135477342Y-108725695D02*
X135286866Y-108678076D01*
X135286866Y-108678076D02*
X135048771Y-108678076D01*
X135048771Y-108678076D02*
X134858295Y-108725695D01*
X134858295Y-108725695D02*
X134763057Y-108773314D01*
X134763057Y-108773314D02*
X134715438Y-108820933D01*
X134715438Y-108820933D02*
X134667819Y-108916171D01*
X146815980Y-112881942D02*
X146863600Y-112834323D01*
X146863600Y-112834323D02*
X146911219Y-112691466D01*
X146911219Y-112691466D02*
X146911219Y-112596228D01*
X146911219Y-112596228D02*
X146863600Y-112453371D01*
X146863600Y-112453371D02*
X146768361Y-112358133D01*
X146768361Y-112358133D02*
X146673123Y-112310514D01*
X146673123Y-112310514D02*
X146482647Y-112262895D01*
X146482647Y-112262895D02*
X146339790Y-112262895D01*
X146339790Y-112262895D02*
X146149314Y-112310514D01*
X146149314Y-112310514D02*
X146054076Y-112358133D01*
X146054076Y-112358133D02*
X145958838Y-112453371D01*
X145958838Y-112453371D02*
X145911219Y-112596228D01*
X145911219Y-112596228D02*
X145911219Y-112691466D01*
X145911219Y-112691466D02*
X145958838Y-112834323D01*
X145958838Y-112834323D02*
X146006457Y-112881942D01*
X146911219Y-113834323D02*
X146911219Y-113262895D01*
X146911219Y-113548609D02*
X145911219Y-113548609D01*
X145911219Y-113548609D02*
X146054076Y-113453371D01*
X146054076Y-113453371D02*
X146149314Y-113358133D01*
X146149314Y-113358133D02*
X146196933Y-113262895D01*
X145911219Y-114167657D02*
X145911219Y-114834323D01*
X145911219Y-114834323D02*
X146911219Y-114405752D01*
X138742361Y-110003114D02*
X138742361Y-110307876D01*
X138955694Y-109667876D02*
X138742361Y-110003114D01*
X138742361Y-110003114D02*
X138529027Y-109667876D01*
X138346171Y-109728828D02*
X138315695Y-109698352D01*
X138315695Y-109698352D02*
X138254742Y-109667876D01*
X138254742Y-109667876D02*
X138102361Y-109667876D01*
X138102361Y-109667876D02*
X138041409Y-109698352D01*
X138041409Y-109698352D02*
X138010933Y-109728828D01*
X138010933Y-109728828D02*
X137980456Y-109789780D01*
X137980456Y-109789780D02*
X137980456Y-109850733D01*
X137980456Y-109850733D02*
X138010933Y-109942161D01*
X138010933Y-109942161D02*
X138376647Y-110307876D01*
X138376647Y-110307876D02*
X137980456Y-110307876D01*
X135495257Y-123961819D02*
X135828590Y-123485628D01*
X136066685Y-123961819D02*
X136066685Y-122961819D01*
X136066685Y-122961819D02*
X135685733Y-122961819D01*
X135685733Y-122961819D02*
X135590495Y-123009438D01*
X135590495Y-123009438D02*
X135542876Y-123057057D01*
X135542876Y-123057057D02*
X135495257Y-123152295D01*
X135495257Y-123152295D02*
X135495257Y-123295152D01*
X135495257Y-123295152D02*
X135542876Y-123390390D01*
X135542876Y-123390390D02*
X135590495Y-123438009D01*
X135590495Y-123438009D02*
X135685733Y-123485628D01*
X135685733Y-123485628D02*
X136066685Y-123485628D01*
X134542876Y-123961819D02*
X135114304Y-123961819D01*
X134828590Y-123961819D02*
X134828590Y-122961819D01*
X134828590Y-122961819D02*
X134923828Y-123104676D01*
X134923828Y-123104676D02*
X135019066Y-123199914D01*
X135019066Y-123199914D02*
X135114304Y-123247533D01*
X133685733Y-123295152D02*
X133685733Y-123961819D01*
X133923828Y-122914200D02*
X134161923Y-123628485D01*
X134161923Y-123628485D02*
X133542876Y-123628485D01*
X140876257Y-124069780D02*
X140923876Y-124117400D01*
X140923876Y-124117400D02*
X141066733Y-124165019D01*
X141066733Y-124165019D02*
X141161971Y-124165019D01*
X141161971Y-124165019D02*
X141304828Y-124117400D01*
X141304828Y-124117400D02*
X141400066Y-124022161D01*
X141400066Y-124022161D02*
X141447685Y-123926923D01*
X141447685Y-123926923D02*
X141495304Y-123736447D01*
X141495304Y-123736447D02*
X141495304Y-123593590D01*
X141495304Y-123593590D02*
X141447685Y-123403114D01*
X141447685Y-123403114D02*
X141400066Y-123307876D01*
X141400066Y-123307876D02*
X141304828Y-123212638D01*
X141304828Y-123212638D02*
X141161971Y-123165019D01*
X141161971Y-123165019D02*
X141066733Y-123165019D01*
X141066733Y-123165019D02*
X140923876Y-123212638D01*
X140923876Y-123212638D02*
X140876257Y-123260257D01*
X139923876Y-124165019D02*
X140495304Y-124165019D01*
X140209590Y-124165019D02*
X140209590Y-123165019D01*
X140209590Y-123165019D02*
X140304828Y-123307876D01*
X140304828Y-123307876D02*
X140400066Y-123403114D01*
X140400066Y-123403114D02*
X140495304Y-123450733D01*
X139352447Y-123593590D02*
X139447685Y-123545971D01*
X139447685Y-123545971D02*
X139495304Y-123498352D01*
X139495304Y-123498352D02*
X139542923Y-123403114D01*
X139542923Y-123403114D02*
X139542923Y-123355495D01*
X139542923Y-123355495D02*
X139495304Y-123260257D01*
X139495304Y-123260257D02*
X139447685Y-123212638D01*
X139447685Y-123212638D02*
X139352447Y-123165019D01*
X139352447Y-123165019D02*
X139161971Y-123165019D01*
X139161971Y-123165019D02*
X139066733Y-123212638D01*
X139066733Y-123212638D02*
X139019114Y-123260257D01*
X139019114Y-123260257D02*
X138971495Y-123355495D01*
X138971495Y-123355495D02*
X138971495Y-123403114D01*
X138971495Y-123403114D02*
X139019114Y-123498352D01*
X139019114Y-123498352D02*
X139066733Y-123545971D01*
X139066733Y-123545971D02*
X139161971Y-123593590D01*
X139161971Y-123593590D02*
X139352447Y-123593590D01*
X139352447Y-123593590D02*
X139447685Y-123641209D01*
X139447685Y-123641209D02*
X139495304Y-123688828D01*
X139495304Y-123688828D02*
X139542923Y-123784066D01*
X139542923Y-123784066D02*
X139542923Y-123974542D01*
X139542923Y-123974542D02*
X139495304Y-124069780D01*
X139495304Y-124069780D02*
X139447685Y-124117400D01*
X139447685Y-124117400D02*
X139352447Y-124165019D01*
X139352447Y-124165019D02*
X139161971Y-124165019D01*
X139161971Y-124165019D02*
X139066733Y-124117400D01*
X139066733Y-124117400D02*
X139019114Y-124069780D01*
X139019114Y-124069780D02*
X138971495Y-123974542D01*
X138971495Y-123974542D02*
X138971495Y-123784066D01*
X138971495Y-123784066D02*
X139019114Y-123688828D01*
X139019114Y-123688828D02*
X139066733Y-123641209D01*
X139066733Y-123641209D02*
X139161971Y-123593590D01*
X142097980Y-107314442D02*
X142145600Y-107266823D01*
X142145600Y-107266823D02*
X142193219Y-107123966D01*
X142193219Y-107123966D02*
X142193219Y-107028728D01*
X142193219Y-107028728D02*
X142145600Y-106885871D01*
X142145600Y-106885871D02*
X142050361Y-106790633D01*
X142050361Y-106790633D02*
X141955123Y-106743014D01*
X141955123Y-106743014D02*
X141764647Y-106695395D01*
X141764647Y-106695395D02*
X141621790Y-106695395D01*
X141621790Y-106695395D02*
X141431314Y-106743014D01*
X141431314Y-106743014D02*
X141336076Y-106790633D01*
X141336076Y-106790633D02*
X141240838Y-106885871D01*
X141240838Y-106885871D02*
X141193219Y-107028728D01*
X141193219Y-107028728D02*
X141193219Y-107123966D01*
X141193219Y-107123966D02*
X141240838Y-107266823D01*
X141240838Y-107266823D02*
X141288457Y-107314442D01*
X142193219Y-108266823D02*
X142193219Y-107695395D01*
X142193219Y-107981109D02*
X141193219Y-107981109D01*
X141193219Y-107981109D02*
X141336076Y-107885871D01*
X141336076Y-107885871D02*
X141431314Y-107790633D01*
X141431314Y-107790633D02*
X141478933Y-107695395D01*
X142193219Y-108743014D02*
X142193219Y-108933490D01*
X142193219Y-108933490D02*
X142145600Y-109028728D01*
X142145600Y-109028728D02*
X142097980Y-109076347D01*
X142097980Y-109076347D02*
X141955123Y-109171585D01*
X141955123Y-109171585D02*
X141764647Y-109219204D01*
X141764647Y-109219204D02*
X141383695Y-109219204D01*
X141383695Y-109219204D02*
X141288457Y-109171585D01*
X141288457Y-109171585D02*
X141240838Y-109123966D01*
X141240838Y-109123966D02*
X141193219Y-109028728D01*
X141193219Y-109028728D02*
X141193219Y-108838252D01*
X141193219Y-108838252D02*
X141240838Y-108743014D01*
X141240838Y-108743014D02*
X141288457Y-108695395D01*
X141288457Y-108695395D02*
X141383695Y-108647776D01*
X141383695Y-108647776D02*
X141621790Y-108647776D01*
X141621790Y-108647776D02*
X141717028Y-108695395D01*
X141717028Y-108695395D02*
X141764647Y-108743014D01*
X141764647Y-108743014D02*
X141812266Y-108838252D01*
X141812266Y-108838252D02*
X141812266Y-109028728D01*
X141812266Y-109028728D02*
X141764647Y-109123966D01*
X141764647Y-109123966D02*
X141717028Y-109171585D01*
X141717028Y-109171585D02*
X141621790Y-109219204D01*
X130528219Y-113449442D02*
X130052028Y-113116109D01*
X130528219Y-112878014D02*
X129528219Y-112878014D01*
X129528219Y-112878014D02*
X129528219Y-113258966D01*
X129528219Y-113258966D02*
X129575838Y-113354204D01*
X129575838Y-113354204D02*
X129623457Y-113401823D01*
X129623457Y-113401823D02*
X129718695Y-113449442D01*
X129718695Y-113449442D02*
X129861552Y-113449442D01*
X129861552Y-113449442D02*
X129956790Y-113401823D01*
X129956790Y-113401823D02*
X130004409Y-113354204D01*
X130004409Y-113354204D02*
X130052028Y-113258966D01*
X130052028Y-113258966D02*
X130052028Y-112878014D01*
X130528219Y-114401823D02*
X130528219Y-113830395D01*
X130528219Y-114116109D02*
X129528219Y-114116109D01*
X129528219Y-114116109D02*
X129671076Y-114020871D01*
X129671076Y-114020871D02*
X129766314Y-113925633D01*
X129766314Y-113925633D02*
X129813933Y-113830395D01*
X129528219Y-115306585D02*
X129528219Y-114830395D01*
X129528219Y-114830395D02*
X130004409Y-114782776D01*
X130004409Y-114782776D02*
X129956790Y-114830395D01*
X129956790Y-114830395D02*
X129909171Y-114925633D01*
X129909171Y-114925633D02*
X129909171Y-115163728D01*
X129909171Y-115163728D02*
X129956790Y-115258966D01*
X129956790Y-115258966D02*
X130004409Y-115306585D01*
X130004409Y-115306585D02*
X130099647Y-115354204D01*
X130099647Y-115354204D02*
X130337742Y-115354204D01*
X130337742Y-115354204D02*
X130432980Y-115306585D01*
X130432980Y-115306585D02*
X130480600Y-115258966D01*
X130480600Y-115258966D02*
X130528219Y-115163728D01*
X130528219Y-115163728D02*
X130528219Y-114925633D01*
X130528219Y-114925633D02*
X130480600Y-114830395D01*
X130480600Y-114830395D02*
X130432980Y-114782776D01*
X130452019Y-117312142D02*
X129975828Y-116978809D01*
X130452019Y-116740714D02*
X129452019Y-116740714D01*
X129452019Y-116740714D02*
X129452019Y-117121666D01*
X129452019Y-117121666D02*
X129499638Y-117216904D01*
X129499638Y-117216904D02*
X129547257Y-117264523D01*
X129547257Y-117264523D02*
X129642495Y-117312142D01*
X129642495Y-117312142D02*
X129785352Y-117312142D01*
X129785352Y-117312142D02*
X129880590Y-117264523D01*
X129880590Y-117264523D02*
X129928209Y-117216904D01*
X129928209Y-117216904D02*
X129975828Y-117121666D01*
X129975828Y-117121666D02*
X129975828Y-116740714D01*
X130452019Y-118264523D02*
X130452019Y-117693095D01*
X130452019Y-117978809D02*
X129452019Y-117978809D01*
X129452019Y-117978809D02*
X129594876Y-117883571D01*
X129594876Y-117883571D02*
X129690114Y-117788333D01*
X129690114Y-117788333D02*
X129737733Y-117693095D01*
X129452019Y-119121666D02*
X129452019Y-118931190D01*
X129452019Y-118931190D02*
X129499638Y-118835952D01*
X129499638Y-118835952D02*
X129547257Y-118788333D01*
X129547257Y-118788333D02*
X129690114Y-118693095D01*
X129690114Y-118693095D02*
X129880590Y-118645476D01*
X129880590Y-118645476D02*
X130261542Y-118645476D01*
X130261542Y-118645476D02*
X130356780Y-118693095D01*
X130356780Y-118693095D02*
X130404400Y-118740714D01*
X130404400Y-118740714D02*
X130452019Y-118835952D01*
X130452019Y-118835952D02*
X130452019Y-119026428D01*
X130452019Y-119026428D02*
X130404400Y-119121666D01*
X130404400Y-119121666D02*
X130356780Y-119169285D01*
X130356780Y-119169285D02*
X130261542Y-119216904D01*
X130261542Y-119216904D02*
X130023447Y-119216904D01*
X130023447Y-119216904D02*
X129928209Y-119169285D01*
X129928209Y-119169285D02*
X129880590Y-119121666D01*
X129880590Y-119121666D02*
X129832971Y-119026428D01*
X129832971Y-119026428D02*
X129832971Y-118835952D01*
X129832971Y-118835952D02*
X129880590Y-118740714D01*
X129880590Y-118740714D02*
X129928209Y-118693095D01*
X129928209Y-118693095D02*
X130023447Y-118645476D01*
X144631580Y-120104242D02*
X144679200Y-120056623D01*
X144679200Y-120056623D02*
X144726819Y-119913766D01*
X144726819Y-119913766D02*
X144726819Y-119818528D01*
X144726819Y-119818528D02*
X144679200Y-119675671D01*
X144679200Y-119675671D02*
X144583961Y-119580433D01*
X144583961Y-119580433D02*
X144488723Y-119532814D01*
X144488723Y-119532814D02*
X144298247Y-119485195D01*
X144298247Y-119485195D02*
X144155390Y-119485195D01*
X144155390Y-119485195D02*
X143964914Y-119532814D01*
X143964914Y-119532814D02*
X143869676Y-119580433D01*
X143869676Y-119580433D02*
X143774438Y-119675671D01*
X143774438Y-119675671D02*
X143726819Y-119818528D01*
X143726819Y-119818528D02*
X143726819Y-119913766D01*
X143726819Y-119913766D02*
X143774438Y-120056623D01*
X143774438Y-120056623D02*
X143822057Y-120104242D01*
X143822057Y-120485195D02*
X143774438Y-120532814D01*
X143774438Y-120532814D02*
X143726819Y-120628052D01*
X143726819Y-120628052D02*
X143726819Y-120866147D01*
X143726819Y-120866147D02*
X143774438Y-120961385D01*
X143774438Y-120961385D02*
X143822057Y-121009004D01*
X143822057Y-121009004D02*
X143917295Y-121056623D01*
X143917295Y-121056623D02*
X144012533Y-121056623D01*
X144012533Y-121056623D02*
X144155390Y-121009004D01*
X144155390Y-121009004D02*
X144726819Y-120437576D01*
X144726819Y-120437576D02*
X144726819Y-121056623D01*
X143822057Y-121437576D02*
X143774438Y-121485195D01*
X143774438Y-121485195D02*
X143726819Y-121580433D01*
X143726819Y-121580433D02*
X143726819Y-121818528D01*
X143726819Y-121818528D02*
X143774438Y-121913766D01*
X143774438Y-121913766D02*
X143822057Y-121961385D01*
X143822057Y-121961385D02*
X143917295Y-122009004D01*
X143917295Y-122009004D02*
X144012533Y-122009004D01*
X144012533Y-122009004D02*
X144155390Y-121961385D01*
X144155390Y-121961385D02*
X144726819Y-121389957D01*
X144726819Y-121389957D02*
X144726819Y-122009004D01*
D13*
G36*
X137829100Y-119595400D02*
G01*
X137448099Y-119595400D01*
X137448099Y-119341400D01*
X137829100Y-119341400D01*
X137829100Y-119595400D01*
G37*
D14*
X99490701Y-80123800D02*
G75*
G02*
X98728701Y-80123800I-381000J0D01*
G01*
X98728701Y-80123800D02*
G75*
G02*
X99490701Y-80123800I381000J0D01*
G01*
X181509149Y-77449300D02*
G75*
G02*
X180747149Y-77449300I-381000J0D01*
G01*
X180747149Y-77449300D02*
G75*
G02*
X181509149Y-77449300I381000J0D01*
G01*
X181509149Y-91199300D02*
G75*
G02*
X180747149Y-91199300I-381000J0D01*
G01*
X180747149Y-91199300D02*
G75*
G02*
X181509149Y-91199300I381000J0D01*
G01*
D10*
X183235000Y-82571564D02*
X183235000Y-82117436D01*
X181765000Y-82571564D02*
X181765000Y-82117436D01*
D14*
X182048200Y-115368401D02*
G75*
G02*
X181286200Y-115368401I-381000J0D01*
G01*
X181286200Y-115368401D02*
G75*
G02*
X182048200Y-115368401I381000J0D01*
G01*
X126720600Y-63954600D02*
G75*
G02*
X125958600Y-63954600I-381000J0D01*
G01*
X125958600Y-63954600D02*
G75*
G02*
X126720600Y-63954600I381000J0D01*
G01*
D10*
X160250200Y-90240252D02*
X160250200Y-89717748D01*
X161720200Y-90240252D02*
X161720200Y-89717748D01*
X160224800Y-85920748D02*
X160224800Y-86443252D01*
X161694800Y-85920748D02*
X161694800Y-86443252D01*
X165361252Y-81899500D02*
X164838748Y-81899500D01*
X165361252Y-83369500D02*
X164838748Y-83369500D01*
X172772400Y-89666948D02*
X172772400Y-90189452D01*
X174242400Y-89666948D02*
X174242400Y-90189452D01*
X167672652Y-91447000D02*
X167150148Y-91447000D01*
X167672652Y-92917000D02*
X167150148Y-92917000D01*
X93757000Y-96168452D02*
X93757000Y-95645948D01*
X95227000Y-96168452D02*
X95227000Y-95645948D01*
X94007000Y-86318452D02*
X94007000Y-85795948D01*
X95477000Y-86318452D02*
X95477000Y-85795948D01*
X104954400Y-89275052D02*
X104954400Y-88752548D01*
X106424400Y-89275052D02*
X106424400Y-88752548D01*
X106402200Y-77702852D02*
X106402200Y-77180348D01*
X107872200Y-77702852D02*
X107872200Y-77180348D01*
X141927948Y-93460400D02*
X142450452Y-93460400D01*
X141927948Y-94930400D02*
X142450452Y-94930400D01*
X142441452Y-95596800D02*
X141018948Y-95596800D01*
X142441452Y-97416800D02*
X141018948Y-97416800D01*
X162790200Y-97011852D02*
X162790200Y-96489348D01*
X164260200Y-97011852D02*
X164260200Y-96489348D01*
X167411400Y-84447000D02*
X165211400Y-84447000D01*
X167411400Y-84447000D02*
X169611400Y-84447000D01*
X167411400Y-89917000D02*
X163811400Y-89917000D01*
X167411400Y-89917000D02*
X169611400Y-89917000D01*
X111099600Y-89589200D02*
X109149600Y-89589200D01*
X111099600Y-89589200D02*
X113049600Y-89589200D01*
X111099600Y-94709200D02*
X107649600Y-94709200D01*
X111099600Y-94709200D02*
X113049600Y-94709200D01*
X112191800Y-77741600D02*
X110241800Y-77741600D01*
X112191800Y-77741600D02*
X114141800Y-77741600D01*
X112191800Y-82861600D02*
X108741800Y-82861600D01*
X112191800Y-82861600D02*
X114141800Y-82861600D01*
X135103400Y-80720500D02*
X135103400Y-80965500D01*
X135103400Y-92245500D02*
X133288400Y-92245500D01*
X135103400Y-92490500D02*
X135103400Y-92245500D01*
X138963400Y-80720500D02*
X135103400Y-80720500D01*
X138963400Y-80720500D02*
X142823400Y-80720500D01*
X138963400Y-92490500D02*
X135103400Y-92490500D01*
X138963400Y-92490500D02*
X142823400Y-92490500D01*
X142823400Y-80720500D02*
X142823400Y-80965500D01*
X142823400Y-92490500D02*
X142823400Y-92245500D01*
X169189400Y-94200800D02*
X167239400Y-94200800D01*
X169189400Y-94200800D02*
X171139400Y-94200800D01*
X169189400Y-99320800D02*
X165739400Y-99320800D01*
X169189400Y-99320800D02*
X171139400Y-99320800D01*
X139639564Y-77447000D02*
X139185436Y-77447000D01*
X139639564Y-78917000D02*
X139185436Y-78917000D01*
X176938000Y-88878436D02*
X176938000Y-89332564D01*
X178408000Y-88878436D02*
X178408000Y-89332564D01*
X144680000Y-118029664D02*
X144680000Y-117575536D01*
X146150000Y-118029664D02*
X146150000Y-117575536D01*
X134503400Y-111347652D02*
X134503400Y-110825148D01*
X135973400Y-111347652D02*
X135973400Y-110825148D01*
X143655148Y-113348600D02*
X144177652Y-113348600D01*
X143655148Y-114818600D02*
X144177652Y-114818600D01*
D15*
X138108400Y-111225400D02*
X138868400Y-111225400D01*
X138108400Y-112725400D02*
X138868400Y-112725400D01*
D10*
X135077564Y-121197200D02*
X134623436Y-121197200D01*
X135077564Y-122667200D02*
X134623436Y-122667200D01*
X140944652Y-120996800D02*
X139522148Y-120996800D01*
X140944652Y-122816800D02*
X139522148Y-122816800D01*
X141003400Y-111316752D02*
X141003400Y-110794248D01*
X142473400Y-111316752D02*
X142473400Y-110794248D01*
X130913200Y-114310664D02*
X130913200Y-113856536D01*
X132383200Y-114310664D02*
X132383200Y-113856536D01*
X130887800Y-117615736D02*
X130887800Y-118069864D01*
X132357800Y-117615736D02*
X132357800Y-118069864D01*
X142267000Y-117545948D02*
X142267000Y-118068452D01*
X143737000Y-117545948D02*
X143737000Y-118068452D01*
%LPC*%
D16*
X139638599Y-118820700D03*
D17*
X139623800Y-116533999D03*
X139623800Y-117034000D03*
X139623800Y-117534000D03*
X139623800Y-118034001D03*
D16*
X139138599Y-118820700D03*
X138638600Y-118820700D03*
X138138601Y-118820700D03*
X137638600Y-118820700D03*
X137138600Y-118820700D03*
X136638599Y-118820700D03*
X136138600Y-118820700D03*
X135638601Y-118820700D03*
X135138601Y-118820700D03*
D17*
X135153400Y-118034001D03*
X135153400Y-117534000D03*
X135153400Y-117034000D03*
X135153400Y-116533999D03*
D16*
X135138601Y-115747300D03*
X135638601Y-115747300D03*
X136138600Y-115747300D03*
X136638599Y-115747300D03*
X137138600Y-115747300D03*
X137638600Y-115747300D03*
X138138601Y-115747300D03*
X138638600Y-115747300D03*
X139138599Y-115747300D03*
X139638599Y-115747300D03*
D18*
X99109701Y-75529199D03*
X99109701Y-72529200D03*
X99109701Y-69529201D03*
X102109700Y-75529199D03*
X102109700Y-72529200D03*
X102109700Y-69529201D03*
D19*
X181128149Y-81165900D03*
X181128149Y-85365898D03*
X175628150Y-81165900D03*
X175628150Y-85365898D03*
X181128149Y-94915900D03*
X181128149Y-99115898D03*
X175628150Y-94915900D03*
X175628150Y-99115898D03*
D20*
X183413400Y-66915800D03*
X185953400Y-66915800D03*
D21*
X189988400Y-59673500D03*
X189988400Y-119673500D03*
D22*
X182500000Y-81432000D03*
X182500000Y-83257000D03*
D23*
X97992000Y-94121800D03*
X97992000Y-97621800D03*
X98015000Y-84368200D03*
X98015000Y-87868200D03*
D20*
X113055400Y-120789200D03*
X113055400Y-118249200D03*
D24*
X152000000Y-118880000D03*
D25*
X152000000Y-116122000D03*
X152000000Y-113582000D03*
X152000000Y-111042000D03*
X152000000Y-108502000D03*
X152000000Y-105962000D03*
X152000000Y-103422000D03*
X152000000Y-100882000D03*
X152000000Y-98342000D03*
X152000000Y-95802000D03*
X152000000Y-93262000D03*
X152000000Y-90722000D03*
X152000000Y-88182000D03*
X152000000Y-85642000D03*
X152000000Y-83102000D03*
D24*
X124739400Y-108457500D03*
D25*
X124739400Y-105917500D03*
X124739400Y-103377500D03*
X124739400Y-100837500D03*
X124739400Y-98297500D03*
X124739400Y-95757500D03*
X124739400Y-93217500D03*
X124739400Y-90677500D03*
X124739400Y-88137500D03*
X124739400Y-85597500D03*
X124739400Y-83057500D03*
X124739400Y-80517500D03*
D26*
X129565400Y-122173500D03*
X147345400Y-122173500D03*
X129565400Y-76453500D03*
X147345400Y-76453500D03*
D27*
X148615400Y-115823500D03*
X148615400Y-80263500D03*
X148615400Y-108203500D03*
X148615400Y-105663500D03*
X148615400Y-103123500D03*
X148615400Y-100583500D03*
X148615400Y-98043500D03*
X148615400Y-95503500D03*
X128295400Y-85343500D03*
X128295400Y-87883500D03*
X128295400Y-90423500D03*
X128295400Y-92963500D03*
X128295400Y-95503500D03*
X128295400Y-98043500D03*
X128295400Y-100583500D03*
X128295400Y-105663500D03*
X148615400Y-110743500D03*
X128295400Y-108203500D03*
X148615400Y-113283500D03*
X148615400Y-87883500D03*
X148615400Y-90423500D03*
X148615400Y-118363500D03*
X148615400Y-85343500D03*
X148615400Y-92963500D03*
X128295400Y-82803500D03*
X128295400Y-80263500D03*
X148615400Y-82803500D03*
X128295400Y-103123500D03*
D28*
X103190000Y-120822000D03*
X108270000Y-120822000D03*
D29*
X107000000Y-112182000D03*
D30*
X104460000Y-112182000D03*
D24*
X109499400Y-67309500D03*
D25*
X109499400Y-64769500D03*
X112039400Y-67309500D03*
X112039400Y-64769500D03*
D24*
X117119400Y-67309500D03*
D25*
X117119400Y-64769500D03*
X119659400Y-67309500D03*
X119659400Y-64769500D03*
X122199400Y-67309500D03*
X122199400Y-64769500D03*
D21*
X95000000Y-59682000D03*
X95000000Y-119682000D03*
D23*
X183098400Y-70383500D03*
D31*
X175478400Y-72923500D03*
D23*
X183098400Y-75463500D03*
D32*
X180558400Y-74203500D03*
D33*
X180558400Y-71663500D03*
D20*
X93593600Y-112000800D03*
X96133600Y-112000800D03*
X171738400Y-82105500D03*
X169198400Y-82105500D03*
D24*
X184363400Y-105898500D03*
D25*
X184363400Y-108438500D03*
D21*
X175037400Y-63843500D03*
X150037400Y-63843500D03*
D34*
X156997400Y-65263500D03*
D35*
X159767400Y-65263500D03*
X162537400Y-65263500D03*
X165307400Y-65263500D03*
X168077400Y-65263500D03*
X158382400Y-62423500D03*
X161152400Y-62423500D03*
X163922400Y-62423500D03*
X166692400Y-62423500D03*
D18*
X177327999Y-115368401D03*
X174328000Y-115368401D03*
X171328001Y-115368401D03*
X168328002Y-115368401D03*
D23*
X170238400Y-104923500D03*
X176738400Y-104923500D03*
X170238400Y-109423500D03*
X176738400Y-109423500D03*
D36*
X118287800Y-119062000D03*
D37*
X120827800Y-119062000D03*
X118287800Y-121602000D03*
X120827800Y-121602000D03*
D23*
X158862200Y-79259000D03*
X158862200Y-72759000D03*
X163362200Y-79259000D03*
X163362200Y-72759000D03*
D18*
X130678801Y-63954600D03*
X133678800Y-63954600D03*
X136678799Y-63954600D03*
X139678798Y-63954600D03*
D23*
X159335400Y-104932000D03*
X165835400Y-104932000D03*
X159335400Y-109432000D03*
X165835400Y-109432000D03*
D38*
X160985200Y-90929000D03*
X160985200Y-89029000D03*
D39*
X160959800Y-85232000D03*
X160959800Y-87132000D03*
D40*
X166050000Y-82634500D03*
X164150000Y-82634500D03*
D39*
X173507400Y-88978200D03*
X173507400Y-90878200D03*
D40*
X168361400Y-92182000D03*
X166461400Y-92182000D03*
D38*
X94492000Y-96857200D03*
X94492000Y-94957200D03*
X94742000Y-87007200D03*
X94742000Y-85107200D03*
X105689400Y-89963800D03*
X105689400Y-88063800D03*
X107137200Y-78391600D03*
X107137200Y-76491600D03*
D41*
X141239200Y-94195400D03*
X143139200Y-94195400D03*
D42*
X143205200Y-96506800D03*
X140255200Y-96506800D03*
D38*
X163525200Y-97700600D03*
X163525200Y-95800600D03*
D43*
X164548900Y-89457000D03*
X164548900Y-88807000D03*
X164548900Y-88157000D03*
X164548900Y-87507000D03*
X164548900Y-86857000D03*
X164548900Y-86207000D03*
X164548900Y-85557000D03*
X164548900Y-84907000D03*
X170273900Y-84907000D03*
X170273900Y-85557000D03*
X170273900Y-86207000D03*
X170273900Y-86857000D03*
X170273900Y-87507000D03*
X170273900Y-88157000D03*
X170273900Y-88807000D03*
X170273900Y-89457000D03*
D44*
X108624600Y-94054200D03*
X108624600Y-92784200D03*
X108624600Y-91514200D03*
X108624600Y-90244200D03*
X113574600Y-90244200D03*
X113574600Y-91514200D03*
X113574600Y-92784200D03*
X113574600Y-94054200D03*
D45*
X111099600Y-92149200D03*
D44*
X109716800Y-82206600D03*
X109716800Y-80936600D03*
X109716800Y-79666600D03*
X109716800Y-78396600D03*
X114666800Y-78396600D03*
X114666800Y-79666600D03*
X114666800Y-80936600D03*
X114666800Y-82206600D03*
D45*
X112191800Y-80301600D03*
D46*
X134313400Y-91685500D03*
X134313400Y-90415500D03*
X134313400Y-89145500D03*
X134313400Y-87875500D03*
X134313400Y-86605500D03*
X134313400Y-85335500D03*
X134313400Y-84065500D03*
X134313400Y-82795500D03*
X134313400Y-81525500D03*
X143613400Y-81525500D03*
X143613400Y-82795500D03*
X143613400Y-84065500D03*
X143613400Y-85335500D03*
X143613400Y-86605500D03*
X143613400Y-87875500D03*
X143613400Y-89145500D03*
X143613400Y-90415500D03*
X143613400Y-91685500D03*
D44*
X166714400Y-98665800D03*
X166714400Y-97395800D03*
X166714400Y-96125800D03*
X166714400Y-94855800D03*
X171664400Y-94855800D03*
X171664400Y-96125800D03*
X171664400Y-97395800D03*
X171664400Y-98665800D03*
D45*
X169189400Y-96760800D03*
D47*
X140325000Y-78182000D03*
X138500000Y-78182000D03*
D48*
X177673000Y-88193000D03*
X177673000Y-90018000D03*
D49*
X145415000Y-118715100D03*
X145415000Y-116890100D03*
D38*
X135238400Y-112036400D03*
X135238400Y-110136400D03*
D41*
X142966400Y-114083600D03*
X144866400Y-114083600D03*
D50*
X137238400Y-111975400D03*
X139738400Y-111975400D03*
D51*
X135763000Y-121932200D03*
X133938000Y-121932200D03*
D52*
X141795900Y-121906800D03*
X138670900Y-121906800D03*
D38*
X141738400Y-112005500D03*
X141738400Y-110105500D03*
D49*
X131648200Y-114996100D03*
X131648200Y-113171100D03*
D53*
X131622800Y-116930300D03*
X131622800Y-118755300D03*
D39*
X143002000Y-116857200D03*
X143002000Y-118757200D03*
%LPD*%
M02*
