%TF.GenerationSoftware,KiCad,Pcbnew,9.0.3*%
%TF.CreationDate,2026-01-09T18:51:29-08:00*%
%TF.ProjectId,telemetry-pcb,74656c65-6d65-4747-9279-2d7063622e6b,rev?*%
%TF.SameCoordinates,Original*%
%TF.FileFunction,Soldermask,Bot*%
%TF.FilePolarity,Negative*%
%FSLAX46Y46*%
G04 Gerber Fmt 4.6, Leading zero omitted, Abs format (unit mm)*
G04 Created by KiCad (PCBNEW 9.0.3) date 2026-01-09 18:51:29*
%MOMM*%
%LPD*%
G01*
G04 APERTURE LIST*
G04 Aperture macros list*
%AMRoundRect*
0 Rectangle with rounded corners*
0 $1 Rounding radius*
0 $2 $3 $4 $5 $6 $7 $8 $9 X,Y pos of 4 corners*
0 Add a 4 corners polygon primitive as box body*
4,1,4,$2,$3,$4,$5,$6,$7,$8,$9,$2,$3,0*
0 Add four circle primitives for the rounded corners*
1,1,$1+$1,$2,$3*
1,1,$1+$1,$4,$5*
1,1,$1+$1,$6,$7*
1,1,$1+$1,$8,$9*
0 Add four rect primitives between the rounded corners*
20,1,$1+$1,$2,$3,$4,$5,0*
20,1,$1+$1,$4,$5,$6,$7,0*
20,1,$1+$1,$6,$7,$8,$9,0*
20,1,$1+$1,$8,$9,$2,$3,0*%
G04 Aperture macros list end*
%ADD10R,0.304800X0.533400*%
%ADD11R,0.431800X0.304800*%
%ADD12C,1.574800*%
%ADD13C,2.362200*%
%ADD14C,1.400000*%
%ADD15C,4.000000*%
%ADD16RoundRect,0.249999X0.450001X-0.262501X0.450001X0.262501X-0.450001X0.262501X-0.450001X-0.262501X0*%
%ADD17C,2.000000*%
%ADD18R,1.700000X1.700000*%
%ADD19O,1.700000X1.700000*%
%ADD20C,3.556000*%
%ADD21C,1.524000*%
%ADD22C,3.400000*%
%ADD23R,1.690000X1.690000*%
%ADD24C,1.690000*%
%ADD25C,3.300000*%
%ADD26RoundRect,0.101600X-0.939800X0.939800X-0.939800X-0.939800X0.939800X-0.939800X0.939800X0.939800X0*%
%ADD27C,2.082800*%
%ADD28R,1.600000X1.600000*%
%ADD29C,1.600000*%
%ADD30RoundRect,0.102000X-0.765000X-0.765000X0.765000X-0.765000X0.765000X0.765000X-0.765000X0.765000X0*%
%ADD31C,1.734000*%
%ADD32RoundRect,0.250000X0.475000X-0.250000X0.475000X0.250000X-0.475000X0.250000X-0.475000X-0.250000X0*%
%ADD33RoundRect,0.250000X-0.475000X0.250000X-0.475000X-0.250000X0.475000X-0.250000X0.475000X0.250000X0*%
%ADD34RoundRect,0.250000X0.250000X0.475000X-0.250000X0.475000X-0.250000X-0.475000X0.250000X-0.475000X0*%
%ADD35RoundRect,0.250000X-0.250000X-0.475000X0.250000X-0.475000X0.250000X0.475000X-0.250000X0.475000X0*%
%ADD36RoundRect,0.249999X0.325001X0.650001X-0.325001X0.650001X-0.325001X-0.650001X0.325001X-0.650001X0*%
%ADD37RoundRect,0.100000X-0.637500X-0.100000X0.637500X-0.100000X0.637500X0.100000X-0.637500X0.100000X0*%
%ADD38RoundRect,0.150000X-0.825000X-0.150000X0.825000X-0.150000X0.825000X0.150000X-0.825000X0.150000X0*%
%ADD39R,2.290000X3.000000*%
%ADD40RoundRect,0.150000X-0.875000X-0.150000X0.875000X-0.150000X0.875000X0.150000X-0.875000X0.150000X0*%
%ADD41RoundRect,0.249999X0.262501X0.450001X-0.262501X0.450001X-0.262501X-0.450001X0.262501X-0.450001X0*%
%ADD42RoundRect,0.249999X-0.450001X0.262501X-0.450001X-0.262501X0.450001X-0.262501X0.450001X0.262501X0*%
%ADD43RoundRect,0.250000X0.450000X-0.262500X0.450000X0.262500X-0.450000X0.262500X-0.450000X-0.262500X0*%
%ADD44RoundRect,0.102000X-0.550000X-0.950000X0.550000X-0.950000X0.550000X0.950000X-0.550000X0.950000X0*%
%ADD45RoundRect,0.250000X0.262500X0.450000X-0.262500X0.450000X-0.262500X-0.450000X0.262500X-0.450000X0*%
%ADD46RoundRect,0.250000X0.412500X0.650000X-0.412500X0.650000X-0.412500X-0.650000X0.412500X-0.650000X0*%
%ADD47RoundRect,0.250000X-0.450000X0.262500X-0.450000X-0.262500X0.450000X-0.262500X0.450000X0.262500X0*%
G04 APERTURE END LIST*
D10*
X139638599Y-118820700D03*
D11*
X139623800Y-116533999D03*
X139623800Y-117034000D03*
X139623800Y-117534000D03*
X139623800Y-118034001D03*
D10*
X139138599Y-118820700D03*
X138638600Y-118820700D03*
X138138601Y-118820700D03*
X137638600Y-118820700D03*
X137138600Y-118820700D03*
X136638599Y-118820700D03*
X136138600Y-118820700D03*
X135638601Y-118820700D03*
X135138601Y-118820700D03*
D11*
X135153400Y-118034001D03*
X135153400Y-117534000D03*
X135153400Y-117034000D03*
X135153400Y-116533999D03*
D10*
X135138601Y-115747300D03*
X135638601Y-115747300D03*
X136138600Y-115747300D03*
X136638599Y-115747300D03*
X137138600Y-115747300D03*
X137638600Y-115747300D03*
X138138601Y-115747300D03*
X138638600Y-115747300D03*
X139138599Y-115747300D03*
X139638599Y-115747300D03*
D12*
X99109701Y-75529199D03*
X99109701Y-72529200D03*
X99109701Y-69529201D03*
X102109700Y-75529199D03*
X102109700Y-72529200D03*
X102109700Y-69529201D03*
D13*
X181128149Y-81165900D03*
X181128149Y-85365898D03*
X175628150Y-81165900D03*
X175628150Y-85365898D03*
X181128149Y-94915900D03*
X181128149Y-99115898D03*
X175628150Y-94915900D03*
X175628150Y-99115898D03*
D14*
X183413400Y-66915800D03*
X185953400Y-66915800D03*
D15*
X189988400Y-59673500D03*
X189988400Y-119673500D03*
D16*
X182500000Y-81432000D03*
X182500000Y-83257000D03*
D17*
X97992000Y-94121800D03*
X97992000Y-97621800D03*
X98015000Y-84368200D03*
X98015000Y-87868200D03*
D14*
X113055400Y-120789200D03*
X113055400Y-118249200D03*
D18*
X152000000Y-118880000D03*
D19*
X152000000Y-116122000D03*
X152000000Y-113582000D03*
X152000000Y-111042000D03*
X152000000Y-108502000D03*
X152000000Y-105962000D03*
X152000000Y-103422000D03*
X152000000Y-100882000D03*
X152000000Y-98342000D03*
X152000000Y-95802000D03*
X152000000Y-93262000D03*
X152000000Y-90722000D03*
X152000000Y-88182000D03*
X152000000Y-85642000D03*
X152000000Y-83102000D03*
D18*
X124739400Y-108457500D03*
D19*
X124739400Y-105917500D03*
X124739400Y-103377500D03*
X124739400Y-100837500D03*
X124739400Y-98297500D03*
X124739400Y-95757500D03*
X124739400Y-93217500D03*
X124739400Y-90677500D03*
X124739400Y-88137500D03*
X124739400Y-85597500D03*
X124739400Y-83057500D03*
X124739400Y-80517500D03*
D20*
X129565400Y-122173500D03*
X147345400Y-122173500D03*
X129565400Y-76453500D03*
X147345400Y-76453500D03*
D21*
X148615400Y-115823500D03*
X148615400Y-80263500D03*
X148615400Y-108203500D03*
X148615400Y-105663500D03*
X148615400Y-103123500D03*
X148615400Y-100583500D03*
X148615400Y-98043500D03*
X148615400Y-95503500D03*
X128295400Y-85343500D03*
X128295400Y-87883500D03*
X128295400Y-90423500D03*
X128295400Y-92963500D03*
X128295400Y-95503500D03*
X128295400Y-98043500D03*
X128295400Y-100583500D03*
X128295400Y-105663500D03*
X148615400Y-110743500D03*
X128295400Y-108203500D03*
X148615400Y-113283500D03*
X148615400Y-87883500D03*
X148615400Y-90423500D03*
X148615400Y-118363500D03*
X148615400Y-85343500D03*
X148615400Y-92963500D03*
X128295400Y-82803500D03*
X128295400Y-80263500D03*
X148615400Y-82803500D03*
X128295400Y-103123500D03*
D22*
X103190000Y-120822000D03*
X108270000Y-120822000D03*
D23*
X107000000Y-112182000D03*
D24*
X104460000Y-112182000D03*
D18*
X109499400Y-67309500D03*
D19*
X109499400Y-64769500D03*
X112039400Y-67309500D03*
X112039400Y-64769500D03*
D18*
X117119400Y-67309500D03*
D19*
X117119400Y-64769500D03*
X119659400Y-67309500D03*
X119659400Y-64769500D03*
X122199400Y-67309500D03*
X122199400Y-64769500D03*
D15*
X95000000Y-59682000D03*
X95000000Y-119682000D03*
D17*
X183098400Y-70383500D03*
D25*
X175478400Y-72923500D03*
D17*
X183098400Y-75463500D03*
D26*
X180558400Y-74203500D03*
D27*
X180558400Y-71663500D03*
D14*
X93593600Y-112000800D03*
X96133600Y-112000800D03*
X171738400Y-82105500D03*
X169198400Y-82105500D03*
D18*
X184363400Y-105898500D03*
D19*
X184363400Y-108438500D03*
D15*
X175037400Y-63843500D03*
X150037400Y-63843500D03*
D28*
X156997400Y-65263500D03*
D29*
X159767400Y-65263500D03*
X162537400Y-65263500D03*
X165307400Y-65263500D03*
X168077400Y-65263500D03*
X158382400Y-62423500D03*
X161152400Y-62423500D03*
X163922400Y-62423500D03*
X166692400Y-62423500D03*
D12*
X177327999Y-115368401D03*
X174328000Y-115368401D03*
X171328001Y-115368401D03*
X168328002Y-115368401D03*
D17*
X170238400Y-104923500D03*
X176738400Y-104923500D03*
X170238400Y-109423500D03*
X176738400Y-109423500D03*
D30*
X118287800Y-119062000D03*
D31*
X120827800Y-119062000D03*
X118287800Y-121602000D03*
X120827800Y-121602000D03*
D17*
X158862200Y-79259000D03*
X158862200Y-72759000D03*
X163362200Y-79259000D03*
X163362200Y-72759000D03*
D12*
X130678801Y-63954600D03*
X133678800Y-63954600D03*
X136678799Y-63954600D03*
X139678798Y-63954600D03*
D17*
X159335400Y-104932000D03*
X165835400Y-104932000D03*
X159335400Y-109432000D03*
X165835400Y-109432000D03*
D32*
X160985200Y-90929000D03*
X160985200Y-89029000D03*
D33*
X160959800Y-85232000D03*
X160959800Y-87132000D03*
D34*
X166050000Y-82634500D03*
X164150000Y-82634500D03*
D33*
X173507400Y-88978200D03*
X173507400Y-90878200D03*
D34*
X168361400Y-92182000D03*
X166461400Y-92182000D03*
D32*
X94492000Y-96857200D03*
X94492000Y-94957200D03*
X94742000Y-87007200D03*
X94742000Y-85107200D03*
X105689400Y-89963800D03*
X105689400Y-88063800D03*
X107137200Y-78391600D03*
X107137200Y-76491600D03*
D35*
X141239200Y-94195400D03*
X143139200Y-94195400D03*
D36*
X143205200Y-96506800D03*
X140255200Y-96506800D03*
D32*
X163525200Y-97700600D03*
X163525200Y-95800600D03*
D37*
X164548900Y-89457000D03*
X164548900Y-88807000D03*
X164548900Y-88157000D03*
X164548900Y-87507000D03*
X164548900Y-86857000D03*
X164548900Y-86207000D03*
X164548900Y-85557000D03*
X164548900Y-84907000D03*
X170273900Y-84907000D03*
X170273900Y-85557000D03*
X170273900Y-86207000D03*
X170273900Y-86857000D03*
X170273900Y-87507000D03*
X170273900Y-88157000D03*
X170273900Y-88807000D03*
X170273900Y-89457000D03*
D38*
X108624600Y-94054200D03*
X108624600Y-92784200D03*
X108624600Y-91514200D03*
X108624600Y-90244200D03*
X113574600Y-90244200D03*
X113574600Y-91514200D03*
X113574600Y-92784200D03*
X113574600Y-94054200D03*
D39*
X111099600Y-92149200D03*
D38*
X109716800Y-82206600D03*
X109716800Y-80936600D03*
X109716800Y-79666600D03*
X109716800Y-78396600D03*
X114666800Y-78396600D03*
X114666800Y-79666600D03*
X114666800Y-80936600D03*
X114666800Y-82206600D03*
D39*
X112191800Y-80301600D03*
D40*
X134313400Y-91685500D03*
X134313400Y-90415500D03*
X134313400Y-89145500D03*
X134313400Y-87875500D03*
X134313400Y-86605500D03*
X134313400Y-85335500D03*
X134313400Y-84065500D03*
X134313400Y-82795500D03*
X134313400Y-81525500D03*
X143613400Y-81525500D03*
X143613400Y-82795500D03*
X143613400Y-84065500D03*
X143613400Y-85335500D03*
X143613400Y-86605500D03*
X143613400Y-87875500D03*
X143613400Y-89145500D03*
X143613400Y-90415500D03*
X143613400Y-91685500D03*
D38*
X166714400Y-98665800D03*
X166714400Y-97395800D03*
X166714400Y-96125800D03*
X166714400Y-94855800D03*
X171664400Y-94855800D03*
X171664400Y-96125800D03*
X171664400Y-97395800D03*
X171664400Y-98665800D03*
D39*
X169189400Y-96760800D03*
D41*
X140325000Y-78182000D03*
X138500000Y-78182000D03*
D42*
X177673000Y-88193000D03*
X177673000Y-90018000D03*
D43*
X145415000Y-118715100D03*
X145415000Y-116890100D03*
D32*
X135238400Y-112036400D03*
X135238400Y-110136400D03*
D35*
X142966400Y-114083600D03*
X144866400Y-114083600D03*
D44*
X137238400Y-111975400D03*
X139738400Y-111975400D03*
D45*
X135763000Y-121932200D03*
X133938000Y-121932200D03*
D46*
X141795900Y-121906800D03*
X138670900Y-121906800D03*
D32*
X141738400Y-112005500D03*
X141738400Y-110105500D03*
D43*
X131648200Y-114996100D03*
X131648200Y-113171100D03*
D47*
X131622800Y-116930300D03*
X131622800Y-118755300D03*
D33*
X143002000Y-116857200D03*
X143002000Y-118757200D03*
M02*
