G04 #@! TF.GenerationSoftware,KiCad,Pcbnew,(5.1.9-0-10_14)*
G04 #@! TF.CreationDate,2022-08-09T16:59:01-07:00*
G04 #@! TF.ProjectId,telemetry-pcb,74656c65-6d65-4747-9279-2d7063622e6b,rev?*
G04 #@! TF.SameCoordinates,Original*
G04 #@! TF.FileFunction,Soldermask,Bot*
G04 #@! TF.FilePolarity,Negative*
%FSLAX46Y46*%
G04 Gerber Fmt 4.6, Leading zero omitted, Abs format (unit mm)*
G04 Created by KiCad (PCBNEW (5.1.9-0-10_14)) date 2022-08-09 16:59:01*
%MOMM*%
%LPD*%
G01*
G04 APERTURE LIST*
%ADD10C,2.000000*%
%ADD11C,4.000000*%
%ADD12C,1.600000*%
%ADD13R,1.600000X1.600000*%
%ADD14C,3.400000*%
%ADD15C,1.690000*%
%ADD16R,1.690000X1.690000*%
%ADD17C,3.454400*%
%ADD18C,1.676400*%
%ADD19C,3.556000*%
%ADD20C,1.524000*%
%ADD21R,1.700000X1.700000*%
%ADD22O,1.700000X1.700000*%
%ADD23C,1.400000*%
%ADD24C,3.300000*%
%ADD25C,2.082800*%
%ADD26R,0.576580X0.351536*%
%ADD27R,0.351536X0.576580*%
%ADD28R,2.290000X3.000000*%
G04 APERTURE END LIST*
D10*
X98069400Y-92999500D03*
X98069400Y-89499500D03*
X98069400Y-74711500D03*
X98069400Y-71211500D03*
D11*
X95000000Y-60000000D03*
X150037400Y-64175500D03*
X175037400Y-64175500D03*
D12*
X166692400Y-62755500D03*
X163922400Y-62755500D03*
X161152400Y-62755500D03*
X158382400Y-62755500D03*
X168077400Y-65595500D03*
X165307400Y-65595500D03*
X162537400Y-65595500D03*
X159767400Y-65595500D03*
D13*
X156997400Y-65595500D03*
D14*
X107721400Y-120464500D03*
X102641400Y-120464500D03*
D15*
X103911400Y-111824500D03*
D16*
X106451400Y-111824500D03*
D17*
X141249400Y-59495499D03*
X131089400Y-59495499D03*
D18*
X139979400Y-68135500D03*
X137439400Y-68135500D03*
X134899400Y-68135500D03*
X132359400Y-68135500D03*
D14*
X185196400Y-105473500D03*
X185196400Y-113093500D03*
D15*
X176556400Y-111823500D03*
X176556400Y-109283500D03*
D16*
X176556400Y-106743500D03*
D14*
X185196400Y-93281500D03*
X185196400Y-100901500D03*
D15*
X176556400Y-99631500D03*
X176556400Y-97091500D03*
D16*
X176556400Y-94551500D03*
G36*
G01*
X108516400Y-88905500D02*
X109466400Y-88905500D01*
G75*
G02*
X109716400Y-89155500I0J-250000D01*
G01*
X109716400Y-89655500D01*
G75*
G02*
X109466400Y-89905500I-250000J0D01*
G01*
X108516400Y-89905500D01*
G75*
G02*
X108266400Y-89655500I0J250000D01*
G01*
X108266400Y-89155500D01*
G75*
G02*
X108516400Y-88905500I250000J0D01*
G01*
G37*
G36*
G01*
X108516400Y-87005500D02*
X109466400Y-87005500D01*
G75*
G02*
X109716400Y-87255500I0J-250000D01*
G01*
X109716400Y-87755500D01*
G75*
G02*
X109466400Y-88005500I-250000J0D01*
G01*
X108516400Y-88005500D01*
G75*
G02*
X108266400Y-87755500I0J250000D01*
G01*
X108266400Y-87255500D01*
G75*
G02*
X108516400Y-87005500I250000J0D01*
G01*
G37*
D19*
X129565400Y-122491500D03*
X129565400Y-76771500D03*
X147345400Y-122491500D03*
X147345400Y-76771500D03*
D20*
X148615400Y-118681500D03*
X148615400Y-116141500D03*
X148615400Y-113601500D03*
X148615400Y-111061500D03*
X148615400Y-108521500D03*
X148615400Y-105981500D03*
X148615400Y-103441500D03*
X148615400Y-100901500D03*
X148615400Y-98361500D03*
X148615400Y-95821500D03*
X148615400Y-93281500D03*
X148615400Y-90741500D03*
X148615400Y-88201500D03*
X148615400Y-85661500D03*
X148615400Y-83121500D03*
X148615400Y-80581500D03*
X128295400Y-80581500D03*
X128295400Y-83121500D03*
X128295400Y-85661500D03*
X128295400Y-88201500D03*
X128295400Y-90741500D03*
X128295400Y-93281500D03*
X128295400Y-95821500D03*
X128295400Y-98361500D03*
X128295400Y-100901500D03*
X128295400Y-103441500D03*
X128295400Y-105981500D03*
X128295400Y-108521500D03*
D21*
X117119400Y-67627500D03*
D22*
X117119400Y-65087500D03*
X119659400Y-67627500D03*
X119659400Y-65087500D03*
X122199400Y-67627500D03*
X122199400Y-65087500D03*
D23*
X95275400Y-112331500D03*
X92735400Y-112331500D03*
D22*
X179603400Y-86931500D03*
D21*
X179603400Y-84391500D03*
X124739400Y-108775500D03*
D22*
X124739400Y-106235500D03*
X124739400Y-103695500D03*
X124739400Y-101155500D03*
X124739400Y-98615500D03*
X124739400Y-96075500D03*
X124739400Y-93535500D03*
X124739400Y-90995500D03*
X124739400Y-88455500D03*
X124739400Y-85915500D03*
X124739400Y-83375500D03*
X124739400Y-80835500D03*
D21*
X152171400Y-118645500D03*
D22*
X152171400Y-115887500D03*
X152171400Y-113347500D03*
X152171400Y-110807500D03*
X152171400Y-108267500D03*
X152171400Y-105727500D03*
X152171400Y-103187500D03*
X152171400Y-100647500D03*
X152171400Y-98107500D03*
X152171400Y-95567500D03*
X152171400Y-93027500D03*
X152171400Y-90487500D03*
X152171400Y-87947500D03*
X152171400Y-85407500D03*
X152171400Y-82867500D03*
D10*
X178079400Y-79301500D03*
X178079400Y-74221500D03*
D24*
X170459400Y-76761500D03*
D25*
X175539400Y-75501500D03*
G36*
G01*
X174599600Y-77000100D02*
X176479200Y-77000100D01*
G75*
G02*
X176580800Y-77101700I0J-101600D01*
G01*
X176580800Y-78981300D01*
G75*
G02*
X176479200Y-79082900I-101600J0D01*
G01*
X174599600Y-79082900D01*
G75*
G02*
X174498000Y-78981300I0J101600D01*
G01*
X174498000Y-77101700D01*
G75*
G02*
X174599600Y-77000100I101600J0D01*
G01*
G37*
D22*
X112039400Y-65087500D03*
X112039400Y-67627500D03*
X109499400Y-65087500D03*
D21*
X109499400Y-67627500D03*
D23*
X178587400Y-119951500D03*
X178587400Y-122491500D03*
X121183400Y-121475500D03*
X123723400Y-121475500D03*
X183667400Y-68135500D03*
X186207400Y-68135500D03*
D10*
X163243400Y-118427500D03*
X163243400Y-122927500D03*
X156743400Y-118427500D03*
X156743400Y-122927500D03*
G36*
G01*
X184741399Y-88752000D02*
X185641401Y-88752000D01*
G75*
G02*
X185891400Y-89001999I0J-249999D01*
G01*
X185891400Y-89527001D01*
G75*
G02*
X185641401Y-89777000I-249999J0D01*
G01*
X184741399Y-89777000D01*
G75*
G02*
X184491400Y-89527001I0J249999D01*
G01*
X184491400Y-89001999D01*
G75*
G02*
X184741399Y-88752000I249999J0D01*
G01*
G37*
G36*
G01*
X184741399Y-86927000D02*
X185641401Y-86927000D01*
G75*
G02*
X185891400Y-87176999I0J-249999D01*
G01*
X185891400Y-87702001D01*
G75*
G02*
X185641401Y-87952000I-249999J0D01*
G01*
X184741399Y-87952000D01*
G75*
G02*
X184491400Y-87702001I0J249999D01*
G01*
X184491400Y-87176999D01*
G75*
G02*
X184741399Y-86927000I249999J0D01*
G01*
G37*
G36*
G01*
X185487900Y-77221501D02*
X185487900Y-76321499D01*
G75*
G02*
X185737899Y-76071500I249999J0D01*
G01*
X186262901Y-76071500D01*
G75*
G02*
X186512900Y-76321499I0J-249999D01*
G01*
X186512900Y-77221501D01*
G75*
G02*
X186262901Y-77471500I-249999J0D01*
G01*
X185737899Y-77471500D01*
G75*
G02*
X185487900Y-77221501I0J249999D01*
G01*
G37*
G36*
G01*
X183662900Y-77221501D02*
X183662900Y-76321499D01*
G75*
G02*
X183912899Y-76071500I249999J0D01*
G01*
X184437901Y-76071500D01*
G75*
G02*
X184687900Y-76321499I0J-249999D01*
G01*
X184687900Y-77221501D01*
G75*
G02*
X184437901Y-77471500I-249999J0D01*
G01*
X183912899Y-77471500D01*
G75*
G02*
X183662900Y-77221501I0J249999D01*
G01*
G37*
D11*
X185000000Y-120000000D03*
X185000000Y-60000000D03*
X95000000Y-120000000D03*
G36*
G01*
X138459900Y-77337499D02*
X138459900Y-78237501D01*
G75*
G02*
X138209901Y-78487500I-249999J0D01*
G01*
X137684899Y-78487500D01*
G75*
G02*
X137434900Y-78237501I0J249999D01*
G01*
X137434900Y-77337499D01*
G75*
G02*
X137684899Y-77087500I249999J0D01*
G01*
X138209901Y-77087500D01*
G75*
G02*
X138459900Y-77337499I0J-249999D01*
G01*
G37*
G36*
G01*
X140284900Y-77337499D02*
X140284900Y-78237501D01*
G75*
G02*
X140034901Y-78487500I-249999J0D01*
G01*
X139509899Y-78487500D01*
G75*
G02*
X139259900Y-78237501I0J249999D01*
G01*
X139259900Y-77337499D01*
G75*
G02*
X139509899Y-77087500I249999J0D01*
G01*
X140034901Y-77087500D01*
G75*
G02*
X140284900Y-77337499I0J-249999D01*
G01*
G37*
D26*
X136737100Y-122225501D03*
X136737100Y-121725500D03*
X136737100Y-121225500D03*
X136737100Y-120725499D03*
D27*
X137447401Y-120519200D03*
X137947400Y-120519200D03*
X138447399Y-120519200D03*
D26*
X139157700Y-120725499D03*
X139157700Y-121225500D03*
X139157700Y-121725500D03*
X139157700Y-122225501D03*
D27*
X138447399Y-122431800D03*
X137947400Y-122431800D03*
X137447401Y-122431800D03*
D28*
X165379400Y-104711500D03*
G36*
G01*
X163879400Y-102656500D02*
X163879400Y-102956500D01*
G75*
G02*
X163729400Y-103106500I-150000J0D01*
G01*
X162079400Y-103106500D01*
G75*
G02*
X161929400Y-102956500I0J150000D01*
G01*
X161929400Y-102656500D01*
G75*
G02*
X162079400Y-102506500I150000J0D01*
G01*
X163729400Y-102506500D01*
G75*
G02*
X163879400Y-102656500I0J-150000D01*
G01*
G37*
G36*
G01*
X163879400Y-103926500D02*
X163879400Y-104226500D01*
G75*
G02*
X163729400Y-104376500I-150000J0D01*
G01*
X162079400Y-104376500D01*
G75*
G02*
X161929400Y-104226500I0J150000D01*
G01*
X161929400Y-103926500D01*
G75*
G02*
X162079400Y-103776500I150000J0D01*
G01*
X163729400Y-103776500D01*
G75*
G02*
X163879400Y-103926500I0J-150000D01*
G01*
G37*
G36*
G01*
X163879400Y-105196500D02*
X163879400Y-105496500D01*
G75*
G02*
X163729400Y-105646500I-150000J0D01*
G01*
X162079400Y-105646500D01*
G75*
G02*
X161929400Y-105496500I0J150000D01*
G01*
X161929400Y-105196500D01*
G75*
G02*
X162079400Y-105046500I150000J0D01*
G01*
X163729400Y-105046500D01*
G75*
G02*
X163879400Y-105196500I0J-150000D01*
G01*
G37*
G36*
G01*
X163879400Y-106466500D02*
X163879400Y-106766500D01*
G75*
G02*
X163729400Y-106916500I-150000J0D01*
G01*
X162079400Y-106916500D01*
G75*
G02*
X161929400Y-106766500I0J150000D01*
G01*
X161929400Y-106466500D01*
G75*
G02*
X162079400Y-106316500I150000J0D01*
G01*
X163729400Y-106316500D01*
G75*
G02*
X163879400Y-106466500I0J-150000D01*
G01*
G37*
G36*
G01*
X168829400Y-106466500D02*
X168829400Y-106766500D01*
G75*
G02*
X168679400Y-106916500I-150000J0D01*
G01*
X167029400Y-106916500D01*
G75*
G02*
X166879400Y-106766500I0J150000D01*
G01*
X166879400Y-106466500D01*
G75*
G02*
X167029400Y-106316500I150000J0D01*
G01*
X168679400Y-106316500D01*
G75*
G02*
X168829400Y-106466500I0J-150000D01*
G01*
G37*
G36*
G01*
X168829400Y-105196500D02*
X168829400Y-105496500D01*
G75*
G02*
X168679400Y-105646500I-150000J0D01*
G01*
X167029400Y-105646500D01*
G75*
G02*
X166879400Y-105496500I0J150000D01*
G01*
X166879400Y-105196500D01*
G75*
G02*
X167029400Y-105046500I150000J0D01*
G01*
X168679400Y-105046500D01*
G75*
G02*
X168829400Y-105196500I0J-150000D01*
G01*
G37*
G36*
G01*
X168829400Y-103926500D02*
X168829400Y-104226500D01*
G75*
G02*
X168679400Y-104376500I-150000J0D01*
G01*
X167029400Y-104376500D01*
G75*
G02*
X166879400Y-104226500I0J150000D01*
G01*
X166879400Y-103926500D01*
G75*
G02*
X167029400Y-103776500I150000J0D01*
G01*
X168679400Y-103776500D01*
G75*
G02*
X168829400Y-103926500I0J-150000D01*
G01*
G37*
G36*
G01*
X168829400Y-102656500D02*
X168829400Y-102956500D01*
G75*
G02*
X168679400Y-103106500I-150000J0D01*
G01*
X167029400Y-103106500D01*
G75*
G02*
X166879400Y-102956500I0J150000D01*
G01*
X166879400Y-102656500D01*
G75*
G02*
X167029400Y-102506500I150000J0D01*
G01*
X168679400Y-102506500D01*
G75*
G02*
X168829400Y-102656500I0J-150000D01*
G01*
G37*
G36*
G01*
X142588400Y-92161500D02*
X142588400Y-91861500D01*
G75*
G02*
X142738400Y-91711500I150000J0D01*
G01*
X144488400Y-91711500D01*
G75*
G02*
X144638400Y-91861500I0J-150000D01*
G01*
X144638400Y-92161500D01*
G75*
G02*
X144488400Y-92311500I-150000J0D01*
G01*
X142738400Y-92311500D01*
G75*
G02*
X142588400Y-92161500I0J150000D01*
G01*
G37*
G36*
G01*
X142588400Y-90891500D02*
X142588400Y-90591500D01*
G75*
G02*
X142738400Y-90441500I150000J0D01*
G01*
X144488400Y-90441500D01*
G75*
G02*
X144638400Y-90591500I0J-150000D01*
G01*
X144638400Y-90891500D01*
G75*
G02*
X144488400Y-91041500I-150000J0D01*
G01*
X142738400Y-91041500D01*
G75*
G02*
X142588400Y-90891500I0J150000D01*
G01*
G37*
G36*
G01*
X142588400Y-89621500D02*
X142588400Y-89321500D01*
G75*
G02*
X142738400Y-89171500I150000J0D01*
G01*
X144488400Y-89171500D01*
G75*
G02*
X144638400Y-89321500I0J-150000D01*
G01*
X144638400Y-89621500D01*
G75*
G02*
X144488400Y-89771500I-150000J0D01*
G01*
X142738400Y-89771500D01*
G75*
G02*
X142588400Y-89621500I0J150000D01*
G01*
G37*
G36*
G01*
X142588400Y-88351500D02*
X142588400Y-88051500D01*
G75*
G02*
X142738400Y-87901500I150000J0D01*
G01*
X144488400Y-87901500D01*
G75*
G02*
X144638400Y-88051500I0J-150000D01*
G01*
X144638400Y-88351500D01*
G75*
G02*
X144488400Y-88501500I-150000J0D01*
G01*
X142738400Y-88501500D01*
G75*
G02*
X142588400Y-88351500I0J150000D01*
G01*
G37*
G36*
G01*
X142588400Y-87081500D02*
X142588400Y-86781500D01*
G75*
G02*
X142738400Y-86631500I150000J0D01*
G01*
X144488400Y-86631500D01*
G75*
G02*
X144638400Y-86781500I0J-150000D01*
G01*
X144638400Y-87081500D01*
G75*
G02*
X144488400Y-87231500I-150000J0D01*
G01*
X142738400Y-87231500D01*
G75*
G02*
X142588400Y-87081500I0J150000D01*
G01*
G37*
G36*
G01*
X142588400Y-85811500D02*
X142588400Y-85511500D01*
G75*
G02*
X142738400Y-85361500I150000J0D01*
G01*
X144488400Y-85361500D01*
G75*
G02*
X144638400Y-85511500I0J-150000D01*
G01*
X144638400Y-85811500D01*
G75*
G02*
X144488400Y-85961500I-150000J0D01*
G01*
X142738400Y-85961500D01*
G75*
G02*
X142588400Y-85811500I0J150000D01*
G01*
G37*
G36*
G01*
X142588400Y-84541500D02*
X142588400Y-84241500D01*
G75*
G02*
X142738400Y-84091500I150000J0D01*
G01*
X144488400Y-84091500D01*
G75*
G02*
X144638400Y-84241500I0J-150000D01*
G01*
X144638400Y-84541500D01*
G75*
G02*
X144488400Y-84691500I-150000J0D01*
G01*
X142738400Y-84691500D01*
G75*
G02*
X142588400Y-84541500I0J150000D01*
G01*
G37*
G36*
G01*
X142588400Y-83271500D02*
X142588400Y-82971500D01*
G75*
G02*
X142738400Y-82821500I150000J0D01*
G01*
X144488400Y-82821500D01*
G75*
G02*
X144638400Y-82971500I0J-150000D01*
G01*
X144638400Y-83271500D01*
G75*
G02*
X144488400Y-83421500I-150000J0D01*
G01*
X142738400Y-83421500D01*
G75*
G02*
X142588400Y-83271500I0J150000D01*
G01*
G37*
G36*
G01*
X142588400Y-82001500D02*
X142588400Y-81701500D01*
G75*
G02*
X142738400Y-81551500I150000J0D01*
G01*
X144488400Y-81551500D01*
G75*
G02*
X144638400Y-81701500I0J-150000D01*
G01*
X144638400Y-82001500D01*
G75*
G02*
X144488400Y-82151500I-150000J0D01*
G01*
X142738400Y-82151500D01*
G75*
G02*
X142588400Y-82001500I0J150000D01*
G01*
G37*
G36*
G01*
X133288400Y-82001500D02*
X133288400Y-81701500D01*
G75*
G02*
X133438400Y-81551500I150000J0D01*
G01*
X135188400Y-81551500D01*
G75*
G02*
X135338400Y-81701500I0J-150000D01*
G01*
X135338400Y-82001500D01*
G75*
G02*
X135188400Y-82151500I-150000J0D01*
G01*
X133438400Y-82151500D01*
G75*
G02*
X133288400Y-82001500I0J150000D01*
G01*
G37*
G36*
G01*
X133288400Y-83271500D02*
X133288400Y-82971500D01*
G75*
G02*
X133438400Y-82821500I150000J0D01*
G01*
X135188400Y-82821500D01*
G75*
G02*
X135338400Y-82971500I0J-150000D01*
G01*
X135338400Y-83271500D01*
G75*
G02*
X135188400Y-83421500I-150000J0D01*
G01*
X133438400Y-83421500D01*
G75*
G02*
X133288400Y-83271500I0J150000D01*
G01*
G37*
G36*
G01*
X133288400Y-84541500D02*
X133288400Y-84241500D01*
G75*
G02*
X133438400Y-84091500I150000J0D01*
G01*
X135188400Y-84091500D01*
G75*
G02*
X135338400Y-84241500I0J-150000D01*
G01*
X135338400Y-84541500D01*
G75*
G02*
X135188400Y-84691500I-150000J0D01*
G01*
X133438400Y-84691500D01*
G75*
G02*
X133288400Y-84541500I0J150000D01*
G01*
G37*
G36*
G01*
X133288400Y-85811500D02*
X133288400Y-85511500D01*
G75*
G02*
X133438400Y-85361500I150000J0D01*
G01*
X135188400Y-85361500D01*
G75*
G02*
X135338400Y-85511500I0J-150000D01*
G01*
X135338400Y-85811500D01*
G75*
G02*
X135188400Y-85961500I-150000J0D01*
G01*
X133438400Y-85961500D01*
G75*
G02*
X133288400Y-85811500I0J150000D01*
G01*
G37*
G36*
G01*
X133288400Y-87081500D02*
X133288400Y-86781500D01*
G75*
G02*
X133438400Y-86631500I150000J0D01*
G01*
X135188400Y-86631500D01*
G75*
G02*
X135338400Y-86781500I0J-150000D01*
G01*
X135338400Y-87081500D01*
G75*
G02*
X135188400Y-87231500I-150000J0D01*
G01*
X133438400Y-87231500D01*
G75*
G02*
X133288400Y-87081500I0J150000D01*
G01*
G37*
G36*
G01*
X133288400Y-88351500D02*
X133288400Y-88051500D01*
G75*
G02*
X133438400Y-87901500I150000J0D01*
G01*
X135188400Y-87901500D01*
G75*
G02*
X135338400Y-88051500I0J-150000D01*
G01*
X135338400Y-88351500D01*
G75*
G02*
X135188400Y-88501500I-150000J0D01*
G01*
X133438400Y-88501500D01*
G75*
G02*
X133288400Y-88351500I0J150000D01*
G01*
G37*
G36*
G01*
X133288400Y-89621500D02*
X133288400Y-89321500D01*
G75*
G02*
X133438400Y-89171500I150000J0D01*
G01*
X135188400Y-89171500D01*
G75*
G02*
X135338400Y-89321500I0J-150000D01*
G01*
X135338400Y-89621500D01*
G75*
G02*
X135188400Y-89771500I-150000J0D01*
G01*
X133438400Y-89771500D01*
G75*
G02*
X133288400Y-89621500I0J150000D01*
G01*
G37*
G36*
G01*
X133288400Y-90891500D02*
X133288400Y-90591500D01*
G75*
G02*
X133438400Y-90441500I150000J0D01*
G01*
X135188400Y-90441500D01*
G75*
G02*
X135338400Y-90591500I0J-150000D01*
G01*
X135338400Y-90891500D01*
G75*
G02*
X135188400Y-91041500I-150000J0D01*
G01*
X133438400Y-91041500D01*
G75*
G02*
X133288400Y-90891500I0J150000D01*
G01*
G37*
G36*
G01*
X133288400Y-92161500D02*
X133288400Y-91861500D01*
G75*
G02*
X133438400Y-91711500I150000J0D01*
G01*
X135188400Y-91711500D01*
G75*
G02*
X135338400Y-91861500I0J-150000D01*
G01*
X135338400Y-92161500D01*
G75*
G02*
X135188400Y-92311500I-150000J0D01*
G01*
X133438400Y-92311500D01*
G75*
G02*
X133288400Y-92161500I0J150000D01*
G01*
G37*
X116611400Y-76771500D03*
G36*
G01*
X118111400Y-78826500D02*
X118111400Y-78526500D01*
G75*
G02*
X118261400Y-78376500I150000J0D01*
G01*
X119911400Y-78376500D01*
G75*
G02*
X120061400Y-78526500I0J-150000D01*
G01*
X120061400Y-78826500D01*
G75*
G02*
X119911400Y-78976500I-150000J0D01*
G01*
X118261400Y-78976500D01*
G75*
G02*
X118111400Y-78826500I0J150000D01*
G01*
G37*
G36*
G01*
X118111400Y-77556500D02*
X118111400Y-77256500D01*
G75*
G02*
X118261400Y-77106500I150000J0D01*
G01*
X119911400Y-77106500D01*
G75*
G02*
X120061400Y-77256500I0J-150000D01*
G01*
X120061400Y-77556500D01*
G75*
G02*
X119911400Y-77706500I-150000J0D01*
G01*
X118261400Y-77706500D01*
G75*
G02*
X118111400Y-77556500I0J150000D01*
G01*
G37*
G36*
G01*
X118111400Y-76286500D02*
X118111400Y-75986500D01*
G75*
G02*
X118261400Y-75836500I150000J0D01*
G01*
X119911400Y-75836500D01*
G75*
G02*
X120061400Y-75986500I0J-150000D01*
G01*
X120061400Y-76286500D01*
G75*
G02*
X119911400Y-76436500I-150000J0D01*
G01*
X118261400Y-76436500D01*
G75*
G02*
X118111400Y-76286500I0J150000D01*
G01*
G37*
G36*
G01*
X118111400Y-75016500D02*
X118111400Y-74716500D01*
G75*
G02*
X118261400Y-74566500I150000J0D01*
G01*
X119911400Y-74566500D01*
G75*
G02*
X120061400Y-74716500I0J-150000D01*
G01*
X120061400Y-75016500D01*
G75*
G02*
X119911400Y-75166500I-150000J0D01*
G01*
X118261400Y-75166500D01*
G75*
G02*
X118111400Y-75016500I0J150000D01*
G01*
G37*
G36*
G01*
X113161400Y-75016500D02*
X113161400Y-74716500D01*
G75*
G02*
X113311400Y-74566500I150000J0D01*
G01*
X114961400Y-74566500D01*
G75*
G02*
X115111400Y-74716500I0J-150000D01*
G01*
X115111400Y-75016500D01*
G75*
G02*
X114961400Y-75166500I-150000J0D01*
G01*
X113311400Y-75166500D01*
G75*
G02*
X113161400Y-75016500I0J150000D01*
G01*
G37*
G36*
G01*
X113161400Y-76286500D02*
X113161400Y-75986500D01*
G75*
G02*
X113311400Y-75836500I150000J0D01*
G01*
X114961400Y-75836500D01*
G75*
G02*
X115111400Y-75986500I0J-150000D01*
G01*
X115111400Y-76286500D01*
G75*
G02*
X114961400Y-76436500I-150000J0D01*
G01*
X113311400Y-76436500D01*
G75*
G02*
X113161400Y-76286500I0J150000D01*
G01*
G37*
G36*
G01*
X113161400Y-77556500D02*
X113161400Y-77256500D01*
G75*
G02*
X113311400Y-77106500I150000J0D01*
G01*
X114961400Y-77106500D01*
G75*
G02*
X115111400Y-77256500I0J-150000D01*
G01*
X115111400Y-77556500D01*
G75*
G02*
X114961400Y-77706500I-150000J0D01*
G01*
X113311400Y-77706500D01*
G75*
G02*
X113161400Y-77556500I0J150000D01*
G01*
G37*
G36*
G01*
X113161400Y-78826500D02*
X113161400Y-78526500D01*
G75*
G02*
X113311400Y-78376500I150000J0D01*
G01*
X114961400Y-78376500D01*
G75*
G02*
X115111400Y-78526500I0J-150000D01*
G01*
X115111400Y-78826500D01*
G75*
G02*
X114961400Y-78976500I-150000J0D01*
G01*
X113311400Y-78976500D01*
G75*
G02*
X113161400Y-78826500I0J150000D01*
G01*
G37*
X116673400Y-88697500D03*
G36*
G01*
X118173400Y-90752500D02*
X118173400Y-90452500D01*
G75*
G02*
X118323400Y-90302500I150000J0D01*
G01*
X119973400Y-90302500D01*
G75*
G02*
X120123400Y-90452500I0J-150000D01*
G01*
X120123400Y-90752500D01*
G75*
G02*
X119973400Y-90902500I-150000J0D01*
G01*
X118323400Y-90902500D01*
G75*
G02*
X118173400Y-90752500I0J150000D01*
G01*
G37*
G36*
G01*
X118173400Y-89482500D02*
X118173400Y-89182500D01*
G75*
G02*
X118323400Y-89032500I150000J0D01*
G01*
X119973400Y-89032500D01*
G75*
G02*
X120123400Y-89182500I0J-150000D01*
G01*
X120123400Y-89482500D01*
G75*
G02*
X119973400Y-89632500I-150000J0D01*
G01*
X118323400Y-89632500D01*
G75*
G02*
X118173400Y-89482500I0J150000D01*
G01*
G37*
G36*
G01*
X118173400Y-88212500D02*
X118173400Y-87912500D01*
G75*
G02*
X118323400Y-87762500I150000J0D01*
G01*
X119973400Y-87762500D01*
G75*
G02*
X120123400Y-87912500I0J-150000D01*
G01*
X120123400Y-88212500D01*
G75*
G02*
X119973400Y-88362500I-150000J0D01*
G01*
X118323400Y-88362500D01*
G75*
G02*
X118173400Y-88212500I0J150000D01*
G01*
G37*
G36*
G01*
X118173400Y-86942500D02*
X118173400Y-86642500D01*
G75*
G02*
X118323400Y-86492500I150000J0D01*
G01*
X119973400Y-86492500D01*
G75*
G02*
X120123400Y-86642500I0J-150000D01*
G01*
X120123400Y-86942500D01*
G75*
G02*
X119973400Y-87092500I-150000J0D01*
G01*
X118323400Y-87092500D01*
G75*
G02*
X118173400Y-86942500I0J150000D01*
G01*
G37*
G36*
G01*
X113223400Y-86942500D02*
X113223400Y-86642500D01*
G75*
G02*
X113373400Y-86492500I150000J0D01*
G01*
X115023400Y-86492500D01*
G75*
G02*
X115173400Y-86642500I0J-150000D01*
G01*
X115173400Y-86942500D01*
G75*
G02*
X115023400Y-87092500I-150000J0D01*
G01*
X113373400Y-87092500D01*
G75*
G02*
X113223400Y-86942500I0J150000D01*
G01*
G37*
G36*
G01*
X113223400Y-88212500D02*
X113223400Y-87912500D01*
G75*
G02*
X113373400Y-87762500I150000J0D01*
G01*
X115023400Y-87762500D01*
G75*
G02*
X115173400Y-87912500I0J-150000D01*
G01*
X115173400Y-88212500D01*
G75*
G02*
X115023400Y-88362500I-150000J0D01*
G01*
X113373400Y-88362500D01*
G75*
G02*
X113223400Y-88212500I0J150000D01*
G01*
G37*
G36*
G01*
X113223400Y-89482500D02*
X113223400Y-89182500D01*
G75*
G02*
X113373400Y-89032500I150000J0D01*
G01*
X115023400Y-89032500D01*
G75*
G02*
X115173400Y-89182500I0J-150000D01*
G01*
X115173400Y-89482500D01*
G75*
G02*
X115023400Y-89632500I-150000J0D01*
G01*
X113373400Y-89632500D01*
G75*
G02*
X113223400Y-89482500I0J150000D01*
G01*
G37*
G36*
G01*
X113223400Y-90752500D02*
X113223400Y-90452500D01*
G75*
G02*
X113373400Y-90302500I150000J0D01*
G01*
X115023400Y-90302500D01*
G75*
G02*
X115173400Y-90452500I0J-150000D01*
G01*
X115173400Y-90752500D01*
G75*
G02*
X115023400Y-90902500I-150000J0D01*
G01*
X113373400Y-90902500D01*
G75*
G02*
X113223400Y-90752500I0J150000D01*
G01*
G37*
G36*
G01*
X169536400Y-90322500D02*
X169536400Y-90122500D01*
G75*
G02*
X169636400Y-90022500I100000J0D01*
G01*
X170911400Y-90022500D01*
G75*
G02*
X171011400Y-90122500I0J-100000D01*
G01*
X171011400Y-90322500D01*
G75*
G02*
X170911400Y-90422500I-100000J0D01*
G01*
X169636400Y-90422500D01*
G75*
G02*
X169536400Y-90322500I0J100000D01*
G01*
G37*
G36*
G01*
X169536400Y-89672500D02*
X169536400Y-89472500D01*
G75*
G02*
X169636400Y-89372500I100000J0D01*
G01*
X170911400Y-89372500D01*
G75*
G02*
X171011400Y-89472500I0J-100000D01*
G01*
X171011400Y-89672500D01*
G75*
G02*
X170911400Y-89772500I-100000J0D01*
G01*
X169636400Y-89772500D01*
G75*
G02*
X169536400Y-89672500I0J100000D01*
G01*
G37*
G36*
G01*
X169536400Y-89022500D02*
X169536400Y-88822500D01*
G75*
G02*
X169636400Y-88722500I100000J0D01*
G01*
X170911400Y-88722500D01*
G75*
G02*
X171011400Y-88822500I0J-100000D01*
G01*
X171011400Y-89022500D01*
G75*
G02*
X170911400Y-89122500I-100000J0D01*
G01*
X169636400Y-89122500D01*
G75*
G02*
X169536400Y-89022500I0J100000D01*
G01*
G37*
G36*
G01*
X169536400Y-88372500D02*
X169536400Y-88172500D01*
G75*
G02*
X169636400Y-88072500I100000J0D01*
G01*
X170911400Y-88072500D01*
G75*
G02*
X171011400Y-88172500I0J-100000D01*
G01*
X171011400Y-88372500D01*
G75*
G02*
X170911400Y-88472500I-100000J0D01*
G01*
X169636400Y-88472500D01*
G75*
G02*
X169536400Y-88372500I0J100000D01*
G01*
G37*
G36*
G01*
X169536400Y-87722500D02*
X169536400Y-87522500D01*
G75*
G02*
X169636400Y-87422500I100000J0D01*
G01*
X170911400Y-87422500D01*
G75*
G02*
X171011400Y-87522500I0J-100000D01*
G01*
X171011400Y-87722500D01*
G75*
G02*
X170911400Y-87822500I-100000J0D01*
G01*
X169636400Y-87822500D01*
G75*
G02*
X169536400Y-87722500I0J100000D01*
G01*
G37*
G36*
G01*
X169536400Y-87072500D02*
X169536400Y-86872500D01*
G75*
G02*
X169636400Y-86772500I100000J0D01*
G01*
X170911400Y-86772500D01*
G75*
G02*
X171011400Y-86872500I0J-100000D01*
G01*
X171011400Y-87072500D01*
G75*
G02*
X170911400Y-87172500I-100000J0D01*
G01*
X169636400Y-87172500D01*
G75*
G02*
X169536400Y-87072500I0J100000D01*
G01*
G37*
G36*
G01*
X169536400Y-86422500D02*
X169536400Y-86222500D01*
G75*
G02*
X169636400Y-86122500I100000J0D01*
G01*
X170911400Y-86122500D01*
G75*
G02*
X171011400Y-86222500I0J-100000D01*
G01*
X171011400Y-86422500D01*
G75*
G02*
X170911400Y-86522500I-100000J0D01*
G01*
X169636400Y-86522500D01*
G75*
G02*
X169536400Y-86422500I0J100000D01*
G01*
G37*
G36*
G01*
X169536400Y-85772500D02*
X169536400Y-85572500D01*
G75*
G02*
X169636400Y-85472500I100000J0D01*
G01*
X170911400Y-85472500D01*
G75*
G02*
X171011400Y-85572500I0J-100000D01*
G01*
X171011400Y-85772500D01*
G75*
G02*
X170911400Y-85872500I-100000J0D01*
G01*
X169636400Y-85872500D01*
G75*
G02*
X169536400Y-85772500I0J100000D01*
G01*
G37*
G36*
G01*
X163811400Y-85772500D02*
X163811400Y-85572500D01*
G75*
G02*
X163911400Y-85472500I100000J0D01*
G01*
X165186400Y-85472500D01*
G75*
G02*
X165286400Y-85572500I0J-100000D01*
G01*
X165286400Y-85772500D01*
G75*
G02*
X165186400Y-85872500I-100000J0D01*
G01*
X163911400Y-85872500D01*
G75*
G02*
X163811400Y-85772500I0J100000D01*
G01*
G37*
G36*
G01*
X163811400Y-86422500D02*
X163811400Y-86222500D01*
G75*
G02*
X163911400Y-86122500I100000J0D01*
G01*
X165186400Y-86122500D01*
G75*
G02*
X165286400Y-86222500I0J-100000D01*
G01*
X165286400Y-86422500D01*
G75*
G02*
X165186400Y-86522500I-100000J0D01*
G01*
X163911400Y-86522500D01*
G75*
G02*
X163811400Y-86422500I0J100000D01*
G01*
G37*
G36*
G01*
X163811400Y-87072500D02*
X163811400Y-86872500D01*
G75*
G02*
X163911400Y-86772500I100000J0D01*
G01*
X165186400Y-86772500D01*
G75*
G02*
X165286400Y-86872500I0J-100000D01*
G01*
X165286400Y-87072500D01*
G75*
G02*
X165186400Y-87172500I-100000J0D01*
G01*
X163911400Y-87172500D01*
G75*
G02*
X163811400Y-87072500I0J100000D01*
G01*
G37*
G36*
G01*
X163811400Y-87722500D02*
X163811400Y-87522500D01*
G75*
G02*
X163911400Y-87422500I100000J0D01*
G01*
X165186400Y-87422500D01*
G75*
G02*
X165286400Y-87522500I0J-100000D01*
G01*
X165286400Y-87722500D01*
G75*
G02*
X165186400Y-87822500I-100000J0D01*
G01*
X163911400Y-87822500D01*
G75*
G02*
X163811400Y-87722500I0J100000D01*
G01*
G37*
G36*
G01*
X163811400Y-88372500D02*
X163811400Y-88172500D01*
G75*
G02*
X163911400Y-88072500I100000J0D01*
G01*
X165186400Y-88072500D01*
G75*
G02*
X165286400Y-88172500I0J-100000D01*
G01*
X165286400Y-88372500D01*
G75*
G02*
X165186400Y-88472500I-100000J0D01*
G01*
X163911400Y-88472500D01*
G75*
G02*
X163811400Y-88372500I0J100000D01*
G01*
G37*
G36*
G01*
X163811400Y-89022500D02*
X163811400Y-88822500D01*
G75*
G02*
X163911400Y-88722500I100000J0D01*
G01*
X165186400Y-88722500D01*
G75*
G02*
X165286400Y-88822500I0J-100000D01*
G01*
X165286400Y-89022500D01*
G75*
G02*
X165186400Y-89122500I-100000J0D01*
G01*
X163911400Y-89122500D01*
G75*
G02*
X163811400Y-89022500I0J100000D01*
G01*
G37*
G36*
G01*
X163811400Y-89672500D02*
X163811400Y-89472500D01*
G75*
G02*
X163911400Y-89372500I100000J0D01*
G01*
X165186400Y-89372500D01*
G75*
G02*
X165286400Y-89472500I0J-100000D01*
G01*
X165286400Y-89672500D01*
G75*
G02*
X165186400Y-89772500I-100000J0D01*
G01*
X163911400Y-89772500D01*
G75*
G02*
X163811400Y-89672500I0J100000D01*
G01*
G37*
G36*
G01*
X163811400Y-90322500D02*
X163811400Y-90122500D01*
G75*
G02*
X163911400Y-90022500I100000J0D01*
G01*
X165186400Y-90022500D01*
G75*
G02*
X165286400Y-90122500I0J-100000D01*
G01*
X165286400Y-90322500D01*
G75*
G02*
X165186400Y-90422500I-100000J0D01*
G01*
X163911400Y-90422500D01*
G75*
G02*
X163811400Y-90322500I0J100000D01*
G01*
G37*
G36*
G01*
X172016400Y-105227500D02*
X172966400Y-105227500D01*
G75*
G02*
X173216400Y-105477500I0J-250000D01*
G01*
X173216400Y-105977500D01*
G75*
G02*
X172966400Y-106227500I-250000J0D01*
G01*
X172016400Y-106227500D01*
G75*
G02*
X171766400Y-105977500I0J250000D01*
G01*
X171766400Y-105477500D01*
G75*
G02*
X172016400Y-105227500I250000J0D01*
G01*
G37*
G36*
G01*
X172016400Y-103327500D02*
X172966400Y-103327500D01*
G75*
G02*
X173216400Y-103577500I0J-250000D01*
G01*
X173216400Y-104077500D01*
G75*
G02*
X172966400Y-104327500I-250000J0D01*
G01*
X172016400Y-104327500D01*
G75*
G02*
X171766400Y-104077500I0J250000D01*
G01*
X171766400Y-103577500D01*
G75*
G02*
X172016400Y-103327500I250000J0D01*
G01*
G37*
G36*
G01*
X138397400Y-117378500D02*
X138397400Y-116428500D01*
G75*
G02*
X138647400Y-116178500I250000J0D01*
G01*
X139147400Y-116178500D01*
G75*
G02*
X139397400Y-116428500I0J-250000D01*
G01*
X139397400Y-117378500D01*
G75*
G02*
X139147400Y-117628500I-250000J0D01*
G01*
X138647400Y-117628500D01*
G75*
G02*
X138397400Y-117378500I0J250000D01*
G01*
G37*
G36*
G01*
X136497400Y-117378500D02*
X136497400Y-116428500D01*
G75*
G02*
X136747400Y-116178500I250000J0D01*
G01*
X137247400Y-116178500D01*
G75*
G02*
X137497400Y-116428500I0J-250000D01*
G01*
X137497400Y-117378500D01*
G75*
G02*
X137247400Y-117628500I-250000J0D01*
G01*
X136747400Y-117628500D01*
G75*
G02*
X136497400Y-117378500I0J250000D01*
G01*
G37*
G36*
G01*
X138522400Y-95425499D02*
X138522400Y-96725501D01*
G75*
G02*
X138272401Y-96975500I-249999J0D01*
G01*
X137622399Y-96975500D01*
G75*
G02*
X137372400Y-96725501I0J249999D01*
G01*
X137372400Y-95425499D01*
G75*
G02*
X137622399Y-95175500I249999J0D01*
G01*
X138272401Y-95175500D01*
G75*
G02*
X138522400Y-95425499I0J-249999D01*
G01*
G37*
G36*
G01*
X141472400Y-95425499D02*
X141472400Y-96725501D01*
G75*
G02*
X141222401Y-96975500I-249999J0D01*
G01*
X140572399Y-96975500D01*
G75*
G02*
X140322400Y-96725501I0J249999D01*
G01*
X140322400Y-95425499D01*
G75*
G02*
X140572399Y-95175500I249999J0D01*
G01*
X141222401Y-95175500D01*
G75*
G02*
X141472400Y-95425499I0J-249999D01*
G01*
G37*
G36*
G01*
X139921400Y-101630500D02*
X139921400Y-100680500D01*
G75*
G02*
X140171400Y-100430500I250000J0D01*
G01*
X140671400Y-100430500D01*
G75*
G02*
X140921400Y-100680500I0J-250000D01*
G01*
X140921400Y-101630500D01*
G75*
G02*
X140671400Y-101880500I-250000J0D01*
G01*
X140171400Y-101880500D01*
G75*
G02*
X139921400Y-101630500I0J250000D01*
G01*
G37*
G36*
G01*
X138021400Y-101630500D02*
X138021400Y-100680500D01*
G75*
G02*
X138271400Y-100430500I250000J0D01*
G01*
X138771400Y-100430500D01*
G75*
G02*
X139021400Y-100680500I0J-250000D01*
G01*
X139021400Y-101630500D01*
G75*
G02*
X138771400Y-101880500I-250000J0D01*
G01*
X138271400Y-101880500D01*
G75*
G02*
X138021400Y-101630500I0J250000D01*
G01*
G37*
G36*
G01*
X108516400Y-77221500D02*
X109466400Y-77221500D01*
G75*
G02*
X109716400Y-77471500I0J-250000D01*
G01*
X109716400Y-77971500D01*
G75*
G02*
X109466400Y-78221500I-250000J0D01*
G01*
X108516400Y-78221500D01*
G75*
G02*
X108266400Y-77971500I0J250000D01*
G01*
X108266400Y-77471500D01*
G75*
G02*
X108516400Y-77221500I250000J0D01*
G01*
G37*
G36*
G01*
X108516400Y-75321500D02*
X109466400Y-75321500D01*
G75*
G02*
X109716400Y-75571500I0J-250000D01*
G01*
X109716400Y-76071500D01*
G75*
G02*
X109466400Y-76321500I-250000J0D01*
G01*
X108516400Y-76321500D01*
G75*
G02*
X108266400Y-76071500I0J250000D01*
G01*
X108266400Y-75571500D01*
G75*
G02*
X108516400Y-75321500I250000J0D01*
G01*
G37*
G36*
G01*
X94480400Y-72191500D02*
X93530400Y-72191500D01*
G75*
G02*
X93280400Y-71941500I0J250000D01*
G01*
X93280400Y-71441500D01*
G75*
G02*
X93530400Y-71191500I250000J0D01*
G01*
X94480400Y-71191500D01*
G75*
G02*
X94730400Y-71441500I0J-250000D01*
G01*
X94730400Y-71941500D01*
G75*
G02*
X94480400Y-72191500I-250000J0D01*
G01*
G37*
G36*
G01*
X94480400Y-74091500D02*
X93530400Y-74091500D01*
G75*
G02*
X93280400Y-73841500I0J250000D01*
G01*
X93280400Y-73341500D01*
G75*
G02*
X93530400Y-73091500I250000J0D01*
G01*
X94480400Y-73091500D01*
G75*
G02*
X94730400Y-73341500I0J-250000D01*
G01*
X94730400Y-73841500D01*
G75*
G02*
X94480400Y-74091500I-250000J0D01*
G01*
G37*
G36*
G01*
X94480400Y-90799500D02*
X93530400Y-90799500D01*
G75*
G02*
X93280400Y-90549500I0J250000D01*
G01*
X93280400Y-90049500D01*
G75*
G02*
X93530400Y-89799500I250000J0D01*
G01*
X94480400Y-89799500D01*
G75*
G02*
X94730400Y-90049500I0J-250000D01*
G01*
X94730400Y-90549500D01*
G75*
G02*
X94480400Y-90799500I-250000J0D01*
G01*
G37*
G36*
G01*
X94480400Y-92699500D02*
X93530400Y-92699500D01*
G75*
G02*
X93280400Y-92449500I0J250000D01*
G01*
X93280400Y-91949500D01*
G75*
G02*
X93530400Y-91699500I250000J0D01*
G01*
X94480400Y-91699500D01*
G75*
G02*
X94730400Y-91949500I0J-250000D01*
G01*
X94730400Y-92449500D01*
G75*
G02*
X94480400Y-92699500I-250000J0D01*
G01*
G37*
G36*
G01*
X166961400Y-93060500D02*
X166961400Y-94010500D01*
G75*
G02*
X166711400Y-94260500I-250000J0D01*
G01*
X166211400Y-94260500D01*
G75*
G02*
X165961400Y-94010500I0J250000D01*
G01*
X165961400Y-93060500D01*
G75*
G02*
X166211400Y-92810500I250000J0D01*
G01*
X166711400Y-92810500D01*
G75*
G02*
X166961400Y-93060500I0J-250000D01*
G01*
G37*
G36*
G01*
X168861400Y-93060500D02*
X168861400Y-94010500D01*
G75*
G02*
X168611400Y-94260500I-250000J0D01*
G01*
X168111400Y-94260500D01*
G75*
G02*
X167861400Y-94010500I0J250000D01*
G01*
X167861400Y-93060500D01*
G75*
G02*
X168111400Y-92810500I250000J0D01*
G01*
X168611400Y-92810500D01*
G75*
G02*
X168861400Y-93060500I0J-250000D01*
G01*
G37*
G36*
G01*
X173540400Y-90429500D02*
X174490400Y-90429500D01*
G75*
G02*
X174740400Y-90679500I0J-250000D01*
G01*
X174740400Y-91179500D01*
G75*
G02*
X174490400Y-91429500I-250000J0D01*
G01*
X173540400Y-91429500D01*
G75*
G02*
X173290400Y-91179500I0J250000D01*
G01*
X173290400Y-90679500D01*
G75*
G02*
X173540400Y-90429500I250000J0D01*
G01*
G37*
G36*
G01*
X173540400Y-88529500D02*
X174490400Y-88529500D01*
G75*
G02*
X174740400Y-88779500I0J-250000D01*
G01*
X174740400Y-89279500D01*
G75*
G02*
X174490400Y-89529500I-250000J0D01*
G01*
X173540400Y-89529500D01*
G75*
G02*
X173290400Y-89279500I0J250000D01*
G01*
X173290400Y-88779500D01*
G75*
G02*
X173540400Y-88529500I250000J0D01*
G01*
G37*
G36*
G01*
X167861400Y-82834500D02*
X167861400Y-81884500D01*
G75*
G02*
X168111400Y-81634500I250000J0D01*
G01*
X168611400Y-81634500D01*
G75*
G02*
X168861400Y-81884500I0J-250000D01*
G01*
X168861400Y-82834500D01*
G75*
G02*
X168611400Y-83084500I-250000J0D01*
G01*
X168111400Y-83084500D01*
G75*
G02*
X167861400Y-82834500I0J250000D01*
G01*
G37*
G36*
G01*
X165961400Y-82834500D02*
X165961400Y-81884500D01*
G75*
G02*
X166211400Y-81634500I250000J0D01*
G01*
X166711400Y-81634500D01*
G75*
G02*
X166961400Y-81884500I0J-250000D01*
G01*
X166961400Y-82834500D01*
G75*
G02*
X166711400Y-83084500I-250000J0D01*
G01*
X166211400Y-83084500D01*
G75*
G02*
X165961400Y-82834500I0J250000D01*
G01*
G37*
G36*
G01*
X160332400Y-85857500D02*
X161282400Y-85857500D01*
G75*
G02*
X161532400Y-86107500I0J-250000D01*
G01*
X161532400Y-86607500D01*
G75*
G02*
X161282400Y-86857500I-250000J0D01*
G01*
X160332400Y-86857500D01*
G75*
G02*
X160082400Y-86607500I0J250000D01*
G01*
X160082400Y-86107500D01*
G75*
G02*
X160332400Y-85857500I250000J0D01*
G01*
G37*
G36*
G01*
X160332400Y-83957500D02*
X161282400Y-83957500D01*
G75*
G02*
X161532400Y-84207500I0J-250000D01*
G01*
X161532400Y-84707500D01*
G75*
G02*
X161282400Y-84957500I-250000J0D01*
G01*
X160332400Y-84957500D01*
G75*
G02*
X160082400Y-84707500I0J250000D01*
G01*
X160082400Y-84207500D01*
G75*
G02*
X160332400Y-83957500I250000J0D01*
G01*
G37*
G36*
G01*
X161282400Y-90103500D02*
X160332400Y-90103500D01*
G75*
G02*
X160082400Y-89853500I0J250000D01*
G01*
X160082400Y-89353500D01*
G75*
G02*
X160332400Y-89103500I250000J0D01*
G01*
X161282400Y-89103500D01*
G75*
G02*
X161532400Y-89353500I0J-250000D01*
G01*
X161532400Y-89853500D01*
G75*
G02*
X161282400Y-90103500I-250000J0D01*
G01*
G37*
G36*
G01*
X161282400Y-92003500D02*
X160332400Y-92003500D01*
G75*
G02*
X160082400Y-91753500I0J250000D01*
G01*
X160082400Y-91253500D01*
G75*
G02*
X160332400Y-91003500I250000J0D01*
G01*
X161282400Y-91003500D01*
G75*
G02*
X161532400Y-91253500I0J-250000D01*
G01*
X161532400Y-91753500D01*
G75*
G02*
X161282400Y-92003500I-250000J0D01*
G01*
G37*
M02*
