%TF.GenerationSoftware,KiCad,Pcbnew,(6.0.7-1)-1*%
%TF.CreationDate,2022-11-19T17:58:52-08:00*%
%TF.ProjectId,telemetry-pcb,74656c65-6d65-4747-9279-2d7063622e6b,rev?*%
%TF.SameCoordinates,Original*%
%TF.FileFunction,Paste,Bot*%
%TF.FilePolarity,Positive*%
%FSLAX46Y46*%
G04 Gerber Fmt 4.6, Leading zero omitted, Abs format (unit mm)*
G04 Created by KiCad (PCBNEW (6.0.7-1)-1) date 2022-11-19 17:58:52*
%MOMM*%
%LPD*%
G01*
G04 APERTURE LIST*
G04 Aperture macros list*
%AMRoundRect*
0 Rectangle with rounded corners*
0 $1 Rounding radius*
0 $2 $3 $4 $5 $6 $7 $8 $9 X,Y pos of 4 corners*
0 Add a 4 corners polygon primitive as box body*
4,1,4,$2,$3,$4,$5,$6,$7,$8,$9,$2,$3,0*
0 Add four circle primitives for the rounded corners*
1,1,$1+$1,$2,$3*
1,1,$1+$1,$4,$5*
1,1,$1+$1,$6,$7*
1,1,$1+$1,$8,$9*
0 Add four rect primitives between the rounded corners*
20,1,$1+$1,$2,$3,$4,$5,0*
20,1,$1+$1,$4,$5,$6,$7,0*
20,1,$1+$1,$6,$7,$8,$9,0*
20,1,$1+$1,$8,$9,$2,$3,0*%
G04 Aperture macros list end*
%ADD10RoundRect,0.250000X0.475000X-0.250000X0.475000X0.250000X-0.475000X0.250000X-0.475000X-0.250000X0*%
%ADD11RoundRect,0.250000X-0.475000X0.250000X-0.475000X-0.250000X0.475000X-0.250000X0.475000X0.250000X0*%
%ADD12RoundRect,0.250000X-0.250000X-0.475000X0.250000X-0.475000X0.250000X0.475000X-0.250000X0.475000X0*%
%ADD13RoundRect,0.250000X0.250000X0.475000X-0.250000X0.475000X-0.250000X-0.475000X0.250000X-0.475000X0*%
%ADD14RoundRect,0.249999X0.325001X0.650001X-0.325001X0.650001X-0.325001X-0.650001X0.325001X-0.650001X0*%
%ADD15RoundRect,0.100000X-0.637500X-0.100000X0.637500X-0.100000X0.637500X0.100000X-0.637500X0.100000X0*%
%ADD16RoundRect,0.230000X-0.230000X-0.375000X0.230000X-0.375000X0.230000X0.375000X-0.230000X0.375000X0*%
%ADD17RoundRect,0.150000X-0.825000X-0.150000X0.825000X-0.150000X0.825000X0.150000X-0.825000X0.150000X0*%
%ADD18RoundRect,0.150000X-0.875000X-0.150000X0.875000X-0.150000X0.875000X0.150000X-0.875000X0.150000X0*%
%ADD19RoundRect,0.230000X0.230000X0.375000X-0.230000X0.375000X-0.230000X-0.375000X0.230000X-0.375000X0*%
%ADD20RoundRect,0.150000X0.825000X0.150000X-0.825000X0.150000X-0.825000X-0.150000X0.825000X-0.150000X0*%
%ADD21R,0.576580X0.351536*%
%ADD22R,0.351536X0.576580*%
%ADD23RoundRect,0.249999X0.262501X0.450001X-0.262501X0.450001X-0.262501X-0.450001X0.262501X-0.450001X0*%
%ADD24RoundRect,0.249999X-0.262501X-0.450001X0.262501X-0.450001X0.262501X0.450001X-0.262501X0.450001X0*%
%ADD25RoundRect,0.249999X-0.450001X0.262501X-0.450001X-0.262501X0.450001X-0.262501X0.450001X0.262501X0*%
G04 APERTURE END LIST*
D10*
X160807400Y-91503500D03*
X160807400Y-89603500D03*
D11*
X160807400Y-84457500D03*
X160807400Y-86357500D03*
D12*
X166461400Y-82359500D03*
X168361400Y-82359500D03*
D11*
X174015400Y-89029500D03*
X174015400Y-90929500D03*
D13*
X168361400Y-93535500D03*
X166461400Y-93535500D03*
D10*
X94005400Y-92199500D03*
X94005400Y-90299500D03*
X94005400Y-73591500D03*
X94005400Y-71691500D03*
D11*
X108991400Y-87505500D03*
X108991400Y-89405500D03*
X108991400Y-75821500D03*
X108991400Y-77721500D03*
D12*
X138521400Y-101155500D03*
X140421400Y-101155500D03*
D14*
X140897400Y-96075500D03*
X137947400Y-96075500D03*
D12*
X136997400Y-116903500D03*
X138897400Y-116903500D03*
D11*
X172491400Y-103827500D03*
X172491400Y-105727500D03*
D15*
X164548900Y-90222500D03*
X164548900Y-89572500D03*
X164548900Y-88922500D03*
X164548900Y-88272500D03*
X164548900Y-87622500D03*
X164548900Y-86972500D03*
X164548900Y-86322500D03*
X164548900Y-85672500D03*
X170273900Y-85672500D03*
X170273900Y-86322500D03*
X170273900Y-86972500D03*
X170273900Y-87622500D03*
X170273900Y-88272500D03*
X170273900Y-88922500D03*
X170273900Y-89572500D03*
X170273900Y-90222500D03*
D16*
X116103400Y-87947500D03*
X117243400Y-87947500D03*
X116103400Y-89447500D03*
X117243400Y-89447500D03*
D17*
X114198400Y-90602500D03*
X114198400Y-89332500D03*
X114198400Y-88062500D03*
X114198400Y-86792500D03*
X119148400Y-86792500D03*
X119148400Y-88062500D03*
X119148400Y-89332500D03*
X119148400Y-90602500D03*
D16*
X117181400Y-77521500D03*
X116041400Y-77521500D03*
X116041400Y-76021500D03*
X117181400Y-76021500D03*
D17*
X114136400Y-78676500D03*
X114136400Y-77406500D03*
X114136400Y-76136500D03*
X114136400Y-74866500D03*
X119086400Y-74866500D03*
X119086400Y-76136500D03*
X119086400Y-77406500D03*
X119086400Y-78676500D03*
D18*
X134313400Y-92011500D03*
X134313400Y-90741500D03*
X134313400Y-89471500D03*
X134313400Y-88201500D03*
X134313400Y-86931500D03*
X134313400Y-85661500D03*
X134313400Y-84391500D03*
X134313400Y-83121500D03*
X134313400Y-81851500D03*
X143613400Y-81851500D03*
X143613400Y-83121500D03*
X143613400Y-84391500D03*
X143613400Y-85661500D03*
X143613400Y-86931500D03*
X143613400Y-88201500D03*
X143613400Y-89471500D03*
X143613400Y-90741500D03*
X143613400Y-92011500D03*
D19*
X165949400Y-105461500D03*
X165949400Y-103961500D03*
X164809400Y-105461500D03*
X164809400Y-103961500D03*
D20*
X167854400Y-102806500D03*
X167854400Y-104076500D03*
X167854400Y-105346500D03*
X167854400Y-106616500D03*
X162904400Y-106616500D03*
X162904400Y-105346500D03*
X162904400Y-104076500D03*
X162904400Y-102806500D03*
D21*
X136737100Y-122225501D03*
X136737100Y-121725500D03*
X136737100Y-121225500D03*
X136737100Y-120725499D03*
D22*
X137447401Y-120519200D03*
X137947400Y-120519200D03*
X138447399Y-120519200D03*
D21*
X139157700Y-120725499D03*
X139157700Y-121225500D03*
X139157700Y-121725500D03*
X139157700Y-122225501D03*
D22*
X138447399Y-122431800D03*
X137947400Y-122431800D03*
X137447401Y-122431800D03*
D23*
X139772400Y-77787500D03*
X137947400Y-77787500D03*
D24*
X184175400Y-76771500D03*
X186000400Y-76771500D03*
D25*
X185191400Y-87439500D03*
X185191400Y-89264500D03*
M02*
