%TF.GenerationSoftware,KiCad,Pcbnew,(6.0.7-1)-1*%
%TF.CreationDate,2022-11-19T18:21:17-08:00*%
%TF.ProjectId,telemetry-pcb,74656c65-6d65-4747-9279-2d7063622e6b,rev?*%
%TF.SameCoordinates,Original*%
%TF.FileFunction,Soldermask,Top*%
%TF.FilePolarity,Negative*%
%FSLAX46Y46*%
G04 Gerber Fmt 4.6, Leading zero omitted, Abs format (unit mm)*
G04 Created by KiCad (PCBNEW (6.0.7-1)-1) date 2022-11-19 18:21:17*
%MOMM*%
%LPD*%
G01*
G04 APERTURE LIST*
G04 Aperture macros list*
%AMRoundRect*
0 Rectangle with rounded corners*
0 $1 Rounding radius*
0 $2 $3 $4 $5 $6 $7 $8 $9 X,Y pos of 4 corners*
0 Add a 4 corners polygon primitive as box body*
4,1,4,$2,$3,$4,$5,$6,$7,$8,$9,$2,$3,0*
0 Add four circle primitives for the rounded corners*
1,1,$1+$1,$2,$3*
1,1,$1+$1,$4,$5*
1,1,$1+$1,$6,$7*
1,1,$1+$1,$8,$9*
0 Add four rect primitives between the rounded corners*
20,1,$1+$1,$2,$3,$4,$5,0*
20,1,$1+$1,$4,$5,$6,$7,0*
20,1,$1+$1,$6,$7,$8,$9,0*
20,1,$1+$1,$8,$9,$2,$3,0*%
G04 Aperture macros list end*
%ADD10RoundRect,0.250000X-0.250000X-0.475000X0.250000X-0.475000X0.250000X0.475000X-0.250000X0.475000X0*%
%ADD11C,2.000000*%
%ADD12RoundRect,0.243750X0.243750X0.456250X-0.243750X0.456250X-0.243750X-0.456250X0.243750X-0.456250X0*%
%ADD13RoundRect,0.249999X-0.262501X-0.450001X0.262501X-0.450001X0.262501X0.450001X-0.262501X0.450001X0*%
%ADD14RoundRect,0.249999X0.262501X0.450001X-0.262501X0.450001X-0.262501X-0.450001X0.262501X-0.450001X0*%
%ADD15C,1.400000*%
%ADD16R,1.700000X1.700000*%
%ADD17O,1.700000X1.700000*%
%ADD18R,2.000000X4.500000*%
%ADD19C,3.556000*%
%ADD20C,1.524000*%
%ADD21RoundRect,0.250000X1.500000X0.550000X-1.500000X0.550000X-1.500000X-0.550000X1.500000X-0.550000X0*%
%ADD22C,3.400000*%
%ADD23R,1.690000X1.690000*%
%ADD24C,1.690000*%
%ADD25C,3.454400*%
%ADD26C,1.676400*%
%ADD27R,2.500000X1.800000*%
%ADD28R,4.241800X3.810000*%
%ADD29C,4.000000*%
%ADD30C,3.300000*%
%ADD31RoundRect,0.101600X-0.939800X0.939800X-0.939800X-0.939800X0.939800X-0.939800X0.939800X0.939800X0*%
%ADD32C,2.082800*%
%ADD33RoundRect,0.249999X0.450001X-0.262501X0.450001X0.262501X-0.450001X0.262501X-0.450001X-0.262501X0*%
%ADD34RoundRect,0.150000X-0.150000X-0.700000X0.150000X-0.700000X0.150000X0.700000X-0.150000X0.700000X0*%
%ADD35RoundRect,0.250000X-0.250000X-1.100000X0.250000X-1.100000X0.250000X1.100000X-0.250000X1.100000X0*%
%ADD36R,1.600000X1.600000*%
%ADD37C,1.600000*%
G04 APERTURE END LIST*
D10*
X141569400Y-113855500D03*
X143469400Y-113855500D03*
X141569400Y-99123500D03*
X143469400Y-99123500D03*
D11*
X98069400Y-89499500D03*
X98069400Y-92999500D03*
X98069400Y-71211500D03*
X98069400Y-74711500D03*
D12*
X169364900Y-111823500D03*
X167489900Y-111823500D03*
X169364900Y-105727500D03*
X167489900Y-105727500D03*
X169364900Y-99631500D03*
X167489900Y-99631500D03*
D13*
X162434900Y-111823500D03*
X164259900Y-111823500D03*
X162434900Y-105727500D03*
X164259900Y-105727500D03*
D14*
X164259900Y-99631500D03*
X162434900Y-99631500D03*
D15*
X123723400Y-121475500D03*
X121183400Y-121475500D03*
D16*
X152171400Y-118645500D03*
D17*
X152171400Y-115887500D03*
X152171400Y-113347500D03*
X152171400Y-110807500D03*
X152171400Y-108267500D03*
X152171400Y-105727500D03*
X152171400Y-103187500D03*
X152171400Y-100647500D03*
X152171400Y-98107500D03*
X152171400Y-95567500D03*
X152171400Y-93027500D03*
X152171400Y-90487500D03*
X152171400Y-87947500D03*
X152171400Y-85407500D03*
X152171400Y-82867500D03*
D16*
X124739400Y-108775500D03*
D17*
X124739400Y-106235500D03*
X124739400Y-103695500D03*
X124739400Y-101155500D03*
X124739400Y-98615500D03*
X124739400Y-96075500D03*
X124739400Y-93535500D03*
X124739400Y-90995500D03*
X124739400Y-88455500D03*
X124739400Y-85915500D03*
X124739400Y-83375500D03*
X124739400Y-80835500D03*
D15*
X186207400Y-68135500D03*
X183667400Y-68135500D03*
D18*
X133883400Y-108961500D03*
X133883400Y-100461500D03*
D19*
X147345400Y-122491500D03*
X129565400Y-76771500D03*
X147345400Y-76771500D03*
X129565400Y-122491500D03*
D20*
X148615400Y-116141500D03*
X148615400Y-80581500D03*
X148615400Y-108521500D03*
X148615400Y-105981500D03*
X148615400Y-103441500D03*
X148615400Y-100901500D03*
X148615400Y-98361500D03*
X148615400Y-95821500D03*
X128295400Y-85661500D03*
X128295400Y-88201500D03*
X128295400Y-90741500D03*
X128295400Y-93281500D03*
X128295400Y-95821500D03*
X128295400Y-98361500D03*
X128295400Y-100901500D03*
X128295400Y-105981500D03*
X148615400Y-111061500D03*
X128295400Y-108521500D03*
X148615400Y-113601500D03*
X148615400Y-88201500D03*
X148615400Y-90741500D03*
X148615400Y-118681500D03*
X148615400Y-85661500D03*
X148615400Y-93281500D03*
X128295400Y-83121500D03*
X128295400Y-80581500D03*
X148615400Y-83121500D03*
X128295400Y-103441500D03*
D21*
X119665400Y-114363500D03*
X114065400Y-114363500D03*
D22*
X107721400Y-120464500D03*
X102641400Y-120464500D03*
D23*
X106451400Y-111824500D03*
D24*
X103911400Y-111824500D03*
D25*
X131089400Y-59495499D03*
X141249400Y-59495499D03*
D26*
X132359400Y-68135500D03*
X134899400Y-68135500D03*
X137439400Y-68135500D03*
X139979400Y-68135500D03*
D22*
X185196400Y-113093500D03*
X185196400Y-105473500D03*
D23*
X176556400Y-106743500D03*
D24*
X176556400Y-109283500D03*
X176556400Y-111823500D03*
D22*
X185196400Y-93281500D03*
X185196400Y-100901500D03*
D23*
X176556400Y-94551500D03*
D24*
X176556400Y-97091500D03*
X176556400Y-99631500D03*
D27*
X114039400Y-103187500D03*
X110039400Y-103187500D03*
D28*
X93865700Y-104965500D03*
X100241100Y-104965500D03*
D16*
X109499400Y-67627500D03*
D17*
X109499400Y-65087500D03*
X112039400Y-67627500D03*
X112039400Y-65087500D03*
D16*
X117119400Y-67627500D03*
D17*
X117119400Y-65087500D03*
X119659400Y-67627500D03*
X119659400Y-65087500D03*
X122199400Y-67627500D03*
X122199400Y-65087500D03*
D12*
X116024900Y-93535500D03*
X114149900Y-93535500D03*
D29*
X95000000Y-60000000D03*
X95000000Y-120000000D03*
X185000000Y-60000000D03*
X185000000Y-120000000D03*
D30*
X170459400Y-76761500D03*
D11*
X178079400Y-79301500D03*
X178079400Y-74221500D03*
D31*
X175539400Y-78041500D03*
D32*
X175539400Y-75501500D03*
D33*
X143535400Y-109688000D03*
X143535400Y-107863000D03*
D13*
X109094900Y-93535500D03*
X110919900Y-93535500D03*
D33*
X143535400Y-105116000D03*
X143535400Y-103291000D03*
D11*
X156743400Y-122927500D03*
X156743400Y-118427500D03*
X163243400Y-118427500D03*
X163243400Y-122927500D03*
D15*
X92735400Y-112331500D03*
X95275400Y-112331500D03*
X178587400Y-122491500D03*
X178587400Y-119951500D03*
D16*
X179603400Y-84391500D03*
D17*
X179603400Y-86931500D03*
D34*
X168838400Y-119625500D03*
X170088400Y-119625500D03*
X171338400Y-119625500D03*
X172588400Y-119625500D03*
D35*
X166988400Y-122825500D03*
X174438400Y-122825500D03*
D29*
X175037400Y-64175500D03*
X150037400Y-64175500D03*
D36*
X156997400Y-65595500D03*
D37*
X159767400Y-65595500D03*
X162537400Y-65595500D03*
X165307400Y-65595500D03*
X168077400Y-65595500D03*
X158382400Y-62755500D03*
X161152400Y-62755500D03*
X163922400Y-62755500D03*
X166692400Y-62755500D03*
M02*
