%TF.GenerationSoftware,KiCad,Pcbnew,(6.0.7-1)-1*%
%TF.CreationDate,2022-11-19T18:22:33-08:00*%
%TF.ProjectId,telemetry-pcb,74656c65-6d65-4747-9279-2d7063622e6b,rev?*%
%TF.SameCoordinates,Original*%
%TF.FileFunction,Drillmap*%
%TF.FilePolarity,Positive*%
%FSLAX45Y45*%
G04 Gerber Fmt 4.5, Leading zero omitted, Abs format (unit mm)*
G04 Created by KiCad (PCBNEW (6.0.7-1)-1) date 2022-11-19 18:22:33*
%MOMM*%
%LPD*%
G01*
G04 APERTURE LIST*
%ADD10C,0.100000*%
%ADD11C,0.200000*%
%ADD12C,0.254000*%
%ADD13C,0.330000*%
%ADD14C,0.340000*%
%ADD15C,0.345440*%
G04 APERTURE END LIST*
D10*
X9000000Y-12000000D02*
G75*
G03*
X9500000Y-12500000I500000J0D01*
G01*
X9000000Y-6000000D02*
X9000000Y-12000000D01*
X9500000Y-5500000D02*
X18500000Y-5500000D01*
X9500000Y-5500000D02*
G75*
G03*
X9000000Y-6000000I0J-500000D01*
G01*
X18500000Y-12500000D02*
G75*
G03*
X19000000Y-12000000I0J500000D01*
G01*
X19000000Y-6000000D02*
X19000000Y-12000000D01*
X9500000Y-12500000D02*
X18500000Y-12500000D01*
X19000000Y-6000000D02*
G75*
G03*
X18500000Y-5500000I-500000J0D01*
G01*
D11*
X17707940Y-7322150D02*
X17907940Y-7522150D01*
X17907940Y-7322150D02*
X17707940Y-7522150D01*
X17707940Y-7830150D02*
X17907940Y-8030150D01*
X17907940Y-7830150D02*
X17707940Y-8030150D01*
D12*
X13083540Y-7677150D02*
G75*
G03*
X13083540Y-7677150I-127000J0D01*
G01*
X13083540Y-12249150D02*
G75*
G03*
X13083540Y-12249150I-127000J0D01*
G01*
X14861540Y-7677150D02*
G75*
G03*
X14861540Y-7677150I-127000J0D01*
G01*
X14861540Y-12249150D02*
G75*
G03*
X14861540Y-12249150I-127000J0D01*
G01*
D13*
X17045940Y-7511150D02*
X17045940Y-7841150D01*
X16880940Y-7676150D02*
X17210940Y-7676150D01*
D14*
X10384349Y-12166659D02*
X10384349Y-11926241D01*
X10143931Y-11926241D01*
X10143931Y-12166659D01*
X10384349Y-12166659D01*
X10892349Y-12166659D02*
X10892349Y-11926241D01*
X10651931Y-11926241D01*
X10651931Y-12166659D01*
X10892349Y-12166659D01*
X18639849Y-9448359D02*
X18639849Y-9207941D01*
X18399431Y-9207941D01*
X18399431Y-9448359D01*
X18639849Y-9448359D01*
X18639849Y-10210359D02*
X18639849Y-9969941D01*
X18399431Y-9969941D01*
X18399431Y-10210359D01*
X18639849Y-10210359D01*
X18639849Y-10667559D02*
X18639849Y-10427141D01*
X18399431Y-10427141D01*
X18399431Y-10667559D01*
X18639849Y-10667559D01*
X18639849Y-11429559D02*
X18639849Y-11189141D01*
X18399431Y-11189141D01*
X18399431Y-11429559D01*
X18639849Y-11429559D01*
D15*
X13108940Y-6122270D02*
X13281660Y-5949550D01*
X13108940Y-5776830D01*
X12936220Y-5949550D01*
X13108940Y-6122270D01*
X14124940Y-6122270D02*
X14297660Y-5949550D01*
X14124940Y-5776830D01*
X13952220Y-5949550D01*
X14124940Y-6122270D01*
D11*
X9252619Y-12815476D02*
X9252619Y-12615476D01*
X9300238Y-12615476D01*
X9328810Y-12625000D01*
X9347857Y-12644048D01*
X9357381Y-12663095D01*
X9366905Y-12701190D01*
X9366905Y-12729762D01*
X9357381Y-12767857D01*
X9347857Y-12786905D01*
X9328810Y-12805952D01*
X9300238Y-12815476D01*
X9252619Y-12815476D01*
X9452619Y-12815476D02*
X9452619Y-12682143D01*
X9452619Y-12720238D02*
X9462143Y-12701190D01*
X9471667Y-12691667D01*
X9490714Y-12682143D01*
X9509762Y-12682143D01*
X9576429Y-12815476D02*
X9576429Y-12682143D01*
X9576429Y-12615476D02*
X9566905Y-12625000D01*
X9576429Y-12634524D01*
X9585952Y-12625000D01*
X9576429Y-12615476D01*
X9576429Y-12634524D01*
X9700238Y-12815476D02*
X9681190Y-12805952D01*
X9671667Y-12786905D01*
X9671667Y-12615476D01*
X9805000Y-12815476D02*
X9785952Y-12805952D01*
X9776429Y-12786905D01*
X9776429Y-12615476D01*
X10033571Y-12815476D02*
X10033571Y-12615476D01*
X10100238Y-12758333D01*
X10166905Y-12615476D01*
X10166905Y-12815476D01*
X10347857Y-12815476D02*
X10347857Y-12710714D01*
X10338333Y-12691667D01*
X10319286Y-12682143D01*
X10281190Y-12682143D01*
X10262143Y-12691667D01*
X10347857Y-12805952D02*
X10328810Y-12815476D01*
X10281190Y-12815476D01*
X10262143Y-12805952D01*
X10252619Y-12786905D01*
X10252619Y-12767857D01*
X10262143Y-12748809D01*
X10281190Y-12739286D01*
X10328810Y-12739286D01*
X10347857Y-12729762D01*
X10443095Y-12682143D02*
X10443095Y-12882143D01*
X10443095Y-12691667D02*
X10462143Y-12682143D01*
X10500238Y-12682143D01*
X10519286Y-12691667D01*
X10528810Y-12701190D01*
X10538333Y-12720238D01*
X10538333Y-12777381D01*
X10528810Y-12796428D01*
X10519286Y-12805952D01*
X10500238Y-12815476D01*
X10462143Y-12815476D01*
X10443095Y-12805952D01*
X10624048Y-12796428D02*
X10633571Y-12805952D01*
X10624048Y-12815476D01*
X10614524Y-12805952D01*
X10624048Y-12796428D01*
X10624048Y-12815476D01*
X10624048Y-12691667D02*
X10633571Y-12701190D01*
X10624048Y-12710714D01*
X10614524Y-12701190D01*
X10624048Y-12691667D01*
X10624048Y-12710714D01*
X8795000Y-13045000D02*
X8995000Y-13245000D01*
X8995000Y-13045000D02*
X8795000Y-13245000D01*
X9243095Y-13054524D02*
X9252619Y-13045000D01*
X9271667Y-13035476D01*
X9319286Y-13035476D01*
X9338333Y-13045000D01*
X9347857Y-13054524D01*
X9357381Y-13073571D01*
X9357381Y-13092619D01*
X9347857Y-13121190D01*
X9233571Y-13235476D01*
X9357381Y-13235476D01*
X9443095Y-13216428D02*
X9452619Y-13225952D01*
X9443095Y-13235476D01*
X9433571Y-13225952D01*
X9443095Y-13216428D01*
X9443095Y-13235476D01*
X9576429Y-13035476D02*
X9595476Y-13035476D01*
X9614524Y-13045000D01*
X9624048Y-13054524D01*
X9633571Y-13073571D01*
X9643095Y-13111667D01*
X9643095Y-13159286D01*
X9633571Y-13197381D01*
X9624048Y-13216428D01*
X9614524Y-13225952D01*
X9595476Y-13235476D01*
X9576429Y-13235476D01*
X9557381Y-13225952D01*
X9547857Y-13216428D01*
X9538333Y-13197381D01*
X9528810Y-13159286D01*
X9528810Y-13111667D01*
X9538333Y-13073571D01*
X9547857Y-13054524D01*
X9557381Y-13045000D01*
X9576429Y-13035476D01*
X9766905Y-13035476D02*
X9785952Y-13035476D01*
X9805000Y-13045000D01*
X9814524Y-13054524D01*
X9824048Y-13073571D01*
X9833571Y-13111667D01*
X9833571Y-13159286D01*
X9824048Y-13197381D01*
X9814524Y-13216428D01*
X9805000Y-13225952D01*
X9785952Y-13235476D01*
X9766905Y-13235476D01*
X9747857Y-13225952D01*
X9738333Y-13216428D01*
X9728810Y-13197381D01*
X9719286Y-13159286D01*
X9719286Y-13111667D01*
X9728810Y-13073571D01*
X9738333Y-13054524D01*
X9747857Y-13045000D01*
X9766905Y-13035476D01*
X9957381Y-13035476D02*
X9976429Y-13035476D01*
X9995476Y-13045000D01*
X10005000Y-13054524D01*
X10014524Y-13073571D01*
X10024048Y-13111667D01*
X10024048Y-13159286D01*
X10014524Y-13197381D01*
X10005000Y-13216428D01*
X9995476Y-13225952D01*
X9976429Y-13235476D01*
X9957381Y-13235476D01*
X9938333Y-13225952D01*
X9928810Y-13216428D01*
X9919286Y-13197381D01*
X9909762Y-13159286D01*
X9909762Y-13111667D01*
X9919286Y-13073571D01*
X9928810Y-13054524D01*
X9938333Y-13045000D01*
X9957381Y-13035476D01*
X10109762Y-13235476D02*
X10109762Y-13102143D01*
X10109762Y-13121190D02*
X10119286Y-13111667D01*
X10138333Y-13102143D01*
X10166905Y-13102143D01*
X10185952Y-13111667D01*
X10195476Y-13130714D01*
X10195476Y-13235476D01*
X10195476Y-13130714D02*
X10205000Y-13111667D01*
X10224048Y-13102143D01*
X10252619Y-13102143D01*
X10271667Y-13111667D01*
X10281190Y-13130714D01*
X10281190Y-13235476D01*
X10376429Y-13235476D02*
X10376429Y-13102143D01*
X10376429Y-13121190D02*
X10385952Y-13111667D01*
X10405000Y-13102143D01*
X10433571Y-13102143D01*
X10452619Y-13111667D01*
X10462143Y-13130714D01*
X10462143Y-13235476D01*
X10462143Y-13130714D02*
X10471667Y-13111667D01*
X10490714Y-13102143D01*
X10519286Y-13102143D01*
X10538333Y-13111667D01*
X10547857Y-13130714D01*
X10547857Y-13235476D01*
X10938333Y-13025952D02*
X10766905Y-13283095D01*
X11195476Y-13035476D02*
X11214524Y-13035476D01*
X11233571Y-13045000D01*
X11243095Y-13054524D01*
X11252619Y-13073571D01*
X11262143Y-13111667D01*
X11262143Y-13159286D01*
X11252619Y-13197381D01*
X11243095Y-13216428D01*
X11233571Y-13225952D01*
X11214524Y-13235476D01*
X11195476Y-13235476D01*
X11176429Y-13225952D01*
X11166905Y-13216428D01*
X11157381Y-13197381D01*
X11147857Y-13159286D01*
X11147857Y-13111667D01*
X11157381Y-13073571D01*
X11166905Y-13054524D01*
X11176429Y-13045000D01*
X11195476Y-13035476D01*
X11347857Y-13216428D02*
X11357381Y-13225952D01*
X11347857Y-13235476D01*
X11338333Y-13225952D01*
X11347857Y-13216428D01*
X11347857Y-13235476D01*
X11481190Y-13035476D02*
X11500238Y-13035476D01*
X11519286Y-13045000D01*
X11528809Y-13054524D01*
X11538333Y-13073571D01*
X11547857Y-13111667D01*
X11547857Y-13159286D01*
X11538333Y-13197381D01*
X11528809Y-13216428D01*
X11519286Y-13225952D01*
X11500238Y-13235476D01*
X11481190Y-13235476D01*
X11462143Y-13225952D01*
X11452619Y-13216428D01*
X11443095Y-13197381D01*
X11433571Y-13159286D01*
X11433571Y-13111667D01*
X11443095Y-13073571D01*
X11452619Y-13054524D01*
X11462143Y-13045000D01*
X11481190Y-13035476D01*
X11614524Y-13035476D02*
X11747857Y-13035476D01*
X11662143Y-13235476D01*
X11852619Y-13121190D02*
X11833571Y-13111667D01*
X11824048Y-13102143D01*
X11814524Y-13083095D01*
X11814524Y-13073571D01*
X11824048Y-13054524D01*
X11833571Y-13045000D01*
X11852619Y-13035476D01*
X11890714Y-13035476D01*
X11909762Y-13045000D01*
X11919286Y-13054524D01*
X11928809Y-13073571D01*
X11928809Y-13083095D01*
X11919286Y-13102143D01*
X11909762Y-13111667D01*
X11890714Y-13121190D01*
X11852619Y-13121190D01*
X11833571Y-13130714D01*
X11824048Y-13140238D01*
X11814524Y-13159286D01*
X11814524Y-13197381D01*
X11824048Y-13216428D01*
X11833571Y-13225952D01*
X11852619Y-13235476D01*
X11890714Y-13235476D01*
X11909762Y-13225952D01*
X11919286Y-13216428D01*
X11928809Y-13197381D01*
X11928809Y-13159286D01*
X11919286Y-13140238D01*
X11909762Y-13130714D01*
X11890714Y-13121190D01*
X11995476Y-13035476D02*
X12128809Y-13035476D01*
X12043095Y-13235476D01*
X12195476Y-13035476D02*
X12195476Y-13073571D01*
X12271667Y-13035476D02*
X12271667Y-13073571D01*
X12566905Y-13311667D02*
X12557381Y-13302143D01*
X12538333Y-13273571D01*
X12528809Y-13254524D01*
X12519286Y-13225952D01*
X12509762Y-13178333D01*
X12509762Y-13140238D01*
X12519286Y-13092619D01*
X12528809Y-13064048D01*
X12538333Y-13045000D01*
X12557381Y-13016428D01*
X12566905Y-13006905D01*
X12633571Y-13054524D02*
X12643095Y-13045000D01*
X12662143Y-13035476D01*
X12709762Y-13035476D01*
X12728809Y-13045000D01*
X12738333Y-13054524D01*
X12747857Y-13073571D01*
X12747857Y-13092619D01*
X12738333Y-13121190D01*
X12624048Y-13235476D01*
X12747857Y-13235476D01*
X12985952Y-13235476D02*
X12985952Y-13035476D01*
X13071667Y-13235476D02*
X13071667Y-13130714D01*
X13062143Y-13111667D01*
X13043095Y-13102143D01*
X13014524Y-13102143D01*
X12995476Y-13111667D01*
X12985952Y-13121190D01*
X13195476Y-13235476D02*
X13176428Y-13225952D01*
X13166905Y-13216428D01*
X13157381Y-13197381D01*
X13157381Y-13140238D01*
X13166905Y-13121190D01*
X13176428Y-13111667D01*
X13195476Y-13102143D01*
X13224048Y-13102143D01*
X13243095Y-13111667D01*
X13252619Y-13121190D01*
X13262143Y-13140238D01*
X13262143Y-13197381D01*
X13252619Y-13216428D01*
X13243095Y-13225952D01*
X13224048Y-13235476D01*
X13195476Y-13235476D01*
X13376428Y-13235476D02*
X13357381Y-13225952D01*
X13347857Y-13206905D01*
X13347857Y-13035476D01*
X13528809Y-13225952D02*
X13509762Y-13235476D01*
X13471667Y-13235476D01*
X13452619Y-13225952D01*
X13443095Y-13206905D01*
X13443095Y-13130714D01*
X13452619Y-13111667D01*
X13471667Y-13102143D01*
X13509762Y-13102143D01*
X13528809Y-13111667D01*
X13538333Y-13130714D01*
X13538333Y-13149762D01*
X13443095Y-13168809D01*
X13614524Y-13225952D02*
X13633571Y-13235476D01*
X13671667Y-13235476D01*
X13690714Y-13225952D01*
X13700238Y-13206905D01*
X13700238Y-13197381D01*
X13690714Y-13178333D01*
X13671667Y-13168809D01*
X13643095Y-13168809D01*
X13624048Y-13159286D01*
X13614524Y-13140238D01*
X13614524Y-13130714D01*
X13624048Y-13111667D01*
X13643095Y-13102143D01*
X13671667Y-13102143D01*
X13690714Y-13111667D01*
X13766905Y-13311667D02*
X13776428Y-13302143D01*
X13795476Y-13273571D01*
X13805000Y-13254524D01*
X13814524Y-13225952D01*
X13824048Y-13178333D01*
X13824048Y-13140238D01*
X13814524Y-13092619D01*
X13805000Y-13064048D01*
X13795476Y-13045000D01*
X13776428Y-13016428D01*
X13766905Y-13006905D01*
X14128809Y-13311667D02*
X14119286Y-13302143D01*
X14100238Y-13273571D01*
X14090714Y-13254524D01*
X14081190Y-13225952D01*
X14071667Y-13178333D01*
X14071667Y-13140238D01*
X14081190Y-13092619D01*
X14090714Y-13064048D01*
X14100238Y-13045000D01*
X14119286Y-13016428D01*
X14128809Y-13006905D01*
X14205000Y-13102143D02*
X14205000Y-13235476D01*
X14205000Y-13121190D02*
X14214524Y-13111667D01*
X14233571Y-13102143D01*
X14262143Y-13102143D01*
X14281190Y-13111667D01*
X14290714Y-13130714D01*
X14290714Y-13235476D01*
X14414524Y-13235476D02*
X14395476Y-13225952D01*
X14385952Y-13216428D01*
X14376428Y-13197381D01*
X14376428Y-13140238D01*
X14385952Y-13121190D01*
X14395476Y-13111667D01*
X14414524Y-13102143D01*
X14443095Y-13102143D01*
X14462143Y-13111667D01*
X14471667Y-13121190D01*
X14481190Y-13140238D01*
X14481190Y-13197381D01*
X14471667Y-13216428D01*
X14462143Y-13225952D01*
X14443095Y-13235476D01*
X14414524Y-13235476D01*
X14538333Y-13102143D02*
X14614524Y-13102143D01*
X14566905Y-13035476D02*
X14566905Y-13206905D01*
X14576428Y-13225952D01*
X14595476Y-13235476D01*
X14614524Y-13235476D01*
X14833571Y-13102143D02*
X14833571Y-13302143D01*
X14833571Y-13111667D02*
X14852619Y-13102143D01*
X14890714Y-13102143D01*
X14909762Y-13111667D01*
X14919286Y-13121190D01*
X14928809Y-13140238D01*
X14928809Y-13197381D01*
X14919286Y-13216428D01*
X14909762Y-13225952D01*
X14890714Y-13235476D01*
X14852619Y-13235476D01*
X14833571Y-13225952D01*
X15043095Y-13235476D02*
X15024048Y-13225952D01*
X15014524Y-13206905D01*
X15014524Y-13035476D01*
X15205000Y-13235476D02*
X15205000Y-13130714D01*
X15195476Y-13111667D01*
X15176428Y-13102143D01*
X15138333Y-13102143D01*
X15119286Y-13111667D01*
X15205000Y-13225952D02*
X15185952Y-13235476D01*
X15138333Y-13235476D01*
X15119286Y-13225952D01*
X15109762Y-13206905D01*
X15109762Y-13187857D01*
X15119286Y-13168809D01*
X15138333Y-13159286D01*
X15185952Y-13159286D01*
X15205000Y-13149762D01*
X15271667Y-13102143D02*
X15347857Y-13102143D01*
X15300238Y-13035476D02*
X15300238Y-13206905D01*
X15309762Y-13225952D01*
X15328809Y-13235476D01*
X15347857Y-13235476D01*
X15490714Y-13225952D02*
X15471667Y-13235476D01*
X15433571Y-13235476D01*
X15414524Y-13225952D01*
X15405000Y-13206905D01*
X15405000Y-13130714D01*
X15414524Y-13111667D01*
X15433571Y-13102143D01*
X15471667Y-13102143D01*
X15490714Y-13111667D01*
X15500238Y-13130714D01*
X15500238Y-13149762D01*
X15405000Y-13168809D01*
X15671667Y-13235476D02*
X15671667Y-13035476D01*
X15671667Y-13225952D02*
X15652619Y-13235476D01*
X15614524Y-13235476D01*
X15595476Y-13225952D01*
X15585952Y-13216428D01*
X15576428Y-13197381D01*
X15576428Y-13140238D01*
X15585952Y-13121190D01*
X15595476Y-13111667D01*
X15614524Y-13102143D01*
X15652619Y-13102143D01*
X15671667Y-13111667D01*
X15747857Y-13311667D02*
X15757381Y-13302143D01*
X15776428Y-13273571D01*
X15785952Y-13254524D01*
X15795476Y-13225952D01*
X15805000Y-13178333D01*
X15805000Y-13140238D01*
X15795476Y-13092619D01*
X15785952Y-13064048D01*
X15776428Y-13045000D01*
X15757381Y-13016428D01*
X15747857Y-13006905D01*
X8995000Y-13465000D02*
G75*
G03*
X8995000Y-13465000I-100000J0D01*
G01*
X9243095Y-13374524D02*
X9252619Y-13365000D01*
X9271667Y-13355476D01*
X9319286Y-13355476D01*
X9338333Y-13365000D01*
X9347857Y-13374524D01*
X9357381Y-13393571D01*
X9357381Y-13412619D01*
X9347857Y-13441190D01*
X9233571Y-13555476D01*
X9357381Y-13555476D01*
X9443095Y-13536428D02*
X9452619Y-13545952D01*
X9443095Y-13555476D01*
X9433571Y-13545952D01*
X9443095Y-13536428D01*
X9443095Y-13555476D01*
X9633571Y-13355476D02*
X9538333Y-13355476D01*
X9528810Y-13450714D01*
X9538333Y-13441190D01*
X9557381Y-13431667D01*
X9605000Y-13431667D01*
X9624048Y-13441190D01*
X9633571Y-13450714D01*
X9643095Y-13469762D01*
X9643095Y-13517381D01*
X9633571Y-13536428D01*
X9624048Y-13545952D01*
X9605000Y-13555476D01*
X9557381Y-13555476D01*
X9538333Y-13545952D01*
X9528810Y-13536428D01*
X9814524Y-13422143D02*
X9814524Y-13555476D01*
X9766905Y-13345952D02*
X9719286Y-13488809D01*
X9843095Y-13488809D01*
X9957381Y-13355476D02*
X9976429Y-13355476D01*
X9995476Y-13365000D01*
X10005000Y-13374524D01*
X10014524Y-13393571D01*
X10024048Y-13431667D01*
X10024048Y-13479286D01*
X10014524Y-13517381D01*
X10005000Y-13536428D01*
X9995476Y-13545952D01*
X9976429Y-13555476D01*
X9957381Y-13555476D01*
X9938333Y-13545952D01*
X9928810Y-13536428D01*
X9919286Y-13517381D01*
X9909762Y-13479286D01*
X9909762Y-13431667D01*
X9919286Y-13393571D01*
X9928810Y-13374524D01*
X9938333Y-13365000D01*
X9957381Y-13355476D01*
X10109762Y-13555476D02*
X10109762Y-13422143D01*
X10109762Y-13441190D02*
X10119286Y-13431667D01*
X10138333Y-13422143D01*
X10166905Y-13422143D01*
X10185952Y-13431667D01*
X10195476Y-13450714D01*
X10195476Y-13555476D01*
X10195476Y-13450714D02*
X10205000Y-13431667D01*
X10224048Y-13422143D01*
X10252619Y-13422143D01*
X10271667Y-13431667D01*
X10281190Y-13450714D01*
X10281190Y-13555476D01*
X10376429Y-13555476D02*
X10376429Y-13422143D01*
X10376429Y-13441190D02*
X10385952Y-13431667D01*
X10405000Y-13422143D01*
X10433571Y-13422143D01*
X10452619Y-13431667D01*
X10462143Y-13450714D01*
X10462143Y-13555476D01*
X10462143Y-13450714D02*
X10471667Y-13431667D01*
X10490714Y-13422143D01*
X10519286Y-13422143D01*
X10538333Y-13431667D01*
X10547857Y-13450714D01*
X10547857Y-13555476D01*
X10938333Y-13345952D02*
X10766905Y-13603095D01*
X11195476Y-13355476D02*
X11214524Y-13355476D01*
X11233571Y-13365000D01*
X11243095Y-13374524D01*
X11252619Y-13393571D01*
X11262143Y-13431667D01*
X11262143Y-13479286D01*
X11252619Y-13517381D01*
X11243095Y-13536428D01*
X11233571Y-13545952D01*
X11214524Y-13555476D01*
X11195476Y-13555476D01*
X11176429Y-13545952D01*
X11166905Y-13536428D01*
X11157381Y-13517381D01*
X11147857Y-13479286D01*
X11147857Y-13431667D01*
X11157381Y-13393571D01*
X11166905Y-13374524D01*
X11176429Y-13365000D01*
X11195476Y-13355476D01*
X11347857Y-13536428D02*
X11357381Y-13545952D01*
X11347857Y-13555476D01*
X11338333Y-13545952D01*
X11347857Y-13536428D01*
X11347857Y-13555476D01*
X11547857Y-13555476D02*
X11433571Y-13555476D01*
X11490714Y-13555476D02*
X11490714Y-13355476D01*
X11471667Y-13384048D01*
X11452619Y-13403095D01*
X11433571Y-13412619D01*
X11671667Y-13355476D02*
X11690714Y-13355476D01*
X11709762Y-13365000D01*
X11719286Y-13374524D01*
X11728809Y-13393571D01*
X11738333Y-13431667D01*
X11738333Y-13479286D01*
X11728809Y-13517381D01*
X11719286Y-13536428D01*
X11709762Y-13545952D01*
X11690714Y-13555476D01*
X11671667Y-13555476D01*
X11652619Y-13545952D01*
X11643095Y-13536428D01*
X11633571Y-13517381D01*
X11624048Y-13479286D01*
X11624048Y-13431667D01*
X11633571Y-13393571D01*
X11643095Y-13374524D01*
X11652619Y-13365000D01*
X11671667Y-13355476D01*
X11862143Y-13355476D02*
X11881190Y-13355476D01*
X11900238Y-13365000D01*
X11909762Y-13374524D01*
X11919286Y-13393571D01*
X11928809Y-13431667D01*
X11928809Y-13479286D01*
X11919286Y-13517381D01*
X11909762Y-13536428D01*
X11900238Y-13545952D01*
X11881190Y-13555476D01*
X11862143Y-13555476D01*
X11843095Y-13545952D01*
X11833571Y-13536428D01*
X11824048Y-13517381D01*
X11814524Y-13479286D01*
X11814524Y-13431667D01*
X11824048Y-13393571D01*
X11833571Y-13374524D01*
X11843095Y-13365000D01*
X11862143Y-13355476D01*
X12052619Y-13355476D02*
X12071667Y-13355476D01*
X12090714Y-13365000D01*
X12100238Y-13374524D01*
X12109762Y-13393571D01*
X12119286Y-13431667D01*
X12119286Y-13479286D01*
X12109762Y-13517381D01*
X12100238Y-13536428D01*
X12090714Y-13545952D01*
X12071667Y-13555476D01*
X12052619Y-13555476D01*
X12033571Y-13545952D01*
X12024048Y-13536428D01*
X12014524Y-13517381D01*
X12005000Y-13479286D01*
X12005000Y-13431667D01*
X12014524Y-13393571D01*
X12024048Y-13374524D01*
X12033571Y-13365000D01*
X12052619Y-13355476D01*
X12195476Y-13355476D02*
X12195476Y-13393571D01*
X12271667Y-13355476D02*
X12271667Y-13393571D01*
X12566905Y-13631667D02*
X12557381Y-13622143D01*
X12538333Y-13593571D01*
X12528809Y-13574524D01*
X12519286Y-13545952D01*
X12509762Y-13498333D01*
X12509762Y-13460238D01*
X12519286Y-13412619D01*
X12528809Y-13384048D01*
X12538333Y-13365000D01*
X12557381Y-13336428D01*
X12566905Y-13326905D01*
X12728809Y-13422143D02*
X12728809Y-13555476D01*
X12681190Y-13345952D02*
X12633571Y-13488809D01*
X12757381Y-13488809D01*
X12985952Y-13555476D02*
X12985952Y-13355476D01*
X13071667Y-13555476D02*
X13071667Y-13450714D01*
X13062143Y-13431667D01*
X13043095Y-13422143D01*
X13014524Y-13422143D01*
X12995476Y-13431667D01*
X12985952Y-13441190D01*
X13195476Y-13555476D02*
X13176428Y-13545952D01*
X13166905Y-13536428D01*
X13157381Y-13517381D01*
X13157381Y-13460238D01*
X13166905Y-13441190D01*
X13176428Y-13431667D01*
X13195476Y-13422143D01*
X13224048Y-13422143D01*
X13243095Y-13431667D01*
X13252619Y-13441190D01*
X13262143Y-13460238D01*
X13262143Y-13517381D01*
X13252619Y-13536428D01*
X13243095Y-13545952D01*
X13224048Y-13555476D01*
X13195476Y-13555476D01*
X13376428Y-13555476D02*
X13357381Y-13545952D01*
X13347857Y-13526905D01*
X13347857Y-13355476D01*
X13528809Y-13545952D02*
X13509762Y-13555476D01*
X13471667Y-13555476D01*
X13452619Y-13545952D01*
X13443095Y-13526905D01*
X13443095Y-13450714D01*
X13452619Y-13431667D01*
X13471667Y-13422143D01*
X13509762Y-13422143D01*
X13528809Y-13431667D01*
X13538333Y-13450714D01*
X13538333Y-13469762D01*
X13443095Y-13488809D01*
X13614524Y-13545952D02*
X13633571Y-13555476D01*
X13671667Y-13555476D01*
X13690714Y-13545952D01*
X13700238Y-13526905D01*
X13700238Y-13517381D01*
X13690714Y-13498333D01*
X13671667Y-13488809D01*
X13643095Y-13488809D01*
X13624048Y-13479286D01*
X13614524Y-13460238D01*
X13614524Y-13450714D01*
X13624048Y-13431667D01*
X13643095Y-13422143D01*
X13671667Y-13422143D01*
X13690714Y-13431667D01*
X13766905Y-13631667D02*
X13776428Y-13622143D01*
X13795476Y-13593571D01*
X13805000Y-13574524D01*
X13814524Y-13545952D01*
X13824048Y-13498333D01*
X13824048Y-13460238D01*
X13814524Y-13412619D01*
X13805000Y-13384048D01*
X13795476Y-13365000D01*
X13776428Y-13336428D01*
X13766905Y-13326905D01*
X14128809Y-13631667D02*
X14119286Y-13622143D01*
X14100238Y-13593571D01*
X14090714Y-13574524D01*
X14081190Y-13545952D01*
X14071667Y-13498333D01*
X14071667Y-13460238D01*
X14081190Y-13412619D01*
X14090714Y-13384048D01*
X14100238Y-13365000D01*
X14119286Y-13336428D01*
X14128809Y-13326905D01*
X14205000Y-13422143D02*
X14205000Y-13555476D01*
X14205000Y-13441190D02*
X14214524Y-13431667D01*
X14233571Y-13422143D01*
X14262143Y-13422143D01*
X14281190Y-13431667D01*
X14290714Y-13450714D01*
X14290714Y-13555476D01*
X14414524Y-13555476D02*
X14395476Y-13545952D01*
X14385952Y-13536428D01*
X14376428Y-13517381D01*
X14376428Y-13460238D01*
X14385952Y-13441190D01*
X14395476Y-13431667D01*
X14414524Y-13422143D01*
X14443095Y-13422143D01*
X14462143Y-13431667D01*
X14471667Y-13441190D01*
X14481190Y-13460238D01*
X14481190Y-13517381D01*
X14471667Y-13536428D01*
X14462143Y-13545952D01*
X14443095Y-13555476D01*
X14414524Y-13555476D01*
X14538333Y-13422143D02*
X14614524Y-13422143D01*
X14566905Y-13355476D02*
X14566905Y-13526905D01*
X14576428Y-13545952D01*
X14595476Y-13555476D01*
X14614524Y-13555476D01*
X14833571Y-13422143D02*
X14833571Y-13622143D01*
X14833571Y-13431667D02*
X14852619Y-13422143D01*
X14890714Y-13422143D01*
X14909762Y-13431667D01*
X14919286Y-13441190D01*
X14928809Y-13460238D01*
X14928809Y-13517381D01*
X14919286Y-13536428D01*
X14909762Y-13545952D01*
X14890714Y-13555476D01*
X14852619Y-13555476D01*
X14833571Y-13545952D01*
X15043095Y-13555476D02*
X15024048Y-13545952D01*
X15014524Y-13526905D01*
X15014524Y-13355476D01*
X15205000Y-13555476D02*
X15205000Y-13450714D01*
X15195476Y-13431667D01*
X15176428Y-13422143D01*
X15138333Y-13422143D01*
X15119286Y-13431667D01*
X15205000Y-13545952D02*
X15185952Y-13555476D01*
X15138333Y-13555476D01*
X15119286Y-13545952D01*
X15109762Y-13526905D01*
X15109762Y-13507857D01*
X15119286Y-13488809D01*
X15138333Y-13479286D01*
X15185952Y-13479286D01*
X15205000Y-13469762D01*
X15271667Y-13422143D02*
X15347857Y-13422143D01*
X15300238Y-13355476D02*
X15300238Y-13526905D01*
X15309762Y-13545952D01*
X15328809Y-13555476D01*
X15347857Y-13555476D01*
X15490714Y-13545952D02*
X15471667Y-13555476D01*
X15433571Y-13555476D01*
X15414524Y-13545952D01*
X15405000Y-13526905D01*
X15405000Y-13450714D01*
X15414524Y-13431667D01*
X15433571Y-13422143D01*
X15471667Y-13422143D01*
X15490714Y-13431667D01*
X15500238Y-13450714D01*
X15500238Y-13469762D01*
X15405000Y-13488809D01*
X15671667Y-13555476D02*
X15671667Y-13355476D01*
X15671667Y-13545952D02*
X15652619Y-13555476D01*
X15614524Y-13555476D01*
X15595476Y-13545952D01*
X15585952Y-13536428D01*
X15576428Y-13517381D01*
X15576428Y-13460238D01*
X15585952Y-13441190D01*
X15595476Y-13431667D01*
X15614524Y-13422143D01*
X15652619Y-13422143D01*
X15671667Y-13431667D01*
X15747857Y-13631667D02*
X15757381Y-13622143D01*
X15776428Y-13593571D01*
X15785952Y-13574524D01*
X15795476Y-13545952D01*
X15805000Y-13498333D01*
X15805000Y-13460238D01*
X15795476Y-13412619D01*
X15785952Y-13384048D01*
X15776428Y-13365000D01*
X15757381Y-13336428D01*
X15747857Y-13326905D01*
X8895000Y-13685000D02*
X8895000Y-13885000D01*
X8795000Y-13785000D02*
X8995000Y-13785000D01*
X9233571Y-13675476D02*
X9357381Y-13675476D01*
X9290714Y-13751667D01*
X9319286Y-13751667D01*
X9338333Y-13761190D01*
X9347857Y-13770714D01*
X9357381Y-13789762D01*
X9357381Y-13837381D01*
X9347857Y-13856428D01*
X9338333Y-13865952D01*
X9319286Y-13875476D01*
X9262143Y-13875476D01*
X9243095Y-13865952D01*
X9233571Y-13856428D01*
X9443095Y-13856428D02*
X9452619Y-13865952D01*
X9443095Y-13875476D01*
X9433571Y-13865952D01*
X9443095Y-13856428D01*
X9443095Y-13875476D01*
X9519286Y-13675476D02*
X9643095Y-13675476D01*
X9576429Y-13751667D01*
X9605000Y-13751667D01*
X9624048Y-13761190D01*
X9633571Y-13770714D01*
X9643095Y-13789762D01*
X9643095Y-13837381D01*
X9633571Y-13856428D01*
X9624048Y-13865952D01*
X9605000Y-13875476D01*
X9547857Y-13875476D01*
X9528810Y-13865952D01*
X9519286Y-13856428D01*
X9766905Y-13675476D02*
X9785952Y-13675476D01*
X9805000Y-13685000D01*
X9814524Y-13694524D01*
X9824048Y-13713571D01*
X9833571Y-13751667D01*
X9833571Y-13799286D01*
X9824048Y-13837381D01*
X9814524Y-13856428D01*
X9805000Y-13865952D01*
X9785952Y-13875476D01*
X9766905Y-13875476D01*
X9747857Y-13865952D01*
X9738333Y-13856428D01*
X9728810Y-13837381D01*
X9719286Y-13799286D01*
X9719286Y-13751667D01*
X9728810Y-13713571D01*
X9738333Y-13694524D01*
X9747857Y-13685000D01*
X9766905Y-13675476D01*
X9957381Y-13675476D02*
X9976429Y-13675476D01*
X9995476Y-13685000D01*
X10005000Y-13694524D01*
X10014524Y-13713571D01*
X10024048Y-13751667D01*
X10024048Y-13799286D01*
X10014524Y-13837381D01*
X10005000Y-13856428D01*
X9995476Y-13865952D01*
X9976429Y-13875476D01*
X9957381Y-13875476D01*
X9938333Y-13865952D01*
X9928810Y-13856428D01*
X9919286Y-13837381D01*
X9909762Y-13799286D01*
X9909762Y-13751667D01*
X9919286Y-13713571D01*
X9928810Y-13694524D01*
X9938333Y-13685000D01*
X9957381Y-13675476D01*
X10109762Y-13875476D02*
X10109762Y-13742143D01*
X10109762Y-13761190D02*
X10119286Y-13751667D01*
X10138333Y-13742143D01*
X10166905Y-13742143D01*
X10185952Y-13751667D01*
X10195476Y-13770714D01*
X10195476Y-13875476D01*
X10195476Y-13770714D02*
X10205000Y-13751667D01*
X10224048Y-13742143D01*
X10252619Y-13742143D01*
X10271667Y-13751667D01*
X10281190Y-13770714D01*
X10281190Y-13875476D01*
X10376429Y-13875476D02*
X10376429Y-13742143D01*
X10376429Y-13761190D02*
X10385952Y-13751667D01*
X10405000Y-13742143D01*
X10433571Y-13742143D01*
X10452619Y-13751667D01*
X10462143Y-13770714D01*
X10462143Y-13875476D01*
X10462143Y-13770714D02*
X10471667Y-13751667D01*
X10490714Y-13742143D01*
X10519286Y-13742143D01*
X10538333Y-13751667D01*
X10547857Y-13770714D01*
X10547857Y-13875476D01*
X10938333Y-13665952D02*
X10766905Y-13923095D01*
X11195476Y-13675476D02*
X11214524Y-13675476D01*
X11233571Y-13685000D01*
X11243095Y-13694524D01*
X11252619Y-13713571D01*
X11262143Y-13751667D01*
X11262143Y-13799286D01*
X11252619Y-13837381D01*
X11243095Y-13856428D01*
X11233571Y-13865952D01*
X11214524Y-13875476D01*
X11195476Y-13875476D01*
X11176429Y-13865952D01*
X11166905Y-13856428D01*
X11157381Y-13837381D01*
X11147857Y-13799286D01*
X11147857Y-13751667D01*
X11157381Y-13713571D01*
X11166905Y-13694524D01*
X11176429Y-13685000D01*
X11195476Y-13675476D01*
X11347857Y-13856428D02*
X11357381Y-13865952D01*
X11347857Y-13875476D01*
X11338333Y-13865952D01*
X11347857Y-13856428D01*
X11347857Y-13875476D01*
X11547857Y-13875476D02*
X11433571Y-13875476D01*
X11490714Y-13875476D02*
X11490714Y-13675476D01*
X11471667Y-13704048D01*
X11452619Y-13723095D01*
X11433571Y-13732619D01*
X11624048Y-13694524D02*
X11633571Y-13685000D01*
X11652619Y-13675476D01*
X11700238Y-13675476D01*
X11719286Y-13685000D01*
X11728809Y-13694524D01*
X11738333Y-13713571D01*
X11738333Y-13732619D01*
X11728809Y-13761190D01*
X11614524Y-13875476D01*
X11738333Y-13875476D01*
X11833571Y-13875476D02*
X11871667Y-13875476D01*
X11890714Y-13865952D01*
X11900238Y-13856428D01*
X11919286Y-13827857D01*
X11928809Y-13789762D01*
X11928809Y-13713571D01*
X11919286Y-13694524D01*
X11909762Y-13685000D01*
X11890714Y-13675476D01*
X11852619Y-13675476D01*
X11833571Y-13685000D01*
X11824048Y-13694524D01*
X11814524Y-13713571D01*
X11814524Y-13761190D01*
X11824048Y-13780238D01*
X11833571Y-13789762D01*
X11852619Y-13799286D01*
X11890714Y-13799286D01*
X11909762Y-13789762D01*
X11919286Y-13780238D01*
X11928809Y-13761190D01*
X12024048Y-13875476D02*
X12062143Y-13875476D01*
X12081190Y-13865952D01*
X12090714Y-13856428D01*
X12109762Y-13827857D01*
X12119286Y-13789762D01*
X12119286Y-13713571D01*
X12109762Y-13694524D01*
X12100238Y-13685000D01*
X12081190Y-13675476D01*
X12043095Y-13675476D01*
X12024048Y-13685000D01*
X12014524Y-13694524D01*
X12005000Y-13713571D01*
X12005000Y-13761190D01*
X12014524Y-13780238D01*
X12024048Y-13789762D01*
X12043095Y-13799286D01*
X12081190Y-13799286D01*
X12100238Y-13789762D01*
X12109762Y-13780238D01*
X12119286Y-13761190D01*
X12195476Y-13675476D02*
X12195476Y-13713571D01*
X12271667Y-13675476D02*
X12271667Y-13713571D01*
X12566905Y-13951667D02*
X12557381Y-13942143D01*
X12538333Y-13913571D01*
X12528809Y-13894524D01*
X12519286Y-13865952D01*
X12509762Y-13818333D01*
X12509762Y-13780238D01*
X12519286Y-13732619D01*
X12528809Y-13704048D01*
X12538333Y-13685000D01*
X12557381Y-13656428D01*
X12566905Y-13646905D01*
X12747857Y-13875476D02*
X12633571Y-13875476D01*
X12690714Y-13875476D02*
X12690714Y-13675476D01*
X12671667Y-13704048D01*
X12652619Y-13723095D01*
X12633571Y-13732619D01*
X12985952Y-13875476D02*
X12985952Y-13675476D01*
X13071667Y-13875476D02*
X13071667Y-13770714D01*
X13062143Y-13751667D01*
X13043095Y-13742143D01*
X13014524Y-13742143D01*
X12995476Y-13751667D01*
X12985952Y-13761190D01*
X13195476Y-13875476D02*
X13176428Y-13865952D01*
X13166905Y-13856428D01*
X13157381Y-13837381D01*
X13157381Y-13780238D01*
X13166905Y-13761190D01*
X13176428Y-13751667D01*
X13195476Y-13742143D01*
X13224048Y-13742143D01*
X13243095Y-13751667D01*
X13252619Y-13761190D01*
X13262143Y-13780238D01*
X13262143Y-13837381D01*
X13252619Y-13856428D01*
X13243095Y-13865952D01*
X13224048Y-13875476D01*
X13195476Y-13875476D01*
X13376428Y-13875476D02*
X13357381Y-13865952D01*
X13347857Y-13846905D01*
X13347857Y-13675476D01*
X13528809Y-13865952D02*
X13509762Y-13875476D01*
X13471667Y-13875476D01*
X13452619Y-13865952D01*
X13443095Y-13846905D01*
X13443095Y-13770714D01*
X13452619Y-13751667D01*
X13471667Y-13742143D01*
X13509762Y-13742143D01*
X13528809Y-13751667D01*
X13538333Y-13770714D01*
X13538333Y-13789762D01*
X13443095Y-13808809D01*
X13605000Y-13951667D02*
X13614524Y-13942143D01*
X13633571Y-13913571D01*
X13643095Y-13894524D01*
X13652619Y-13865952D01*
X13662143Y-13818333D01*
X13662143Y-13780238D01*
X13652619Y-13732619D01*
X13643095Y-13704048D01*
X13633571Y-13685000D01*
X13614524Y-13656428D01*
X13605000Y-13646905D01*
X13966905Y-13951667D02*
X13957381Y-13942143D01*
X13938333Y-13913571D01*
X13928809Y-13894524D01*
X13919286Y-13865952D01*
X13909762Y-13818333D01*
X13909762Y-13780238D01*
X13919286Y-13732619D01*
X13928809Y-13704048D01*
X13938333Y-13685000D01*
X13957381Y-13656428D01*
X13966905Y-13646905D01*
X14043095Y-13742143D02*
X14043095Y-13875476D01*
X14043095Y-13761190D02*
X14052619Y-13751667D01*
X14071667Y-13742143D01*
X14100238Y-13742143D01*
X14119286Y-13751667D01*
X14128809Y-13770714D01*
X14128809Y-13875476D01*
X14252619Y-13875476D02*
X14233571Y-13865952D01*
X14224048Y-13856428D01*
X14214524Y-13837381D01*
X14214524Y-13780238D01*
X14224048Y-13761190D01*
X14233571Y-13751667D01*
X14252619Y-13742143D01*
X14281190Y-13742143D01*
X14300238Y-13751667D01*
X14309762Y-13761190D01*
X14319286Y-13780238D01*
X14319286Y-13837381D01*
X14309762Y-13856428D01*
X14300238Y-13865952D01*
X14281190Y-13875476D01*
X14252619Y-13875476D01*
X14376428Y-13742143D02*
X14452619Y-13742143D01*
X14405000Y-13675476D02*
X14405000Y-13846905D01*
X14414524Y-13865952D01*
X14433571Y-13875476D01*
X14452619Y-13875476D01*
X14671667Y-13742143D02*
X14671667Y-13942143D01*
X14671667Y-13751667D02*
X14690714Y-13742143D01*
X14728809Y-13742143D01*
X14747857Y-13751667D01*
X14757381Y-13761190D01*
X14766905Y-13780238D01*
X14766905Y-13837381D01*
X14757381Y-13856428D01*
X14747857Y-13865952D01*
X14728809Y-13875476D01*
X14690714Y-13875476D01*
X14671667Y-13865952D01*
X14881190Y-13875476D02*
X14862143Y-13865952D01*
X14852619Y-13846905D01*
X14852619Y-13675476D01*
X15043095Y-13875476D02*
X15043095Y-13770714D01*
X15033571Y-13751667D01*
X15014524Y-13742143D01*
X14976428Y-13742143D01*
X14957381Y-13751667D01*
X15043095Y-13865952D02*
X15024048Y-13875476D01*
X14976428Y-13875476D01*
X14957381Y-13865952D01*
X14947857Y-13846905D01*
X14947857Y-13827857D01*
X14957381Y-13808809D01*
X14976428Y-13799286D01*
X15024048Y-13799286D01*
X15043095Y-13789762D01*
X15109762Y-13742143D02*
X15185952Y-13742143D01*
X15138333Y-13675476D02*
X15138333Y-13846905D01*
X15147857Y-13865952D01*
X15166905Y-13875476D01*
X15185952Y-13875476D01*
X15328809Y-13865952D02*
X15309762Y-13875476D01*
X15271667Y-13875476D01*
X15252619Y-13865952D01*
X15243095Y-13846905D01*
X15243095Y-13770714D01*
X15252619Y-13751667D01*
X15271667Y-13742143D01*
X15309762Y-13742143D01*
X15328809Y-13751667D01*
X15338333Y-13770714D01*
X15338333Y-13789762D01*
X15243095Y-13808809D01*
X15509762Y-13875476D02*
X15509762Y-13675476D01*
X15509762Y-13865952D02*
X15490714Y-13875476D01*
X15452619Y-13875476D01*
X15433571Y-13865952D01*
X15424048Y-13856428D01*
X15414524Y-13837381D01*
X15414524Y-13780238D01*
X15424048Y-13761190D01*
X15433571Y-13751667D01*
X15452619Y-13742143D01*
X15490714Y-13742143D01*
X15509762Y-13751667D01*
X15585952Y-13951667D02*
X15595476Y-13942143D01*
X15614524Y-13913571D01*
X15624048Y-13894524D01*
X15633571Y-13865952D01*
X15643095Y-13818333D01*
X15643095Y-13780238D01*
X15633571Y-13732619D01*
X15624048Y-13704048D01*
X15614524Y-13685000D01*
X15595476Y-13656428D01*
X15585952Y-13646905D01*
X8965711Y-14175711D02*
X8965711Y-14034289D01*
X8824289Y-14034289D01*
X8824289Y-14175711D01*
X8965711Y-14175711D01*
X9233571Y-13995476D02*
X9357381Y-13995476D01*
X9290714Y-14071667D01*
X9319286Y-14071667D01*
X9338333Y-14081190D01*
X9347857Y-14090714D01*
X9357381Y-14109762D01*
X9357381Y-14157381D01*
X9347857Y-14176428D01*
X9338333Y-14185952D01*
X9319286Y-14195476D01*
X9262143Y-14195476D01*
X9243095Y-14185952D01*
X9233571Y-14176428D01*
X9443095Y-14176428D02*
X9452619Y-14185952D01*
X9443095Y-14195476D01*
X9433571Y-14185952D01*
X9443095Y-14176428D01*
X9443095Y-14195476D01*
X9624048Y-14062143D02*
X9624048Y-14195476D01*
X9576429Y-13985952D02*
X9528810Y-14128809D01*
X9652619Y-14128809D01*
X9766905Y-13995476D02*
X9785952Y-13995476D01*
X9805000Y-14005000D01*
X9814524Y-14014524D01*
X9824048Y-14033571D01*
X9833571Y-14071667D01*
X9833571Y-14119286D01*
X9824048Y-14157381D01*
X9814524Y-14176428D01*
X9805000Y-14185952D01*
X9785952Y-14195476D01*
X9766905Y-14195476D01*
X9747857Y-14185952D01*
X9738333Y-14176428D01*
X9728810Y-14157381D01*
X9719286Y-14119286D01*
X9719286Y-14071667D01*
X9728810Y-14033571D01*
X9738333Y-14014524D01*
X9747857Y-14005000D01*
X9766905Y-13995476D01*
X9957381Y-13995476D02*
X9976429Y-13995476D01*
X9995476Y-14005000D01*
X10005000Y-14014524D01*
X10014524Y-14033571D01*
X10024048Y-14071667D01*
X10024048Y-14119286D01*
X10014524Y-14157381D01*
X10005000Y-14176428D01*
X9995476Y-14185952D01*
X9976429Y-14195476D01*
X9957381Y-14195476D01*
X9938333Y-14185952D01*
X9928810Y-14176428D01*
X9919286Y-14157381D01*
X9909762Y-14119286D01*
X9909762Y-14071667D01*
X9919286Y-14033571D01*
X9928810Y-14014524D01*
X9938333Y-14005000D01*
X9957381Y-13995476D01*
X10109762Y-14195476D02*
X10109762Y-14062143D01*
X10109762Y-14081190D02*
X10119286Y-14071667D01*
X10138333Y-14062143D01*
X10166905Y-14062143D01*
X10185952Y-14071667D01*
X10195476Y-14090714D01*
X10195476Y-14195476D01*
X10195476Y-14090714D02*
X10205000Y-14071667D01*
X10224048Y-14062143D01*
X10252619Y-14062143D01*
X10271667Y-14071667D01*
X10281190Y-14090714D01*
X10281190Y-14195476D01*
X10376429Y-14195476D02*
X10376429Y-14062143D01*
X10376429Y-14081190D02*
X10385952Y-14071667D01*
X10405000Y-14062143D01*
X10433571Y-14062143D01*
X10452619Y-14071667D01*
X10462143Y-14090714D01*
X10462143Y-14195476D01*
X10462143Y-14090714D02*
X10471667Y-14071667D01*
X10490714Y-14062143D01*
X10519286Y-14062143D01*
X10538333Y-14071667D01*
X10547857Y-14090714D01*
X10547857Y-14195476D01*
X10938333Y-13985952D02*
X10766905Y-14243095D01*
X11195476Y-13995476D02*
X11214524Y-13995476D01*
X11233571Y-14005000D01*
X11243095Y-14014524D01*
X11252619Y-14033571D01*
X11262143Y-14071667D01*
X11262143Y-14119286D01*
X11252619Y-14157381D01*
X11243095Y-14176428D01*
X11233571Y-14185952D01*
X11214524Y-14195476D01*
X11195476Y-14195476D01*
X11176429Y-14185952D01*
X11166905Y-14176428D01*
X11157381Y-14157381D01*
X11147857Y-14119286D01*
X11147857Y-14071667D01*
X11157381Y-14033571D01*
X11166905Y-14014524D01*
X11176429Y-14005000D01*
X11195476Y-13995476D01*
X11347857Y-14176428D02*
X11357381Y-14185952D01*
X11347857Y-14195476D01*
X11338333Y-14185952D01*
X11347857Y-14176428D01*
X11347857Y-14195476D01*
X11547857Y-14195476D02*
X11433571Y-14195476D01*
X11490714Y-14195476D02*
X11490714Y-13995476D01*
X11471667Y-14024048D01*
X11452619Y-14043095D01*
X11433571Y-14052619D01*
X11614524Y-13995476D02*
X11738333Y-13995476D01*
X11671667Y-14071667D01*
X11700238Y-14071667D01*
X11719286Y-14081190D01*
X11728809Y-14090714D01*
X11738333Y-14109762D01*
X11738333Y-14157381D01*
X11728809Y-14176428D01*
X11719286Y-14185952D01*
X11700238Y-14195476D01*
X11643095Y-14195476D01*
X11624048Y-14185952D01*
X11614524Y-14176428D01*
X11805000Y-13995476D02*
X11928809Y-13995476D01*
X11862143Y-14071667D01*
X11890714Y-14071667D01*
X11909762Y-14081190D01*
X11919286Y-14090714D01*
X11928809Y-14109762D01*
X11928809Y-14157381D01*
X11919286Y-14176428D01*
X11909762Y-14185952D01*
X11890714Y-14195476D01*
X11833571Y-14195476D01*
X11814524Y-14185952D01*
X11805000Y-14176428D01*
X12024048Y-14195476D02*
X12062143Y-14195476D01*
X12081190Y-14185952D01*
X12090714Y-14176428D01*
X12109762Y-14147857D01*
X12119286Y-14109762D01*
X12119286Y-14033571D01*
X12109762Y-14014524D01*
X12100238Y-14005000D01*
X12081190Y-13995476D01*
X12043095Y-13995476D01*
X12024048Y-14005000D01*
X12014524Y-14014524D01*
X12005000Y-14033571D01*
X12005000Y-14081190D01*
X12014524Y-14100238D01*
X12024048Y-14109762D01*
X12043095Y-14119286D01*
X12081190Y-14119286D01*
X12100238Y-14109762D01*
X12109762Y-14100238D01*
X12119286Y-14081190D01*
X12195476Y-13995476D02*
X12195476Y-14033571D01*
X12271667Y-13995476D02*
X12271667Y-14033571D01*
X12566905Y-14271667D02*
X12557381Y-14262143D01*
X12538333Y-14233571D01*
X12528809Y-14214524D01*
X12519286Y-14185952D01*
X12509762Y-14138333D01*
X12509762Y-14100238D01*
X12519286Y-14052619D01*
X12528809Y-14024048D01*
X12538333Y-14005000D01*
X12557381Y-13976428D01*
X12566905Y-13966905D01*
X12728809Y-13995476D02*
X12690714Y-13995476D01*
X12671667Y-14005000D01*
X12662143Y-14014524D01*
X12643095Y-14043095D01*
X12633571Y-14081190D01*
X12633571Y-14157381D01*
X12643095Y-14176428D01*
X12652619Y-14185952D01*
X12671667Y-14195476D01*
X12709762Y-14195476D01*
X12728809Y-14185952D01*
X12738333Y-14176428D01*
X12747857Y-14157381D01*
X12747857Y-14109762D01*
X12738333Y-14090714D01*
X12728809Y-14081190D01*
X12709762Y-14071667D01*
X12671667Y-14071667D01*
X12652619Y-14081190D01*
X12643095Y-14090714D01*
X12633571Y-14109762D01*
X12985952Y-14195476D02*
X12985952Y-13995476D01*
X13071667Y-14195476D02*
X13071667Y-14090714D01*
X13062143Y-14071667D01*
X13043095Y-14062143D01*
X13014524Y-14062143D01*
X12995476Y-14071667D01*
X12985952Y-14081190D01*
X13195476Y-14195476D02*
X13176428Y-14185952D01*
X13166905Y-14176428D01*
X13157381Y-14157381D01*
X13157381Y-14100238D01*
X13166905Y-14081190D01*
X13176428Y-14071667D01*
X13195476Y-14062143D01*
X13224048Y-14062143D01*
X13243095Y-14071667D01*
X13252619Y-14081190D01*
X13262143Y-14100238D01*
X13262143Y-14157381D01*
X13252619Y-14176428D01*
X13243095Y-14185952D01*
X13224048Y-14195476D01*
X13195476Y-14195476D01*
X13376428Y-14195476D02*
X13357381Y-14185952D01*
X13347857Y-14166905D01*
X13347857Y-13995476D01*
X13528809Y-14185952D02*
X13509762Y-14195476D01*
X13471667Y-14195476D01*
X13452619Y-14185952D01*
X13443095Y-14166905D01*
X13443095Y-14090714D01*
X13452619Y-14071667D01*
X13471667Y-14062143D01*
X13509762Y-14062143D01*
X13528809Y-14071667D01*
X13538333Y-14090714D01*
X13538333Y-14109762D01*
X13443095Y-14128809D01*
X13614524Y-14185952D02*
X13633571Y-14195476D01*
X13671667Y-14195476D01*
X13690714Y-14185952D01*
X13700238Y-14166905D01*
X13700238Y-14157381D01*
X13690714Y-14138333D01*
X13671667Y-14128809D01*
X13643095Y-14128809D01*
X13624048Y-14119286D01*
X13614524Y-14100238D01*
X13614524Y-14090714D01*
X13624048Y-14071667D01*
X13643095Y-14062143D01*
X13671667Y-14062143D01*
X13690714Y-14071667D01*
X13766905Y-14271667D02*
X13776428Y-14262143D01*
X13795476Y-14233571D01*
X13805000Y-14214524D01*
X13814524Y-14185952D01*
X13824048Y-14138333D01*
X13824048Y-14100238D01*
X13814524Y-14052619D01*
X13805000Y-14024048D01*
X13795476Y-14005000D01*
X13776428Y-13976428D01*
X13766905Y-13966905D01*
X14128809Y-14271667D02*
X14119286Y-14262143D01*
X14100238Y-14233571D01*
X14090714Y-14214524D01*
X14081190Y-14185952D01*
X14071667Y-14138333D01*
X14071667Y-14100238D01*
X14081190Y-14052619D01*
X14090714Y-14024048D01*
X14100238Y-14005000D01*
X14119286Y-13976428D01*
X14128809Y-13966905D01*
X14205000Y-14062143D02*
X14205000Y-14195476D01*
X14205000Y-14081190D02*
X14214524Y-14071667D01*
X14233571Y-14062143D01*
X14262143Y-14062143D01*
X14281190Y-14071667D01*
X14290714Y-14090714D01*
X14290714Y-14195476D01*
X14414524Y-14195476D02*
X14395476Y-14185952D01*
X14385952Y-14176428D01*
X14376428Y-14157381D01*
X14376428Y-14100238D01*
X14385952Y-14081190D01*
X14395476Y-14071667D01*
X14414524Y-14062143D01*
X14443095Y-14062143D01*
X14462143Y-14071667D01*
X14471667Y-14081190D01*
X14481190Y-14100238D01*
X14481190Y-14157381D01*
X14471667Y-14176428D01*
X14462143Y-14185952D01*
X14443095Y-14195476D01*
X14414524Y-14195476D01*
X14538333Y-14062143D02*
X14614524Y-14062143D01*
X14566905Y-13995476D02*
X14566905Y-14166905D01*
X14576428Y-14185952D01*
X14595476Y-14195476D01*
X14614524Y-14195476D01*
X14833571Y-14062143D02*
X14833571Y-14262143D01*
X14833571Y-14071667D02*
X14852619Y-14062143D01*
X14890714Y-14062143D01*
X14909762Y-14071667D01*
X14919286Y-14081190D01*
X14928809Y-14100238D01*
X14928809Y-14157381D01*
X14919286Y-14176428D01*
X14909762Y-14185952D01*
X14890714Y-14195476D01*
X14852619Y-14195476D01*
X14833571Y-14185952D01*
X15043095Y-14195476D02*
X15024048Y-14185952D01*
X15014524Y-14166905D01*
X15014524Y-13995476D01*
X15205000Y-14195476D02*
X15205000Y-14090714D01*
X15195476Y-14071667D01*
X15176428Y-14062143D01*
X15138333Y-14062143D01*
X15119286Y-14071667D01*
X15205000Y-14185952D02*
X15185952Y-14195476D01*
X15138333Y-14195476D01*
X15119286Y-14185952D01*
X15109762Y-14166905D01*
X15109762Y-14147857D01*
X15119286Y-14128809D01*
X15138333Y-14119286D01*
X15185952Y-14119286D01*
X15205000Y-14109762D01*
X15271667Y-14062143D02*
X15347857Y-14062143D01*
X15300238Y-13995476D02*
X15300238Y-14166905D01*
X15309762Y-14185952D01*
X15328809Y-14195476D01*
X15347857Y-14195476D01*
X15490714Y-14185952D02*
X15471667Y-14195476D01*
X15433571Y-14195476D01*
X15414524Y-14185952D01*
X15405000Y-14166905D01*
X15405000Y-14090714D01*
X15414524Y-14071667D01*
X15433571Y-14062143D01*
X15471667Y-14062143D01*
X15490714Y-14071667D01*
X15500238Y-14090714D01*
X15500238Y-14109762D01*
X15405000Y-14128809D01*
X15671667Y-14195476D02*
X15671667Y-13995476D01*
X15671667Y-14185952D02*
X15652619Y-14195476D01*
X15614524Y-14195476D01*
X15595476Y-14185952D01*
X15585952Y-14176428D01*
X15576428Y-14157381D01*
X15576428Y-14100238D01*
X15585952Y-14081190D01*
X15595476Y-14071667D01*
X15614524Y-14062143D01*
X15652619Y-14062143D01*
X15671667Y-14071667D01*
X15747857Y-14271667D02*
X15757381Y-14262143D01*
X15776428Y-14233571D01*
X15785952Y-14214524D01*
X15795476Y-14185952D01*
X15805000Y-14138333D01*
X15805000Y-14100238D01*
X15795476Y-14052619D01*
X15785952Y-14024048D01*
X15776428Y-14005000D01*
X15757381Y-13976428D01*
X15747857Y-13966905D01*
X8895000Y-14525000D02*
X8995000Y-14425000D01*
X8895000Y-14325000D01*
X8795000Y-14425000D01*
X8895000Y-14525000D01*
X9233571Y-14315476D02*
X9357381Y-14315476D01*
X9290714Y-14391667D01*
X9319286Y-14391667D01*
X9338333Y-14401190D01*
X9347857Y-14410714D01*
X9357381Y-14429762D01*
X9357381Y-14477381D01*
X9347857Y-14496428D01*
X9338333Y-14505952D01*
X9319286Y-14515476D01*
X9262143Y-14515476D01*
X9243095Y-14505952D01*
X9233571Y-14496428D01*
X9443095Y-14496428D02*
X9452619Y-14505952D01*
X9443095Y-14515476D01*
X9433571Y-14505952D01*
X9443095Y-14496428D01*
X9443095Y-14515476D01*
X9624048Y-14382143D02*
X9624048Y-14515476D01*
X9576429Y-14305952D02*
X9528810Y-14448809D01*
X9652619Y-14448809D01*
X9824048Y-14315476D02*
X9728810Y-14315476D01*
X9719286Y-14410714D01*
X9728810Y-14401190D01*
X9747857Y-14391667D01*
X9795476Y-14391667D01*
X9814524Y-14401190D01*
X9824048Y-14410714D01*
X9833571Y-14429762D01*
X9833571Y-14477381D01*
X9824048Y-14496428D01*
X9814524Y-14505952D01*
X9795476Y-14515476D01*
X9747857Y-14515476D01*
X9728810Y-14505952D01*
X9719286Y-14496428D01*
X10005000Y-14382143D02*
X10005000Y-14515476D01*
X9957381Y-14305952D02*
X9909762Y-14448809D01*
X10033571Y-14448809D01*
X10109762Y-14515476D02*
X10109762Y-14382143D01*
X10109762Y-14401190D02*
X10119286Y-14391667D01*
X10138333Y-14382143D01*
X10166905Y-14382143D01*
X10185952Y-14391667D01*
X10195476Y-14410714D01*
X10195476Y-14515476D01*
X10195476Y-14410714D02*
X10205000Y-14391667D01*
X10224048Y-14382143D01*
X10252619Y-14382143D01*
X10271667Y-14391667D01*
X10281190Y-14410714D01*
X10281190Y-14515476D01*
X10376429Y-14515476D02*
X10376429Y-14382143D01*
X10376429Y-14401190D02*
X10385952Y-14391667D01*
X10405000Y-14382143D01*
X10433571Y-14382143D01*
X10452619Y-14391667D01*
X10462143Y-14410714D01*
X10462143Y-14515476D01*
X10462143Y-14410714D02*
X10471667Y-14391667D01*
X10490714Y-14382143D01*
X10519286Y-14382143D01*
X10538333Y-14391667D01*
X10547857Y-14410714D01*
X10547857Y-14515476D01*
X10938333Y-14305952D02*
X10766905Y-14563095D01*
X11195476Y-14315476D02*
X11214524Y-14315476D01*
X11233571Y-14325000D01*
X11243095Y-14334524D01*
X11252619Y-14353571D01*
X11262143Y-14391667D01*
X11262143Y-14439286D01*
X11252619Y-14477381D01*
X11243095Y-14496428D01*
X11233571Y-14505952D01*
X11214524Y-14515476D01*
X11195476Y-14515476D01*
X11176429Y-14505952D01*
X11166905Y-14496428D01*
X11157381Y-14477381D01*
X11147857Y-14439286D01*
X11147857Y-14391667D01*
X11157381Y-14353571D01*
X11166905Y-14334524D01*
X11176429Y-14325000D01*
X11195476Y-14315476D01*
X11347857Y-14496428D02*
X11357381Y-14505952D01*
X11347857Y-14515476D01*
X11338333Y-14505952D01*
X11347857Y-14496428D01*
X11347857Y-14515476D01*
X11547857Y-14515476D02*
X11433571Y-14515476D01*
X11490714Y-14515476D02*
X11490714Y-14315476D01*
X11471667Y-14344048D01*
X11452619Y-14363095D01*
X11433571Y-14372619D01*
X11614524Y-14315476D02*
X11738333Y-14315476D01*
X11671667Y-14391667D01*
X11700238Y-14391667D01*
X11719286Y-14401190D01*
X11728809Y-14410714D01*
X11738333Y-14429762D01*
X11738333Y-14477381D01*
X11728809Y-14496428D01*
X11719286Y-14505952D01*
X11700238Y-14515476D01*
X11643095Y-14515476D01*
X11624048Y-14505952D01*
X11614524Y-14496428D01*
X11909762Y-14315476D02*
X11871667Y-14315476D01*
X11852619Y-14325000D01*
X11843095Y-14334524D01*
X11824048Y-14363095D01*
X11814524Y-14401190D01*
X11814524Y-14477381D01*
X11824048Y-14496428D01*
X11833571Y-14505952D01*
X11852619Y-14515476D01*
X11890714Y-14515476D01*
X11909762Y-14505952D01*
X11919286Y-14496428D01*
X11928809Y-14477381D01*
X11928809Y-14429762D01*
X11919286Y-14410714D01*
X11909762Y-14401190D01*
X11890714Y-14391667D01*
X11852619Y-14391667D01*
X11833571Y-14401190D01*
X11824048Y-14410714D01*
X11814524Y-14429762D01*
X12052619Y-14315476D02*
X12071667Y-14315476D01*
X12090714Y-14325000D01*
X12100238Y-14334524D01*
X12109762Y-14353571D01*
X12119286Y-14391667D01*
X12119286Y-14439286D01*
X12109762Y-14477381D01*
X12100238Y-14496428D01*
X12090714Y-14505952D01*
X12071667Y-14515476D01*
X12052619Y-14515476D01*
X12033571Y-14505952D01*
X12024048Y-14496428D01*
X12014524Y-14477381D01*
X12005000Y-14439286D01*
X12005000Y-14391667D01*
X12014524Y-14353571D01*
X12024048Y-14334524D01*
X12033571Y-14325000D01*
X12052619Y-14315476D01*
X12195476Y-14315476D02*
X12195476Y-14353571D01*
X12271667Y-14315476D02*
X12271667Y-14353571D01*
X12566905Y-14591667D02*
X12557381Y-14582143D01*
X12538333Y-14553571D01*
X12528809Y-14534524D01*
X12519286Y-14505952D01*
X12509762Y-14458333D01*
X12509762Y-14420238D01*
X12519286Y-14372619D01*
X12528809Y-14344048D01*
X12538333Y-14325000D01*
X12557381Y-14296428D01*
X12566905Y-14286905D01*
X12633571Y-14334524D02*
X12643095Y-14325000D01*
X12662143Y-14315476D01*
X12709762Y-14315476D01*
X12728809Y-14325000D01*
X12738333Y-14334524D01*
X12747857Y-14353571D01*
X12747857Y-14372619D01*
X12738333Y-14401190D01*
X12624048Y-14515476D01*
X12747857Y-14515476D01*
X12985952Y-14515476D02*
X12985952Y-14315476D01*
X13071667Y-14515476D02*
X13071667Y-14410714D01*
X13062143Y-14391667D01*
X13043095Y-14382143D01*
X13014524Y-14382143D01*
X12995476Y-14391667D01*
X12985952Y-14401190D01*
X13195476Y-14515476D02*
X13176428Y-14505952D01*
X13166905Y-14496428D01*
X13157381Y-14477381D01*
X13157381Y-14420238D01*
X13166905Y-14401190D01*
X13176428Y-14391667D01*
X13195476Y-14382143D01*
X13224048Y-14382143D01*
X13243095Y-14391667D01*
X13252619Y-14401190D01*
X13262143Y-14420238D01*
X13262143Y-14477381D01*
X13252619Y-14496428D01*
X13243095Y-14505952D01*
X13224048Y-14515476D01*
X13195476Y-14515476D01*
X13376428Y-14515476D02*
X13357381Y-14505952D01*
X13347857Y-14486905D01*
X13347857Y-14315476D01*
X13528809Y-14505952D02*
X13509762Y-14515476D01*
X13471667Y-14515476D01*
X13452619Y-14505952D01*
X13443095Y-14486905D01*
X13443095Y-14410714D01*
X13452619Y-14391667D01*
X13471667Y-14382143D01*
X13509762Y-14382143D01*
X13528809Y-14391667D01*
X13538333Y-14410714D01*
X13538333Y-14429762D01*
X13443095Y-14448809D01*
X13614524Y-14505952D02*
X13633571Y-14515476D01*
X13671667Y-14515476D01*
X13690714Y-14505952D01*
X13700238Y-14486905D01*
X13700238Y-14477381D01*
X13690714Y-14458333D01*
X13671667Y-14448809D01*
X13643095Y-14448809D01*
X13624048Y-14439286D01*
X13614524Y-14420238D01*
X13614524Y-14410714D01*
X13624048Y-14391667D01*
X13643095Y-14382143D01*
X13671667Y-14382143D01*
X13690714Y-14391667D01*
X13766905Y-14591667D02*
X13776428Y-14582143D01*
X13795476Y-14553571D01*
X13805000Y-14534524D01*
X13814524Y-14505952D01*
X13824048Y-14458333D01*
X13824048Y-14420238D01*
X13814524Y-14372619D01*
X13805000Y-14344048D01*
X13795476Y-14325000D01*
X13776428Y-14296428D01*
X13766905Y-14286905D01*
X14128809Y-14591667D02*
X14119286Y-14582143D01*
X14100238Y-14553571D01*
X14090714Y-14534524D01*
X14081190Y-14505952D01*
X14071667Y-14458333D01*
X14071667Y-14420238D01*
X14081190Y-14372619D01*
X14090714Y-14344048D01*
X14100238Y-14325000D01*
X14119286Y-14296428D01*
X14128809Y-14286905D01*
X14205000Y-14382143D02*
X14205000Y-14515476D01*
X14205000Y-14401190D02*
X14214524Y-14391667D01*
X14233571Y-14382143D01*
X14262143Y-14382143D01*
X14281190Y-14391667D01*
X14290714Y-14410714D01*
X14290714Y-14515476D01*
X14414524Y-14515476D02*
X14395476Y-14505952D01*
X14385952Y-14496428D01*
X14376428Y-14477381D01*
X14376428Y-14420238D01*
X14385952Y-14401190D01*
X14395476Y-14391667D01*
X14414524Y-14382143D01*
X14443095Y-14382143D01*
X14462143Y-14391667D01*
X14471667Y-14401190D01*
X14481190Y-14420238D01*
X14481190Y-14477381D01*
X14471667Y-14496428D01*
X14462143Y-14505952D01*
X14443095Y-14515476D01*
X14414524Y-14515476D01*
X14538333Y-14382143D02*
X14614524Y-14382143D01*
X14566905Y-14315476D02*
X14566905Y-14486905D01*
X14576428Y-14505952D01*
X14595476Y-14515476D01*
X14614524Y-14515476D01*
X14833571Y-14382143D02*
X14833571Y-14582143D01*
X14833571Y-14391667D02*
X14852619Y-14382143D01*
X14890714Y-14382143D01*
X14909762Y-14391667D01*
X14919286Y-14401190D01*
X14928809Y-14420238D01*
X14928809Y-14477381D01*
X14919286Y-14496428D01*
X14909762Y-14505952D01*
X14890714Y-14515476D01*
X14852619Y-14515476D01*
X14833571Y-14505952D01*
X15043095Y-14515476D02*
X15024048Y-14505952D01*
X15014524Y-14486905D01*
X15014524Y-14315476D01*
X15205000Y-14515476D02*
X15205000Y-14410714D01*
X15195476Y-14391667D01*
X15176428Y-14382143D01*
X15138333Y-14382143D01*
X15119286Y-14391667D01*
X15205000Y-14505952D02*
X15185952Y-14515476D01*
X15138333Y-14515476D01*
X15119286Y-14505952D01*
X15109762Y-14486905D01*
X15109762Y-14467857D01*
X15119286Y-14448809D01*
X15138333Y-14439286D01*
X15185952Y-14439286D01*
X15205000Y-14429762D01*
X15271667Y-14382143D02*
X15347857Y-14382143D01*
X15300238Y-14315476D02*
X15300238Y-14486905D01*
X15309762Y-14505952D01*
X15328809Y-14515476D01*
X15347857Y-14515476D01*
X15490714Y-14505952D02*
X15471667Y-14515476D01*
X15433571Y-14515476D01*
X15414524Y-14505952D01*
X15405000Y-14486905D01*
X15405000Y-14410714D01*
X15414524Y-14391667D01*
X15433571Y-14382143D01*
X15471667Y-14382143D01*
X15490714Y-14391667D01*
X15500238Y-14410714D01*
X15500238Y-14429762D01*
X15405000Y-14448809D01*
X15671667Y-14515476D02*
X15671667Y-14315476D01*
X15671667Y-14505952D02*
X15652619Y-14515476D01*
X15614524Y-14515476D01*
X15595476Y-14505952D01*
X15585952Y-14496428D01*
X15576428Y-14477381D01*
X15576428Y-14420238D01*
X15585952Y-14401190D01*
X15595476Y-14391667D01*
X15614524Y-14382143D01*
X15652619Y-14382143D01*
X15671667Y-14391667D01*
X15747857Y-14591667D02*
X15757381Y-14582143D01*
X15776428Y-14553571D01*
X15785952Y-14534524D01*
X15795476Y-14505952D01*
X15805000Y-14458333D01*
X15805000Y-14420238D01*
X15795476Y-14372619D01*
X15785952Y-14344048D01*
X15776428Y-14325000D01*
X15757381Y-14296428D01*
X15747857Y-14286905D01*
M02*
