G04 #@! TF.GenerationSoftware,KiCad,Pcbnew,(5.1.9-0-10_14)*
G04 #@! TF.CreationDate,2022-08-09T16:59:01-07:00*
G04 #@! TF.ProjectId,telemetry-pcb,74656c65-6d65-4747-9279-2d7063622e6b,rev?*
G04 #@! TF.SameCoordinates,Original*
G04 #@! TF.FileFunction,Paste,Bot*
G04 #@! TF.FilePolarity,Positive*
%FSLAX46Y46*%
G04 Gerber Fmt 4.6, Leading zero omitted, Abs format (unit mm)*
G04 Created by KiCad (PCBNEW (5.1.9-0-10_14)) date 2022-08-09 16:59:01*
%MOMM*%
%LPD*%
G01*
G04 APERTURE LIST*
%ADD10R,0.576580X0.351536*%
%ADD11R,0.351536X0.576580*%
G04 APERTURE END LIST*
G36*
G01*
X108516400Y-88905500D02*
X109466400Y-88905500D01*
G75*
G02*
X109716400Y-89155500I0J-250000D01*
G01*
X109716400Y-89655500D01*
G75*
G02*
X109466400Y-89905500I-250000J0D01*
G01*
X108516400Y-89905500D01*
G75*
G02*
X108266400Y-89655500I0J250000D01*
G01*
X108266400Y-89155500D01*
G75*
G02*
X108516400Y-88905500I250000J0D01*
G01*
G37*
G36*
G01*
X108516400Y-87005500D02*
X109466400Y-87005500D01*
G75*
G02*
X109716400Y-87255500I0J-250000D01*
G01*
X109716400Y-87755500D01*
G75*
G02*
X109466400Y-88005500I-250000J0D01*
G01*
X108516400Y-88005500D01*
G75*
G02*
X108266400Y-87755500I0J250000D01*
G01*
X108266400Y-87255500D01*
G75*
G02*
X108516400Y-87005500I250000J0D01*
G01*
G37*
G36*
G01*
X184741399Y-88752000D02*
X185641401Y-88752000D01*
G75*
G02*
X185891400Y-89001999I0J-249999D01*
G01*
X185891400Y-89527001D01*
G75*
G02*
X185641401Y-89777000I-249999J0D01*
G01*
X184741399Y-89777000D01*
G75*
G02*
X184491400Y-89527001I0J249999D01*
G01*
X184491400Y-89001999D01*
G75*
G02*
X184741399Y-88752000I249999J0D01*
G01*
G37*
G36*
G01*
X184741399Y-86927000D02*
X185641401Y-86927000D01*
G75*
G02*
X185891400Y-87176999I0J-249999D01*
G01*
X185891400Y-87702001D01*
G75*
G02*
X185641401Y-87952000I-249999J0D01*
G01*
X184741399Y-87952000D01*
G75*
G02*
X184491400Y-87702001I0J249999D01*
G01*
X184491400Y-87176999D01*
G75*
G02*
X184741399Y-86927000I249999J0D01*
G01*
G37*
G36*
G01*
X185487900Y-77221501D02*
X185487900Y-76321499D01*
G75*
G02*
X185737899Y-76071500I249999J0D01*
G01*
X186262901Y-76071500D01*
G75*
G02*
X186512900Y-76321499I0J-249999D01*
G01*
X186512900Y-77221501D01*
G75*
G02*
X186262901Y-77471500I-249999J0D01*
G01*
X185737899Y-77471500D01*
G75*
G02*
X185487900Y-77221501I0J249999D01*
G01*
G37*
G36*
G01*
X183662900Y-77221501D02*
X183662900Y-76321499D01*
G75*
G02*
X183912899Y-76071500I249999J0D01*
G01*
X184437901Y-76071500D01*
G75*
G02*
X184687900Y-76321499I0J-249999D01*
G01*
X184687900Y-77221501D01*
G75*
G02*
X184437901Y-77471500I-249999J0D01*
G01*
X183912899Y-77471500D01*
G75*
G02*
X183662900Y-77221501I0J249999D01*
G01*
G37*
G36*
G01*
X138459900Y-77337499D02*
X138459900Y-78237501D01*
G75*
G02*
X138209901Y-78487500I-249999J0D01*
G01*
X137684899Y-78487500D01*
G75*
G02*
X137434900Y-78237501I0J249999D01*
G01*
X137434900Y-77337499D01*
G75*
G02*
X137684899Y-77087500I249999J0D01*
G01*
X138209901Y-77087500D01*
G75*
G02*
X138459900Y-77337499I0J-249999D01*
G01*
G37*
G36*
G01*
X140284900Y-77337499D02*
X140284900Y-78237501D01*
G75*
G02*
X140034901Y-78487500I-249999J0D01*
G01*
X139509899Y-78487500D01*
G75*
G02*
X139259900Y-78237501I0J249999D01*
G01*
X139259900Y-77337499D01*
G75*
G02*
X139509899Y-77087500I249999J0D01*
G01*
X140034901Y-77087500D01*
G75*
G02*
X140284900Y-77337499I0J-249999D01*
G01*
G37*
D10*
X136737100Y-122225501D03*
X136737100Y-121725500D03*
X136737100Y-121225500D03*
X136737100Y-120725499D03*
D11*
X137447401Y-120519200D03*
X137947400Y-120519200D03*
X138447399Y-120519200D03*
D10*
X139157700Y-120725499D03*
X139157700Y-121225500D03*
X139157700Y-121725500D03*
X139157700Y-122225501D03*
D11*
X138447399Y-122431800D03*
X137947400Y-122431800D03*
X137447401Y-122431800D03*
G36*
G01*
X165269400Y-105086500D02*
X165269400Y-105836500D01*
G75*
G02*
X165039400Y-106066500I-230000J0D01*
G01*
X164579400Y-106066500D01*
G75*
G02*
X164349400Y-105836500I0J230000D01*
G01*
X164349400Y-105086500D01*
G75*
G02*
X164579400Y-104856500I230000J0D01*
G01*
X165039400Y-104856500D01*
G75*
G02*
X165269400Y-105086500I0J-230000D01*
G01*
G37*
G36*
G01*
X165269400Y-103586500D02*
X165269400Y-104336500D01*
G75*
G02*
X165039400Y-104566500I-230000J0D01*
G01*
X164579400Y-104566500D01*
G75*
G02*
X164349400Y-104336500I0J230000D01*
G01*
X164349400Y-103586500D01*
G75*
G02*
X164579400Y-103356500I230000J0D01*
G01*
X165039400Y-103356500D01*
G75*
G02*
X165269400Y-103586500I0J-230000D01*
G01*
G37*
G36*
G01*
X166409400Y-105086500D02*
X166409400Y-105836500D01*
G75*
G02*
X166179400Y-106066500I-230000J0D01*
G01*
X165719400Y-106066500D01*
G75*
G02*
X165489400Y-105836500I0J230000D01*
G01*
X165489400Y-105086500D01*
G75*
G02*
X165719400Y-104856500I230000J0D01*
G01*
X166179400Y-104856500D01*
G75*
G02*
X166409400Y-105086500I0J-230000D01*
G01*
G37*
G36*
G01*
X166409400Y-103586500D02*
X166409400Y-104336500D01*
G75*
G02*
X166179400Y-104566500I-230000J0D01*
G01*
X165719400Y-104566500D01*
G75*
G02*
X165489400Y-104336500I0J230000D01*
G01*
X165489400Y-103586500D01*
G75*
G02*
X165719400Y-103356500I230000J0D01*
G01*
X166179400Y-103356500D01*
G75*
G02*
X166409400Y-103586500I0J-230000D01*
G01*
G37*
G36*
G01*
X163879400Y-102656500D02*
X163879400Y-102956500D01*
G75*
G02*
X163729400Y-103106500I-150000J0D01*
G01*
X162079400Y-103106500D01*
G75*
G02*
X161929400Y-102956500I0J150000D01*
G01*
X161929400Y-102656500D01*
G75*
G02*
X162079400Y-102506500I150000J0D01*
G01*
X163729400Y-102506500D01*
G75*
G02*
X163879400Y-102656500I0J-150000D01*
G01*
G37*
G36*
G01*
X163879400Y-103926500D02*
X163879400Y-104226500D01*
G75*
G02*
X163729400Y-104376500I-150000J0D01*
G01*
X162079400Y-104376500D01*
G75*
G02*
X161929400Y-104226500I0J150000D01*
G01*
X161929400Y-103926500D01*
G75*
G02*
X162079400Y-103776500I150000J0D01*
G01*
X163729400Y-103776500D01*
G75*
G02*
X163879400Y-103926500I0J-150000D01*
G01*
G37*
G36*
G01*
X163879400Y-105196500D02*
X163879400Y-105496500D01*
G75*
G02*
X163729400Y-105646500I-150000J0D01*
G01*
X162079400Y-105646500D01*
G75*
G02*
X161929400Y-105496500I0J150000D01*
G01*
X161929400Y-105196500D01*
G75*
G02*
X162079400Y-105046500I150000J0D01*
G01*
X163729400Y-105046500D01*
G75*
G02*
X163879400Y-105196500I0J-150000D01*
G01*
G37*
G36*
G01*
X163879400Y-106466500D02*
X163879400Y-106766500D01*
G75*
G02*
X163729400Y-106916500I-150000J0D01*
G01*
X162079400Y-106916500D01*
G75*
G02*
X161929400Y-106766500I0J150000D01*
G01*
X161929400Y-106466500D01*
G75*
G02*
X162079400Y-106316500I150000J0D01*
G01*
X163729400Y-106316500D01*
G75*
G02*
X163879400Y-106466500I0J-150000D01*
G01*
G37*
G36*
G01*
X168829400Y-106466500D02*
X168829400Y-106766500D01*
G75*
G02*
X168679400Y-106916500I-150000J0D01*
G01*
X167029400Y-106916500D01*
G75*
G02*
X166879400Y-106766500I0J150000D01*
G01*
X166879400Y-106466500D01*
G75*
G02*
X167029400Y-106316500I150000J0D01*
G01*
X168679400Y-106316500D01*
G75*
G02*
X168829400Y-106466500I0J-150000D01*
G01*
G37*
G36*
G01*
X168829400Y-105196500D02*
X168829400Y-105496500D01*
G75*
G02*
X168679400Y-105646500I-150000J0D01*
G01*
X167029400Y-105646500D01*
G75*
G02*
X166879400Y-105496500I0J150000D01*
G01*
X166879400Y-105196500D01*
G75*
G02*
X167029400Y-105046500I150000J0D01*
G01*
X168679400Y-105046500D01*
G75*
G02*
X168829400Y-105196500I0J-150000D01*
G01*
G37*
G36*
G01*
X168829400Y-103926500D02*
X168829400Y-104226500D01*
G75*
G02*
X168679400Y-104376500I-150000J0D01*
G01*
X167029400Y-104376500D01*
G75*
G02*
X166879400Y-104226500I0J150000D01*
G01*
X166879400Y-103926500D01*
G75*
G02*
X167029400Y-103776500I150000J0D01*
G01*
X168679400Y-103776500D01*
G75*
G02*
X168829400Y-103926500I0J-150000D01*
G01*
G37*
G36*
G01*
X168829400Y-102656500D02*
X168829400Y-102956500D01*
G75*
G02*
X168679400Y-103106500I-150000J0D01*
G01*
X167029400Y-103106500D01*
G75*
G02*
X166879400Y-102956500I0J150000D01*
G01*
X166879400Y-102656500D01*
G75*
G02*
X167029400Y-102506500I150000J0D01*
G01*
X168679400Y-102506500D01*
G75*
G02*
X168829400Y-102656500I0J-150000D01*
G01*
G37*
G36*
G01*
X142588400Y-92161500D02*
X142588400Y-91861500D01*
G75*
G02*
X142738400Y-91711500I150000J0D01*
G01*
X144488400Y-91711500D01*
G75*
G02*
X144638400Y-91861500I0J-150000D01*
G01*
X144638400Y-92161500D01*
G75*
G02*
X144488400Y-92311500I-150000J0D01*
G01*
X142738400Y-92311500D01*
G75*
G02*
X142588400Y-92161500I0J150000D01*
G01*
G37*
G36*
G01*
X142588400Y-90891500D02*
X142588400Y-90591500D01*
G75*
G02*
X142738400Y-90441500I150000J0D01*
G01*
X144488400Y-90441500D01*
G75*
G02*
X144638400Y-90591500I0J-150000D01*
G01*
X144638400Y-90891500D01*
G75*
G02*
X144488400Y-91041500I-150000J0D01*
G01*
X142738400Y-91041500D01*
G75*
G02*
X142588400Y-90891500I0J150000D01*
G01*
G37*
G36*
G01*
X142588400Y-89621500D02*
X142588400Y-89321500D01*
G75*
G02*
X142738400Y-89171500I150000J0D01*
G01*
X144488400Y-89171500D01*
G75*
G02*
X144638400Y-89321500I0J-150000D01*
G01*
X144638400Y-89621500D01*
G75*
G02*
X144488400Y-89771500I-150000J0D01*
G01*
X142738400Y-89771500D01*
G75*
G02*
X142588400Y-89621500I0J150000D01*
G01*
G37*
G36*
G01*
X142588400Y-88351500D02*
X142588400Y-88051500D01*
G75*
G02*
X142738400Y-87901500I150000J0D01*
G01*
X144488400Y-87901500D01*
G75*
G02*
X144638400Y-88051500I0J-150000D01*
G01*
X144638400Y-88351500D01*
G75*
G02*
X144488400Y-88501500I-150000J0D01*
G01*
X142738400Y-88501500D01*
G75*
G02*
X142588400Y-88351500I0J150000D01*
G01*
G37*
G36*
G01*
X142588400Y-87081500D02*
X142588400Y-86781500D01*
G75*
G02*
X142738400Y-86631500I150000J0D01*
G01*
X144488400Y-86631500D01*
G75*
G02*
X144638400Y-86781500I0J-150000D01*
G01*
X144638400Y-87081500D01*
G75*
G02*
X144488400Y-87231500I-150000J0D01*
G01*
X142738400Y-87231500D01*
G75*
G02*
X142588400Y-87081500I0J150000D01*
G01*
G37*
G36*
G01*
X142588400Y-85811500D02*
X142588400Y-85511500D01*
G75*
G02*
X142738400Y-85361500I150000J0D01*
G01*
X144488400Y-85361500D01*
G75*
G02*
X144638400Y-85511500I0J-150000D01*
G01*
X144638400Y-85811500D01*
G75*
G02*
X144488400Y-85961500I-150000J0D01*
G01*
X142738400Y-85961500D01*
G75*
G02*
X142588400Y-85811500I0J150000D01*
G01*
G37*
G36*
G01*
X142588400Y-84541500D02*
X142588400Y-84241500D01*
G75*
G02*
X142738400Y-84091500I150000J0D01*
G01*
X144488400Y-84091500D01*
G75*
G02*
X144638400Y-84241500I0J-150000D01*
G01*
X144638400Y-84541500D01*
G75*
G02*
X144488400Y-84691500I-150000J0D01*
G01*
X142738400Y-84691500D01*
G75*
G02*
X142588400Y-84541500I0J150000D01*
G01*
G37*
G36*
G01*
X142588400Y-83271500D02*
X142588400Y-82971500D01*
G75*
G02*
X142738400Y-82821500I150000J0D01*
G01*
X144488400Y-82821500D01*
G75*
G02*
X144638400Y-82971500I0J-150000D01*
G01*
X144638400Y-83271500D01*
G75*
G02*
X144488400Y-83421500I-150000J0D01*
G01*
X142738400Y-83421500D01*
G75*
G02*
X142588400Y-83271500I0J150000D01*
G01*
G37*
G36*
G01*
X142588400Y-82001500D02*
X142588400Y-81701500D01*
G75*
G02*
X142738400Y-81551500I150000J0D01*
G01*
X144488400Y-81551500D01*
G75*
G02*
X144638400Y-81701500I0J-150000D01*
G01*
X144638400Y-82001500D01*
G75*
G02*
X144488400Y-82151500I-150000J0D01*
G01*
X142738400Y-82151500D01*
G75*
G02*
X142588400Y-82001500I0J150000D01*
G01*
G37*
G36*
G01*
X133288400Y-82001500D02*
X133288400Y-81701500D01*
G75*
G02*
X133438400Y-81551500I150000J0D01*
G01*
X135188400Y-81551500D01*
G75*
G02*
X135338400Y-81701500I0J-150000D01*
G01*
X135338400Y-82001500D01*
G75*
G02*
X135188400Y-82151500I-150000J0D01*
G01*
X133438400Y-82151500D01*
G75*
G02*
X133288400Y-82001500I0J150000D01*
G01*
G37*
G36*
G01*
X133288400Y-83271500D02*
X133288400Y-82971500D01*
G75*
G02*
X133438400Y-82821500I150000J0D01*
G01*
X135188400Y-82821500D01*
G75*
G02*
X135338400Y-82971500I0J-150000D01*
G01*
X135338400Y-83271500D01*
G75*
G02*
X135188400Y-83421500I-150000J0D01*
G01*
X133438400Y-83421500D01*
G75*
G02*
X133288400Y-83271500I0J150000D01*
G01*
G37*
G36*
G01*
X133288400Y-84541500D02*
X133288400Y-84241500D01*
G75*
G02*
X133438400Y-84091500I150000J0D01*
G01*
X135188400Y-84091500D01*
G75*
G02*
X135338400Y-84241500I0J-150000D01*
G01*
X135338400Y-84541500D01*
G75*
G02*
X135188400Y-84691500I-150000J0D01*
G01*
X133438400Y-84691500D01*
G75*
G02*
X133288400Y-84541500I0J150000D01*
G01*
G37*
G36*
G01*
X133288400Y-85811500D02*
X133288400Y-85511500D01*
G75*
G02*
X133438400Y-85361500I150000J0D01*
G01*
X135188400Y-85361500D01*
G75*
G02*
X135338400Y-85511500I0J-150000D01*
G01*
X135338400Y-85811500D01*
G75*
G02*
X135188400Y-85961500I-150000J0D01*
G01*
X133438400Y-85961500D01*
G75*
G02*
X133288400Y-85811500I0J150000D01*
G01*
G37*
G36*
G01*
X133288400Y-87081500D02*
X133288400Y-86781500D01*
G75*
G02*
X133438400Y-86631500I150000J0D01*
G01*
X135188400Y-86631500D01*
G75*
G02*
X135338400Y-86781500I0J-150000D01*
G01*
X135338400Y-87081500D01*
G75*
G02*
X135188400Y-87231500I-150000J0D01*
G01*
X133438400Y-87231500D01*
G75*
G02*
X133288400Y-87081500I0J150000D01*
G01*
G37*
G36*
G01*
X133288400Y-88351500D02*
X133288400Y-88051500D01*
G75*
G02*
X133438400Y-87901500I150000J0D01*
G01*
X135188400Y-87901500D01*
G75*
G02*
X135338400Y-88051500I0J-150000D01*
G01*
X135338400Y-88351500D01*
G75*
G02*
X135188400Y-88501500I-150000J0D01*
G01*
X133438400Y-88501500D01*
G75*
G02*
X133288400Y-88351500I0J150000D01*
G01*
G37*
G36*
G01*
X133288400Y-89621500D02*
X133288400Y-89321500D01*
G75*
G02*
X133438400Y-89171500I150000J0D01*
G01*
X135188400Y-89171500D01*
G75*
G02*
X135338400Y-89321500I0J-150000D01*
G01*
X135338400Y-89621500D01*
G75*
G02*
X135188400Y-89771500I-150000J0D01*
G01*
X133438400Y-89771500D01*
G75*
G02*
X133288400Y-89621500I0J150000D01*
G01*
G37*
G36*
G01*
X133288400Y-90891500D02*
X133288400Y-90591500D01*
G75*
G02*
X133438400Y-90441500I150000J0D01*
G01*
X135188400Y-90441500D01*
G75*
G02*
X135338400Y-90591500I0J-150000D01*
G01*
X135338400Y-90891500D01*
G75*
G02*
X135188400Y-91041500I-150000J0D01*
G01*
X133438400Y-91041500D01*
G75*
G02*
X133288400Y-90891500I0J150000D01*
G01*
G37*
G36*
G01*
X133288400Y-92161500D02*
X133288400Y-91861500D01*
G75*
G02*
X133438400Y-91711500I150000J0D01*
G01*
X135188400Y-91711500D01*
G75*
G02*
X135338400Y-91861500I0J-150000D01*
G01*
X135338400Y-92161500D01*
G75*
G02*
X135188400Y-92311500I-150000J0D01*
G01*
X133438400Y-92311500D01*
G75*
G02*
X133288400Y-92161500I0J150000D01*
G01*
G37*
G36*
G01*
X116721400Y-76396500D02*
X116721400Y-75646500D01*
G75*
G02*
X116951400Y-75416500I230000J0D01*
G01*
X117411400Y-75416500D01*
G75*
G02*
X117641400Y-75646500I0J-230000D01*
G01*
X117641400Y-76396500D01*
G75*
G02*
X117411400Y-76626500I-230000J0D01*
G01*
X116951400Y-76626500D01*
G75*
G02*
X116721400Y-76396500I0J230000D01*
G01*
G37*
G36*
G01*
X116721400Y-77896500D02*
X116721400Y-77146500D01*
G75*
G02*
X116951400Y-76916500I230000J0D01*
G01*
X117411400Y-76916500D01*
G75*
G02*
X117641400Y-77146500I0J-230000D01*
G01*
X117641400Y-77896500D01*
G75*
G02*
X117411400Y-78126500I-230000J0D01*
G01*
X116951400Y-78126500D01*
G75*
G02*
X116721400Y-77896500I0J230000D01*
G01*
G37*
G36*
G01*
X115581400Y-76396500D02*
X115581400Y-75646500D01*
G75*
G02*
X115811400Y-75416500I230000J0D01*
G01*
X116271400Y-75416500D01*
G75*
G02*
X116501400Y-75646500I0J-230000D01*
G01*
X116501400Y-76396500D01*
G75*
G02*
X116271400Y-76626500I-230000J0D01*
G01*
X115811400Y-76626500D01*
G75*
G02*
X115581400Y-76396500I0J230000D01*
G01*
G37*
G36*
G01*
X115581400Y-77896500D02*
X115581400Y-77146500D01*
G75*
G02*
X115811400Y-76916500I230000J0D01*
G01*
X116271400Y-76916500D01*
G75*
G02*
X116501400Y-77146500I0J-230000D01*
G01*
X116501400Y-77896500D01*
G75*
G02*
X116271400Y-78126500I-230000J0D01*
G01*
X115811400Y-78126500D01*
G75*
G02*
X115581400Y-77896500I0J230000D01*
G01*
G37*
G36*
G01*
X118111400Y-78826500D02*
X118111400Y-78526500D01*
G75*
G02*
X118261400Y-78376500I150000J0D01*
G01*
X119911400Y-78376500D01*
G75*
G02*
X120061400Y-78526500I0J-150000D01*
G01*
X120061400Y-78826500D01*
G75*
G02*
X119911400Y-78976500I-150000J0D01*
G01*
X118261400Y-78976500D01*
G75*
G02*
X118111400Y-78826500I0J150000D01*
G01*
G37*
G36*
G01*
X118111400Y-77556500D02*
X118111400Y-77256500D01*
G75*
G02*
X118261400Y-77106500I150000J0D01*
G01*
X119911400Y-77106500D01*
G75*
G02*
X120061400Y-77256500I0J-150000D01*
G01*
X120061400Y-77556500D01*
G75*
G02*
X119911400Y-77706500I-150000J0D01*
G01*
X118261400Y-77706500D01*
G75*
G02*
X118111400Y-77556500I0J150000D01*
G01*
G37*
G36*
G01*
X118111400Y-76286500D02*
X118111400Y-75986500D01*
G75*
G02*
X118261400Y-75836500I150000J0D01*
G01*
X119911400Y-75836500D01*
G75*
G02*
X120061400Y-75986500I0J-150000D01*
G01*
X120061400Y-76286500D01*
G75*
G02*
X119911400Y-76436500I-150000J0D01*
G01*
X118261400Y-76436500D01*
G75*
G02*
X118111400Y-76286500I0J150000D01*
G01*
G37*
G36*
G01*
X118111400Y-75016500D02*
X118111400Y-74716500D01*
G75*
G02*
X118261400Y-74566500I150000J0D01*
G01*
X119911400Y-74566500D01*
G75*
G02*
X120061400Y-74716500I0J-150000D01*
G01*
X120061400Y-75016500D01*
G75*
G02*
X119911400Y-75166500I-150000J0D01*
G01*
X118261400Y-75166500D01*
G75*
G02*
X118111400Y-75016500I0J150000D01*
G01*
G37*
G36*
G01*
X113161400Y-75016500D02*
X113161400Y-74716500D01*
G75*
G02*
X113311400Y-74566500I150000J0D01*
G01*
X114961400Y-74566500D01*
G75*
G02*
X115111400Y-74716500I0J-150000D01*
G01*
X115111400Y-75016500D01*
G75*
G02*
X114961400Y-75166500I-150000J0D01*
G01*
X113311400Y-75166500D01*
G75*
G02*
X113161400Y-75016500I0J150000D01*
G01*
G37*
G36*
G01*
X113161400Y-76286500D02*
X113161400Y-75986500D01*
G75*
G02*
X113311400Y-75836500I150000J0D01*
G01*
X114961400Y-75836500D01*
G75*
G02*
X115111400Y-75986500I0J-150000D01*
G01*
X115111400Y-76286500D01*
G75*
G02*
X114961400Y-76436500I-150000J0D01*
G01*
X113311400Y-76436500D01*
G75*
G02*
X113161400Y-76286500I0J150000D01*
G01*
G37*
G36*
G01*
X113161400Y-77556500D02*
X113161400Y-77256500D01*
G75*
G02*
X113311400Y-77106500I150000J0D01*
G01*
X114961400Y-77106500D01*
G75*
G02*
X115111400Y-77256500I0J-150000D01*
G01*
X115111400Y-77556500D01*
G75*
G02*
X114961400Y-77706500I-150000J0D01*
G01*
X113311400Y-77706500D01*
G75*
G02*
X113161400Y-77556500I0J150000D01*
G01*
G37*
G36*
G01*
X113161400Y-78826500D02*
X113161400Y-78526500D01*
G75*
G02*
X113311400Y-78376500I150000J0D01*
G01*
X114961400Y-78376500D01*
G75*
G02*
X115111400Y-78526500I0J-150000D01*
G01*
X115111400Y-78826500D01*
G75*
G02*
X114961400Y-78976500I-150000J0D01*
G01*
X113311400Y-78976500D01*
G75*
G02*
X113161400Y-78826500I0J150000D01*
G01*
G37*
G36*
G01*
X116783400Y-88322500D02*
X116783400Y-87572500D01*
G75*
G02*
X117013400Y-87342500I230000J0D01*
G01*
X117473400Y-87342500D01*
G75*
G02*
X117703400Y-87572500I0J-230000D01*
G01*
X117703400Y-88322500D01*
G75*
G02*
X117473400Y-88552500I-230000J0D01*
G01*
X117013400Y-88552500D01*
G75*
G02*
X116783400Y-88322500I0J230000D01*
G01*
G37*
G36*
G01*
X116783400Y-89822500D02*
X116783400Y-89072500D01*
G75*
G02*
X117013400Y-88842500I230000J0D01*
G01*
X117473400Y-88842500D01*
G75*
G02*
X117703400Y-89072500I0J-230000D01*
G01*
X117703400Y-89822500D01*
G75*
G02*
X117473400Y-90052500I-230000J0D01*
G01*
X117013400Y-90052500D01*
G75*
G02*
X116783400Y-89822500I0J230000D01*
G01*
G37*
G36*
G01*
X115643400Y-88322500D02*
X115643400Y-87572500D01*
G75*
G02*
X115873400Y-87342500I230000J0D01*
G01*
X116333400Y-87342500D01*
G75*
G02*
X116563400Y-87572500I0J-230000D01*
G01*
X116563400Y-88322500D01*
G75*
G02*
X116333400Y-88552500I-230000J0D01*
G01*
X115873400Y-88552500D01*
G75*
G02*
X115643400Y-88322500I0J230000D01*
G01*
G37*
G36*
G01*
X115643400Y-89822500D02*
X115643400Y-89072500D01*
G75*
G02*
X115873400Y-88842500I230000J0D01*
G01*
X116333400Y-88842500D01*
G75*
G02*
X116563400Y-89072500I0J-230000D01*
G01*
X116563400Y-89822500D01*
G75*
G02*
X116333400Y-90052500I-230000J0D01*
G01*
X115873400Y-90052500D01*
G75*
G02*
X115643400Y-89822500I0J230000D01*
G01*
G37*
G36*
G01*
X118173400Y-90752500D02*
X118173400Y-90452500D01*
G75*
G02*
X118323400Y-90302500I150000J0D01*
G01*
X119973400Y-90302500D01*
G75*
G02*
X120123400Y-90452500I0J-150000D01*
G01*
X120123400Y-90752500D01*
G75*
G02*
X119973400Y-90902500I-150000J0D01*
G01*
X118323400Y-90902500D01*
G75*
G02*
X118173400Y-90752500I0J150000D01*
G01*
G37*
G36*
G01*
X118173400Y-89482500D02*
X118173400Y-89182500D01*
G75*
G02*
X118323400Y-89032500I150000J0D01*
G01*
X119973400Y-89032500D01*
G75*
G02*
X120123400Y-89182500I0J-150000D01*
G01*
X120123400Y-89482500D01*
G75*
G02*
X119973400Y-89632500I-150000J0D01*
G01*
X118323400Y-89632500D01*
G75*
G02*
X118173400Y-89482500I0J150000D01*
G01*
G37*
G36*
G01*
X118173400Y-88212500D02*
X118173400Y-87912500D01*
G75*
G02*
X118323400Y-87762500I150000J0D01*
G01*
X119973400Y-87762500D01*
G75*
G02*
X120123400Y-87912500I0J-150000D01*
G01*
X120123400Y-88212500D01*
G75*
G02*
X119973400Y-88362500I-150000J0D01*
G01*
X118323400Y-88362500D01*
G75*
G02*
X118173400Y-88212500I0J150000D01*
G01*
G37*
G36*
G01*
X118173400Y-86942500D02*
X118173400Y-86642500D01*
G75*
G02*
X118323400Y-86492500I150000J0D01*
G01*
X119973400Y-86492500D01*
G75*
G02*
X120123400Y-86642500I0J-150000D01*
G01*
X120123400Y-86942500D01*
G75*
G02*
X119973400Y-87092500I-150000J0D01*
G01*
X118323400Y-87092500D01*
G75*
G02*
X118173400Y-86942500I0J150000D01*
G01*
G37*
G36*
G01*
X113223400Y-86942500D02*
X113223400Y-86642500D01*
G75*
G02*
X113373400Y-86492500I150000J0D01*
G01*
X115023400Y-86492500D01*
G75*
G02*
X115173400Y-86642500I0J-150000D01*
G01*
X115173400Y-86942500D01*
G75*
G02*
X115023400Y-87092500I-150000J0D01*
G01*
X113373400Y-87092500D01*
G75*
G02*
X113223400Y-86942500I0J150000D01*
G01*
G37*
G36*
G01*
X113223400Y-88212500D02*
X113223400Y-87912500D01*
G75*
G02*
X113373400Y-87762500I150000J0D01*
G01*
X115023400Y-87762500D01*
G75*
G02*
X115173400Y-87912500I0J-150000D01*
G01*
X115173400Y-88212500D01*
G75*
G02*
X115023400Y-88362500I-150000J0D01*
G01*
X113373400Y-88362500D01*
G75*
G02*
X113223400Y-88212500I0J150000D01*
G01*
G37*
G36*
G01*
X113223400Y-89482500D02*
X113223400Y-89182500D01*
G75*
G02*
X113373400Y-89032500I150000J0D01*
G01*
X115023400Y-89032500D01*
G75*
G02*
X115173400Y-89182500I0J-150000D01*
G01*
X115173400Y-89482500D01*
G75*
G02*
X115023400Y-89632500I-150000J0D01*
G01*
X113373400Y-89632500D01*
G75*
G02*
X113223400Y-89482500I0J150000D01*
G01*
G37*
G36*
G01*
X113223400Y-90752500D02*
X113223400Y-90452500D01*
G75*
G02*
X113373400Y-90302500I150000J0D01*
G01*
X115023400Y-90302500D01*
G75*
G02*
X115173400Y-90452500I0J-150000D01*
G01*
X115173400Y-90752500D01*
G75*
G02*
X115023400Y-90902500I-150000J0D01*
G01*
X113373400Y-90902500D01*
G75*
G02*
X113223400Y-90752500I0J150000D01*
G01*
G37*
G36*
G01*
X169536400Y-90322500D02*
X169536400Y-90122500D01*
G75*
G02*
X169636400Y-90022500I100000J0D01*
G01*
X170911400Y-90022500D01*
G75*
G02*
X171011400Y-90122500I0J-100000D01*
G01*
X171011400Y-90322500D01*
G75*
G02*
X170911400Y-90422500I-100000J0D01*
G01*
X169636400Y-90422500D01*
G75*
G02*
X169536400Y-90322500I0J100000D01*
G01*
G37*
G36*
G01*
X169536400Y-89672500D02*
X169536400Y-89472500D01*
G75*
G02*
X169636400Y-89372500I100000J0D01*
G01*
X170911400Y-89372500D01*
G75*
G02*
X171011400Y-89472500I0J-100000D01*
G01*
X171011400Y-89672500D01*
G75*
G02*
X170911400Y-89772500I-100000J0D01*
G01*
X169636400Y-89772500D01*
G75*
G02*
X169536400Y-89672500I0J100000D01*
G01*
G37*
G36*
G01*
X169536400Y-89022500D02*
X169536400Y-88822500D01*
G75*
G02*
X169636400Y-88722500I100000J0D01*
G01*
X170911400Y-88722500D01*
G75*
G02*
X171011400Y-88822500I0J-100000D01*
G01*
X171011400Y-89022500D01*
G75*
G02*
X170911400Y-89122500I-100000J0D01*
G01*
X169636400Y-89122500D01*
G75*
G02*
X169536400Y-89022500I0J100000D01*
G01*
G37*
G36*
G01*
X169536400Y-88372500D02*
X169536400Y-88172500D01*
G75*
G02*
X169636400Y-88072500I100000J0D01*
G01*
X170911400Y-88072500D01*
G75*
G02*
X171011400Y-88172500I0J-100000D01*
G01*
X171011400Y-88372500D01*
G75*
G02*
X170911400Y-88472500I-100000J0D01*
G01*
X169636400Y-88472500D01*
G75*
G02*
X169536400Y-88372500I0J100000D01*
G01*
G37*
G36*
G01*
X169536400Y-87722500D02*
X169536400Y-87522500D01*
G75*
G02*
X169636400Y-87422500I100000J0D01*
G01*
X170911400Y-87422500D01*
G75*
G02*
X171011400Y-87522500I0J-100000D01*
G01*
X171011400Y-87722500D01*
G75*
G02*
X170911400Y-87822500I-100000J0D01*
G01*
X169636400Y-87822500D01*
G75*
G02*
X169536400Y-87722500I0J100000D01*
G01*
G37*
G36*
G01*
X169536400Y-87072500D02*
X169536400Y-86872500D01*
G75*
G02*
X169636400Y-86772500I100000J0D01*
G01*
X170911400Y-86772500D01*
G75*
G02*
X171011400Y-86872500I0J-100000D01*
G01*
X171011400Y-87072500D01*
G75*
G02*
X170911400Y-87172500I-100000J0D01*
G01*
X169636400Y-87172500D01*
G75*
G02*
X169536400Y-87072500I0J100000D01*
G01*
G37*
G36*
G01*
X169536400Y-86422500D02*
X169536400Y-86222500D01*
G75*
G02*
X169636400Y-86122500I100000J0D01*
G01*
X170911400Y-86122500D01*
G75*
G02*
X171011400Y-86222500I0J-100000D01*
G01*
X171011400Y-86422500D01*
G75*
G02*
X170911400Y-86522500I-100000J0D01*
G01*
X169636400Y-86522500D01*
G75*
G02*
X169536400Y-86422500I0J100000D01*
G01*
G37*
G36*
G01*
X169536400Y-85772500D02*
X169536400Y-85572500D01*
G75*
G02*
X169636400Y-85472500I100000J0D01*
G01*
X170911400Y-85472500D01*
G75*
G02*
X171011400Y-85572500I0J-100000D01*
G01*
X171011400Y-85772500D01*
G75*
G02*
X170911400Y-85872500I-100000J0D01*
G01*
X169636400Y-85872500D01*
G75*
G02*
X169536400Y-85772500I0J100000D01*
G01*
G37*
G36*
G01*
X163811400Y-85772500D02*
X163811400Y-85572500D01*
G75*
G02*
X163911400Y-85472500I100000J0D01*
G01*
X165186400Y-85472500D01*
G75*
G02*
X165286400Y-85572500I0J-100000D01*
G01*
X165286400Y-85772500D01*
G75*
G02*
X165186400Y-85872500I-100000J0D01*
G01*
X163911400Y-85872500D01*
G75*
G02*
X163811400Y-85772500I0J100000D01*
G01*
G37*
G36*
G01*
X163811400Y-86422500D02*
X163811400Y-86222500D01*
G75*
G02*
X163911400Y-86122500I100000J0D01*
G01*
X165186400Y-86122500D01*
G75*
G02*
X165286400Y-86222500I0J-100000D01*
G01*
X165286400Y-86422500D01*
G75*
G02*
X165186400Y-86522500I-100000J0D01*
G01*
X163911400Y-86522500D01*
G75*
G02*
X163811400Y-86422500I0J100000D01*
G01*
G37*
G36*
G01*
X163811400Y-87072500D02*
X163811400Y-86872500D01*
G75*
G02*
X163911400Y-86772500I100000J0D01*
G01*
X165186400Y-86772500D01*
G75*
G02*
X165286400Y-86872500I0J-100000D01*
G01*
X165286400Y-87072500D01*
G75*
G02*
X165186400Y-87172500I-100000J0D01*
G01*
X163911400Y-87172500D01*
G75*
G02*
X163811400Y-87072500I0J100000D01*
G01*
G37*
G36*
G01*
X163811400Y-87722500D02*
X163811400Y-87522500D01*
G75*
G02*
X163911400Y-87422500I100000J0D01*
G01*
X165186400Y-87422500D01*
G75*
G02*
X165286400Y-87522500I0J-100000D01*
G01*
X165286400Y-87722500D01*
G75*
G02*
X165186400Y-87822500I-100000J0D01*
G01*
X163911400Y-87822500D01*
G75*
G02*
X163811400Y-87722500I0J100000D01*
G01*
G37*
G36*
G01*
X163811400Y-88372500D02*
X163811400Y-88172500D01*
G75*
G02*
X163911400Y-88072500I100000J0D01*
G01*
X165186400Y-88072500D01*
G75*
G02*
X165286400Y-88172500I0J-100000D01*
G01*
X165286400Y-88372500D01*
G75*
G02*
X165186400Y-88472500I-100000J0D01*
G01*
X163911400Y-88472500D01*
G75*
G02*
X163811400Y-88372500I0J100000D01*
G01*
G37*
G36*
G01*
X163811400Y-89022500D02*
X163811400Y-88822500D01*
G75*
G02*
X163911400Y-88722500I100000J0D01*
G01*
X165186400Y-88722500D01*
G75*
G02*
X165286400Y-88822500I0J-100000D01*
G01*
X165286400Y-89022500D01*
G75*
G02*
X165186400Y-89122500I-100000J0D01*
G01*
X163911400Y-89122500D01*
G75*
G02*
X163811400Y-89022500I0J100000D01*
G01*
G37*
G36*
G01*
X163811400Y-89672500D02*
X163811400Y-89472500D01*
G75*
G02*
X163911400Y-89372500I100000J0D01*
G01*
X165186400Y-89372500D01*
G75*
G02*
X165286400Y-89472500I0J-100000D01*
G01*
X165286400Y-89672500D01*
G75*
G02*
X165186400Y-89772500I-100000J0D01*
G01*
X163911400Y-89772500D01*
G75*
G02*
X163811400Y-89672500I0J100000D01*
G01*
G37*
G36*
G01*
X163811400Y-90322500D02*
X163811400Y-90122500D01*
G75*
G02*
X163911400Y-90022500I100000J0D01*
G01*
X165186400Y-90022500D01*
G75*
G02*
X165286400Y-90122500I0J-100000D01*
G01*
X165286400Y-90322500D01*
G75*
G02*
X165186400Y-90422500I-100000J0D01*
G01*
X163911400Y-90422500D01*
G75*
G02*
X163811400Y-90322500I0J100000D01*
G01*
G37*
G36*
G01*
X172016400Y-105227500D02*
X172966400Y-105227500D01*
G75*
G02*
X173216400Y-105477500I0J-250000D01*
G01*
X173216400Y-105977500D01*
G75*
G02*
X172966400Y-106227500I-250000J0D01*
G01*
X172016400Y-106227500D01*
G75*
G02*
X171766400Y-105977500I0J250000D01*
G01*
X171766400Y-105477500D01*
G75*
G02*
X172016400Y-105227500I250000J0D01*
G01*
G37*
G36*
G01*
X172016400Y-103327500D02*
X172966400Y-103327500D01*
G75*
G02*
X173216400Y-103577500I0J-250000D01*
G01*
X173216400Y-104077500D01*
G75*
G02*
X172966400Y-104327500I-250000J0D01*
G01*
X172016400Y-104327500D01*
G75*
G02*
X171766400Y-104077500I0J250000D01*
G01*
X171766400Y-103577500D01*
G75*
G02*
X172016400Y-103327500I250000J0D01*
G01*
G37*
G36*
G01*
X138397400Y-117378500D02*
X138397400Y-116428500D01*
G75*
G02*
X138647400Y-116178500I250000J0D01*
G01*
X139147400Y-116178500D01*
G75*
G02*
X139397400Y-116428500I0J-250000D01*
G01*
X139397400Y-117378500D01*
G75*
G02*
X139147400Y-117628500I-250000J0D01*
G01*
X138647400Y-117628500D01*
G75*
G02*
X138397400Y-117378500I0J250000D01*
G01*
G37*
G36*
G01*
X136497400Y-117378500D02*
X136497400Y-116428500D01*
G75*
G02*
X136747400Y-116178500I250000J0D01*
G01*
X137247400Y-116178500D01*
G75*
G02*
X137497400Y-116428500I0J-250000D01*
G01*
X137497400Y-117378500D01*
G75*
G02*
X137247400Y-117628500I-250000J0D01*
G01*
X136747400Y-117628500D01*
G75*
G02*
X136497400Y-117378500I0J250000D01*
G01*
G37*
G36*
G01*
X138522400Y-95425499D02*
X138522400Y-96725501D01*
G75*
G02*
X138272401Y-96975500I-249999J0D01*
G01*
X137622399Y-96975500D01*
G75*
G02*
X137372400Y-96725501I0J249999D01*
G01*
X137372400Y-95425499D01*
G75*
G02*
X137622399Y-95175500I249999J0D01*
G01*
X138272401Y-95175500D01*
G75*
G02*
X138522400Y-95425499I0J-249999D01*
G01*
G37*
G36*
G01*
X141472400Y-95425499D02*
X141472400Y-96725501D01*
G75*
G02*
X141222401Y-96975500I-249999J0D01*
G01*
X140572399Y-96975500D01*
G75*
G02*
X140322400Y-96725501I0J249999D01*
G01*
X140322400Y-95425499D01*
G75*
G02*
X140572399Y-95175500I249999J0D01*
G01*
X141222401Y-95175500D01*
G75*
G02*
X141472400Y-95425499I0J-249999D01*
G01*
G37*
G36*
G01*
X139921400Y-101630500D02*
X139921400Y-100680500D01*
G75*
G02*
X140171400Y-100430500I250000J0D01*
G01*
X140671400Y-100430500D01*
G75*
G02*
X140921400Y-100680500I0J-250000D01*
G01*
X140921400Y-101630500D01*
G75*
G02*
X140671400Y-101880500I-250000J0D01*
G01*
X140171400Y-101880500D01*
G75*
G02*
X139921400Y-101630500I0J250000D01*
G01*
G37*
G36*
G01*
X138021400Y-101630500D02*
X138021400Y-100680500D01*
G75*
G02*
X138271400Y-100430500I250000J0D01*
G01*
X138771400Y-100430500D01*
G75*
G02*
X139021400Y-100680500I0J-250000D01*
G01*
X139021400Y-101630500D01*
G75*
G02*
X138771400Y-101880500I-250000J0D01*
G01*
X138271400Y-101880500D01*
G75*
G02*
X138021400Y-101630500I0J250000D01*
G01*
G37*
G36*
G01*
X108516400Y-77221500D02*
X109466400Y-77221500D01*
G75*
G02*
X109716400Y-77471500I0J-250000D01*
G01*
X109716400Y-77971500D01*
G75*
G02*
X109466400Y-78221500I-250000J0D01*
G01*
X108516400Y-78221500D01*
G75*
G02*
X108266400Y-77971500I0J250000D01*
G01*
X108266400Y-77471500D01*
G75*
G02*
X108516400Y-77221500I250000J0D01*
G01*
G37*
G36*
G01*
X108516400Y-75321500D02*
X109466400Y-75321500D01*
G75*
G02*
X109716400Y-75571500I0J-250000D01*
G01*
X109716400Y-76071500D01*
G75*
G02*
X109466400Y-76321500I-250000J0D01*
G01*
X108516400Y-76321500D01*
G75*
G02*
X108266400Y-76071500I0J250000D01*
G01*
X108266400Y-75571500D01*
G75*
G02*
X108516400Y-75321500I250000J0D01*
G01*
G37*
G36*
G01*
X94480400Y-72191500D02*
X93530400Y-72191500D01*
G75*
G02*
X93280400Y-71941500I0J250000D01*
G01*
X93280400Y-71441500D01*
G75*
G02*
X93530400Y-71191500I250000J0D01*
G01*
X94480400Y-71191500D01*
G75*
G02*
X94730400Y-71441500I0J-250000D01*
G01*
X94730400Y-71941500D01*
G75*
G02*
X94480400Y-72191500I-250000J0D01*
G01*
G37*
G36*
G01*
X94480400Y-74091500D02*
X93530400Y-74091500D01*
G75*
G02*
X93280400Y-73841500I0J250000D01*
G01*
X93280400Y-73341500D01*
G75*
G02*
X93530400Y-73091500I250000J0D01*
G01*
X94480400Y-73091500D01*
G75*
G02*
X94730400Y-73341500I0J-250000D01*
G01*
X94730400Y-73841500D01*
G75*
G02*
X94480400Y-74091500I-250000J0D01*
G01*
G37*
G36*
G01*
X94480400Y-90799500D02*
X93530400Y-90799500D01*
G75*
G02*
X93280400Y-90549500I0J250000D01*
G01*
X93280400Y-90049500D01*
G75*
G02*
X93530400Y-89799500I250000J0D01*
G01*
X94480400Y-89799500D01*
G75*
G02*
X94730400Y-90049500I0J-250000D01*
G01*
X94730400Y-90549500D01*
G75*
G02*
X94480400Y-90799500I-250000J0D01*
G01*
G37*
G36*
G01*
X94480400Y-92699500D02*
X93530400Y-92699500D01*
G75*
G02*
X93280400Y-92449500I0J250000D01*
G01*
X93280400Y-91949500D01*
G75*
G02*
X93530400Y-91699500I250000J0D01*
G01*
X94480400Y-91699500D01*
G75*
G02*
X94730400Y-91949500I0J-250000D01*
G01*
X94730400Y-92449500D01*
G75*
G02*
X94480400Y-92699500I-250000J0D01*
G01*
G37*
G36*
G01*
X166961400Y-93060500D02*
X166961400Y-94010500D01*
G75*
G02*
X166711400Y-94260500I-250000J0D01*
G01*
X166211400Y-94260500D01*
G75*
G02*
X165961400Y-94010500I0J250000D01*
G01*
X165961400Y-93060500D01*
G75*
G02*
X166211400Y-92810500I250000J0D01*
G01*
X166711400Y-92810500D01*
G75*
G02*
X166961400Y-93060500I0J-250000D01*
G01*
G37*
G36*
G01*
X168861400Y-93060500D02*
X168861400Y-94010500D01*
G75*
G02*
X168611400Y-94260500I-250000J0D01*
G01*
X168111400Y-94260500D01*
G75*
G02*
X167861400Y-94010500I0J250000D01*
G01*
X167861400Y-93060500D01*
G75*
G02*
X168111400Y-92810500I250000J0D01*
G01*
X168611400Y-92810500D01*
G75*
G02*
X168861400Y-93060500I0J-250000D01*
G01*
G37*
G36*
G01*
X173540400Y-90429500D02*
X174490400Y-90429500D01*
G75*
G02*
X174740400Y-90679500I0J-250000D01*
G01*
X174740400Y-91179500D01*
G75*
G02*
X174490400Y-91429500I-250000J0D01*
G01*
X173540400Y-91429500D01*
G75*
G02*
X173290400Y-91179500I0J250000D01*
G01*
X173290400Y-90679500D01*
G75*
G02*
X173540400Y-90429500I250000J0D01*
G01*
G37*
G36*
G01*
X173540400Y-88529500D02*
X174490400Y-88529500D01*
G75*
G02*
X174740400Y-88779500I0J-250000D01*
G01*
X174740400Y-89279500D01*
G75*
G02*
X174490400Y-89529500I-250000J0D01*
G01*
X173540400Y-89529500D01*
G75*
G02*
X173290400Y-89279500I0J250000D01*
G01*
X173290400Y-88779500D01*
G75*
G02*
X173540400Y-88529500I250000J0D01*
G01*
G37*
G36*
G01*
X167861400Y-82834500D02*
X167861400Y-81884500D01*
G75*
G02*
X168111400Y-81634500I250000J0D01*
G01*
X168611400Y-81634500D01*
G75*
G02*
X168861400Y-81884500I0J-250000D01*
G01*
X168861400Y-82834500D01*
G75*
G02*
X168611400Y-83084500I-250000J0D01*
G01*
X168111400Y-83084500D01*
G75*
G02*
X167861400Y-82834500I0J250000D01*
G01*
G37*
G36*
G01*
X165961400Y-82834500D02*
X165961400Y-81884500D01*
G75*
G02*
X166211400Y-81634500I250000J0D01*
G01*
X166711400Y-81634500D01*
G75*
G02*
X166961400Y-81884500I0J-250000D01*
G01*
X166961400Y-82834500D01*
G75*
G02*
X166711400Y-83084500I-250000J0D01*
G01*
X166211400Y-83084500D01*
G75*
G02*
X165961400Y-82834500I0J250000D01*
G01*
G37*
G36*
G01*
X160332400Y-85857500D02*
X161282400Y-85857500D01*
G75*
G02*
X161532400Y-86107500I0J-250000D01*
G01*
X161532400Y-86607500D01*
G75*
G02*
X161282400Y-86857500I-250000J0D01*
G01*
X160332400Y-86857500D01*
G75*
G02*
X160082400Y-86607500I0J250000D01*
G01*
X160082400Y-86107500D01*
G75*
G02*
X160332400Y-85857500I250000J0D01*
G01*
G37*
G36*
G01*
X160332400Y-83957500D02*
X161282400Y-83957500D01*
G75*
G02*
X161532400Y-84207500I0J-250000D01*
G01*
X161532400Y-84707500D01*
G75*
G02*
X161282400Y-84957500I-250000J0D01*
G01*
X160332400Y-84957500D01*
G75*
G02*
X160082400Y-84707500I0J250000D01*
G01*
X160082400Y-84207500D01*
G75*
G02*
X160332400Y-83957500I250000J0D01*
G01*
G37*
G36*
G01*
X161282400Y-90103500D02*
X160332400Y-90103500D01*
G75*
G02*
X160082400Y-89853500I0J250000D01*
G01*
X160082400Y-89353500D01*
G75*
G02*
X160332400Y-89103500I250000J0D01*
G01*
X161282400Y-89103500D01*
G75*
G02*
X161532400Y-89353500I0J-250000D01*
G01*
X161532400Y-89853500D01*
G75*
G02*
X161282400Y-90103500I-250000J0D01*
G01*
G37*
G36*
G01*
X161282400Y-92003500D02*
X160332400Y-92003500D01*
G75*
G02*
X160082400Y-91753500I0J250000D01*
G01*
X160082400Y-91253500D01*
G75*
G02*
X160332400Y-91003500I250000J0D01*
G01*
X161282400Y-91003500D01*
G75*
G02*
X161532400Y-91253500I0J-250000D01*
G01*
X161532400Y-91753500D01*
G75*
G02*
X161282400Y-92003500I-250000J0D01*
G01*
G37*
M02*
