G04 #@! TF.GenerationSoftware,KiCad,Pcbnew,(5.1.9-0-10_14)*
G04 #@! TF.CreationDate,2021-03-21T13:51:25-07:00*
G04 #@! TF.ProjectId,telemetry-pcb,74656c65-6d65-4747-9279-2d7063622e6b,rev?*
G04 #@! TF.SameCoordinates,Original*
G04 #@! TF.FileFunction,Paste,Top*
G04 #@! TF.FilePolarity,Positive*
%FSLAX46Y46*%
G04 Gerber Fmt 4.6, Leading zero omitted, Abs format (unit mm)*
G04 Created by KiCad (PCBNEW (5.1.9-0-10_14)) date 2021-03-21 13:51:25*
%MOMM*%
%LPD*%
G01*
G04 APERTURE LIST*
%ADD10R,4.500000X2.000000*%
%ADD11R,0.600000X1.970000*%
%ADD12R,1.800000X2.500000*%
G04 APERTURE END LIST*
D10*
X141410000Y-73660000D03*
X132910000Y-73660000D03*
G36*
G01*
X145399000Y-41817000D02*
X145199000Y-41817000D01*
G75*
G02*
X145099000Y-41717000I0J100000D01*
G01*
X145099000Y-40442000D01*
G75*
G02*
X145199000Y-40342000I100000J0D01*
G01*
X145399000Y-40342000D01*
G75*
G02*
X145499000Y-40442000I0J-100000D01*
G01*
X145499000Y-41717000D01*
G75*
G02*
X145399000Y-41817000I-100000J0D01*
G01*
G37*
G36*
G01*
X146049000Y-41817000D02*
X145849000Y-41817000D01*
G75*
G02*
X145749000Y-41717000I0J100000D01*
G01*
X145749000Y-40442000D01*
G75*
G02*
X145849000Y-40342000I100000J0D01*
G01*
X146049000Y-40342000D01*
G75*
G02*
X146149000Y-40442000I0J-100000D01*
G01*
X146149000Y-41717000D01*
G75*
G02*
X146049000Y-41817000I-100000J0D01*
G01*
G37*
G36*
G01*
X146699000Y-41817000D02*
X146499000Y-41817000D01*
G75*
G02*
X146399000Y-41717000I0J100000D01*
G01*
X146399000Y-40442000D01*
G75*
G02*
X146499000Y-40342000I100000J0D01*
G01*
X146699000Y-40342000D01*
G75*
G02*
X146799000Y-40442000I0J-100000D01*
G01*
X146799000Y-41717000D01*
G75*
G02*
X146699000Y-41817000I-100000J0D01*
G01*
G37*
G36*
G01*
X147349000Y-41817000D02*
X147149000Y-41817000D01*
G75*
G02*
X147049000Y-41717000I0J100000D01*
G01*
X147049000Y-40442000D01*
G75*
G02*
X147149000Y-40342000I100000J0D01*
G01*
X147349000Y-40342000D01*
G75*
G02*
X147449000Y-40442000I0J-100000D01*
G01*
X147449000Y-41717000D01*
G75*
G02*
X147349000Y-41817000I-100000J0D01*
G01*
G37*
G36*
G01*
X147999000Y-41817000D02*
X147799000Y-41817000D01*
G75*
G02*
X147699000Y-41717000I0J100000D01*
G01*
X147699000Y-40442000D01*
G75*
G02*
X147799000Y-40342000I100000J0D01*
G01*
X147999000Y-40342000D01*
G75*
G02*
X148099000Y-40442000I0J-100000D01*
G01*
X148099000Y-41717000D01*
G75*
G02*
X147999000Y-41817000I-100000J0D01*
G01*
G37*
G36*
G01*
X148649000Y-41817000D02*
X148449000Y-41817000D01*
G75*
G02*
X148349000Y-41717000I0J100000D01*
G01*
X148349000Y-40442000D01*
G75*
G02*
X148449000Y-40342000I100000J0D01*
G01*
X148649000Y-40342000D01*
G75*
G02*
X148749000Y-40442000I0J-100000D01*
G01*
X148749000Y-41717000D01*
G75*
G02*
X148649000Y-41817000I-100000J0D01*
G01*
G37*
G36*
G01*
X149299000Y-41817000D02*
X149099000Y-41817000D01*
G75*
G02*
X148999000Y-41717000I0J100000D01*
G01*
X148999000Y-40442000D01*
G75*
G02*
X149099000Y-40342000I100000J0D01*
G01*
X149299000Y-40342000D01*
G75*
G02*
X149399000Y-40442000I0J-100000D01*
G01*
X149399000Y-41717000D01*
G75*
G02*
X149299000Y-41817000I-100000J0D01*
G01*
G37*
G36*
G01*
X149949000Y-41817000D02*
X149749000Y-41817000D01*
G75*
G02*
X149649000Y-41717000I0J100000D01*
G01*
X149649000Y-40442000D01*
G75*
G02*
X149749000Y-40342000I100000J0D01*
G01*
X149949000Y-40342000D01*
G75*
G02*
X150049000Y-40442000I0J-100000D01*
G01*
X150049000Y-41717000D01*
G75*
G02*
X149949000Y-41817000I-100000J0D01*
G01*
G37*
G36*
G01*
X149949000Y-47542000D02*
X149749000Y-47542000D01*
G75*
G02*
X149649000Y-47442000I0J100000D01*
G01*
X149649000Y-46167000D01*
G75*
G02*
X149749000Y-46067000I100000J0D01*
G01*
X149949000Y-46067000D01*
G75*
G02*
X150049000Y-46167000I0J-100000D01*
G01*
X150049000Y-47442000D01*
G75*
G02*
X149949000Y-47542000I-100000J0D01*
G01*
G37*
G36*
G01*
X149299000Y-47542000D02*
X149099000Y-47542000D01*
G75*
G02*
X148999000Y-47442000I0J100000D01*
G01*
X148999000Y-46167000D01*
G75*
G02*
X149099000Y-46067000I100000J0D01*
G01*
X149299000Y-46067000D01*
G75*
G02*
X149399000Y-46167000I0J-100000D01*
G01*
X149399000Y-47442000D01*
G75*
G02*
X149299000Y-47542000I-100000J0D01*
G01*
G37*
G36*
G01*
X148649000Y-47542000D02*
X148449000Y-47542000D01*
G75*
G02*
X148349000Y-47442000I0J100000D01*
G01*
X148349000Y-46167000D01*
G75*
G02*
X148449000Y-46067000I100000J0D01*
G01*
X148649000Y-46067000D01*
G75*
G02*
X148749000Y-46167000I0J-100000D01*
G01*
X148749000Y-47442000D01*
G75*
G02*
X148649000Y-47542000I-100000J0D01*
G01*
G37*
G36*
G01*
X147999000Y-47542000D02*
X147799000Y-47542000D01*
G75*
G02*
X147699000Y-47442000I0J100000D01*
G01*
X147699000Y-46167000D01*
G75*
G02*
X147799000Y-46067000I100000J0D01*
G01*
X147999000Y-46067000D01*
G75*
G02*
X148099000Y-46167000I0J-100000D01*
G01*
X148099000Y-47442000D01*
G75*
G02*
X147999000Y-47542000I-100000J0D01*
G01*
G37*
G36*
G01*
X147349000Y-47542000D02*
X147149000Y-47542000D01*
G75*
G02*
X147049000Y-47442000I0J100000D01*
G01*
X147049000Y-46167000D01*
G75*
G02*
X147149000Y-46067000I100000J0D01*
G01*
X147349000Y-46067000D01*
G75*
G02*
X147449000Y-46167000I0J-100000D01*
G01*
X147449000Y-47442000D01*
G75*
G02*
X147349000Y-47542000I-100000J0D01*
G01*
G37*
G36*
G01*
X146699000Y-47542000D02*
X146499000Y-47542000D01*
G75*
G02*
X146399000Y-47442000I0J100000D01*
G01*
X146399000Y-46167000D01*
G75*
G02*
X146499000Y-46067000I100000J0D01*
G01*
X146699000Y-46067000D01*
G75*
G02*
X146799000Y-46167000I0J-100000D01*
G01*
X146799000Y-47442000D01*
G75*
G02*
X146699000Y-47542000I-100000J0D01*
G01*
G37*
G36*
G01*
X146049000Y-47542000D02*
X145849000Y-47542000D01*
G75*
G02*
X145749000Y-47442000I0J100000D01*
G01*
X145749000Y-46167000D01*
G75*
G02*
X145849000Y-46067000I100000J0D01*
G01*
X146049000Y-46067000D01*
G75*
G02*
X146149000Y-46167000I0J-100000D01*
G01*
X146149000Y-47442000D01*
G75*
G02*
X146049000Y-47542000I-100000J0D01*
G01*
G37*
G36*
G01*
X145399000Y-47542000D02*
X145199000Y-47542000D01*
G75*
G02*
X145099000Y-47442000I0J100000D01*
G01*
X145099000Y-46167000D01*
G75*
G02*
X145199000Y-46067000I100000J0D01*
G01*
X145399000Y-46067000D01*
G75*
G02*
X145499000Y-46167000I0J-100000D01*
G01*
X145499000Y-47442000D01*
G75*
G02*
X145399000Y-47542000I-100000J0D01*
G01*
G37*
G36*
G01*
X170833000Y-42274000D02*
X171583000Y-42274000D01*
G75*
G02*
X171813000Y-42504000I0J-230000D01*
G01*
X171813000Y-42964000D01*
G75*
G02*
X171583000Y-43194000I-230000J0D01*
G01*
X170833000Y-43194000D01*
G75*
G02*
X170603000Y-42964000I0J230000D01*
G01*
X170603000Y-42504000D01*
G75*
G02*
X170833000Y-42274000I230000J0D01*
G01*
G37*
G36*
G01*
X172333000Y-42274000D02*
X173083000Y-42274000D01*
G75*
G02*
X173313000Y-42504000I0J-230000D01*
G01*
X173313000Y-42964000D01*
G75*
G02*
X173083000Y-43194000I-230000J0D01*
G01*
X172333000Y-43194000D01*
G75*
G02*
X172103000Y-42964000I0J230000D01*
G01*
X172103000Y-42504000D01*
G75*
G02*
X172333000Y-42274000I230000J0D01*
G01*
G37*
G36*
G01*
X170833000Y-41134000D02*
X171583000Y-41134000D01*
G75*
G02*
X171813000Y-41364000I0J-230000D01*
G01*
X171813000Y-41824000D01*
G75*
G02*
X171583000Y-42054000I-230000J0D01*
G01*
X170833000Y-42054000D01*
G75*
G02*
X170603000Y-41824000I0J230000D01*
G01*
X170603000Y-41364000D01*
G75*
G02*
X170833000Y-41134000I230000J0D01*
G01*
G37*
G36*
G01*
X172333000Y-41134000D02*
X173083000Y-41134000D01*
G75*
G02*
X173313000Y-41364000I0J-230000D01*
G01*
X173313000Y-41824000D01*
G75*
G02*
X173083000Y-42054000I-230000J0D01*
G01*
X172333000Y-42054000D01*
G75*
G02*
X172103000Y-41824000I0J230000D01*
G01*
X172103000Y-41364000D01*
G75*
G02*
X172333000Y-41134000I230000J0D01*
G01*
G37*
G36*
G01*
X173713000Y-43664000D02*
X174013000Y-43664000D01*
G75*
G02*
X174163000Y-43814000I0J-150000D01*
G01*
X174163000Y-45464000D01*
G75*
G02*
X174013000Y-45614000I-150000J0D01*
G01*
X173713000Y-45614000D01*
G75*
G02*
X173563000Y-45464000I0J150000D01*
G01*
X173563000Y-43814000D01*
G75*
G02*
X173713000Y-43664000I150000J0D01*
G01*
G37*
G36*
G01*
X172443000Y-43664000D02*
X172743000Y-43664000D01*
G75*
G02*
X172893000Y-43814000I0J-150000D01*
G01*
X172893000Y-45464000D01*
G75*
G02*
X172743000Y-45614000I-150000J0D01*
G01*
X172443000Y-45614000D01*
G75*
G02*
X172293000Y-45464000I0J150000D01*
G01*
X172293000Y-43814000D01*
G75*
G02*
X172443000Y-43664000I150000J0D01*
G01*
G37*
G36*
G01*
X171173000Y-43664000D02*
X171473000Y-43664000D01*
G75*
G02*
X171623000Y-43814000I0J-150000D01*
G01*
X171623000Y-45464000D01*
G75*
G02*
X171473000Y-45614000I-150000J0D01*
G01*
X171173000Y-45614000D01*
G75*
G02*
X171023000Y-45464000I0J150000D01*
G01*
X171023000Y-43814000D01*
G75*
G02*
X171173000Y-43664000I150000J0D01*
G01*
G37*
G36*
G01*
X169903000Y-43664000D02*
X170203000Y-43664000D01*
G75*
G02*
X170353000Y-43814000I0J-150000D01*
G01*
X170353000Y-45464000D01*
G75*
G02*
X170203000Y-45614000I-150000J0D01*
G01*
X169903000Y-45614000D01*
G75*
G02*
X169753000Y-45464000I0J150000D01*
G01*
X169753000Y-43814000D01*
G75*
G02*
X169903000Y-43664000I150000J0D01*
G01*
G37*
G36*
G01*
X169903000Y-38714000D02*
X170203000Y-38714000D01*
G75*
G02*
X170353000Y-38864000I0J-150000D01*
G01*
X170353000Y-40514000D01*
G75*
G02*
X170203000Y-40664000I-150000J0D01*
G01*
X169903000Y-40664000D01*
G75*
G02*
X169753000Y-40514000I0J150000D01*
G01*
X169753000Y-38864000D01*
G75*
G02*
X169903000Y-38714000I150000J0D01*
G01*
G37*
G36*
G01*
X171173000Y-38714000D02*
X171473000Y-38714000D01*
G75*
G02*
X171623000Y-38864000I0J-150000D01*
G01*
X171623000Y-40514000D01*
G75*
G02*
X171473000Y-40664000I-150000J0D01*
G01*
X171173000Y-40664000D01*
G75*
G02*
X171023000Y-40514000I0J150000D01*
G01*
X171023000Y-38864000D01*
G75*
G02*
X171173000Y-38714000I150000J0D01*
G01*
G37*
G36*
G01*
X172443000Y-38714000D02*
X172743000Y-38714000D01*
G75*
G02*
X172893000Y-38864000I0J-150000D01*
G01*
X172893000Y-40514000D01*
G75*
G02*
X172743000Y-40664000I-150000J0D01*
G01*
X172443000Y-40664000D01*
G75*
G02*
X172293000Y-40514000I0J150000D01*
G01*
X172293000Y-38864000D01*
G75*
G02*
X172443000Y-38714000I150000J0D01*
G01*
G37*
G36*
G01*
X173713000Y-38714000D02*
X174013000Y-38714000D01*
G75*
G02*
X174163000Y-38864000I0J-150000D01*
G01*
X174163000Y-40514000D01*
G75*
G02*
X174013000Y-40664000I-150000J0D01*
G01*
X173713000Y-40664000D01*
G75*
G02*
X173563000Y-40514000I0J150000D01*
G01*
X173563000Y-38864000D01*
G75*
G02*
X173713000Y-38714000I150000J0D01*
G01*
G37*
G36*
G01*
X183533000Y-42274000D02*
X184283000Y-42274000D01*
G75*
G02*
X184513000Y-42504000I0J-230000D01*
G01*
X184513000Y-42964000D01*
G75*
G02*
X184283000Y-43194000I-230000J0D01*
G01*
X183533000Y-43194000D01*
G75*
G02*
X183303000Y-42964000I0J230000D01*
G01*
X183303000Y-42504000D01*
G75*
G02*
X183533000Y-42274000I230000J0D01*
G01*
G37*
G36*
G01*
X185033000Y-42274000D02*
X185783000Y-42274000D01*
G75*
G02*
X186013000Y-42504000I0J-230000D01*
G01*
X186013000Y-42964000D01*
G75*
G02*
X185783000Y-43194000I-230000J0D01*
G01*
X185033000Y-43194000D01*
G75*
G02*
X184803000Y-42964000I0J230000D01*
G01*
X184803000Y-42504000D01*
G75*
G02*
X185033000Y-42274000I230000J0D01*
G01*
G37*
G36*
G01*
X183533000Y-41134000D02*
X184283000Y-41134000D01*
G75*
G02*
X184513000Y-41364000I0J-230000D01*
G01*
X184513000Y-41824000D01*
G75*
G02*
X184283000Y-42054000I-230000J0D01*
G01*
X183533000Y-42054000D01*
G75*
G02*
X183303000Y-41824000I0J230000D01*
G01*
X183303000Y-41364000D01*
G75*
G02*
X183533000Y-41134000I230000J0D01*
G01*
G37*
G36*
G01*
X185033000Y-41134000D02*
X185783000Y-41134000D01*
G75*
G02*
X186013000Y-41364000I0J-230000D01*
G01*
X186013000Y-41824000D01*
G75*
G02*
X185783000Y-42054000I-230000J0D01*
G01*
X185033000Y-42054000D01*
G75*
G02*
X184803000Y-41824000I0J230000D01*
G01*
X184803000Y-41364000D01*
G75*
G02*
X185033000Y-41134000I230000J0D01*
G01*
G37*
G36*
G01*
X186413000Y-43664000D02*
X186713000Y-43664000D01*
G75*
G02*
X186863000Y-43814000I0J-150000D01*
G01*
X186863000Y-45464000D01*
G75*
G02*
X186713000Y-45614000I-150000J0D01*
G01*
X186413000Y-45614000D01*
G75*
G02*
X186263000Y-45464000I0J150000D01*
G01*
X186263000Y-43814000D01*
G75*
G02*
X186413000Y-43664000I150000J0D01*
G01*
G37*
G36*
G01*
X185143000Y-43664000D02*
X185443000Y-43664000D01*
G75*
G02*
X185593000Y-43814000I0J-150000D01*
G01*
X185593000Y-45464000D01*
G75*
G02*
X185443000Y-45614000I-150000J0D01*
G01*
X185143000Y-45614000D01*
G75*
G02*
X184993000Y-45464000I0J150000D01*
G01*
X184993000Y-43814000D01*
G75*
G02*
X185143000Y-43664000I150000J0D01*
G01*
G37*
G36*
G01*
X183873000Y-43664000D02*
X184173000Y-43664000D01*
G75*
G02*
X184323000Y-43814000I0J-150000D01*
G01*
X184323000Y-45464000D01*
G75*
G02*
X184173000Y-45614000I-150000J0D01*
G01*
X183873000Y-45614000D01*
G75*
G02*
X183723000Y-45464000I0J150000D01*
G01*
X183723000Y-43814000D01*
G75*
G02*
X183873000Y-43664000I150000J0D01*
G01*
G37*
G36*
G01*
X182603000Y-43664000D02*
X182903000Y-43664000D01*
G75*
G02*
X183053000Y-43814000I0J-150000D01*
G01*
X183053000Y-45464000D01*
G75*
G02*
X182903000Y-45614000I-150000J0D01*
G01*
X182603000Y-45614000D01*
G75*
G02*
X182453000Y-45464000I0J150000D01*
G01*
X182453000Y-43814000D01*
G75*
G02*
X182603000Y-43664000I150000J0D01*
G01*
G37*
G36*
G01*
X182603000Y-38714000D02*
X182903000Y-38714000D01*
G75*
G02*
X183053000Y-38864000I0J-150000D01*
G01*
X183053000Y-40514000D01*
G75*
G02*
X182903000Y-40664000I-150000J0D01*
G01*
X182603000Y-40664000D01*
G75*
G02*
X182453000Y-40514000I0J150000D01*
G01*
X182453000Y-38864000D01*
G75*
G02*
X182603000Y-38714000I150000J0D01*
G01*
G37*
G36*
G01*
X183873000Y-38714000D02*
X184173000Y-38714000D01*
G75*
G02*
X184323000Y-38864000I0J-150000D01*
G01*
X184323000Y-40514000D01*
G75*
G02*
X184173000Y-40664000I-150000J0D01*
G01*
X183873000Y-40664000D01*
G75*
G02*
X183723000Y-40514000I0J150000D01*
G01*
X183723000Y-38864000D01*
G75*
G02*
X183873000Y-38714000I150000J0D01*
G01*
G37*
G36*
G01*
X185143000Y-38714000D02*
X185443000Y-38714000D01*
G75*
G02*
X185593000Y-38864000I0J-150000D01*
G01*
X185593000Y-40514000D01*
G75*
G02*
X185443000Y-40664000I-150000J0D01*
G01*
X185143000Y-40664000D01*
G75*
G02*
X184993000Y-40514000I0J150000D01*
G01*
X184993000Y-38864000D01*
G75*
G02*
X185143000Y-38714000I150000J0D01*
G01*
G37*
G36*
G01*
X186413000Y-38714000D02*
X186713000Y-38714000D01*
G75*
G02*
X186863000Y-38864000I0J-150000D01*
G01*
X186863000Y-40514000D01*
G75*
G02*
X186713000Y-40664000I-150000J0D01*
G01*
X186413000Y-40664000D01*
G75*
G02*
X186263000Y-40514000I0J150000D01*
G01*
X186263000Y-38864000D01*
G75*
G02*
X186413000Y-38714000I150000J0D01*
G01*
G37*
G36*
G01*
X132022001Y-63608000D02*
X131121999Y-63608000D01*
G75*
G02*
X130872000Y-63358001I0J249999D01*
G01*
X130872000Y-62832999D01*
G75*
G02*
X131121999Y-62583000I249999J0D01*
G01*
X132022001Y-62583000D01*
G75*
G02*
X132272000Y-62832999I0J-249999D01*
G01*
X132272000Y-63358001D01*
G75*
G02*
X132022001Y-63608000I-249999J0D01*
G01*
G37*
G36*
G01*
X132022001Y-65433000D02*
X131121999Y-65433000D01*
G75*
G02*
X130872000Y-65183001I0J249999D01*
G01*
X130872000Y-64657999D01*
G75*
G02*
X131121999Y-64408000I249999J0D01*
G01*
X132022001Y-64408000D01*
G75*
G02*
X132272000Y-64657999I0J-249999D01*
G01*
X132272000Y-65183001D01*
G75*
G02*
X132022001Y-65433000I-249999J0D01*
G01*
G37*
G36*
G01*
X121989000Y-63142000D02*
X121989000Y-62842000D01*
G75*
G02*
X122139000Y-62692000I150000J0D01*
G01*
X123889000Y-62692000D01*
G75*
G02*
X124039000Y-62842000I0J-150000D01*
G01*
X124039000Y-63142000D01*
G75*
G02*
X123889000Y-63292000I-150000J0D01*
G01*
X122139000Y-63292000D01*
G75*
G02*
X121989000Y-63142000I0J150000D01*
G01*
G37*
G36*
G01*
X121989000Y-64412000D02*
X121989000Y-64112000D01*
G75*
G02*
X122139000Y-63962000I150000J0D01*
G01*
X123889000Y-63962000D01*
G75*
G02*
X124039000Y-64112000I0J-150000D01*
G01*
X124039000Y-64412000D01*
G75*
G02*
X123889000Y-64562000I-150000J0D01*
G01*
X122139000Y-64562000D01*
G75*
G02*
X121989000Y-64412000I0J150000D01*
G01*
G37*
G36*
G01*
X121989000Y-65682000D02*
X121989000Y-65382000D01*
G75*
G02*
X122139000Y-65232000I150000J0D01*
G01*
X123889000Y-65232000D01*
G75*
G02*
X124039000Y-65382000I0J-150000D01*
G01*
X124039000Y-65682000D01*
G75*
G02*
X123889000Y-65832000I-150000J0D01*
G01*
X122139000Y-65832000D01*
G75*
G02*
X121989000Y-65682000I0J150000D01*
G01*
G37*
G36*
G01*
X121989000Y-66952000D02*
X121989000Y-66652000D01*
G75*
G02*
X122139000Y-66502000I150000J0D01*
G01*
X123889000Y-66502000D01*
G75*
G02*
X124039000Y-66652000I0J-150000D01*
G01*
X124039000Y-66952000D01*
G75*
G02*
X123889000Y-67102000I-150000J0D01*
G01*
X122139000Y-67102000D01*
G75*
G02*
X121989000Y-66952000I0J150000D01*
G01*
G37*
G36*
G01*
X121989000Y-68222000D02*
X121989000Y-67922000D01*
G75*
G02*
X122139000Y-67772000I150000J0D01*
G01*
X123889000Y-67772000D01*
G75*
G02*
X124039000Y-67922000I0J-150000D01*
G01*
X124039000Y-68222000D01*
G75*
G02*
X123889000Y-68372000I-150000J0D01*
G01*
X122139000Y-68372000D01*
G75*
G02*
X121989000Y-68222000I0J150000D01*
G01*
G37*
G36*
G01*
X121989000Y-69492000D02*
X121989000Y-69192000D01*
G75*
G02*
X122139000Y-69042000I150000J0D01*
G01*
X123889000Y-69042000D01*
G75*
G02*
X124039000Y-69192000I0J-150000D01*
G01*
X124039000Y-69492000D01*
G75*
G02*
X123889000Y-69642000I-150000J0D01*
G01*
X122139000Y-69642000D01*
G75*
G02*
X121989000Y-69492000I0J150000D01*
G01*
G37*
G36*
G01*
X121989000Y-70762000D02*
X121989000Y-70462000D01*
G75*
G02*
X122139000Y-70312000I150000J0D01*
G01*
X123889000Y-70312000D01*
G75*
G02*
X124039000Y-70462000I0J-150000D01*
G01*
X124039000Y-70762000D01*
G75*
G02*
X123889000Y-70912000I-150000J0D01*
G01*
X122139000Y-70912000D01*
G75*
G02*
X121989000Y-70762000I0J150000D01*
G01*
G37*
G36*
G01*
X121989000Y-72032000D02*
X121989000Y-71732000D01*
G75*
G02*
X122139000Y-71582000I150000J0D01*
G01*
X123889000Y-71582000D01*
G75*
G02*
X124039000Y-71732000I0J-150000D01*
G01*
X124039000Y-72032000D01*
G75*
G02*
X123889000Y-72182000I-150000J0D01*
G01*
X122139000Y-72182000D01*
G75*
G02*
X121989000Y-72032000I0J150000D01*
G01*
G37*
G36*
G01*
X121989000Y-73302000D02*
X121989000Y-73002000D01*
G75*
G02*
X122139000Y-72852000I150000J0D01*
G01*
X123889000Y-72852000D01*
G75*
G02*
X124039000Y-73002000I0J-150000D01*
G01*
X124039000Y-73302000D01*
G75*
G02*
X123889000Y-73452000I-150000J0D01*
G01*
X122139000Y-73452000D01*
G75*
G02*
X121989000Y-73302000I0J150000D01*
G01*
G37*
G36*
G01*
X112689000Y-73302000D02*
X112689000Y-73002000D01*
G75*
G02*
X112839000Y-72852000I150000J0D01*
G01*
X114589000Y-72852000D01*
G75*
G02*
X114739000Y-73002000I0J-150000D01*
G01*
X114739000Y-73302000D01*
G75*
G02*
X114589000Y-73452000I-150000J0D01*
G01*
X112839000Y-73452000D01*
G75*
G02*
X112689000Y-73302000I0J150000D01*
G01*
G37*
G36*
G01*
X112689000Y-72032000D02*
X112689000Y-71732000D01*
G75*
G02*
X112839000Y-71582000I150000J0D01*
G01*
X114589000Y-71582000D01*
G75*
G02*
X114739000Y-71732000I0J-150000D01*
G01*
X114739000Y-72032000D01*
G75*
G02*
X114589000Y-72182000I-150000J0D01*
G01*
X112839000Y-72182000D01*
G75*
G02*
X112689000Y-72032000I0J150000D01*
G01*
G37*
G36*
G01*
X112689000Y-70762000D02*
X112689000Y-70462000D01*
G75*
G02*
X112839000Y-70312000I150000J0D01*
G01*
X114589000Y-70312000D01*
G75*
G02*
X114739000Y-70462000I0J-150000D01*
G01*
X114739000Y-70762000D01*
G75*
G02*
X114589000Y-70912000I-150000J0D01*
G01*
X112839000Y-70912000D01*
G75*
G02*
X112689000Y-70762000I0J150000D01*
G01*
G37*
G36*
G01*
X112689000Y-69492000D02*
X112689000Y-69192000D01*
G75*
G02*
X112839000Y-69042000I150000J0D01*
G01*
X114589000Y-69042000D01*
G75*
G02*
X114739000Y-69192000I0J-150000D01*
G01*
X114739000Y-69492000D01*
G75*
G02*
X114589000Y-69642000I-150000J0D01*
G01*
X112839000Y-69642000D01*
G75*
G02*
X112689000Y-69492000I0J150000D01*
G01*
G37*
G36*
G01*
X112689000Y-68222000D02*
X112689000Y-67922000D01*
G75*
G02*
X112839000Y-67772000I150000J0D01*
G01*
X114589000Y-67772000D01*
G75*
G02*
X114739000Y-67922000I0J-150000D01*
G01*
X114739000Y-68222000D01*
G75*
G02*
X114589000Y-68372000I-150000J0D01*
G01*
X112839000Y-68372000D01*
G75*
G02*
X112689000Y-68222000I0J150000D01*
G01*
G37*
G36*
G01*
X112689000Y-66952000D02*
X112689000Y-66652000D01*
G75*
G02*
X112839000Y-66502000I150000J0D01*
G01*
X114589000Y-66502000D01*
G75*
G02*
X114739000Y-66652000I0J-150000D01*
G01*
X114739000Y-66952000D01*
G75*
G02*
X114589000Y-67102000I-150000J0D01*
G01*
X112839000Y-67102000D01*
G75*
G02*
X112689000Y-66952000I0J150000D01*
G01*
G37*
G36*
G01*
X112689000Y-65682000D02*
X112689000Y-65382000D01*
G75*
G02*
X112839000Y-65232000I150000J0D01*
G01*
X114589000Y-65232000D01*
G75*
G02*
X114739000Y-65382000I0J-150000D01*
G01*
X114739000Y-65682000D01*
G75*
G02*
X114589000Y-65832000I-150000J0D01*
G01*
X112839000Y-65832000D01*
G75*
G02*
X112689000Y-65682000I0J150000D01*
G01*
G37*
G36*
G01*
X112689000Y-64412000D02*
X112689000Y-64112000D01*
G75*
G02*
X112839000Y-63962000I150000J0D01*
G01*
X114589000Y-63962000D01*
G75*
G02*
X114739000Y-64112000I0J-150000D01*
G01*
X114739000Y-64412000D01*
G75*
G02*
X114589000Y-64562000I-150000J0D01*
G01*
X112839000Y-64562000D01*
G75*
G02*
X112689000Y-64412000I0J150000D01*
G01*
G37*
G36*
G01*
X112689000Y-63142000D02*
X112689000Y-62842000D01*
G75*
G02*
X112839000Y-62692000I150000J0D01*
G01*
X114589000Y-62692000D01*
G75*
G02*
X114739000Y-62842000I0J-150000D01*
G01*
X114739000Y-63142000D01*
G75*
G02*
X114589000Y-63292000I-150000J0D01*
G01*
X112839000Y-63292000D01*
G75*
G02*
X112689000Y-63142000I0J150000D01*
G01*
G37*
D11*
X116967000Y-44774000D03*
X118237000Y-44774000D03*
X119507000Y-44774000D03*
X120777000Y-44774000D03*
X120777000Y-49714000D03*
X119507000Y-49714000D03*
X118237000Y-49714000D03*
X116967000Y-49714000D03*
G36*
G01*
X132113000Y-42106000D02*
X133063000Y-42106000D01*
G75*
G02*
X133313000Y-42356000I0J-250000D01*
G01*
X133313000Y-42856000D01*
G75*
G02*
X133063000Y-43106000I-250000J0D01*
G01*
X132113000Y-43106000D01*
G75*
G02*
X131863000Y-42856000I0J250000D01*
G01*
X131863000Y-42356000D01*
G75*
G02*
X132113000Y-42106000I250000J0D01*
G01*
G37*
G36*
G01*
X132113000Y-40206000D02*
X133063000Y-40206000D01*
G75*
G02*
X133313000Y-40456000I0J-250000D01*
G01*
X133313000Y-40956000D01*
G75*
G02*
X133063000Y-41206000I-250000J0D01*
G01*
X132113000Y-41206000D01*
G75*
G02*
X131863000Y-40956000I0J250000D01*
G01*
X131863000Y-40456000D01*
G75*
G02*
X132113000Y-40206000I250000J0D01*
G01*
G37*
G36*
G01*
X193082000Y-94454000D02*
X191982000Y-94454000D01*
G75*
G02*
X191732000Y-94204000I0J250000D01*
G01*
X191732000Y-91204000D01*
G75*
G02*
X191982000Y-90954000I250000J0D01*
G01*
X193082000Y-90954000D01*
G75*
G02*
X193332000Y-91204000I0J-250000D01*
G01*
X193332000Y-94204000D01*
G75*
G02*
X193082000Y-94454000I-250000J0D01*
G01*
G37*
G36*
G01*
X193082000Y-100054000D02*
X191982000Y-100054000D01*
G75*
G02*
X191732000Y-99804000I0J250000D01*
G01*
X191732000Y-96804000D01*
G75*
G02*
X191982000Y-96554000I250000J0D01*
G01*
X193082000Y-96554000D01*
G75*
G02*
X193332000Y-96804000I0J-250000D01*
G01*
X193332000Y-99804000D01*
G75*
G02*
X193082000Y-100054000I-250000J0D01*
G01*
G37*
G36*
G01*
X109870001Y-71236000D02*
X108569999Y-71236000D01*
G75*
G02*
X108320000Y-70986001I0J249999D01*
G01*
X108320000Y-70335999D01*
G75*
G02*
X108569999Y-70086000I249999J0D01*
G01*
X109870001Y-70086000D01*
G75*
G02*
X110120000Y-70335999I0J-249999D01*
G01*
X110120000Y-70986001D01*
G75*
G02*
X109870001Y-71236000I-249999J0D01*
G01*
G37*
G36*
G01*
X109870001Y-74186000D02*
X108569999Y-74186000D01*
G75*
G02*
X108320000Y-73936001I0J249999D01*
G01*
X108320000Y-73285999D01*
G75*
G02*
X108569999Y-73036000I249999J0D01*
G01*
X109870001Y-73036000D01*
G75*
G02*
X110120000Y-73285999I0J-249999D01*
G01*
X110120000Y-73936001D01*
G75*
G02*
X109870001Y-74186000I-249999J0D01*
G01*
G37*
G36*
G01*
X140749000Y-81730000D02*
X141699000Y-81730000D01*
G75*
G02*
X141949000Y-81980000I0J-250000D01*
G01*
X141949000Y-82480000D01*
G75*
G02*
X141699000Y-82730000I-250000J0D01*
G01*
X140749000Y-82730000D01*
G75*
G02*
X140499000Y-82480000I0J250000D01*
G01*
X140499000Y-81980000D01*
G75*
G02*
X140749000Y-81730000I250000J0D01*
G01*
G37*
G36*
G01*
X140749000Y-79830000D02*
X141699000Y-79830000D01*
G75*
G02*
X141949000Y-80080000I0J-250000D01*
G01*
X141949000Y-80580000D01*
G75*
G02*
X141699000Y-80830000I-250000J0D01*
G01*
X140749000Y-80830000D01*
G75*
G02*
X140499000Y-80580000I0J250000D01*
G01*
X140499000Y-80080000D01*
G75*
G02*
X140749000Y-79830000I250000J0D01*
G01*
G37*
G36*
G01*
X132621000Y-81730000D02*
X133571000Y-81730000D01*
G75*
G02*
X133821000Y-81980000I0J-250000D01*
G01*
X133821000Y-82480000D01*
G75*
G02*
X133571000Y-82730000I-250000J0D01*
G01*
X132621000Y-82730000D01*
G75*
G02*
X132371000Y-82480000I0J250000D01*
G01*
X132371000Y-81980000D01*
G75*
G02*
X132621000Y-81730000I250000J0D01*
G01*
G37*
G36*
G01*
X132621000Y-79830000D02*
X133571000Y-79830000D01*
G75*
G02*
X133821000Y-80080000I0J-250000D01*
G01*
X133821000Y-80580000D01*
G75*
G02*
X133571000Y-80830000I-250000J0D01*
G01*
X132621000Y-80830000D01*
G75*
G02*
X132371000Y-80580000I0J250000D01*
G01*
X132371000Y-80080000D01*
G75*
G02*
X132621000Y-79830000I250000J0D01*
G01*
G37*
G36*
G01*
X119322000Y-54831000D02*
X119322000Y-53881000D01*
G75*
G02*
X119572000Y-53631000I250000J0D01*
G01*
X120072000Y-53631000D01*
G75*
G02*
X120322000Y-53881000I0J-250000D01*
G01*
X120322000Y-54831000D01*
G75*
G02*
X120072000Y-55081000I-250000J0D01*
G01*
X119572000Y-55081000D01*
G75*
G02*
X119322000Y-54831000I0J250000D01*
G01*
G37*
G36*
G01*
X117422000Y-54831000D02*
X117422000Y-53881000D01*
G75*
G02*
X117672000Y-53631000I250000J0D01*
G01*
X118172000Y-53631000D01*
G75*
G02*
X118422000Y-53881000I0J-250000D01*
G01*
X118422000Y-54831000D01*
G75*
G02*
X118172000Y-55081000I-250000J0D01*
G01*
X117672000Y-55081000D01*
G75*
G02*
X117422000Y-54831000I0J250000D01*
G01*
G37*
G36*
G01*
X103157000Y-72652000D02*
X104107000Y-72652000D01*
G75*
G02*
X104357000Y-72902000I0J-250000D01*
G01*
X104357000Y-73402000D01*
G75*
G02*
X104107000Y-73652000I-250000J0D01*
G01*
X103157000Y-73652000D01*
G75*
G02*
X102907000Y-73402000I0J250000D01*
G01*
X102907000Y-72902000D01*
G75*
G02*
X103157000Y-72652000I250000J0D01*
G01*
G37*
G36*
G01*
X103157000Y-70752000D02*
X104107000Y-70752000D01*
G75*
G02*
X104357000Y-71002000I0J-250000D01*
G01*
X104357000Y-71502000D01*
G75*
G02*
X104107000Y-71752000I-250000J0D01*
G01*
X103157000Y-71752000D01*
G75*
G02*
X102907000Y-71502000I0J250000D01*
G01*
X102907000Y-71002000D01*
G75*
G02*
X103157000Y-70752000I250000J0D01*
G01*
G37*
G36*
G01*
X103524000Y-48710001D02*
X103524000Y-47809999D01*
G75*
G02*
X103773999Y-47560000I249999J0D01*
G01*
X104299001Y-47560000D01*
G75*
G02*
X104549000Y-47809999I0J-249999D01*
G01*
X104549000Y-48710001D01*
G75*
G02*
X104299001Y-48960000I-249999J0D01*
G01*
X103773999Y-48960000D01*
G75*
G02*
X103524000Y-48710001I0J249999D01*
G01*
G37*
G36*
G01*
X101699000Y-48710001D02*
X101699000Y-47809999D01*
G75*
G02*
X101948999Y-47560000I249999J0D01*
G01*
X102474001Y-47560000D01*
G75*
G02*
X102724000Y-47809999I0J-249999D01*
G01*
X102724000Y-48710001D01*
G75*
G02*
X102474001Y-48960000I-249999J0D01*
G01*
X101948999Y-48960000D01*
G75*
G02*
X101699000Y-48710001I0J249999D01*
G01*
G37*
D12*
X178308000Y-98012000D03*
X178308000Y-94012000D03*
G36*
G01*
X191483000Y-39174000D02*
X190533000Y-39174000D01*
G75*
G02*
X190283000Y-38924000I0J250000D01*
G01*
X190283000Y-38424000D01*
G75*
G02*
X190533000Y-38174000I250000J0D01*
G01*
X191483000Y-38174000D01*
G75*
G02*
X191733000Y-38424000I0J-250000D01*
G01*
X191733000Y-38924000D01*
G75*
G02*
X191483000Y-39174000I-250000J0D01*
G01*
G37*
G36*
G01*
X191483000Y-41074000D02*
X190533000Y-41074000D01*
G75*
G02*
X190283000Y-40824000I0J250000D01*
G01*
X190283000Y-40324000D01*
G75*
G02*
X190533000Y-40074000I250000J0D01*
G01*
X191483000Y-40074000D01*
G75*
G02*
X191733000Y-40324000I0J-250000D01*
G01*
X191733000Y-40824000D01*
G75*
G02*
X191483000Y-41074000I-250000J0D01*
G01*
G37*
G36*
G01*
X164813000Y-40444000D02*
X163863000Y-40444000D01*
G75*
G02*
X163613000Y-40194000I0J250000D01*
G01*
X163613000Y-39694000D01*
G75*
G02*
X163863000Y-39444000I250000J0D01*
G01*
X164813000Y-39444000D01*
G75*
G02*
X165063000Y-39694000I0J-250000D01*
G01*
X165063000Y-40194000D01*
G75*
G02*
X164813000Y-40444000I-250000J0D01*
G01*
G37*
G36*
G01*
X164813000Y-42344000D02*
X163863000Y-42344000D01*
G75*
G02*
X163613000Y-42094000I0J250000D01*
G01*
X163613000Y-41594000D01*
G75*
G02*
X163863000Y-41344000I250000J0D01*
G01*
X164813000Y-41344000D01*
G75*
G02*
X165063000Y-41594000I0J-250000D01*
G01*
X165063000Y-42094000D01*
G75*
G02*
X164813000Y-42344000I-250000J0D01*
G01*
G37*
G36*
G01*
X145484000Y-52291000D02*
X145484000Y-51341000D01*
G75*
G02*
X145734000Y-51091000I250000J0D01*
G01*
X146234000Y-51091000D01*
G75*
G02*
X146484000Y-51341000I0J-250000D01*
G01*
X146484000Y-52291000D01*
G75*
G02*
X146234000Y-52541000I-250000J0D01*
G01*
X145734000Y-52541000D01*
G75*
G02*
X145484000Y-52291000I0J250000D01*
G01*
G37*
G36*
G01*
X143584000Y-52291000D02*
X143584000Y-51341000D01*
G75*
G02*
X143834000Y-51091000I250000J0D01*
G01*
X144334000Y-51091000D01*
G75*
G02*
X144584000Y-51341000I0J-250000D01*
G01*
X144584000Y-52291000D01*
G75*
G02*
X144334000Y-52541000I-250000J0D01*
G01*
X143834000Y-52541000D01*
G75*
G02*
X143584000Y-52291000I0J250000D01*
G01*
G37*
G36*
G01*
X149664000Y-51341000D02*
X149664000Y-52291000D01*
G75*
G02*
X149414000Y-52541000I-250000J0D01*
G01*
X148914000Y-52541000D01*
G75*
G02*
X148664000Y-52291000I0J250000D01*
G01*
X148664000Y-51341000D01*
G75*
G02*
X148914000Y-51091000I250000J0D01*
G01*
X149414000Y-51091000D01*
G75*
G02*
X149664000Y-51341000I0J-250000D01*
G01*
G37*
G36*
G01*
X151564000Y-51341000D02*
X151564000Y-52291000D01*
G75*
G02*
X151314000Y-52541000I-250000J0D01*
G01*
X150814000Y-52541000D01*
G75*
G02*
X150564000Y-52291000I0J250000D01*
G01*
X150564000Y-51341000D01*
G75*
G02*
X150814000Y-51091000I250000J0D01*
G01*
X151314000Y-51091000D01*
G75*
G02*
X151564000Y-51341000I0J-250000D01*
G01*
G37*
G36*
G01*
X139479000Y-41852000D02*
X140429000Y-41852000D01*
G75*
G02*
X140679000Y-42102000I0J-250000D01*
G01*
X140679000Y-42602000D01*
G75*
G02*
X140429000Y-42852000I-250000J0D01*
G01*
X139479000Y-42852000D01*
G75*
G02*
X139229000Y-42602000I0J250000D01*
G01*
X139229000Y-42102000D01*
G75*
G02*
X139479000Y-41852000I250000J0D01*
G01*
G37*
G36*
G01*
X139479000Y-39952000D02*
X140429000Y-39952000D01*
G75*
G02*
X140679000Y-40202000I0J-250000D01*
G01*
X140679000Y-40702000D01*
G75*
G02*
X140429000Y-40952000I-250000J0D01*
G01*
X139479000Y-40952000D01*
G75*
G02*
X139229000Y-40702000I0J250000D01*
G01*
X139229000Y-40202000D01*
G75*
G02*
X139479000Y-39952000I250000J0D01*
G01*
G37*
G36*
G01*
X140429000Y-46032000D02*
X139479000Y-46032000D01*
G75*
G02*
X139229000Y-45782000I0J250000D01*
G01*
X139229000Y-45282000D01*
G75*
G02*
X139479000Y-45032000I250000J0D01*
G01*
X140429000Y-45032000D01*
G75*
G02*
X140679000Y-45282000I0J-250000D01*
G01*
X140679000Y-45782000D01*
G75*
G02*
X140429000Y-46032000I-250000J0D01*
G01*
G37*
G36*
G01*
X140429000Y-47932000D02*
X139479000Y-47932000D01*
G75*
G02*
X139229000Y-47682000I0J250000D01*
G01*
X139229000Y-47182000D01*
G75*
G02*
X139479000Y-46932000I250000J0D01*
G01*
X140429000Y-46932000D01*
G75*
G02*
X140679000Y-47182000I0J-250000D01*
G01*
X140679000Y-47682000D01*
G75*
G02*
X140429000Y-47932000I-250000J0D01*
G01*
G37*
G36*
G01*
X191483000Y-45524000D02*
X190533000Y-45524000D01*
G75*
G02*
X190283000Y-45274000I0J250000D01*
G01*
X190283000Y-44774000D01*
G75*
G02*
X190533000Y-44524000I250000J0D01*
G01*
X191483000Y-44524000D01*
G75*
G02*
X191733000Y-44774000I0J-250000D01*
G01*
X191733000Y-45274000D01*
G75*
G02*
X191483000Y-45524000I-250000J0D01*
G01*
G37*
G36*
G01*
X191483000Y-47424000D02*
X190533000Y-47424000D01*
G75*
G02*
X190283000Y-47174000I0J250000D01*
G01*
X190283000Y-46674000D01*
G75*
G02*
X190533000Y-46424000I250000J0D01*
G01*
X191483000Y-46424000D01*
G75*
G02*
X191733000Y-46674000I0J-250000D01*
G01*
X191733000Y-47174000D01*
G75*
G02*
X191483000Y-47424000I-250000J0D01*
G01*
G37*
G36*
G01*
X164813000Y-46159000D02*
X163863000Y-46159000D01*
G75*
G02*
X163613000Y-45909000I0J250000D01*
G01*
X163613000Y-45409000D01*
G75*
G02*
X163863000Y-45159000I250000J0D01*
G01*
X164813000Y-45159000D01*
G75*
G02*
X165063000Y-45409000I0J-250000D01*
G01*
X165063000Y-45909000D01*
G75*
G02*
X164813000Y-46159000I-250000J0D01*
G01*
G37*
G36*
G01*
X164813000Y-48059000D02*
X163863000Y-48059000D01*
G75*
G02*
X163613000Y-47809000I0J250000D01*
G01*
X163613000Y-47309000D01*
G75*
G02*
X163863000Y-47059000I250000J0D01*
G01*
X164813000Y-47059000D01*
G75*
G02*
X165063000Y-47309000I0J-250000D01*
G01*
X165063000Y-47809000D01*
G75*
G02*
X164813000Y-48059000I-250000J0D01*
G01*
G37*
M02*
