G04 #@! TF.GenerationSoftware,KiCad,Pcbnew,(5.1.9-0-10_14)*
G04 #@! TF.CreationDate,2021-03-21T13:51:25-07:00*
G04 #@! TF.ProjectId,telemetry-pcb,74656c65-6d65-4747-9279-2d7063622e6b,rev?*
G04 #@! TF.SameCoordinates,Original*
G04 #@! TF.FileFunction,Legend,Top*
G04 #@! TF.FilePolarity,Positive*
%FSLAX46Y46*%
G04 Gerber Fmt 4.6, Leading zero omitted, Abs format (unit mm)*
G04 Created by KiCad (PCBNEW (5.1.9-0-10_14)) date 2021-03-21 13:51:25*
%MOMM*%
%LPD*%
G01*
G04 APERTURE LIST*
%ADD10C,0.150000*%
%ADD11C,0.300000*%
%ADD12C,0.500000*%
%ADD13C,0.120000*%
%ADD14C,0.100000*%
%ADD15C,0.200000*%
%ADD16C,0.127000*%
%ADD17C,0.250000*%
%ADD18C,0.254000*%
G04 APERTURE END LIST*
D10*
X134580380Y-51561904D02*
X134580380Y-50990476D01*
X135580380Y-51276190D02*
X134580380Y-51276190D01*
X134580380Y-50752380D02*
X135580380Y-50085714D01*
X134580380Y-50085714D02*
X135580380Y-50752380D01*
X138120380Y-50966666D02*
X137644190Y-51300000D01*
X138120380Y-51538095D02*
X137120380Y-51538095D01*
X137120380Y-51157142D01*
X137168000Y-51061904D01*
X137215619Y-51014285D01*
X137310857Y-50966666D01*
X137453714Y-50966666D01*
X137548952Y-51014285D01*
X137596571Y-51061904D01*
X137644190Y-51157142D01*
X137644190Y-51538095D01*
X137120380Y-50633333D02*
X138120380Y-49966666D01*
X137120380Y-49966666D02*
X138120380Y-50633333D01*
X159766095Y-100592000D02*
X159670857Y-100544380D01*
X159528000Y-100544380D01*
X159385142Y-100592000D01*
X159289904Y-100687238D01*
X159242285Y-100782476D01*
X159194666Y-100972952D01*
X159194666Y-101115809D01*
X159242285Y-101306285D01*
X159289904Y-101401523D01*
X159385142Y-101496761D01*
X159528000Y-101544380D01*
X159623238Y-101544380D01*
X159766095Y-101496761D01*
X159813714Y-101449142D01*
X159813714Y-101115809D01*
X159623238Y-101115809D01*
X160242285Y-101544380D02*
X160242285Y-100544380D01*
X160813714Y-101544380D01*
X160813714Y-100544380D01*
X161289904Y-101544380D02*
X161289904Y-100544380D01*
X161528000Y-100544380D01*
X161670857Y-100592000D01*
X161766095Y-100687238D01*
X161813714Y-100782476D01*
X161861333Y-100972952D01*
X161861333Y-101115809D01*
X161813714Y-101306285D01*
X161766095Y-101401523D01*
X161670857Y-101496761D01*
X161528000Y-101544380D01*
X161289904Y-101544380D01*
X159797904Y-104084380D02*
X159226476Y-104084380D01*
X159512190Y-104084380D02*
X159512190Y-103084380D01*
X159416952Y-103227238D01*
X159321714Y-103322476D01*
X159226476Y-103370095D01*
X160178857Y-103179619D02*
X160226476Y-103132000D01*
X160321714Y-103084380D01*
X160559809Y-103084380D01*
X160655047Y-103132000D01*
X160702666Y-103179619D01*
X160750285Y-103274857D01*
X160750285Y-103370095D01*
X160702666Y-103512952D01*
X160131238Y-104084380D01*
X160750285Y-104084380D01*
X161036000Y-103084380D02*
X161369333Y-104084380D01*
X161702666Y-103084380D01*
X162036000Y-103703428D02*
X162797904Y-103703428D01*
X162416952Y-104084380D02*
X162416952Y-103322476D01*
X115355619Y-85629904D02*
X115355619Y-86248952D01*
X114974666Y-85915619D01*
X114974666Y-86058476D01*
X114927047Y-86153714D01*
X114879428Y-86201333D01*
X114784190Y-86248952D01*
X114546095Y-86248952D01*
X114450857Y-86201333D01*
X114403238Y-86153714D01*
X114355619Y-86058476D01*
X114355619Y-85772761D01*
X114403238Y-85677523D01*
X114450857Y-85629904D01*
X115355619Y-86534666D02*
X114355619Y-86868000D01*
X115355619Y-87201333D01*
X115355619Y-87439428D02*
X115355619Y-88058476D01*
X114974666Y-87725142D01*
X114974666Y-87868000D01*
X114927047Y-87963238D01*
X114879428Y-88010857D01*
X114784190Y-88058476D01*
X114546095Y-88058476D01*
X114450857Y-88010857D01*
X114403238Y-87963238D01*
X114355619Y-87868000D01*
X114355619Y-87582285D01*
X114403238Y-87487047D01*
X114450857Y-87439428D01*
X117848000Y-86106095D02*
X117895619Y-86010857D01*
X117895619Y-85868000D01*
X117848000Y-85725142D01*
X117752761Y-85629904D01*
X117657523Y-85582285D01*
X117467047Y-85534666D01*
X117324190Y-85534666D01*
X117133714Y-85582285D01*
X117038476Y-85629904D01*
X116943238Y-85725142D01*
X116895619Y-85868000D01*
X116895619Y-85963238D01*
X116943238Y-86106095D01*
X116990857Y-86153714D01*
X117324190Y-86153714D01*
X117324190Y-85963238D01*
X116895619Y-86582285D02*
X117895619Y-86582285D01*
X116895619Y-87153714D01*
X117895619Y-87153714D01*
X116895619Y-87629904D02*
X117895619Y-87629904D01*
X117895619Y-87868000D01*
X117848000Y-88010857D01*
X117752761Y-88106095D01*
X117657523Y-88153714D01*
X117467047Y-88201333D01*
X117324190Y-88201333D01*
X117133714Y-88153714D01*
X117038476Y-88106095D01*
X116943238Y-88010857D01*
X116895619Y-87868000D01*
X116895619Y-87629904D01*
X104362285Y-39568380D02*
X104362285Y-38568380D01*
X104362285Y-39044571D02*
X104933714Y-39044571D01*
X104933714Y-39568380D02*
X104933714Y-38568380D01*
X102417523Y-39568380D02*
X101941333Y-39568380D01*
X101941333Y-38568380D01*
D11*
X80177142Y-123614571D02*
X79320000Y-123614571D01*
X79748571Y-123614571D02*
X79748571Y-122114571D01*
X79605714Y-122328857D01*
X79462857Y-122471714D01*
X79320000Y-122543142D01*
X80748571Y-122257428D02*
X80820000Y-122186000D01*
X80962857Y-122114571D01*
X81320000Y-122114571D01*
X81462857Y-122186000D01*
X81534285Y-122257428D01*
X81605714Y-122400285D01*
X81605714Y-122543142D01*
X81534285Y-122757428D01*
X80677142Y-123614571D01*
X81605714Y-123614571D01*
X82034285Y-122114571D02*
X82534285Y-123614571D01*
X83034285Y-122114571D01*
X83177142Y-123757428D02*
X84320000Y-123757428D01*
X84962857Y-122114571D02*
X85248571Y-122114571D01*
X85391428Y-122186000D01*
X85534285Y-122328857D01*
X85605714Y-122614571D01*
X85605714Y-123114571D01*
X85534285Y-123400285D01*
X85391428Y-123543142D01*
X85248571Y-123614571D01*
X84962857Y-123614571D01*
X84820000Y-123543142D01*
X84677142Y-123400285D01*
X84605714Y-123114571D01*
X84605714Y-122614571D01*
X84677142Y-122328857D01*
X84820000Y-122186000D01*
X84962857Y-122114571D01*
X86248571Y-122114571D02*
X86248571Y-123328857D01*
X86320000Y-123471714D01*
X86391428Y-123543142D01*
X86534285Y-123614571D01*
X86820000Y-123614571D01*
X86962857Y-123543142D01*
X87034285Y-123471714D01*
X87105714Y-123328857D01*
X87105714Y-122114571D01*
X87605714Y-122114571D02*
X88462857Y-122114571D01*
X88034285Y-123614571D02*
X88034285Y-122114571D01*
D10*
X100020380Y-128238095D02*
X100020380Y-128809523D01*
X100020380Y-128523809D02*
X99020380Y-128523809D01*
X99163238Y-128619047D01*
X99258476Y-128714285D01*
X99306095Y-128809523D01*
X99115619Y-127857142D02*
X99068000Y-127809523D01*
X99020380Y-127714285D01*
X99020380Y-127476190D01*
X99068000Y-127380952D01*
X99115619Y-127333333D01*
X99210857Y-127285714D01*
X99306095Y-127285714D01*
X99448952Y-127333333D01*
X100020380Y-127904761D01*
X100020380Y-127285714D01*
X99020380Y-127000000D02*
X100020380Y-126666666D01*
X99020380Y-126333333D01*
X99639428Y-126000000D02*
X99639428Y-125238095D01*
X100020380Y-125619047D02*
X99258476Y-125619047D01*
X119324380Y-128238095D02*
X119324380Y-128809523D01*
X119324380Y-128523809D02*
X118324380Y-128523809D01*
X118467238Y-128619047D01*
X118562476Y-128714285D01*
X118610095Y-128809523D01*
X118419619Y-127857142D02*
X118372000Y-127809523D01*
X118324380Y-127714285D01*
X118324380Y-127476190D01*
X118372000Y-127380952D01*
X118419619Y-127333333D01*
X118514857Y-127285714D01*
X118610095Y-127285714D01*
X118752952Y-127333333D01*
X119324380Y-127904761D01*
X119324380Y-127285714D01*
X118324380Y-127000000D02*
X119324380Y-126666666D01*
X118324380Y-126333333D01*
X118943428Y-126000000D02*
X118943428Y-125238095D01*
X119324380Y-125619047D02*
X118562476Y-125619047D01*
X138628380Y-128238095D02*
X138628380Y-128809523D01*
X138628380Y-128523809D02*
X137628380Y-128523809D01*
X137771238Y-128619047D01*
X137866476Y-128714285D01*
X137914095Y-128809523D01*
X137723619Y-127857142D02*
X137676000Y-127809523D01*
X137628380Y-127714285D01*
X137628380Y-127476190D01*
X137676000Y-127380952D01*
X137723619Y-127333333D01*
X137818857Y-127285714D01*
X137914095Y-127285714D01*
X138056952Y-127333333D01*
X138628380Y-127904761D01*
X138628380Y-127285714D01*
X137628380Y-127000000D02*
X138628380Y-126666666D01*
X137628380Y-126333333D01*
X138247428Y-126000000D02*
X138247428Y-125238095D01*
X138628380Y-125619047D02*
X137866476Y-125619047D01*
X157932380Y-128238095D02*
X157932380Y-128809523D01*
X157932380Y-128523809D02*
X156932380Y-128523809D01*
X157075238Y-128619047D01*
X157170476Y-128714285D01*
X157218095Y-128809523D01*
X157027619Y-127857142D02*
X156980000Y-127809523D01*
X156932380Y-127714285D01*
X156932380Y-127476190D01*
X156980000Y-127380952D01*
X157027619Y-127333333D01*
X157122857Y-127285714D01*
X157218095Y-127285714D01*
X157360952Y-127333333D01*
X157932380Y-127904761D01*
X157932380Y-127285714D01*
X156932380Y-127000000D02*
X157932380Y-126666666D01*
X156932380Y-126333333D01*
X157551428Y-126000000D02*
X157551428Y-125238095D01*
X157932380Y-125619047D02*
X157170476Y-125619047D01*
D12*
X74676000Y-119888000D02*
X74676000Y-136144000D01*
D10*
X93249904Y-128468380D02*
X92678476Y-128468380D01*
X92964190Y-128468380D02*
X92964190Y-127468380D01*
X92868952Y-127611238D01*
X92773714Y-127706476D01*
X92678476Y-127754095D01*
X93630857Y-127563619D02*
X93678476Y-127516000D01*
X93773714Y-127468380D01*
X94011809Y-127468380D01*
X94107047Y-127516000D01*
X94154666Y-127563619D01*
X94202285Y-127658857D01*
X94202285Y-127754095D01*
X94154666Y-127896952D01*
X93583238Y-128468380D01*
X94202285Y-128468380D01*
X94488000Y-127468380D02*
X94821333Y-128468380D01*
X95154666Y-127468380D01*
X95488000Y-128087428D02*
X96249904Y-128087428D01*
X95868952Y-128468380D02*
X95868952Y-127706476D01*
X93218095Y-132596000D02*
X93122857Y-132548380D01*
X92980000Y-132548380D01*
X92837142Y-132596000D01*
X92741904Y-132691238D01*
X92694285Y-132786476D01*
X92646666Y-132976952D01*
X92646666Y-133119809D01*
X92694285Y-133310285D01*
X92741904Y-133405523D01*
X92837142Y-133500761D01*
X92980000Y-133548380D01*
X93075238Y-133548380D01*
X93218095Y-133500761D01*
X93265714Y-133453142D01*
X93265714Y-133119809D01*
X93075238Y-133119809D01*
X93694285Y-133548380D02*
X93694285Y-132548380D01*
X94265714Y-133548380D01*
X94265714Y-132548380D01*
X94741904Y-133548380D02*
X94741904Y-132548380D01*
X94980000Y-132548380D01*
X95122857Y-132596000D01*
X95218095Y-132691238D01*
X95265714Y-132786476D01*
X95313333Y-132976952D01*
X95313333Y-133119809D01*
X95265714Y-133310285D01*
X95218095Y-133405523D01*
X95122857Y-133500761D01*
X94980000Y-133548380D01*
X94741904Y-133548380D01*
X109736000Y-128269904D02*
X109688380Y-128365142D01*
X109688380Y-128508000D01*
X109736000Y-128650857D01*
X109831238Y-128746095D01*
X109926476Y-128793714D01*
X110116952Y-128841333D01*
X110259809Y-128841333D01*
X110450285Y-128793714D01*
X110545523Y-128746095D01*
X110640761Y-128650857D01*
X110688380Y-128508000D01*
X110688380Y-128412761D01*
X110640761Y-128269904D01*
X110593142Y-128222285D01*
X110259809Y-128222285D01*
X110259809Y-128412761D01*
X110688380Y-127793714D02*
X109688380Y-127793714D01*
X110688380Y-127222285D01*
X109688380Y-127222285D01*
X110688380Y-126746095D02*
X109688380Y-126746095D01*
X109688380Y-126508000D01*
X109736000Y-126365142D01*
X109831238Y-126269904D01*
X109926476Y-126222285D01*
X110116952Y-126174666D01*
X110259809Y-126174666D01*
X110450285Y-126222285D01*
X110545523Y-126269904D01*
X110640761Y-126365142D01*
X110688380Y-126508000D01*
X110688380Y-126746095D01*
X129040000Y-128269904D02*
X128992380Y-128365142D01*
X128992380Y-128508000D01*
X129040000Y-128650857D01*
X129135238Y-128746095D01*
X129230476Y-128793714D01*
X129420952Y-128841333D01*
X129563809Y-128841333D01*
X129754285Y-128793714D01*
X129849523Y-128746095D01*
X129944761Y-128650857D01*
X129992380Y-128508000D01*
X129992380Y-128412761D01*
X129944761Y-128269904D01*
X129897142Y-128222285D01*
X129563809Y-128222285D01*
X129563809Y-128412761D01*
X129992380Y-127793714D02*
X128992380Y-127793714D01*
X129992380Y-127222285D01*
X128992380Y-127222285D01*
X129992380Y-126746095D02*
X128992380Y-126746095D01*
X128992380Y-126508000D01*
X129040000Y-126365142D01*
X129135238Y-126269904D01*
X129230476Y-126222285D01*
X129420952Y-126174666D01*
X129563809Y-126174666D01*
X129754285Y-126222285D01*
X129849523Y-126269904D01*
X129944761Y-126365142D01*
X129992380Y-126508000D01*
X129992380Y-126746095D01*
X147836000Y-128269904D02*
X147788380Y-128365142D01*
X147788380Y-128508000D01*
X147836000Y-128650857D01*
X147931238Y-128746095D01*
X148026476Y-128793714D01*
X148216952Y-128841333D01*
X148359809Y-128841333D01*
X148550285Y-128793714D01*
X148645523Y-128746095D01*
X148740761Y-128650857D01*
X148788380Y-128508000D01*
X148788380Y-128412761D01*
X148740761Y-128269904D01*
X148693142Y-128222285D01*
X148359809Y-128222285D01*
X148359809Y-128412761D01*
X148788380Y-127793714D02*
X147788380Y-127793714D01*
X148788380Y-127222285D01*
X147788380Y-127222285D01*
X148788380Y-126746095D02*
X147788380Y-126746095D01*
X147788380Y-126508000D01*
X147836000Y-126365142D01*
X147931238Y-126269904D01*
X148026476Y-126222285D01*
X148216952Y-126174666D01*
X148359809Y-126174666D01*
X148550285Y-126222285D01*
X148645523Y-126269904D01*
X148740761Y-126365142D01*
X148788380Y-126508000D01*
X148788380Y-126746095D01*
X166632000Y-128269904D02*
X166584380Y-128365142D01*
X166584380Y-128508000D01*
X166632000Y-128650857D01*
X166727238Y-128746095D01*
X166822476Y-128793714D01*
X167012952Y-128841333D01*
X167155809Y-128841333D01*
X167346285Y-128793714D01*
X167441523Y-128746095D01*
X167536761Y-128650857D01*
X167584380Y-128508000D01*
X167584380Y-128412761D01*
X167536761Y-128269904D01*
X167489142Y-128222285D01*
X167155809Y-128222285D01*
X167155809Y-128412761D01*
X167584380Y-127793714D02*
X166584380Y-127793714D01*
X167584380Y-127222285D01*
X166584380Y-127222285D01*
X167584380Y-126746095D02*
X166584380Y-126746095D01*
X166584380Y-126508000D01*
X166632000Y-126365142D01*
X166727238Y-126269904D01*
X166822476Y-126222285D01*
X167012952Y-126174666D01*
X167155809Y-126174666D01*
X167346285Y-126222285D01*
X167441523Y-126269904D01*
X167536761Y-126365142D01*
X167584380Y-126508000D01*
X167584380Y-126746095D01*
X91217904Y-87828380D02*
X90646476Y-87828380D01*
X90932190Y-87828380D02*
X90932190Y-86828380D01*
X90836952Y-86971238D01*
X90741714Y-87066476D01*
X90646476Y-87114095D01*
X91598857Y-86923619D02*
X91646476Y-86876000D01*
X91741714Y-86828380D01*
X91979809Y-86828380D01*
X92075047Y-86876000D01*
X92122666Y-86923619D01*
X92170285Y-87018857D01*
X92170285Y-87114095D01*
X92122666Y-87256952D01*
X91551238Y-87828380D01*
X92170285Y-87828380D01*
X92456000Y-86828380D02*
X92789333Y-87828380D01*
X93122666Y-86828380D01*
X93456000Y-87447428D02*
X94217904Y-87447428D01*
X93836952Y-87828380D02*
X93836952Y-87066476D01*
X188722095Y-132596000D02*
X188626857Y-132548380D01*
X188484000Y-132548380D01*
X188341142Y-132596000D01*
X188245904Y-132691238D01*
X188198285Y-132786476D01*
X188150666Y-132976952D01*
X188150666Y-133119809D01*
X188198285Y-133310285D01*
X188245904Y-133405523D01*
X188341142Y-133500761D01*
X188484000Y-133548380D01*
X188579238Y-133548380D01*
X188722095Y-133500761D01*
X188769714Y-133453142D01*
X188769714Y-133119809D01*
X188579238Y-133119809D01*
X189198285Y-133548380D02*
X189198285Y-132548380D01*
X189769714Y-133548380D01*
X189769714Y-132548380D01*
X190245904Y-133548380D02*
X190245904Y-132548380D01*
X190484000Y-132548380D01*
X190626857Y-132596000D01*
X190722095Y-132691238D01*
X190769714Y-132786476D01*
X190817333Y-132976952D01*
X190817333Y-133119809D01*
X190769714Y-133310285D01*
X190722095Y-133405523D01*
X190626857Y-133500761D01*
X190484000Y-133548380D01*
X190245904Y-133548380D01*
D11*
X68123714Y-123471714D02*
X68052285Y-123543142D01*
X67838000Y-123614571D01*
X67695142Y-123614571D01*
X67480857Y-123543142D01*
X67338000Y-123400285D01*
X67266571Y-123257428D01*
X67195142Y-122971714D01*
X67195142Y-122757428D01*
X67266571Y-122471714D01*
X67338000Y-122328857D01*
X67480857Y-122186000D01*
X67695142Y-122114571D01*
X67838000Y-122114571D01*
X68052285Y-122186000D01*
X68123714Y-122257428D01*
X68695142Y-123186000D02*
X69409428Y-123186000D01*
X68552285Y-123614571D02*
X69052285Y-122114571D01*
X69552285Y-123614571D01*
X70052285Y-123614571D02*
X70052285Y-122114571D01*
X70909428Y-123614571D01*
X70909428Y-122114571D01*
D10*
X72080380Y-124150476D02*
X72080380Y-124626666D01*
X71080380Y-124626666D01*
X66492380Y-124745714D02*
X65492380Y-124745714D01*
X65968571Y-124745714D02*
X65968571Y-124174285D01*
X66492380Y-124174285D02*
X65492380Y-124174285D01*
X65754285Y-35984380D02*
X65754285Y-34984380D01*
X65754285Y-35460571D02*
X66325714Y-35460571D01*
X66325714Y-35984380D02*
X66325714Y-34984380D01*
X77438285Y-35984380D02*
X77438285Y-34984380D01*
X77438285Y-35460571D02*
X78009714Y-35460571D01*
X78009714Y-35984380D02*
X78009714Y-34984380D01*
X88614285Y-35984380D02*
X88614285Y-34984380D01*
X88614285Y-35460571D02*
X89185714Y-35460571D01*
X89185714Y-35984380D02*
X89185714Y-34984380D01*
X99790285Y-35984380D02*
X99790285Y-34984380D01*
X99790285Y-35460571D02*
X100361714Y-35460571D01*
X100361714Y-35984380D02*
X100361714Y-34984380D01*
X111474285Y-35984380D02*
X111474285Y-34984380D01*
X111474285Y-35460571D02*
X112045714Y-35460571D01*
X112045714Y-35984380D02*
X112045714Y-34984380D01*
X122650285Y-35984380D02*
X122650285Y-34984380D01*
X122650285Y-35460571D02*
X123221714Y-35460571D01*
X123221714Y-35984380D02*
X123221714Y-34984380D01*
X118673523Y-35984380D02*
X118197333Y-35984380D01*
X118197333Y-34984380D01*
X106989523Y-35984380D02*
X106513333Y-35984380D01*
X106513333Y-34984380D01*
X95813523Y-35984380D02*
X95337333Y-35984380D01*
X95337333Y-34984380D01*
X84129523Y-35984380D02*
X83653333Y-35984380D01*
X83653333Y-34984380D01*
X72953523Y-35984380D02*
X72477333Y-35984380D01*
X72477333Y-34984380D01*
X61269523Y-35984380D02*
X60793333Y-35984380D01*
X60793333Y-34984380D01*
X88241761Y-103100142D02*
X88194142Y-103147761D01*
X88051285Y-103195380D01*
X87956047Y-103195380D01*
X87813190Y-103147761D01*
X87717952Y-103052523D01*
X87670333Y-102957285D01*
X87622714Y-102766809D01*
X87622714Y-102623952D01*
X87670333Y-102433476D01*
X87717952Y-102338238D01*
X87813190Y-102243000D01*
X87956047Y-102195380D01*
X88051285Y-102195380D01*
X88194142Y-102243000D01*
X88241761Y-102290619D01*
X88670333Y-102671571D02*
X89003666Y-102671571D01*
X89146523Y-103195380D02*
X88670333Y-103195380D01*
X88670333Y-102195380D01*
X89146523Y-102195380D01*
X90051285Y-103195380D02*
X89575095Y-103195380D01*
X89575095Y-102195380D01*
X90860809Y-103195380D02*
X90384619Y-103195380D01*
X90384619Y-102195380D01*
X91908428Y-102909666D02*
X92384619Y-102909666D01*
X91813190Y-103195380D02*
X92146523Y-102195380D01*
X92479857Y-103195380D01*
X92813190Y-103195380D02*
X92813190Y-102195380D01*
X93384619Y-103195380D01*
X93384619Y-102195380D01*
X93717952Y-102195380D02*
X94289380Y-102195380D01*
X94003666Y-103195380D02*
X94003666Y-102195380D01*
X94622714Y-102671571D02*
X94956047Y-102671571D01*
X95098904Y-103195380D02*
X94622714Y-103195380D01*
X94622714Y-102195380D01*
X95098904Y-102195380D01*
X95527476Y-103195380D02*
X95527476Y-102195380D01*
X96098904Y-103195380D01*
X96098904Y-102195380D01*
X96575095Y-103195380D02*
X96575095Y-102195380D01*
X97146523Y-103195380D01*
X97146523Y-102195380D01*
X97575095Y-102909666D02*
X98051285Y-102909666D01*
X97479857Y-103195380D02*
X97813190Y-102195380D01*
X98146523Y-103195380D01*
D12*
X54172000Y-91938000D02*
X54172000Y-112938000D01*
X150172000Y-112938000D02*
X54172000Y-112938000D01*
X150172000Y-91938000D02*
X150172000Y-112938000D01*
X54172000Y-91938000D02*
X150172000Y-91938000D01*
D13*
X53594000Y-39878000D02*
X53594000Y-80518000D01*
X53594000Y-80518000D02*
X94234000Y-80518000D01*
X94234000Y-80518000D02*
X94234000Y-39878000D01*
X94234000Y-39878000D02*
X53594000Y-39878000D01*
X181862607Y-85989463D02*
X181862607Y-88649463D01*
X181862607Y-85989463D02*
X153862607Y-85989463D01*
X153862607Y-85989463D02*
X153862607Y-88649463D01*
X181862607Y-88649463D02*
X153862607Y-88649463D01*
X184462607Y-88649463D02*
X183132607Y-88649463D01*
X184462607Y-87319463D02*
X184462607Y-88649463D01*
X192025235Y-57176104D02*
X192025235Y-59836104D01*
X192025235Y-57176104D02*
X156405235Y-57176104D01*
X156405235Y-57176104D02*
X156405235Y-59836104D01*
X192025235Y-59836104D02*
X156405235Y-59836104D01*
X194625235Y-59836104D02*
X193295235Y-59836104D01*
X194625235Y-58506104D02*
X194625235Y-59836104D01*
X108330000Y-55674000D02*
X108330000Y-54054000D01*
X110190000Y-55674000D02*
X110190000Y-54054000D01*
X110190000Y-54054000D02*
X108330000Y-54054000D01*
X110190000Y-55674000D02*
X108330000Y-55674000D01*
X108570000Y-57214000D02*
X108570000Y-55831000D01*
X108570000Y-57214000D02*
X107187000Y-57214000D01*
X97410000Y-56974000D02*
X97410000Y-52754000D01*
X108330000Y-56974000D02*
X108330000Y-52754000D01*
X108330000Y-52754000D02*
X97410000Y-52754000D01*
X108330000Y-56974000D02*
X97410000Y-56974000D01*
X130460000Y-76210000D02*
X143060000Y-76210000D01*
X130460000Y-71110000D02*
X130460000Y-76210000D01*
X143060000Y-71110000D02*
X130460000Y-71110000D01*
D10*
X175460000Y-20225000D02*
X175460000Y-33945000D01*
X175460000Y-20225000D02*
X164900000Y-20225000D01*
X164900000Y-20225000D02*
X164900000Y-33945000D01*
X166420000Y-33945000D02*
X164900000Y-33945000D01*
X175460000Y-33945000D02*
X173940000Y-33945000D01*
X189430000Y-20225000D02*
X189430000Y-33945000D01*
X189430000Y-20225000D02*
X178870000Y-20225000D01*
X178870000Y-20225000D02*
X178870000Y-33945000D01*
X180390000Y-33945000D02*
X178870000Y-33945000D01*
X189430000Y-33945000D02*
X187910000Y-33945000D01*
D14*
X160883000Y-33840000D02*
X129693000Y-33840000D01*
X129693000Y-33840000D02*
X129693000Y-21340000D01*
X129693000Y-21340000D02*
X160883000Y-21340000D01*
X160883000Y-21340000D02*
X160883000Y-33840000D01*
D15*
X150888000Y-34440000D02*
X150888000Y-34440000D01*
X150688000Y-34440000D02*
X150688000Y-34440000D01*
X150888000Y-34440000D02*
G75*
G03*
X150688000Y-34440000I-100000J0D01*
G01*
X150688000Y-34440000D02*
G75*
G03*
X150888000Y-34440000I100000J0D01*
G01*
D13*
X164010000Y-140650000D02*
G75*
G03*
X164010000Y-140650000I-1760000J0D01*
G01*
X162250000Y-149360000D02*
X168385000Y-149360000D01*
X168385000Y-149360000D02*
X168385000Y-134340000D01*
X168385000Y-134340000D02*
X167210000Y-134340000D01*
X162250000Y-149360000D02*
X156115000Y-149360000D01*
X156115000Y-149360000D02*
X156115000Y-134340000D01*
X156115000Y-134340000D02*
X157290000Y-134340000D01*
X162990000Y-134340000D02*
X161510000Y-134340000D01*
X144960000Y-140650000D02*
G75*
G03*
X144960000Y-140650000I-1760000J0D01*
G01*
X143200000Y-149360000D02*
X149335000Y-149360000D01*
X149335000Y-149360000D02*
X149335000Y-134340000D01*
X149335000Y-134340000D02*
X148160000Y-134340000D01*
X143200000Y-149360000D02*
X137065000Y-149360000D01*
X137065000Y-149360000D02*
X137065000Y-134340000D01*
X137065000Y-134340000D02*
X138240000Y-134340000D01*
X143940000Y-134340000D02*
X142460000Y-134340000D01*
X125910000Y-140650000D02*
G75*
G03*
X125910000Y-140650000I-1760000J0D01*
G01*
X124150000Y-149360000D02*
X130285000Y-149360000D01*
X130285000Y-149360000D02*
X130285000Y-134340000D01*
X130285000Y-134340000D02*
X129110000Y-134340000D01*
X124150000Y-149360000D02*
X118015000Y-149360000D01*
X118015000Y-149360000D02*
X118015000Y-134340000D01*
X118015000Y-134340000D02*
X119190000Y-134340000D01*
X124890000Y-134340000D02*
X123410000Y-134340000D01*
X106860000Y-140650000D02*
G75*
G03*
X106860000Y-140650000I-1760000J0D01*
G01*
X105100000Y-149360000D02*
X111235000Y-149360000D01*
X111235000Y-149360000D02*
X111235000Y-134340000D01*
X111235000Y-134340000D02*
X110060000Y-134340000D01*
X105100000Y-149360000D02*
X98965000Y-149360000D01*
X98965000Y-149360000D02*
X98965000Y-134340000D01*
X98965000Y-134340000D02*
X100140000Y-134340000D01*
X105840000Y-134340000D02*
X104360000Y-134340000D01*
X150309000Y-43942000D02*
X150309000Y-41742000D01*
X150309000Y-43942000D02*
X150309000Y-46142000D01*
X144839000Y-43942000D02*
X144839000Y-41742000D01*
X144839000Y-43942000D02*
X144839000Y-47542000D01*
X169398000Y-42164000D02*
X169398000Y-44114000D01*
X169398000Y-42164000D02*
X169398000Y-40214000D01*
X174518000Y-42164000D02*
X174518000Y-44114000D01*
X174518000Y-42164000D02*
X174518000Y-38714000D01*
X182098000Y-42164000D02*
X182098000Y-44114000D01*
X182098000Y-42164000D02*
X182098000Y-40214000D01*
X187218000Y-42164000D02*
X187218000Y-44114000D01*
X187218000Y-42164000D02*
X187218000Y-38714000D01*
X130837000Y-64235064D02*
X130837000Y-63780936D01*
X132307000Y-64235064D02*
X132307000Y-63780936D01*
X118364000Y-73957000D02*
X122224000Y-73957000D01*
X122224000Y-73957000D02*
X122224000Y-73712000D01*
X118364000Y-73957000D02*
X114504000Y-73957000D01*
X114504000Y-73957000D02*
X114504000Y-73712000D01*
X118364000Y-62187000D02*
X122224000Y-62187000D01*
X122224000Y-62187000D02*
X122224000Y-62432000D01*
X118364000Y-62187000D02*
X114504000Y-62187000D01*
X114504000Y-62187000D02*
X114504000Y-62432000D01*
X114504000Y-62432000D02*
X112689000Y-62432000D01*
D15*
X116667000Y-51284000D02*
G75*
G03*
X116667000Y-51284000I-100000J0D01*
G01*
D16*
X116347000Y-49194000D02*
X116347000Y-45294000D01*
X121397000Y-49194000D02*
X121397000Y-45294000D01*
D13*
X133323000Y-41394748D02*
X133323000Y-41917252D01*
X131853000Y-41394748D02*
X131853000Y-41917252D01*
X195942000Y-92094000D02*
X193592000Y-92094000D01*
X189122000Y-92094000D02*
X191472000Y-92094000D01*
X189122000Y-97849563D02*
X189122000Y-92094000D01*
X195942000Y-97849563D02*
X195942000Y-92094000D01*
X194877563Y-98914000D02*
X193592000Y-98914000D01*
X190186437Y-98914000D02*
X191472000Y-98914000D01*
X190186437Y-98914000D02*
X189122000Y-97849563D01*
X194877563Y-98914000D02*
X195942000Y-97849563D01*
X190684500Y-99941500D02*
X190684500Y-99154000D01*
X190290750Y-99547750D02*
X191078250Y-99547750D01*
X108310000Y-72847252D02*
X108310000Y-71424748D01*
X110130000Y-72847252D02*
X110130000Y-71424748D01*
X141959000Y-81018748D02*
X141959000Y-81541252D01*
X140489000Y-81018748D02*
X140489000Y-81541252D01*
X133831000Y-81018748D02*
X133831000Y-81541252D01*
X132361000Y-81018748D02*
X132361000Y-81541252D01*
X118610748Y-53621000D02*
X119133252Y-53621000D01*
X118610748Y-55091000D02*
X119133252Y-55091000D01*
X104367000Y-71940748D02*
X104367000Y-72463252D01*
X102897000Y-71940748D02*
X102897000Y-72463252D01*
D17*
X62350000Y-34725000D02*
G75*
G03*
X62350000Y-34725000I-125000J0D01*
G01*
D10*
X67380000Y-20290000D02*
X67380000Y-34010000D01*
X67380000Y-20290000D02*
X59620000Y-20290000D01*
X59620000Y-20290000D02*
X59620000Y-34010000D01*
X61010000Y-34010000D02*
X59620000Y-34010000D01*
X63550000Y-34010000D02*
X63450000Y-34010000D01*
X67380000Y-34010000D02*
X65990000Y-34010000D01*
D17*
X73780000Y-34725000D02*
G75*
G03*
X73780000Y-34725000I-125000J0D01*
G01*
D10*
X78810000Y-20290000D02*
X78810000Y-34010000D01*
X78810000Y-20290000D02*
X71050000Y-20290000D01*
X71050000Y-20290000D02*
X71050000Y-34010000D01*
X72440000Y-34010000D02*
X71050000Y-34010000D01*
X74980000Y-34010000D02*
X74880000Y-34010000D01*
X78810000Y-34010000D02*
X77420000Y-34010000D01*
D17*
X85210000Y-34725000D02*
G75*
G03*
X85210000Y-34725000I-125000J0D01*
G01*
D10*
X90240000Y-20290000D02*
X90240000Y-34010000D01*
X90240000Y-20290000D02*
X82480000Y-20290000D01*
X82480000Y-20290000D02*
X82480000Y-34010000D01*
X83870000Y-34010000D02*
X82480000Y-34010000D01*
X86410000Y-34010000D02*
X86310000Y-34010000D01*
X90240000Y-34010000D02*
X88850000Y-34010000D01*
D17*
X108070000Y-34725000D02*
G75*
G03*
X108070000Y-34725000I-125000J0D01*
G01*
D10*
X113100000Y-20290000D02*
X113100000Y-34010000D01*
X113100000Y-20290000D02*
X105340000Y-20290000D01*
X105340000Y-20290000D02*
X105340000Y-34010000D01*
X106730000Y-34010000D02*
X105340000Y-34010000D01*
X109270000Y-34010000D02*
X109170000Y-34010000D01*
X113100000Y-34010000D02*
X111710000Y-34010000D01*
D17*
X119500000Y-34725000D02*
G75*
G03*
X119500000Y-34725000I-125000J0D01*
G01*
D10*
X124530000Y-20290000D02*
X124530000Y-34010000D01*
X124530000Y-20290000D02*
X116770000Y-20290000D01*
X116770000Y-20290000D02*
X116770000Y-34010000D01*
X118160000Y-34010000D02*
X116770000Y-34010000D01*
X120700000Y-34010000D02*
X120600000Y-34010000D01*
X124530000Y-34010000D02*
X123140000Y-34010000D01*
D17*
X96640000Y-34725000D02*
G75*
G03*
X96640000Y-34725000I-125000J0D01*
G01*
D10*
X101670000Y-20290000D02*
X101670000Y-34010000D01*
X101670000Y-20290000D02*
X93910000Y-20290000D01*
X93910000Y-20290000D02*
X93910000Y-34010000D01*
X95300000Y-34010000D02*
X93910000Y-34010000D01*
X97840000Y-34010000D02*
X97740000Y-34010000D01*
X101670000Y-34010000D02*
X100280000Y-34010000D01*
D13*
X92000000Y-133650000D02*
X91400000Y-133350000D01*
X92000000Y-133050000D02*
X92000000Y-133650000D01*
X91400000Y-133350000D02*
X92000000Y-133050000D01*
X65800000Y-131240000D02*
X65800000Y-129960000D01*
X66400000Y-131240000D02*
X66400000Y-129960000D01*
X71500000Y-131240000D02*
X71500000Y-129960000D01*
X72100000Y-131240000D02*
X72100000Y-129960000D01*
X77200000Y-131240000D02*
X77200000Y-129960000D01*
X77800000Y-131240000D02*
X77800000Y-129960000D01*
X82900000Y-131240000D02*
X82900000Y-129960000D01*
X83500000Y-131240000D02*
X83500000Y-129960000D01*
X88600000Y-131240000D02*
X88600000Y-129960000D01*
X89200000Y-131240000D02*
X89200000Y-129960000D01*
X69690000Y-134340000D02*
X68210000Y-134340000D01*
X75390000Y-134340000D02*
X73910000Y-134340000D01*
X81090000Y-134340000D02*
X79610000Y-134340000D01*
X86790000Y-134340000D02*
X85310000Y-134340000D01*
X62815000Y-134340000D02*
X63990000Y-134340000D01*
X62815000Y-149360000D02*
X62815000Y-134340000D01*
X77500000Y-149360000D02*
X62815000Y-149360000D01*
X92185000Y-134340000D02*
X91010000Y-134340000D01*
X92185000Y-149360000D02*
X92185000Y-134340000D01*
X77500000Y-149360000D02*
X92185000Y-149360000D01*
X67860000Y-140650000D02*
G75*
G03*
X67860000Y-140650000I-1760000J0D01*
G01*
X90660000Y-140650000D02*
G75*
G03*
X90660000Y-140650000I-1760000J0D01*
G01*
X172916000Y-113584000D02*
X169716000Y-113584000D01*
X169716000Y-109584000D02*
X172916000Y-109584000D01*
X172066000Y-111584000D02*
X170566000Y-111584000D01*
X163216000Y-115054000D02*
X179416000Y-115054000D01*
X163216000Y-108114000D02*
X163216000Y-115054000D01*
X179416000Y-108114000D02*
X163216000Y-108114000D01*
X179416000Y-115054000D02*
X179416000Y-108114000D01*
X187250000Y-133650000D02*
X186650000Y-133350000D01*
X187250000Y-133050000D02*
X187250000Y-133650000D01*
X186650000Y-133350000D02*
X187250000Y-133050000D01*
X178150000Y-131240000D02*
X178150000Y-129960000D01*
X178750000Y-131240000D02*
X178750000Y-129960000D01*
X183850000Y-131240000D02*
X183850000Y-129960000D01*
X184450000Y-131240000D02*
X184450000Y-129960000D01*
X182040000Y-134340000D02*
X180560000Y-134340000D01*
X175165000Y-134340000D02*
X176340000Y-134340000D01*
X175165000Y-149360000D02*
X175165000Y-134340000D01*
X181300000Y-149360000D02*
X175165000Y-149360000D01*
X187435000Y-134340000D02*
X186260000Y-134340000D01*
X187435000Y-149360000D02*
X187435000Y-134340000D01*
X181300000Y-149360000D02*
X187435000Y-149360000D01*
X183060000Y-140650000D02*
G75*
G03*
X183060000Y-140650000I-1760000J0D01*
G01*
D10*
X134098000Y-52432000D02*
X134598000Y-51932000D01*
X134098000Y-53232000D02*
X134098000Y-52432000D01*
X134598000Y-53732000D02*
X134098000Y-53232000D01*
X138198000Y-53732000D02*
X134598000Y-53732000D01*
X138698000Y-53232000D02*
X138198000Y-53732000D01*
X138698000Y-52432000D02*
X138698000Y-53232000D01*
X138198000Y-51932000D02*
X138698000Y-52432000D01*
X134598000Y-51932000D02*
X138198000Y-51932000D01*
X101078000Y-40748000D02*
X101578000Y-40248000D01*
X101078000Y-41548000D02*
X101078000Y-40748000D01*
X101578000Y-42048000D02*
X101078000Y-41548000D01*
X105178000Y-42048000D02*
X101578000Y-42048000D01*
X105678000Y-41548000D02*
X105178000Y-42048000D01*
X105678000Y-40748000D02*
X105678000Y-41548000D01*
X105178000Y-40248000D02*
X105678000Y-40748000D01*
X101578000Y-40248000D02*
X105178000Y-40248000D01*
X113778000Y-83547000D02*
X114278000Y-83047000D01*
X113778000Y-84347000D02*
X113778000Y-83547000D01*
X114278000Y-84847000D02*
X113778000Y-84347000D01*
X117878000Y-84847000D02*
X114278000Y-84847000D01*
X118378000Y-84347000D02*
X117878000Y-84847000D01*
X118378000Y-83547000D02*
X118378000Y-84347000D01*
X117878000Y-83047000D02*
X118378000Y-83547000D01*
X114278000Y-83047000D02*
X117878000Y-83047000D01*
X157080000Y-104662000D02*
X156580000Y-104162000D01*
X157880000Y-104662000D02*
X157080000Y-104662000D01*
X158380000Y-104162000D02*
X157880000Y-104662000D01*
X158380000Y-100562000D02*
X158380000Y-104162000D01*
X157880000Y-100062000D02*
X158380000Y-100562000D01*
X157080000Y-100062000D02*
X157880000Y-100062000D01*
X156580000Y-100562000D02*
X157080000Y-100062000D01*
X156580000Y-104162000D02*
X156580000Y-100562000D01*
D13*
X102896936Y-48995000D02*
X103351064Y-48995000D01*
X102896936Y-47525000D02*
X103351064Y-47525000D01*
X179958000Y-92612000D02*
X179958000Y-98012000D01*
X176658000Y-92612000D02*
X176658000Y-98012000D01*
X179958000Y-92612000D02*
X176658000Y-92612000D01*
X191743000Y-39885252D02*
X191743000Y-39362748D01*
X190273000Y-39885252D02*
X190273000Y-39362748D01*
X165073000Y-41155252D02*
X165073000Y-40632748D01*
X163603000Y-41155252D02*
X163603000Y-40632748D01*
X144772748Y-52551000D02*
X145295252Y-52551000D01*
X144772748Y-51081000D02*
X145295252Y-51081000D01*
X150375252Y-51081000D02*
X149852748Y-51081000D01*
X150375252Y-52551000D02*
X149852748Y-52551000D01*
X139219000Y-41140748D02*
X139219000Y-41663252D01*
X140689000Y-41140748D02*
X140689000Y-41663252D01*
X140689000Y-46743252D02*
X140689000Y-46220748D01*
X139219000Y-46743252D02*
X139219000Y-46220748D01*
X191743000Y-46235252D02*
X191743000Y-45712748D01*
X190273000Y-46235252D02*
X190273000Y-45712748D01*
X165073000Y-46870252D02*
X165073000Y-46347748D01*
X163603000Y-46870252D02*
X163603000Y-46347748D01*
D10*
X55626095Y-48990380D02*
X55626095Y-47990380D01*
X55626095Y-48466571D02*
X56197523Y-48466571D01*
X56197523Y-48990380D02*
X56197523Y-47990380D01*
X56578476Y-47990380D02*
X57197523Y-47990380D01*
X56864190Y-48371333D01*
X57007047Y-48371333D01*
X57102285Y-48418952D01*
X57149904Y-48466571D01*
X57197523Y-48561809D01*
X57197523Y-48799904D01*
X57149904Y-48895142D01*
X57102285Y-48942761D01*
X57007047Y-48990380D01*
X56721333Y-48990380D01*
X56626095Y-48942761D01*
X56578476Y-48895142D01*
X58721714Y-81796000D02*
X58626476Y-81748380D01*
X58483619Y-81748380D01*
X58340761Y-81796000D01*
X58245523Y-81891238D01*
X58197904Y-81986476D01*
X58150285Y-82176952D01*
X58150285Y-82319809D01*
X58197904Y-82510285D01*
X58245523Y-82605523D01*
X58340761Y-82700761D01*
X58483619Y-82748380D01*
X58578857Y-82748380D01*
X58721714Y-82700761D01*
X58769333Y-82653142D01*
X58769333Y-82319809D01*
X58578857Y-82319809D01*
X59197904Y-82748380D02*
X59197904Y-81748380D01*
X59578857Y-81748380D01*
X59674095Y-81796000D01*
X59721714Y-81843619D01*
X59769333Y-81938857D01*
X59769333Y-82081714D01*
X59721714Y-82176952D01*
X59674095Y-82224571D01*
X59578857Y-82272190D01*
X59197904Y-82272190D01*
X60150285Y-82700761D02*
X60293142Y-82748380D01*
X60531238Y-82748380D01*
X60626476Y-82700761D01*
X60674095Y-82653142D01*
X60721714Y-82557904D01*
X60721714Y-82462666D01*
X60674095Y-82367428D01*
X60626476Y-82319809D01*
X60531238Y-82272190D01*
X60340761Y-82224571D01*
X60245523Y-82176952D01*
X60197904Y-82129333D01*
X60150285Y-82034095D01*
X60150285Y-81938857D01*
X60197904Y-81843619D01*
X60245523Y-81796000D01*
X60340761Y-81748380D01*
X60578857Y-81748380D01*
X60721714Y-81796000D01*
X56165904Y-51760380D02*
X56165904Y-50760380D01*
X56546857Y-50760380D01*
X56642095Y-50808000D01*
X56689714Y-50855619D01*
X56737333Y-50950857D01*
X56737333Y-51093714D01*
X56689714Y-51188952D01*
X56642095Y-51236571D01*
X56546857Y-51284190D01*
X56165904Y-51284190D01*
X57165904Y-51760380D02*
X57165904Y-50760380D01*
X57546857Y-50760380D01*
X57642095Y-50808000D01*
X57689714Y-50855619D01*
X57737333Y-50950857D01*
X57737333Y-51093714D01*
X57689714Y-51188952D01*
X57642095Y-51236571D01*
X57546857Y-51284190D01*
X57165904Y-51284190D01*
X58118285Y-51712761D02*
X58261142Y-51760380D01*
X58499238Y-51760380D01*
X58594476Y-51712761D01*
X58642095Y-51665142D01*
X58689714Y-51569904D01*
X58689714Y-51474666D01*
X58642095Y-51379428D01*
X58594476Y-51331809D01*
X58499238Y-51284190D01*
X58308761Y-51236571D01*
X58213523Y-51188952D01*
X58165904Y-51141333D01*
X58118285Y-51046095D01*
X58118285Y-50950857D01*
X58165904Y-50855619D01*
X58213523Y-50808000D01*
X58308761Y-50760380D01*
X58546857Y-50760380D01*
X58689714Y-50808000D01*
X56856380Y-54300380D02*
X56523047Y-53824190D01*
X56284952Y-54300380D02*
X56284952Y-53300380D01*
X56665904Y-53300380D01*
X56761142Y-53348000D01*
X56808761Y-53395619D01*
X56856380Y-53490857D01*
X56856380Y-53633714D01*
X56808761Y-53728952D01*
X56761142Y-53776571D01*
X56665904Y-53824190D01*
X56284952Y-53824190D01*
X57237333Y-54252761D02*
X57380190Y-54300380D01*
X57618285Y-54300380D01*
X57713523Y-54252761D01*
X57761142Y-54205142D01*
X57808761Y-54109904D01*
X57808761Y-54014666D01*
X57761142Y-53919428D01*
X57713523Y-53871809D01*
X57618285Y-53824190D01*
X57427809Y-53776571D01*
X57332571Y-53728952D01*
X57284952Y-53681333D01*
X57237333Y-53586095D01*
X57237333Y-53490857D01*
X57284952Y-53395619D01*
X57332571Y-53348000D01*
X57427809Y-53300380D01*
X57665904Y-53300380D01*
X57808761Y-53348000D01*
X58094476Y-53300380D02*
X58665904Y-53300380D01*
X58380190Y-54300380D02*
X58380190Y-53300380D01*
X56268761Y-56792761D02*
X56411619Y-56840380D01*
X56649714Y-56840380D01*
X56744952Y-56792761D01*
X56792571Y-56745142D01*
X56840190Y-56649904D01*
X56840190Y-56554666D01*
X56792571Y-56459428D01*
X56744952Y-56411809D01*
X56649714Y-56364190D01*
X56459238Y-56316571D01*
X56364000Y-56268952D01*
X56316380Y-56221333D01*
X56268761Y-56126095D01*
X56268761Y-56030857D01*
X56316380Y-55935619D01*
X56364000Y-55888000D01*
X56459238Y-55840380D01*
X56697333Y-55840380D01*
X56840190Y-55888000D01*
X57221142Y-56554666D02*
X57697333Y-56554666D01*
X57125904Y-56840380D02*
X57459238Y-55840380D01*
X57792571Y-56840380D01*
X58459238Y-56316571D02*
X58125904Y-56316571D01*
X58125904Y-56840380D02*
X58125904Y-55840380D01*
X58602095Y-55840380D01*
X58983047Y-56316571D02*
X59316380Y-56316571D01*
X59459238Y-56840380D02*
X58983047Y-56840380D01*
X58983047Y-55840380D01*
X59459238Y-55840380D01*
X56499238Y-59380380D02*
X56499238Y-58380380D01*
X56975428Y-59380380D02*
X56975428Y-58380380D01*
X57546857Y-59380380D01*
X57546857Y-58380380D01*
X57880190Y-58380380D02*
X58451619Y-58380380D01*
X58165904Y-59380380D02*
X58165904Y-58380380D01*
X56642095Y-60968000D02*
X56546857Y-60920380D01*
X56404000Y-60920380D01*
X56261142Y-60968000D01*
X56165904Y-61063238D01*
X56118285Y-61158476D01*
X56070666Y-61348952D01*
X56070666Y-61491809D01*
X56118285Y-61682285D01*
X56165904Y-61777523D01*
X56261142Y-61872761D01*
X56404000Y-61920380D01*
X56499238Y-61920380D01*
X56642095Y-61872761D01*
X56689714Y-61825142D01*
X56689714Y-61491809D01*
X56499238Y-61491809D01*
X57118285Y-61920380D02*
X57118285Y-60920380D01*
X57689714Y-61920380D01*
X57689714Y-60920380D01*
X58165904Y-61920380D02*
X58165904Y-60920380D01*
X58404000Y-60920380D01*
X58546857Y-60968000D01*
X58642095Y-61063238D01*
X58689714Y-61158476D01*
X58737333Y-61348952D01*
X58737333Y-61491809D01*
X58689714Y-61682285D01*
X58642095Y-61777523D01*
X58546857Y-61872761D01*
X58404000Y-61920380D01*
X58165904Y-61920380D01*
X56165904Y-63460380D02*
X56784952Y-63460380D01*
X56451619Y-63841333D01*
X56594476Y-63841333D01*
X56689714Y-63888952D01*
X56737333Y-63936571D01*
X56784952Y-64031809D01*
X56784952Y-64269904D01*
X56737333Y-64365142D01*
X56689714Y-64412761D01*
X56594476Y-64460380D01*
X56308761Y-64460380D01*
X56213523Y-64412761D01*
X56165904Y-64365142D01*
X57070666Y-63460380D02*
X57404000Y-64460380D01*
X57737333Y-63460380D01*
X57975428Y-63460380D02*
X58594476Y-63460380D01*
X58261142Y-63841333D01*
X58404000Y-63841333D01*
X58499238Y-63888952D01*
X58546857Y-63936571D01*
X58594476Y-64031809D01*
X58594476Y-64269904D01*
X58546857Y-64365142D01*
X58499238Y-64412761D01*
X58404000Y-64460380D01*
X58118285Y-64460380D01*
X58023047Y-64412761D01*
X57975428Y-64365142D01*
X56189714Y-66952761D02*
X56332571Y-67000380D01*
X56570666Y-67000380D01*
X56665904Y-66952761D01*
X56713523Y-66905142D01*
X56761142Y-66809904D01*
X56761142Y-66714666D01*
X56713523Y-66619428D01*
X56665904Y-66571809D01*
X56570666Y-66524190D01*
X56380190Y-66476571D01*
X56284952Y-66428952D01*
X56237333Y-66381333D01*
X56189714Y-66286095D01*
X56189714Y-66190857D01*
X56237333Y-66095619D01*
X56284952Y-66048000D01*
X56380190Y-66000380D01*
X56618285Y-66000380D01*
X56761142Y-66048000D01*
X57189714Y-67000380D02*
X57189714Y-66000380D01*
X57427809Y-66000380D01*
X57570666Y-66048000D01*
X57665904Y-66143238D01*
X57713523Y-66238476D01*
X57761142Y-66428952D01*
X57761142Y-66571809D01*
X57713523Y-66762285D01*
X57665904Y-66857523D01*
X57570666Y-66952761D01*
X57427809Y-67000380D01*
X57189714Y-67000380D01*
X58142095Y-66714666D02*
X58618285Y-66714666D01*
X58046857Y-67000380D02*
X58380190Y-66000380D01*
X58713523Y-67000380D01*
X56213523Y-69492761D02*
X56356380Y-69540380D01*
X56594476Y-69540380D01*
X56689714Y-69492761D01*
X56737333Y-69445142D01*
X56784952Y-69349904D01*
X56784952Y-69254666D01*
X56737333Y-69159428D01*
X56689714Y-69111809D01*
X56594476Y-69064190D01*
X56404000Y-69016571D01*
X56308761Y-68968952D01*
X56261142Y-68921333D01*
X56213523Y-68826095D01*
X56213523Y-68730857D01*
X56261142Y-68635619D01*
X56308761Y-68588000D01*
X56404000Y-68540380D01*
X56642095Y-68540380D01*
X56784952Y-68588000D01*
X57784952Y-69445142D02*
X57737333Y-69492761D01*
X57594476Y-69540380D01*
X57499238Y-69540380D01*
X57356380Y-69492761D01*
X57261142Y-69397523D01*
X57213523Y-69302285D01*
X57165904Y-69111809D01*
X57165904Y-68968952D01*
X57213523Y-68778476D01*
X57261142Y-68683238D01*
X57356380Y-68588000D01*
X57499238Y-68540380D01*
X57594476Y-68540380D01*
X57737333Y-68588000D01*
X57784952Y-68635619D01*
X58689714Y-69540380D02*
X58213523Y-69540380D01*
X58213523Y-68540380D01*
X185354987Y-88081367D02*
X185354987Y-87509939D01*
X186354987Y-87795653D02*
X185354987Y-87795653D01*
X185354987Y-86700415D02*
X185354987Y-87176605D01*
X185831178Y-87224224D01*
X185783559Y-87176605D01*
X185735940Y-87081367D01*
X185735940Y-86843272D01*
X185783559Y-86748034D01*
X185831178Y-86700415D01*
X185926416Y-86652796D01*
X186164511Y-86652796D01*
X186259749Y-86700415D01*
X186307368Y-86748034D01*
X186354987Y-86843272D01*
X186354987Y-87081367D01*
X186307368Y-87176605D01*
X186259749Y-87224224D01*
X151922607Y-89200415D02*
X151874987Y-89295653D01*
X151874987Y-89438510D01*
X151922607Y-89581367D01*
X152017845Y-89676605D01*
X152113083Y-89724224D01*
X152303559Y-89771843D01*
X152446416Y-89771843D01*
X152636892Y-89724224D01*
X152732130Y-89676605D01*
X152827368Y-89581367D01*
X152874987Y-89438510D01*
X152874987Y-89343272D01*
X152827368Y-89200415D01*
X152779749Y-89152796D01*
X152446416Y-89152796D01*
X152446416Y-89343272D01*
X152874987Y-88724224D02*
X151874987Y-88724224D01*
X151874987Y-88343272D01*
X151922607Y-88248034D01*
X151970226Y-88200415D01*
X152065464Y-88152796D01*
X152208321Y-88152796D01*
X152303559Y-88200415D01*
X152351178Y-88248034D01*
X152398797Y-88343272D01*
X152398797Y-88724224D01*
X152874987Y-87724224D02*
X151874987Y-87724224D01*
X151874987Y-87057558D02*
X151874987Y-86867082D01*
X151922607Y-86771843D01*
X152017845Y-86676605D01*
X152208321Y-86628986D01*
X152541654Y-86628986D01*
X152732130Y-86676605D01*
X152827368Y-86771843D01*
X152874987Y-86867082D01*
X152874987Y-87057558D01*
X152827368Y-87152796D01*
X152732130Y-87248034D01*
X152541654Y-87295653D01*
X152208321Y-87295653D01*
X152017845Y-87248034D01*
X151922607Y-87152796D01*
X151874987Y-87057558D01*
X152970226Y-86438510D02*
X152970226Y-85676605D01*
X152874987Y-84867082D02*
X152398797Y-85200415D01*
X152874987Y-85438510D02*
X151874987Y-85438510D01*
X151874987Y-85057558D01*
X151922607Y-84962320D01*
X151970226Y-84914701D01*
X152065464Y-84867082D01*
X152208321Y-84867082D01*
X152303559Y-84914701D01*
X152351178Y-84962320D01*
X152398797Y-85057558D01*
X152398797Y-85438510D01*
X183584987Y-91042082D02*
X183584987Y-91518272D01*
X182584987Y-91518272D01*
X183584987Y-90708748D02*
X182584987Y-90708748D01*
X183204035Y-90232558D02*
X183204035Y-89470653D01*
X183584987Y-89851605D02*
X182823083Y-89851605D01*
X180521178Y-91105558D02*
X180521178Y-90772224D01*
X181044987Y-90629367D02*
X181044987Y-91105558D01*
X180044987Y-91105558D01*
X180044987Y-90629367D01*
X181044987Y-90200796D02*
X180044987Y-90200796D01*
X181044987Y-89629367D01*
X180044987Y-89629367D01*
X177504987Y-91589701D02*
X178504987Y-91256367D01*
X177504987Y-90923034D01*
X178504987Y-90589701D02*
X177504987Y-90589701D01*
X178504987Y-90113510D02*
X177504987Y-90113510D01*
X178504987Y-89542082D01*
X177504987Y-89542082D01*
X175964987Y-90978558D02*
X174964987Y-90978558D01*
X174964987Y-90740463D01*
X175012607Y-90597605D01*
X175107845Y-90502367D01*
X175203083Y-90454748D01*
X175393559Y-90407129D01*
X175536416Y-90407129D01*
X175726892Y-90454748D01*
X175822130Y-90502367D01*
X175917368Y-90597605D01*
X175964987Y-90740463D01*
X175964987Y-90978558D01*
X175393559Y-89835701D02*
X175345940Y-89930939D01*
X175298321Y-89978558D01*
X175203083Y-90026177D01*
X175155464Y-90026177D01*
X175060226Y-89978558D01*
X175012607Y-89930939D01*
X174964987Y-89835701D01*
X174964987Y-89645224D01*
X175012607Y-89549986D01*
X175060226Y-89502367D01*
X175155464Y-89454748D01*
X175203083Y-89454748D01*
X175298321Y-89502367D01*
X175345940Y-89549986D01*
X175393559Y-89645224D01*
X175393559Y-89835701D01*
X175441178Y-89930939D01*
X175488797Y-89978558D01*
X175584035Y-90026177D01*
X175774511Y-90026177D01*
X175869749Y-89978558D01*
X175917368Y-89930939D01*
X175964987Y-89835701D01*
X175964987Y-89645224D01*
X175917368Y-89549986D01*
X175869749Y-89502367D01*
X175774511Y-89454748D01*
X175584035Y-89454748D01*
X175488797Y-89502367D01*
X175441178Y-89549986D01*
X175393559Y-89645224D01*
X173424987Y-90978558D02*
X172424987Y-90978558D01*
X172424987Y-90740463D01*
X172472607Y-90597605D01*
X172567845Y-90502367D01*
X172663083Y-90454748D01*
X172853559Y-90407129D01*
X172996416Y-90407129D01*
X173186892Y-90454748D01*
X173282130Y-90502367D01*
X173377368Y-90597605D01*
X173424987Y-90740463D01*
X173424987Y-90978558D01*
X172424987Y-90073796D02*
X172424987Y-89407129D01*
X173424987Y-89835701D01*
X170884987Y-90978558D02*
X169884987Y-90978558D01*
X169884987Y-90740463D01*
X169932607Y-90597605D01*
X170027845Y-90502367D01*
X170123083Y-90454748D01*
X170313559Y-90407129D01*
X170456416Y-90407129D01*
X170646892Y-90454748D01*
X170742130Y-90502367D01*
X170837368Y-90597605D01*
X170884987Y-90740463D01*
X170884987Y-90978558D01*
X169884987Y-89549986D02*
X169884987Y-89740463D01*
X169932607Y-89835701D01*
X169980226Y-89883320D01*
X170123083Y-89978558D01*
X170313559Y-90026177D01*
X170694511Y-90026177D01*
X170789749Y-89978558D01*
X170837368Y-89930939D01*
X170884987Y-89835701D01*
X170884987Y-89645224D01*
X170837368Y-89549986D01*
X170789749Y-89502367D01*
X170694511Y-89454748D01*
X170456416Y-89454748D01*
X170361178Y-89502367D01*
X170313559Y-89549986D01*
X170265940Y-89645224D01*
X170265940Y-89835701D01*
X170313559Y-89930939D01*
X170361178Y-89978558D01*
X170456416Y-90026177D01*
X168344987Y-90978558D02*
X167344987Y-90978558D01*
X167344987Y-90740463D01*
X167392607Y-90597605D01*
X167487845Y-90502367D01*
X167583083Y-90454748D01*
X167773559Y-90407129D01*
X167916416Y-90407129D01*
X168106892Y-90454748D01*
X168202130Y-90502367D01*
X168297368Y-90597605D01*
X168344987Y-90740463D01*
X168344987Y-90978558D01*
X167344987Y-89502367D02*
X167344987Y-89978558D01*
X167821178Y-90026177D01*
X167773559Y-89978558D01*
X167725940Y-89883320D01*
X167725940Y-89645224D01*
X167773559Y-89549986D01*
X167821178Y-89502367D01*
X167916416Y-89454748D01*
X168154511Y-89454748D01*
X168249749Y-89502367D01*
X168297368Y-89549986D01*
X168344987Y-89645224D01*
X168344987Y-89883320D01*
X168297368Y-89978558D01*
X168249749Y-90026177D01*
X165804987Y-90978558D02*
X164804987Y-90978558D01*
X164804987Y-90740463D01*
X164852607Y-90597605D01*
X164947845Y-90502367D01*
X165043083Y-90454748D01*
X165233559Y-90407129D01*
X165376416Y-90407129D01*
X165566892Y-90454748D01*
X165662130Y-90502367D01*
X165757368Y-90597605D01*
X165804987Y-90740463D01*
X165804987Y-90978558D01*
X165138321Y-89549986D02*
X165804987Y-89549986D01*
X164757368Y-89788082D02*
X165471654Y-90026177D01*
X165471654Y-89407129D01*
X163264987Y-90978558D02*
X162264987Y-90978558D01*
X162264987Y-90740463D01*
X162312607Y-90597605D01*
X162407845Y-90502367D01*
X162503083Y-90454748D01*
X162693559Y-90407129D01*
X162836416Y-90407129D01*
X163026892Y-90454748D01*
X163122130Y-90502367D01*
X163217368Y-90597605D01*
X163264987Y-90740463D01*
X163264987Y-90978558D01*
X162264987Y-90073796D02*
X162264987Y-89454748D01*
X162645940Y-89788082D01*
X162645940Y-89645224D01*
X162693559Y-89549986D01*
X162741178Y-89502367D01*
X162836416Y-89454748D01*
X163074511Y-89454748D01*
X163169749Y-89502367D01*
X163217368Y-89549986D01*
X163264987Y-89645224D01*
X163264987Y-89930939D01*
X163217368Y-90026177D01*
X163169749Y-90073796D01*
X160724987Y-90978558D02*
X159724987Y-90978558D01*
X159724987Y-90740463D01*
X159772607Y-90597605D01*
X159867845Y-90502367D01*
X159963083Y-90454748D01*
X160153559Y-90407129D01*
X160296416Y-90407129D01*
X160486892Y-90454748D01*
X160582130Y-90502367D01*
X160677368Y-90597605D01*
X160724987Y-90740463D01*
X160724987Y-90978558D01*
X159820226Y-90026177D02*
X159772607Y-89978558D01*
X159724987Y-89883320D01*
X159724987Y-89645224D01*
X159772607Y-89549986D01*
X159820226Y-89502367D01*
X159915464Y-89454748D01*
X160010702Y-89454748D01*
X160153559Y-89502367D01*
X160724987Y-90073796D01*
X160724987Y-89454748D01*
X158137368Y-91684939D02*
X158184987Y-91542082D01*
X158184987Y-91303986D01*
X158137368Y-91208748D01*
X158089749Y-91161129D01*
X157994511Y-91113510D01*
X157899273Y-91113510D01*
X157804035Y-91161129D01*
X157756416Y-91208748D01*
X157708797Y-91303986D01*
X157661178Y-91494463D01*
X157613559Y-91589701D01*
X157565940Y-91637320D01*
X157470702Y-91684939D01*
X157375464Y-91684939D01*
X157280226Y-91637320D01*
X157232607Y-91589701D01*
X157184987Y-91494463D01*
X157184987Y-91256367D01*
X157232607Y-91113510D01*
X158089749Y-90113510D02*
X158137368Y-90161129D01*
X158184987Y-90303986D01*
X158184987Y-90399224D01*
X158137368Y-90542082D01*
X158042130Y-90637320D01*
X157946892Y-90684939D01*
X157756416Y-90732558D01*
X157613559Y-90732558D01*
X157423083Y-90684939D01*
X157327845Y-90637320D01*
X157232607Y-90542082D01*
X157184987Y-90399224D01*
X157184987Y-90303986D01*
X157232607Y-90161129D01*
X157280226Y-90113510D01*
X158184987Y-89208748D02*
X158184987Y-89684939D01*
X157184987Y-89684939D01*
X155597368Y-91708748D02*
X155644987Y-91565891D01*
X155644987Y-91327796D01*
X155597368Y-91232558D01*
X155549749Y-91184939D01*
X155454511Y-91137320D01*
X155359273Y-91137320D01*
X155264035Y-91184939D01*
X155216416Y-91232558D01*
X155168797Y-91327796D01*
X155121178Y-91518272D01*
X155073559Y-91613510D01*
X155025940Y-91661129D01*
X154930702Y-91708748D01*
X154835464Y-91708748D01*
X154740226Y-91661129D01*
X154692607Y-91613510D01*
X154644987Y-91518272D01*
X154644987Y-91280177D01*
X154692607Y-91137320D01*
X155644987Y-90708748D02*
X154644987Y-90708748D01*
X154644987Y-90470653D01*
X154692607Y-90327796D01*
X154787845Y-90232558D01*
X154883083Y-90184939D01*
X155073559Y-90137320D01*
X155216416Y-90137320D01*
X155406892Y-90184939D01*
X155502130Y-90232558D01*
X155597368Y-90327796D01*
X155644987Y-90470653D01*
X155644987Y-90708748D01*
X155359273Y-89756367D02*
X155359273Y-89280177D01*
X155644987Y-89851605D02*
X154644987Y-89518272D01*
X155644987Y-89184939D01*
X195517615Y-59268008D02*
X195517615Y-58696580D01*
X196517615Y-58982294D02*
X195517615Y-58982294D01*
X195850949Y-57934675D02*
X196517615Y-57934675D01*
X195469996Y-58172770D02*
X196184282Y-58410865D01*
X196184282Y-57791818D01*
X154465235Y-60291818D02*
X154417615Y-60387056D01*
X154417615Y-60529913D01*
X154465235Y-60672770D01*
X154560473Y-60768008D01*
X154655711Y-60815627D01*
X154846187Y-60863246D01*
X154989044Y-60863246D01*
X155179520Y-60815627D01*
X155274758Y-60768008D01*
X155369996Y-60672770D01*
X155417615Y-60529913D01*
X155417615Y-60434675D01*
X155369996Y-60291818D01*
X155322377Y-60244199D01*
X154989044Y-60244199D01*
X154989044Y-60434675D01*
X155417615Y-59815627D02*
X154417615Y-59815627D01*
X154417615Y-59434675D01*
X154465235Y-59339437D01*
X154512854Y-59291818D01*
X154608092Y-59244199D01*
X154750949Y-59244199D01*
X154846187Y-59291818D01*
X154893806Y-59339437D01*
X154941425Y-59434675D01*
X154941425Y-59815627D01*
X155417615Y-58815627D02*
X154417615Y-58815627D01*
X154417615Y-58148961D02*
X154417615Y-57958484D01*
X154465235Y-57863246D01*
X154560473Y-57768008D01*
X154750949Y-57720389D01*
X155084282Y-57720389D01*
X155274758Y-57768008D01*
X155369996Y-57863246D01*
X155417615Y-57958484D01*
X155417615Y-58148961D01*
X155369996Y-58244199D01*
X155274758Y-58339437D01*
X155084282Y-58387056D01*
X154750949Y-58387056D01*
X154560473Y-58339437D01*
X154465235Y-58244199D01*
X154417615Y-58148961D01*
X155512854Y-57529913D02*
X155512854Y-56768008D01*
X155417615Y-56053723D02*
X155417615Y-56529913D01*
X154417615Y-56529913D01*
X194001615Y-55497723D02*
X193525425Y-55831056D01*
X194001615Y-56069151D02*
X193001615Y-56069151D01*
X193001615Y-55688199D01*
X193049235Y-55592961D01*
X193096854Y-55545342D01*
X193192092Y-55497723D01*
X193334949Y-55497723D01*
X193430187Y-55545342D01*
X193477806Y-55592961D01*
X193525425Y-55688199D01*
X193525425Y-56069151D01*
X193953996Y-55116770D02*
X194001615Y-54973913D01*
X194001615Y-54735818D01*
X193953996Y-54640580D01*
X193906377Y-54592961D01*
X193811139Y-54545342D01*
X193715901Y-54545342D01*
X193620663Y-54592961D01*
X193573044Y-54640580D01*
X193525425Y-54735818D01*
X193477806Y-54926294D01*
X193430187Y-55021532D01*
X193382568Y-55069151D01*
X193287330Y-55116770D01*
X193192092Y-55116770D01*
X193096854Y-55069151D01*
X193049235Y-55021532D01*
X193001615Y-54926294D01*
X193001615Y-54688199D01*
X193049235Y-54545342D01*
X193001615Y-54259627D02*
X193001615Y-53688199D01*
X194001615Y-53973913D02*
X193001615Y-53973913D01*
X190207615Y-56188199D02*
X190207615Y-55569151D01*
X190588568Y-55902484D01*
X190588568Y-55759627D01*
X190636187Y-55664389D01*
X190683806Y-55616770D01*
X190779044Y-55569151D01*
X191017139Y-55569151D01*
X191112377Y-55616770D01*
X191159996Y-55664389D01*
X191207615Y-55759627D01*
X191207615Y-56045342D01*
X191159996Y-56140580D01*
X191112377Y-56188199D01*
X190207615Y-55283437D02*
X191207615Y-54950104D01*
X190207615Y-54616770D01*
X190207615Y-54378675D02*
X190207615Y-53759627D01*
X190588568Y-54092961D01*
X190588568Y-53950104D01*
X190636187Y-53854865D01*
X190683806Y-53807246D01*
X190779044Y-53759627D01*
X191017139Y-53759627D01*
X191112377Y-53807246D01*
X191159996Y-53854865D01*
X191207615Y-53950104D01*
X191207615Y-54235818D01*
X191159996Y-54331056D01*
X191112377Y-54378675D01*
X188667615Y-56037437D02*
X187667615Y-56037437D01*
X188381901Y-55704104D01*
X187667615Y-55370770D01*
X188667615Y-55370770D01*
X188667615Y-54894580D02*
X187667615Y-54894580D01*
X187667615Y-54656484D01*
X187715235Y-54513627D01*
X187810473Y-54418389D01*
X187905711Y-54370770D01*
X188096187Y-54323151D01*
X188239044Y-54323151D01*
X188429520Y-54370770D01*
X188524758Y-54418389D01*
X188619996Y-54513627D01*
X188667615Y-54656484D01*
X188667615Y-54894580D01*
X185175235Y-55712008D02*
X185127615Y-55807246D01*
X185127615Y-55950104D01*
X185175235Y-56092961D01*
X185270473Y-56188199D01*
X185365711Y-56235818D01*
X185556187Y-56283437D01*
X185699044Y-56283437D01*
X185889520Y-56235818D01*
X185984758Y-56188199D01*
X186079996Y-56092961D01*
X186127615Y-55950104D01*
X186127615Y-55854865D01*
X186079996Y-55712008D01*
X186032377Y-55664389D01*
X185699044Y-55664389D01*
X185699044Y-55854865D01*
X186127615Y-55235818D02*
X185127615Y-55235818D01*
X186127615Y-54664389D01*
X185127615Y-54664389D01*
X186127615Y-54188199D02*
X185127615Y-54188199D01*
X185127615Y-53950104D01*
X185175235Y-53807246D01*
X185270473Y-53712008D01*
X185365711Y-53664389D01*
X185556187Y-53616770D01*
X185699044Y-53616770D01*
X185889520Y-53664389D01*
X185984758Y-53712008D01*
X186079996Y-53807246D01*
X186127615Y-53950104D01*
X186127615Y-54188199D01*
X183301901Y-55918389D02*
X183301901Y-55442199D01*
X183587615Y-56013627D02*
X182587615Y-55680294D01*
X183587615Y-55346961D01*
X182587615Y-54823151D02*
X182587615Y-54727913D01*
X182635235Y-54632675D01*
X182682854Y-54585056D01*
X182778092Y-54537437D01*
X182968568Y-54489818D01*
X183206663Y-54489818D01*
X183397139Y-54537437D01*
X183492377Y-54585056D01*
X183539996Y-54632675D01*
X183587615Y-54727913D01*
X183587615Y-54823151D01*
X183539996Y-54918389D01*
X183492377Y-54966008D01*
X183397139Y-55013627D01*
X183206663Y-55061246D01*
X182968568Y-55061246D01*
X182778092Y-55013627D01*
X182682854Y-54966008D01*
X182635235Y-54918389D01*
X182587615Y-54823151D01*
X180761901Y-55918389D02*
X180761901Y-55442199D01*
X181047615Y-56013627D02*
X180047615Y-55680294D01*
X181047615Y-55346961D01*
X181047615Y-54489818D02*
X181047615Y-55061246D01*
X181047615Y-54775532D02*
X180047615Y-54775532D01*
X180190473Y-54870770D01*
X180285711Y-54966008D01*
X180333330Y-55061246D01*
X178221901Y-55918389D02*
X178221901Y-55442199D01*
X178507615Y-56013627D02*
X177507615Y-55680294D01*
X178507615Y-55346961D01*
X177602854Y-55061246D02*
X177555235Y-55013627D01*
X177507615Y-54918389D01*
X177507615Y-54680294D01*
X177555235Y-54585056D01*
X177602854Y-54537437D01*
X177698092Y-54489818D01*
X177793330Y-54489818D01*
X177936187Y-54537437D01*
X178507615Y-55108865D01*
X178507615Y-54489818D01*
X175681901Y-55918389D02*
X175681901Y-55442199D01*
X175967615Y-56013627D02*
X174967615Y-55680294D01*
X175967615Y-55346961D01*
X174967615Y-55108865D02*
X174967615Y-54489818D01*
X175348568Y-54823151D01*
X175348568Y-54680294D01*
X175396187Y-54585056D01*
X175443806Y-54537437D01*
X175539044Y-54489818D01*
X175777139Y-54489818D01*
X175872377Y-54537437D01*
X175919996Y-54585056D01*
X175967615Y-54680294D01*
X175967615Y-54966008D01*
X175919996Y-55061246D01*
X175872377Y-55108865D01*
X173141901Y-55918389D02*
X173141901Y-55442199D01*
X173427615Y-56013627D02*
X172427615Y-55680294D01*
X173427615Y-55346961D01*
X172760949Y-54585056D02*
X173427615Y-54585056D01*
X172379996Y-54823151D02*
X173094282Y-55061246D01*
X173094282Y-54442199D01*
X170601901Y-55918389D02*
X170601901Y-55442199D01*
X170887615Y-56013627D02*
X169887615Y-55680294D01*
X170887615Y-55346961D01*
X169887615Y-54537437D02*
X169887615Y-55013627D01*
X170363806Y-55061246D01*
X170316187Y-55013627D01*
X170268568Y-54918389D01*
X170268568Y-54680294D01*
X170316187Y-54585056D01*
X170363806Y-54537437D01*
X170459044Y-54489818D01*
X170697139Y-54489818D01*
X170792377Y-54537437D01*
X170839996Y-54585056D01*
X170887615Y-54680294D01*
X170887615Y-54918389D01*
X170839996Y-55013627D01*
X170792377Y-55061246D01*
X168299996Y-56235818D02*
X168347615Y-56092961D01*
X168347615Y-55854865D01*
X168299996Y-55759627D01*
X168252377Y-55712008D01*
X168157139Y-55664389D01*
X168061901Y-55664389D01*
X167966663Y-55712008D01*
X167919044Y-55759627D01*
X167871425Y-55854865D01*
X167823806Y-56045342D01*
X167776187Y-56140580D01*
X167728568Y-56188199D01*
X167633330Y-56235818D01*
X167538092Y-56235818D01*
X167442854Y-56188199D01*
X167395235Y-56140580D01*
X167347615Y-56045342D01*
X167347615Y-55807246D01*
X167395235Y-55664389D01*
X168252377Y-54664389D02*
X168299996Y-54712008D01*
X168347615Y-54854865D01*
X168347615Y-54950104D01*
X168299996Y-55092961D01*
X168204758Y-55188199D01*
X168109520Y-55235818D01*
X167919044Y-55283437D01*
X167776187Y-55283437D01*
X167585711Y-55235818D01*
X167490473Y-55188199D01*
X167395235Y-55092961D01*
X167347615Y-54950104D01*
X167347615Y-54854865D01*
X167395235Y-54712008D01*
X167442854Y-54664389D01*
X168347615Y-54235818D02*
X167347615Y-54235818D01*
X168347615Y-53664389D02*
X167776187Y-54092961D01*
X167347615Y-53664389D02*
X167919044Y-54235818D01*
X165807615Y-56061246D02*
X164807615Y-56061246D01*
X165521901Y-55727913D01*
X164807615Y-55394580D01*
X165807615Y-55394580D01*
X164807615Y-54727913D02*
X164807615Y-54537437D01*
X164855235Y-54442199D01*
X164950473Y-54346961D01*
X165140949Y-54299342D01*
X165474282Y-54299342D01*
X165664758Y-54346961D01*
X165759996Y-54442199D01*
X165807615Y-54537437D01*
X165807615Y-54727913D01*
X165759996Y-54823151D01*
X165664758Y-54918389D01*
X165474282Y-54966008D01*
X165140949Y-54966008D01*
X164950473Y-54918389D01*
X164855235Y-54823151D01*
X164807615Y-54727913D01*
X163267615Y-56029532D02*
X162267615Y-56029532D01*
X162981901Y-55696199D01*
X162267615Y-55362865D01*
X163267615Y-55362865D01*
X163267615Y-54886675D02*
X162267615Y-54886675D01*
X160727615Y-55370770D02*
X160251425Y-55704104D01*
X160727615Y-55942199D02*
X159727615Y-55942199D01*
X159727615Y-55561246D01*
X159775235Y-55466008D01*
X159822854Y-55418389D01*
X159918092Y-55370770D01*
X160060949Y-55370770D01*
X160156187Y-55418389D01*
X160203806Y-55466008D01*
X160251425Y-55561246D01*
X160251425Y-55942199D01*
X159727615Y-55037437D02*
X160727615Y-54370770D01*
X159727615Y-54370770D02*
X160727615Y-55037437D01*
X157187615Y-55966008D02*
X157187615Y-55394580D01*
X158187615Y-55680294D02*
X157187615Y-55680294D01*
X157187615Y-55156484D02*
X158187615Y-54489818D01*
X157187615Y-54489818D02*
X158187615Y-55156484D01*
X102108095Y-55776761D02*
X102250952Y-55824380D01*
X102489047Y-55824380D01*
X102584285Y-55776761D01*
X102631904Y-55729142D01*
X102679523Y-55633904D01*
X102679523Y-55538666D01*
X102631904Y-55443428D01*
X102584285Y-55395809D01*
X102489047Y-55348190D01*
X102298571Y-55300571D01*
X102203333Y-55252952D01*
X102155714Y-55205333D01*
X102108095Y-55110095D01*
X102108095Y-55014857D01*
X102155714Y-54919619D01*
X102203333Y-54872000D01*
X102298571Y-54824380D01*
X102536666Y-54824380D01*
X102679523Y-54872000D01*
X103631904Y-55824380D02*
X103060476Y-55824380D01*
X103346190Y-55824380D02*
X103346190Y-54824380D01*
X103250952Y-54967238D01*
X103155714Y-55062476D01*
X103060476Y-55110095D01*
X99941428Y-52111142D02*
X99893809Y-52158761D01*
X99750952Y-52206380D01*
X99655714Y-52206380D01*
X99512857Y-52158761D01*
X99417619Y-52063523D01*
X99370000Y-51968285D01*
X99322380Y-51777809D01*
X99322380Y-51634952D01*
X99370000Y-51444476D01*
X99417619Y-51349238D01*
X99512857Y-51254000D01*
X99655714Y-51206380D01*
X99750952Y-51206380D01*
X99893809Y-51254000D01*
X99941428Y-51301619D01*
X100322380Y-51920666D02*
X100798571Y-51920666D01*
X100227142Y-52206380D02*
X100560476Y-51206380D01*
X100893809Y-52206380D01*
X101227142Y-52206380D02*
X101227142Y-51206380D01*
X101798571Y-52206380D01*
X101798571Y-51206380D01*
X102036666Y-52301619D02*
X102798571Y-52301619D01*
X102893809Y-51206380D02*
X103465238Y-51206380D01*
X103179523Y-52206380D02*
X103179523Y-51206380D01*
X103798571Y-51682571D02*
X104131904Y-51682571D01*
X104274761Y-52206380D02*
X103798571Y-52206380D01*
X103798571Y-51206380D01*
X104274761Y-51206380D01*
X105274761Y-52206380D02*
X104941428Y-51730190D01*
X104703333Y-52206380D02*
X104703333Y-51206380D01*
X105084285Y-51206380D01*
X105179523Y-51254000D01*
X105227142Y-51301619D01*
X105274761Y-51396857D01*
X105274761Y-51539714D01*
X105227142Y-51634952D01*
X105179523Y-51682571D01*
X105084285Y-51730190D01*
X104703333Y-51730190D01*
X105703333Y-52206380D02*
X105703333Y-51206380D01*
X106036666Y-51920666D01*
X106370000Y-51206380D01*
X106370000Y-52206380D01*
X175204380Y-81771047D02*
X174204380Y-81771047D01*
X174680571Y-81771047D02*
X174680571Y-81199619D01*
X175204380Y-81199619D02*
X174204380Y-81199619D01*
X174299619Y-80771047D02*
X174252000Y-80723428D01*
X174204380Y-80628190D01*
X174204380Y-80390095D01*
X174252000Y-80294857D01*
X174299619Y-80247238D01*
X174394857Y-80199619D01*
X174490095Y-80199619D01*
X174632952Y-80247238D01*
X175204380Y-80818666D01*
X175204380Y-80199619D01*
X175204380Y-66056761D02*
X174204380Y-66056761D01*
X174680571Y-66056761D02*
X174680571Y-65485333D01*
X175204380Y-65485333D02*
X174204380Y-65485333D01*
X175204380Y-64485333D02*
X175204380Y-65056761D01*
X175204380Y-64771047D02*
X174204380Y-64771047D01*
X174347238Y-64866285D01*
X174442476Y-64961523D01*
X174490095Y-65056761D01*
X169029714Y-74112380D02*
X169029714Y-73112380D01*
X169410666Y-73112380D01*
X169505904Y-73160000D01*
X169553523Y-73207619D01*
X169601142Y-73302857D01*
X169601142Y-73445714D01*
X169553523Y-73540952D01*
X169505904Y-73588571D01*
X169410666Y-73636190D01*
X169029714Y-73636190D01*
X170458285Y-74112380D02*
X170458285Y-73588571D01*
X170410666Y-73493333D01*
X170315428Y-73445714D01*
X170124952Y-73445714D01*
X170029714Y-73493333D01*
X170458285Y-74064761D02*
X170363047Y-74112380D01*
X170124952Y-74112380D01*
X170029714Y-74064761D01*
X169982095Y-73969523D01*
X169982095Y-73874285D01*
X170029714Y-73779047D01*
X170124952Y-73731428D01*
X170363047Y-73731428D01*
X170458285Y-73683809D01*
X170934476Y-74112380D02*
X170934476Y-73445714D01*
X170934476Y-73636190D02*
X170982095Y-73540952D01*
X171029714Y-73493333D01*
X171124952Y-73445714D01*
X171220190Y-73445714D01*
X171410666Y-73445714D02*
X171791619Y-73445714D01*
X171553523Y-73112380D02*
X171553523Y-73969523D01*
X171601142Y-74064761D01*
X171696380Y-74112380D01*
X171791619Y-74112380D01*
X172124952Y-74112380D02*
X172124952Y-73445714D01*
X172124952Y-73112380D02*
X172077333Y-73160000D01*
X172124952Y-73207619D01*
X172172571Y-73160000D01*
X172124952Y-73112380D01*
X172124952Y-73207619D01*
X173029714Y-74064761D02*
X172934476Y-74112380D01*
X172744000Y-74112380D01*
X172648761Y-74064761D01*
X172601142Y-74017142D01*
X172553523Y-73921904D01*
X172553523Y-73636190D01*
X172601142Y-73540952D01*
X172648761Y-73493333D01*
X172744000Y-73445714D01*
X172934476Y-73445714D01*
X173029714Y-73493333D01*
X173601142Y-74112380D02*
X173505904Y-74064761D01*
X173458285Y-73969523D01*
X173458285Y-73112380D01*
X174363047Y-74064761D02*
X174267809Y-74112380D01*
X174077333Y-74112380D01*
X173982095Y-74064761D01*
X173934476Y-73969523D01*
X173934476Y-73588571D01*
X173982095Y-73493333D01*
X174077333Y-73445714D01*
X174267809Y-73445714D01*
X174363047Y-73493333D01*
X174410666Y-73588571D01*
X174410666Y-73683809D01*
X173934476Y-73779047D01*
X174601142Y-74207619D02*
X175363047Y-74207619D01*
X175934476Y-73588571D02*
X176077333Y-73636190D01*
X176124952Y-73683809D01*
X176172571Y-73779047D01*
X176172571Y-73921904D01*
X176124952Y-74017142D01*
X176077333Y-74064761D01*
X175982095Y-74112380D01*
X175601142Y-74112380D01*
X175601142Y-73112380D01*
X175934476Y-73112380D01*
X176029714Y-73160000D01*
X176077333Y-73207619D01*
X176124952Y-73302857D01*
X176124952Y-73398095D01*
X176077333Y-73493333D01*
X176029714Y-73540952D01*
X175934476Y-73588571D01*
X175601142Y-73588571D01*
X176744000Y-74112380D02*
X176648761Y-74064761D01*
X176601142Y-74017142D01*
X176553523Y-73921904D01*
X176553523Y-73636190D01*
X176601142Y-73540952D01*
X176648761Y-73493333D01*
X176744000Y-73445714D01*
X176886857Y-73445714D01*
X176982095Y-73493333D01*
X177029714Y-73540952D01*
X177077333Y-73636190D01*
X177077333Y-73921904D01*
X177029714Y-74017142D01*
X176982095Y-74064761D01*
X176886857Y-74112380D01*
X176744000Y-74112380D01*
X177505904Y-74112380D02*
X177505904Y-73445714D01*
X177505904Y-73636190D02*
X177553523Y-73540952D01*
X177601142Y-73493333D01*
X177696380Y-73445714D01*
X177791619Y-73445714D01*
X178267809Y-74112380D02*
X178172571Y-74064761D01*
X178124952Y-74017142D01*
X178077333Y-73921904D01*
X178077333Y-73636190D01*
X178124952Y-73540952D01*
X178172571Y-73493333D01*
X178267809Y-73445714D01*
X178410666Y-73445714D01*
X178505904Y-73493333D01*
X178553523Y-73540952D01*
X178601142Y-73636190D01*
X178601142Y-73921904D01*
X178553523Y-74017142D01*
X178505904Y-74064761D01*
X178410666Y-74112380D01*
X178267809Y-74112380D01*
X179029714Y-73445714D02*
X179029714Y-74112380D01*
X179029714Y-73540952D02*
X179077333Y-73493333D01*
X179172571Y-73445714D01*
X179315428Y-73445714D01*
X179410666Y-73493333D01*
X179458285Y-73588571D01*
X179458285Y-74112380D01*
X136683809Y-73636190D02*
X136683809Y-74112380D01*
X136350476Y-73112380D02*
X136683809Y-73636190D01*
X137017142Y-73112380D01*
X137874285Y-74112380D02*
X137302857Y-74112380D01*
X137588571Y-74112380D02*
X137588571Y-73112380D01*
X137493333Y-73255238D01*
X137398095Y-73350476D01*
X137302857Y-73398095D01*
X135564761Y-77090952D02*
X135469523Y-77043333D01*
X135421904Y-76995714D01*
X135374285Y-76900476D01*
X135374285Y-76852857D01*
X135421904Y-76757619D01*
X135469523Y-76710000D01*
X135564761Y-76662380D01*
X135755238Y-76662380D01*
X135850476Y-76710000D01*
X135898095Y-76757619D01*
X135945714Y-76852857D01*
X135945714Y-76900476D01*
X135898095Y-76995714D01*
X135850476Y-77043333D01*
X135755238Y-77090952D01*
X135564761Y-77090952D01*
X135469523Y-77138571D01*
X135421904Y-77186190D01*
X135374285Y-77281428D01*
X135374285Y-77471904D01*
X135421904Y-77567142D01*
X135469523Y-77614761D01*
X135564761Y-77662380D01*
X135755238Y-77662380D01*
X135850476Y-77614761D01*
X135898095Y-77567142D01*
X135945714Y-77471904D01*
X135945714Y-77281428D01*
X135898095Y-77186190D01*
X135850476Y-77138571D01*
X135755238Y-77090952D01*
X136374285Y-77662380D02*
X136374285Y-76662380D01*
X136707619Y-77376666D01*
X137040952Y-76662380D01*
X137040952Y-77662380D01*
X137517142Y-77662380D02*
X137517142Y-76662380D01*
X137517142Y-77138571D02*
X138088571Y-77138571D01*
X138088571Y-77662380D02*
X138088571Y-76662380D01*
X138469523Y-76995714D02*
X138993333Y-76995714D01*
X138469523Y-77662380D01*
X138993333Y-77662380D01*
X169479642Y-30837142D02*
X169432023Y-30884761D01*
X169289166Y-30932380D01*
X169193928Y-30932380D01*
X169051071Y-30884761D01*
X168955833Y-30789523D01*
X168908214Y-30694285D01*
X168860595Y-30503809D01*
X168860595Y-30360952D01*
X168908214Y-30170476D01*
X168955833Y-30075238D01*
X169051071Y-29980000D01*
X169193928Y-29932380D01*
X169289166Y-29932380D01*
X169432023Y-29980000D01*
X169479642Y-30027619D01*
X169908214Y-30932380D02*
X169908214Y-29932380D01*
X170479642Y-30932380D01*
X170479642Y-29932380D01*
X171479642Y-30932380D02*
X170908214Y-30932380D01*
X171193928Y-30932380D02*
X171193928Y-29932380D01*
X171098690Y-30075238D01*
X171003452Y-30170476D01*
X170908214Y-30218095D01*
X172336785Y-30265714D02*
X172336785Y-30932380D01*
X172098690Y-29884761D02*
X171860595Y-30599047D01*
X172479642Y-30599047D01*
X165946666Y-35372523D02*
X166672380Y-35372523D01*
X166309523Y-36642523D02*
X166309523Y-35372523D01*
X167095714Y-36642523D02*
X167095714Y-35372523D01*
X167095714Y-35977285D02*
X167821428Y-35977285D01*
X167821428Y-36642523D02*
X167821428Y-35372523D01*
X168426190Y-35977285D02*
X168849523Y-35977285D01*
X169030952Y-36642523D02*
X168426190Y-36642523D01*
X168426190Y-35372523D01*
X169030952Y-35372523D01*
X170300952Y-36642523D02*
X169877619Y-36037761D01*
X169575238Y-36642523D02*
X169575238Y-35372523D01*
X170059047Y-35372523D01*
X170180000Y-35433000D01*
X170240476Y-35493476D01*
X170300952Y-35614428D01*
X170300952Y-35795857D01*
X170240476Y-35916809D01*
X170180000Y-35977285D01*
X170059047Y-36037761D01*
X169575238Y-36037761D01*
X170845238Y-36642523D02*
X170845238Y-35372523D01*
X171268571Y-36279666D01*
X171691904Y-35372523D01*
X171691904Y-36642523D01*
X172538571Y-35372523D02*
X172780476Y-35372523D01*
X172901428Y-35433000D01*
X173022380Y-35553952D01*
X173082857Y-35795857D01*
X173082857Y-36219190D01*
X173022380Y-36461095D01*
X172901428Y-36582047D01*
X172780476Y-36642523D01*
X172538571Y-36642523D01*
X172417619Y-36582047D01*
X172296666Y-36461095D01*
X172236190Y-36219190D01*
X172236190Y-35795857D01*
X172296666Y-35553952D01*
X172417619Y-35433000D01*
X172538571Y-35372523D01*
X173566666Y-35493476D02*
X173627142Y-35433000D01*
X173748095Y-35372523D01*
X174050476Y-35372523D01*
X174171428Y-35433000D01*
X174231904Y-35493476D01*
X174292380Y-35614428D01*
X174292380Y-35735380D01*
X174231904Y-35916809D01*
X173506190Y-36642523D01*
X174292380Y-36642523D01*
X183195642Y-30837142D02*
X183148023Y-30884761D01*
X183005166Y-30932380D01*
X182909928Y-30932380D01*
X182767071Y-30884761D01*
X182671833Y-30789523D01*
X182624214Y-30694285D01*
X182576595Y-30503809D01*
X182576595Y-30360952D01*
X182624214Y-30170476D01*
X182671833Y-30075238D01*
X182767071Y-29980000D01*
X182909928Y-29932380D01*
X183005166Y-29932380D01*
X183148023Y-29980000D01*
X183195642Y-30027619D01*
X183624214Y-30932380D02*
X183624214Y-29932380D01*
X184195642Y-30932380D01*
X184195642Y-29932380D01*
X185195642Y-30932380D02*
X184624214Y-30932380D01*
X184909928Y-30932380D02*
X184909928Y-29932380D01*
X184814690Y-30075238D01*
X184719452Y-30170476D01*
X184624214Y-30218095D01*
X185528976Y-29932380D02*
X186148023Y-29932380D01*
X185814690Y-30313333D01*
X185957547Y-30313333D01*
X186052785Y-30360952D01*
X186100404Y-30408571D01*
X186148023Y-30503809D01*
X186148023Y-30741904D01*
X186100404Y-30837142D01*
X186052785Y-30884761D01*
X185957547Y-30932380D01*
X185671833Y-30932380D01*
X185576595Y-30884761D01*
X185528976Y-30837142D01*
X179916666Y-35372523D02*
X180642380Y-35372523D01*
X180279523Y-36642523D02*
X180279523Y-35372523D01*
X181065714Y-36642523D02*
X181065714Y-35372523D01*
X181065714Y-35977285D02*
X181791428Y-35977285D01*
X181791428Y-36642523D02*
X181791428Y-35372523D01*
X182396190Y-35977285D02*
X182819523Y-35977285D01*
X183000952Y-36642523D02*
X182396190Y-36642523D01*
X182396190Y-35372523D01*
X183000952Y-35372523D01*
X184270952Y-36642523D02*
X183847619Y-36037761D01*
X183545238Y-36642523D02*
X183545238Y-35372523D01*
X184029047Y-35372523D01*
X184150000Y-35433000D01*
X184210476Y-35493476D01*
X184270952Y-35614428D01*
X184270952Y-35795857D01*
X184210476Y-35916809D01*
X184150000Y-35977285D01*
X184029047Y-36037761D01*
X183545238Y-36037761D01*
X184815238Y-36642523D02*
X184815238Y-35372523D01*
X185238571Y-36279666D01*
X185661904Y-35372523D01*
X185661904Y-36642523D01*
X186508571Y-35372523D02*
X186750476Y-35372523D01*
X186871428Y-35433000D01*
X186992380Y-35553952D01*
X187052857Y-35795857D01*
X187052857Y-36219190D01*
X186992380Y-36461095D01*
X186871428Y-36582047D01*
X186750476Y-36642523D01*
X186508571Y-36642523D01*
X186387619Y-36582047D01*
X186266666Y-36461095D01*
X186206190Y-36219190D01*
X186206190Y-35795857D01*
X186266666Y-35553952D01*
X186387619Y-35433000D01*
X186508571Y-35372523D01*
X188262380Y-36642523D02*
X187536666Y-36642523D01*
X187899523Y-36642523D02*
X187899523Y-35372523D01*
X187778571Y-35553952D01*
X187657619Y-35674904D01*
X187536666Y-35735380D01*
D18*
X143806333Y-28393571D02*
X143745857Y-28454047D01*
X143564428Y-28514523D01*
X143443476Y-28514523D01*
X143262047Y-28454047D01*
X143141095Y-28333095D01*
X143080619Y-28212142D01*
X143020142Y-27970238D01*
X143020142Y-27788809D01*
X143080619Y-27546904D01*
X143141095Y-27425952D01*
X143262047Y-27305000D01*
X143443476Y-27244523D01*
X143564428Y-27244523D01*
X143745857Y-27305000D01*
X143806333Y-27365476D01*
X144350619Y-28514523D02*
X144350619Y-27244523D01*
X145076333Y-28514523D01*
X145076333Y-27244523D01*
X146346333Y-28514523D02*
X145620619Y-28514523D01*
X145983476Y-28514523D02*
X145983476Y-27244523D01*
X145862523Y-27425952D01*
X145741571Y-27546904D01*
X145620619Y-27607380D01*
X147495380Y-27244523D02*
X146890619Y-27244523D01*
X146830142Y-27849285D01*
X146890619Y-27788809D01*
X147011571Y-27728333D01*
X147313952Y-27728333D01*
X147434904Y-27788809D01*
X147495380Y-27849285D01*
X147555857Y-27970238D01*
X147555857Y-28272619D01*
X147495380Y-28393571D01*
X147434904Y-28454047D01*
X147313952Y-28514523D01*
X147011571Y-28514523D01*
X146890619Y-28454047D01*
X146830142Y-28393571D01*
X143770047Y-37658523D02*
X143346714Y-37053761D01*
X143044333Y-37658523D02*
X143044333Y-36388523D01*
X143528142Y-36388523D01*
X143649095Y-36449000D01*
X143709571Y-36509476D01*
X143770047Y-36630428D01*
X143770047Y-36811857D01*
X143709571Y-36932809D01*
X143649095Y-36993285D01*
X143528142Y-37053761D01*
X143044333Y-37053761D01*
X144253857Y-37598047D02*
X144435285Y-37658523D01*
X144737666Y-37658523D01*
X144858619Y-37598047D01*
X144919095Y-37537571D01*
X144979571Y-37416619D01*
X144979571Y-37295666D01*
X144919095Y-37174714D01*
X144858619Y-37114238D01*
X144737666Y-37053761D01*
X144495761Y-36993285D01*
X144374809Y-36932809D01*
X144314333Y-36872333D01*
X144253857Y-36751380D01*
X144253857Y-36630428D01*
X144314333Y-36509476D01*
X144374809Y-36449000D01*
X144495761Y-36388523D01*
X144798142Y-36388523D01*
X144979571Y-36449000D01*
X145463380Y-36509476D02*
X145523857Y-36449000D01*
X145644809Y-36388523D01*
X145947190Y-36388523D01*
X146068142Y-36449000D01*
X146128619Y-36509476D01*
X146189095Y-36630428D01*
X146189095Y-36751380D01*
X146128619Y-36932809D01*
X145402904Y-37658523D01*
X146189095Y-37658523D01*
X146612428Y-36388523D02*
X147398619Y-36388523D01*
X146975285Y-36872333D01*
X147156714Y-36872333D01*
X147277666Y-36932809D01*
X147338142Y-36993285D01*
X147398619Y-37114238D01*
X147398619Y-37416619D01*
X147338142Y-37537571D01*
X147277666Y-37598047D01*
X147156714Y-37658523D01*
X146793857Y-37658523D01*
X146672904Y-37598047D01*
X146612428Y-37537571D01*
X147882428Y-36509476D02*
X147942904Y-36449000D01*
X148063857Y-36388523D01*
X148366238Y-36388523D01*
X148487190Y-36449000D01*
X148547666Y-36509476D01*
X148608142Y-36630428D01*
X148608142Y-36751380D01*
X148547666Y-36932809D01*
X147821952Y-37658523D01*
X148608142Y-37658523D01*
D10*
X161559523Y-144121142D02*
X161511904Y-144168761D01*
X161369047Y-144216380D01*
X161273809Y-144216380D01*
X161130952Y-144168761D01*
X161035714Y-144073523D01*
X160988095Y-143978285D01*
X160940476Y-143787809D01*
X160940476Y-143644952D01*
X160988095Y-143454476D01*
X161035714Y-143359238D01*
X161130952Y-143264000D01*
X161273809Y-143216380D01*
X161369047Y-143216380D01*
X161511904Y-143264000D01*
X161559523Y-143311619D01*
X161988095Y-144216380D02*
X161988095Y-143216380D01*
X162559523Y-144216380D01*
X162559523Y-143216380D01*
X163511904Y-143216380D02*
X163035714Y-143216380D01*
X162988095Y-143692571D01*
X163035714Y-143644952D01*
X163130952Y-143597333D01*
X163369047Y-143597333D01*
X163464285Y-143644952D01*
X163511904Y-143692571D01*
X163559523Y-143787809D01*
X163559523Y-144025904D01*
X163511904Y-144121142D01*
X163464285Y-144168761D01*
X163369047Y-144216380D01*
X163130952Y-144216380D01*
X163035714Y-144168761D01*
X162988095Y-144121142D01*
X159821428Y-125252380D02*
X159250000Y-125252380D01*
X159535714Y-125252380D02*
X159535714Y-124252380D01*
X159440476Y-124395238D01*
X159345238Y-124490476D01*
X159250000Y-124538095D01*
X160202380Y-124347619D02*
X160250000Y-124300000D01*
X160345238Y-124252380D01*
X160583333Y-124252380D01*
X160678571Y-124300000D01*
X160726190Y-124347619D01*
X160773809Y-124442857D01*
X160773809Y-124538095D01*
X160726190Y-124680952D01*
X160154761Y-125252380D01*
X160773809Y-125252380D01*
X161059523Y-124252380D02*
X161392857Y-125252380D01*
X161726190Y-124252380D01*
X161821428Y-125347619D02*
X162583333Y-125347619D01*
X163011904Y-124252380D02*
X163202380Y-124252380D01*
X163297619Y-124300000D01*
X163392857Y-124395238D01*
X163440476Y-124585714D01*
X163440476Y-124919047D01*
X163392857Y-125109523D01*
X163297619Y-125204761D01*
X163202380Y-125252380D01*
X163011904Y-125252380D01*
X162916666Y-125204761D01*
X162821428Y-125109523D01*
X162773809Y-124919047D01*
X162773809Y-124585714D01*
X162821428Y-124395238D01*
X162916666Y-124300000D01*
X163011904Y-124252380D01*
X163869047Y-124252380D02*
X163869047Y-125061904D01*
X163916666Y-125157142D01*
X163964285Y-125204761D01*
X164059523Y-125252380D01*
X164250000Y-125252380D01*
X164345238Y-125204761D01*
X164392857Y-125157142D01*
X164440476Y-125061904D01*
X164440476Y-124252380D01*
X164773809Y-124252380D02*
X165345238Y-124252380D01*
X165059523Y-125252380D02*
X165059523Y-124252380D01*
X142565523Y-144121142D02*
X142517904Y-144168761D01*
X142375047Y-144216380D01*
X142279809Y-144216380D01*
X142136952Y-144168761D01*
X142041714Y-144073523D01*
X141994095Y-143978285D01*
X141946476Y-143787809D01*
X141946476Y-143644952D01*
X141994095Y-143454476D01*
X142041714Y-143359238D01*
X142136952Y-143264000D01*
X142279809Y-143216380D01*
X142375047Y-143216380D01*
X142517904Y-143264000D01*
X142565523Y-143311619D01*
X142994095Y-144216380D02*
X142994095Y-143216380D01*
X143565523Y-144216380D01*
X143565523Y-143216380D01*
X144470285Y-143549714D02*
X144470285Y-144216380D01*
X144232190Y-143168761D02*
X143994095Y-143883047D01*
X144613142Y-143883047D01*
X140771428Y-125252380D02*
X140200000Y-125252380D01*
X140485714Y-125252380D02*
X140485714Y-124252380D01*
X140390476Y-124395238D01*
X140295238Y-124490476D01*
X140200000Y-124538095D01*
X141152380Y-124347619D02*
X141200000Y-124300000D01*
X141295238Y-124252380D01*
X141533333Y-124252380D01*
X141628571Y-124300000D01*
X141676190Y-124347619D01*
X141723809Y-124442857D01*
X141723809Y-124538095D01*
X141676190Y-124680952D01*
X141104761Y-125252380D01*
X141723809Y-125252380D01*
X142009523Y-124252380D02*
X142342857Y-125252380D01*
X142676190Y-124252380D01*
X142771428Y-125347619D02*
X143533333Y-125347619D01*
X143961904Y-124252380D02*
X144152380Y-124252380D01*
X144247619Y-124300000D01*
X144342857Y-124395238D01*
X144390476Y-124585714D01*
X144390476Y-124919047D01*
X144342857Y-125109523D01*
X144247619Y-125204761D01*
X144152380Y-125252380D01*
X143961904Y-125252380D01*
X143866666Y-125204761D01*
X143771428Y-125109523D01*
X143723809Y-124919047D01*
X143723809Y-124585714D01*
X143771428Y-124395238D01*
X143866666Y-124300000D01*
X143961904Y-124252380D01*
X144819047Y-124252380D02*
X144819047Y-125061904D01*
X144866666Y-125157142D01*
X144914285Y-125204761D01*
X145009523Y-125252380D01*
X145200000Y-125252380D01*
X145295238Y-125204761D01*
X145342857Y-125157142D01*
X145390476Y-125061904D01*
X145390476Y-124252380D01*
X145723809Y-124252380D02*
X146295238Y-124252380D01*
X146009523Y-125252380D02*
X146009523Y-124252380D01*
X123459523Y-144629142D02*
X123411904Y-144676761D01*
X123269047Y-144724380D01*
X123173809Y-144724380D01*
X123030952Y-144676761D01*
X122935714Y-144581523D01*
X122888095Y-144486285D01*
X122840476Y-144295809D01*
X122840476Y-144152952D01*
X122888095Y-143962476D01*
X122935714Y-143867238D01*
X123030952Y-143772000D01*
X123173809Y-143724380D01*
X123269047Y-143724380D01*
X123411904Y-143772000D01*
X123459523Y-143819619D01*
X123888095Y-144724380D02*
X123888095Y-143724380D01*
X124459523Y-144724380D01*
X124459523Y-143724380D01*
X124840476Y-143724380D02*
X125459523Y-143724380D01*
X125126190Y-144105333D01*
X125269047Y-144105333D01*
X125364285Y-144152952D01*
X125411904Y-144200571D01*
X125459523Y-144295809D01*
X125459523Y-144533904D01*
X125411904Y-144629142D01*
X125364285Y-144676761D01*
X125269047Y-144724380D01*
X124983333Y-144724380D01*
X124888095Y-144676761D01*
X124840476Y-144629142D01*
X121721428Y-125252380D02*
X121150000Y-125252380D01*
X121435714Y-125252380D02*
X121435714Y-124252380D01*
X121340476Y-124395238D01*
X121245238Y-124490476D01*
X121150000Y-124538095D01*
X122102380Y-124347619D02*
X122150000Y-124300000D01*
X122245238Y-124252380D01*
X122483333Y-124252380D01*
X122578571Y-124300000D01*
X122626190Y-124347619D01*
X122673809Y-124442857D01*
X122673809Y-124538095D01*
X122626190Y-124680952D01*
X122054761Y-125252380D01*
X122673809Y-125252380D01*
X122959523Y-124252380D02*
X123292857Y-125252380D01*
X123626190Y-124252380D01*
X123721428Y-125347619D02*
X124483333Y-125347619D01*
X124911904Y-124252380D02*
X125102380Y-124252380D01*
X125197619Y-124300000D01*
X125292857Y-124395238D01*
X125340476Y-124585714D01*
X125340476Y-124919047D01*
X125292857Y-125109523D01*
X125197619Y-125204761D01*
X125102380Y-125252380D01*
X124911904Y-125252380D01*
X124816666Y-125204761D01*
X124721428Y-125109523D01*
X124673809Y-124919047D01*
X124673809Y-124585714D01*
X124721428Y-124395238D01*
X124816666Y-124300000D01*
X124911904Y-124252380D01*
X125769047Y-124252380D02*
X125769047Y-125061904D01*
X125816666Y-125157142D01*
X125864285Y-125204761D01*
X125959523Y-125252380D01*
X126150000Y-125252380D01*
X126245238Y-125204761D01*
X126292857Y-125157142D01*
X126340476Y-125061904D01*
X126340476Y-124252380D01*
X126673809Y-124252380D02*
X127245238Y-124252380D01*
X126959523Y-125252380D02*
X126959523Y-124252380D01*
X104409523Y-145137142D02*
X104361904Y-145184761D01*
X104219047Y-145232380D01*
X104123809Y-145232380D01*
X103980952Y-145184761D01*
X103885714Y-145089523D01*
X103838095Y-144994285D01*
X103790476Y-144803809D01*
X103790476Y-144660952D01*
X103838095Y-144470476D01*
X103885714Y-144375238D01*
X103980952Y-144280000D01*
X104123809Y-144232380D01*
X104219047Y-144232380D01*
X104361904Y-144280000D01*
X104409523Y-144327619D01*
X104838095Y-145232380D02*
X104838095Y-144232380D01*
X105409523Y-145232380D01*
X105409523Y-144232380D01*
X105838095Y-144327619D02*
X105885714Y-144280000D01*
X105980952Y-144232380D01*
X106219047Y-144232380D01*
X106314285Y-144280000D01*
X106361904Y-144327619D01*
X106409523Y-144422857D01*
X106409523Y-144518095D01*
X106361904Y-144660952D01*
X105790476Y-145232380D01*
X106409523Y-145232380D01*
X102671428Y-125252380D02*
X102100000Y-125252380D01*
X102385714Y-125252380D02*
X102385714Y-124252380D01*
X102290476Y-124395238D01*
X102195238Y-124490476D01*
X102100000Y-124538095D01*
X103052380Y-124347619D02*
X103100000Y-124300000D01*
X103195238Y-124252380D01*
X103433333Y-124252380D01*
X103528571Y-124300000D01*
X103576190Y-124347619D01*
X103623809Y-124442857D01*
X103623809Y-124538095D01*
X103576190Y-124680952D01*
X103004761Y-125252380D01*
X103623809Y-125252380D01*
X103909523Y-124252380D02*
X104242857Y-125252380D01*
X104576190Y-124252380D01*
X104671428Y-125347619D02*
X105433333Y-125347619D01*
X105861904Y-124252380D02*
X106052380Y-124252380D01*
X106147619Y-124300000D01*
X106242857Y-124395238D01*
X106290476Y-124585714D01*
X106290476Y-124919047D01*
X106242857Y-125109523D01*
X106147619Y-125204761D01*
X106052380Y-125252380D01*
X105861904Y-125252380D01*
X105766666Y-125204761D01*
X105671428Y-125109523D01*
X105623809Y-124919047D01*
X105623809Y-124585714D01*
X105671428Y-124395238D01*
X105766666Y-124300000D01*
X105861904Y-124252380D01*
X106719047Y-124252380D02*
X106719047Y-125061904D01*
X106766666Y-125157142D01*
X106814285Y-125204761D01*
X106909523Y-125252380D01*
X107100000Y-125252380D01*
X107195238Y-125204761D01*
X107242857Y-125157142D01*
X107290476Y-125061904D01*
X107290476Y-124252380D01*
X107623809Y-124252380D02*
X108195238Y-124252380D01*
X107909523Y-125252380D02*
X107909523Y-124252380D01*
X147772380Y-44918190D02*
X146772380Y-44918190D01*
X147677142Y-43870571D02*
X147724761Y-43918190D01*
X147772380Y-44061047D01*
X147772380Y-44156285D01*
X147724761Y-44299142D01*
X147629523Y-44394380D01*
X147534285Y-44442000D01*
X147343809Y-44489619D01*
X147200952Y-44489619D01*
X147010476Y-44442000D01*
X146915238Y-44394380D01*
X146820000Y-44299142D01*
X146772380Y-44156285D01*
X146772380Y-44061047D01*
X146820000Y-43918190D01*
X146867619Y-43870571D01*
X147105714Y-43013428D02*
X147772380Y-43013428D01*
X146724761Y-43251523D02*
X147439047Y-43489619D01*
X147439047Y-42870571D01*
X151476380Y-49156285D02*
X150476380Y-49156285D01*
X151190666Y-48822952D01*
X150476380Y-48489619D01*
X151476380Y-48489619D01*
X151190666Y-48061047D02*
X151190666Y-47584857D01*
X151476380Y-48156285D02*
X150476380Y-47822952D01*
X151476380Y-47489619D01*
X150476380Y-47251523D02*
X151476380Y-46584857D01*
X150476380Y-46584857D02*
X151476380Y-47251523D01*
X150476380Y-46299142D02*
X150476380Y-45680095D01*
X150857333Y-46013428D01*
X150857333Y-45870571D01*
X150904952Y-45775333D01*
X150952571Y-45727714D01*
X151047809Y-45680095D01*
X151285904Y-45680095D01*
X151381142Y-45727714D01*
X151428761Y-45775333D01*
X151476380Y-45870571D01*
X151476380Y-46156285D01*
X151428761Y-46251523D01*
X151381142Y-46299142D01*
X150571619Y-45299142D02*
X150524000Y-45251523D01*
X150476380Y-45156285D01*
X150476380Y-44918190D01*
X150524000Y-44822952D01*
X150571619Y-44775333D01*
X150666857Y-44727714D01*
X150762095Y-44727714D01*
X150904952Y-44775333D01*
X151476380Y-45346761D01*
X151476380Y-44727714D01*
X150476380Y-44394380D02*
X150476380Y-43775333D01*
X150857333Y-44108666D01*
X150857333Y-43965809D01*
X150904952Y-43870571D01*
X150952571Y-43822952D01*
X151047809Y-43775333D01*
X151285904Y-43775333D01*
X151381142Y-43822952D01*
X151428761Y-43870571D01*
X151476380Y-43965809D01*
X151476380Y-44251523D01*
X151428761Y-44346761D01*
X151381142Y-44394380D01*
X150571619Y-43394380D02*
X150524000Y-43346761D01*
X150476380Y-43251523D01*
X150476380Y-43013428D01*
X150524000Y-42918190D01*
X150571619Y-42870571D01*
X150666857Y-42822952D01*
X150762095Y-42822952D01*
X150904952Y-42870571D01*
X151476380Y-43442000D01*
X151476380Y-42822952D01*
X151381142Y-41822952D02*
X151428761Y-41870571D01*
X151476380Y-42013428D01*
X151476380Y-42108666D01*
X151428761Y-42251523D01*
X151333523Y-42346761D01*
X151238285Y-42394380D01*
X151047809Y-42442000D01*
X150904952Y-42442000D01*
X150714476Y-42394380D01*
X150619238Y-42346761D01*
X150524000Y-42251523D01*
X150476380Y-42108666D01*
X150476380Y-42013428D01*
X150524000Y-41870571D01*
X150571619Y-41822952D01*
X151476380Y-41394380D02*
X150476380Y-41394380D01*
X150476380Y-41013428D01*
X150524000Y-40918190D01*
X150571619Y-40870571D01*
X150666857Y-40822952D01*
X150809714Y-40822952D01*
X150904952Y-40870571D01*
X150952571Y-40918190D01*
X151000190Y-41013428D01*
X151000190Y-41394380D01*
X150476380Y-40489619D02*
X151476380Y-40251523D01*
X150762095Y-40061047D01*
X151476380Y-39870571D01*
X150476380Y-39632476D01*
X151476380Y-38680095D02*
X151000190Y-39013428D01*
X151476380Y-39251523D02*
X150476380Y-39251523D01*
X150476380Y-38870571D01*
X150524000Y-38775333D01*
X150571619Y-38727714D01*
X150666857Y-38680095D01*
X150809714Y-38680095D01*
X150904952Y-38727714D01*
X150952571Y-38775333D01*
X151000190Y-38870571D01*
X151000190Y-39251523D01*
X175810380Y-43140190D02*
X174810380Y-43140190D01*
X175715142Y-42092571D02*
X175762761Y-42140190D01*
X175810380Y-42283047D01*
X175810380Y-42378285D01*
X175762761Y-42521142D01*
X175667523Y-42616380D01*
X175572285Y-42664000D01*
X175381809Y-42711619D01*
X175238952Y-42711619D01*
X175048476Y-42664000D01*
X174953238Y-42616380D01*
X174858000Y-42521142D01*
X174810380Y-42378285D01*
X174810380Y-42283047D01*
X174858000Y-42140190D01*
X174905619Y-42092571D01*
X174905619Y-41711619D02*
X174858000Y-41664000D01*
X174810380Y-41568761D01*
X174810380Y-41330666D01*
X174858000Y-41235428D01*
X174905619Y-41187809D01*
X175000857Y-41140190D01*
X175096095Y-41140190D01*
X175238952Y-41187809D01*
X175810380Y-41759238D01*
X175810380Y-41140190D01*
X169010380Y-46283047D02*
X168010380Y-46283047D01*
X168724666Y-45949714D01*
X168010380Y-45616380D01*
X169010380Y-45616380D01*
X168724666Y-45187809D02*
X168724666Y-44711619D01*
X169010380Y-45283047D02*
X168010380Y-44949714D01*
X169010380Y-44616380D01*
X168010380Y-44378285D02*
X169010380Y-43711619D01*
X168010380Y-43711619D02*
X169010380Y-44378285D01*
X168010380Y-43425904D02*
X168010380Y-42806857D01*
X168391333Y-43140190D01*
X168391333Y-42997333D01*
X168438952Y-42902095D01*
X168486571Y-42854476D01*
X168581809Y-42806857D01*
X168819904Y-42806857D01*
X168915142Y-42854476D01*
X168962761Y-42902095D01*
X169010380Y-42997333D01*
X169010380Y-43283047D01*
X168962761Y-43378285D01*
X168915142Y-43425904D01*
X169010380Y-41854476D02*
X169010380Y-42425904D01*
X169010380Y-42140190D02*
X168010380Y-42140190D01*
X168153238Y-42235428D01*
X168248476Y-42330666D01*
X168296095Y-42425904D01*
X168438952Y-41283047D02*
X168391333Y-41378285D01*
X168343714Y-41425904D01*
X168248476Y-41473523D01*
X168200857Y-41473523D01*
X168105619Y-41425904D01*
X168058000Y-41378285D01*
X168010380Y-41283047D01*
X168010380Y-41092571D01*
X168058000Y-40997333D01*
X168105619Y-40949714D01*
X168200857Y-40902095D01*
X168248476Y-40902095D01*
X168343714Y-40949714D01*
X168391333Y-40997333D01*
X168438952Y-41092571D01*
X168438952Y-41283047D01*
X168486571Y-41378285D01*
X168534190Y-41425904D01*
X168629428Y-41473523D01*
X168819904Y-41473523D01*
X168915142Y-41425904D01*
X168962761Y-41378285D01*
X169010380Y-41283047D01*
X169010380Y-41092571D01*
X168962761Y-40997333D01*
X168915142Y-40949714D01*
X168819904Y-40902095D01*
X168629428Y-40902095D01*
X168534190Y-40949714D01*
X168486571Y-40997333D01*
X168438952Y-41092571D01*
X168010380Y-39997333D02*
X168010380Y-40473523D01*
X168486571Y-40521142D01*
X168438952Y-40473523D01*
X168391333Y-40378285D01*
X168391333Y-40140190D01*
X168438952Y-40044952D01*
X168486571Y-39997333D01*
X168581809Y-39949714D01*
X168819904Y-39949714D01*
X168915142Y-39997333D01*
X168962761Y-40044952D01*
X169010380Y-40140190D01*
X169010380Y-40378285D01*
X168962761Y-40473523D01*
X168915142Y-40521142D01*
X168010380Y-39044952D02*
X168010380Y-39521142D01*
X168486571Y-39568761D01*
X168438952Y-39521142D01*
X168391333Y-39425904D01*
X168391333Y-39187809D01*
X168438952Y-39092571D01*
X168486571Y-39044952D01*
X168581809Y-38997333D01*
X168819904Y-38997333D01*
X168915142Y-39044952D01*
X168962761Y-39092571D01*
X169010380Y-39187809D01*
X169010380Y-39425904D01*
X168962761Y-39521142D01*
X168915142Y-39568761D01*
X169010380Y-38568761D02*
X168010380Y-38568761D01*
X169010380Y-37997333D02*
X168438952Y-38425904D01*
X168010380Y-37997333D02*
X168581809Y-38568761D01*
X188510380Y-43140190D02*
X187510380Y-43140190D01*
X188415142Y-42092571D02*
X188462761Y-42140190D01*
X188510380Y-42283047D01*
X188510380Y-42378285D01*
X188462761Y-42521142D01*
X188367523Y-42616380D01*
X188272285Y-42664000D01*
X188081809Y-42711619D01*
X187938952Y-42711619D01*
X187748476Y-42664000D01*
X187653238Y-42616380D01*
X187558000Y-42521142D01*
X187510380Y-42378285D01*
X187510380Y-42283047D01*
X187558000Y-42140190D01*
X187605619Y-42092571D01*
X188510380Y-41140190D02*
X188510380Y-41711619D01*
X188510380Y-41425904D02*
X187510380Y-41425904D01*
X187653238Y-41521142D01*
X187748476Y-41616380D01*
X187796095Y-41711619D01*
X181710380Y-46283047D02*
X180710380Y-46283047D01*
X181424666Y-45949714D01*
X180710380Y-45616380D01*
X181710380Y-45616380D01*
X181424666Y-45187809D02*
X181424666Y-44711619D01*
X181710380Y-45283047D02*
X180710380Y-44949714D01*
X181710380Y-44616380D01*
X180710380Y-44378285D02*
X181710380Y-43711619D01*
X180710380Y-43711619D02*
X181710380Y-44378285D01*
X180710380Y-43425904D02*
X180710380Y-42806857D01*
X181091333Y-43140190D01*
X181091333Y-42997333D01*
X181138952Y-42902095D01*
X181186571Y-42854476D01*
X181281809Y-42806857D01*
X181519904Y-42806857D01*
X181615142Y-42854476D01*
X181662761Y-42902095D01*
X181710380Y-42997333D01*
X181710380Y-43283047D01*
X181662761Y-43378285D01*
X181615142Y-43425904D01*
X181710380Y-41854476D02*
X181710380Y-42425904D01*
X181710380Y-42140190D02*
X180710380Y-42140190D01*
X180853238Y-42235428D01*
X180948476Y-42330666D01*
X180996095Y-42425904D01*
X181138952Y-41283047D02*
X181091333Y-41378285D01*
X181043714Y-41425904D01*
X180948476Y-41473523D01*
X180900857Y-41473523D01*
X180805619Y-41425904D01*
X180758000Y-41378285D01*
X180710380Y-41283047D01*
X180710380Y-41092571D01*
X180758000Y-40997333D01*
X180805619Y-40949714D01*
X180900857Y-40902095D01*
X180948476Y-40902095D01*
X181043714Y-40949714D01*
X181091333Y-40997333D01*
X181138952Y-41092571D01*
X181138952Y-41283047D01*
X181186571Y-41378285D01*
X181234190Y-41425904D01*
X181329428Y-41473523D01*
X181519904Y-41473523D01*
X181615142Y-41425904D01*
X181662761Y-41378285D01*
X181710380Y-41283047D01*
X181710380Y-41092571D01*
X181662761Y-40997333D01*
X181615142Y-40949714D01*
X181519904Y-40902095D01*
X181329428Y-40902095D01*
X181234190Y-40949714D01*
X181186571Y-40997333D01*
X181138952Y-41092571D01*
X180710380Y-39997333D02*
X180710380Y-40473523D01*
X181186571Y-40521142D01*
X181138952Y-40473523D01*
X181091333Y-40378285D01*
X181091333Y-40140190D01*
X181138952Y-40044952D01*
X181186571Y-39997333D01*
X181281809Y-39949714D01*
X181519904Y-39949714D01*
X181615142Y-39997333D01*
X181662761Y-40044952D01*
X181710380Y-40140190D01*
X181710380Y-40378285D01*
X181662761Y-40473523D01*
X181615142Y-40521142D01*
X180710380Y-39044952D02*
X180710380Y-39521142D01*
X181186571Y-39568761D01*
X181138952Y-39521142D01*
X181091333Y-39425904D01*
X181091333Y-39187809D01*
X181138952Y-39092571D01*
X181186571Y-39044952D01*
X181281809Y-38997333D01*
X181519904Y-38997333D01*
X181615142Y-39044952D01*
X181662761Y-39092571D01*
X181710380Y-39187809D01*
X181710380Y-39425904D01*
X181662761Y-39521142D01*
X181615142Y-39568761D01*
X181710380Y-38568761D02*
X180710380Y-38568761D01*
X181710380Y-37997333D02*
X181138952Y-38425904D01*
X180710380Y-37997333D02*
X181281809Y-38568761D01*
X130374380Y-64174666D02*
X129898190Y-64508000D01*
X130374380Y-64746095D02*
X129374380Y-64746095D01*
X129374380Y-64365142D01*
X129422000Y-64269904D01*
X129469619Y-64222285D01*
X129564857Y-64174666D01*
X129707714Y-64174666D01*
X129802952Y-64222285D01*
X129850571Y-64269904D01*
X129898190Y-64365142D01*
X129898190Y-64746095D01*
X129469619Y-63793714D02*
X129422000Y-63746095D01*
X129374380Y-63650857D01*
X129374380Y-63412761D01*
X129422000Y-63317523D01*
X129469619Y-63269904D01*
X129564857Y-63222285D01*
X129660095Y-63222285D01*
X129802952Y-63269904D01*
X130374380Y-63841333D01*
X130374380Y-63222285D01*
X133674380Y-64698476D02*
X133674380Y-65269904D01*
X133674380Y-64984190D02*
X132674380Y-64984190D01*
X132817238Y-65079428D01*
X132912476Y-65174666D01*
X132960095Y-65269904D01*
X132674380Y-64079428D02*
X132674380Y-63984190D01*
X132722000Y-63888952D01*
X132769619Y-63841333D01*
X132864857Y-63793714D01*
X133055333Y-63746095D01*
X133293428Y-63746095D01*
X133483904Y-63793714D01*
X133579142Y-63841333D01*
X133626761Y-63888952D01*
X133674380Y-63984190D01*
X133674380Y-64079428D01*
X133626761Y-64174666D01*
X133579142Y-64222285D01*
X133483904Y-64269904D01*
X133293428Y-64317523D01*
X133055333Y-64317523D01*
X132864857Y-64269904D01*
X132769619Y-64222285D01*
X132722000Y-64174666D01*
X132674380Y-64079428D01*
X133674380Y-63317523D02*
X132674380Y-63317523D01*
X133674380Y-62746095D02*
X133102952Y-63174666D01*
X132674380Y-62746095D02*
X133245809Y-63317523D01*
X117387809Y-69032380D02*
X117387809Y-68032380D01*
X118435428Y-68937142D02*
X118387809Y-68984761D01*
X118244952Y-69032380D01*
X118149714Y-69032380D01*
X118006857Y-68984761D01*
X117911619Y-68889523D01*
X117864000Y-68794285D01*
X117816380Y-68603809D01*
X117816380Y-68460952D01*
X117864000Y-68270476D01*
X117911619Y-68175238D01*
X118006857Y-68080000D01*
X118149714Y-68032380D01*
X118244952Y-68032380D01*
X118387809Y-68080000D01*
X118435428Y-68127619D01*
X119340190Y-68032380D02*
X118864000Y-68032380D01*
X118816380Y-68508571D01*
X118864000Y-68460952D01*
X118959238Y-68413333D01*
X119197333Y-68413333D01*
X119292571Y-68460952D01*
X119340190Y-68508571D01*
X119387809Y-68603809D01*
X119387809Y-68841904D01*
X119340190Y-68937142D01*
X119292571Y-68984761D01*
X119197333Y-69032380D01*
X118959238Y-69032380D01*
X118864000Y-68984761D01*
X118816380Y-68937142D01*
X113102095Y-75244380D02*
X113102095Y-74244380D01*
X113435428Y-74958666D01*
X113768761Y-74244380D01*
X113768761Y-75244380D01*
X114816380Y-75149142D02*
X114768761Y-75196761D01*
X114625904Y-75244380D01*
X114530666Y-75244380D01*
X114387809Y-75196761D01*
X114292571Y-75101523D01*
X114244952Y-75006285D01*
X114197333Y-74815809D01*
X114197333Y-74672952D01*
X114244952Y-74482476D01*
X114292571Y-74387238D01*
X114387809Y-74292000D01*
X114530666Y-74244380D01*
X114625904Y-74244380D01*
X114768761Y-74292000D01*
X114816380Y-74339619D01*
X115244952Y-75244380D02*
X115244952Y-74244380D01*
X115625904Y-74244380D01*
X115721142Y-74292000D01*
X115768761Y-74339619D01*
X115816380Y-74434857D01*
X115816380Y-74577714D01*
X115768761Y-74672952D01*
X115721142Y-74720571D01*
X115625904Y-74768190D01*
X115244952Y-74768190D01*
X116197333Y-74339619D02*
X116244952Y-74292000D01*
X116340190Y-74244380D01*
X116578285Y-74244380D01*
X116673523Y-74292000D01*
X116721142Y-74339619D01*
X116768761Y-74434857D01*
X116768761Y-74530095D01*
X116721142Y-74672952D01*
X116149714Y-75244380D01*
X116768761Y-75244380D01*
X117673523Y-74244380D02*
X117197333Y-74244380D01*
X117149714Y-74720571D01*
X117197333Y-74672952D01*
X117292571Y-74625333D01*
X117530666Y-74625333D01*
X117625904Y-74672952D01*
X117673523Y-74720571D01*
X117721142Y-74815809D01*
X117721142Y-75053904D01*
X117673523Y-75149142D01*
X117625904Y-75196761D01*
X117530666Y-75244380D01*
X117292571Y-75244380D01*
X117197333Y-75196761D01*
X117149714Y-75149142D01*
X118673523Y-75244380D02*
X118102095Y-75244380D01*
X118387809Y-75244380D02*
X118387809Y-74244380D01*
X118292571Y-74387238D01*
X118197333Y-74482476D01*
X118102095Y-74530095D01*
X119578285Y-74244380D02*
X119102095Y-74244380D01*
X119054476Y-74720571D01*
X119102095Y-74672952D01*
X119197333Y-74625333D01*
X119435428Y-74625333D01*
X119530666Y-74672952D01*
X119578285Y-74720571D01*
X119625904Y-74815809D01*
X119625904Y-75053904D01*
X119578285Y-75149142D01*
X119530666Y-75196761D01*
X119435428Y-75244380D01*
X119197333Y-75244380D01*
X119102095Y-75196761D01*
X119054476Y-75149142D01*
X120054476Y-74863428D02*
X120816380Y-74863428D01*
X121197333Y-75244380D02*
X121721142Y-74577714D01*
X121197333Y-74577714D02*
X121721142Y-75244380D01*
X122054476Y-75196761D02*
X122197333Y-75244380D01*
X122435428Y-75244380D01*
X122530666Y-75196761D01*
X122578285Y-75149142D01*
X122625904Y-75053904D01*
X122625904Y-74958666D01*
X122578285Y-74863428D01*
X122530666Y-74815809D01*
X122435428Y-74768190D01*
X122244952Y-74720571D01*
X122149714Y-74672952D01*
X122102095Y-74625333D01*
X122054476Y-74530095D01*
X122054476Y-74434857D01*
X122102095Y-74339619D01*
X122149714Y-74292000D01*
X122244952Y-74244380D01*
X122483047Y-74244380D01*
X122625904Y-74292000D01*
X123244952Y-74244380D02*
X123435428Y-74244380D01*
X123530666Y-74292000D01*
X123625904Y-74387238D01*
X123673523Y-74577714D01*
X123673523Y-74911047D01*
X123625904Y-75101523D01*
X123530666Y-75196761D01*
X123435428Y-75244380D01*
X123244952Y-75244380D01*
X123149714Y-75196761D01*
X123054476Y-75101523D01*
X123006857Y-74911047D01*
X123006857Y-74577714D01*
X123054476Y-74387238D01*
X123149714Y-74292000D01*
X123244952Y-74244380D01*
X119324380Y-48220190D02*
X118324380Y-48220190D01*
X119229142Y-47172571D02*
X119276761Y-47220190D01*
X119324380Y-47363047D01*
X119324380Y-47458285D01*
X119276761Y-47601142D01*
X119181523Y-47696380D01*
X119086285Y-47744000D01*
X118895809Y-47791619D01*
X118752952Y-47791619D01*
X118562476Y-47744000D01*
X118467238Y-47696380D01*
X118372000Y-47601142D01*
X118324380Y-47458285D01*
X118324380Y-47363047D01*
X118372000Y-47220190D01*
X118419619Y-47172571D01*
X118324380Y-46839238D02*
X118324380Y-46220190D01*
X118705333Y-46553523D01*
X118705333Y-46410666D01*
X118752952Y-46315428D01*
X118800571Y-46267809D01*
X118895809Y-46220190D01*
X119133904Y-46220190D01*
X119229142Y-46267809D01*
X119276761Y-46315428D01*
X119324380Y-46410666D01*
X119324380Y-46696380D01*
X119276761Y-46791619D01*
X119229142Y-46839238D01*
X121880380Y-51410666D02*
X121880380Y-50839238D01*
X122880380Y-51124952D02*
X121880380Y-51124952D01*
X122785142Y-49934476D02*
X122832761Y-49982095D01*
X122880380Y-50124952D01*
X122880380Y-50220190D01*
X122832761Y-50363047D01*
X122737523Y-50458285D01*
X122642285Y-50505904D01*
X122451809Y-50553523D01*
X122308952Y-50553523D01*
X122118476Y-50505904D01*
X122023238Y-50458285D01*
X121928000Y-50363047D01*
X121880380Y-50220190D01*
X121880380Y-50124952D01*
X121928000Y-49982095D01*
X121975619Y-49934476D01*
X122594666Y-49553523D02*
X122594666Y-49077333D01*
X122880380Y-49648761D02*
X121880380Y-49315428D01*
X122880380Y-48982095D01*
X122880380Y-48648761D02*
X121880380Y-48648761D01*
X122880380Y-48077333D01*
X121880380Y-48077333D01*
X121880380Y-47696380D02*
X121880380Y-47077333D01*
X122261333Y-47410666D01*
X122261333Y-47267809D01*
X122308952Y-47172571D01*
X122356571Y-47124952D01*
X122451809Y-47077333D01*
X122689904Y-47077333D01*
X122785142Y-47124952D01*
X122832761Y-47172571D01*
X122880380Y-47267809D01*
X122880380Y-47553523D01*
X122832761Y-47648761D01*
X122785142Y-47696380D01*
X121880380Y-46744000D02*
X121880380Y-46124952D01*
X122261333Y-46458285D01*
X122261333Y-46315428D01*
X122308952Y-46220190D01*
X122356571Y-46172571D01*
X122451809Y-46124952D01*
X122689904Y-46124952D01*
X122785142Y-46172571D01*
X122832761Y-46220190D01*
X122880380Y-46315428D01*
X122880380Y-46601142D01*
X122832761Y-46696380D01*
X122785142Y-46744000D01*
X121975619Y-45744000D02*
X121928000Y-45696380D01*
X121880380Y-45601142D01*
X121880380Y-45363047D01*
X121928000Y-45267809D01*
X121975619Y-45220190D01*
X122070857Y-45172571D01*
X122166095Y-45172571D01*
X122308952Y-45220190D01*
X122880380Y-45791619D01*
X122880380Y-45172571D01*
X122880380Y-44744000D02*
X121880380Y-44744000D01*
X121880380Y-44505904D01*
X121928000Y-44363047D01*
X122023238Y-44267809D01*
X122118476Y-44220190D01*
X122308952Y-44172571D01*
X122451809Y-44172571D01*
X122642285Y-44220190D01*
X122737523Y-44267809D01*
X122832761Y-44363047D01*
X122880380Y-44505904D01*
X122880380Y-44744000D01*
X122880380Y-43172571D02*
X122404190Y-43505904D01*
X122880380Y-43744000D02*
X121880380Y-43744000D01*
X121880380Y-43363047D01*
X121928000Y-43267809D01*
X121975619Y-43220190D01*
X122070857Y-43172571D01*
X122213714Y-43172571D01*
X122308952Y-43220190D01*
X122356571Y-43267809D01*
X122404190Y-43363047D01*
X122404190Y-43744000D01*
X134625142Y-42298857D02*
X134672761Y-42346476D01*
X134720380Y-42489333D01*
X134720380Y-42584571D01*
X134672761Y-42727428D01*
X134577523Y-42822666D01*
X134482285Y-42870285D01*
X134291809Y-42917904D01*
X134148952Y-42917904D01*
X133958476Y-42870285D01*
X133863238Y-42822666D01*
X133768000Y-42727428D01*
X133720380Y-42584571D01*
X133720380Y-42489333D01*
X133768000Y-42346476D01*
X133815619Y-42298857D01*
X134720380Y-41346476D02*
X134720380Y-41917904D01*
X134720380Y-41632190D02*
X133720380Y-41632190D01*
X133863238Y-41727428D01*
X133958476Y-41822666D01*
X134006095Y-41917904D01*
X133720380Y-40441714D02*
X133720380Y-40917904D01*
X134196571Y-40965523D01*
X134148952Y-40917904D01*
X134101333Y-40822666D01*
X134101333Y-40584571D01*
X134148952Y-40489333D01*
X134196571Y-40441714D01*
X134291809Y-40394095D01*
X134529904Y-40394095D01*
X134625142Y-40441714D01*
X134672761Y-40489333D01*
X134720380Y-40584571D01*
X134720380Y-40822666D01*
X134672761Y-40917904D01*
X134625142Y-40965523D01*
X130360380Y-43298857D02*
X130360380Y-43203619D01*
X130408000Y-43108380D01*
X130455619Y-43060761D01*
X130550857Y-43013142D01*
X130741333Y-42965523D01*
X130979428Y-42965523D01*
X131169904Y-43013142D01*
X131265142Y-43060761D01*
X131312761Y-43108380D01*
X131360380Y-43203619D01*
X131360380Y-43298857D01*
X131312761Y-43394095D01*
X131265142Y-43441714D01*
X131169904Y-43489333D01*
X130979428Y-43536952D01*
X130741333Y-43536952D01*
X130550857Y-43489333D01*
X130455619Y-43441714D01*
X130408000Y-43394095D01*
X130360380Y-43298857D01*
X131265142Y-42536952D02*
X131312761Y-42489333D01*
X131360380Y-42536952D01*
X131312761Y-42584571D01*
X131265142Y-42536952D01*
X131360380Y-42536952D01*
X131360380Y-41536952D02*
X131360380Y-42108380D01*
X131360380Y-41822666D02*
X130360380Y-41822666D01*
X130503238Y-41917904D01*
X130598476Y-42013142D01*
X130646095Y-42108380D01*
X130693714Y-40679809D02*
X131360380Y-40679809D01*
X130693714Y-41108380D02*
X131217523Y-41108380D01*
X131312761Y-41060761D01*
X131360380Y-40965523D01*
X131360380Y-40822666D01*
X131312761Y-40727428D01*
X131265142Y-40679809D01*
X130836571Y-39870285D02*
X130836571Y-40203619D01*
X131360380Y-40203619D02*
X130360380Y-40203619D01*
X130360380Y-39727428D01*
X190857142Y-96146857D02*
X190904761Y-96194476D01*
X190952380Y-96337333D01*
X190952380Y-96432571D01*
X190904761Y-96575428D01*
X190809523Y-96670666D01*
X190714285Y-96718285D01*
X190523809Y-96765904D01*
X190380952Y-96765904D01*
X190190476Y-96718285D01*
X190095238Y-96670666D01*
X190000000Y-96575428D01*
X189952380Y-96432571D01*
X189952380Y-96337333D01*
X190000000Y-96194476D01*
X190047619Y-96146857D01*
X190952380Y-95194476D02*
X190952380Y-95765904D01*
X190952380Y-95480190D02*
X189952380Y-95480190D01*
X190095238Y-95575428D01*
X190190476Y-95670666D01*
X190238095Y-95765904D01*
X190285714Y-94337333D02*
X190952380Y-94337333D01*
X189904761Y-94575428D02*
X190619047Y-94813523D01*
X190619047Y-94194476D01*
X196667714Y-96670666D02*
X197334380Y-96670666D01*
X196286761Y-96908761D02*
X197001047Y-97146857D01*
X197001047Y-96527809D01*
X196334380Y-96242095D02*
X196334380Y-95575428D01*
X197334380Y-96004000D01*
X196667714Y-94765904D02*
X197334380Y-94765904D01*
X196667714Y-95194476D02*
X197191523Y-95194476D01*
X197286761Y-95146857D01*
X197334380Y-95051619D01*
X197334380Y-94908761D01*
X197286761Y-94813523D01*
X197239142Y-94765904D01*
X196810571Y-93956380D02*
X196810571Y-94289714D01*
X197334380Y-94289714D02*
X196334380Y-94289714D01*
X196334380Y-93813523D01*
X111609142Y-72778857D02*
X111656761Y-72826476D01*
X111704380Y-72969333D01*
X111704380Y-73064571D01*
X111656761Y-73207428D01*
X111561523Y-73302666D01*
X111466285Y-73350285D01*
X111275809Y-73397904D01*
X111132952Y-73397904D01*
X110942476Y-73350285D01*
X110847238Y-73302666D01*
X110752000Y-73207428D01*
X110704380Y-73064571D01*
X110704380Y-72969333D01*
X110752000Y-72826476D01*
X110799619Y-72778857D01*
X111704380Y-71826476D02*
X111704380Y-72397904D01*
X111704380Y-72112190D02*
X110704380Y-72112190D01*
X110847238Y-72207428D01*
X110942476Y-72302666D01*
X110990095Y-72397904D01*
X110704380Y-71493142D02*
X110704380Y-70874095D01*
X111085333Y-71207428D01*
X111085333Y-71064571D01*
X111132952Y-70969333D01*
X111180571Y-70921714D01*
X111275809Y-70874095D01*
X111513904Y-70874095D01*
X111609142Y-70921714D01*
X111656761Y-70969333D01*
X111704380Y-71064571D01*
X111704380Y-71350285D01*
X111656761Y-71445523D01*
X111609142Y-71493142D01*
X107640380Y-73207428D02*
X107640380Y-73778857D01*
X107640380Y-73493142D02*
X106640380Y-73493142D01*
X106783238Y-73588380D01*
X106878476Y-73683619D01*
X106926095Y-73778857D01*
X106640380Y-72588380D02*
X106640380Y-72493142D01*
X106688000Y-72397904D01*
X106735619Y-72350285D01*
X106830857Y-72302666D01*
X107021333Y-72255047D01*
X107259428Y-72255047D01*
X107449904Y-72302666D01*
X107545142Y-72350285D01*
X107592761Y-72397904D01*
X107640380Y-72493142D01*
X107640380Y-72588380D01*
X107592761Y-72683619D01*
X107545142Y-72731238D01*
X107449904Y-72778857D01*
X107259428Y-72826476D01*
X107021333Y-72826476D01*
X106830857Y-72778857D01*
X106735619Y-72731238D01*
X106688000Y-72683619D01*
X106640380Y-72588380D01*
X106973714Y-71397904D02*
X107640380Y-71397904D01*
X106973714Y-71826476D02*
X107497523Y-71826476D01*
X107592761Y-71778857D01*
X107640380Y-71683619D01*
X107640380Y-71540761D01*
X107592761Y-71445523D01*
X107545142Y-71397904D01*
X107116571Y-70588380D02*
X107116571Y-70921714D01*
X107640380Y-70921714D02*
X106640380Y-70921714D01*
X106640380Y-70445523D01*
X143261142Y-81922857D02*
X143308761Y-81970476D01*
X143356380Y-82113333D01*
X143356380Y-82208571D01*
X143308761Y-82351428D01*
X143213523Y-82446666D01*
X143118285Y-82494285D01*
X142927809Y-82541904D01*
X142784952Y-82541904D01*
X142594476Y-82494285D01*
X142499238Y-82446666D01*
X142404000Y-82351428D01*
X142356380Y-82208571D01*
X142356380Y-82113333D01*
X142404000Y-81970476D01*
X142451619Y-81922857D01*
X143356380Y-80970476D02*
X143356380Y-81541904D01*
X143356380Y-81256190D02*
X142356380Y-81256190D01*
X142499238Y-81351428D01*
X142594476Y-81446666D01*
X142642095Y-81541904D01*
X142451619Y-80589523D02*
X142404000Y-80541904D01*
X142356380Y-80446666D01*
X142356380Y-80208571D01*
X142404000Y-80113333D01*
X142451619Y-80065714D01*
X142546857Y-80018095D01*
X142642095Y-80018095D01*
X142784952Y-80065714D01*
X143356380Y-80637142D01*
X143356380Y-80018095D01*
X139091619Y-82922857D02*
X139044000Y-82875238D01*
X138996380Y-82780000D01*
X138996380Y-82541904D01*
X139044000Y-82446666D01*
X139091619Y-82399047D01*
X139186857Y-82351428D01*
X139282095Y-82351428D01*
X139424952Y-82399047D01*
X139996380Y-82970476D01*
X139996380Y-82351428D01*
X139091619Y-81970476D02*
X139044000Y-81922857D01*
X138996380Y-81827619D01*
X138996380Y-81589523D01*
X139044000Y-81494285D01*
X139091619Y-81446666D01*
X139186857Y-81399047D01*
X139282095Y-81399047D01*
X139424952Y-81446666D01*
X139996380Y-82018095D01*
X139996380Y-81399047D01*
X139329714Y-80970476D02*
X140329714Y-80970476D01*
X139377333Y-80970476D02*
X139329714Y-80875238D01*
X139329714Y-80684761D01*
X139377333Y-80589523D01*
X139424952Y-80541904D01*
X139520190Y-80494285D01*
X139805904Y-80494285D01*
X139901142Y-80541904D01*
X139948761Y-80589523D01*
X139996380Y-80684761D01*
X139996380Y-80875238D01*
X139948761Y-80970476D01*
X139472571Y-79732380D02*
X139472571Y-80065714D01*
X139996380Y-80065714D02*
X138996380Y-80065714D01*
X138996380Y-79589523D01*
X135133142Y-81922857D02*
X135180761Y-81970476D01*
X135228380Y-82113333D01*
X135228380Y-82208571D01*
X135180761Y-82351428D01*
X135085523Y-82446666D01*
X134990285Y-82494285D01*
X134799809Y-82541904D01*
X134656952Y-82541904D01*
X134466476Y-82494285D01*
X134371238Y-82446666D01*
X134276000Y-82351428D01*
X134228380Y-82208571D01*
X134228380Y-82113333D01*
X134276000Y-81970476D01*
X134323619Y-81922857D01*
X135228380Y-80970476D02*
X135228380Y-81541904D01*
X135228380Y-81256190D02*
X134228380Y-81256190D01*
X134371238Y-81351428D01*
X134466476Y-81446666D01*
X134514095Y-81541904D01*
X135228380Y-80018095D02*
X135228380Y-80589523D01*
X135228380Y-80303809D02*
X134228380Y-80303809D01*
X134371238Y-80399047D01*
X134466476Y-80494285D01*
X134514095Y-80589523D01*
X130963619Y-82922857D02*
X130916000Y-82875238D01*
X130868380Y-82780000D01*
X130868380Y-82541904D01*
X130916000Y-82446666D01*
X130963619Y-82399047D01*
X131058857Y-82351428D01*
X131154095Y-82351428D01*
X131296952Y-82399047D01*
X131868380Y-82970476D01*
X131868380Y-82351428D01*
X130963619Y-81970476D02*
X130916000Y-81922857D01*
X130868380Y-81827619D01*
X130868380Y-81589523D01*
X130916000Y-81494285D01*
X130963619Y-81446666D01*
X131058857Y-81399047D01*
X131154095Y-81399047D01*
X131296952Y-81446666D01*
X131868380Y-82018095D01*
X131868380Y-81399047D01*
X131201714Y-80970476D02*
X132201714Y-80970476D01*
X131249333Y-80970476D02*
X131201714Y-80875238D01*
X131201714Y-80684761D01*
X131249333Y-80589523D01*
X131296952Y-80541904D01*
X131392190Y-80494285D01*
X131677904Y-80494285D01*
X131773142Y-80541904D01*
X131820761Y-80589523D01*
X131868380Y-80684761D01*
X131868380Y-80875238D01*
X131820761Y-80970476D01*
X131344571Y-79732380D02*
X131344571Y-80065714D01*
X131868380Y-80065714D02*
X130868380Y-80065714D01*
X130868380Y-79589523D01*
X118705333Y-53033142D02*
X118657714Y-53080761D01*
X118514857Y-53128380D01*
X118419619Y-53128380D01*
X118276761Y-53080761D01*
X118181523Y-52985523D01*
X118133904Y-52890285D01*
X118086285Y-52699809D01*
X118086285Y-52556952D01*
X118133904Y-52366476D01*
X118181523Y-52271238D01*
X118276761Y-52176000D01*
X118419619Y-52128380D01*
X118514857Y-52128380D01*
X118657714Y-52176000D01*
X118705333Y-52223619D01*
X119276761Y-52556952D02*
X119181523Y-52509333D01*
X119133904Y-52461714D01*
X119086285Y-52366476D01*
X119086285Y-52318857D01*
X119133904Y-52223619D01*
X119181523Y-52176000D01*
X119276761Y-52128380D01*
X119467238Y-52128380D01*
X119562476Y-52176000D01*
X119610095Y-52223619D01*
X119657714Y-52318857D01*
X119657714Y-52366476D01*
X119610095Y-52461714D01*
X119562476Y-52509333D01*
X119467238Y-52556952D01*
X119276761Y-52556952D01*
X119181523Y-52604571D01*
X119133904Y-52652190D01*
X119086285Y-52747428D01*
X119086285Y-52937904D01*
X119133904Y-53033142D01*
X119181523Y-53080761D01*
X119276761Y-53128380D01*
X119467238Y-53128380D01*
X119562476Y-53080761D01*
X119610095Y-53033142D01*
X119657714Y-52937904D01*
X119657714Y-52747428D01*
X119610095Y-52652190D01*
X119562476Y-52604571D01*
X119467238Y-52556952D01*
X117229142Y-55488380D02*
X117324380Y-55488380D01*
X117419619Y-55536000D01*
X117467238Y-55583619D01*
X117514857Y-55678857D01*
X117562476Y-55869333D01*
X117562476Y-56107428D01*
X117514857Y-56297904D01*
X117467238Y-56393142D01*
X117419619Y-56440761D01*
X117324380Y-56488380D01*
X117229142Y-56488380D01*
X117133904Y-56440761D01*
X117086285Y-56393142D01*
X117038666Y-56297904D01*
X116991047Y-56107428D01*
X116991047Y-55869333D01*
X117038666Y-55678857D01*
X117086285Y-55583619D01*
X117133904Y-55536000D01*
X117229142Y-55488380D01*
X117991047Y-56393142D02*
X118038666Y-56440761D01*
X117991047Y-56488380D01*
X117943428Y-56440761D01*
X117991047Y-56393142D01*
X117991047Y-56488380D01*
X118991047Y-56488380D02*
X118419619Y-56488380D01*
X118705333Y-56488380D02*
X118705333Y-55488380D01*
X118610095Y-55631238D01*
X118514857Y-55726476D01*
X118419619Y-55774095D01*
X119848190Y-55821714D02*
X119848190Y-56488380D01*
X119419619Y-55821714D02*
X119419619Y-56345523D01*
X119467238Y-56440761D01*
X119562476Y-56488380D01*
X119705333Y-56488380D01*
X119800571Y-56440761D01*
X119848190Y-56393142D01*
X120657714Y-55964571D02*
X120324380Y-55964571D01*
X120324380Y-56488380D02*
X120324380Y-55488380D01*
X120800571Y-55488380D01*
X105669142Y-72368666D02*
X105716761Y-72416285D01*
X105764380Y-72559142D01*
X105764380Y-72654380D01*
X105716761Y-72797238D01*
X105621523Y-72892476D01*
X105526285Y-72940095D01*
X105335809Y-72987714D01*
X105192952Y-72987714D01*
X105002476Y-72940095D01*
X104907238Y-72892476D01*
X104812000Y-72797238D01*
X104764380Y-72654380D01*
X104764380Y-72559142D01*
X104812000Y-72416285D01*
X104859619Y-72368666D01*
X104764380Y-72035333D02*
X104764380Y-71368666D01*
X105764380Y-71797238D01*
X101404380Y-73844857D02*
X101404380Y-73749619D01*
X101452000Y-73654380D01*
X101499619Y-73606761D01*
X101594857Y-73559142D01*
X101785333Y-73511523D01*
X102023428Y-73511523D01*
X102213904Y-73559142D01*
X102309142Y-73606761D01*
X102356761Y-73654380D01*
X102404380Y-73749619D01*
X102404380Y-73844857D01*
X102356761Y-73940095D01*
X102309142Y-73987714D01*
X102213904Y-74035333D01*
X102023428Y-74082952D01*
X101785333Y-74082952D01*
X101594857Y-74035333D01*
X101499619Y-73987714D01*
X101452000Y-73940095D01*
X101404380Y-73844857D01*
X102309142Y-73082952D02*
X102356761Y-73035333D01*
X102404380Y-73082952D01*
X102356761Y-73130571D01*
X102309142Y-73082952D01*
X102404380Y-73082952D01*
X102404380Y-72082952D02*
X102404380Y-72654380D01*
X102404380Y-72368666D02*
X101404380Y-72368666D01*
X101547238Y-72463904D01*
X101642476Y-72559142D01*
X101690095Y-72654380D01*
X101737714Y-71225809D02*
X102404380Y-71225809D01*
X101737714Y-71654380D02*
X102261523Y-71654380D01*
X102356761Y-71606761D01*
X102404380Y-71511523D01*
X102404380Y-71368666D01*
X102356761Y-71273428D01*
X102309142Y-71225809D01*
X101880571Y-70416285D02*
X101880571Y-70749619D01*
X102404380Y-70749619D02*
X101404380Y-70749619D01*
X101404380Y-70273428D01*
X62333961Y-28146470D02*
X62286342Y-28194089D01*
X62143485Y-28241708D01*
X62048247Y-28241708D01*
X61905389Y-28194089D01*
X61810151Y-28098851D01*
X61762532Y-28003613D01*
X61714913Y-27813137D01*
X61714913Y-27670280D01*
X61762532Y-27479804D01*
X61810151Y-27384566D01*
X61905389Y-27289328D01*
X62048247Y-27241708D01*
X62143485Y-27241708D01*
X62286342Y-27289328D01*
X62333961Y-27336947D01*
X62762532Y-28241708D02*
X62762532Y-27241708D01*
X63333961Y-28241708D01*
X63333961Y-27241708D01*
X64333961Y-28241708D02*
X63762532Y-28241708D01*
X64048247Y-28241708D02*
X64048247Y-27241708D01*
X63953008Y-27384566D01*
X63857770Y-27479804D01*
X63762532Y-27527423D01*
X64953008Y-27241708D02*
X65048247Y-27241708D01*
X65143485Y-27289328D01*
X65191104Y-27336947D01*
X65238723Y-27432185D01*
X65286342Y-27622661D01*
X65286342Y-27860756D01*
X65238723Y-28051232D01*
X65191104Y-28146470D01*
X65143485Y-28194089D01*
X65048247Y-28241708D01*
X64953008Y-28241708D01*
X64857770Y-28194089D01*
X64810151Y-28146470D01*
X64762532Y-28051232D01*
X64714913Y-27860756D01*
X64714913Y-27622661D01*
X64762532Y-27432185D01*
X64810151Y-27336947D01*
X64857770Y-27289328D01*
X64953008Y-27241708D01*
X62857142Y-36397142D02*
X62809523Y-36444761D01*
X62666666Y-36492380D01*
X62571428Y-36492380D01*
X62428571Y-36444761D01*
X62333333Y-36349523D01*
X62285714Y-36254285D01*
X62238095Y-36063809D01*
X62238095Y-35920952D01*
X62285714Y-35730476D01*
X62333333Y-35635238D01*
X62428571Y-35540000D01*
X62571428Y-35492380D01*
X62666666Y-35492380D01*
X62809523Y-35540000D01*
X62857142Y-35587619D01*
X63238095Y-36206666D02*
X63714285Y-36206666D01*
X63142857Y-36492380D02*
X63476190Y-35492380D01*
X63809523Y-36492380D01*
X64142857Y-36492380D02*
X64142857Y-35492380D01*
X64714285Y-36492380D01*
X64714285Y-35492380D01*
X73766943Y-28146470D02*
X73719324Y-28194089D01*
X73576467Y-28241708D01*
X73481229Y-28241708D01*
X73338371Y-28194089D01*
X73243133Y-28098851D01*
X73195514Y-28003613D01*
X73147895Y-27813137D01*
X73147895Y-27670280D01*
X73195514Y-27479804D01*
X73243133Y-27384566D01*
X73338371Y-27289328D01*
X73481229Y-27241708D01*
X73576467Y-27241708D01*
X73719324Y-27289328D01*
X73766943Y-27336947D01*
X74195514Y-28241708D02*
X74195514Y-27241708D01*
X74766943Y-28241708D01*
X74766943Y-27241708D01*
X75766943Y-28241708D02*
X75195514Y-28241708D01*
X75481229Y-28241708D02*
X75481229Y-27241708D01*
X75385990Y-27384566D01*
X75290752Y-27479804D01*
X75195514Y-27527423D01*
X76719324Y-28241708D02*
X76147895Y-28241708D01*
X76433610Y-28241708D02*
X76433610Y-27241708D01*
X76338371Y-27384566D01*
X76243133Y-27479804D01*
X76147895Y-27527423D01*
X74287142Y-36397142D02*
X74239523Y-36444761D01*
X74096666Y-36492380D01*
X74001428Y-36492380D01*
X73858571Y-36444761D01*
X73763333Y-36349523D01*
X73715714Y-36254285D01*
X73668095Y-36063809D01*
X73668095Y-35920952D01*
X73715714Y-35730476D01*
X73763333Y-35635238D01*
X73858571Y-35540000D01*
X74001428Y-35492380D01*
X74096666Y-35492380D01*
X74239523Y-35540000D01*
X74287142Y-35587619D01*
X74668095Y-36206666D02*
X75144285Y-36206666D01*
X74572857Y-36492380D02*
X74906190Y-35492380D01*
X75239523Y-36492380D01*
X75572857Y-36492380D02*
X75572857Y-35492380D01*
X76144285Y-36492380D01*
X76144285Y-35492380D01*
X85676114Y-28146470D02*
X85628495Y-28194089D01*
X85485638Y-28241708D01*
X85390400Y-28241708D01*
X85247543Y-28194089D01*
X85152305Y-28098851D01*
X85104686Y-28003613D01*
X85057067Y-27813137D01*
X85057067Y-27670280D01*
X85104686Y-27479804D01*
X85152305Y-27384566D01*
X85247543Y-27289328D01*
X85390400Y-27241708D01*
X85485638Y-27241708D01*
X85628495Y-27289328D01*
X85676114Y-27336947D01*
X86104686Y-28241708D02*
X86104686Y-27241708D01*
X86676114Y-28241708D01*
X86676114Y-27241708D01*
X87199924Y-28241708D02*
X87390400Y-28241708D01*
X87485638Y-28194089D01*
X87533257Y-28146470D01*
X87628495Y-28003613D01*
X87676114Y-27813137D01*
X87676114Y-27432185D01*
X87628495Y-27336947D01*
X87580876Y-27289328D01*
X87485638Y-27241708D01*
X87295162Y-27241708D01*
X87199924Y-27289328D01*
X87152305Y-27336947D01*
X87104686Y-27432185D01*
X87104686Y-27670280D01*
X87152305Y-27765518D01*
X87199924Y-27813137D01*
X87295162Y-27860756D01*
X87485638Y-27860756D01*
X87580876Y-27813137D01*
X87628495Y-27765518D01*
X87676114Y-27670280D01*
X85717142Y-36397142D02*
X85669523Y-36444761D01*
X85526666Y-36492380D01*
X85431428Y-36492380D01*
X85288571Y-36444761D01*
X85193333Y-36349523D01*
X85145714Y-36254285D01*
X85098095Y-36063809D01*
X85098095Y-35920952D01*
X85145714Y-35730476D01*
X85193333Y-35635238D01*
X85288571Y-35540000D01*
X85431428Y-35492380D01*
X85526666Y-35492380D01*
X85669523Y-35540000D01*
X85717142Y-35587619D01*
X86098095Y-36206666D02*
X86574285Y-36206666D01*
X86002857Y-36492380D02*
X86336190Y-35492380D01*
X86669523Y-36492380D01*
X87002857Y-36492380D02*
X87002857Y-35492380D01*
X87574285Y-36492380D01*
X87574285Y-35492380D01*
X108538956Y-28146470D02*
X108491337Y-28194089D01*
X108348480Y-28241708D01*
X108253242Y-28241708D01*
X108110385Y-28194089D01*
X108015147Y-28098851D01*
X107967528Y-28003613D01*
X107919909Y-27813137D01*
X107919909Y-27670280D01*
X107967528Y-27479804D01*
X108015147Y-27384566D01*
X108110385Y-27289328D01*
X108253242Y-27241708D01*
X108348480Y-27241708D01*
X108491337Y-27289328D01*
X108538956Y-27336947D01*
X108967528Y-28241708D02*
X108967528Y-27241708D01*
X109538956Y-28241708D01*
X109538956Y-27241708D01*
X110158004Y-27670280D02*
X110062766Y-27622661D01*
X110015147Y-27575042D01*
X109967528Y-27479804D01*
X109967528Y-27432185D01*
X110015147Y-27336947D01*
X110062766Y-27289328D01*
X110158004Y-27241708D01*
X110348480Y-27241708D01*
X110443718Y-27289328D01*
X110491337Y-27336947D01*
X110538956Y-27432185D01*
X110538956Y-27479804D01*
X110491337Y-27575042D01*
X110443718Y-27622661D01*
X110348480Y-27670280D01*
X110158004Y-27670280D01*
X110062766Y-27717899D01*
X110015147Y-27765518D01*
X109967528Y-27860756D01*
X109967528Y-28051232D01*
X110015147Y-28146470D01*
X110062766Y-28194089D01*
X110158004Y-28241708D01*
X110348480Y-28241708D01*
X110443718Y-28194089D01*
X110491337Y-28146470D01*
X110538956Y-28051232D01*
X110538956Y-27860756D01*
X110491337Y-27765518D01*
X110443718Y-27717899D01*
X110348480Y-27670280D01*
X108577142Y-36397142D02*
X108529523Y-36444761D01*
X108386666Y-36492380D01*
X108291428Y-36492380D01*
X108148571Y-36444761D01*
X108053333Y-36349523D01*
X108005714Y-36254285D01*
X107958095Y-36063809D01*
X107958095Y-35920952D01*
X108005714Y-35730476D01*
X108053333Y-35635238D01*
X108148571Y-35540000D01*
X108291428Y-35492380D01*
X108386666Y-35492380D01*
X108529523Y-35540000D01*
X108577142Y-35587619D01*
X108958095Y-36206666D02*
X109434285Y-36206666D01*
X108862857Y-36492380D02*
X109196190Y-35492380D01*
X109529523Y-36492380D01*
X109862857Y-36492380D02*
X109862857Y-35492380D01*
X110434285Y-36492380D01*
X110434285Y-35492380D01*
X119971938Y-28146470D02*
X119924319Y-28194089D01*
X119781462Y-28241708D01*
X119686224Y-28241708D01*
X119543367Y-28194089D01*
X119448129Y-28098851D01*
X119400510Y-28003613D01*
X119352891Y-27813137D01*
X119352891Y-27670280D01*
X119400510Y-27479804D01*
X119448129Y-27384566D01*
X119543367Y-27289328D01*
X119686224Y-27241708D01*
X119781462Y-27241708D01*
X119924319Y-27289328D01*
X119971938Y-27336947D01*
X120400510Y-28241708D02*
X120400510Y-27241708D01*
X120971938Y-28241708D01*
X120971938Y-27241708D01*
X121352891Y-27241708D02*
X122019557Y-27241708D01*
X121590986Y-28241708D01*
X120007142Y-36397142D02*
X119959523Y-36444761D01*
X119816666Y-36492380D01*
X119721428Y-36492380D01*
X119578571Y-36444761D01*
X119483333Y-36349523D01*
X119435714Y-36254285D01*
X119388095Y-36063809D01*
X119388095Y-35920952D01*
X119435714Y-35730476D01*
X119483333Y-35635238D01*
X119578571Y-35540000D01*
X119721428Y-35492380D01*
X119816666Y-35492380D01*
X119959523Y-35540000D01*
X120007142Y-35587619D01*
X120388095Y-36206666D02*
X120864285Y-36206666D01*
X120292857Y-36492380D02*
X120626190Y-35492380D01*
X120959523Y-36492380D01*
X121292857Y-36492380D02*
X121292857Y-35492380D01*
X121864285Y-36492380D01*
X121864285Y-35492380D01*
X97105974Y-28146470D02*
X97058355Y-28194089D01*
X96915498Y-28241708D01*
X96820260Y-28241708D01*
X96677403Y-28194089D01*
X96582165Y-28098851D01*
X96534546Y-28003613D01*
X96486927Y-27813137D01*
X96486927Y-27670280D01*
X96534546Y-27479804D01*
X96582165Y-27384566D01*
X96677403Y-27289328D01*
X96820260Y-27241708D01*
X96915498Y-27241708D01*
X97058355Y-27289328D01*
X97105974Y-27336947D01*
X97534546Y-28241708D02*
X97534546Y-27241708D01*
X98105974Y-28241708D01*
X98105974Y-27241708D01*
X99010736Y-27241708D02*
X98820260Y-27241708D01*
X98725022Y-27289328D01*
X98677403Y-27336947D01*
X98582165Y-27479804D01*
X98534546Y-27670280D01*
X98534546Y-28051232D01*
X98582165Y-28146470D01*
X98629784Y-28194089D01*
X98725022Y-28241708D01*
X98915498Y-28241708D01*
X99010736Y-28194089D01*
X99058355Y-28146470D01*
X99105974Y-28051232D01*
X99105974Y-27813137D01*
X99058355Y-27717899D01*
X99010736Y-27670280D01*
X98915498Y-27622661D01*
X98725022Y-27622661D01*
X98629784Y-27670280D01*
X98582165Y-27717899D01*
X98534546Y-27813137D01*
X97147142Y-36397142D02*
X97099523Y-36444761D01*
X96956666Y-36492380D01*
X96861428Y-36492380D01*
X96718571Y-36444761D01*
X96623333Y-36349523D01*
X96575714Y-36254285D01*
X96528095Y-36063809D01*
X96528095Y-35920952D01*
X96575714Y-35730476D01*
X96623333Y-35635238D01*
X96718571Y-35540000D01*
X96861428Y-35492380D01*
X96956666Y-35492380D01*
X97099523Y-35540000D01*
X97147142Y-35587619D01*
X97528095Y-36206666D02*
X98004285Y-36206666D01*
X97432857Y-36492380D02*
X97766190Y-35492380D01*
X98099523Y-36492380D01*
X98432857Y-36492380D02*
X98432857Y-35492380D01*
X99004285Y-36492380D01*
X99004285Y-35492380D01*
X76305185Y-143883116D02*
X76257566Y-143930735D01*
X76114709Y-143978354D01*
X76019471Y-143978354D01*
X75876613Y-143930735D01*
X75781375Y-143835497D01*
X75733756Y-143740259D01*
X75686137Y-143549783D01*
X75686137Y-143406926D01*
X75733756Y-143216450D01*
X75781375Y-143121212D01*
X75876613Y-143025974D01*
X76019471Y-142978354D01*
X76114709Y-142978354D01*
X76257566Y-143025974D01*
X76305185Y-143073593D01*
X76733756Y-143978354D02*
X76733756Y-142978354D01*
X77305185Y-143978354D01*
X77305185Y-142978354D01*
X78305185Y-143978354D02*
X77733756Y-143978354D01*
X78019471Y-143978354D02*
X78019471Y-142978354D01*
X77924232Y-143121212D01*
X77828994Y-143216450D01*
X77733756Y-143264069D01*
X78686137Y-143073593D02*
X78733756Y-143025974D01*
X78828994Y-142978354D01*
X79067090Y-142978354D01*
X79162328Y-143025974D01*
X79209947Y-143073593D01*
X79257566Y-143168831D01*
X79257566Y-143264069D01*
X79209947Y-143406926D01*
X78638518Y-143978354D01*
X79257566Y-143978354D01*
X61825142Y-140358285D02*
X61872761Y-140405904D01*
X61920380Y-140548761D01*
X61920380Y-140644000D01*
X61872761Y-140786857D01*
X61777523Y-140882095D01*
X61682285Y-140929714D01*
X61491809Y-140977333D01*
X61348952Y-140977333D01*
X61158476Y-140929714D01*
X61063238Y-140882095D01*
X60968000Y-140786857D01*
X60920380Y-140644000D01*
X60920380Y-140548761D01*
X60968000Y-140405904D01*
X61015619Y-140358285D01*
X61634666Y-139977333D02*
X61634666Y-139501142D01*
X61920380Y-140072571D02*
X60920380Y-139739238D01*
X61920380Y-139405904D01*
X61920380Y-139072571D02*
X60920380Y-139072571D01*
X61920380Y-138501142D01*
X60920380Y-138501142D01*
X62015619Y-138263047D02*
X62015619Y-137501142D01*
X61920380Y-136739238D02*
X61920380Y-137310666D01*
X61920380Y-137024952D02*
X60920380Y-137024952D01*
X61063238Y-137120190D01*
X61158476Y-137215428D01*
X61206095Y-137310666D01*
X61015619Y-136358285D02*
X60968000Y-136310666D01*
X60920380Y-136215428D01*
X60920380Y-135977333D01*
X60968000Y-135882095D01*
X61015619Y-135834476D01*
X61110857Y-135786857D01*
X61206095Y-135786857D01*
X61348952Y-135834476D01*
X61920380Y-136405904D01*
X61920380Y-135786857D01*
X60920380Y-135501142D02*
X61920380Y-135167809D01*
X60920380Y-134834476D01*
X62015619Y-134739238D02*
X62015619Y-133977333D01*
X60920380Y-133548761D02*
X60920380Y-133358285D01*
X60968000Y-133263047D01*
X61063238Y-133167809D01*
X61253714Y-133120190D01*
X61587047Y-133120190D01*
X61777523Y-133167809D01*
X61872761Y-133263047D01*
X61920380Y-133358285D01*
X61920380Y-133548761D01*
X61872761Y-133644000D01*
X61777523Y-133739238D01*
X61587047Y-133786857D01*
X61253714Y-133786857D01*
X61063238Y-133739238D01*
X60968000Y-133644000D01*
X60920380Y-133548761D01*
X60920380Y-132691619D02*
X61729904Y-132691619D01*
X61825142Y-132644000D01*
X61872761Y-132596380D01*
X61920380Y-132501142D01*
X61920380Y-132310666D01*
X61872761Y-132215428D01*
X61825142Y-132167809D01*
X61729904Y-132120190D01*
X60920380Y-132120190D01*
X60920380Y-131786857D02*
X60920380Y-131215428D01*
X61920380Y-131501142D02*
X60920380Y-131501142D01*
X170982666Y-110672571D02*
X170649333Y-110672571D01*
X170649333Y-111196380D02*
X170649333Y-110196380D01*
X171125523Y-110196380D01*
X172030285Y-111196380D02*
X171458857Y-111196380D01*
X171744571Y-111196380D02*
X171744571Y-110196380D01*
X171649333Y-110339238D01*
X171554095Y-110434476D01*
X171458857Y-110482095D01*
X170125523Y-106761619D02*
X170173142Y-106714000D01*
X170268380Y-106666380D01*
X170506476Y-106666380D01*
X170601714Y-106714000D01*
X170649333Y-106761619D01*
X170696952Y-106856857D01*
X170696952Y-106952095D01*
X170649333Y-107094952D01*
X170077904Y-107666380D01*
X170696952Y-107666380D01*
X171601714Y-106666380D02*
X171125523Y-106666380D01*
X171077904Y-107142571D01*
X171125523Y-107094952D01*
X171220761Y-107047333D01*
X171458857Y-107047333D01*
X171554095Y-107094952D01*
X171601714Y-107142571D01*
X171649333Y-107237809D01*
X171649333Y-107475904D01*
X171601714Y-107571142D01*
X171554095Y-107618761D01*
X171458857Y-107666380D01*
X171220761Y-107666380D01*
X171125523Y-107618761D01*
X171077904Y-107571142D01*
X172030285Y-107380666D02*
X172506476Y-107380666D01*
X171935047Y-107666380D02*
X172268380Y-106666380D01*
X172601714Y-107666380D01*
X180665523Y-144121142D02*
X180617904Y-144168761D01*
X180475047Y-144216380D01*
X180379809Y-144216380D01*
X180236952Y-144168761D01*
X180141714Y-144073523D01*
X180094095Y-143978285D01*
X180046476Y-143787809D01*
X180046476Y-143644952D01*
X180094095Y-143454476D01*
X180141714Y-143359238D01*
X180236952Y-143264000D01*
X180379809Y-143216380D01*
X180475047Y-143216380D01*
X180617904Y-143264000D01*
X180665523Y-143311619D01*
X181094095Y-144216380D02*
X181094095Y-143216380D01*
X181665523Y-144216380D01*
X181665523Y-143216380D01*
X182665523Y-144216380D02*
X182094095Y-144216380D01*
X182379809Y-144216380D02*
X182379809Y-143216380D01*
X182284571Y-143359238D01*
X182189333Y-143454476D01*
X182094095Y-143502095D01*
X188738095Y-128468380D02*
X188166666Y-128468380D01*
X188452380Y-128468380D02*
X188452380Y-127468380D01*
X188357142Y-127611238D01*
X188261904Y-127706476D01*
X188166666Y-127754095D01*
X189119047Y-127563619D02*
X189166666Y-127516000D01*
X189261904Y-127468380D01*
X189500000Y-127468380D01*
X189595238Y-127516000D01*
X189642857Y-127563619D01*
X189690476Y-127658857D01*
X189690476Y-127754095D01*
X189642857Y-127896952D01*
X189071428Y-128468380D01*
X189690476Y-128468380D01*
X189976190Y-127468380D02*
X190309523Y-128468380D01*
X190642857Y-127468380D01*
X190738095Y-128563619D02*
X191500000Y-128563619D01*
X191738095Y-128468380D02*
X191738095Y-127468380D01*
X192214285Y-128468380D02*
X192214285Y-127468380D01*
X192785714Y-128468380D01*
X192785714Y-127468380D01*
X138938095Y-52284380D02*
X139509523Y-52284380D01*
X139223809Y-53284380D02*
X139223809Y-52284380D01*
X140271428Y-52284380D02*
X140080952Y-52284380D01*
X139985714Y-52332000D01*
X139938095Y-52379619D01*
X139842857Y-52522476D01*
X139795238Y-52712952D01*
X139795238Y-53093904D01*
X139842857Y-53189142D01*
X139890476Y-53236761D01*
X139985714Y-53284380D01*
X140176190Y-53284380D01*
X140271428Y-53236761D01*
X140319047Y-53189142D01*
X140366666Y-53093904D01*
X140366666Y-52855809D01*
X140319047Y-52760571D01*
X140271428Y-52712952D01*
X140176190Y-52665333D01*
X139985714Y-52665333D01*
X139890476Y-52712952D01*
X139842857Y-52760571D01*
X139795238Y-52855809D01*
X132017047Y-54284380D02*
X132588476Y-54284380D01*
X132302761Y-55284380D02*
X132302761Y-54284380D01*
X132921809Y-54760571D02*
X133255142Y-54760571D01*
X133398000Y-55284380D02*
X132921809Y-55284380D01*
X132921809Y-54284380D01*
X133398000Y-54284380D01*
X133778952Y-55236761D02*
X133921809Y-55284380D01*
X134159904Y-55284380D01*
X134255142Y-55236761D01*
X134302761Y-55189142D01*
X134350380Y-55093904D01*
X134350380Y-54998666D01*
X134302761Y-54903428D01*
X134255142Y-54855809D01*
X134159904Y-54808190D01*
X133969428Y-54760571D01*
X133874190Y-54712952D01*
X133826571Y-54665333D01*
X133778952Y-54570095D01*
X133778952Y-54474857D01*
X133826571Y-54379619D01*
X133874190Y-54332000D01*
X133969428Y-54284380D01*
X134207523Y-54284380D01*
X134350380Y-54332000D01*
X134636095Y-54284380D02*
X135207523Y-54284380D01*
X134921809Y-55284380D02*
X134921809Y-54284380D01*
X135302761Y-55379619D02*
X136064666Y-55379619D01*
X136874190Y-55284380D02*
X136540857Y-54808190D01*
X136302761Y-55284380D02*
X136302761Y-54284380D01*
X136683714Y-54284380D01*
X136778952Y-54332000D01*
X136826571Y-54379619D01*
X136874190Y-54474857D01*
X136874190Y-54617714D01*
X136826571Y-54712952D01*
X136778952Y-54760571D01*
X136683714Y-54808190D01*
X136302761Y-54808190D01*
X137255142Y-55236761D02*
X137398000Y-55284380D01*
X137636095Y-55284380D01*
X137731333Y-55236761D01*
X137778952Y-55189142D01*
X137826571Y-55093904D01*
X137826571Y-54998666D01*
X137778952Y-54903428D01*
X137731333Y-54855809D01*
X137636095Y-54808190D01*
X137445619Y-54760571D01*
X137350380Y-54712952D01*
X137302761Y-54665333D01*
X137255142Y-54570095D01*
X137255142Y-54474857D01*
X137302761Y-54379619D01*
X137350380Y-54332000D01*
X137445619Y-54284380D01*
X137683714Y-54284380D01*
X137826571Y-54332000D01*
X138207523Y-54379619D02*
X138255142Y-54332000D01*
X138350380Y-54284380D01*
X138588476Y-54284380D01*
X138683714Y-54332000D01*
X138731333Y-54379619D01*
X138778952Y-54474857D01*
X138778952Y-54570095D01*
X138731333Y-54712952D01*
X138159904Y-55284380D01*
X138778952Y-55284380D01*
X139112285Y-54284380D02*
X139731333Y-54284380D01*
X139398000Y-54665333D01*
X139540857Y-54665333D01*
X139636095Y-54712952D01*
X139683714Y-54760571D01*
X139731333Y-54855809D01*
X139731333Y-55093904D01*
X139683714Y-55189142D01*
X139636095Y-55236761D01*
X139540857Y-55284380D01*
X139255142Y-55284380D01*
X139159904Y-55236761D01*
X139112285Y-55189142D01*
X140112285Y-54379619D02*
X140159904Y-54332000D01*
X140255142Y-54284380D01*
X140493238Y-54284380D01*
X140588476Y-54332000D01*
X140636095Y-54379619D01*
X140683714Y-54474857D01*
X140683714Y-54570095D01*
X140636095Y-54712952D01*
X140064666Y-55284380D01*
X140683714Y-55284380D01*
X105918095Y-40600380D02*
X106489523Y-40600380D01*
X106203809Y-41600380D02*
X106203809Y-40600380D01*
X106727619Y-40600380D02*
X107346666Y-40600380D01*
X107013333Y-40981333D01*
X107156190Y-40981333D01*
X107251428Y-41028952D01*
X107299047Y-41076571D01*
X107346666Y-41171809D01*
X107346666Y-41409904D01*
X107299047Y-41505142D01*
X107251428Y-41552761D01*
X107156190Y-41600380D01*
X106870476Y-41600380D01*
X106775238Y-41552761D01*
X106727619Y-41505142D01*
X99949428Y-42600380D02*
X100520857Y-42600380D01*
X100235142Y-43600380D02*
X100235142Y-42600380D01*
X100854190Y-43076571D02*
X101187523Y-43076571D01*
X101330380Y-43600380D02*
X100854190Y-43600380D01*
X100854190Y-42600380D01*
X101330380Y-42600380D01*
X101711333Y-43552761D02*
X101854190Y-43600380D01*
X102092285Y-43600380D01*
X102187523Y-43552761D01*
X102235142Y-43505142D01*
X102282761Y-43409904D01*
X102282761Y-43314666D01*
X102235142Y-43219428D01*
X102187523Y-43171809D01*
X102092285Y-43124190D01*
X101901809Y-43076571D01*
X101806571Y-43028952D01*
X101758952Y-42981333D01*
X101711333Y-42886095D01*
X101711333Y-42790857D01*
X101758952Y-42695619D01*
X101806571Y-42648000D01*
X101901809Y-42600380D01*
X102139904Y-42600380D01*
X102282761Y-42648000D01*
X102568476Y-42600380D02*
X103139904Y-42600380D01*
X102854190Y-43600380D02*
X102854190Y-42600380D01*
X103235142Y-43695619D02*
X103997047Y-43695619D01*
X104806571Y-43505142D02*
X104758952Y-43552761D01*
X104616095Y-43600380D01*
X104520857Y-43600380D01*
X104378000Y-43552761D01*
X104282761Y-43457523D01*
X104235142Y-43362285D01*
X104187523Y-43171809D01*
X104187523Y-43028952D01*
X104235142Y-42838476D01*
X104282761Y-42743238D01*
X104378000Y-42648000D01*
X104520857Y-42600380D01*
X104616095Y-42600380D01*
X104758952Y-42648000D01*
X104806571Y-42695619D01*
X105187523Y-43314666D02*
X105663714Y-43314666D01*
X105092285Y-43600380D02*
X105425619Y-42600380D01*
X105758952Y-43600380D01*
X106092285Y-43600380D02*
X106092285Y-42600380D01*
X106663714Y-43600380D01*
X106663714Y-42600380D01*
X118618095Y-83272380D02*
X119189523Y-83272380D01*
X118903809Y-84272380D02*
X118903809Y-83272380D01*
X119475238Y-83367619D02*
X119522857Y-83320000D01*
X119618095Y-83272380D01*
X119856190Y-83272380D01*
X119951428Y-83320000D01*
X119999047Y-83367619D01*
X120046666Y-83462857D01*
X120046666Y-83558095D01*
X119999047Y-83700952D01*
X119427619Y-84272380D01*
X120046666Y-84272380D01*
X112720857Y-81494380D02*
X113292285Y-81494380D01*
X113006571Y-82494380D02*
X113006571Y-81494380D01*
X113625619Y-81970571D02*
X113958952Y-81970571D01*
X114101809Y-82494380D02*
X113625619Y-82494380D01*
X113625619Y-81494380D01*
X114101809Y-81494380D01*
X114482761Y-82446761D02*
X114625619Y-82494380D01*
X114863714Y-82494380D01*
X114958952Y-82446761D01*
X115006571Y-82399142D01*
X115054190Y-82303904D01*
X115054190Y-82208666D01*
X115006571Y-82113428D01*
X114958952Y-82065809D01*
X114863714Y-82018190D01*
X114673238Y-81970571D01*
X114578000Y-81922952D01*
X114530380Y-81875333D01*
X114482761Y-81780095D01*
X114482761Y-81684857D01*
X114530380Y-81589619D01*
X114578000Y-81542000D01*
X114673238Y-81494380D01*
X114911333Y-81494380D01*
X115054190Y-81542000D01*
X115339904Y-81494380D02*
X115911333Y-81494380D01*
X115625619Y-82494380D02*
X115625619Y-81494380D01*
X116006571Y-82589619D02*
X116768476Y-82589619D01*
X116911333Y-81494380D02*
X117530380Y-81494380D01*
X117197047Y-81875333D01*
X117339904Y-81875333D01*
X117435142Y-81922952D01*
X117482761Y-81970571D01*
X117530380Y-82065809D01*
X117530380Y-82303904D01*
X117482761Y-82399142D01*
X117435142Y-82446761D01*
X117339904Y-82494380D01*
X117054190Y-82494380D01*
X116958952Y-82446761D01*
X116911333Y-82399142D01*
X117816095Y-81494380D02*
X118149428Y-82494380D01*
X118482761Y-81494380D01*
X118720857Y-81494380D02*
X119339904Y-81494380D01*
X119006571Y-81875333D01*
X119149428Y-81875333D01*
X119244666Y-81922952D01*
X119292285Y-81970571D01*
X119339904Y-82065809D01*
X119339904Y-82303904D01*
X119292285Y-82399142D01*
X119244666Y-82446761D01*
X119149428Y-82494380D01*
X118863714Y-82494380D01*
X118768476Y-82446761D01*
X118720857Y-82399142D01*
X156932380Y-99313904D02*
X156932380Y-98742476D01*
X157932380Y-99028190D02*
X156932380Y-99028190D01*
X157932380Y-97885333D02*
X157932380Y-98456761D01*
X157932380Y-98171047D02*
X156932380Y-98171047D01*
X157075238Y-98266285D01*
X157170476Y-98361523D01*
X157218095Y-98456761D01*
X154900380Y-105719142D02*
X154900380Y-105147714D01*
X155900380Y-105433428D02*
X154900380Y-105433428D01*
X155376571Y-104814380D02*
X155376571Y-104481047D01*
X155900380Y-104338190D02*
X155900380Y-104814380D01*
X154900380Y-104814380D01*
X154900380Y-104338190D01*
X155852761Y-103957238D02*
X155900380Y-103814380D01*
X155900380Y-103576285D01*
X155852761Y-103481047D01*
X155805142Y-103433428D01*
X155709904Y-103385809D01*
X155614666Y-103385809D01*
X155519428Y-103433428D01*
X155471809Y-103481047D01*
X155424190Y-103576285D01*
X155376571Y-103766761D01*
X155328952Y-103862000D01*
X155281333Y-103909619D01*
X155186095Y-103957238D01*
X155090857Y-103957238D01*
X154995619Y-103909619D01*
X154948000Y-103862000D01*
X154900380Y-103766761D01*
X154900380Y-103528666D01*
X154948000Y-103385809D01*
X154900380Y-103100095D02*
X154900380Y-102528666D01*
X155900380Y-102814380D02*
X154900380Y-102814380D01*
X155995619Y-102433428D02*
X155995619Y-101671523D01*
X155900380Y-100909619D02*
X155900380Y-101481047D01*
X155900380Y-101195333D02*
X154900380Y-101195333D01*
X155043238Y-101290571D01*
X155138476Y-101385809D01*
X155186095Y-101481047D01*
X154995619Y-100528666D02*
X154948000Y-100481047D01*
X154900380Y-100385809D01*
X154900380Y-100147714D01*
X154948000Y-100052476D01*
X154995619Y-100004857D01*
X155090857Y-99957238D01*
X155186095Y-99957238D01*
X155328952Y-100004857D01*
X155900380Y-100576285D01*
X155900380Y-99957238D01*
X154900380Y-99671523D02*
X155900380Y-99338190D01*
X154900380Y-99004857D01*
X102957333Y-47062380D02*
X102624000Y-46586190D01*
X102385904Y-47062380D02*
X102385904Y-46062380D01*
X102766857Y-46062380D01*
X102862095Y-46110000D01*
X102909714Y-46157619D01*
X102957333Y-46252857D01*
X102957333Y-46395714D01*
X102909714Y-46490952D01*
X102862095Y-46538571D01*
X102766857Y-46586190D01*
X102385904Y-46586190D01*
X103909714Y-47062380D02*
X103338285Y-47062380D01*
X103624000Y-47062380D02*
X103624000Y-46062380D01*
X103528761Y-46205238D01*
X103433523Y-46300476D01*
X103338285Y-46348095D01*
X102457333Y-50362380D02*
X101885904Y-50362380D01*
X102171619Y-50362380D02*
X102171619Y-49362380D01*
X102076380Y-49505238D01*
X101981142Y-49600476D01*
X101885904Y-49648095D01*
X102838285Y-49457619D02*
X102885904Y-49410000D01*
X102981142Y-49362380D01*
X103219238Y-49362380D01*
X103314476Y-49410000D01*
X103362095Y-49457619D01*
X103409714Y-49552857D01*
X103409714Y-49648095D01*
X103362095Y-49790952D01*
X102790666Y-50362380D01*
X103409714Y-50362380D01*
X104028761Y-49362380D02*
X104124000Y-49362380D01*
X104219238Y-49410000D01*
X104266857Y-49457619D01*
X104314476Y-49552857D01*
X104362095Y-49743333D01*
X104362095Y-49981428D01*
X104314476Y-50171904D01*
X104266857Y-50267142D01*
X104219238Y-50314761D01*
X104124000Y-50362380D01*
X104028761Y-50362380D01*
X103933523Y-50314761D01*
X103885904Y-50267142D01*
X103838285Y-50171904D01*
X103790666Y-49981428D01*
X103790666Y-49743333D01*
X103838285Y-49552857D01*
X103885904Y-49457619D01*
X103933523Y-49410000D01*
X104028761Y-49362380D01*
X181260380Y-96750095D02*
X180260380Y-96750095D01*
X180260380Y-96512000D01*
X180308000Y-96369142D01*
X180403238Y-96273904D01*
X180498476Y-96226285D01*
X180688952Y-96178666D01*
X180831809Y-96178666D01*
X181022285Y-96226285D01*
X181117523Y-96273904D01*
X181212761Y-96369142D01*
X181260380Y-96512000D01*
X181260380Y-96750095D01*
X181260380Y-95226285D02*
X181260380Y-95797714D01*
X181260380Y-95512000D02*
X180260380Y-95512000D01*
X180403238Y-95607238D01*
X180498476Y-95702476D01*
X180546095Y-95797714D01*
X176160380Y-97869142D02*
X176160380Y-98440571D01*
X176160380Y-98154857D02*
X175160380Y-98154857D01*
X175303238Y-98250095D01*
X175398476Y-98345333D01*
X175446095Y-98440571D01*
X175874666Y-97488190D02*
X175874666Y-97012000D01*
X176160380Y-97583428D02*
X175160380Y-97250095D01*
X176160380Y-96916761D01*
X175160380Y-95345333D02*
X175160380Y-95821523D01*
X175636571Y-95869142D01*
X175588952Y-95821523D01*
X175541333Y-95726285D01*
X175541333Y-95488190D01*
X175588952Y-95392952D01*
X175636571Y-95345333D01*
X175731809Y-95297714D01*
X175969904Y-95297714D01*
X176065142Y-95345333D01*
X176112761Y-95392952D01*
X176160380Y-95488190D01*
X176160380Y-95726285D01*
X176112761Y-95821523D01*
X176065142Y-95869142D01*
X175160380Y-94678666D02*
X175160380Y-94583428D01*
X175208000Y-94488190D01*
X175255619Y-94440571D01*
X175350857Y-94392952D01*
X175541333Y-94345333D01*
X175779428Y-94345333D01*
X175969904Y-94392952D01*
X176065142Y-94440571D01*
X176112761Y-94488190D01*
X176160380Y-94583428D01*
X176160380Y-94678666D01*
X176112761Y-94773904D01*
X176065142Y-94821523D01*
X175969904Y-94869142D01*
X175779428Y-94916761D01*
X175541333Y-94916761D01*
X175350857Y-94869142D01*
X175255619Y-94821523D01*
X175208000Y-94773904D01*
X175160380Y-94678666D01*
X175493714Y-94012000D02*
X176160380Y-93773904D01*
X175493714Y-93535809D01*
X189685142Y-39790666D02*
X189732761Y-39838285D01*
X189780380Y-39981142D01*
X189780380Y-40076380D01*
X189732761Y-40219238D01*
X189637523Y-40314476D01*
X189542285Y-40362095D01*
X189351809Y-40409714D01*
X189208952Y-40409714D01*
X189018476Y-40362095D01*
X188923238Y-40314476D01*
X188828000Y-40219238D01*
X188780380Y-40076380D01*
X188780380Y-39981142D01*
X188828000Y-39838285D01*
X188875619Y-39790666D01*
X189780380Y-39314476D02*
X189780380Y-39124000D01*
X189732761Y-39028761D01*
X189685142Y-38981142D01*
X189542285Y-38885904D01*
X189351809Y-38838285D01*
X188970857Y-38838285D01*
X188875619Y-38885904D01*
X188828000Y-38933523D01*
X188780380Y-39028761D01*
X188780380Y-39219238D01*
X188828000Y-39314476D01*
X188875619Y-39362095D01*
X188970857Y-39409714D01*
X189208952Y-39409714D01*
X189304190Y-39362095D01*
X189351809Y-39314476D01*
X189399428Y-39219238D01*
X189399428Y-39028761D01*
X189351809Y-38933523D01*
X189304190Y-38885904D01*
X189208952Y-38838285D01*
X192140380Y-41743047D02*
X192140380Y-41647809D01*
X192188000Y-41552571D01*
X192235619Y-41504952D01*
X192330857Y-41457333D01*
X192521333Y-41409714D01*
X192759428Y-41409714D01*
X192949904Y-41457333D01*
X193045142Y-41504952D01*
X193092761Y-41552571D01*
X193140380Y-41647809D01*
X193140380Y-41743047D01*
X193092761Y-41838285D01*
X193045142Y-41885904D01*
X192949904Y-41933523D01*
X192759428Y-41981142D01*
X192521333Y-41981142D01*
X192330857Y-41933523D01*
X192235619Y-41885904D01*
X192188000Y-41838285D01*
X192140380Y-41743047D01*
X193045142Y-40981142D02*
X193092761Y-40933523D01*
X193140380Y-40981142D01*
X193092761Y-41028761D01*
X193045142Y-40981142D01*
X193140380Y-40981142D01*
X192140380Y-40314476D02*
X192140380Y-40219238D01*
X192188000Y-40124000D01*
X192235619Y-40076380D01*
X192330857Y-40028761D01*
X192521333Y-39981142D01*
X192759428Y-39981142D01*
X192949904Y-40028761D01*
X193045142Y-40076380D01*
X193092761Y-40124000D01*
X193140380Y-40219238D01*
X193140380Y-40314476D01*
X193092761Y-40409714D01*
X193045142Y-40457333D01*
X192949904Y-40504952D01*
X192759428Y-40552571D01*
X192521333Y-40552571D01*
X192330857Y-40504952D01*
X192235619Y-40457333D01*
X192188000Y-40409714D01*
X192140380Y-40314476D01*
X193140380Y-39028761D02*
X193140380Y-39600190D01*
X193140380Y-39314476D02*
X192140380Y-39314476D01*
X192283238Y-39409714D01*
X192378476Y-39504952D01*
X192426095Y-39600190D01*
X192473714Y-38171619D02*
X193140380Y-38171619D01*
X192473714Y-38600190D02*
X192997523Y-38600190D01*
X193092761Y-38552571D01*
X193140380Y-38457333D01*
X193140380Y-38314476D01*
X193092761Y-38219238D01*
X193045142Y-38171619D01*
X192616571Y-37362095D02*
X192616571Y-37695428D01*
X193140380Y-37695428D02*
X192140380Y-37695428D01*
X192140380Y-37219238D01*
X166473142Y-41536857D02*
X166520761Y-41584476D01*
X166568380Y-41727333D01*
X166568380Y-41822571D01*
X166520761Y-41965428D01*
X166425523Y-42060666D01*
X166330285Y-42108285D01*
X166139809Y-42155904D01*
X165996952Y-42155904D01*
X165806476Y-42108285D01*
X165711238Y-42060666D01*
X165616000Y-41965428D01*
X165568380Y-41822571D01*
X165568380Y-41727333D01*
X165616000Y-41584476D01*
X165663619Y-41536857D01*
X166568380Y-40584476D02*
X166568380Y-41155904D01*
X166568380Y-40870190D02*
X165568380Y-40870190D01*
X165711238Y-40965428D01*
X165806476Y-41060666D01*
X165854095Y-41155904D01*
X165568380Y-39965428D02*
X165568380Y-39870190D01*
X165616000Y-39774952D01*
X165663619Y-39727333D01*
X165758857Y-39679714D01*
X165949333Y-39632095D01*
X166187428Y-39632095D01*
X166377904Y-39679714D01*
X166473142Y-39727333D01*
X166520761Y-39774952D01*
X166568380Y-39870190D01*
X166568380Y-39965428D01*
X166520761Y-40060666D01*
X166473142Y-40108285D01*
X166377904Y-40155904D01*
X166187428Y-40203523D01*
X165949333Y-40203523D01*
X165758857Y-40155904D01*
X165663619Y-40108285D01*
X165616000Y-40060666D01*
X165568380Y-39965428D01*
X161885380Y-43013047D02*
X161885380Y-42917809D01*
X161933000Y-42822571D01*
X161980619Y-42774952D01*
X162075857Y-42727333D01*
X162266333Y-42679714D01*
X162504428Y-42679714D01*
X162694904Y-42727333D01*
X162790142Y-42774952D01*
X162837761Y-42822571D01*
X162885380Y-42917809D01*
X162885380Y-43013047D01*
X162837761Y-43108285D01*
X162790142Y-43155904D01*
X162694904Y-43203523D01*
X162504428Y-43251142D01*
X162266333Y-43251142D01*
X162075857Y-43203523D01*
X161980619Y-43155904D01*
X161933000Y-43108285D01*
X161885380Y-43013047D01*
X162790142Y-42251142D02*
X162837761Y-42203523D01*
X162885380Y-42251142D01*
X162837761Y-42298761D01*
X162790142Y-42251142D01*
X162885380Y-42251142D01*
X161885380Y-41584476D02*
X161885380Y-41489238D01*
X161933000Y-41394000D01*
X161980619Y-41346380D01*
X162075857Y-41298761D01*
X162266333Y-41251142D01*
X162504428Y-41251142D01*
X162694904Y-41298761D01*
X162790142Y-41346380D01*
X162837761Y-41394000D01*
X162885380Y-41489238D01*
X162885380Y-41584476D01*
X162837761Y-41679714D01*
X162790142Y-41727333D01*
X162694904Y-41774952D01*
X162504428Y-41822571D01*
X162266333Y-41822571D01*
X162075857Y-41774952D01*
X161980619Y-41727333D01*
X161933000Y-41679714D01*
X161885380Y-41584476D01*
X162885380Y-40298761D02*
X162885380Y-40870190D01*
X162885380Y-40584476D02*
X161885380Y-40584476D01*
X162028238Y-40679714D01*
X162123476Y-40774952D01*
X162171095Y-40870190D01*
X162218714Y-39441619D02*
X162885380Y-39441619D01*
X162218714Y-39870190D02*
X162742523Y-39870190D01*
X162837761Y-39822571D01*
X162885380Y-39727333D01*
X162885380Y-39584476D01*
X162837761Y-39489238D01*
X162790142Y-39441619D01*
X162361571Y-38632095D02*
X162361571Y-38965428D01*
X162885380Y-38965428D02*
X161885380Y-38965428D01*
X161885380Y-38489238D01*
X144867333Y-50493142D02*
X144819714Y-50540761D01*
X144676857Y-50588380D01*
X144581619Y-50588380D01*
X144438761Y-50540761D01*
X144343523Y-50445523D01*
X144295904Y-50350285D01*
X144248285Y-50159809D01*
X144248285Y-50016952D01*
X144295904Y-49826476D01*
X144343523Y-49731238D01*
X144438761Y-49636000D01*
X144581619Y-49588380D01*
X144676857Y-49588380D01*
X144819714Y-49636000D01*
X144867333Y-49683619D01*
X145724476Y-49588380D02*
X145534000Y-49588380D01*
X145438761Y-49636000D01*
X145391142Y-49683619D01*
X145295904Y-49826476D01*
X145248285Y-50016952D01*
X145248285Y-50397904D01*
X145295904Y-50493142D01*
X145343523Y-50540761D01*
X145438761Y-50588380D01*
X145629238Y-50588380D01*
X145724476Y-50540761D01*
X145772095Y-50493142D01*
X145819714Y-50397904D01*
X145819714Y-50159809D01*
X145772095Y-50064571D01*
X145724476Y-50016952D01*
X145629238Y-49969333D01*
X145438761Y-49969333D01*
X145343523Y-50016952D01*
X145295904Y-50064571D01*
X145248285Y-50159809D01*
X143391142Y-52948380D02*
X143486380Y-52948380D01*
X143581619Y-52996000D01*
X143629238Y-53043619D01*
X143676857Y-53138857D01*
X143724476Y-53329333D01*
X143724476Y-53567428D01*
X143676857Y-53757904D01*
X143629238Y-53853142D01*
X143581619Y-53900761D01*
X143486380Y-53948380D01*
X143391142Y-53948380D01*
X143295904Y-53900761D01*
X143248285Y-53853142D01*
X143200666Y-53757904D01*
X143153047Y-53567428D01*
X143153047Y-53329333D01*
X143200666Y-53138857D01*
X143248285Y-53043619D01*
X143295904Y-52996000D01*
X143391142Y-52948380D01*
X144153047Y-53853142D02*
X144200666Y-53900761D01*
X144153047Y-53948380D01*
X144105428Y-53900761D01*
X144153047Y-53853142D01*
X144153047Y-53948380D01*
X145153047Y-53948380D02*
X144581619Y-53948380D01*
X144867333Y-53948380D02*
X144867333Y-52948380D01*
X144772095Y-53091238D01*
X144676857Y-53186476D01*
X144581619Y-53234095D01*
X146010190Y-53281714D02*
X146010190Y-53948380D01*
X145581619Y-53281714D02*
X145581619Y-53805523D01*
X145629238Y-53900761D01*
X145724476Y-53948380D01*
X145867333Y-53948380D01*
X145962571Y-53900761D01*
X146010190Y-53853142D01*
X146819714Y-53424571D02*
X146486380Y-53424571D01*
X146486380Y-53948380D02*
X146486380Y-52948380D01*
X146962571Y-52948380D01*
X149947333Y-50395142D02*
X149899714Y-50442761D01*
X149756857Y-50490380D01*
X149661619Y-50490380D01*
X149518761Y-50442761D01*
X149423523Y-50347523D01*
X149375904Y-50252285D01*
X149328285Y-50061809D01*
X149328285Y-49918952D01*
X149375904Y-49728476D01*
X149423523Y-49633238D01*
X149518761Y-49538000D01*
X149661619Y-49490380D01*
X149756857Y-49490380D01*
X149899714Y-49538000D01*
X149947333Y-49585619D01*
X150852095Y-49490380D02*
X150375904Y-49490380D01*
X150328285Y-49966571D01*
X150375904Y-49918952D01*
X150471142Y-49871333D01*
X150709238Y-49871333D01*
X150804476Y-49918952D01*
X150852095Y-49966571D01*
X150899714Y-50061809D01*
X150899714Y-50299904D01*
X150852095Y-50395142D01*
X150804476Y-50442761D01*
X150709238Y-50490380D01*
X150471142Y-50490380D01*
X150375904Y-50442761D01*
X150328285Y-50395142D01*
X148471142Y-53173380D02*
X148566380Y-53173380D01*
X148661619Y-53221000D01*
X148709238Y-53268619D01*
X148756857Y-53363857D01*
X148804476Y-53554333D01*
X148804476Y-53792428D01*
X148756857Y-53982904D01*
X148709238Y-54078142D01*
X148661619Y-54125761D01*
X148566380Y-54173380D01*
X148471142Y-54173380D01*
X148375904Y-54125761D01*
X148328285Y-54078142D01*
X148280666Y-53982904D01*
X148233047Y-53792428D01*
X148233047Y-53554333D01*
X148280666Y-53363857D01*
X148328285Y-53268619D01*
X148375904Y-53221000D01*
X148471142Y-53173380D01*
X149233047Y-54078142D02*
X149280666Y-54125761D01*
X149233047Y-54173380D01*
X149185428Y-54125761D01*
X149233047Y-54078142D01*
X149233047Y-54173380D01*
X150233047Y-54173380D02*
X149661619Y-54173380D01*
X149947333Y-54173380D02*
X149947333Y-53173380D01*
X149852095Y-53316238D01*
X149756857Y-53411476D01*
X149661619Y-53459095D01*
X151090190Y-53506714D02*
X151090190Y-54173380D01*
X150661619Y-53506714D02*
X150661619Y-54030523D01*
X150709238Y-54125761D01*
X150804476Y-54173380D01*
X150947333Y-54173380D01*
X151042571Y-54125761D01*
X151090190Y-54078142D01*
X151899714Y-53649571D02*
X151566380Y-53649571D01*
X151566380Y-54173380D02*
X151566380Y-53173380D01*
X152042571Y-53173380D01*
X141991142Y-41568666D02*
X142038761Y-41616285D01*
X142086380Y-41759142D01*
X142086380Y-41854380D01*
X142038761Y-41997238D01*
X141943523Y-42092476D01*
X141848285Y-42140095D01*
X141657809Y-42187714D01*
X141514952Y-42187714D01*
X141324476Y-42140095D01*
X141229238Y-42092476D01*
X141134000Y-41997238D01*
X141086380Y-41854380D01*
X141086380Y-41759142D01*
X141134000Y-41616285D01*
X141181619Y-41568666D01*
X141419714Y-40711523D02*
X142086380Y-40711523D01*
X141038761Y-40949619D02*
X141753047Y-41187714D01*
X141753047Y-40568666D01*
X137501380Y-43044857D02*
X137501380Y-42949619D01*
X137549000Y-42854380D01*
X137596619Y-42806761D01*
X137691857Y-42759142D01*
X137882333Y-42711523D01*
X138120428Y-42711523D01*
X138310904Y-42759142D01*
X138406142Y-42806761D01*
X138453761Y-42854380D01*
X138501380Y-42949619D01*
X138501380Y-43044857D01*
X138453761Y-43140095D01*
X138406142Y-43187714D01*
X138310904Y-43235333D01*
X138120428Y-43282952D01*
X137882333Y-43282952D01*
X137691857Y-43235333D01*
X137596619Y-43187714D01*
X137549000Y-43140095D01*
X137501380Y-43044857D01*
X138406142Y-42282952D02*
X138453761Y-42235333D01*
X138501380Y-42282952D01*
X138453761Y-42330571D01*
X138406142Y-42282952D01*
X138501380Y-42282952D01*
X138501380Y-41282952D02*
X138501380Y-41854380D01*
X138501380Y-41568666D02*
X137501380Y-41568666D01*
X137644238Y-41663904D01*
X137739476Y-41759142D01*
X137787095Y-41854380D01*
X137834714Y-40425809D02*
X138501380Y-40425809D01*
X137834714Y-40854380D02*
X138358523Y-40854380D01*
X138453761Y-40806761D01*
X138501380Y-40711523D01*
X138501380Y-40568666D01*
X138453761Y-40473428D01*
X138406142Y-40425809D01*
X137977571Y-39616285D02*
X137977571Y-39949619D01*
X138501380Y-39949619D02*
X137501380Y-39949619D01*
X137501380Y-39473428D01*
X142089142Y-46648666D02*
X142136761Y-46696285D01*
X142184380Y-46839142D01*
X142184380Y-46934380D01*
X142136761Y-47077238D01*
X142041523Y-47172476D01*
X141946285Y-47220095D01*
X141755809Y-47267714D01*
X141612952Y-47267714D01*
X141422476Y-47220095D01*
X141327238Y-47172476D01*
X141232000Y-47077238D01*
X141184380Y-46934380D01*
X141184380Y-46839142D01*
X141232000Y-46696285D01*
X141279619Y-46648666D01*
X141184380Y-46315333D02*
X141184380Y-45696285D01*
X141565333Y-46029619D01*
X141565333Y-45886761D01*
X141612952Y-45791523D01*
X141660571Y-45743904D01*
X141755809Y-45696285D01*
X141993904Y-45696285D01*
X142089142Y-45743904D01*
X142136761Y-45791523D01*
X142184380Y-45886761D01*
X142184380Y-46172476D01*
X142136761Y-46267714D01*
X142089142Y-46315333D01*
X137501380Y-48124857D02*
X137501380Y-48029619D01*
X137549000Y-47934380D01*
X137596619Y-47886761D01*
X137691857Y-47839142D01*
X137882333Y-47791523D01*
X138120428Y-47791523D01*
X138310904Y-47839142D01*
X138406142Y-47886761D01*
X138453761Y-47934380D01*
X138501380Y-48029619D01*
X138501380Y-48124857D01*
X138453761Y-48220095D01*
X138406142Y-48267714D01*
X138310904Y-48315333D01*
X138120428Y-48362952D01*
X137882333Y-48362952D01*
X137691857Y-48315333D01*
X137596619Y-48267714D01*
X137549000Y-48220095D01*
X137501380Y-48124857D01*
X138406142Y-47362952D02*
X138453761Y-47315333D01*
X138501380Y-47362952D01*
X138453761Y-47410571D01*
X138406142Y-47362952D01*
X138501380Y-47362952D01*
X138501380Y-46362952D02*
X138501380Y-46934380D01*
X138501380Y-46648666D02*
X137501380Y-46648666D01*
X137644238Y-46743904D01*
X137739476Y-46839142D01*
X137787095Y-46934380D01*
X137834714Y-45505809D02*
X138501380Y-45505809D01*
X137834714Y-45934380D02*
X138358523Y-45934380D01*
X138453761Y-45886761D01*
X138501380Y-45791523D01*
X138501380Y-45648666D01*
X138453761Y-45553428D01*
X138406142Y-45505809D01*
X137977571Y-44696285D02*
X137977571Y-45029619D01*
X138501380Y-45029619D02*
X137501380Y-45029619D01*
X137501380Y-44553428D01*
X189685142Y-46140666D02*
X189732761Y-46188285D01*
X189780380Y-46331142D01*
X189780380Y-46426380D01*
X189732761Y-46569238D01*
X189637523Y-46664476D01*
X189542285Y-46712095D01*
X189351809Y-46759714D01*
X189208952Y-46759714D01*
X189018476Y-46712095D01*
X188923238Y-46664476D01*
X188828000Y-46569238D01*
X188780380Y-46426380D01*
X188780380Y-46331142D01*
X188828000Y-46188285D01*
X188875619Y-46140666D01*
X188875619Y-45759714D02*
X188828000Y-45712095D01*
X188780380Y-45616857D01*
X188780380Y-45378761D01*
X188828000Y-45283523D01*
X188875619Y-45235904D01*
X188970857Y-45188285D01*
X189066095Y-45188285D01*
X189208952Y-45235904D01*
X189780380Y-45807333D01*
X189780380Y-45188285D01*
X192140380Y-47616857D02*
X192140380Y-47521619D01*
X192188000Y-47426380D01*
X192235619Y-47378761D01*
X192330857Y-47331142D01*
X192521333Y-47283523D01*
X192759428Y-47283523D01*
X192949904Y-47331142D01*
X193045142Y-47378761D01*
X193092761Y-47426380D01*
X193140380Y-47521619D01*
X193140380Y-47616857D01*
X193092761Y-47712095D01*
X193045142Y-47759714D01*
X192949904Y-47807333D01*
X192759428Y-47854952D01*
X192521333Y-47854952D01*
X192330857Y-47807333D01*
X192235619Y-47759714D01*
X192188000Y-47712095D01*
X192140380Y-47616857D01*
X193045142Y-46854952D02*
X193092761Y-46807333D01*
X193140380Y-46854952D01*
X193092761Y-46902571D01*
X193045142Y-46854952D01*
X193140380Y-46854952D01*
X193140380Y-45854952D02*
X193140380Y-46426380D01*
X193140380Y-46140666D02*
X192140380Y-46140666D01*
X192283238Y-46235904D01*
X192378476Y-46331142D01*
X192426095Y-46426380D01*
X192473714Y-44997809D02*
X193140380Y-44997809D01*
X192473714Y-45426380D02*
X192997523Y-45426380D01*
X193092761Y-45378761D01*
X193140380Y-45283523D01*
X193140380Y-45140666D01*
X193092761Y-45045428D01*
X193045142Y-44997809D01*
X192616571Y-44188285D02*
X192616571Y-44521619D01*
X193140380Y-44521619D02*
X192140380Y-44521619D01*
X192140380Y-44045428D01*
X166473142Y-46775666D02*
X166520761Y-46823285D01*
X166568380Y-46966142D01*
X166568380Y-47061380D01*
X166520761Y-47204238D01*
X166425523Y-47299476D01*
X166330285Y-47347095D01*
X166139809Y-47394714D01*
X165996952Y-47394714D01*
X165806476Y-47347095D01*
X165711238Y-47299476D01*
X165616000Y-47204238D01*
X165568380Y-47061380D01*
X165568380Y-46966142D01*
X165616000Y-46823285D01*
X165663619Y-46775666D01*
X166568380Y-45823285D02*
X166568380Y-46394714D01*
X166568380Y-46109000D02*
X165568380Y-46109000D01*
X165711238Y-46204238D01*
X165806476Y-46299476D01*
X165854095Y-46394714D01*
X161885380Y-48251857D02*
X161885380Y-48156619D01*
X161933000Y-48061380D01*
X161980619Y-48013761D01*
X162075857Y-47966142D01*
X162266333Y-47918523D01*
X162504428Y-47918523D01*
X162694904Y-47966142D01*
X162790142Y-48013761D01*
X162837761Y-48061380D01*
X162885380Y-48156619D01*
X162885380Y-48251857D01*
X162837761Y-48347095D01*
X162790142Y-48394714D01*
X162694904Y-48442333D01*
X162504428Y-48489952D01*
X162266333Y-48489952D01*
X162075857Y-48442333D01*
X161980619Y-48394714D01*
X161933000Y-48347095D01*
X161885380Y-48251857D01*
X162790142Y-47489952D02*
X162837761Y-47442333D01*
X162885380Y-47489952D01*
X162837761Y-47537571D01*
X162790142Y-47489952D01*
X162885380Y-47489952D01*
X162885380Y-46489952D02*
X162885380Y-47061380D01*
X162885380Y-46775666D02*
X161885380Y-46775666D01*
X162028238Y-46870904D01*
X162123476Y-46966142D01*
X162171095Y-47061380D01*
X162218714Y-45632809D02*
X162885380Y-45632809D01*
X162218714Y-46061380D02*
X162742523Y-46061380D01*
X162837761Y-46013761D01*
X162885380Y-45918523D01*
X162885380Y-45775666D01*
X162837761Y-45680428D01*
X162790142Y-45632809D01*
X162361571Y-44823285D02*
X162361571Y-45156619D01*
X162885380Y-45156619D02*
X161885380Y-45156619D01*
X161885380Y-44680428D01*
M02*
