M48
INCH,TZ
T1C0.1000
T2C0.1181
T3C0.1339
%
G90
G05
T1
X59600Y-25300
X59600Y-32300
X77600Y-25300
X77600Y-32300
T2
X26024Y-55374
X35000Y-55374
X41378Y-55374
X48878Y-55374
X56378Y-55374
X63878Y-55374
X71378Y-55374
T3
X24000Y-9687
X26000Y-9687
X28500Y-9687
X30500Y-9687
X33000Y-9687
X35000Y-9687
X37500Y-9687
X39500Y-9687
X42000Y-9687
X44000Y-9687
X46500Y-9687
X48500Y-9687
X65500Y-9687
X68500Y-9687
X71000Y-9687
X74000Y-9687
T0
M30
