M48
INCH,TZ
T1C0.0157
T2C0.0315
T3C0.0394
T4C0.0402
T5C0.0429
T6C0.0433
T7C0.0701
T8C0.0709
T9C0.1260
T10C0.1299
%
G90
G05
T1
X38600Y-26800
X39200Y-27800
X41400Y-27200
X42000Y-26800
X45517Y-28317
X45600Y-25000
X45600Y-27800
X46600Y-13800
X47509Y-23200
X49600Y-30400
X51800Y-27800
X55400Y-28400
X55600Y-18200
X55800Y-16800
X57602Y-17802
X58200Y-13600
X58200Y-17800
X61600Y-22200
X65400Y-14600
X67600Y-14200
X68000Y-18400
X71600Y-19800
X72400Y-20600
X72665Y-14600
X72800Y-19200
X75000Y-14600
T2
X34600Y-25200
X39000Y-21600
X40200Y-16200
X41200Y-16200
X42000Y-21600
X45200Y-33050
X46200Y-33050
X46200Y-34200
X47200Y-18600
X52400Y-17600
X53200Y-20800
X54200Y-20800
X57200Y-15400
X62000Y-39800
X62000Y-40800
X63000Y-18600
X66200Y-14800
X70800Y-18800
X74200Y-18800
X75800Y-35200
T3
X21600Y-20200
X21600Y-21200
X21600Y-22200
X21600Y-23200
X21600Y-24200
X21600Y-25200
X21600Y-26200
X21600Y-27200
X61099Y-34378
X62099Y-34378
X62100Y-23034
X63099Y-34378
X63100Y-23034
X64099Y-34378
X64100Y-23034
X65099Y-34378
X65100Y-23034
X66099Y-34378
X66100Y-23034
X67099Y-34378
X67100Y-23034
X68099Y-34378
X68100Y-23034
X69099Y-34378
X69100Y-23034
X70099Y-34378
X70100Y-23034
X71099Y-34378
X71100Y-23034
X72099Y-34378
X72100Y-23034
X73100Y-23034
X74100Y-23034
X75100Y-23034
X76186Y-23034
T4
X61100Y-24800
X61100Y-32800
X62100Y-24800
X62100Y-32800
X63100Y-24800
X63100Y-32800
X64100Y-24800
X64100Y-32800
X65100Y-24800
X65100Y-32800
X66100Y-24800
X66100Y-32800
X67100Y-24800
X67100Y-32800
X68100Y-24800
X68100Y-32800
X69100Y-24800
X69100Y-32800
X70100Y-24800
X70100Y-32800
X71100Y-24800
X71100Y-32800
X72100Y-24800
X72100Y-32800
X73100Y-24800
X74100Y-24800
X75100Y-24800
X76100Y-24800
T5
X24500Y-13089
X25500Y-13089
X29000Y-13089
X30000Y-13089
X33500Y-13089
X34500Y-13089
X38000Y-13089
X39000Y-13089
X42500Y-13089
X43500Y-13089
X47000Y-13089
X48000Y-13089
X66000Y-13089
X67000Y-13089
X68000Y-13089
X71500Y-13089
X72500Y-13089
X73500Y-13089
T6
X55043Y-12646
X55582Y-11646
X56121Y-12646
X56661Y-11646
X57200Y-12646
X57739Y-11646
X58279Y-12646
X58818Y-11646
X59357Y-12646
T7
X65494Y-43261
X65494Y-44600
X69400Y-43261
X69400Y-44600
T8
X26024Y-50335
X26024Y-52500
X28268Y-50335
X28268Y-52500
X30512Y-50335
X30512Y-52500
X32756Y-50335
X32756Y-52500
X35000Y-50335
X35000Y-52500
X40256Y-52500
X42500Y-52500
X47756Y-52500
X50000Y-52500
X55256Y-52500
X57500Y-52500
X62756Y-52500
X65000Y-52500
X70256Y-50335
X70256Y-52500
X72500Y-50335
X72500Y-52500
T9
X21654Y-9843
X21654Y-57087
X52279Y-12146
X62121Y-12146
X76772Y-9843
X76772Y-57087
T10
X22100Y-16700
X22100Y-30700
X36100Y-16700
X36100Y-30700
T0
M30
