M48
; DRILL file {KiCad (5.1.9-0-10_14)} date Wednesday, September 08, 2021 at 04:00:28 PM
; FORMAT={-:-/ absolute / inch / decimal}
; #@! TF.CreationDate,2021-09-08T16:00:28-07:00
; #@! TF.GenerationSoftware,Kicad,Pcbnew,(5.1.9-0-10_14)
FMAT,2
INCH
T1C0.0157
T2C0.0315
T3C0.0394
T4C0.0402
T5C0.0429
T6C0.0433
T7C0.0701
T8C0.0709
T9C0.1260
T10C0.1299
T11C0.1000
T12C0.1181
T13C0.1339
%
G90
G05
T1
X3.86Y-2.68
X3.92Y-2.78
X4.14Y-2.72
X4.2Y-2.68
X4.5517Y-2.8317
X4.56Y-2.5
X4.56Y-2.78
X4.58Y-3.06
X4.66Y-1.38
X4.7509Y-2.32
X4.88Y-3.24
X5.18Y-2.78
X5.54Y-2.84
X5.56Y-1.82
X5.58Y-1.68
X5.7602Y-1.7802
X5.82Y-1.36
X5.82Y-1.78
X6.16Y-2.22
X6.54Y-1.46
X6.76Y-1.42
X6.8Y-1.84
X7.16Y-1.98
X7.24Y-2.06
X7.2665Y-1.46
X7.28Y-1.92
X7.5Y-1.46
T2
X3.46Y-2.52
X3.52Y-3.34
X3.52Y-3.44
X3.76Y-3.34
X3.76Y-3.44
X3.9Y-2.16
X4.0Y-3.34
X4.0Y-3.44
X4.02Y-1.62
X4.12Y-1.62
X4.2Y-2.16
X4.52Y-3.305
X4.62Y-3.305
X4.62Y-3.42
X4.72Y-1.86
X5.24Y-1.76
X5.24Y-3.56
X5.32Y-2.08
X5.38Y-3.24
X5.42Y-2.08
X5.72Y-1.54
X6.2Y-3.98
X6.2Y-4.08
X6.3Y-1.86
X6.62Y-1.48
X7.08Y-1.88
X7.42Y-1.88
X7.58Y-3.52
T3
X2.16Y-2.02
X2.16Y-2.12
X2.16Y-2.22
X2.16Y-2.32
X2.16Y-2.42
X2.16Y-2.52
X2.16Y-2.62
X2.16Y-2.72
X6.1099Y-3.4378
X6.2099Y-3.4378
X6.21Y-2.3034
X6.3099Y-3.4378
X6.31Y-2.3034
X6.4099Y-3.4378
X6.41Y-2.3034
X6.5099Y-3.4378
X6.51Y-2.3034
X6.6099Y-3.4378
X6.61Y-2.3034
X6.7099Y-3.4378
X6.71Y-2.3034
X6.8099Y-3.4378
X6.81Y-2.3034
X6.9099Y-3.4378
X6.91Y-2.3034
X7.0099Y-3.4378
X7.01Y-2.3034
X7.1099Y-3.4378
X7.11Y-2.3034
X7.2099Y-3.4378
X7.21Y-2.3034
X7.31Y-2.3034
X7.41Y-2.3034
X7.51Y-2.3034
X7.6186Y-2.3034
T4
X6.11Y-2.48
X6.11Y-3.28
X6.21Y-2.48
X6.21Y-3.28
X6.31Y-2.48
X6.31Y-3.28
X6.41Y-2.48
X6.41Y-3.28
X6.51Y-2.48
X6.51Y-3.28
X6.61Y-2.48
X6.61Y-3.28
X6.71Y-2.48
X6.71Y-3.28
X6.81Y-2.48
X6.81Y-3.28
X6.91Y-2.48
X6.91Y-3.28
X7.01Y-2.48
X7.01Y-3.28
X7.11Y-2.48
X7.11Y-3.28
X7.21Y-2.48
X7.21Y-3.28
X7.31Y-2.48
X7.41Y-2.48
X7.51Y-2.48
X7.61Y-2.48
T5
X2.45Y-1.3089
X2.55Y-1.3089
X2.9Y-1.3089
X3.0Y-1.3089
X3.35Y-1.3089
X3.45Y-1.3089
X3.8Y-1.3089
X3.9Y-1.3089
X4.25Y-1.3089
X4.35Y-1.3089
X4.7Y-1.3089
X4.8Y-1.3089
X6.6Y-1.3089
X6.7Y-1.3089
X6.8Y-1.3089
X7.15Y-1.3089
X7.25Y-1.3089
X7.35Y-1.3089
T6
X5.5043Y-1.2646
X5.5582Y-1.1646
X5.6121Y-1.2646
X5.6661Y-1.1646
X5.72Y-1.2646
X5.7739Y-1.1646
X5.8279Y-1.2646
X5.8818Y-1.1646
X5.9357Y-1.2646
T7
X6.5494Y-4.3261
X6.5494Y-4.46
X6.94Y-4.3261
X6.94Y-4.46
T8
X2.6024Y-5.0335
X2.6024Y-5.25
X2.8268Y-5.0335
X2.8268Y-5.25
X3.0512Y-5.0335
X3.0512Y-5.25
X3.2756Y-5.0335
X3.2756Y-5.25
X3.5Y-5.0335
X3.5Y-5.25
X4.0256Y-5.25
X4.25Y-5.25
X4.7756Y-5.25
X5.0Y-5.25
X5.5256Y-5.25
X5.75Y-5.25
X6.2756Y-5.25
X6.5Y-5.25
X7.0256Y-5.0335
X7.0256Y-5.25
X7.25Y-5.0335
X7.25Y-5.25
T9
X2.1654Y-0.9843
X2.1654Y-5.7087
X5.2279Y-1.2146
X6.2121Y-1.2146
X7.6772Y-0.9843
X7.6772Y-5.7087
T10
X2.21Y-1.67
X2.21Y-3.07
X3.61Y-1.67
X3.61Y-3.07
T11
X5.96Y-2.53
X5.96Y-3.23
X7.76Y-2.53
X7.76Y-3.23
T12
X2.6024Y-5.5374
X3.5Y-5.5374
X4.1378Y-5.5374
X4.8878Y-5.5374
X5.6378Y-5.5374
X6.3878Y-5.5374
X7.1378Y-5.5374
T13
X2.4Y-0.9687
X2.6Y-0.9687
X2.85Y-0.9687
X3.05Y-0.9687
X3.3Y-0.9687
X3.5Y-0.9687
X3.75Y-0.9687
X3.95Y-0.9687
X4.2Y-0.9687
X4.4Y-0.9687
X4.65Y-0.9687
X4.85Y-0.9687
X6.55Y-0.9687
X6.85Y-0.9687
X7.1Y-0.9687
X7.4Y-0.9687
T0
M30
