G04 #@! TF.GenerationSoftware,KiCad,Pcbnew,(5.1.9-0-10_14)*
G04 #@! TF.CreationDate,2021-09-08T16:00:18-07:00*
G04 #@! TF.ProjectId,telemetry-pcb,74656c65-6d65-4747-9279-2d7063622e6b,rev?*
G04 #@! TF.SameCoordinates,Original*
G04 #@! TF.FileFunction,Legend,Bot*
G04 #@! TF.FilePolarity,Positive*
%FSLAX46Y46*%
G04 Gerber Fmt 4.6, Leading zero omitted, Abs format (unit mm)*
G04 Created by KiCad (PCBNEW (5.1.9-0-10_14)) date 2021-09-08 16:00:18*
%MOMM*%
%LPD*%
G01*
G04 APERTURE LIST*
%ADD10C,0.500000*%
%ADD11C,0.010000*%
G04 APERTURE END LIST*
D10*
X188363971Y-44989976D02*
X188173495Y-44799500D01*
X187792542Y-44609023D01*
X186840161Y-44609023D01*
X186459209Y-44799500D01*
X186268733Y-44989976D01*
X186078257Y-45370928D01*
X186078257Y-45751880D01*
X186268733Y-46323309D01*
X188554447Y-48609023D01*
X186078257Y-48609023D01*
X183602066Y-44609023D02*
X183221114Y-44609023D01*
X182840161Y-44799500D01*
X182649685Y-44989976D01*
X182459209Y-45370928D01*
X182268733Y-46132833D01*
X182268733Y-47085214D01*
X182459209Y-47847119D01*
X182649685Y-48228071D01*
X182840161Y-48418547D01*
X183221114Y-48609023D01*
X183602066Y-48609023D01*
X183983019Y-48418547D01*
X184173495Y-48228071D01*
X184363971Y-47847119D01*
X184554447Y-47085214D01*
X184554447Y-46132833D01*
X184363971Y-45370928D01*
X184173495Y-44989976D01*
X183983019Y-44799500D01*
X183602066Y-44609023D01*
X180744923Y-44989976D02*
X180554447Y-44799500D01*
X180173495Y-44609023D01*
X179221114Y-44609023D01*
X178840161Y-44799500D01*
X178649685Y-44989976D01*
X178459209Y-45370928D01*
X178459209Y-45751880D01*
X178649685Y-46323309D01*
X180935400Y-48609023D01*
X178459209Y-48609023D01*
X174649685Y-48609023D02*
X176935400Y-48609023D01*
X175792542Y-48609023D02*
X175792542Y-44609023D01*
X176173495Y-45180452D01*
X176554447Y-45561404D01*
X176935400Y-45751880D01*
X172935400Y-47085214D02*
X169887780Y-47085214D01*
X167221114Y-44609023D02*
X166840161Y-44609023D01*
X166459209Y-44799500D01*
X166268733Y-44989976D01*
X166078257Y-45370928D01*
X165887780Y-46132833D01*
X165887780Y-47085214D01*
X166078257Y-47847119D01*
X166268733Y-48228071D01*
X166459209Y-48418547D01*
X166840161Y-48609023D01*
X167221114Y-48609023D01*
X167602066Y-48418547D01*
X167792542Y-48228071D01*
X167983019Y-47847119D01*
X168173495Y-47085214D01*
X168173495Y-46132833D01*
X167983019Y-45370928D01*
X167792542Y-44989976D01*
X167602066Y-44799500D01*
X167221114Y-44609023D01*
X163983019Y-48609023D02*
X163221114Y-48609023D01*
X162840161Y-48418547D01*
X162649685Y-48228071D01*
X162268733Y-47656642D01*
X162078257Y-46894738D01*
X162078257Y-45370928D01*
X162268733Y-44989976D01*
X162459209Y-44799500D01*
X162840161Y-44609023D01*
X163602066Y-44609023D01*
X163983019Y-44799500D01*
X164173495Y-44989976D01*
X164363971Y-45370928D01*
X164363971Y-46323309D01*
X164173495Y-46704261D01*
X163983019Y-46894738D01*
X163602066Y-47085214D01*
X162840161Y-47085214D01*
X162459209Y-46894738D01*
X162268733Y-46704261D01*
X162078257Y-46323309D01*
X160363971Y-47085214D02*
X157316352Y-47085214D01*
X154649685Y-44609023D02*
X154268733Y-44609023D01*
X153887780Y-44799500D01*
X153697304Y-44989976D01*
X153506828Y-45370928D01*
X153316352Y-46132833D01*
X153316352Y-47085214D01*
X153506828Y-47847119D01*
X153697304Y-48228071D01*
X153887780Y-48418547D01*
X154268733Y-48609023D01*
X154649685Y-48609023D01*
X155030638Y-48418547D01*
X155221114Y-48228071D01*
X155411590Y-47847119D01*
X155602066Y-47085214D01*
X155602066Y-46132833D01*
X155411590Y-45370928D01*
X155221114Y-44989976D01*
X155030638Y-44799500D01*
X154649685Y-44609023D01*
X151030638Y-46323309D02*
X151411590Y-46132833D01*
X151602066Y-45942357D01*
X151792542Y-45561404D01*
X151792542Y-45370928D01*
X151602066Y-44989976D01*
X151411590Y-44799500D01*
X151030638Y-44609023D01*
X150268733Y-44609023D01*
X149887780Y-44799500D01*
X149697304Y-44989976D01*
X149506828Y-45370928D01*
X149506828Y-45561404D01*
X149697304Y-45942357D01*
X149887780Y-46132833D01*
X150268733Y-46323309D01*
X151030638Y-46323309D01*
X151411590Y-46513785D01*
X151602066Y-46704261D01*
X151792542Y-47085214D01*
X151792542Y-47847119D01*
X151602066Y-48228071D01*
X151411590Y-48418547D01*
X151030638Y-48609023D01*
X150268733Y-48609023D01*
X149887780Y-48418547D01*
X149697304Y-48228071D01*
X149506828Y-47847119D01*
X149506828Y-47085214D01*
X149697304Y-46704261D01*
X149887780Y-46513785D01*
X150268733Y-46323309D01*
X188425685Y-38005023D02*
X186139971Y-38005023D01*
X187282828Y-42005023D02*
X187282828Y-38005023D01*
X183282828Y-41814547D02*
X183663780Y-42005023D01*
X184425685Y-42005023D01*
X184806638Y-41814547D01*
X184997114Y-41433595D01*
X184997114Y-39909785D01*
X184806638Y-39528833D01*
X184425685Y-39338357D01*
X183663780Y-39338357D01*
X183282828Y-39528833D01*
X183092352Y-39909785D01*
X183092352Y-40290738D01*
X184997114Y-40671690D01*
X180806638Y-42005023D02*
X181187590Y-41814547D01*
X181378066Y-41433595D01*
X181378066Y-38005023D01*
X177759019Y-41814547D02*
X178139971Y-42005023D01*
X178901876Y-42005023D01*
X179282828Y-41814547D01*
X179473304Y-41433595D01*
X179473304Y-39909785D01*
X179282828Y-39528833D01*
X178901876Y-39338357D01*
X178139971Y-39338357D01*
X177759019Y-39528833D01*
X177568542Y-39909785D01*
X177568542Y-40290738D01*
X179473304Y-40671690D01*
X175854257Y-42005023D02*
X175854257Y-39338357D01*
X175854257Y-39719309D02*
X175663780Y-39528833D01*
X175282828Y-39338357D01*
X174711400Y-39338357D01*
X174330447Y-39528833D01*
X174139971Y-39909785D01*
X174139971Y-42005023D01*
X174139971Y-39909785D02*
X173949495Y-39528833D01*
X173568542Y-39338357D01*
X172997114Y-39338357D01*
X172616161Y-39528833D01*
X172425685Y-39909785D01*
X172425685Y-42005023D01*
X168997114Y-41814547D02*
X169378066Y-42005023D01*
X170139971Y-42005023D01*
X170520923Y-41814547D01*
X170711400Y-41433595D01*
X170711400Y-39909785D01*
X170520923Y-39528833D01*
X170139971Y-39338357D01*
X169378066Y-39338357D01*
X168997114Y-39528833D01*
X168806638Y-39909785D01*
X168806638Y-40290738D01*
X170711400Y-40671690D01*
X167663780Y-39338357D02*
X166139971Y-39338357D01*
X167092352Y-38005023D02*
X167092352Y-41433595D01*
X166901876Y-41814547D01*
X166520923Y-42005023D01*
X166139971Y-42005023D01*
X164806638Y-42005023D02*
X164806638Y-39338357D01*
X164806638Y-40100261D02*
X164616161Y-39719309D01*
X164425685Y-39528833D01*
X164044733Y-39338357D01*
X163663780Y-39338357D01*
X162711400Y-39338357D02*
X161759019Y-42005023D01*
X160806638Y-39338357D02*
X161759019Y-42005023D01*
X162139971Y-42957404D01*
X162330447Y-43147880D01*
X162711400Y-43338357D01*
X156235209Y-42005023D02*
X156235209Y-38005023D01*
X154901876Y-40862166D01*
X153568542Y-38005023D01*
X153568542Y-42005023D01*
X151092352Y-42005023D02*
X151473304Y-41814547D01*
X151663780Y-41624071D01*
X151854257Y-41243119D01*
X151854257Y-40100261D01*
X151663780Y-39719309D01*
X151473304Y-39528833D01*
X151092352Y-39338357D01*
X150520923Y-39338357D01*
X150139971Y-39528833D01*
X149949495Y-39719309D01*
X149759019Y-40100261D01*
X149759019Y-41243119D01*
X149949495Y-41624071D01*
X150139971Y-41814547D01*
X150520923Y-42005023D01*
X151092352Y-42005023D01*
X146330447Y-42005023D02*
X146330447Y-38005023D01*
X146330447Y-41814547D02*
X146711400Y-42005023D01*
X147473304Y-42005023D01*
X147854257Y-41814547D01*
X148044733Y-41624071D01*
X148235209Y-41243119D01*
X148235209Y-40100261D01*
X148044733Y-39719309D01*
X147854257Y-39528833D01*
X147473304Y-39338357D01*
X146711400Y-39338357D01*
X146330447Y-39528833D01*
X142711400Y-39338357D02*
X142711400Y-42005023D01*
X144425685Y-39338357D02*
X144425685Y-41433595D01*
X144235209Y-41814547D01*
X143854257Y-42005023D01*
X143282828Y-42005023D01*
X142901876Y-41814547D01*
X142711400Y-41624071D01*
X140235209Y-42005023D02*
X140616161Y-41814547D01*
X140806638Y-41433595D01*
X140806638Y-38005023D01*
X137187590Y-41814547D02*
X137568542Y-42005023D01*
X138330447Y-42005023D01*
X138711400Y-41814547D01*
X138901876Y-41433595D01*
X138901876Y-39909785D01*
X138711400Y-39528833D01*
X138330447Y-39338357D01*
X137568542Y-39338357D01*
X137187590Y-39528833D01*
X136997114Y-39909785D01*
X136997114Y-40290738D01*
X138901876Y-40671690D01*
X132616161Y-39338357D02*
X131663780Y-42005023D01*
X130711400Y-39338357D01*
X127092352Y-42005023D02*
X129378066Y-42005023D01*
X128235209Y-42005023D02*
X128235209Y-38005023D01*
X128616161Y-38576452D01*
X128997114Y-38957404D01*
X129378066Y-39147880D01*
X125378066Y-41624071D02*
X125187590Y-41814547D01*
X125378066Y-42005023D01*
X125568542Y-41814547D01*
X125378066Y-41624071D01*
X125378066Y-42005023D01*
X122711400Y-38005023D02*
X122330447Y-38005023D01*
X121949495Y-38195500D01*
X121759019Y-38385976D01*
X121568542Y-38766928D01*
X121378066Y-39528833D01*
X121378066Y-40481214D01*
X121568542Y-41243119D01*
X121759019Y-41624071D01*
X121949495Y-41814547D01*
X122330447Y-42005023D01*
X122711400Y-42005023D01*
X123092352Y-41814547D01*
X123282828Y-41624071D01*
X123473304Y-41243119D01*
X123663780Y-40481214D01*
X123663780Y-39528833D01*
X123473304Y-38766928D01*
X123282828Y-38385976D01*
X123092352Y-38195500D01*
X122711400Y-38005023D01*
D11*
G36*
X59943041Y-119555156D02*
G01*
X60159149Y-119542583D01*
X60455924Y-119521782D01*
X60834323Y-119492729D01*
X61295301Y-119455396D01*
X61698669Y-119421707D01*
X64726377Y-119153611D01*
X67811856Y-118855633D01*
X70934456Y-118529795D01*
X72055566Y-118406966D01*
X74292960Y-118152368D01*
X76463614Y-117892430D01*
X78566727Y-117627320D01*
X80601496Y-117357206D01*
X82567120Y-117082258D01*
X84462794Y-116802644D01*
X86287717Y-116518534D01*
X88041088Y-116230096D01*
X89722102Y-115937500D01*
X91329958Y-115640914D01*
X92863854Y-115340507D01*
X94322987Y-115036448D01*
X95706555Y-114728907D01*
X97013756Y-114418051D01*
X98243786Y-114104050D01*
X99395844Y-113787074D01*
X100469127Y-113467290D01*
X101462834Y-113144868D01*
X102376160Y-112819977D01*
X103208305Y-112492785D01*
X103958466Y-112163462D01*
X104625840Y-111832177D01*
X105209626Y-111499097D01*
X105381232Y-111390484D01*
X105828505Y-111062871D01*
X106193627Y-110714996D01*
X106476762Y-110346423D01*
X106678070Y-109956715D01*
X106797715Y-109545437D01*
X106835859Y-109112152D01*
X106792663Y-108656425D01*
X106668290Y-108177819D01*
X106623418Y-108051561D01*
X106455312Y-107688546D01*
X106217761Y-107303812D01*
X105919591Y-106907919D01*
X105569628Y-106511429D01*
X105176699Y-106124901D01*
X104749630Y-105758897D01*
X104627299Y-105663190D01*
X104448052Y-105529292D01*
X104259359Y-105394338D01*
X104069421Y-105263396D01*
X103886438Y-105141537D01*
X103718613Y-105033828D01*
X103574146Y-104945340D01*
X103461239Y-104881141D01*
X103388094Y-104846302D01*
X103362911Y-104845890D01*
X103393891Y-104884977D01*
X103449340Y-104935088D01*
X103529071Y-105000881D01*
X103655636Y-105102418D01*
X103808907Y-105223633D01*
X103911781Y-105304167D01*
X104187061Y-105533210D01*
X104484999Y-105805835D01*
X104785840Y-106102144D01*
X105069827Y-106402238D01*
X105317205Y-106686218D01*
X105448350Y-106851858D01*
X105693483Y-107207678D01*
X105912614Y-107583931D01*
X106091420Y-107954264D01*
X106194699Y-108225167D01*
X106295913Y-108661111D01*
X106313762Y-109090221D01*
X106249485Y-109508974D01*
X106104318Y-109913844D01*
X105879500Y-110301306D01*
X105576266Y-110667838D01*
X105225056Y-110986770D01*
X104861138Y-111255552D01*
X104460506Y-111507398D01*
X104017772Y-111744285D01*
X103527547Y-111968189D01*
X102984440Y-112181088D01*
X102383064Y-112384960D01*
X101718029Y-112581781D01*
X100983946Y-112773528D01*
X100175427Y-112962179D01*
X99381733Y-113130529D01*
X98217358Y-113355461D01*
X97114291Y-113542695D01*
X96058667Y-113693487D01*
X95036622Y-113809095D01*
X94034289Y-113890773D01*
X93037805Y-113939780D01*
X92033304Y-113957371D01*
X91006921Y-113944804D01*
X90555233Y-113930434D01*
X90082682Y-113914756D01*
X89585061Y-113901850D01*
X89072053Y-113891714D01*
X88553337Y-113884350D01*
X88038595Y-113879755D01*
X87537507Y-113877931D01*
X87059754Y-113878876D01*
X86615016Y-113882590D01*
X86212976Y-113889073D01*
X85863313Y-113898324D01*
X85575709Y-113910344D01*
X85359844Y-113925131D01*
X85305900Y-113930630D01*
X85020915Y-113963961D01*
X84769109Y-113995767D01*
X84539650Y-114028536D01*
X84321706Y-114064755D01*
X84104445Y-114106914D01*
X83877035Y-114157498D01*
X83628643Y-114218997D01*
X83348438Y-114293897D01*
X83025587Y-114384687D01*
X82649259Y-114493854D01*
X82208621Y-114623886D01*
X81940400Y-114703573D01*
X80856232Y-115025908D01*
X79850356Y-115324548D01*
X78920018Y-115600294D01*
X78062464Y-115853946D01*
X77274940Y-116086306D01*
X76554692Y-116298174D01*
X75898967Y-116490349D01*
X75305011Y-116663634D01*
X74770068Y-116818829D01*
X74291387Y-116956734D01*
X73866212Y-117078150D01*
X73491790Y-117183877D01*
X73165367Y-117274717D01*
X72884188Y-117351469D01*
X72645501Y-117414936D01*
X72446551Y-117465916D01*
X72395064Y-117478684D01*
X71917222Y-117589993D01*
X71357934Y-117709172D01*
X70720010Y-117835745D01*
X70006258Y-117969237D01*
X69219487Y-118109173D01*
X68362506Y-118255075D01*
X67438124Y-118406470D01*
X66449149Y-118562880D01*
X65398391Y-118723831D01*
X64288659Y-118888847D01*
X63122760Y-119057452D01*
X62805733Y-119102533D01*
X62391299Y-119161255D01*
X61974297Y-119220331D01*
X61568513Y-119277807D01*
X61187736Y-119331732D01*
X60845754Y-119380152D01*
X60556355Y-119421115D01*
X60333327Y-119452668D01*
X60286900Y-119459233D01*
X60039070Y-119495493D01*
X59866175Y-119523678D01*
X59769168Y-119543762D01*
X59749007Y-119555720D01*
X59806646Y-119559526D01*
X59943041Y-119555156D01*
G37*
X59943041Y-119555156D02*
X60159149Y-119542583D01*
X60455924Y-119521782D01*
X60834323Y-119492729D01*
X61295301Y-119455396D01*
X61698669Y-119421707D01*
X64726377Y-119153611D01*
X67811856Y-118855633D01*
X70934456Y-118529795D01*
X72055566Y-118406966D01*
X74292960Y-118152368D01*
X76463614Y-117892430D01*
X78566727Y-117627320D01*
X80601496Y-117357206D01*
X82567120Y-117082258D01*
X84462794Y-116802644D01*
X86287717Y-116518534D01*
X88041088Y-116230096D01*
X89722102Y-115937500D01*
X91329958Y-115640914D01*
X92863854Y-115340507D01*
X94322987Y-115036448D01*
X95706555Y-114728907D01*
X97013756Y-114418051D01*
X98243786Y-114104050D01*
X99395844Y-113787074D01*
X100469127Y-113467290D01*
X101462834Y-113144868D01*
X102376160Y-112819977D01*
X103208305Y-112492785D01*
X103958466Y-112163462D01*
X104625840Y-111832177D01*
X105209626Y-111499097D01*
X105381232Y-111390484D01*
X105828505Y-111062871D01*
X106193627Y-110714996D01*
X106476762Y-110346423D01*
X106678070Y-109956715D01*
X106797715Y-109545437D01*
X106835859Y-109112152D01*
X106792663Y-108656425D01*
X106668290Y-108177819D01*
X106623418Y-108051561D01*
X106455312Y-107688546D01*
X106217761Y-107303812D01*
X105919591Y-106907919D01*
X105569628Y-106511429D01*
X105176699Y-106124901D01*
X104749630Y-105758897D01*
X104627299Y-105663190D01*
X104448052Y-105529292D01*
X104259359Y-105394338D01*
X104069421Y-105263396D01*
X103886438Y-105141537D01*
X103718613Y-105033828D01*
X103574146Y-104945340D01*
X103461239Y-104881141D01*
X103388094Y-104846302D01*
X103362911Y-104845890D01*
X103393891Y-104884977D01*
X103449340Y-104935088D01*
X103529071Y-105000881D01*
X103655636Y-105102418D01*
X103808907Y-105223633D01*
X103911781Y-105304167D01*
X104187061Y-105533210D01*
X104484999Y-105805835D01*
X104785840Y-106102144D01*
X105069827Y-106402238D01*
X105317205Y-106686218D01*
X105448350Y-106851858D01*
X105693483Y-107207678D01*
X105912614Y-107583931D01*
X106091420Y-107954264D01*
X106194699Y-108225167D01*
X106295913Y-108661111D01*
X106313762Y-109090221D01*
X106249485Y-109508974D01*
X106104318Y-109913844D01*
X105879500Y-110301306D01*
X105576266Y-110667838D01*
X105225056Y-110986770D01*
X104861138Y-111255552D01*
X104460506Y-111507398D01*
X104017772Y-111744285D01*
X103527547Y-111968189D01*
X102984440Y-112181088D01*
X102383064Y-112384960D01*
X101718029Y-112581781D01*
X100983946Y-112773528D01*
X100175427Y-112962179D01*
X99381733Y-113130529D01*
X98217358Y-113355461D01*
X97114291Y-113542695D01*
X96058667Y-113693487D01*
X95036622Y-113809095D01*
X94034289Y-113890773D01*
X93037805Y-113939780D01*
X92033304Y-113957371D01*
X91006921Y-113944804D01*
X90555233Y-113930434D01*
X90082682Y-113914756D01*
X89585061Y-113901850D01*
X89072053Y-113891714D01*
X88553337Y-113884350D01*
X88038595Y-113879755D01*
X87537507Y-113877931D01*
X87059754Y-113878876D01*
X86615016Y-113882590D01*
X86212976Y-113889073D01*
X85863313Y-113898324D01*
X85575709Y-113910344D01*
X85359844Y-113925131D01*
X85305900Y-113930630D01*
X85020915Y-113963961D01*
X84769109Y-113995767D01*
X84539650Y-114028536D01*
X84321706Y-114064755D01*
X84104445Y-114106914D01*
X83877035Y-114157498D01*
X83628643Y-114218997D01*
X83348438Y-114293897D01*
X83025587Y-114384687D01*
X82649259Y-114493854D01*
X82208621Y-114623886D01*
X81940400Y-114703573D01*
X80856232Y-115025908D01*
X79850356Y-115324548D01*
X78920018Y-115600294D01*
X78062464Y-115853946D01*
X77274940Y-116086306D01*
X76554692Y-116298174D01*
X75898967Y-116490349D01*
X75305011Y-116663634D01*
X74770068Y-116818829D01*
X74291387Y-116956734D01*
X73866212Y-117078150D01*
X73491790Y-117183877D01*
X73165367Y-117274717D01*
X72884188Y-117351469D01*
X72645501Y-117414936D01*
X72446551Y-117465916D01*
X72395064Y-117478684D01*
X71917222Y-117589993D01*
X71357934Y-117709172D01*
X70720010Y-117835745D01*
X70006258Y-117969237D01*
X69219487Y-118109173D01*
X68362506Y-118255075D01*
X67438124Y-118406470D01*
X66449149Y-118562880D01*
X65398391Y-118723831D01*
X64288659Y-118888847D01*
X63122760Y-119057452D01*
X62805733Y-119102533D01*
X62391299Y-119161255D01*
X61974297Y-119220331D01*
X61568513Y-119277807D01*
X61187736Y-119331732D01*
X60845754Y-119380152D01*
X60556355Y-119421115D01*
X60333327Y-119452668D01*
X60286900Y-119459233D01*
X60039070Y-119495493D01*
X59866175Y-119523678D01*
X59769168Y-119543762D01*
X59749007Y-119555720D01*
X59806646Y-119559526D01*
X59943041Y-119555156D01*
G36*
X60706372Y-110798443D02*
G01*
X60920410Y-110740227D01*
X61115230Y-110640864D01*
X61301578Y-110492333D01*
X61456564Y-110317096D01*
X61557299Y-110137615D01*
X61568654Y-110104089D01*
X61612135Y-109936097D01*
X61617459Y-109828197D01*
X61578777Y-109762224D01*
X61490243Y-109720010D01*
X61440483Y-109705946D01*
X61313741Y-109672794D01*
X61214980Y-109646264D01*
X61195279Y-109640753D01*
X61146199Y-109654261D01*
X61103402Y-109733785D01*
X61077082Y-109819870D01*
X60978341Y-110040128D01*
X60815406Y-110206420D01*
X60590073Y-110317823D01*
X60304141Y-110373412D01*
X59996727Y-110374976D01*
X59683431Y-110324451D01*
X59431773Y-110216993D01*
X59239477Y-110051198D01*
X59104269Y-109825662D01*
X59103587Y-109824032D01*
X59041847Y-109592934D01*
X59059301Y-109389120D01*
X59154699Y-109216227D01*
X59326795Y-109077892D01*
X59367123Y-109056286D01*
X59491196Y-109005372D01*
X59671808Y-108945635D01*
X59882564Y-108885296D01*
X60054066Y-108842362D01*
X60437513Y-108740363D01*
X60742849Y-108628434D01*
X60976504Y-108501274D01*
X61144909Y-108353583D01*
X61254492Y-108180060D01*
X61311684Y-107975405D01*
X61324066Y-107795387D01*
X61285377Y-107439084D01*
X61172797Y-107119309D01*
X60991559Y-106842455D01*
X60746896Y-106614918D01*
X60444039Y-106443090D01*
X60136064Y-106343614D01*
X59870794Y-106302391D01*
X59566317Y-106284888D01*
X59262496Y-106291789D01*
X58999193Y-106323776D01*
X58997651Y-106324077D01*
X58703234Y-106414613D01*
X58450732Y-106557182D01*
X58249105Y-106741930D01*
X58107317Y-106959004D01*
X58034327Y-107198553D01*
X58030195Y-107387735D01*
X58048951Y-107471697D01*
X58099435Y-107523878D01*
X58205145Y-107565844D01*
X58233733Y-107574537D01*
X58381700Y-107615131D01*
X58468671Y-107620070D01*
X58514366Y-107579248D01*
X58538507Y-107482563D01*
X58548222Y-107413411D01*
X58617112Y-107190180D01*
X58755425Y-107009124D01*
X58957432Y-106873421D01*
X59217403Y-106786249D01*
X59529611Y-106750788D01*
X59734375Y-106755299D01*
X60073885Y-106805838D01*
X60347680Y-106907315D01*
X60554677Y-107058803D01*
X60693791Y-107259373D01*
X60763941Y-107508098D01*
X60772803Y-107645186D01*
X60760787Y-107814411D01*
X60716910Y-107951456D01*
X60632001Y-108063166D01*
X60496891Y-108156388D01*
X60302408Y-108237969D01*
X60039383Y-108314755D01*
X59800066Y-108371440D01*
X59395699Y-108478818D01*
X59071016Y-108604838D01*
X58822441Y-108752775D01*
X58646398Y-108925907D01*
X58539310Y-109127510D01*
X58497600Y-109360860D01*
X58506776Y-109556329D01*
X58588966Y-109891032D01*
X58743418Y-110187661D01*
X58963390Y-110436969D01*
X59242141Y-110629708D01*
X59315781Y-110665946D01*
X59630942Y-110772744D01*
X59987132Y-110831323D01*
X60355295Y-110840338D01*
X60706372Y-110798443D01*
G37*
X60706372Y-110798443D02*
X60920410Y-110740227D01*
X61115230Y-110640864D01*
X61301578Y-110492333D01*
X61456564Y-110317096D01*
X61557299Y-110137615D01*
X61568654Y-110104089D01*
X61612135Y-109936097D01*
X61617459Y-109828197D01*
X61578777Y-109762224D01*
X61490243Y-109720010D01*
X61440483Y-109705946D01*
X61313741Y-109672794D01*
X61214980Y-109646264D01*
X61195279Y-109640753D01*
X61146199Y-109654261D01*
X61103402Y-109733785D01*
X61077082Y-109819870D01*
X60978341Y-110040128D01*
X60815406Y-110206420D01*
X60590073Y-110317823D01*
X60304141Y-110373412D01*
X59996727Y-110374976D01*
X59683431Y-110324451D01*
X59431773Y-110216993D01*
X59239477Y-110051198D01*
X59104269Y-109825662D01*
X59103587Y-109824032D01*
X59041847Y-109592934D01*
X59059301Y-109389120D01*
X59154699Y-109216227D01*
X59326795Y-109077892D01*
X59367123Y-109056286D01*
X59491196Y-109005372D01*
X59671808Y-108945635D01*
X59882564Y-108885296D01*
X60054066Y-108842362D01*
X60437513Y-108740363D01*
X60742849Y-108628434D01*
X60976504Y-108501274D01*
X61144909Y-108353583D01*
X61254492Y-108180060D01*
X61311684Y-107975405D01*
X61324066Y-107795387D01*
X61285377Y-107439084D01*
X61172797Y-107119309D01*
X60991559Y-106842455D01*
X60746896Y-106614918D01*
X60444039Y-106443090D01*
X60136064Y-106343614D01*
X59870794Y-106302391D01*
X59566317Y-106284888D01*
X59262496Y-106291789D01*
X58999193Y-106323776D01*
X58997651Y-106324077D01*
X58703234Y-106414613D01*
X58450732Y-106557182D01*
X58249105Y-106741930D01*
X58107317Y-106959004D01*
X58034327Y-107198553D01*
X58030195Y-107387735D01*
X58048951Y-107471697D01*
X58099435Y-107523878D01*
X58205145Y-107565844D01*
X58233733Y-107574537D01*
X58381700Y-107615131D01*
X58468671Y-107620070D01*
X58514366Y-107579248D01*
X58538507Y-107482563D01*
X58548222Y-107413411D01*
X58617112Y-107190180D01*
X58755425Y-107009124D01*
X58957432Y-106873421D01*
X59217403Y-106786249D01*
X59529611Y-106750788D01*
X59734375Y-106755299D01*
X60073885Y-106805838D01*
X60347680Y-106907315D01*
X60554677Y-107058803D01*
X60693791Y-107259373D01*
X60763941Y-107508098D01*
X60772803Y-107645186D01*
X60760787Y-107814411D01*
X60716910Y-107951456D01*
X60632001Y-108063166D01*
X60496891Y-108156388D01*
X60302408Y-108237969D01*
X60039383Y-108314755D01*
X59800066Y-108371440D01*
X59395699Y-108478818D01*
X59071016Y-108604838D01*
X58822441Y-108752775D01*
X58646398Y-108925907D01*
X58539310Y-109127510D01*
X58497600Y-109360860D01*
X58506776Y-109556329D01*
X58588966Y-109891032D01*
X58743418Y-110187661D01*
X58963390Y-110436969D01*
X59242141Y-110629708D01*
X59315781Y-110665946D01*
X59630942Y-110772744D01*
X59987132Y-110831323D01*
X60355295Y-110840338D01*
X60706372Y-110798443D01*
G36*
X65917099Y-110761214D02*
G01*
X65992480Y-110745629D01*
X66020679Y-110712824D01*
X66022940Y-110691084D01*
X66014939Y-110609938D01*
X65992626Y-110458267D01*
X65958328Y-110248564D01*
X65914371Y-109993320D01*
X65863082Y-109705026D01*
X65806787Y-109396174D01*
X65747812Y-109079256D01*
X65688483Y-108766762D01*
X65631127Y-108471186D01*
X65578069Y-108205018D01*
X65531637Y-107980750D01*
X65494156Y-107810874D01*
X65467953Y-107707880D01*
X65466538Y-107703300D01*
X65324319Y-107362403D01*
X65126763Y-107048566D01*
X64887201Y-106778219D01*
X64618964Y-106567791D01*
X64484772Y-106493295D01*
X64145586Y-106369292D01*
X63768555Y-106298090D01*
X63383064Y-106282482D01*
X63018499Y-106325261D01*
X62932733Y-106345764D01*
X62627617Y-106464937D01*
X62383177Y-106643060D01*
X62198723Y-106880746D01*
X62104134Y-107085074D01*
X62066100Y-107215865D01*
X62042450Y-107366460D01*
X62033813Y-107545339D01*
X62040819Y-107760985D01*
X62064097Y-108021878D01*
X62104276Y-108336500D01*
X62161985Y-108713332D01*
X62237853Y-109160855D01*
X62272707Y-109357540D01*
X62330604Y-109682418D01*
X62383374Y-109981009D01*
X62429227Y-110242987D01*
X62466373Y-110458028D01*
X62493022Y-110615804D01*
X62507382Y-110705990D01*
X62509400Y-110722790D01*
X62548303Y-110744947D01*
X62651476Y-110760097D01*
X62785373Y-110765167D01*
X62932989Y-110763420D01*
X63013399Y-110753809D01*
X63044053Y-110729784D01*
X63042402Y-110684794D01*
X63039083Y-110669917D01*
X63014400Y-110552131D01*
X62980033Y-110370934D01*
X62938042Y-110138713D01*
X62890487Y-109867853D01*
X62839426Y-109570739D01*
X62786920Y-109259758D01*
X62735027Y-108947296D01*
X62685808Y-108645737D01*
X62641322Y-108367468D01*
X62603628Y-108124875D01*
X62574787Y-107930343D01*
X62556856Y-107796258D01*
X62551733Y-107739020D01*
X62584807Y-107448382D01*
X62680180Y-107200549D01*
X62832080Y-107004274D01*
X63034734Y-106868309D01*
X63154427Y-106825368D01*
X63342899Y-106795825D01*
X63575802Y-106789908D01*
X63822030Y-106805508D01*
X64050473Y-106840514D01*
X64230023Y-106892816D01*
X64245066Y-106899359D01*
X64489733Y-107054989D01*
X64704697Y-107281133D01*
X64878435Y-107565615D01*
X64881476Y-107571954D01*
X64913211Y-107642814D01*
X64943320Y-107721771D01*
X64973364Y-107816258D01*
X65004901Y-107933707D01*
X65039493Y-108081550D01*
X65078698Y-108267217D01*
X65124076Y-108498141D01*
X65177188Y-108781754D01*
X65239593Y-109125488D01*
X65312852Y-109536773D01*
X65398523Y-110023043D01*
X65411752Y-110098417D01*
X65528736Y-110765167D01*
X65775901Y-110765167D01*
X65917099Y-110761214D01*
G37*
X65917099Y-110761214D02*
X65992480Y-110745629D01*
X66020679Y-110712824D01*
X66022940Y-110691084D01*
X66014939Y-110609938D01*
X65992626Y-110458267D01*
X65958328Y-110248564D01*
X65914371Y-109993320D01*
X65863082Y-109705026D01*
X65806787Y-109396174D01*
X65747812Y-109079256D01*
X65688483Y-108766762D01*
X65631127Y-108471186D01*
X65578069Y-108205018D01*
X65531637Y-107980750D01*
X65494156Y-107810874D01*
X65467953Y-107707880D01*
X65466538Y-107703300D01*
X65324319Y-107362403D01*
X65126763Y-107048566D01*
X64887201Y-106778219D01*
X64618964Y-106567791D01*
X64484772Y-106493295D01*
X64145586Y-106369292D01*
X63768555Y-106298090D01*
X63383064Y-106282482D01*
X63018499Y-106325261D01*
X62932733Y-106345764D01*
X62627617Y-106464937D01*
X62383177Y-106643060D01*
X62198723Y-106880746D01*
X62104134Y-107085074D01*
X62066100Y-107215865D01*
X62042450Y-107366460D01*
X62033813Y-107545339D01*
X62040819Y-107760985D01*
X62064097Y-108021878D01*
X62104276Y-108336500D01*
X62161985Y-108713332D01*
X62237853Y-109160855D01*
X62272707Y-109357540D01*
X62330604Y-109682418D01*
X62383374Y-109981009D01*
X62429227Y-110242987D01*
X62466373Y-110458028D01*
X62493022Y-110615804D01*
X62507382Y-110705990D01*
X62509400Y-110722790D01*
X62548303Y-110744947D01*
X62651476Y-110760097D01*
X62785373Y-110765167D01*
X62932989Y-110763420D01*
X63013399Y-110753809D01*
X63044053Y-110729784D01*
X63042402Y-110684794D01*
X63039083Y-110669917D01*
X63014400Y-110552131D01*
X62980033Y-110370934D01*
X62938042Y-110138713D01*
X62890487Y-109867853D01*
X62839426Y-109570739D01*
X62786920Y-109259758D01*
X62735027Y-108947296D01*
X62685808Y-108645737D01*
X62641322Y-108367468D01*
X62603628Y-108124875D01*
X62574787Y-107930343D01*
X62556856Y-107796258D01*
X62551733Y-107739020D01*
X62584807Y-107448382D01*
X62680180Y-107200549D01*
X62832080Y-107004274D01*
X63034734Y-106868309D01*
X63154427Y-106825368D01*
X63342899Y-106795825D01*
X63575802Y-106789908D01*
X63822030Y-106805508D01*
X64050473Y-106840514D01*
X64230023Y-106892816D01*
X64245066Y-106899359D01*
X64489733Y-107054989D01*
X64704697Y-107281133D01*
X64878435Y-107565615D01*
X64881476Y-107571954D01*
X64913211Y-107642814D01*
X64943320Y-107721771D01*
X64973364Y-107816258D01*
X65004901Y-107933707D01*
X65039493Y-108081550D01*
X65078698Y-108267217D01*
X65124076Y-108498141D01*
X65177188Y-108781754D01*
X65239593Y-109125488D01*
X65312852Y-109536773D01*
X65398523Y-110023043D01*
X65411752Y-110098417D01*
X65528736Y-110765167D01*
X65775901Y-110765167D01*
X65917099Y-110761214D01*
G36*
X98646879Y-110832484D02*
G01*
X99026217Y-110760371D01*
X99362084Y-110621034D01*
X99660984Y-110412401D01*
X99718182Y-110360978D01*
X99835632Y-110233850D01*
X99950968Y-110080258D01*
X100050129Y-109922491D01*
X100119057Y-109782838D01*
X100143733Y-109686343D01*
X100106160Y-109652222D01*
X100008257Y-109609280D01*
X99888501Y-109571756D01*
X99633269Y-109503370D01*
X99553982Y-109658019D01*
X99413731Y-109862643D01*
X99219733Y-110053856D01*
X99001586Y-110203360D01*
X98962627Y-110223372D01*
X98753555Y-110293033D01*
X98491685Y-110332623D01*
X98203659Y-110341345D01*
X97916123Y-110318403D01*
X97655722Y-110263003D01*
X97653895Y-110262450D01*
X97274940Y-110105308D01*
X96945361Y-109880921D01*
X96668365Y-109593016D01*
X96447157Y-109245317D01*
X96284942Y-108841548D01*
X96222448Y-108598896D01*
X96177815Y-108224645D01*
X96205121Y-107876925D01*
X96301265Y-107563230D01*
X96463146Y-107291052D01*
X96687664Y-107067886D01*
X96913899Y-106927906D01*
X97063025Y-106864138D01*
X97212663Y-106824361D01*
X97395206Y-106801508D01*
X97531965Y-106793077D01*
X97748990Y-106790553D01*
X97962498Y-106801313D01*
X98134285Y-106823296D01*
X98149220Y-106826360D01*
X98406258Y-106903933D01*
X98678216Y-107022595D01*
X98934357Y-107166623D01*
X99143943Y-107320295D01*
X99181100Y-107354169D01*
X99290474Y-107468068D01*
X99356030Y-107570279D01*
X99396664Y-107697061D01*
X99418701Y-107810032D01*
X99443312Y-107958495D01*
X99460537Y-108076041D01*
X99466400Y-108133385D01*
X99438046Y-108154124D01*
X99348484Y-108168856D01*
X99190956Y-108178103D01*
X98958708Y-108182387D01*
X98825861Y-108182834D01*
X98185322Y-108182834D01*
X98211561Y-108341584D01*
X98229205Y-108466667D01*
X98238050Y-108565117D01*
X98238267Y-108574417D01*
X98244126Y-108598920D01*
X98268307Y-108617361D01*
X98321242Y-108630594D01*
X98413364Y-108639468D01*
X98555105Y-108644835D01*
X98756896Y-108647546D01*
X99029171Y-108648452D01*
X99146238Y-108648500D01*
X100053743Y-108648500D01*
X100030926Y-108510917D01*
X100017204Y-108430881D01*
X99991104Y-108281103D01*
X99955019Y-108075209D01*
X99911338Y-107826827D01*
X99862453Y-107549584D01*
X99832229Y-107378500D01*
X99656348Y-106383667D01*
X99419480Y-106371158D01*
X99182612Y-106358650D01*
X99236615Y-106646021D01*
X99261951Y-106790483D01*
X99277282Y-106897393D01*
X99279436Y-106944483D01*
X99279184Y-106944827D01*
X99242811Y-106927559D01*
X99162408Y-106870864D01*
X99102492Y-106824440D01*
X98848442Y-106653973D01*
X98535755Y-106496308D01*
X98282018Y-106395907D01*
X98069345Y-106341926D01*
X97808487Y-106306735D01*
X97529400Y-106291603D01*
X97262040Y-106297801D01*
X97036361Y-106326600D01*
X96978476Y-106340617D01*
X96598973Y-106486250D01*
X96279873Y-106690283D01*
X96023709Y-106949315D01*
X95833013Y-107259943D01*
X95710318Y-107618766D01*
X95658158Y-108022380D01*
X95656400Y-108116334D01*
X95696284Y-108587040D01*
X95811635Y-109031673D01*
X95996002Y-109443372D01*
X96242932Y-109815278D01*
X96545975Y-110140531D01*
X96898677Y-110412271D01*
X97294588Y-110623639D01*
X97727256Y-110767776D01*
X98190228Y-110837820D01*
X98217566Y-110839448D01*
X98646879Y-110832484D01*
G37*
X98646879Y-110832484D02*
X99026217Y-110760371D01*
X99362084Y-110621034D01*
X99660984Y-110412401D01*
X99718182Y-110360978D01*
X99835632Y-110233850D01*
X99950968Y-110080258D01*
X100050129Y-109922491D01*
X100119057Y-109782838D01*
X100143733Y-109686343D01*
X100106160Y-109652222D01*
X100008257Y-109609280D01*
X99888501Y-109571756D01*
X99633269Y-109503370D01*
X99553982Y-109658019D01*
X99413731Y-109862643D01*
X99219733Y-110053856D01*
X99001586Y-110203360D01*
X98962627Y-110223372D01*
X98753555Y-110293033D01*
X98491685Y-110332623D01*
X98203659Y-110341345D01*
X97916123Y-110318403D01*
X97655722Y-110263003D01*
X97653895Y-110262450D01*
X97274940Y-110105308D01*
X96945361Y-109880921D01*
X96668365Y-109593016D01*
X96447157Y-109245317D01*
X96284942Y-108841548D01*
X96222448Y-108598896D01*
X96177815Y-108224645D01*
X96205121Y-107876925D01*
X96301265Y-107563230D01*
X96463146Y-107291052D01*
X96687664Y-107067886D01*
X96913899Y-106927906D01*
X97063025Y-106864138D01*
X97212663Y-106824361D01*
X97395206Y-106801508D01*
X97531965Y-106793077D01*
X97748990Y-106790553D01*
X97962498Y-106801313D01*
X98134285Y-106823296D01*
X98149220Y-106826360D01*
X98406258Y-106903933D01*
X98678216Y-107022595D01*
X98934357Y-107166623D01*
X99143943Y-107320295D01*
X99181100Y-107354169D01*
X99290474Y-107468068D01*
X99356030Y-107570279D01*
X99396664Y-107697061D01*
X99418701Y-107810032D01*
X99443312Y-107958495D01*
X99460537Y-108076041D01*
X99466400Y-108133385D01*
X99438046Y-108154124D01*
X99348484Y-108168856D01*
X99190956Y-108178103D01*
X98958708Y-108182387D01*
X98825861Y-108182834D01*
X98185322Y-108182834D01*
X98211561Y-108341584D01*
X98229205Y-108466667D01*
X98238050Y-108565117D01*
X98238267Y-108574417D01*
X98244126Y-108598920D01*
X98268307Y-108617361D01*
X98321242Y-108630594D01*
X98413364Y-108639468D01*
X98555105Y-108644835D01*
X98756896Y-108647546D01*
X99029171Y-108648452D01*
X99146238Y-108648500D01*
X100053743Y-108648500D01*
X100030926Y-108510917D01*
X100017204Y-108430881D01*
X99991104Y-108281103D01*
X99955019Y-108075209D01*
X99911338Y-107826827D01*
X99862453Y-107549584D01*
X99832229Y-107378500D01*
X99656348Y-106383667D01*
X99419480Y-106371158D01*
X99182612Y-106358650D01*
X99236615Y-106646021D01*
X99261951Y-106790483D01*
X99277282Y-106897393D01*
X99279436Y-106944483D01*
X99279184Y-106944827D01*
X99242811Y-106927559D01*
X99162408Y-106870864D01*
X99102492Y-106824440D01*
X98848442Y-106653973D01*
X98535755Y-106496308D01*
X98282018Y-106395907D01*
X98069345Y-106341926D01*
X97808487Y-106306735D01*
X97529400Y-106291603D01*
X97262040Y-106297801D01*
X97036361Y-106326600D01*
X96978476Y-106340617D01*
X96598973Y-106486250D01*
X96279873Y-106690283D01*
X96023709Y-106949315D01*
X95833013Y-107259943D01*
X95710318Y-107618766D01*
X95658158Y-108022380D01*
X95656400Y-108116334D01*
X95696284Y-108587040D01*
X95811635Y-109031673D01*
X95996002Y-109443372D01*
X96242932Y-109815278D01*
X96545975Y-110140531D01*
X96898677Y-110412271D01*
X97294588Y-110623639D01*
X97727256Y-110767776D01*
X98190228Y-110837820D01*
X98217566Y-110839448D01*
X98646879Y-110832484D01*
G36*
X68263121Y-110755367D02*
G01*
X68499110Y-110745751D01*
X68678123Y-110731271D01*
X68735022Y-110723336D01*
X69046346Y-110638328D01*
X69305056Y-110501921D01*
X69501610Y-110319824D01*
X69566555Y-110225662D01*
X69626064Y-110114935D01*
X69661212Y-110014235D01*
X69677862Y-109894928D01*
X69681881Y-109728381D01*
X69681496Y-109664500D01*
X69650730Y-109312185D01*
X69561937Y-109010422D01*
X69409507Y-108743274D01*
X69316609Y-108627774D01*
X69128995Y-108439283D01*
X68928613Y-108292548D01*
X68702057Y-108182770D01*
X68435921Y-108105154D01*
X68116796Y-108054902D01*
X67731275Y-108027216D01*
X67627420Y-108023398D01*
X66966940Y-108002698D01*
X66826474Y-107182599D01*
X66686009Y-106362500D01*
X66423908Y-106362500D01*
X66280883Y-106364533D01*
X66204409Y-106375341D01*
X66176386Y-106401988D01*
X66178716Y-106451537D01*
X66179870Y-106457750D01*
X66190592Y-106517228D01*
X66214502Y-106651735D01*
X66250122Y-106852913D01*
X66295978Y-107112405D01*
X66350594Y-107421853D01*
X66412494Y-107772898D01*
X66480202Y-108157183D01*
X66536892Y-108479167D01*
X67055099Y-108479167D01*
X67574165Y-108479167D01*
X67798863Y-108482925D01*
X68014291Y-108493121D01*
X68194294Y-108508144D01*
X68302817Y-108524115D01*
X68595551Y-108624388D01*
X68829714Y-108784882D01*
X69001856Y-109001553D01*
X69108527Y-109270353D01*
X69143873Y-109510225D01*
X69139579Y-109746325D01*
X69089923Y-109923772D01*
X68985991Y-110060332D01*
X68818870Y-110173772D01*
X68808144Y-110179445D01*
X68725715Y-110217710D01*
X68636910Y-110245204D01*
X68524699Y-110264297D01*
X68372048Y-110277358D01*
X68161925Y-110286758D01*
X68002150Y-110291600D01*
X67782978Y-110296638D01*
X67597155Y-110299053D01*
X67459490Y-110298799D01*
X67384794Y-110295831D01*
X67375655Y-110293531D01*
X67367995Y-110249240D01*
X67347731Y-110133866D01*
X67317030Y-109959693D01*
X67278058Y-109739008D01*
X67232982Y-109484095D01*
X67214338Y-109378750D01*
X67055099Y-108479167D01*
X66536892Y-108479167D01*
X66552242Y-108566350D01*
X66566700Y-108648500D01*
X66935466Y-110744000D01*
X67696350Y-110757508D01*
X67989190Y-110759495D01*
X68263121Y-110755367D01*
G37*
X68263121Y-110755367D02*
X68499110Y-110745751D01*
X68678123Y-110731271D01*
X68735022Y-110723336D01*
X69046346Y-110638328D01*
X69305056Y-110501921D01*
X69501610Y-110319824D01*
X69566555Y-110225662D01*
X69626064Y-110114935D01*
X69661212Y-110014235D01*
X69677862Y-109894928D01*
X69681881Y-109728381D01*
X69681496Y-109664500D01*
X69650730Y-109312185D01*
X69561937Y-109010422D01*
X69409507Y-108743274D01*
X69316609Y-108627774D01*
X69128995Y-108439283D01*
X68928613Y-108292548D01*
X68702057Y-108182770D01*
X68435921Y-108105154D01*
X68116796Y-108054902D01*
X67731275Y-108027216D01*
X67627420Y-108023398D01*
X66966940Y-108002698D01*
X66826474Y-107182599D01*
X66686009Y-106362500D01*
X66423908Y-106362500D01*
X66280883Y-106364533D01*
X66204409Y-106375341D01*
X66176386Y-106401988D01*
X66178716Y-106451537D01*
X66179870Y-106457750D01*
X66190592Y-106517228D01*
X66214502Y-106651735D01*
X66250122Y-106852913D01*
X66295978Y-107112405D01*
X66350594Y-107421853D01*
X66412494Y-107772898D01*
X66480202Y-108157183D01*
X66536892Y-108479167D01*
X67055099Y-108479167D01*
X67574165Y-108479167D01*
X67798863Y-108482925D01*
X68014291Y-108493121D01*
X68194294Y-108508144D01*
X68302817Y-108524115D01*
X68595551Y-108624388D01*
X68829714Y-108784882D01*
X69001856Y-109001553D01*
X69108527Y-109270353D01*
X69143873Y-109510225D01*
X69139579Y-109746325D01*
X69089923Y-109923772D01*
X68985991Y-110060332D01*
X68818870Y-110173772D01*
X68808144Y-110179445D01*
X68725715Y-110217710D01*
X68636910Y-110245204D01*
X68524699Y-110264297D01*
X68372048Y-110277358D01*
X68161925Y-110286758D01*
X68002150Y-110291600D01*
X67782978Y-110296638D01*
X67597155Y-110299053D01*
X67459490Y-110298799D01*
X67384794Y-110295831D01*
X67375655Y-110293531D01*
X67367995Y-110249240D01*
X67347731Y-110133866D01*
X67317030Y-109959693D01*
X67278058Y-109739008D01*
X67232982Y-109484095D01*
X67214338Y-109378750D01*
X67055099Y-108479167D01*
X66536892Y-108479167D01*
X66552242Y-108566350D01*
X66566700Y-108648500D01*
X66935466Y-110744000D01*
X67696350Y-110757508D01*
X67989190Y-110759495D01*
X68263121Y-110755367D01*
G36*
X71801706Y-110756671D02*
G01*
X72079816Y-110755141D01*
X73538051Y-110744000D01*
X73467275Y-110299500D01*
X71020013Y-110299500D01*
X70999028Y-110204250D01*
X70983875Y-110126276D01*
X70958281Y-109985089D01*
X70925863Y-109800971D01*
X70891400Y-109601000D01*
X70855824Y-109394643D01*
X70823569Y-109211591D01*
X70798254Y-109072123D01*
X70783771Y-108997750D01*
X70762786Y-108902500D01*
X72674587Y-108902500D01*
X72645433Y-108701417D01*
X72624688Y-108576614D01*
X72605230Y-108488783D01*
X72598007Y-108468584D01*
X72552232Y-108459429D01*
X72434064Y-108451307D01*
X72255776Y-108444622D01*
X72029642Y-108439776D01*
X71767931Y-108437170D01*
X71629734Y-108436834D01*
X71356350Y-108435486D01*
X71113742Y-108431708D01*
X70913874Y-108425900D01*
X70768710Y-108418462D01*
X70690214Y-108409794D01*
X70679705Y-108405084D01*
X70672504Y-108354783D01*
X70652590Y-108235644D01*
X70622461Y-108062118D01*
X70584618Y-107848655D01*
X70553363Y-107674834D01*
X70511148Y-107437328D01*
X70474842Y-107225323D01*
X70447009Y-107054414D01*
X70430212Y-106940198D01*
X70426391Y-106902250D01*
X70431179Y-106880762D01*
X70451976Y-106863866D01*
X70497794Y-106851014D01*
X70577643Y-106841660D01*
X70700533Y-106835256D01*
X70875476Y-106831254D01*
X71111483Y-106829108D01*
X71417565Y-106828270D01*
X71646190Y-106828167D01*
X72866648Y-106828167D01*
X72824445Y-106595334D01*
X72782243Y-106362500D01*
X71287816Y-106362500D01*
X70877568Y-106363093D01*
X70545267Y-106365029D01*
X70284200Y-106368551D01*
X70087654Y-106373899D01*
X69948918Y-106381313D01*
X69861278Y-106391033D01*
X69818022Y-106403301D01*
X69810959Y-106415417D01*
X69821447Y-106466359D01*
X69844928Y-106592625D01*
X69879962Y-106786112D01*
X69925107Y-107038716D01*
X69978924Y-107342334D01*
X70039972Y-107688863D01*
X70106812Y-108070200D01*
X70178002Y-108478240D01*
X70196576Y-108585000D01*
X70268783Y-108997745D01*
X70337404Y-109385156D01*
X70400962Y-109739232D01*
X70457981Y-110051968D01*
X70506985Y-110315362D01*
X70546495Y-110521411D01*
X70575036Y-110662110D01*
X70591131Y-110729457D01*
X70593103Y-110733975D01*
X70640687Y-110741251D01*
X70763022Y-110747318D01*
X70950200Y-110752034D01*
X71192313Y-110755259D01*
X71479451Y-110756852D01*
X71801706Y-110756671D01*
G37*
X71801706Y-110756671D02*
X72079816Y-110755141D01*
X73538051Y-110744000D01*
X73467275Y-110299500D01*
X71020013Y-110299500D01*
X70999028Y-110204250D01*
X70983875Y-110126276D01*
X70958281Y-109985089D01*
X70925863Y-109800971D01*
X70891400Y-109601000D01*
X70855824Y-109394643D01*
X70823569Y-109211591D01*
X70798254Y-109072123D01*
X70783771Y-108997750D01*
X70762786Y-108902500D01*
X72674587Y-108902500D01*
X72645433Y-108701417D01*
X72624688Y-108576614D01*
X72605230Y-108488783D01*
X72598007Y-108468584D01*
X72552232Y-108459429D01*
X72434064Y-108451307D01*
X72255776Y-108444622D01*
X72029642Y-108439776D01*
X71767931Y-108437170D01*
X71629734Y-108436834D01*
X71356350Y-108435486D01*
X71113742Y-108431708D01*
X70913874Y-108425900D01*
X70768710Y-108418462D01*
X70690214Y-108409794D01*
X70679705Y-108405084D01*
X70672504Y-108354783D01*
X70652590Y-108235644D01*
X70622461Y-108062118D01*
X70584618Y-107848655D01*
X70553363Y-107674834D01*
X70511148Y-107437328D01*
X70474842Y-107225323D01*
X70447009Y-107054414D01*
X70430212Y-106940198D01*
X70426391Y-106902250D01*
X70431179Y-106880762D01*
X70451976Y-106863866D01*
X70497794Y-106851014D01*
X70577643Y-106841660D01*
X70700533Y-106835256D01*
X70875476Y-106831254D01*
X71111483Y-106829108D01*
X71417565Y-106828270D01*
X71646190Y-106828167D01*
X72866648Y-106828167D01*
X72824445Y-106595334D01*
X72782243Y-106362500D01*
X71287816Y-106362500D01*
X70877568Y-106363093D01*
X70545267Y-106365029D01*
X70284200Y-106368551D01*
X70087654Y-106373899D01*
X69948918Y-106381313D01*
X69861278Y-106391033D01*
X69818022Y-106403301D01*
X69810959Y-106415417D01*
X69821447Y-106466359D01*
X69844928Y-106592625D01*
X69879962Y-106786112D01*
X69925107Y-107038716D01*
X69978924Y-107342334D01*
X70039972Y-107688863D01*
X70106812Y-108070200D01*
X70178002Y-108478240D01*
X70196576Y-108585000D01*
X70268783Y-108997745D01*
X70337404Y-109385156D01*
X70400962Y-109739232D01*
X70457981Y-110051968D01*
X70506985Y-110315362D01*
X70546495Y-110521411D01*
X70575036Y-110662110D01*
X70591131Y-110729457D01*
X70593103Y-110733975D01*
X70640687Y-110741251D01*
X70763022Y-110747318D01*
X70950200Y-110752034D01*
X71192313Y-110755259D01*
X71479451Y-110756852D01*
X71801706Y-110756671D01*
G36*
X75686836Y-110755027D02*
G01*
X75925089Y-110744654D01*
X76103576Y-110729018D01*
X76148068Y-110722494D01*
X76468068Y-110633978D01*
X76728159Y-110490891D01*
X76924589Y-110297247D01*
X77053608Y-110057059D01*
X77111463Y-109774342D01*
X77114400Y-109688517D01*
X77076778Y-109321949D01*
X76966293Y-108995382D01*
X76786510Y-108713956D01*
X76540998Y-108482814D01*
X76233323Y-108307097D01*
X76126812Y-108265017D01*
X75998776Y-108208990D01*
X75928605Y-108156458D01*
X75920516Y-108131764D01*
X75929156Y-108102476D01*
X75947534Y-108051560D01*
X75979022Y-107970719D01*
X76026989Y-107851651D01*
X76094807Y-107686057D01*
X76185844Y-107465639D01*
X76303472Y-107182095D01*
X76419810Y-106902250D01*
X76644325Y-106362500D01*
X76022673Y-106362500D01*
X75675066Y-107230334D01*
X75327459Y-108098167D01*
X74870792Y-108098167D01*
X74645520Y-108094673D01*
X74496354Y-108083575D01*
X74414996Y-108063954D01*
X74394165Y-108045250D01*
X74381067Y-107988673D01*
X74356393Y-107862380D01*
X74322683Y-107680136D01*
X74282479Y-107455708D01*
X74238323Y-107202860D01*
X74233939Y-107177417D01*
X74093673Y-106362500D01*
X73831907Y-106362500D01*
X73688997Y-106364539D01*
X73612628Y-106375371D01*
X73584694Y-106402076D01*
X73587085Y-106451729D01*
X73588203Y-106457750D01*
X73598926Y-106517228D01*
X73622835Y-106651735D01*
X73658455Y-106852913D01*
X73704312Y-107112405D01*
X73758927Y-107421853D01*
X73820827Y-107772898D01*
X73888535Y-108157183D01*
X73960575Y-108566350D01*
X73961393Y-108571003D01*
X74489733Y-108571003D01*
X74503483Y-108548426D01*
X74552217Y-108533407D01*
X74647161Y-108525221D01*
X74799542Y-108523141D01*
X75020586Y-108526440D01*
X75135316Y-108529222D01*
X75395399Y-108537477D01*
X75588190Y-108548199D01*
X75731062Y-108563661D01*
X75841389Y-108586136D01*
X75936546Y-108617899D01*
X75991019Y-108641195D01*
X76171373Y-108732931D01*
X76295658Y-108827957D01*
X76389722Y-108950971D01*
X76463819Y-109093000D01*
X76540319Y-109321149D01*
X76567377Y-109557902D01*
X76544846Y-109777910D01*
X76472582Y-109955829D01*
X76468816Y-109961474D01*
X76380016Y-110072773D01*
X76276859Y-110155845D01*
X76145597Y-110215006D01*
X75972481Y-110254572D01*
X75743764Y-110278858D01*
X75445697Y-110292178D01*
X75412435Y-110293051D01*
X74789971Y-110308633D01*
X74767231Y-110208817D01*
X74749300Y-110119633D01*
X74721851Y-109970506D01*
X74687638Y-109777682D01*
X74649414Y-109557406D01*
X74609931Y-109325924D01*
X74571941Y-109099482D01*
X74538198Y-108894327D01*
X74511453Y-108726704D01*
X74494460Y-108612858D01*
X74489733Y-108571003D01*
X73961393Y-108571003D01*
X73975033Y-108648500D01*
X74343800Y-110744000D01*
X75104683Y-110757508D01*
X75407230Y-110759517D01*
X75686836Y-110755027D01*
G37*
X75686836Y-110755027D02*
X75925089Y-110744654D01*
X76103576Y-110729018D01*
X76148068Y-110722494D01*
X76468068Y-110633978D01*
X76728159Y-110490891D01*
X76924589Y-110297247D01*
X77053608Y-110057059D01*
X77111463Y-109774342D01*
X77114400Y-109688517D01*
X77076778Y-109321949D01*
X76966293Y-108995382D01*
X76786510Y-108713956D01*
X76540998Y-108482814D01*
X76233323Y-108307097D01*
X76126812Y-108265017D01*
X75998776Y-108208990D01*
X75928605Y-108156458D01*
X75920516Y-108131764D01*
X75929156Y-108102476D01*
X75947534Y-108051560D01*
X75979022Y-107970719D01*
X76026989Y-107851651D01*
X76094807Y-107686057D01*
X76185844Y-107465639D01*
X76303472Y-107182095D01*
X76419810Y-106902250D01*
X76644325Y-106362500D01*
X76022673Y-106362500D01*
X75675066Y-107230334D01*
X75327459Y-108098167D01*
X74870792Y-108098167D01*
X74645520Y-108094673D01*
X74496354Y-108083575D01*
X74414996Y-108063954D01*
X74394165Y-108045250D01*
X74381067Y-107988673D01*
X74356393Y-107862380D01*
X74322683Y-107680136D01*
X74282479Y-107455708D01*
X74238323Y-107202860D01*
X74233939Y-107177417D01*
X74093673Y-106362500D01*
X73831907Y-106362500D01*
X73688997Y-106364539D01*
X73612628Y-106375371D01*
X73584694Y-106402076D01*
X73587085Y-106451729D01*
X73588203Y-106457750D01*
X73598926Y-106517228D01*
X73622835Y-106651735D01*
X73658455Y-106852913D01*
X73704312Y-107112405D01*
X73758927Y-107421853D01*
X73820827Y-107772898D01*
X73888535Y-108157183D01*
X73960575Y-108566350D01*
X73961393Y-108571003D01*
X74489733Y-108571003D01*
X74503483Y-108548426D01*
X74552217Y-108533407D01*
X74647161Y-108525221D01*
X74799542Y-108523141D01*
X75020586Y-108526440D01*
X75135316Y-108529222D01*
X75395399Y-108537477D01*
X75588190Y-108548199D01*
X75731062Y-108563661D01*
X75841389Y-108586136D01*
X75936546Y-108617899D01*
X75991019Y-108641195D01*
X76171373Y-108732931D01*
X76295658Y-108827957D01*
X76389722Y-108950971D01*
X76463819Y-109093000D01*
X76540319Y-109321149D01*
X76567377Y-109557902D01*
X76544846Y-109777910D01*
X76472582Y-109955829D01*
X76468816Y-109961474D01*
X76380016Y-110072773D01*
X76276859Y-110155845D01*
X76145597Y-110215006D01*
X75972481Y-110254572D01*
X75743764Y-110278858D01*
X75445697Y-110292178D01*
X75412435Y-110293051D01*
X74789971Y-110308633D01*
X74767231Y-110208817D01*
X74749300Y-110119633D01*
X74721851Y-109970506D01*
X74687638Y-109777682D01*
X74649414Y-109557406D01*
X74609931Y-109325924D01*
X74571941Y-109099482D01*
X74538198Y-108894327D01*
X74511453Y-108726704D01*
X74494460Y-108612858D01*
X74489733Y-108571003D01*
X73961393Y-108571003D01*
X73975033Y-108648500D01*
X74343800Y-110744000D01*
X75104683Y-110757508D01*
X75407230Y-110759517D01*
X75686836Y-110755027D01*
G36*
X79166901Y-109454570D02*
G01*
X79287830Y-109140997D01*
X79399907Y-108854219D01*
X79499419Y-108603436D01*
X79582656Y-108397848D01*
X79645906Y-108246655D01*
X79685458Y-108159056D01*
X79697018Y-108140500D01*
X79727212Y-108173405D01*
X79801899Y-108267207D01*
X79915490Y-108414534D01*
X80062395Y-108608019D01*
X80237025Y-108840290D01*
X80433791Y-109103978D01*
X80647104Y-109391712D01*
X80692247Y-109452834D01*
X81660906Y-110765167D01*
X82201127Y-110765167D01*
X82177319Y-110648750D01*
X82163958Y-110577576D01*
X82138368Y-110435848D01*
X82102233Y-110233193D01*
X82057237Y-109979241D01*
X82005066Y-109683619D01*
X81947402Y-109355957D01*
X81885932Y-109005881D01*
X81822339Y-108643021D01*
X81758307Y-108277005D01*
X81695521Y-107917461D01*
X81635666Y-107574018D01*
X81580426Y-107256303D01*
X81531484Y-106973945D01*
X81490527Y-106736572D01*
X81459238Y-106553813D01*
X81439301Y-106435295D01*
X81432400Y-106390709D01*
X81393831Y-106376175D01*
X81293135Y-106365991D01*
X81164408Y-106362500D01*
X80896416Y-106362500D01*
X80996032Y-106923417D01*
X81062367Y-107295732D01*
X81130044Y-107673360D01*
X81197252Y-108046401D01*
X81262184Y-108404951D01*
X81323032Y-108739108D01*
X81377986Y-109038970D01*
X81425239Y-109294634D01*
X81462983Y-109496197D01*
X81489408Y-109633757D01*
X81502409Y-109696250D01*
X81512288Y-109770962D01*
X81487675Y-109783201D01*
X81426184Y-109730766D01*
X81325426Y-109611454D01*
X81183015Y-109423062D01*
X81135314Y-109357584D01*
X81009134Y-109184205D01*
X80846617Y-108962234D01*
X80661973Y-108711003D01*
X80469410Y-108449842D01*
X80283137Y-108198085D01*
X80279676Y-108193417D01*
X80101074Y-107953017D01*
X79964661Y-107772181D01*
X79862243Y-107642428D01*
X79785622Y-107555282D01*
X79726605Y-107502261D01*
X79676995Y-107474888D01*
X79628597Y-107464683D01*
X79573835Y-107463167D01*
X79461524Y-107475708D01*
X79394324Y-107507243D01*
X79388663Y-107516084D01*
X79298976Y-107745794D01*
X79197558Y-108008011D01*
X79089474Y-108289389D01*
X78979786Y-108576583D01*
X78873560Y-108856250D01*
X78775857Y-109115044D01*
X78691743Y-109339620D01*
X78626281Y-109516634D01*
X78584535Y-109632740D01*
X78576417Y-109656660D01*
X78533031Y-109774747D01*
X78497065Y-109847221D01*
X78480463Y-109859342D01*
X78469818Y-109823925D01*
X78449424Y-109727751D01*
X78418806Y-109568150D01*
X78377493Y-109342457D01*
X78325011Y-109048000D01*
X78260887Y-108682114D01*
X78184648Y-108242129D01*
X78095821Y-107725377D01*
X77993932Y-107129191D01*
X77933650Y-106775250D01*
X77863423Y-106362500D01*
X77600615Y-106362500D01*
X77457347Y-106364522D01*
X77380649Y-106375277D01*
X77352441Y-106401802D01*
X77354643Y-106451133D01*
X77355870Y-106457750D01*
X77366590Y-106517228D01*
X77390494Y-106651736D01*
X77426105Y-106852916D01*
X77471949Y-107112410D01*
X77526550Y-107421860D01*
X77588433Y-107772908D01*
X77656123Y-108157195D01*
X77728143Y-108566364D01*
X77742594Y-108648500D01*
X78111254Y-110744000D01*
X78387305Y-110756320D01*
X78663355Y-110768639D01*
X79166901Y-109454570D01*
G37*
X79166901Y-109454570D02*
X79287830Y-109140997D01*
X79399907Y-108854219D01*
X79499419Y-108603436D01*
X79582656Y-108397848D01*
X79645906Y-108246655D01*
X79685458Y-108159056D01*
X79697018Y-108140500D01*
X79727212Y-108173405D01*
X79801899Y-108267207D01*
X79915490Y-108414534D01*
X80062395Y-108608019D01*
X80237025Y-108840290D01*
X80433791Y-109103978D01*
X80647104Y-109391712D01*
X80692247Y-109452834D01*
X81660906Y-110765167D01*
X82201127Y-110765167D01*
X82177319Y-110648750D01*
X82163958Y-110577576D01*
X82138368Y-110435848D01*
X82102233Y-110233193D01*
X82057237Y-109979241D01*
X82005066Y-109683619D01*
X81947402Y-109355957D01*
X81885932Y-109005881D01*
X81822339Y-108643021D01*
X81758307Y-108277005D01*
X81695521Y-107917461D01*
X81635666Y-107574018D01*
X81580426Y-107256303D01*
X81531484Y-106973945D01*
X81490527Y-106736572D01*
X81459238Y-106553813D01*
X81439301Y-106435295D01*
X81432400Y-106390709D01*
X81393831Y-106376175D01*
X81293135Y-106365991D01*
X81164408Y-106362500D01*
X80896416Y-106362500D01*
X80996032Y-106923417D01*
X81062367Y-107295732D01*
X81130044Y-107673360D01*
X81197252Y-108046401D01*
X81262184Y-108404951D01*
X81323032Y-108739108D01*
X81377986Y-109038970D01*
X81425239Y-109294634D01*
X81462983Y-109496197D01*
X81489408Y-109633757D01*
X81502409Y-109696250D01*
X81512288Y-109770962D01*
X81487675Y-109783201D01*
X81426184Y-109730766D01*
X81325426Y-109611454D01*
X81183015Y-109423062D01*
X81135314Y-109357584D01*
X81009134Y-109184205D01*
X80846617Y-108962234D01*
X80661973Y-108711003D01*
X80469410Y-108449842D01*
X80283137Y-108198085D01*
X80279676Y-108193417D01*
X80101074Y-107953017D01*
X79964661Y-107772181D01*
X79862243Y-107642428D01*
X79785622Y-107555282D01*
X79726605Y-107502261D01*
X79676995Y-107474888D01*
X79628597Y-107464683D01*
X79573835Y-107463167D01*
X79461524Y-107475708D01*
X79394324Y-107507243D01*
X79388663Y-107516084D01*
X79298976Y-107745794D01*
X79197558Y-108008011D01*
X79089474Y-108289389D01*
X78979786Y-108576583D01*
X78873560Y-108856250D01*
X78775857Y-109115044D01*
X78691743Y-109339620D01*
X78626281Y-109516634D01*
X78584535Y-109632740D01*
X78576417Y-109656660D01*
X78533031Y-109774747D01*
X78497065Y-109847221D01*
X78480463Y-109859342D01*
X78469818Y-109823925D01*
X78449424Y-109727751D01*
X78418806Y-109568150D01*
X78377493Y-109342457D01*
X78325011Y-109048000D01*
X78260887Y-108682114D01*
X78184648Y-108242129D01*
X78095821Y-107725377D01*
X77993932Y-107129191D01*
X77933650Y-106775250D01*
X77863423Y-106362500D01*
X77600615Y-106362500D01*
X77457347Y-106364522D01*
X77380649Y-106375277D01*
X77352441Y-106401802D01*
X77354643Y-106451133D01*
X77355870Y-106457750D01*
X77366590Y-106517228D01*
X77390494Y-106651736D01*
X77426105Y-106852916D01*
X77471949Y-107112410D01*
X77526550Y-107421860D01*
X77588433Y-107772908D01*
X77656123Y-108157195D01*
X77728143Y-108566364D01*
X77742594Y-108648500D01*
X78111254Y-110744000D01*
X78387305Y-110756320D01*
X78663355Y-110768639D01*
X79166901Y-109454570D01*
G36*
X83638217Y-110754344D02*
G01*
X83665531Y-110731634D01*
X83661142Y-110693195D01*
X83649764Y-110637639D01*
X83625376Y-110506859D01*
X83589440Y-110309053D01*
X83543418Y-110052417D01*
X83488772Y-109745150D01*
X83426963Y-109395448D01*
X83359454Y-109011508D01*
X83287706Y-108601528D01*
X83268201Y-108489750D01*
X82897229Y-106362500D01*
X82636352Y-106362500D01*
X82493748Y-106364553D01*
X82417661Y-106375453D01*
X82389959Y-106402312D01*
X82392511Y-106452243D01*
X82393537Y-106457750D01*
X82404257Y-106517229D01*
X82428160Y-106651737D01*
X82463770Y-106852917D01*
X82509613Y-107112411D01*
X82564212Y-107421861D01*
X82626093Y-107772909D01*
X82693780Y-108157196D01*
X82765798Y-108566366D01*
X82780248Y-108648500D01*
X83148896Y-110744000D01*
X83416004Y-110756695D01*
X83560745Y-110761221D01*
X83638217Y-110754344D01*
G37*
X83638217Y-110754344D02*
X83665531Y-110731634D01*
X83661142Y-110693195D01*
X83649764Y-110637639D01*
X83625376Y-110506859D01*
X83589440Y-110309053D01*
X83543418Y-110052417D01*
X83488772Y-109745150D01*
X83426963Y-109395448D01*
X83359454Y-109011508D01*
X83287706Y-108601528D01*
X83268201Y-108489750D01*
X82897229Y-106362500D01*
X82636352Y-106362500D01*
X82493748Y-106364553D01*
X82417661Y-106375453D01*
X82389959Y-106402312D01*
X82392511Y-106452243D01*
X82393537Y-106457750D01*
X82404257Y-106517229D01*
X82428160Y-106651737D01*
X82463770Y-106852917D01*
X82509613Y-107112411D01*
X82564212Y-107421861D01*
X82626093Y-107772909D01*
X82693780Y-108157196D01*
X82765798Y-108566366D01*
X82780248Y-108648500D01*
X83148896Y-110744000D01*
X83416004Y-110756695D01*
X83560745Y-110761221D01*
X83638217Y-110754344D01*
G36*
X85116279Y-110755923D02*
G01*
X85144227Y-110732630D01*
X85140846Y-110685785D01*
X85137721Y-110671972D01*
X85123232Y-110599415D01*
X85096804Y-110456675D01*
X85060236Y-110254106D01*
X85015326Y-110002062D01*
X84963874Y-109710900D01*
X84907679Y-109390973D01*
X84848539Y-109052637D01*
X84788254Y-108706245D01*
X84728623Y-108362153D01*
X84671443Y-108030717D01*
X84618516Y-107722289D01*
X84571639Y-107447226D01*
X84532611Y-107215882D01*
X84503232Y-107038612D01*
X84485300Y-106925771D01*
X84480400Y-106888466D01*
X84491753Y-106870170D01*
X84531628Y-106855873D01*
X84608744Y-106845113D01*
X84731823Y-106837432D01*
X84909586Y-106832371D01*
X85150752Y-106829471D01*
X85464043Y-106828273D01*
X85625993Y-106828167D01*
X86771587Y-106828167D01*
X86742433Y-106627084D01*
X86721688Y-106502280D01*
X86702230Y-106414450D01*
X86695007Y-106394250D01*
X86649837Y-106386676D01*
X86529993Y-106379748D01*
X86345465Y-106373689D01*
X86106247Y-106368722D01*
X85822328Y-106365069D01*
X85503701Y-106362950D01*
X85266938Y-106362500D01*
X83857140Y-106362500D01*
X83875203Y-106457750D01*
X83885923Y-106517229D01*
X83909826Y-106651737D01*
X83945437Y-106852917D01*
X83991279Y-107112411D01*
X84045879Y-107421861D01*
X84107760Y-107772909D01*
X84175447Y-108157196D01*
X84247464Y-108566366D01*
X84261915Y-108648500D01*
X84630563Y-110744000D01*
X84895470Y-110756638D01*
X85039270Y-110761860D01*
X85116279Y-110755923D01*
G37*
X85116279Y-110755923D02*
X85144227Y-110732630D01*
X85140846Y-110685785D01*
X85137721Y-110671972D01*
X85123232Y-110599415D01*
X85096804Y-110456675D01*
X85060236Y-110254106D01*
X85015326Y-110002062D01*
X84963874Y-109710900D01*
X84907679Y-109390973D01*
X84848539Y-109052637D01*
X84788254Y-108706245D01*
X84728623Y-108362153D01*
X84671443Y-108030717D01*
X84618516Y-107722289D01*
X84571639Y-107447226D01*
X84532611Y-107215882D01*
X84503232Y-107038612D01*
X84485300Y-106925771D01*
X84480400Y-106888466D01*
X84491753Y-106870170D01*
X84531628Y-106855873D01*
X84608744Y-106845113D01*
X84731823Y-106837432D01*
X84909586Y-106832371D01*
X85150752Y-106829471D01*
X85464043Y-106828273D01*
X85625993Y-106828167D01*
X86771587Y-106828167D01*
X86742433Y-106627084D01*
X86721688Y-106502280D01*
X86702230Y-106414450D01*
X86695007Y-106394250D01*
X86649837Y-106386676D01*
X86529993Y-106379748D01*
X86345465Y-106373689D01*
X86106247Y-106368722D01*
X85822328Y-106365069D01*
X85503701Y-106362950D01*
X85266938Y-106362500D01*
X83857140Y-106362500D01*
X83875203Y-106457750D01*
X83885923Y-106517229D01*
X83909826Y-106651737D01*
X83945437Y-106852917D01*
X83991279Y-107112411D01*
X84045879Y-107421861D01*
X84107760Y-107772909D01*
X84175447Y-108157196D01*
X84247464Y-108566366D01*
X84261915Y-108648500D01*
X84630563Y-110744000D01*
X84895470Y-110756638D01*
X85039270Y-110761860D01*
X85116279Y-110755923D01*
G36*
X89370040Y-110756671D02*
G01*
X89648149Y-110755141D01*
X91106384Y-110744000D01*
X91035608Y-110299500D01*
X88588346Y-110299500D01*
X88567361Y-110204250D01*
X88552208Y-110126276D01*
X88526614Y-109985089D01*
X88494196Y-109800971D01*
X88459733Y-109601000D01*
X88424157Y-109394643D01*
X88391902Y-109211591D01*
X88366588Y-109072123D01*
X88352104Y-108997750D01*
X88331120Y-108902500D01*
X90242921Y-108902500D01*
X90213766Y-108701417D01*
X90193021Y-108576614D01*
X90173563Y-108488783D01*
X90166341Y-108468584D01*
X90120565Y-108459429D01*
X90002397Y-108451307D01*
X89824110Y-108444622D01*
X89597975Y-108439776D01*
X89336265Y-108437170D01*
X89198068Y-108436834D01*
X88924684Y-108435486D01*
X88682075Y-108431708D01*
X88482207Y-108425900D01*
X88337043Y-108418462D01*
X88258547Y-108409794D01*
X88248038Y-108405084D01*
X88240838Y-108354783D01*
X88220923Y-108235644D01*
X88190794Y-108062118D01*
X88152951Y-107848655D01*
X88121696Y-107674834D01*
X88079481Y-107437328D01*
X88043176Y-107225323D01*
X88015343Y-107054414D01*
X87998545Y-106940198D01*
X87994724Y-106902250D01*
X87999512Y-106880762D01*
X88020310Y-106863866D01*
X88066127Y-106851014D01*
X88145976Y-106841660D01*
X88268866Y-106835256D01*
X88443810Y-106831254D01*
X88679816Y-106829108D01*
X88985898Y-106828270D01*
X89214524Y-106828167D01*
X90434981Y-106828167D01*
X90392779Y-106595334D01*
X90350576Y-106362500D01*
X88856150Y-106362500D01*
X88445902Y-106363093D01*
X88113600Y-106365029D01*
X87852533Y-106368551D01*
X87655988Y-106373899D01*
X87517251Y-106381313D01*
X87429611Y-106391033D01*
X87386355Y-106403301D01*
X87379292Y-106415417D01*
X87389781Y-106466359D01*
X87413262Y-106592625D01*
X87448295Y-106786112D01*
X87493440Y-107038716D01*
X87547257Y-107342334D01*
X87608306Y-107688863D01*
X87675145Y-108070200D01*
X87746336Y-108478240D01*
X87764910Y-108585000D01*
X87837116Y-108997745D01*
X87905737Y-109385156D01*
X87969296Y-109739232D01*
X88026315Y-110051968D01*
X88075318Y-110315362D01*
X88114828Y-110521411D01*
X88143370Y-110662110D01*
X88159464Y-110729457D01*
X88161437Y-110733975D01*
X88209021Y-110741251D01*
X88331356Y-110747318D01*
X88518534Y-110752034D01*
X88760646Y-110755259D01*
X89047784Y-110756852D01*
X89370040Y-110756671D01*
G37*
X89370040Y-110756671D02*
X89648149Y-110755141D01*
X91106384Y-110744000D01*
X91035608Y-110299500D01*
X88588346Y-110299500D01*
X88567361Y-110204250D01*
X88552208Y-110126276D01*
X88526614Y-109985089D01*
X88494196Y-109800971D01*
X88459733Y-109601000D01*
X88424157Y-109394643D01*
X88391902Y-109211591D01*
X88366588Y-109072123D01*
X88352104Y-108997750D01*
X88331120Y-108902500D01*
X90242921Y-108902500D01*
X90213766Y-108701417D01*
X90193021Y-108576614D01*
X90173563Y-108488783D01*
X90166341Y-108468584D01*
X90120565Y-108459429D01*
X90002397Y-108451307D01*
X89824110Y-108444622D01*
X89597975Y-108439776D01*
X89336265Y-108437170D01*
X89198068Y-108436834D01*
X88924684Y-108435486D01*
X88682075Y-108431708D01*
X88482207Y-108425900D01*
X88337043Y-108418462D01*
X88258547Y-108409794D01*
X88248038Y-108405084D01*
X88240838Y-108354783D01*
X88220923Y-108235644D01*
X88190794Y-108062118D01*
X88152951Y-107848655D01*
X88121696Y-107674834D01*
X88079481Y-107437328D01*
X88043176Y-107225323D01*
X88015343Y-107054414D01*
X87998545Y-106940198D01*
X87994724Y-106902250D01*
X87999512Y-106880762D01*
X88020310Y-106863866D01*
X88066127Y-106851014D01*
X88145976Y-106841660D01*
X88268866Y-106835256D01*
X88443810Y-106831254D01*
X88679816Y-106829108D01*
X88985898Y-106828270D01*
X89214524Y-106828167D01*
X90434981Y-106828167D01*
X90392779Y-106595334D01*
X90350576Y-106362500D01*
X88856150Y-106362500D01*
X88445902Y-106363093D01*
X88113600Y-106365029D01*
X87852533Y-106368551D01*
X87655988Y-106373899D01*
X87517251Y-106381313D01*
X87429611Y-106391033D01*
X87386355Y-106403301D01*
X87379292Y-106415417D01*
X87389781Y-106466359D01*
X87413262Y-106592625D01*
X87448295Y-106786112D01*
X87493440Y-107038716D01*
X87547257Y-107342334D01*
X87608306Y-107688863D01*
X87675145Y-108070200D01*
X87746336Y-108478240D01*
X87764910Y-108585000D01*
X87837116Y-108997745D01*
X87905737Y-109385156D01*
X87969296Y-109739232D01*
X88026315Y-110051968D01*
X88075318Y-110315362D01*
X88114828Y-110521411D01*
X88143370Y-110662110D01*
X88159464Y-110729457D01*
X88161437Y-110733975D01*
X88209021Y-110741251D01*
X88331356Y-110747318D01*
X88518534Y-110752034D01*
X88760646Y-110755259D01*
X89047784Y-110756852D01*
X89370040Y-110756671D01*
G36*
X94562290Y-108585000D02*
G01*
X94665369Y-108171278D01*
X94762073Y-107782390D01*
X94850493Y-107426069D01*
X94928717Y-107110049D01*
X94994836Y-106842063D01*
X95046941Y-106629844D01*
X95083121Y-106481124D01*
X95101466Y-106403637D01*
X95103388Y-106394250D01*
X95066221Y-106378075D01*
X94966379Y-106366639D01*
X94831706Y-106362500D01*
X94683272Y-106364602D01*
X94598157Y-106376361D01*
X94555024Y-106405956D01*
X94532540Y-106461566D01*
X94528041Y-106478917D01*
X94506495Y-106567004D01*
X94470900Y-106715155D01*
X94426607Y-106901020D01*
X94388705Y-107061000D01*
X94278674Y-107526667D01*
X92044294Y-107526667D01*
X91359566Y-106364105D01*
X91094983Y-106363303D01*
X90958165Y-106367507D01*
X90863065Y-106379267D01*
X90831744Y-106394250D01*
X90853248Y-106435267D01*
X90914726Y-106542343D01*
X91012371Y-106709071D01*
X91142373Y-106929042D01*
X91300927Y-107195848D01*
X91484223Y-107503080D01*
X91688454Y-107844331D01*
X91811332Y-108049090D01*
X92361455Y-108049090D01*
X92397467Y-108038639D01*
X92506153Y-108029401D01*
X92675522Y-108021854D01*
X92893585Y-108016476D01*
X93148352Y-108013745D01*
X93254521Y-108013500D01*
X94161698Y-108013500D01*
X93903632Y-109071361D01*
X93832970Y-109356830D01*
X93767563Y-109613147D01*
X93710351Y-109829426D01*
X93664270Y-109994784D01*
X93632258Y-110098335D01*
X93617991Y-110129695D01*
X93592148Y-110095214D01*
X93529875Y-109998996D01*
X93437885Y-109852156D01*
X93322890Y-109665807D01*
X93191602Y-109451063D01*
X93050733Y-109219039D01*
X92906995Y-108980848D01*
X92767101Y-108747605D01*
X92637762Y-108530424D01*
X92525690Y-108340418D01*
X92437598Y-108188703D01*
X92380198Y-108086391D01*
X92361455Y-108049090D01*
X91811332Y-108049090D01*
X91909812Y-108213193D01*
X92133494Y-108585000D01*
X93433900Y-110744000D01*
X94023870Y-110744000D01*
X94562290Y-108585000D01*
G37*
X94562290Y-108585000D02*
X94665369Y-108171278D01*
X94762073Y-107782390D01*
X94850493Y-107426069D01*
X94928717Y-107110049D01*
X94994836Y-106842063D01*
X95046941Y-106629844D01*
X95083121Y-106481124D01*
X95101466Y-106403637D01*
X95103388Y-106394250D01*
X95066221Y-106378075D01*
X94966379Y-106366639D01*
X94831706Y-106362500D01*
X94683272Y-106364602D01*
X94598157Y-106376361D01*
X94555024Y-106405956D01*
X94532540Y-106461566D01*
X94528041Y-106478917D01*
X94506495Y-106567004D01*
X94470900Y-106715155D01*
X94426607Y-106901020D01*
X94388705Y-107061000D01*
X94278674Y-107526667D01*
X92044294Y-107526667D01*
X91359566Y-106364105D01*
X91094983Y-106363303D01*
X90958165Y-106367507D01*
X90863065Y-106379267D01*
X90831744Y-106394250D01*
X90853248Y-106435267D01*
X90914726Y-106542343D01*
X91012371Y-106709071D01*
X91142373Y-106929042D01*
X91300927Y-107195848D01*
X91484223Y-107503080D01*
X91688454Y-107844331D01*
X91811332Y-108049090D01*
X92361455Y-108049090D01*
X92397467Y-108038639D01*
X92506153Y-108029401D01*
X92675522Y-108021854D01*
X92893585Y-108016476D01*
X93148352Y-108013745D01*
X93254521Y-108013500D01*
X94161698Y-108013500D01*
X93903632Y-109071361D01*
X93832970Y-109356830D01*
X93767563Y-109613147D01*
X93710351Y-109829426D01*
X93664270Y-109994784D01*
X93632258Y-110098335D01*
X93617991Y-110129695D01*
X93592148Y-110095214D01*
X93529875Y-109998996D01*
X93437885Y-109852156D01*
X93322890Y-109665807D01*
X93191602Y-109451063D01*
X93050733Y-109219039D01*
X92906995Y-108980848D01*
X92767101Y-108747605D01*
X92637762Y-108530424D01*
X92525690Y-108340418D01*
X92437598Y-108188703D01*
X92380198Y-108086391D01*
X92361455Y-108049090D01*
X91811332Y-108049090D01*
X91909812Y-108213193D01*
X92133494Y-108585000D01*
X93433900Y-110744000D01*
X94023870Y-110744000D01*
X94562290Y-108585000D01*
G36*
X102493373Y-110756671D02*
G01*
X102771483Y-110755141D01*
X104229717Y-110744000D01*
X104194330Y-110521750D01*
X104158942Y-110299500D01*
X101711679Y-110299500D01*
X101690695Y-110204250D01*
X101675542Y-110126276D01*
X101649947Y-109985089D01*
X101617530Y-109800971D01*
X101583066Y-109601000D01*
X101547490Y-109394643D01*
X101515236Y-109211591D01*
X101489921Y-109072123D01*
X101475438Y-108997750D01*
X101454453Y-108902500D01*
X103366254Y-108902500D01*
X103337100Y-108701417D01*
X103316354Y-108576614D01*
X103296896Y-108488783D01*
X103289674Y-108468584D01*
X103243898Y-108459429D01*
X103125731Y-108451307D01*
X102947443Y-108444622D01*
X102721308Y-108439776D01*
X102459598Y-108437170D01*
X102321401Y-108436834D01*
X102048017Y-108435486D01*
X101805409Y-108431708D01*
X101605540Y-108425900D01*
X101460376Y-108418462D01*
X101381881Y-108409794D01*
X101371371Y-108405084D01*
X101364171Y-108354783D01*
X101344256Y-108235644D01*
X101314128Y-108062118D01*
X101276285Y-107848655D01*
X101245030Y-107674834D01*
X101202815Y-107437328D01*
X101166509Y-107225323D01*
X101138676Y-107054414D01*
X101121878Y-106940198D01*
X101118058Y-106902250D01*
X101122846Y-106880762D01*
X101143643Y-106863866D01*
X101189461Y-106851014D01*
X101269309Y-106841660D01*
X101392200Y-106835256D01*
X101567143Y-106831254D01*
X101803150Y-106829108D01*
X102109231Y-106828270D01*
X102337857Y-106828167D01*
X103558314Y-106828167D01*
X103516112Y-106595334D01*
X103473909Y-106362500D01*
X101979483Y-106362500D01*
X101569235Y-106363093D01*
X101236934Y-106365029D01*
X100975866Y-106368551D01*
X100779321Y-106373899D01*
X100640585Y-106381313D01*
X100552945Y-106391033D01*
X100509689Y-106403301D01*
X100502625Y-106415417D01*
X100513114Y-106466359D01*
X100536595Y-106592625D01*
X100571628Y-106786112D01*
X100616774Y-107038716D01*
X100670591Y-107342334D01*
X100731639Y-107688863D01*
X100798479Y-108070200D01*
X100869669Y-108478240D01*
X100888243Y-108585000D01*
X100960450Y-108997745D01*
X101029070Y-109385156D01*
X101092629Y-109739232D01*
X101149648Y-110051968D01*
X101198651Y-110315362D01*
X101238162Y-110521411D01*
X101266703Y-110662110D01*
X101282798Y-110729457D01*
X101284770Y-110733975D01*
X101332354Y-110741251D01*
X101454689Y-110747318D01*
X101641867Y-110752034D01*
X101883979Y-110755259D01*
X102171118Y-110756852D01*
X102493373Y-110756671D01*
G37*
X102493373Y-110756671D02*
X102771483Y-110755141D01*
X104229717Y-110744000D01*
X104194330Y-110521750D01*
X104158942Y-110299500D01*
X101711679Y-110299500D01*
X101690695Y-110204250D01*
X101675542Y-110126276D01*
X101649947Y-109985089D01*
X101617530Y-109800971D01*
X101583066Y-109601000D01*
X101547490Y-109394643D01*
X101515236Y-109211591D01*
X101489921Y-109072123D01*
X101475438Y-108997750D01*
X101454453Y-108902500D01*
X103366254Y-108902500D01*
X103337100Y-108701417D01*
X103316354Y-108576614D01*
X103296896Y-108488783D01*
X103289674Y-108468584D01*
X103243898Y-108459429D01*
X103125731Y-108451307D01*
X102947443Y-108444622D01*
X102721308Y-108439776D01*
X102459598Y-108437170D01*
X102321401Y-108436834D01*
X102048017Y-108435486D01*
X101805409Y-108431708D01*
X101605540Y-108425900D01*
X101460376Y-108418462D01*
X101381881Y-108409794D01*
X101371371Y-108405084D01*
X101364171Y-108354783D01*
X101344256Y-108235644D01*
X101314128Y-108062118D01*
X101276285Y-107848655D01*
X101245030Y-107674834D01*
X101202815Y-107437328D01*
X101166509Y-107225323D01*
X101138676Y-107054414D01*
X101121878Y-106940198D01*
X101118058Y-106902250D01*
X101122846Y-106880762D01*
X101143643Y-106863866D01*
X101189461Y-106851014D01*
X101269309Y-106841660D01*
X101392200Y-106835256D01*
X101567143Y-106831254D01*
X101803150Y-106829108D01*
X102109231Y-106828270D01*
X102337857Y-106828167D01*
X103558314Y-106828167D01*
X103516112Y-106595334D01*
X103473909Y-106362500D01*
X101979483Y-106362500D01*
X101569235Y-106363093D01*
X101236934Y-106365029D01*
X100975866Y-106368551D01*
X100779321Y-106373899D01*
X100640585Y-106381313D01*
X100552945Y-106391033D01*
X100509689Y-106403301D01*
X100502625Y-106415417D01*
X100513114Y-106466359D01*
X100536595Y-106592625D01*
X100571628Y-106786112D01*
X100616774Y-107038716D01*
X100670591Y-107342334D01*
X100731639Y-107688863D01*
X100798479Y-108070200D01*
X100869669Y-108478240D01*
X100888243Y-108585000D01*
X100960450Y-108997745D01*
X101029070Y-109385156D01*
X101092629Y-109739232D01*
X101149648Y-110051968D01*
X101198651Y-110315362D01*
X101238162Y-110521411D01*
X101266703Y-110662110D01*
X101282798Y-110729457D01*
X101284770Y-110733975D01*
X101332354Y-110741251D01*
X101454689Y-110747318D01*
X101641867Y-110752034D01*
X101883979Y-110755259D01*
X102171118Y-110756852D01*
X102493373Y-110756671D01*
G36*
X60602322Y-116427250D02*
G01*
X60493579Y-115837502D01*
X60401809Y-115324737D01*
X60326871Y-114883021D01*
X60268626Y-114506418D01*
X60226935Y-114188993D01*
X60201658Y-113924810D01*
X60192656Y-113707935D01*
X60199789Y-113532430D01*
X60222918Y-113392362D01*
X60261904Y-113281795D01*
X60316606Y-113194792D01*
X60386885Y-113125420D01*
X60472603Y-113067742D01*
X60522742Y-113040650D01*
X60681120Y-112990929D01*
X60888429Y-112967522D01*
X61113179Y-112970269D01*
X61323879Y-112999010D01*
X61472233Y-113045480D01*
X61671813Y-113176071D01*
X61852578Y-113368158D01*
X61994385Y-113598580D01*
X62033806Y-113691212D01*
X62062290Y-113789347D01*
X62102443Y-113958653D01*
X62151727Y-114186836D01*
X62207603Y-114461599D01*
X62267531Y-114770649D01*
X62328974Y-115101690D01*
X62355236Y-115247789D01*
X62413364Y-115572085D01*
X62467352Y-115868802D01*
X62515306Y-116127882D01*
X62555334Y-116339271D01*
X62585543Y-116492911D01*
X62604040Y-116578749D01*
X62608535Y-116593414D01*
X62655301Y-116599388D01*
X62767732Y-116601936D01*
X62926889Y-116600852D01*
X63045670Y-116598126D01*
X63465969Y-116586000D01*
X63225420Y-115225657D01*
X63154016Y-114823234D01*
X63094560Y-114494008D01*
X63044481Y-114227760D01*
X63001212Y-114014273D01*
X62962181Y-113843330D01*
X62924821Y-113704715D01*
X62886560Y-113588208D01*
X62844830Y-113483595D01*
X62797062Y-113380657D01*
X62740685Y-113269176D01*
X62726512Y-113241795D01*
X62499356Y-112891188D01*
X62216236Y-112601372D01*
X61883988Y-112376353D01*
X61509445Y-112220134D01*
X61099445Y-112136720D01*
X60817755Y-112123434D01*
X60623296Y-112132762D01*
X60427600Y-112153614D01*
X60281968Y-112179599D01*
X60055680Y-112256691D01*
X59834188Y-112370192D01*
X59651230Y-112501746D01*
X59601429Y-112549847D01*
X59475065Y-112729723D01*
X59368910Y-112966023D01*
X59293423Y-113231064D01*
X59261898Y-113448402D01*
X59257406Y-113547951D01*
X59259434Y-113659768D01*
X59269285Y-113793873D01*
X59288261Y-113960285D01*
X59317664Y-114169026D01*
X59358797Y-114430115D01*
X59412963Y-114753574D01*
X59481463Y-115149421D01*
X59487444Y-115183619D01*
X59736566Y-116607112D01*
X60186184Y-116607140D01*
X60635802Y-116607167D01*
X60602322Y-116427250D01*
G37*
X60602322Y-116427250D02*
X60493579Y-115837502D01*
X60401809Y-115324737D01*
X60326871Y-114883021D01*
X60268626Y-114506418D01*
X60226935Y-114188993D01*
X60201658Y-113924810D01*
X60192656Y-113707935D01*
X60199789Y-113532430D01*
X60222918Y-113392362D01*
X60261904Y-113281795D01*
X60316606Y-113194792D01*
X60386885Y-113125420D01*
X60472603Y-113067742D01*
X60522742Y-113040650D01*
X60681120Y-112990929D01*
X60888429Y-112967522D01*
X61113179Y-112970269D01*
X61323879Y-112999010D01*
X61472233Y-113045480D01*
X61671813Y-113176071D01*
X61852578Y-113368158D01*
X61994385Y-113598580D01*
X62033806Y-113691212D01*
X62062290Y-113789347D01*
X62102443Y-113958653D01*
X62151727Y-114186836D01*
X62207603Y-114461599D01*
X62267531Y-114770649D01*
X62328974Y-115101690D01*
X62355236Y-115247789D01*
X62413364Y-115572085D01*
X62467352Y-115868802D01*
X62515306Y-116127882D01*
X62555334Y-116339271D01*
X62585543Y-116492911D01*
X62604040Y-116578749D01*
X62608535Y-116593414D01*
X62655301Y-116599388D01*
X62767732Y-116601936D01*
X62926889Y-116600852D01*
X63045670Y-116598126D01*
X63465969Y-116586000D01*
X63225420Y-115225657D01*
X63154016Y-114823234D01*
X63094560Y-114494008D01*
X63044481Y-114227760D01*
X63001212Y-114014273D01*
X62962181Y-113843330D01*
X62924821Y-113704715D01*
X62886560Y-113588208D01*
X62844830Y-113483595D01*
X62797062Y-113380657D01*
X62740685Y-113269176D01*
X62726512Y-113241795D01*
X62499356Y-112891188D01*
X62216236Y-112601372D01*
X61883988Y-112376353D01*
X61509445Y-112220134D01*
X61099445Y-112136720D01*
X60817755Y-112123434D01*
X60623296Y-112132762D01*
X60427600Y-112153614D01*
X60281968Y-112179599D01*
X60055680Y-112256691D01*
X59834188Y-112370192D01*
X59651230Y-112501746D01*
X59601429Y-112549847D01*
X59475065Y-112729723D01*
X59368910Y-112966023D01*
X59293423Y-113231064D01*
X59261898Y-113448402D01*
X59257406Y-113547951D01*
X59259434Y-113659768D01*
X59269285Y-113793873D01*
X59288261Y-113960285D01*
X59317664Y-114169026D01*
X59358797Y-114430115D01*
X59412963Y-114753574D01*
X59481463Y-115149421D01*
X59487444Y-115183619D01*
X59736566Y-116607112D01*
X60186184Y-116607140D01*
X60635802Y-116607167D01*
X60602322Y-116427250D01*
G36*
X70659148Y-116658002D02*
G01*
X71030311Y-116559974D01*
X71359736Y-116402956D01*
X71639389Y-116192150D01*
X71861239Y-115932760D01*
X72017254Y-115629992D01*
X72051132Y-115527667D01*
X72054559Y-115488574D01*
X72030299Y-115455924D01*
X71965192Y-115423462D01*
X71846076Y-115384936D01*
X71659789Y-115334091D01*
X71623892Y-115324662D01*
X71425900Y-115273717D01*
X71294087Y-115243750D01*
X71212960Y-115233429D01*
X71167023Y-115241422D01*
X71140782Y-115266396D01*
X71131532Y-115282329D01*
X71042668Y-115403463D01*
X70907808Y-115538127D01*
X70753405Y-115663997D01*
X70605911Y-115758749D01*
X70526363Y-115793050D01*
X70393599Y-115819495D01*
X70215769Y-115837903D01*
X70039821Y-115844162D01*
X69686402Y-115803571D01*
X69364047Y-115688600D01*
X69079328Y-115505912D01*
X68838814Y-115262173D01*
X68649073Y-114964049D01*
X68516677Y-114618204D01*
X68448195Y-114231302D01*
X68448025Y-114229290D01*
X68452359Y-113890884D01*
X68524085Y-113596460D01*
X68661031Y-113350522D01*
X68861022Y-113157573D01*
X69007556Y-113070485D01*
X69127081Y-113015917D01*
X69229606Y-112983662D01*
X69342700Y-112969491D01*
X69493932Y-112969177D01*
X69632136Y-112974698D01*
X69964708Y-113013585D01*
X70246540Y-113103124D01*
X70501480Y-113253905D01*
X70746405Y-113469467D01*
X70977266Y-113702177D01*
X71283583Y-113624114D01*
X71448174Y-113580752D01*
X71591587Y-113540476D01*
X71684163Y-113511634D01*
X71687333Y-113510494D01*
X71784766Y-113474936D01*
X71657493Y-113289951D01*
X71406644Y-112988235D01*
X71093843Y-112711189D01*
X70740652Y-112473574D01*
X70368631Y-112290152D01*
X70044733Y-112185746D01*
X69778844Y-112142749D01*
X69481423Y-112125954D01*
X69186742Y-112135380D01*
X68929076Y-112171045D01*
X68870599Y-112185095D01*
X68494207Y-112325059D01*
X68174582Y-112525997D01*
X67914340Y-112785799D01*
X67716100Y-113102358D01*
X67706476Y-113122593D01*
X67606541Y-113417454D01*
X67554030Y-113760507D01*
X67550520Y-114128765D01*
X67597592Y-114499240D01*
X67608392Y-114550350D01*
X67748571Y-114994778D01*
X67958603Y-115401863D01*
X68230359Y-115765026D01*
X68555712Y-116077686D01*
X68926531Y-116333266D01*
X69334688Y-116525185D01*
X69772054Y-116646864D01*
X70230500Y-116691725D01*
X70254277Y-116691834D01*
X70659148Y-116658002D01*
G37*
X70659148Y-116658002D02*
X71030311Y-116559974D01*
X71359736Y-116402956D01*
X71639389Y-116192150D01*
X71861239Y-115932760D01*
X72017254Y-115629992D01*
X72051132Y-115527667D01*
X72054559Y-115488574D01*
X72030299Y-115455924D01*
X71965192Y-115423462D01*
X71846076Y-115384936D01*
X71659789Y-115334091D01*
X71623892Y-115324662D01*
X71425900Y-115273717D01*
X71294087Y-115243750D01*
X71212960Y-115233429D01*
X71167023Y-115241422D01*
X71140782Y-115266396D01*
X71131532Y-115282329D01*
X71042668Y-115403463D01*
X70907808Y-115538127D01*
X70753405Y-115663997D01*
X70605911Y-115758749D01*
X70526363Y-115793050D01*
X70393599Y-115819495D01*
X70215769Y-115837903D01*
X70039821Y-115844162D01*
X69686402Y-115803571D01*
X69364047Y-115688600D01*
X69079328Y-115505912D01*
X68838814Y-115262173D01*
X68649073Y-114964049D01*
X68516677Y-114618204D01*
X68448195Y-114231302D01*
X68448025Y-114229290D01*
X68452359Y-113890884D01*
X68524085Y-113596460D01*
X68661031Y-113350522D01*
X68861022Y-113157573D01*
X69007556Y-113070485D01*
X69127081Y-113015917D01*
X69229606Y-112983662D01*
X69342700Y-112969491D01*
X69493932Y-112969177D01*
X69632136Y-112974698D01*
X69964708Y-113013585D01*
X70246540Y-113103124D01*
X70501480Y-113253905D01*
X70746405Y-113469467D01*
X70977266Y-113702177D01*
X71283583Y-113624114D01*
X71448174Y-113580752D01*
X71591587Y-113540476D01*
X71684163Y-113511634D01*
X71687333Y-113510494D01*
X71784766Y-113474936D01*
X71657493Y-113289951D01*
X71406644Y-112988235D01*
X71093843Y-112711189D01*
X70740652Y-112473574D01*
X70368631Y-112290152D01*
X70044733Y-112185746D01*
X69778844Y-112142749D01*
X69481423Y-112125954D01*
X69186742Y-112135380D01*
X68929076Y-112171045D01*
X68870599Y-112185095D01*
X68494207Y-112325059D01*
X68174582Y-112525997D01*
X67914340Y-112785799D01*
X67716100Y-113102358D01*
X67706476Y-113122593D01*
X67606541Y-113417454D01*
X67554030Y-113760507D01*
X67550520Y-114128765D01*
X67597592Y-114499240D01*
X67608392Y-114550350D01*
X67748571Y-114994778D01*
X67958603Y-115401863D01*
X68230359Y-115765026D01*
X68555712Y-116077686D01*
X68926531Y-116333266D01*
X69334688Y-116525185D01*
X69772054Y-116646864D01*
X70230500Y-116691725D01*
X70254277Y-116691834D01*
X70659148Y-116658002D01*
G36*
X65617300Y-116605495D02*
G01*
X65918486Y-116599443D01*
X66157669Y-116587085D01*
X66346161Y-116566581D01*
X66495274Y-116536092D01*
X66616320Y-116493778D01*
X66720609Y-116437800D01*
X66819453Y-116366319D01*
X66843450Y-116346794D01*
X67018610Y-116151919D01*
X67124686Y-115923703D01*
X67163612Y-115674900D01*
X67137323Y-115418264D01*
X67047753Y-115166549D01*
X66896836Y-114932511D01*
X66686507Y-114728902D01*
X66587579Y-114659727D01*
X66406229Y-114544717D01*
X66576566Y-114467906D01*
X66797004Y-114326836D01*
X66953836Y-114136224D01*
X67045018Y-113904657D01*
X67068503Y-113640720D01*
X67022246Y-113353001D01*
X66911074Y-113063901D01*
X66725967Y-112776189D01*
X66482066Y-112547417D01*
X66177285Y-112376032D01*
X65844482Y-112268446D01*
X65724462Y-112249299D01*
X65548038Y-112233212D01*
X65327800Y-112220245D01*
X65076338Y-112210454D01*
X64806242Y-112203899D01*
X64530101Y-112200636D01*
X64260505Y-112200724D01*
X64010044Y-112204221D01*
X63791309Y-112211185D01*
X63616887Y-112221674D01*
X63499370Y-112235746D01*
X63451347Y-112253459D01*
X63451180Y-112257417D01*
X63462075Y-112308282D01*
X63486058Y-112434519D01*
X63521681Y-112628093D01*
X63567499Y-112880965D01*
X63584953Y-112978250D01*
X64469788Y-112978250D01*
X64481918Y-112951109D01*
X64526332Y-112935118D01*
X64616941Y-112927403D01*
X64767661Y-112925089D01*
X64932176Y-112925177D01*
X65143755Y-112929041D01*
X65341207Y-112938691D01*
X65498854Y-112952549D01*
X65575290Y-112964700D01*
X65790779Y-113050812D01*
X65963520Y-113190368D01*
X66084333Y-113367877D01*
X66144039Y-113567848D01*
X66133457Y-113774789D01*
X66105842Y-113860065D01*
X66039379Y-113969049D01*
X65936025Y-114049121D01*
X65785031Y-114103684D01*
X65575648Y-114136139D01*
X65297127Y-114149889D01*
X65186983Y-114150904D01*
X64988690Y-114148719D01*
X64825400Y-114142081D01*
X64713303Y-114131999D01*
X64668588Y-114119483D01*
X64668400Y-114118583D01*
X64661373Y-114066087D01*
X64642585Y-113949944D01*
X64615474Y-113789800D01*
X64583479Y-113605301D01*
X64550037Y-113416092D01*
X64518586Y-113241817D01*
X64492566Y-113102122D01*
X64476026Y-113019417D01*
X64469788Y-112978250D01*
X63584953Y-112978250D01*
X63622065Y-113185099D01*
X63683933Y-113532459D01*
X63751656Y-113915007D01*
X63823789Y-114324705D01*
X63847292Y-114458663D01*
X63912242Y-114829167D01*
X64800723Y-114829167D01*
X65286997Y-114829167D01*
X65554898Y-114834511D01*
X65745848Y-114851011D01*
X65866913Y-114879365D01*
X65887585Y-114888645D01*
X66069857Y-115018405D01*
X66179634Y-115185698D01*
X66224324Y-115389758D01*
X66228727Y-115534777D01*
X66208262Y-115628800D01*
X66155818Y-115703615D01*
X66153579Y-115705998D01*
X66023598Y-115797067D01*
X65833897Y-115854311D01*
X65577191Y-115879310D01*
X65356647Y-115878564D01*
X64986677Y-115866334D01*
X64919434Y-115506500D01*
X64884818Y-115318784D01*
X64853147Y-115142724D01*
X64830132Y-115010174D01*
X64826457Y-114987917D01*
X64800723Y-114829167D01*
X63912242Y-114829167D01*
X64223900Y-116606991D01*
X65242799Y-116607079D01*
X65617300Y-116605495D01*
G37*
X65617300Y-116605495D02*
X65918486Y-116599443D01*
X66157669Y-116587085D01*
X66346161Y-116566581D01*
X66495274Y-116536092D01*
X66616320Y-116493778D01*
X66720609Y-116437800D01*
X66819453Y-116366319D01*
X66843450Y-116346794D01*
X67018610Y-116151919D01*
X67124686Y-115923703D01*
X67163612Y-115674900D01*
X67137323Y-115418264D01*
X67047753Y-115166549D01*
X66896836Y-114932511D01*
X66686507Y-114728902D01*
X66587579Y-114659727D01*
X66406229Y-114544717D01*
X66576566Y-114467906D01*
X66797004Y-114326836D01*
X66953836Y-114136224D01*
X67045018Y-113904657D01*
X67068503Y-113640720D01*
X67022246Y-113353001D01*
X66911074Y-113063901D01*
X66725967Y-112776189D01*
X66482066Y-112547417D01*
X66177285Y-112376032D01*
X65844482Y-112268446D01*
X65724462Y-112249299D01*
X65548038Y-112233212D01*
X65327800Y-112220245D01*
X65076338Y-112210454D01*
X64806242Y-112203899D01*
X64530101Y-112200636D01*
X64260505Y-112200724D01*
X64010044Y-112204221D01*
X63791309Y-112211185D01*
X63616887Y-112221674D01*
X63499370Y-112235746D01*
X63451347Y-112253459D01*
X63451180Y-112257417D01*
X63462075Y-112308282D01*
X63486058Y-112434519D01*
X63521681Y-112628093D01*
X63567499Y-112880965D01*
X63584953Y-112978250D01*
X64469788Y-112978250D01*
X64481918Y-112951109D01*
X64526332Y-112935118D01*
X64616941Y-112927403D01*
X64767661Y-112925089D01*
X64932176Y-112925177D01*
X65143755Y-112929041D01*
X65341207Y-112938691D01*
X65498854Y-112952549D01*
X65575290Y-112964700D01*
X65790779Y-113050812D01*
X65963520Y-113190368D01*
X66084333Y-113367877D01*
X66144039Y-113567848D01*
X66133457Y-113774789D01*
X66105842Y-113860065D01*
X66039379Y-113969049D01*
X65936025Y-114049121D01*
X65785031Y-114103684D01*
X65575648Y-114136139D01*
X65297127Y-114149889D01*
X65186983Y-114150904D01*
X64988690Y-114148719D01*
X64825400Y-114142081D01*
X64713303Y-114131999D01*
X64668588Y-114119483D01*
X64668400Y-114118583D01*
X64661373Y-114066087D01*
X64642585Y-113949944D01*
X64615474Y-113789800D01*
X64583479Y-113605301D01*
X64550037Y-113416092D01*
X64518586Y-113241817D01*
X64492566Y-113102122D01*
X64476026Y-113019417D01*
X64469788Y-112978250D01*
X63584953Y-112978250D01*
X63622065Y-113185099D01*
X63683933Y-113532459D01*
X63751656Y-113915007D01*
X63823789Y-114324705D01*
X63847292Y-114458663D01*
X63912242Y-114829167D01*
X64800723Y-114829167D01*
X65286997Y-114829167D01*
X65554898Y-114834511D01*
X65745848Y-114851011D01*
X65866913Y-114879365D01*
X65887585Y-114888645D01*
X66069857Y-115018405D01*
X66179634Y-115185698D01*
X66224324Y-115389758D01*
X66228727Y-115534777D01*
X66208262Y-115628800D01*
X66155818Y-115703615D01*
X66153579Y-115705998D01*
X66023598Y-115797067D01*
X65833897Y-115854311D01*
X65577191Y-115879310D01*
X65356647Y-115878564D01*
X64986677Y-115866334D01*
X64919434Y-115506500D01*
X64884818Y-115318784D01*
X64853147Y-115142724D01*
X64830132Y-115010174D01*
X64826457Y-114987917D01*
X64800723Y-114829167D01*
X63912242Y-114829167D01*
X64223900Y-116606991D01*
X65242799Y-116607079D01*
X65617300Y-116605495D01*
M02*
