G04 #@! TF.GenerationSoftware,KiCad,Pcbnew,(5.1.9-0-10_14)*
G04 #@! TF.CreationDate,2021-09-08T16:00:18-07:00*
G04 #@! TF.ProjectId,telemetry-pcb,74656c65-6d65-4747-9279-2d7063622e6b,rev?*
G04 #@! TF.SameCoordinates,Original*
G04 #@! TF.FileFunction,Soldermask,Top*
G04 #@! TF.FilePolarity,Negative*
%FSLAX46Y46*%
G04 Gerber Fmt 4.6, Leading zero omitted, Abs format (unit mm)*
G04 Created by KiCad (PCBNEW (5.1.9-0-10_14)) date 2021-09-08 16:00:18*
%MOMM*%
%LPD*%
G01*
G04 APERTURE LIST*
%ADD10C,1.400000*%
%ADD11O,1.700000X1.700000*%
%ADD12R,1.700000X1.700000*%
%ADD13O,4.300000X4.300000*%
%ADD14C,4.300000*%
%ADD15O,1.600000X1.600000*%
%ADD16R,1.600000X1.600000*%
%ADD17C,1.800000*%
%ADD18C,3.556000*%
%ADD19R,4.500000X2.000000*%
%ADD20C,3.400000*%
%ADD21C,1.690000*%
%ADD22R,1.690000X1.690000*%
%ADD23C,4.800000*%
%ADD24C,1.650000*%
%ADD25C,3.000000*%
%ADD26C,3.700000*%
%ADD27R,3.000000X2.290000*%
%ADD28R,0.600000X1.970000*%
%ADD29C,4.000000*%
%ADD30C,2.780000*%
%ADD31R,1.800000X2.500000*%
G04 APERTURE END LIST*
G36*
G01*
X185820000Y-96462001D02*
X185820000Y-95561999D01*
G75*
G02*
X186069999Y-95312000I249999J0D01*
G01*
X186595001Y-95312000D01*
G75*
G02*
X186845000Y-95561999I0J-249999D01*
G01*
X186845000Y-96462001D01*
G75*
G02*
X186595001Y-96712000I-249999J0D01*
G01*
X186069999Y-96712000D01*
G75*
G02*
X185820000Y-96462001I0J249999D01*
G01*
G37*
G36*
G01*
X183995000Y-96462001D02*
X183995000Y-95561999D01*
G75*
G02*
X184244999Y-95312000I249999J0D01*
G01*
X184770001Y-95312000D01*
G75*
G02*
X185020000Y-95561999I0J-249999D01*
G01*
X185020000Y-96462001D01*
G75*
G02*
X184770001Y-96712000I-249999J0D01*
G01*
X184244999Y-96712000D01*
G75*
G02*
X183995000Y-96462001I0J249999D01*
G01*
G37*
G36*
G01*
X158096000Y-94545999D02*
X158096000Y-95446001D01*
G75*
G02*
X157846001Y-95696000I-249999J0D01*
G01*
X157320999Y-95696000D01*
G75*
G02*
X157071000Y-95446001I0J249999D01*
G01*
X157071000Y-94545999D01*
G75*
G02*
X157320999Y-94296000I249999J0D01*
G01*
X157846001Y-94296000D01*
G75*
G02*
X158096000Y-94545999I0J-249999D01*
G01*
G37*
G36*
G01*
X159921000Y-94545999D02*
X159921000Y-95446001D01*
G75*
G02*
X159671001Y-95696000I-249999J0D01*
G01*
X159145999Y-95696000D01*
G75*
G02*
X158896000Y-95446001I0J249999D01*
G01*
X158896000Y-94545999D01*
G75*
G02*
X159145999Y-94296000I249999J0D01*
G01*
X159671001Y-94296000D01*
G75*
G02*
X159921000Y-94545999I0J-249999D01*
G01*
G37*
G36*
G01*
X165157999Y-95396000D02*
X166058001Y-95396000D01*
G75*
G02*
X166308000Y-95645999I0J-249999D01*
G01*
X166308000Y-96171001D01*
G75*
G02*
X166058001Y-96421000I-249999J0D01*
G01*
X165157999Y-96421000D01*
G75*
G02*
X164908000Y-96171001I0J249999D01*
G01*
X164908000Y-95645999D01*
G75*
G02*
X165157999Y-95396000I249999J0D01*
G01*
G37*
G36*
G01*
X165157999Y-93571000D02*
X166058001Y-93571000D01*
G75*
G02*
X166308000Y-93820999I0J-249999D01*
G01*
X166308000Y-94346001D01*
G75*
G02*
X166058001Y-94596000I-249999J0D01*
G01*
X165157999Y-94596000D01*
G75*
G02*
X164908000Y-94346001I0J249999D01*
G01*
X164908000Y-93820999D01*
G75*
G02*
X165157999Y-93571000I249999J0D01*
G01*
G37*
G36*
G01*
X171253999Y-95396000D02*
X172154001Y-95396000D01*
G75*
G02*
X172404000Y-95645999I0J-249999D01*
G01*
X172404000Y-96171001D01*
G75*
G02*
X172154001Y-96421000I-249999J0D01*
G01*
X171253999Y-96421000D01*
G75*
G02*
X171004000Y-96171001I0J249999D01*
G01*
X171004000Y-95645999D01*
G75*
G02*
X171253999Y-95396000I249999J0D01*
G01*
G37*
G36*
G01*
X171253999Y-93571000D02*
X172154001Y-93571000D01*
G75*
G02*
X172404000Y-93820999I0J-249999D01*
G01*
X172404000Y-94346001D01*
G75*
G02*
X172154001Y-94596000I-249999J0D01*
G01*
X171253999Y-94596000D01*
G75*
G02*
X171004000Y-94346001I0J249999D01*
G01*
X171004000Y-93820999D01*
G75*
G02*
X171253999Y-93571000I249999J0D01*
G01*
G37*
G36*
G01*
X143204250Y-87434000D02*
X142291750Y-87434000D01*
G75*
G02*
X142048000Y-87190250I0J243750D01*
G01*
X142048000Y-86702750D01*
G75*
G02*
X142291750Y-86459000I243750J0D01*
G01*
X143204250Y-86459000D01*
G75*
G02*
X143448000Y-86702750I0J-243750D01*
G01*
X143448000Y-87190250D01*
G75*
G02*
X143204250Y-87434000I-243750J0D01*
G01*
G37*
G36*
G01*
X143204250Y-89309000D02*
X142291750Y-89309000D01*
G75*
G02*
X142048000Y-89065250I0J243750D01*
G01*
X142048000Y-88577750D01*
G75*
G02*
X142291750Y-88334000I243750J0D01*
G01*
X143204250Y-88334000D01*
G75*
G02*
X143448000Y-88577750I0J-243750D01*
G01*
X143448000Y-89065250D01*
G75*
G02*
X143204250Y-89309000I-243750J0D01*
G01*
G37*
G36*
G01*
X135076250Y-87434000D02*
X134163750Y-87434000D01*
G75*
G02*
X133920000Y-87190250I0J243750D01*
G01*
X133920000Y-86702750D01*
G75*
G02*
X134163750Y-86459000I243750J0D01*
G01*
X135076250Y-86459000D01*
G75*
G02*
X135320000Y-86702750I0J-243750D01*
G01*
X135320000Y-87190250D01*
G75*
G02*
X135076250Y-87434000I-243750J0D01*
G01*
G37*
G36*
G01*
X135076250Y-89309000D02*
X134163750Y-89309000D01*
G75*
G02*
X133920000Y-89065250I0J243750D01*
G01*
X133920000Y-88577750D01*
G75*
G02*
X134163750Y-88334000I243750J0D01*
G01*
X135076250Y-88334000D01*
G75*
G02*
X135320000Y-88577750I0J-243750D01*
G01*
X135320000Y-89065250D01*
G75*
G02*
X135076250Y-89309000I-243750J0D01*
G01*
G37*
G36*
G01*
X127456250Y-87355500D02*
X126543750Y-87355500D01*
G75*
G02*
X126300000Y-87111750I0J243750D01*
G01*
X126300000Y-86624250D01*
G75*
G02*
X126543750Y-86380500I243750J0D01*
G01*
X127456250Y-86380500D01*
G75*
G02*
X127700000Y-86624250I0J-243750D01*
G01*
X127700000Y-87111750D01*
G75*
G02*
X127456250Y-87355500I-243750J0D01*
G01*
G37*
G36*
G01*
X127456250Y-89230500D02*
X126543750Y-89230500D01*
G75*
G02*
X126300000Y-88986750I0J243750D01*
G01*
X126300000Y-88499250D01*
G75*
G02*
X126543750Y-88255500I243750J0D01*
G01*
X127456250Y-88255500D01*
G75*
G02*
X127700000Y-88499250I0J-243750D01*
G01*
X127700000Y-88986750D01*
G75*
G02*
X127456250Y-89230500I-243750J0D01*
G01*
G37*
G36*
G01*
X185870000Y-101548250D02*
X185870000Y-100635750D01*
G75*
G02*
X186113750Y-100392000I243750J0D01*
G01*
X186601250Y-100392000D01*
G75*
G02*
X186845000Y-100635750I0J-243750D01*
G01*
X186845000Y-101548250D01*
G75*
G02*
X186601250Y-101792000I-243750J0D01*
G01*
X186113750Y-101792000D01*
G75*
G02*
X185870000Y-101548250I0J243750D01*
G01*
G37*
G36*
G01*
X183995000Y-101548250D02*
X183995000Y-100635750D01*
G75*
G02*
X184238750Y-100392000I243750J0D01*
G01*
X184726250Y-100392000D01*
G75*
G02*
X184970000Y-100635750I0J-243750D01*
G01*
X184970000Y-101548250D01*
G75*
G02*
X184726250Y-101792000I-243750J0D01*
G01*
X184238750Y-101792000D01*
G75*
G02*
X183995000Y-101548250I0J243750D01*
G01*
G37*
D10*
X101600000Y-84836000D03*
X101600000Y-87376000D03*
X95504000Y-84836000D03*
X95504000Y-87376000D03*
X89408000Y-84836000D03*
X89408000Y-87376000D03*
D11*
X54864000Y-69088000D03*
X54864000Y-66548000D03*
X54864000Y-64008000D03*
X54864000Y-61468000D03*
X54864000Y-58928000D03*
X54864000Y-56388000D03*
X54864000Y-53848000D03*
D12*
X54864000Y-51308000D03*
D13*
X56134000Y-42418000D03*
D14*
X91694000Y-42418000D03*
D13*
X91694000Y-77978000D03*
X56134000Y-77978000D03*
D11*
X155192607Y-87319463D03*
X157732607Y-87319463D03*
X160272607Y-87319463D03*
X162812607Y-87319463D03*
X165352607Y-87319463D03*
X167892607Y-87319463D03*
X170432607Y-87319463D03*
X172972607Y-87319463D03*
X175512607Y-87319463D03*
X178052607Y-87319463D03*
X180592607Y-87319463D03*
D12*
X183132607Y-87319463D03*
D11*
X157735235Y-58506104D03*
X160275235Y-58506104D03*
X162815235Y-58506104D03*
X165355235Y-58506104D03*
X167895235Y-58506104D03*
X170435235Y-58506104D03*
X172975235Y-58506104D03*
X175515235Y-58506104D03*
X178055235Y-58506104D03*
X180595235Y-58506104D03*
X183135235Y-58506104D03*
X185675235Y-58506104D03*
X188215235Y-58506104D03*
X190755235Y-58506104D03*
D12*
X193513235Y-58506104D03*
D15*
X99060000Y-54864000D03*
D16*
X106680000Y-54864000D03*
D17*
X183134000Y-83312000D03*
X180594000Y-83312000D03*
X178054000Y-83312000D03*
X175514000Y-83312000D03*
X172974000Y-83312000D03*
X170434000Y-83312000D03*
X167894000Y-83312000D03*
X165354000Y-83312000D03*
X162814000Y-83312000D03*
X160274000Y-83312000D03*
X157734000Y-83312000D03*
X155194000Y-83312000D03*
X155194000Y-62992000D03*
X157734000Y-62992000D03*
X160274000Y-62992000D03*
X162814000Y-62992000D03*
X165354000Y-62992000D03*
X167894000Y-62992000D03*
X170434000Y-62992000D03*
X172974000Y-62992000D03*
X175514000Y-62992000D03*
X178054000Y-62992000D03*
X180594000Y-62992000D03*
X183134000Y-62992000D03*
X185674000Y-62992000D03*
X188214000Y-62992000D03*
X190754000Y-62992000D03*
X193294000Y-62992000D03*
D18*
X151384000Y-64262000D03*
X197104000Y-64262000D03*
X151384000Y-82042000D03*
X197104000Y-82042000D03*
D19*
X141410000Y-73660000D03*
X132910000Y-73660000D03*
D20*
X166370000Y-24605000D03*
X173990000Y-24605000D03*
D21*
X172720000Y-33245000D03*
X170180000Y-33245000D03*
D22*
X167640000Y-33245000D03*
D20*
X180340000Y-24605000D03*
X187960000Y-24605000D03*
D21*
X186690000Y-33245000D03*
X184150000Y-33245000D03*
D22*
X181610000Y-33245000D03*
D23*
X132788000Y-30850000D03*
X157788000Y-30850000D03*
D24*
X141178000Y-29580000D03*
X143918000Y-29580000D03*
X146658000Y-29580000D03*
X149398000Y-29580000D03*
X139808000Y-32120000D03*
X142548000Y-32120000D03*
X145288000Y-32120000D03*
X148028000Y-32120000D03*
X150768000Y-32120000D03*
D25*
X162250000Y-140650000D03*
D26*
X159400000Y-133350000D03*
G36*
G01*
X166950000Y-131750000D02*
X166950000Y-134950000D01*
G75*
G02*
X166700000Y-135200000I-250000J0D01*
G01*
X163500000Y-135200000D01*
G75*
G02*
X163250000Y-134950000I0J250000D01*
G01*
X163250000Y-131750000D01*
G75*
G02*
X163500000Y-131500000I250000J0D01*
G01*
X166700000Y-131500000D01*
G75*
G02*
X166950000Y-131750000I0J-250000D01*
G01*
G37*
D25*
X143200000Y-140650000D03*
D26*
X140350000Y-133350000D03*
G36*
G01*
X147900000Y-131750000D02*
X147900000Y-134950000D01*
G75*
G02*
X147650000Y-135200000I-250000J0D01*
G01*
X144450000Y-135200000D01*
G75*
G02*
X144200000Y-134950000I0J250000D01*
G01*
X144200000Y-131750000D01*
G75*
G02*
X144450000Y-131500000I250000J0D01*
G01*
X147650000Y-131500000D01*
G75*
G02*
X147900000Y-131750000I0J-250000D01*
G01*
G37*
D25*
X124150000Y-140650000D03*
D26*
X121300000Y-133350000D03*
G36*
G01*
X128850000Y-131750000D02*
X128850000Y-134950000D01*
G75*
G02*
X128600000Y-135200000I-250000J0D01*
G01*
X125400000Y-135200000D01*
G75*
G02*
X125150000Y-134950000I0J250000D01*
G01*
X125150000Y-131750000D01*
G75*
G02*
X125400000Y-131500000I250000J0D01*
G01*
X128600000Y-131500000D01*
G75*
G02*
X128850000Y-131750000I0J-250000D01*
G01*
G37*
D25*
X105100000Y-140650000D03*
D26*
X102250000Y-133350000D03*
G36*
G01*
X109800000Y-131750000D02*
X109800000Y-134950000D01*
G75*
G02*
X109550000Y-135200000I-250000J0D01*
G01*
X106350000Y-135200000D01*
G75*
G02*
X106100000Y-134950000I0J250000D01*
G01*
X106100000Y-131750000D01*
G75*
G02*
X106350000Y-131500000I250000J0D01*
G01*
X109550000Y-131500000D01*
G75*
G02*
X109800000Y-131750000I0J-250000D01*
G01*
G37*
G36*
G01*
X145399000Y-41817000D02*
X145199000Y-41817000D01*
G75*
G02*
X145099000Y-41717000I0J100000D01*
G01*
X145099000Y-40442000D01*
G75*
G02*
X145199000Y-40342000I100000J0D01*
G01*
X145399000Y-40342000D01*
G75*
G02*
X145499000Y-40442000I0J-100000D01*
G01*
X145499000Y-41717000D01*
G75*
G02*
X145399000Y-41817000I-100000J0D01*
G01*
G37*
G36*
G01*
X146049000Y-41817000D02*
X145849000Y-41817000D01*
G75*
G02*
X145749000Y-41717000I0J100000D01*
G01*
X145749000Y-40442000D01*
G75*
G02*
X145849000Y-40342000I100000J0D01*
G01*
X146049000Y-40342000D01*
G75*
G02*
X146149000Y-40442000I0J-100000D01*
G01*
X146149000Y-41717000D01*
G75*
G02*
X146049000Y-41817000I-100000J0D01*
G01*
G37*
G36*
G01*
X146699000Y-41817000D02*
X146499000Y-41817000D01*
G75*
G02*
X146399000Y-41717000I0J100000D01*
G01*
X146399000Y-40442000D01*
G75*
G02*
X146499000Y-40342000I100000J0D01*
G01*
X146699000Y-40342000D01*
G75*
G02*
X146799000Y-40442000I0J-100000D01*
G01*
X146799000Y-41717000D01*
G75*
G02*
X146699000Y-41817000I-100000J0D01*
G01*
G37*
G36*
G01*
X147349000Y-41817000D02*
X147149000Y-41817000D01*
G75*
G02*
X147049000Y-41717000I0J100000D01*
G01*
X147049000Y-40442000D01*
G75*
G02*
X147149000Y-40342000I100000J0D01*
G01*
X147349000Y-40342000D01*
G75*
G02*
X147449000Y-40442000I0J-100000D01*
G01*
X147449000Y-41717000D01*
G75*
G02*
X147349000Y-41817000I-100000J0D01*
G01*
G37*
G36*
G01*
X147999000Y-41817000D02*
X147799000Y-41817000D01*
G75*
G02*
X147699000Y-41717000I0J100000D01*
G01*
X147699000Y-40442000D01*
G75*
G02*
X147799000Y-40342000I100000J0D01*
G01*
X147999000Y-40342000D01*
G75*
G02*
X148099000Y-40442000I0J-100000D01*
G01*
X148099000Y-41717000D01*
G75*
G02*
X147999000Y-41817000I-100000J0D01*
G01*
G37*
G36*
G01*
X148649000Y-41817000D02*
X148449000Y-41817000D01*
G75*
G02*
X148349000Y-41717000I0J100000D01*
G01*
X148349000Y-40442000D01*
G75*
G02*
X148449000Y-40342000I100000J0D01*
G01*
X148649000Y-40342000D01*
G75*
G02*
X148749000Y-40442000I0J-100000D01*
G01*
X148749000Y-41717000D01*
G75*
G02*
X148649000Y-41817000I-100000J0D01*
G01*
G37*
G36*
G01*
X149299000Y-41817000D02*
X149099000Y-41817000D01*
G75*
G02*
X148999000Y-41717000I0J100000D01*
G01*
X148999000Y-40442000D01*
G75*
G02*
X149099000Y-40342000I100000J0D01*
G01*
X149299000Y-40342000D01*
G75*
G02*
X149399000Y-40442000I0J-100000D01*
G01*
X149399000Y-41717000D01*
G75*
G02*
X149299000Y-41817000I-100000J0D01*
G01*
G37*
G36*
G01*
X149949000Y-41817000D02*
X149749000Y-41817000D01*
G75*
G02*
X149649000Y-41717000I0J100000D01*
G01*
X149649000Y-40442000D01*
G75*
G02*
X149749000Y-40342000I100000J0D01*
G01*
X149949000Y-40342000D01*
G75*
G02*
X150049000Y-40442000I0J-100000D01*
G01*
X150049000Y-41717000D01*
G75*
G02*
X149949000Y-41817000I-100000J0D01*
G01*
G37*
G36*
G01*
X149949000Y-47542000D02*
X149749000Y-47542000D01*
G75*
G02*
X149649000Y-47442000I0J100000D01*
G01*
X149649000Y-46167000D01*
G75*
G02*
X149749000Y-46067000I100000J0D01*
G01*
X149949000Y-46067000D01*
G75*
G02*
X150049000Y-46167000I0J-100000D01*
G01*
X150049000Y-47442000D01*
G75*
G02*
X149949000Y-47542000I-100000J0D01*
G01*
G37*
G36*
G01*
X149299000Y-47542000D02*
X149099000Y-47542000D01*
G75*
G02*
X148999000Y-47442000I0J100000D01*
G01*
X148999000Y-46167000D01*
G75*
G02*
X149099000Y-46067000I100000J0D01*
G01*
X149299000Y-46067000D01*
G75*
G02*
X149399000Y-46167000I0J-100000D01*
G01*
X149399000Y-47442000D01*
G75*
G02*
X149299000Y-47542000I-100000J0D01*
G01*
G37*
G36*
G01*
X148649000Y-47542000D02*
X148449000Y-47542000D01*
G75*
G02*
X148349000Y-47442000I0J100000D01*
G01*
X148349000Y-46167000D01*
G75*
G02*
X148449000Y-46067000I100000J0D01*
G01*
X148649000Y-46067000D01*
G75*
G02*
X148749000Y-46167000I0J-100000D01*
G01*
X148749000Y-47442000D01*
G75*
G02*
X148649000Y-47542000I-100000J0D01*
G01*
G37*
G36*
G01*
X147999000Y-47542000D02*
X147799000Y-47542000D01*
G75*
G02*
X147699000Y-47442000I0J100000D01*
G01*
X147699000Y-46167000D01*
G75*
G02*
X147799000Y-46067000I100000J0D01*
G01*
X147999000Y-46067000D01*
G75*
G02*
X148099000Y-46167000I0J-100000D01*
G01*
X148099000Y-47442000D01*
G75*
G02*
X147999000Y-47542000I-100000J0D01*
G01*
G37*
G36*
G01*
X147349000Y-47542000D02*
X147149000Y-47542000D01*
G75*
G02*
X147049000Y-47442000I0J100000D01*
G01*
X147049000Y-46167000D01*
G75*
G02*
X147149000Y-46067000I100000J0D01*
G01*
X147349000Y-46067000D01*
G75*
G02*
X147449000Y-46167000I0J-100000D01*
G01*
X147449000Y-47442000D01*
G75*
G02*
X147349000Y-47542000I-100000J0D01*
G01*
G37*
G36*
G01*
X146699000Y-47542000D02*
X146499000Y-47542000D01*
G75*
G02*
X146399000Y-47442000I0J100000D01*
G01*
X146399000Y-46167000D01*
G75*
G02*
X146499000Y-46067000I100000J0D01*
G01*
X146699000Y-46067000D01*
G75*
G02*
X146799000Y-46167000I0J-100000D01*
G01*
X146799000Y-47442000D01*
G75*
G02*
X146699000Y-47542000I-100000J0D01*
G01*
G37*
G36*
G01*
X146049000Y-47542000D02*
X145849000Y-47542000D01*
G75*
G02*
X145749000Y-47442000I0J100000D01*
G01*
X145749000Y-46167000D01*
G75*
G02*
X145849000Y-46067000I100000J0D01*
G01*
X146049000Y-46067000D01*
G75*
G02*
X146149000Y-46167000I0J-100000D01*
G01*
X146149000Y-47442000D01*
G75*
G02*
X146049000Y-47542000I-100000J0D01*
G01*
G37*
G36*
G01*
X145399000Y-47542000D02*
X145199000Y-47542000D01*
G75*
G02*
X145099000Y-47442000I0J100000D01*
G01*
X145099000Y-46167000D01*
G75*
G02*
X145199000Y-46067000I100000J0D01*
G01*
X145399000Y-46067000D01*
G75*
G02*
X145499000Y-46167000I0J-100000D01*
G01*
X145499000Y-47442000D01*
G75*
G02*
X145399000Y-47542000I-100000J0D01*
G01*
G37*
D27*
X171958000Y-42164000D03*
G36*
G01*
X173713000Y-43664000D02*
X174013000Y-43664000D01*
G75*
G02*
X174163000Y-43814000I0J-150000D01*
G01*
X174163000Y-45464000D01*
G75*
G02*
X174013000Y-45614000I-150000J0D01*
G01*
X173713000Y-45614000D01*
G75*
G02*
X173563000Y-45464000I0J150000D01*
G01*
X173563000Y-43814000D01*
G75*
G02*
X173713000Y-43664000I150000J0D01*
G01*
G37*
G36*
G01*
X172443000Y-43664000D02*
X172743000Y-43664000D01*
G75*
G02*
X172893000Y-43814000I0J-150000D01*
G01*
X172893000Y-45464000D01*
G75*
G02*
X172743000Y-45614000I-150000J0D01*
G01*
X172443000Y-45614000D01*
G75*
G02*
X172293000Y-45464000I0J150000D01*
G01*
X172293000Y-43814000D01*
G75*
G02*
X172443000Y-43664000I150000J0D01*
G01*
G37*
G36*
G01*
X171173000Y-43664000D02*
X171473000Y-43664000D01*
G75*
G02*
X171623000Y-43814000I0J-150000D01*
G01*
X171623000Y-45464000D01*
G75*
G02*
X171473000Y-45614000I-150000J0D01*
G01*
X171173000Y-45614000D01*
G75*
G02*
X171023000Y-45464000I0J150000D01*
G01*
X171023000Y-43814000D01*
G75*
G02*
X171173000Y-43664000I150000J0D01*
G01*
G37*
G36*
G01*
X169903000Y-43664000D02*
X170203000Y-43664000D01*
G75*
G02*
X170353000Y-43814000I0J-150000D01*
G01*
X170353000Y-45464000D01*
G75*
G02*
X170203000Y-45614000I-150000J0D01*
G01*
X169903000Y-45614000D01*
G75*
G02*
X169753000Y-45464000I0J150000D01*
G01*
X169753000Y-43814000D01*
G75*
G02*
X169903000Y-43664000I150000J0D01*
G01*
G37*
G36*
G01*
X169903000Y-38714000D02*
X170203000Y-38714000D01*
G75*
G02*
X170353000Y-38864000I0J-150000D01*
G01*
X170353000Y-40514000D01*
G75*
G02*
X170203000Y-40664000I-150000J0D01*
G01*
X169903000Y-40664000D01*
G75*
G02*
X169753000Y-40514000I0J150000D01*
G01*
X169753000Y-38864000D01*
G75*
G02*
X169903000Y-38714000I150000J0D01*
G01*
G37*
G36*
G01*
X171173000Y-38714000D02*
X171473000Y-38714000D01*
G75*
G02*
X171623000Y-38864000I0J-150000D01*
G01*
X171623000Y-40514000D01*
G75*
G02*
X171473000Y-40664000I-150000J0D01*
G01*
X171173000Y-40664000D01*
G75*
G02*
X171023000Y-40514000I0J150000D01*
G01*
X171023000Y-38864000D01*
G75*
G02*
X171173000Y-38714000I150000J0D01*
G01*
G37*
G36*
G01*
X172443000Y-38714000D02*
X172743000Y-38714000D01*
G75*
G02*
X172893000Y-38864000I0J-150000D01*
G01*
X172893000Y-40514000D01*
G75*
G02*
X172743000Y-40664000I-150000J0D01*
G01*
X172443000Y-40664000D01*
G75*
G02*
X172293000Y-40514000I0J150000D01*
G01*
X172293000Y-38864000D01*
G75*
G02*
X172443000Y-38714000I150000J0D01*
G01*
G37*
G36*
G01*
X173713000Y-38714000D02*
X174013000Y-38714000D01*
G75*
G02*
X174163000Y-38864000I0J-150000D01*
G01*
X174163000Y-40514000D01*
G75*
G02*
X174013000Y-40664000I-150000J0D01*
G01*
X173713000Y-40664000D01*
G75*
G02*
X173563000Y-40514000I0J150000D01*
G01*
X173563000Y-38864000D01*
G75*
G02*
X173713000Y-38714000I150000J0D01*
G01*
G37*
X184658000Y-42164000D03*
G36*
G01*
X186413000Y-43664000D02*
X186713000Y-43664000D01*
G75*
G02*
X186863000Y-43814000I0J-150000D01*
G01*
X186863000Y-45464000D01*
G75*
G02*
X186713000Y-45614000I-150000J0D01*
G01*
X186413000Y-45614000D01*
G75*
G02*
X186263000Y-45464000I0J150000D01*
G01*
X186263000Y-43814000D01*
G75*
G02*
X186413000Y-43664000I150000J0D01*
G01*
G37*
G36*
G01*
X185143000Y-43664000D02*
X185443000Y-43664000D01*
G75*
G02*
X185593000Y-43814000I0J-150000D01*
G01*
X185593000Y-45464000D01*
G75*
G02*
X185443000Y-45614000I-150000J0D01*
G01*
X185143000Y-45614000D01*
G75*
G02*
X184993000Y-45464000I0J150000D01*
G01*
X184993000Y-43814000D01*
G75*
G02*
X185143000Y-43664000I150000J0D01*
G01*
G37*
G36*
G01*
X183873000Y-43664000D02*
X184173000Y-43664000D01*
G75*
G02*
X184323000Y-43814000I0J-150000D01*
G01*
X184323000Y-45464000D01*
G75*
G02*
X184173000Y-45614000I-150000J0D01*
G01*
X183873000Y-45614000D01*
G75*
G02*
X183723000Y-45464000I0J150000D01*
G01*
X183723000Y-43814000D01*
G75*
G02*
X183873000Y-43664000I150000J0D01*
G01*
G37*
G36*
G01*
X182603000Y-43664000D02*
X182903000Y-43664000D01*
G75*
G02*
X183053000Y-43814000I0J-150000D01*
G01*
X183053000Y-45464000D01*
G75*
G02*
X182903000Y-45614000I-150000J0D01*
G01*
X182603000Y-45614000D01*
G75*
G02*
X182453000Y-45464000I0J150000D01*
G01*
X182453000Y-43814000D01*
G75*
G02*
X182603000Y-43664000I150000J0D01*
G01*
G37*
G36*
G01*
X182603000Y-38714000D02*
X182903000Y-38714000D01*
G75*
G02*
X183053000Y-38864000I0J-150000D01*
G01*
X183053000Y-40514000D01*
G75*
G02*
X182903000Y-40664000I-150000J0D01*
G01*
X182603000Y-40664000D01*
G75*
G02*
X182453000Y-40514000I0J150000D01*
G01*
X182453000Y-38864000D01*
G75*
G02*
X182603000Y-38714000I150000J0D01*
G01*
G37*
G36*
G01*
X183873000Y-38714000D02*
X184173000Y-38714000D01*
G75*
G02*
X184323000Y-38864000I0J-150000D01*
G01*
X184323000Y-40514000D01*
G75*
G02*
X184173000Y-40664000I-150000J0D01*
G01*
X183873000Y-40664000D01*
G75*
G02*
X183723000Y-40514000I0J150000D01*
G01*
X183723000Y-38864000D01*
G75*
G02*
X183873000Y-38714000I150000J0D01*
G01*
G37*
G36*
G01*
X185143000Y-38714000D02*
X185443000Y-38714000D01*
G75*
G02*
X185593000Y-38864000I0J-150000D01*
G01*
X185593000Y-40514000D01*
G75*
G02*
X185443000Y-40664000I-150000J0D01*
G01*
X185143000Y-40664000D01*
G75*
G02*
X184993000Y-40514000I0J150000D01*
G01*
X184993000Y-38864000D01*
G75*
G02*
X185143000Y-38714000I150000J0D01*
G01*
G37*
G36*
G01*
X186413000Y-38714000D02*
X186713000Y-38714000D01*
G75*
G02*
X186863000Y-38864000I0J-150000D01*
G01*
X186863000Y-40514000D01*
G75*
G02*
X186713000Y-40664000I-150000J0D01*
G01*
X186413000Y-40664000D01*
G75*
G02*
X186263000Y-40514000I0J150000D01*
G01*
X186263000Y-38864000D01*
G75*
G02*
X186413000Y-38714000I150000J0D01*
G01*
G37*
G36*
G01*
X132022002Y-63608000D02*
X131121998Y-63608000D01*
G75*
G02*
X130872000Y-63358002I0J249998D01*
G01*
X130872000Y-62832998D01*
G75*
G02*
X131121998Y-62583000I249998J0D01*
G01*
X132022002Y-62583000D01*
G75*
G02*
X132272000Y-62832998I0J-249998D01*
G01*
X132272000Y-63358002D01*
G75*
G02*
X132022002Y-63608000I-249998J0D01*
G01*
G37*
G36*
G01*
X132022002Y-65433000D02*
X131121998Y-65433000D01*
G75*
G02*
X130872000Y-65183002I0J249998D01*
G01*
X130872000Y-64657998D01*
G75*
G02*
X131121998Y-64408000I249998J0D01*
G01*
X132022002Y-64408000D01*
G75*
G02*
X132272000Y-64657998I0J-249998D01*
G01*
X132272000Y-65183002D01*
G75*
G02*
X132022002Y-65433000I-249998J0D01*
G01*
G37*
G36*
G01*
X121989000Y-63142000D02*
X121989000Y-62842000D01*
G75*
G02*
X122139000Y-62692000I150000J0D01*
G01*
X123889000Y-62692000D01*
G75*
G02*
X124039000Y-62842000I0J-150000D01*
G01*
X124039000Y-63142000D01*
G75*
G02*
X123889000Y-63292000I-150000J0D01*
G01*
X122139000Y-63292000D01*
G75*
G02*
X121989000Y-63142000I0J150000D01*
G01*
G37*
G36*
G01*
X121989000Y-64412000D02*
X121989000Y-64112000D01*
G75*
G02*
X122139000Y-63962000I150000J0D01*
G01*
X123889000Y-63962000D01*
G75*
G02*
X124039000Y-64112000I0J-150000D01*
G01*
X124039000Y-64412000D01*
G75*
G02*
X123889000Y-64562000I-150000J0D01*
G01*
X122139000Y-64562000D01*
G75*
G02*
X121989000Y-64412000I0J150000D01*
G01*
G37*
G36*
G01*
X121989000Y-65682000D02*
X121989000Y-65382000D01*
G75*
G02*
X122139000Y-65232000I150000J0D01*
G01*
X123889000Y-65232000D01*
G75*
G02*
X124039000Y-65382000I0J-150000D01*
G01*
X124039000Y-65682000D01*
G75*
G02*
X123889000Y-65832000I-150000J0D01*
G01*
X122139000Y-65832000D01*
G75*
G02*
X121989000Y-65682000I0J150000D01*
G01*
G37*
G36*
G01*
X121989000Y-66952000D02*
X121989000Y-66652000D01*
G75*
G02*
X122139000Y-66502000I150000J0D01*
G01*
X123889000Y-66502000D01*
G75*
G02*
X124039000Y-66652000I0J-150000D01*
G01*
X124039000Y-66952000D01*
G75*
G02*
X123889000Y-67102000I-150000J0D01*
G01*
X122139000Y-67102000D01*
G75*
G02*
X121989000Y-66952000I0J150000D01*
G01*
G37*
G36*
G01*
X121989000Y-68222000D02*
X121989000Y-67922000D01*
G75*
G02*
X122139000Y-67772000I150000J0D01*
G01*
X123889000Y-67772000D01*
G75*
G02*
X124039000Y-67922000I0J-150000D01*
G01*
X124039000Y-68222000D01*
G75*
G02*
X123889000Y-68372000I-150000J0D01*
G01*
X122139000Y-68372000D01*
G75*
G02*
X121989000Y-68222000I0J150000D01*
G01*
G37*
G36*
G01*
X121989000Y-69492000D02*
X121989000Y-69192000D01*
G75*
G02*
X122139000Y-69042000I150000J0D01*
G01*
X123889000Y-69042000D01*
G75*
G02*
X124039000Y-69192000I0J-150000D01*
G01*
X124039000Y-69492000D01*
G75*
G02*
X123889000Y-69642000I-150000J0D01*
G01*
X122139000Y-69642000D01*
G75*
G02*
X121989000Y-69492000I0J150000D01*
G01*
G37*
G36*
G01*
X121989000Y-70762000D02*
X121989000Y-70462000D01*
G75*
G02*
X122139000Y-70312000I150000J0D01*
G01*
X123889000Y-70312000D01*
G75*
G02*
X124039000Y-70462000I0J-150000D01*
G01*
X124039000Y-70762000D01*
G75*
G02*
X123889000Y-70912000I-150000J0D01*
G01*
X122139000Y-70912000D01*
G75*
G02*
X121989000Y-70762000I0J150000D01*
G01*
G37*
G36*
G01*
X121989000Y-72032000D02*
X121989000Y-71732000D01*
G75*
G02*
X122139000Y-71582000I150000J0D01*
G01*
X123889000Y-71582000D01*
G75*
G02*
X124039000Y-71732000I0J-150000D01*
G01*
X124039000Y-72032000D01*
G75*
G02*
X123889000Y-72182000I-150000J0D01*
G01*
X122139000Y-72182000D01*
G75*
G02*
X121989000Y-72032000I0J150000D01*
G01*
G37*
G36*
G01*
X121989000Y-73302000D02*
X121989000Y-73002000D01*
G75*
G02*
X122139000Y-72852000I150000J0D01*
G01*
X123889000Y-72852000D01*
G75*
G02*
X124039000Y-73002000I0J-150000D01*
G01*
X124039000Y-73302000D01*
G75*
G02*
X123889000Y-73452000I-150000J0D01*
G01*
X122139000Y-73452000D01*
G75*
G02*
X121989000Y-73302000I0J150000D01*
G01*
G37*
G36*
G01*
X112689000Y-73302000D02*
X112689000Y-73002000D01*
G75*
G02*
X112839000Y-72852000I150000J0D01*
G01*
X114589000Y-72852000D01*
G75*
G02*
X114739000Y-73002000I0J-150000D01*
G01*
X114739000Y-73302000D01*
G75*
G02*
X114589000Y-73452000I-150000J0D01*
G01*
X112839000Y-73452000D01*
G75*
G02*
X112689000Y-73302000I0J150000D01*
G01*
G37*
G36*
G01*
X112689000Y-72032000D02*
X112689000Y-71732000D01*
G75*
G02*
X112839000Y-71582000I150000J0D01*
G01*
X114589000Y-71582000D01*
G75*
G02*
X114739000Y-71732000I0J-150000D01*
G01*
X114739000Y-72032000D01*
G75*
G02*
X114589000Y-72182000I-150000J0D01*
G01*
X112839000Y-72182000D01*
G75*
G02*
X112689000Y-72032000I0J150000D01*
G01*
G37*
G36*
G01*
X112689000Y-70762000D02*
X112689000Y-70462000D01*
G75*
G02*
X112839000Y-70312000I150000J0D01*
G01*
X114589000Y-70312000D01*
G75*
G02*
X114739000Y-70462000I0J-150000D01*
G01*
X114739000Y-70762000D01*
G75*
G02*
X114589000Y-70912000I-150000J0D01*
G01*
X112839000Y-70912000D01*
G75*
G02*
X112689000Y-70762000I0J150000D01*
G01*
G37*
G36*
G01*
X112689000Y-69492000D02*
X112689000Y-69192000D01*
G75*
G02*
X112839000Y-69042000I150000J0D01*
G01*
X114589000Y-69042000D01*
G75*
G02*
X114739000Y-69192000I0J-150000D01*
G01*
X114739000Y-69492000D01*
G75*
G02*
X114589000Y-69642000I-150000J0D01*
G01*
X112839000Y-69642000D01*
G75*
G02*
X112689000Y-69492000I0J150000D01*
G01*
G37*
G36*
G01*
X112689000Y-68222000D02*
X112689000Y-67922000D01*
G75*
G02*
X112839000Y-67772000I150000J0D01*
G01*
X114589000Y-67772000D01*
G75*
G02*
X114739000Y-67922000I0J-150000D01*
G01*
X114739000Y-68222000D01*
G75*
G02*
X114589000Y-68372000I-150000J0D01*
G01*
X112839000Y-68372000D01*
G75*
G02*
X112689000Y-68222000I0J150000D01*
G01*
G37*
G36*
G01*
X112689000Y-66952000D02*
X112689000Y-66652000D01*
G75*
G02*
X112839000Y-66502000I150000J0D01*
G01*
X114589000Y-66502000D01*
G75*
G02*
X114739000Y-66652000I0J-150000D01*
G01*
X114739000Y-66952000D01*
G75*
G02*
X114589000Y-67102000I-150000J0D01*
G01*
X112839000Y-67102000D01*
G75*
G02*
X112689000Y-66952000I0J150000D01*
G01*
G37*
G36*
G01*
X112689000Y-65682000D02*
X112689000Y-65382000D01*
G75*
G02*
X112839000Y-65232000I150000J0D01*
G01*
X114589000Y-65232000D01*
G75*
G02*
X114739000Y-65382000I0J-150000D01*
G01*
X114739000Y-65682000D01*
G75*
G02*
X114589000Y-65832000I-150000J0D01*
G01*
X112839000Y-65832000D01*
G75*
G02*
X112689000Y-65682000I0J150000D01*
G01*
G37*
G36*
G01*
X112689000Y-64412000D02*
X112689000Y-64112000D01*
G75*
G02*
X112839000Y-63962000I150000J0D01*
G01*
X114589000Y-63962000D01*
G75*
G02*
X114739000Y-64112000I0J-150000D01*
G01*
X114739000Y-64412000D01*
G75*
G02*
X114589000Y-64562000I-150000J0D01*
G01*
X112839000Y-64562000D01*
G75*
G02*
X112689000Y-64412000I0J150000D01*
G01*
G37*
G36*
G01*
X112689000Y-63142000D02*
X112689000Y-62842000D01*
G75*
G02*
X112839000Y-62692000I150000J0D01*
G01*
X114589000Y-62692000D01*
G75*
G02*
X114739000Y-62842000I0J-150000D01*
G01*
X114739000Y-63142000D01*
G75*
G02*
X114589000Y-63292000I-150000J0D01*
G01*
X112839000Y-63292000D01*
G75*
G02*
X112689000Y-63142000I0J150000D01*
G01*
G37*
D28*
X116967000Y-44774000D03*
X118237000Y-44774000D03*
X119507000Y-44774000D03*
X120777000Y-44774000D03*
X120777000Y-49714000D03*
X119507000Y-49714000D03*
X118237000Y-49714000D03*
X116967000Y-49714000D03*
G36*
G01*
X132113000Y-42106000D02*
X133063000Y-42106000D01*
G75*
G02*
X133313000Y-42356000I0J-250000D01*
G01*
X133313000Y-42856000D01*
G75*
G02*
X133063000Y-43106000I-250000J0D01*
G01*
X132113000Y-43106000D01*
G75*
G02*
X131863000Y-42856000I0J250000D01*
G01*
X131863000Y-42356000D01*
G75*
G02*
X132113000Y-42106000I250000J0D01*
G01*
G37*
G36*
G01*
X132113000Y-40206000D02*
X133063000Y-40206000D01*
G75*
G02*
X133313000Y-40456000I0J-250000D01*
G01*
X133313000Y-40956000D01*
G75*
G02*
X133063000Y-41206000I-250000J0D01*
G01*
X132113000Y-41206000D01*
G75*
G02*
X131863000Y-40956000I0J250000D01*
G01*
X131863000Y-40456000D01*
G75*
G02*
X132113000Y-40206000I250000J0D01*
G01*
G37*
G36*
G01*
X193082000Y-94454000D02*
X191982000Y-94454000D01*
G75*
G02*
X191732000Y-94204000I0J250000D01*
G01*
X191732000Y-91204000D01*
G75*
G02*
X191982000Y-90954000I250000J0D01*
G01*
X193082000Y-90954000D01*
G75*
G02*
X193332000Y-91204000I0J-250000D01*
G01*
X193332000Y-94204000D01*
G75*
G02*
X193082000Y-94454000I-250000J0D01*
G01*
G37*
G36*
G01*
X193082000Y-100054000D02*
X191982000Y-100054000D01*
G75*
G02*
X191732000Y-99804000I0J250000D01*
G01*
X191732000Y-96804000D01*
G75*
G02*
X191982000Y-96554000I250000J0D01*
G01*
X193082000Y-96554000D01*
G75*
G02*
X193332000Y-96804000I0J-250000D01*
G01*
X193332000Y-99804000D01*
G75*
G02*
X193082000Y-100054000I-250000J0D01*
G01*
G37*
G36*
G01*
X109870001Y-71236000D02*
X108569999Y-71236000D01*
G75*
G02*
X108320000Y-70986001I0J249999D01*
G01*
X108320000Y-70335999D01*
G75*
G02*
X108569999Y-70086000I249999J0D01*
G01*
X109870001Y-70086000D01*
G75*
G02*
X110120000Y-70335999I0J-249999D01*
G01*
X110120000Y-70986001D01*
G75*
G02*
X109870001Y-71236000I-249999J0D01*
G01*
G37*
G36*
G01*
X109870001Y-74186000D02*
X108569999Y-74186000D01*
G75*
G02*
X108320000Y-73936001I0J249999D01*
G01*
X108320000Y-73285999D01*
G75*
G02*
X108569999Y-73036000I249999J0D01*
G01*
X109870001Y-73036000D01*
G75*
G02*
X110120000Y-73285999I0J-249999D01*
G01*
X110120000Y-73936001D01*
G75*
G02*
X109870001Y-74186000I-249999J0D01*
G01*
G37*
G36*
G01*
X140749000Y-81730000D02*
X141699000Y-81730000D01*
G75*
G02*
X141949000Y-81980000I0J-250000D01*
G01*
X141949000Y-82480000D01*
G75*
G02*
X141699000Y-82730000I-250000J0D01*
G01*
X140749000Y-82730000D01*
G75*
G02*
X140499000Y-82480000I0J250000D01*
G01*
X140499000Y-81980000D01*
G75*
G02*
X140749000Y-81730000I250000J0D01*
G01*
G37*
G36*
G01*
X140749000Y-79830000D02*
X141699000Y-79830000D01*
G75*
G02*
X141949000Y-80080000I0J-250000D01*
G01*
X141949000Y-80580000D01*
G75*
G02*
X141699000Y-80830000I-250000J0D01*
G01*
X140749000Y-80830000D01*
G75*
G02*
X140499000Y-80580000I0J250000D01*
G01*
X140499000Y-80080000D01*
G75*
G02*
X140749000Y-79830000I250000J0D01*
G01*
G37*
G36*
G01*
X132621000Y-81730000D02*
X133571000Y-81730000D01*
G75*
G02*
X133821000Y-81980000I0J-250000D01*
G01*
X133821000Y-82480000D01*
G75*
G02*
X133571000Y-82730000I-250000J0D01*
G01*
X132621000Y-82730000D01*
G75*
G02*
X132371000Y-82480000I0J250000D01*
G01*
X132371000Y-81980000D01*
G75*
G02*
X132621000Y-81730000I250000J0D01*
G01*
G37*
G36*
G01*
X132621000Y-79830000D02*
X133571000Y-79830000D01*
G75*
G02*
X133821000Y-80080000I0J-250000D01*
G01*
X133821000Y-80580000D01*
G75*
G02*
X133571000Y-80830000I-250000J0D01*
G01*
X132621000Y-80830000D01*
G75*
G02*
X132371000Y-80580000I0J250000D01*
G01*
X132371000Y-80080000D01*
G75*
G02*
X132621000Y-79830000I250000J0D01*
G01*
G37*
G36*
G01*
X119322000Y-54831000D02*
X119322000Y-53881000D01*
G75*
G02*
X119572000Y-53631000I250000J0D01*
G01*
X120072000Y-53631000D01*
G75*
G02*
X120322000Y-53881000I0J-250000D01*
G01*
X120322000Y-54831000D01*
G75*
G02*
X120072000Y-55081000I-250000J0D01*
G01*
X119572000Y-55081000D01*
G75*
G02*
X119322000Y-54831000I0J250000D01*
G01*
G37*
G36*
G01*
X117422000Y-54831000D02*
X117422000Y-53881000D01*
G75*
G02*
X117672000Y-53631000I250000J0D01*
G01*
X118172000Y-53631000D01*
G75*
G02*
X118422000Y-53881000I0J-250000D01*
G01*
X118422000Y-54831000D01*
G75*
G02*
X118172000Y-55081000I-250000J0D01*
G01*
X117672000Y-55081000D01*
G75*
G02*
X117422000Y-54831000I0J250000D01*
G01*
G37*
G36*
G01*
X103157000Y-72652000D02*
X104107000Y-72652000D01*
G75*
G02*
X104357000Y-72902000I0J-250000D01*
G01*
X104357000Y-73402000D01*
G75*
G02*
X104107000Y-73652000I-250000J0D01*
G01*
X103157000Y-73652000D01*
G75*
G02*
X102907000Y-73402000I0J250000D01*
G01*
X102907000Y-72902000D01*
G75*
G02*
X103157000Y-72652000I250000J0D01*
G01*
G37*
G36*
G01*
X103157000Y-70752000D02*
X104107000Y-70752000D01*
G75*
G02*
X104357000Y-71002000I0J-250000D01*
G01*
X104357000Y-71502000D01*
G75*
G02*
X104107000Y-71752000I-250000J0D01*
G01*
X103157000Y-71752000D01*
G75*
G02*
X102907000Y-71502000I0J250000D01*
G01*
X102907000Y-71002000D01*
G75*
G02*
X103157000Y-70752000I250000J0D01*
G01*
G37*
D20*
X60960000Y-24605000D03*
X66040000Y-24605000D03*
D21*
X64770000Y-33245000D03*
D22*
X62230000Y-33245000D03*
D20*
X72390000Y-24605000D03*
X77470000Y-24605000D03*
D21*
X76200000Y-33245000D03*
D22*
X73660000Y-33245000D03*
D20*
X83820000Y-24605000D03*
X88900000Y-24605000D03*
D21*
X87630000Y-33245000D03*
D22*
X85090000Y-33245000D03*
D20*
X106680000Y-24605000D03*
X111760000Y-24605000D03*
D21*
X110490000Y-33245000D03*
D22*
X107950000Y-33245000D03*
D20*
X118110000Y-24605000D03*
X123190000Y-24605000D03*
D21*
X121920000Y-33245000D03*
D22*
X119380000Y-33245000D03*
D20*
X95250000Y-24605000D03*
X100330000Y-24605000D03*
D21*
X99060000Y-33245000D03*
D22*
X96520000Y-33245000D03*
D29*
X195000000Y-145000000D03*
X195000000Y-25000000D03*
X55000000Y-145000000D03*
X55000000Y-25000000D03*
D25*
X66100000Y-140650000D03*
X88900000Y-140650000D03*
D26*
X66100000Y-127850000D03*
X71800000Y-127850000D03*
X77500000Y-127850000D03*
X83200000Y-127850000D03*
X88900000Y-127850000D03*
X66100000Y-133350000D03*
X71800000Y-133350000D03*
X77500000Y-133350000D03*
X83200000Y-133350000D03*
G36*
G01*
X90750000Y-131750000D02*
X90750000Y-134950000D01*
G75*
G02*
X90500000Y-135200000I-250000J0D01*
G01*
X87300000Y-135200000D01*
G75*
G02*
X87050000Y-134950000I0J250000D01*
G01*
X87050000Y-131750000D01*
G75*
G02*
X87300000Y-131500000I250000J0D01*
G01*
X90500000Y-131500000D01*
G75*
G02*
X90750000Y-131750000I0J-250000D01*
G01*
G37*
D30*
X166356000Y-109884000D03*
X166356000Y-113284000D03*
X176276000Y-109884000D03*
X176276000Y-113284000D03*
D25*
X181300000Y-140650000D03*
D26*
X178450000Y-127850000D03*
X184150000Y-127850000D03*
X178450000Y-133350000D03*
G36*
G01*
X186000000Y-131750000D02*
X186000000Y-134950000D01*
G75*
G02*
X185750000Y-135200000I-250000J0D01*
G01*
X182550000Y-135200000D01*
G75*
G02*
X182300000Y-134950000I0J250000D01*
G01*
X182300000Y-131750000D01*
G75*
G02*
X182550000Y-131500000I250000J0D01*
G01*
X185750000Y-131500000D01*
G75*
G02*
X186000000Y-131750000I0J-250000D01*
G01*
G37*
D10*
X137668000Y-52832000D03*
X135128000Y-52832000D03*
X104648000Y-41148000D03*
X102108000Y-41148000D03*
X117348000Y-83947000D03*
X114808000Y-83947000D03*
X157480000Y-101092000D03*
X157480000Y-103632000D03*
G36*
G01*
X103524000Y-48710002D02*
X103524000Y-47809998D01*
G75*
G02*
X103773998Y-47560000I249998J0D01*
G01*
X104299002Y-47560000D01*
G75*
G02*
X104549000Y-47809998I0J-249998D01*
G01*
X104549000Y-48710002D01*
G75*
G02*
X104299002Y-48960000I-249998J0D01*
G01*
X103773998Y-48960000D01*
G75*
G02*
X103524000Y-48710002I0J249998D01*
G01*
G37*
G36*
G01*
X101699000Y-48710002D02*
X101699000Y-47809998D01*
G75*
G02*
X101948998Y-47560000I249998J0D01*
G01*
X102474002Y-47560000D01*
G75*
G02*
X102724000Y-47809998I0J-249998D01*
G01*
X102724000Y-48710002D01*
G75*
G02*
X102474002Y-48960000I-249998J0D01*
G01*
X101948998Y-48960000D01*
G75*
G02*
X101699000Y-48710002I0J249998D01*
G01*
G37*
D31*
X178308000Y-98012000D03*
X178308000Y-94012000D03*
G36*
G01*
X191483000Y-39174000D02*
X190533000Y-39174000D01*
G75*
G02*
X190283000Y-38924000I0J250000D01*
G01*
X190283000Y-38424000D01*
G75*
G02*
X190533000Y-38174000I250000J0D01*
G01*
X191483000Y-38174000D01*
G75*
G02*
X191733000Y-38424000I0J-250000D01*
G01*
X191733000Y-38924000D01*
G75*
G02*
X191483000Y-39174000I-250000J0D01*
G01*
G37*
G36*
G01*
X191483000Y-41074000D02*
X190533000Y-41074000D01*
G75*
G02*
X190283000Y-40824000I0J250000D01*
G01*
X190283000Y-40324000D01*
G75*
G02*
X190533000Y-40074000I250000J0D01*
G01*
X191483000Y-40074000D01*
G75*
G02*
X191733000Y-40324000I0J-250000D01*
G01*
X191733000Y-40824000D01*
G75*
G02*
X191483000Y-41074000I-250000J0D01*
G01*
G37*
G36*
G01*
X164813000Y-40444000D02*
X163863000Y-40444000D01*
G75*
G02*
X163613000Y-40194000I0J250000D01*
G01*
X163613000Y-39694000D01*
G75*
G02*
X163863000Y-39444000I250000J0D01*
G01*
X164813000Y-39444000D01*
G75*
G02*
X165063000Y-39694000I0J-250000D01*
G01*
X165063000Y-40194000D01*
G75*
G02*
X164813000Y-40444000I-250000J0D01*
G01*
G37*
G36*
G01*
X164813000Y-42344000D02*
X163863000Y-42344000D01*
G75*
G02*
X163613000Y-42094000I0J250000D01*
G01*
X163613000Y-41594000D01*
G75*
G02*
X163863000Y-41344000I250000J0D01*
G01*
X164813000Y-41344000D01*
G75*
G02*
X165063000Y-41594000I0J-250000D01*
G01*
X165063000Y-42094000D01*
G75*
G02*
X164813000Y-42344000I-250000J0D01*
G01*
G37*
G36*
G01*
X145484000Y-52291000D02*
X145484000Y-51341000D01*
G75*
G02*
X145734000Y-51091000I250000J0D01*
G01*
X146234000Y-51091000D01*
G75*
G02*
X146484000Y-51341000I0J-250000D01*
G01*
X146484000Y-52291000D01*
G75*
G02*
X146234000Y-52541000I-250000J0D01*
G01*
X145734000Y-52541000D01*
G75*
G02*
X145484000Y-52291000I0J250000D01*
G01*
G37*
G36*
G01*
X143584000Y-52291000D02*
X143584000Y-51341000D01*
G75*
G02*
X143834000Y-51091000I250000J0D01*
G01*
X144334000Y-51091000D01*
G75*
G02*
X144584000Y-51341000I0J-250000D01*
G01*
X144584000Y-52291000D01*
G75*
G02*
X144334000Y-52541000I-250000J0D01*
G01*
X143834000Y-52541000D01*
G75*
G02*
X143584000Y-52291000I0J250000D01*
G01*
G37*
G36*
G01*
X149664000Y-51341000D02*
X149664000Y-52291000D01*
G75*
G02*
X149414000Y-52541000I-250000J0D01*
G01*
X148914000Y-52541000D01*
G75*
G02*
X148664000Y-52291000I0J250000D01*
G01*
X148664000Y-51341000D01*
G75*
G02*
X148914000Y-51091000I250000J0D01*
G01*
X149414000Y-51091000D01*
G75*
G02*
X149664000Y-51341000I0J-250000D01*
G01*
G37*
G36*
G01*
X151564000Y-51341000D02*
X151564000Y-52291000D01*
G75*
G02*
X151314000Y-52541000I-250000J0D01*
G01*
X150814000Y-52541000D01*
G75*
G02*
X150564000Y-52291000I0J250000D01*
G01*
X150564000Y-51341000D01*
G75*
G02*
X150814000Y-51091000I250000J0D01*
G01*
X151314000Y-51091000D01*
G75*
G02*
X151564000Y-51341000I0J-250000D01*
G01*
G37*
G36*
G01*
X139479000Y-41852000D02*
X140429000Y-41852000D01*
G75*
G02*
X140679000Y-42102000I0J-250000D01*
G01*
X140679000Y-42602000D01*
G75*
G02*
X140429000Y-42852000I-250000J0D01*
G01*
X139479000Y-42852000D01*
G75*
G02*
X139229000Y-42602000I0J250000D01*
G01*
X139229000Y-42102000D01*
G75*
G02*
X139479000Y-41852000I250000J0D01*
G01*
G37*
G36*
G01*
X139479000Y-39952000D02*
X140429000Y-39952000D01*
G75*
G02*
X140679000Y-40202000I0J-250000D01*
G01*
X140679000Y-40702000D01*
G75*
G02*
X140429000Y-40952000I-250000J0D01*
G01*
X139479000Y-40952000D01*
G75*
G02*
X139229000Y-40702000I0J250000D01*
G01*
X139229000Y-40202000D01*
G75*
G02*
X139479000Y-39952000I250000J0D01*
G01*
G37*
G36*
G01*
X140429000Y-46032000D02*
X139479000Y-46032000D01*
G75*
G02*
X139229000Y-45782000I0J250000D01*
G01*
X139229000Y-45282000D01*
G75*
G02*
X139479000Y-45032000I250000J0D01*
G01*
X140429000Y-45032000D01*
G75*
G02*
X140679000Y-45282000I0J-250000D01*
G01*
X140679000Y-45782000D01*
G75*
G02*
X140429000Y-46032000I-250000J0D01*
G01*
G37*
G36*
G01*
X140429000Y-47932000D02*
X139479000Y-47932000D01*
G75*
G02*
X139229000Y-47682000I0J250000D01*
G01*
X139229000Y-47182000D01*
G75*
G02*
X139479000Y-46932000I250000J0D01*
G01*
X140429000Y-46932000D01*
G75*
G02*
X140679000Y-47182000I0J-250000D01*
G01*
X140679000Y-47682000D01*
G75*
G02*
X140429000Y-47932000I-250000J0D01*
G01*
G37*
G36*
G01*
X191483000Y-45524000D02*
X190533000Y-45524000D01*
G75*
G02*
X190283000Y-45274000I0J250000D01*
G01*
X190283000Y-44774000D01*
G75*
G02*
X190533000Y-44524000I250000J0D01*
G01*
X191483000Y-44524000D01*
G75*
G02*
X191733000Y-44774000I0J-250000D01*
G01*
X191733000Y-45274000D01*
G75*
G02*
X191483000Y-45524000I-250000J0D01*
G01*
G37*
G36*
G01*
X191483000Y-47424000D02*
X190533000Y-47424000D01*
G75*
G02*
X190283000Y-47174000I0J250000D01*
G01*
X190283000Y-46674000D01*
G75*
G02*
X190533000Y-46424000I250000J0D01*
G01*
X191483000Y-46424000D01*
G75*
G02*
X191733000Y-46674000I0J-250000D01*
G01*
X191733000Y-47174000D01*
G75*
G02*
X191483000Y-47424000I-250000J0D01*
G01*
G37*
G36*
G01*
X164813000Y-46159000D02*
X163863000Y-46159000D01*
G75*
G02*
X163613000Y-45909000I0J250000D01*
G01*
X163613000Y-45409000D01*
G75*
G02*
X163863000Y-45159000I250000J0D01*
G01*
X164813000Y-45159000D01*
G75*
G02*
X165063000Y-45409000I0J-250000D01*
G01*
X165063000Y-45909000D01*
G75*
G02*
X164813000Y-46159000I-250000J0D01*
G01*
G37*
G36*
G01*
X164813000Y-48059000D02*
X163863000Y-48059000D01*
G75*
G02*
X163613000Y-47809000I0J250000D01*
G01*
X163613000Y-47309000D01*
G75*
G02*
X163863000Y-47059000I250000J0D01*
G01*
X164813000Y-47059000D01*
G75*
G02*
X165063000Y-47309000I0J-250000D01*
G01*
X165063000Y-47809000D01*
G75*
G02*
X164813000Y-48059000I-250000J0D01*
G01*
G37*
M02*
