G04 #@! TF.GenerationSoftware,KiCad,Pcbnew,(5.1.9-0-10_14)*
G04 #@! TF.CreationDate,2021-09-09T18:13:48-07:00*
G04 #@! TF.ProjectId,telemetry-pcb,74656c65-6d65-4747-9279-2d7063622e6b,rev?*
G04 #@! TF.SameCoordinates,Original*
G04 #@! TF.FileFunction,Legend,Bot*
G04 #@! TF.FilePolarity,Positive*
%FSLAX46Y46*%
G04 Gerber Fmt 4.6, Leading zero omitted, Abs format (unit mm)*
G04 Created by KiCad (PCBNEW (5.1.9-0-10_14)) date 2021-09-09 18:13:48*
%MOMM*%
%LPD*%
G01*
G04 APERTURE LIST*
%ADD10C,0.500000*%
%ADD11C,0.010000*%
G04 APERTURE END LIST*
D10*
X180458828Y-44934357D02*
X180315971Y-44791500D01*
X180030257Y-44648642D01*
X179315971Y-44648642D01*
X179030257Y-44791500D01*
X178887400Y-44934357D01*
X178744542Y-45220071D01*
X178744542Y-45505785D01*
X178887400Y-45934357D01*
X180601685Y-47648642D01*
X178744542Y-47648642D01*
X176887400Y-44648642D02*
X176601685Y-44648642D01*
X176315971Y-44791500D01*
X176173114Y-44934357D01*
X176030257Y-45220071D01*
X175887400Y-45791500D01*
X175887400Y-46505785D01*
X176030257Y-47077214D01*
X176173114Y-47362928D01*
X176315971Y-47505785D01*
X176601685Y-47648642D01*
X176887400Y-47648642D01*
X177173114Y-47505785D01*
X177315971Y-47362928D01*
X177458828Y-47077214D01*
X177601685Y-46505785D01*
X177601685Y-45791500D01*
X177458828Y-45220071D01*
X177315971Y-44934357D01*
X177173114Y-44791500D01*
X176887400Y-44648642D01*
X174744542Y-44934357D02*
X174601685Y-44791500D01*
X174315971Y-44648642D01*
X173601685Y-44648642D01*
X173315971Y-44791500D01*
X173173114Y-44934357D01*
X173030257Y-45220071D01*
X173030257Y-45505785D01*
X173173114Y-45934357D01*
X174887400Y-47648642D01*
X173030257Y-47648642D01*
X170173114Y-47648642D02*
X171887400Y-47648642D01*
X171030257Y-47648642D02*
X171030257Y-44648642D01*
X171315971Y-45077214D01*
X171601685Y-45362928D01*
X171887400Y-45505785D01*
X168887400Y-46505785D02*
X166601685Y-46505785D01*
X164601685Y-44648642D02*
X164315971Y-44648642D01*
X164030257Y-44791500D01*
X163887400Y-44934357D01*
X163744542Y-45220071D01*
X163601685Y-45791500D01*
X163601685Y-46505785D01*
X163744542Y-47077214D01*
X163887400Y-47362928D01*
X164030257Y-47505785D01*
X164315971Y-47648642D01*
X164601685Y-47648642D01*
X164887400Y-47505785D01*
X165030257Y-47362928D01*
X165173114Y-47077214D01*
X165315971Y-46505785D01*
X165315971Y-45791500D01*
X165173114Y-45220071D01*
X165030257Y-44934357D01*
X164887400Y-44791500D01*
X164601685Y-44648642D01*
X162173114Y-47648642D02*
X161601685Y-47648642D01*
X161315971Y-47505785D01*
X161173114Y-47362928D01*
X160887400Y-46934357D01*
X160744542Y-46362928D01*
X160744542Y-45220071D01*
X160887400Y-44934357D01*
X161030257Y-44791500D01*
X161315971Y-44648642D01*
X161887400Y-44648642D01*
X162173114Y-44791500D01*
X162315971Y-44934357D01*
X162458828Y-45220071D01*
X162458828Y-45934357D01*
X162315971Y-46220071D01*
X162173114Y-46362928D01*
X161887400Y-46505785D01*
X161315971Y-46505785D01*
X161030257Y-46362928D01*
X160887400Y-46220071D01*
X160744542Y-45934357D01*
X159458828Y-46505785D02*
X157173114Y-46505785D01*
X155173114Y-44648642D02*
X154887400Y-44648642D01*
X154601685Y-44791500D01*
X154458828Y-44934357D01*
X154315971Y-45220071D01*
X154173114Y-45791500D01*
X154173114Y-46505785D01*
X154315971Y-47077214D01*
X154458828Y-47362928D01*
X154601685Y-47505785D01*
X154887400Y-47648642D01*
X155173114Y-47648642D01*
X155458828Y-47505785D01*
X155601685Y-47362928D01*
X155744542Y-47077214D01*
X155887400Y-46505785D01*
X155887400Y-45791500D01*
X155744542Y-45220071D01*
X155601685Y-44934357D01*
X155458828Y-44791500D01*
X155173114Y-44648642D01*
X152458828Y-45934357D02*
X152744542Y-45791500D01*
X152887400Y-45648642D01*
X153030257Y-45362928D01*
X153030257Y-45220071D01*
X152887400Y-44934357D01*
X152744542Y-44791500D01*
X152458828Y-44648642D01*
X151887400Y-44648642D01*
X151601685Y-44791500D01*
X151458828Y-44934357D01*
X151315971Y-45220071D01*
X151315971Y-45362928D01*
X151458828Y-45648642D01*
X151601685Y-45791500D01*
X151887400Y-45934357D01*
X152458828Y-45934357D01*
X152744542Y-46077214D01*
X152887400Y-46220071D01*
X153030257Y-46505785D01*
X153030257Y-47077214D01*
X152887400Y-47362928D01*
X152744542Y-47505785D01*
X152458828Y-47648642D01*
X151887400Y-47648642D01*
X151601685Y-47505785D01*
X151458828Y-47362928D01*
X151315971Y-47077214D01*
X151315971Y-46505785D01*
X151458828Y-46220071D01*
X151601685Y-46077214D01*
X151887400Y-45934357D01*
X179997114Y-38552642D02*
X178282828Y-38552642D01*
X179139971Y-41552642D02*
X179139971Y-38552642D01*
X176139971Y-41409785D02*
X176425685Y-41552642D01*
X176997114Y-41552642D01*
X177282828Y-41409785D01*
X177425685Y-41124071D01*
X177425685Y-39981214D01*
X177282828Y-39695500D01*
X176997114Y-39552642D01*
X176425685Y-39552642D01*
X176139971Y-39695500D01*
X175997114Y-39981214D01*
X175997114Y-40266928D01*
X177425685Y-40552642D01*
X174282828Y-41552642D02*
X174568542Y-41409785D01*
X174711400Y-41124071D01*
X174711400Y-38552642D01*
X171997114Y-41409785D02*
X172282828Y-41552642D01*
X172854257Y-41552642D01*
X173139971Y-41409785D01*
X173282828Y-41124071D01*
X173282828Y-39981214D01*
X173139971Y-39695500D01*
X172854257Y-39552642D01*
X172282828Y-39552642D01*
X171997114Y-39695500D01*
X171854257Y-39981214D01*
X171854257Y-40266928D01*
X173282828Y-40552642D01*
X170568542Y-41552642D02*
X170568542Y-39552642D01*
X170568542Y-39838357D02*
X170425685Y-39695500D01*
X170139971Y-39552642D01*
X169711400Y-39552642D01*
X169425685Y-39695500D01*
X169282828Y-39981214D01*
X169282828Y-41552642D01*
X169282828Y-39981214D02*
X169139971Y-39695500D01*
X168854257Y-39552642D01*
X168425685Y-39552642D01*
X168139971Y-39695500D01*
X167997114Y-39981214D01*
X167997114Y-41552642D01*
X165425685Y-41409785D02*
X165711400Y-41552642D01*
X166282828Y-41552642D01*
X166568542Y-41409785D01*
X166711400Y-41124071D01*
X166711400Y-39981214D01*
X166568542Y-39695500D01*
X166282828Y-39552642D01*
X165711400Y-39552642D01*
X165425685Y-39695500D01*
X165282828Y-39981214D01*
X165282828Y-40266928D01*
X166711400Y-40552642D01*
X164425685Y-39552642D02*
X163282828Y-39552642D01*
X163997114Y-38552642D02*
X163997114Y-41124071D01*
X163854257Y-41409785D01*
X163568542Y-41552642D01*
X163282828Y-41552642D01*
X162282828Y-41552642D02*
X162282828Y-39552642D01*
X162282828Y-40124071D02*
X162139971Y-39838357D01*
X161997114Y-39695500D01*
X161711400Y-39552642D01*
X161425685Y-39552642D01*
X160711400Y-39552642D02*
X159997114Y-41552642D01*
X159282828Y-39552642D02*
X159997114Y-41552642D01*
X160282828Y-42266928D01*
X160425685Y-42409785D01*
X160711400Y-42552642D01*
X155854257Y-41552642D02*
X155854257Y-38552642D01*
X154854257Y-40695500D01*
X153854257Y-38552642D01*
X153854257Y-41552642D01*
X151997114Y-41552642D02*
X152282828Y-41409785D01*
X152425685Y-41266928D01*
X152568542Y-40981214D01*
X152568542Y-40124071D01*
X152425685Y-39838357D01*
X152282828Y-39695500D01*
X151997114Y-39552642D01*
X151568542Y-39552642D01*
X151282828Y-39695500D01*
X151139971Y-39838357D01*
X150997114Y-40124071D01*
X150997114Y-40981214D01*
X151139971Y-41266928D01*
X151282828Y-41409785D01*
X151568542Y-41552642D01*
X151997114Y-41552642D01*
X148425685Y-41552642D02*
X148425685Y-38552642D01*
X148425685Y-41409785D02*
X148711400Y-41552642D01*
X149282828Y-41552642D01*
X149568542Y-41409785D01*
X149711400Y-41266928D01*
X149854257Y-40981214D01*
X149854257Y-40124071D01*
X149711400Y-39838357D01*
X149568542Y-39695500D01*
X149282828Y-39552642D01*
X148711400Y-39552642D01*
X148425685Y-39695500D01*
X145711400Y-39552642D02*
X145711400Y-41552642D01*
X146997114Y-39552642D02*
X146997114Y-41124071D01*
X146854257Y-41409785D01*
X146568542Y-41552642D01*
X146139971Y-41552642D01*
X145854257Y-41409785D01*
X145711400Y-41266928D01*
X143854257Y-41552642D02*
X144139971Y-41409785D01*
X144282828Y-41124071D01*
X144282828Y-38552642D01*
X141568542Y-41409785D02*
X141854257Y-41552642D01*
X142425685Y-41552642D01*
X142711400Y-41409785D01*
X142854257Y-41124071D01*
X142854257Y-39981214D01*
X142711400Y-39695500D01*
X142425685Y-39552642D01*
X141854257Y-39552642D01*
X141568542Y-39695500D01*
X141425685Y-39981214D01*
X141425685Y-40266928D01*
X142854257Y-40552642D01*
X138139971Y-39552642D02*
X137425685Y-41552642D01*
X136711400Y-39552642D01*
X133997114Y-41552642D02*
X135711400Y-41552642D01*
X134854257Y-41552642D02*
X134854257Y-38552642D01*
X135139971Y-38981214D01*
X135425685Y-39266928D01*
X135711400Y-39409785D01*
X132711400Y-41266928D02*
X132568542Y-41409785D01*
X132711400Y-41552642D01*
X132854257Y-41409785D01*
X132711400Y-41266928D01*
X132711400Y-41552642D01*
X130711400Y-38552642D02*
X130425685Y-38552642D01*
X130139971Y-38695500D01*
X129997114Y-38838357D01*
X129854257Y-39124071D01*
X129711400Y-39695500D01*
X129711400Y-40409785D01*
X129854257Y-40981214D01*
X129997114Y-41266928D01*
X130139971Y-41409785D01*
X130425685Y-41552642D01*
X130711400Y-41552642D01*
X130997114Y-41409785D01*
X131139971Y-41266928D01*
X131282828Y-40981214D01*
X131425685Y-40409785D01*
X131425685Y-39695500D01*
X131282828Y-39124071D01*
X131139971Y-38838357D01*
X130997114Y-38695500D01*
X130711400Y-38552642D01*
D11*
G36*
X57911041Y-112951156D02*
G01*
X58127149Y-112938583D01*
X58423924Y-112917782D01*
X58802323Y-112888729D01*
X59263301Y-112851396D01*
X59666669Y-112817707D01*
X62694377Y-112549611D01*
X65779856Y-112251633D01*
X68902456Y-111925795D01*
X70023566Y-111802966D01*
X72260960Y-111548368D01*
X74431614Y-111288430D01*
X76534727Y-111023320D01*
X78569496Y-110753206D01*
X80535120Y-110478258D01*
X82430794Y-110198644D01*
X84255717Y-109914534D01*
X86009088Y-109626096D01*
X87690102Y-109333500D01*
X89297958Y-109036914D01*
X90831854Y-108736507D01*
X92290987Y-108432448D01*
X93674555Y-108124907D01*
X94981756Y-107814051D01*
X96211786Y-107500050D01*
X97363844Y-107183074D01*
X98437127Y-106863290D01*
X99430834Y-106540868D01*
X100344160Y-106215977D01*
X101176305Y-105888785D01*
X101926466Y-105559462D01*
X102593840Y-105228177D01*
X103177626Y-104895097D01*
X103349232Y-104786484D01*
X103796505Y-104458871D01*
X104161627Y-104110996D01*
X104444762Y-103742423D01*
X104646070Y-103352715D01*
X104765715Y-102941437D01*
X104803859Y-102508152D01*
X104760663Y-102052425D01*
X104636290Y-101573819D01*
X104591418Y-101447561D01*
X104423312Y-101084546D01*
X104185761Y-100699812D01*
X103887591Y-100303919D01*
X103537628Y-99907429D01*
X103144699Y-99520901D01*
X102717630Y-99154897D01*
X102595299Y-99059190D01*
X102416052Y-98925292D01*
X102227359Y-98790338D01*
X102037421Y-98659396D01*
X101854438Y-98537537D01*
X101686613Y-98429828D01*
X101542146Y-98341340D01*
X101429239Y-98277141D01*
X101356094Y-98242302D01*
X101330911Y-98241890D01*
X101361891Y-98280977D01*
X101417340Y-98331088D01*
X101497071Y-98396881D01*
X101623636Y-98498418D01*
X101776907Y-98619633D01*
X101879781Y-98700167D01*
X102155061Y-98929210D01*
X102452999Y-99201835D01*
X102753840Y-99498144D01*
X103037827Y-99798238D01*
X103285205Y-100082218D01*
X103416350Y-100247858D01*
X103661483Y-100603678D01*
X103880614Y-100979931D01*
X104059420Y-101350264D01*
X104162699Y-101621167D01*
X104263913Y-102057111D01*
X104281762Y-102486221D01*
X104217485Y-102904974D01*
X104072318Y-103309844D01*
X103847500Y-103697306D01*
X103544266Y-104063838D01*
X103193056Y-104382770D01*
X102829138Y-104651552D01*
X102428506Y-104903398D01*
X101985772Y-105140285D01*
X101495547Y-105364189D01*
X100952440Y-105577088D01*
X100351064Y-105780960D01*
X99686029Y-105977781D01*
X98951946Y-106169528D01*
X98143427Y-106358179D01*
X97349733Y-106526529D01*
X96185358Y-106751461D01*
X95082291Y-106938695D01*
X94026667Y-107089487D01*
X93004622Y-107205095D01*
X92002289Y-107286773D01*
X91005805Y-107335780D01*
X90001304Y-107353371D01*
X88974921Y-107340804D01*
X88523233Y-107326434D01*
X88050682Y-107310756D01*
X87553061Y-107297850D01*
X87040053Y-107287714D01*
X86521337Y-107280350D01*
X86006595Y-107275755D01*
X85505507Y-107273931D01*
X85027754Y-107274876D01*
X84583016Y-107278590D01*
X84180976Y-107285073D01*
X83831313Y-107294324D01*
X83543709Y-107306344D01*
X83327844Y-107321131D01*
X83273900Y-107326630D01*
X82988915Y-107359961D01*
X82737109Y-107391767D01*
X82507650Y-107424536D01*
X82289706Y-107460755D01*
X82072445Y-107502914D01*
X81845035Y-107553498D01*
X81596643Y-107614997D01*
X81316438Y-107689897D01*
X80993587Y-107780687D01*
X80617259Y-107889854D01*
X80176621Y-108019886D01*
X79908400Y-108099573D01*
X78824232Y-108421908D01*
X77818356Y-108720548D01*
X76888018Y-108996294D01*
X76030464Y-109249946D01*
X75242940Y-109482306D01*
X74522692Y-109694174D01*
X73866967Y-109886349D01*
X73273011Y-110059634D01*
X72738068Y-110214829D01*
X72259387Y-110352734D01*
X71834212Y-110474150D01*
X71459790Y-110579877D01*
X71133367Y-110670717D01*
X70852188Y-110747469D01*
X70613501Y-110810936D01*
X70414551Y-110861916D01*
X70363064Y-110874684D01*
X69885222Y-110985993D01*
X69325934Y-111105172D01*
X68688010Y-111231745D01*
X67974258Y-111365237D01*
X67187487Y-111505173D01*
X66330506Y-111651075D01*
X65406124Y-111802470D01*
X64417149Y-111958880D01*
X63366391Y-112119831D01*
X62256659Y-112284847D01*
X61090760Y-112453452D01*
X60773733Y-112498533D01*
X60359299Y-112557255D01*
X59942297Y-112616331D01*
X59536513Y-112673807D01*
X59155736Y-112727732D01*
X58813754Y-112776152D01*
X58524355Y-112817115D01*
X58301327Y-112848668D01*
X58254900Y-112855233D01*
X58007070Y-112891493D01*
X57834175Y-112919678D01*
X57737168Y-112939762D01*
X57717007Y-112951720D01*
X57774646Y-112955526D01*
X57911041Y-112951156D01*
G37*
X57911041Y-112951156D02*
X58127149Y-112938583D01*
X58423924Y-112917782D01*
X58802323Y-112888729D01*
X59263301Y-112851396D01*
X59666669Y-112817707D01*
X62694377Y-112549611D01*
X65779856Y-112251633D01*
X68902456Y-111925795D01*
X70023566Y-111802966D01*
X72260960Y-111548368D01*
X74431614Y-111288430D01*
X76534727Y-111023320D01*
X78569496Y-110753206D01*
X80535120Y-110478258D01*
X82430794Y-110198644D01*
X84255717Y-109914534D01*
X86009088Y-109626096D01*
X87690102Y-109333500D01*
X89297958Y-109036914D01*
X90831854Y-108736507D01*
X92290987Y-108432448D01*
X93674555Y-108124907D01*
X94981756Y-107814051D01*
X96211786Y-107500050D01*
X97363844Y-107183074D01*
X98437127Y-106863290D01*
X99430834Y-106540868D01*
X100344160Y-106215977D01*
X101176305Y-105888785D01*
X101926466Y-105559462D01*
X102593840Y-105228177D01*
X103177626Y-104895097D01*
X103349232Y-104786484D01*
X103796505Y-104458871D01*
X104161627Y-104110996D01*
X104444762Y-103742423D01*
X104646070Y-103352715D01*
X104765715Y-102941437D01*
X104803859Y-102508152D01*
X104760663Y-102052425D01*
X104636290Y-101573819D01*
X104591418Y-101447561D01*
X104423312Y-101084546D01*
X104185761Y-100699812D01*
X103887591Y-100303919D01*
X103537628Y-99907429D01*
X103144699Y-99520901D01*
X102717630Y-99154897D01*
X102595299Y-99059190D01*
X102416052Y-98925292D01*
X102227359Y-98790338D01*
X102037421Y-98659396D01*
X101854438Y-98537537D01*
X101686613Y-98429828D01*
X101542146Y-98341340D01*
X101429239Y-98277141D01*
X101356094Y-98242302D01*
X101330911Y-98241890D01*
X101361891Y-98280977D01*
X101417340Y-98331088D01*
X101497071Y-98396881D01*
X101623636Y-98498418D01*
X101776907Y-98619633D01*
X101879781Y-98700167D01*
X102155061Y-98929210D01*
X102452999Y-99201835D01*
X102753840Y-99498144D01*
X103037827Y-99798238D01*
X103285205Y-100082218D01*
X103416350Y-100247858D01*
X103661483Y-100603678D01*
X103880614Y-100979931D01*
X104059420Y-101350264D01*
X104162699Y-101621167D01*
X104263913Y-102057111D01*
X104281762Y-102486221D01*
X104217485Y-102904974D01*
X104072318Y-103309844D01*
X103847500Y-103697306D01*
X103544266Y-104063838D01*
X103193056Y-104382770D01*
X102829138Y-104651552D01*
X102428506Y-104903398D01*
X101985772Y-105140285D01*
X101495547Y-105364189D01*
X100952440Y-105577088D01*
X100351064Y-105780960D01*
X99686029Y-105977781D01*
X98951946Y-106169528D01*
X98143427Y-106358179D01*
X97349733Y-106526529D01*
X96185358Y-106751461D01*
X95082291Y-106938695D01*
X94026667Y-107089487D01*
X93004622Y-107205095D01*
X92002289Y-107286773D01*
X91005805Y-107335780D01*
X90001304Y-107353371D01*
X88974921Y-107340804D01*
X88523233Y-107326434D01*
X88050682Y-107310756D01*
X87553061Y-107297850D01*
X87040053Y-107287714D01*
X86521337Y-107280350D01*
X86006595Y-107275755D01*
X85505507Y-107273931D01*
X85027754Y-107274876D01*
X84583016Y-107278590D01*
X84180976Y-107285073D01*
X83831313Y-107294324D01*
X83543709Y-107306344D01*
X83327844Y-107321131D01*
X83273900Y-107326630D01*
X82988915Y-107359961D01*
X82737109Y-107391767D01*
X82507650Y-107424536D01*
X82289706Y-107460755D01*
X82072445Y-107502914D01*
X81845035Y-107553498D01*
X81596643Y-107614997D01*
X81316438Y-107689897D01*
X80993587Y-107780687D01*
X80617259Y-107889854D01*
X80176621Y-108019886D01*
X79908400Y-108099573D01*
X78824232Y-108421908D01*
X77818356Y-108720548D01*
X76888018Y-108996294D01*
X76030464Y-109249946D01*
X75242940Y-109482306D01*
X74522692Y-109694174D01*
X73866967Y-109886349D01*
X73273011Y-110059634D01*
X72738068Y-110214829D01*
X72259387Y-110352734D01*
X71834212Y-110474150D01*
X71459790Y-110579877D01*
X71133367Y-110670717D01*
X70852188Y-110747469D01*
X70613501Y-110810936D01*
X70414551Y-110861916D01*
X70363064Y-110874684D01*
X69885222Y-110985993D01*
X69325934Y-111105172D01*
X68688010Y-111231745D01*
X67974258Y-111365237D01*
X67187487Y-111505173D01*
X66330506Y-111651075D01*
X65406124Y-111802470D01*
X64417149Y-111958880D01*
X63366391Y-112119831D01*
X62256659Y-112284847D01*
X61090760Y-112453452D01*
X60773733Y-112498533D01*
X60359299Y-112557255D01*
X59942297Y-112616331D01*
X59536513Y-112673807D01*
X59155736Y-112727732D01*
X58813754Y-112776152D01*
X58524355Y-112817115D01*
X58301327Y-112848668D01*
X58254900Y-112855233D01*
X58007070Y-112891493D01*
X57834175Y-112919678D01*
X57737168Y-112939762D01*
X57717007Y-112951720D01*
X57774646Y-112955526D01*
X57911041Y-112951156D01*
G36*
X58674372Y-104194443D02*
G01*
X58888410Y-104136227D01*
X59083230Y-104036864D01*
X59269578Y-103888333D01*
X59424564Y-103713096D01*
X59525299Y-103533615D01*
X59536654Y-103500089D01*
X59580135Y-103332097D01*
X59585459Y-103224197D01*
X59546777Y-103158224D01*
X59458243Y-103116010D01*
X59408483Y-103101946D01*
X59281741Y-103068794D01*
X59182980Y-103042264D01*
X59163279Y-103036753D01*
X59114199Y-103050261D01*
X59071402Y-103129785D01*
X59045082Y-103215870D01*
X58946341Y-103436128D01*
X58783406Y-103602420D01*
X58558073Y-103713823D01*
X58272141Y-103769412D01*
X57964727Y-103770976D01*
X57651431Y-103720451D01*
X57399773Y-103612993D01*
X57207477Y-103447198D01*
X57072269Y-103221662D01*
X57071587Y-103220032D01*
X57009847Y-102988934D01*
X57027301Y-102785120D01*
X57122699Y-102612227D01*
X57294795Y-102473892D01*
X57335123Y-102452286D01*
X57459196Y-102401372D01*
X57639808Y-102341635D01*
X57850564Y-102281296D01*
X58022066Y-102238362D01*
X58405513Y-102136363D01*
X58710849Y-102024434D01*
X58944504Y-101897274D01*
X59112909Y-101749583D01*
X59222492Y-101576060D01*
X59279684Y-101371405D01*
X59292066Y-101191387D01*
X59253377Y-100835084D01*
X59140797Y-100515309D01*
X58959559Y-100238455D01*
X58714896Y-100010918D01*
X58412039Y-99839090D01*
X58104064Y-99739614D01*
X57838794Y-99698391D01*
X57534317Y-99680888D01*
X57230496Y-99687789D01*
X56967193Y-99719776D01*
X56965651Y-99720077D01*
X56671234Y-99810613D01*
X56418732Y-99953182D01*
X56217105Y-100137930D01*
X56075317Y-100355004D01*
X56002327Y-100594553D01*
X55998195Y-100783735D01*
X56016951Y-100867697D01*
X56067435Y-100919878D01*
X56173145Y-100961844D01*
X56201733Y-100970537D01*
X56349700Y-101011131D01*
X56436671Y-101016070D01*
X56482366Y-100975248D01*
X56506507Y-100878563D01*
X56516222Y-100809411D01*
X56585112Y-100586180D01*
X56723425Y-100405124D01*
X56925432Y-100269421D01*
X57185403Y-100182249D01*
X57497611Y-100146788D01*
X57702375Y-100151299D01*
X58041885Y-100201838D01*
X58315680Y-100303315D01*
X58522677Y-100454803D01*
X58661791Y-100655373D01*
X58731941Y-100904098D01*
X58740803Y-101041186D01*
X58728787Y-101210411D01*
X58684910Y-101347456D01*
X58600001Y-101459166D01*
X58464891Y-101552388D01*
X58270408Y-101633969D01*
X58007383Y-101710755D01*
X57768066Y-101767440D01*
X57363699Y-101874818D01*
X57039016Y-102000838D01*
X56790441Y-102148775D01*
X56614398Y-102321907D01*
X56507310Y-102523510D01*
X56465600Y-102756860D01*
X56474776Y-102952329D01*
X56556966Y-103287032D01*
X56711418Y-103583661D01*
X56931390Y-103832969D01*
X57210141Y-104025708D01*
X57283781Y-104061946D01*
X57598942Y-104168744D01*
X57955132Y-104227323D01*
X58323295Y-104236338D01*
X58674372Y-104194443D01*
G37*
X58674372Y-104194443D02*
X58888410Y-104136227D01*
X59083230Y-104036864D01*
X59269578Y-103888333D01*
X59424564Y-103713096D01*
X59525299Y-103533615D01*
X59536654Y-103500089D01*
X59580135Y-103332097D01*
X59585459Y-103224197D01*
X59546777Y-103158224D01*
X59458243Y-103116010D01*
X59408483Y-103101946D01*
X59281741Y-103068794D01*
X59182980Y-103042264D01*
X59163279Y-103036753D01*
X59114199Y-103050261D01*
X59071402Y-103129785D01*
X59045082Y-103215870D01*
X58946341Y-103436128D01*
X58783406Y-103602420D01*
X58558073Y-103713823D01*
X58272141Y-103769412D01*
X57964727Y-103770976D01*
X57651431Y-103720451D01*
X57399773Y-103612993D01*
X57207477Y-103447198D01*
X57072269Y-103221662D01*
X57071587Y-103220032D01*
X57009847Y-102988934D01*
X57027301Y-102785120D01*
X57122699Y-102612227D01*
X57294795Y-102473892D01*
X57335123Y-102452286D01*
X57459196Y-102401372D01*
X57639808Y-102341635D01*
X57850564Y-102281296D01*
X58022066Y-102238362D01*
X58405513Y-102136363D01*
X58710849Y-102024434D01*
X58944504Y-101897274D01*
X59112909Y-101749583D01*
X59222492Y-101576060D01*
X59279684Y-101371405D01*
X59292066Y-101191387D01*
X59253377Y-100835084D01*
X59140797Y-100515309D01*
X58959559Y-100238455D01*
X58714896Y-100010918D01*
X58412039Y-99839090D01*
X58104064Y-99739614D01*
X57838794Y-99698391D01*
X57534317Y-99680888D01*
X57230496Y-99687789D01*
X56967193Y-99719776D01*
X56965651Y-99720077D01*
X56671234Y-99810613D01*
X56418732Y-99953182D01*
X56217105Y-100137930D01*
X56075317Y-100355004D01*
X56002327Y-100594553D01*
X55998195Y-100783735D01*
X56016951Y-100867697D01*
X56067435Y-100919878D01*
X56173145Y-100961844D01*
X56201733Y-100970537D01*
X56349700Y-101011131D01*
X56436671Y-101016070D01*
X56482366Y-100975248D01*
X56506507Y-100878563D01*
X56516222Y-100809411D01*
X56585112Y-100586180D01*
X56723425Y-100405124D01*
X56925432Y-100269421D01*
X57185403Y-100182249D01*
X57497611Y-100146788D01*
X57702375Y-100151299D01*
X58041885Y-100201838D01*
X58315680Y-100303315D01*
X58522677Y-100454803D01*
X58661791Y-100655373D01*
X58731941Y-100904098D01*
X58740803Y-101041186D01*
X58728787Y-101210411D01*
X58684910Y-101347456D01*
X58600001Y-101459166D01*
X58464891Y-101552388D01*
X58270408Y-101633969D01*
X58007383Y-101710755D01*
X57768066Y-101767440D01*
X57363699Y-101874818D01*
X57039016Y-102000838D01*
X56790441Y-102148775D01*
X56614398Y-102321907D01*
X56507310Y-102523510D01*
X56465600Y-102756860D01*
X56474776Y-102952329D01*
X56556966Y-103287032D01*
X56711418Y-103583661D01*
X56931390Y-103832969D01*
X57210141Y-104025708D01*
X57283781Y-104061946D01*
X57598942Y-104168744D01*
X57955132Y-104227323D01*
X58323295Y-104236338D01*
X58674372Y-104194443D01*
G36*
X63885099Y-104157214D02*
G01*
X63960480Y-104141629D01*
X63988679Y-104108824D01*
X63990940Y-104087084D01*
X63982939Y-104005938D01*
X63960626Y-103854267D01*
X63926328Y-103644564D01*
X63882371Y-103389320D01*
X63831082Y-103101026D01*
X63774787Y-102792174D01*
X63715812Y-102475256D01*
X63656483Y-102162762D01*
X63599127Y-101867186D01*
X63546069Y-101601018D01*
X63499637Y-101376750D01*
X63462156Y-101206874D01*
X63435953Y-101103880D01*
X63434538Y-101099300D01*
X63292319Y-100758403D01*
X63094763Y-100444566D01*
X62855201Y-100174219D01*
X62586964Y-99963791D01*
X62452772Y-99889295D01*
X62113586Y-99765292D01*
X61736555Y-99694090D01*
X61351064Y-99678482D01*
X60986499Y-99721261D01*
X60900733Y-99741764D01*
X60595617Y-99860937D01*
X60351177Y-100039060D01*
X60166723Y-100276746D01*
X60072134Y-100481074D01*
X60034100Y-100611865D01*
X60010450Y-100762460D01*
X60001813Y-100941339D01*
X60008819Y-101156985D01*
X60032097Y-101417878D01*
X60072276Y-101732500D01*
X60129985Y-102109332D01*
X60205853Y-102556855D01*
X60240707Y-102753540D01*
X60298604Y-103078418D01*
X60351374Y-103377009D01*
X60397227Y-103638987D01*
X60434373Y-103854028D01*
X60461022Y-104011804D01*
X60475382Y-104101990D01*
X60477400Y-104118790D01*
X60516303Y-104140947D01*
X60619476Y-104156097D01*
X60753373Y-104161167D01*
X60900989Y-104159420D01*
X60981399Y-104149809D01*
X61012053Y-104125784D01*
X61010402Y-104080794D01*
X61007083Y-104065917D01*
X60982400Y-103948131D01*
X60948033Y-103766934D01*
X60906042Y-103534713D01*
X60858487Y-103263853D01*
X60807426Y-102966739D01*
X60754920Y-102655758D01*
X60703027Y-102343296D01*
X60653808Y-102041737D01*
X60609322Y-101763468D01*
X60571628Y-101520875D01*
X60542787Y-101326343D01*
X60524856Y-101192258D01*
X60519733Y-101135020D01*
X60552807Y-100844382D01*
X60648180Y-100596549D01*
X60800080Y-100400274D01*
X61002734Y-100264309D01*
X61122427Y-100221368D01*
X61310899Y-100191825D01*
X61543802Y-100185908D01*
X61790030Y-100201508D01*
X62018473Y-100236514D01*
X62198023Y-100288816D01*
X62213066Y-100295359D01*
X62457733Y-100450989D01*
X62672697Y-100677133D01*
X62846435Y-100961615D01*
X62849476Y-100967954D01*
X62881211Y-101038814D01*
X62911320Y-101117771D01*
X62941364Y-101212258D01*
X62972901Y-101329707D01*
X63007493Y-101477550D01*
X63046698Y-101663217D01*
X63092076Y-101894141D01*
X63145188Y-102177754D01*
X63207593Y-102521488D01*
X63280852Y-102932773D01*
X63366523Y-103419043D01*
X63379752Y-103494417D01*
X63496736Y-104161167D01*
X63743901Y-104161167D01*
X63885099Y-104157214D01*
G37*
X63885099Y-104157214D02*
X63960480Y-104141629D01*
X63988679Y-104108824D01*
X63990940Y-104087084D01*
X63982939Y-104005938D01*
X63960626Y-103854267D01*
X63926328Y-103644564D01*
X63882371Y-103389320D01*
X63831082Y-103101026D01*
X63774787Y-102792174D01*
X63715812Y-102475256D01*
X63656483Y-102162762D01*
X63599127Y-101867186D01*
X63546069Y-101601018D01*
X63499637Y-101376750D01*
X63462156Y-101206874D01*
X63435953Y-101103880D01*
X63434538Y-101099300D01*
X63292319Y-100758403D01*
X63094763Y-100444566D01*
X62855201Y-100174219D01*
X62586964Y-99963791D01*
X62452772Y-99889295D01*
X62113586Y-99765292D01*
X61736555Y-99694090D01*
X61351064Y-99678482D01*
X60986499Y-99721261D01*
X60900733Y-99741764D01*
X60595617Y-99860937D01*
X60351177Y-100039060D01*
X60166723Y-100276746D01*
X60072134Y-100481074D01*
X60034100Y-100611865D01*
X60010450Y-100762460D01*
X60001813Y-100941339D01*
X60008819Y-101156985D01*
X60032097Y-101417878D01*
X60072276Y-101732500D01*
X60129985Y-102109332D01*
X60205853Y-102556855D01*
X60240707Y-102753540D01*
X60298604Y-103078418D01*
X60351374Y-103377009D01*
X60397227Y-103638987D01*
X60434373Y-103854028D01*
X60461022Y-104011804D01*
X60475382Y-104101990D01*
X60477400Y-104118790D01*
X60516303Y-104140947D01*
X60619476Y-104156097D01*
X60753373Y-104161167D01*
X60900989Y-104159420D01*
X60981399Y-104149809D01*
X61012053Y-104125784D01*
X61010402Y-104080794D01*
X61007083Y-104065917D01*
X60982400Y-103948131D01*
X60948033Y-103766934D01*
X60906042Y-103534713D01*
X60858487Y-103263853D01*
X60807426Y-102966739D01*
X60754920Y-102655758D01*
X60703027Y-102343296D01*
X60653808Y-102041737D01*
X60609322Y-101763468D01*
X60571628Y-101520875D01*
X60542787Y-101326343D01*
X60524856Y-101192258D01*
X60519733Y-101135020D01*
X60552807Y-100844382D01*
X60648180Y-100596549D01*
X60800080Y-100400274D01*
X61002734Y-100264309D01*
X61122427Y-100221368D01*
X61310899Y-100191825D01*
X61543802Y-100185908D01*
X61790030Y-100201508D01*
X62018473Y-100236514D01*
X62198023Y-100288816D01*
X62213066Y-100295359D01*
X62457733Y-100450989D01*
X62672697Y-100677133D01*
X62846435Y-100961615D01*
X62849476Y-100967954D01*
X62881211Y-101038814D01*
X62911320Y-101117771D01*
X62941364Y-101212258D01*
X62972901Y-101329707D01*
X63007493Y-101477550D01*
X63046698Y-101663217D01*
X63092076Y-101894141D01*
X63145188Y-102177754D01*
X63207593Y-102521488D01*
X63280852Y-102932773D01*
X63366523Y-103419043D01*
X63379752Y-103494417D01*
X63496736Y-104161167D01*
X63743901Y-104161167D01*
X63885099Y-104157214D01*
G36*
X96614879Y-104228484D02*
G01*
X96994217Y-104156371D01*
X97330084Y-104017034D01*
X97628984Y-103808401D01*
X97686182Y-103756978D01*
X97803632Y-103629850D01*
X97918968Y-103476258D01*
X98018129Y-103318491D01*
X98087057Y-103178838D01*
X98111733Y-103082343D01*
X98074160Y-103048222D01*
X97976257Y-103005280D01*
X97856501Y-102967756D01*
X97601269Y-102899370D01*
X97521982Y-103054019D01*
X97381731Y-103258643D01*
X97187733Y-103449856D01*
X96969586Y-103599360D01*
X96930627Y-103619372D01*
X96721555Y-103689033D01*
X96459685Y-103728623D01*
X96171659Y-103737345D01*
X95884123Y-103714403D01*
X95623722Y-103659003D01*
X95621895Y-103658450D01*
X95242940Y-103501308D01*
X94913361Y-103276921D01*
X94636365Y-102989016D01*
X94415157Y-102641317D01*
X94252942Y-102237548D01*
X94190448Y-101994896D01*
X94145815Y-101620645D01*
X94173121Y-101272925D01*
X94269265Y-100959230D01*
X94431146Y-100687052D01*
X94655664Y-100463886D01*
X94881899Y-100323906D01*
X95031025Y-100260138D01*
X95180663Y-100220361D01*
X95363206Y-100197508D01*
X95499965Y-100189077D01*
X95716990Y-100186553D01*
X95930498Y-100197313D01*
X96102285Y-100219296D01*
X96117220Y-100222360D01*
X96374258Y-100299933D01*
X96646216Y-100418595D01*
X96902357Y-100562623D01*
X97111943Y-100716295D01*
X97149100Y-100750169D01*
X97258474Y-100864068D01*
X97324030Y-100966279D01*
X97364664Y-101093061D01*
X97386701Y-101206032D01*
X97411312Y-101354495D01*
X97428537Y-101472041D01*
X97434400Y-101529385D01*
X97406046Y-101550124D01*
X97316484Y-101564856D01*
X97158956Y-101574103D01*
X96926708Y-101578387D01*
X96793861Y-101578834D01*
X96153322Y-101578834D01*
X96179561Y-101737584D01*
X96197205Y-101862667D01*
X96206050Y-101961117D01*
X96206267Y-101970417D01*
X96212126Y-101994920D01*
X96236307Y-102013361D01*
X96289242Y-102026594D01*
X96381364Y-102035468D01*
X96523105Y-102040835D01*
X96724896Y-102043546D01*
X96997171Y-102044452D01*
X97114238Y-102044500D01*
X98021743Y-102044500D01*
X97998926Y-101906917D01*
X97985204Y-101826881D01*
X97959104Y-101677103D01*
X97923019Y-101471209D01*
X97879338Y-101222827D01*
X97830453Y-100945584D01*
X97800229Y-100774500D01*
X97624348Y-99779667D01*
X97387480Y-99767158D01*
X97150612Y-99754650D01*
X97204615Y-100042021D01*
X97229951Y-100186483D01*
X97245282Y-100293393D01*
X97247436Y-100340483D01*
X97247184Y-100340827D01*
X97210811Y-100323559D01*
X97130408Y-100266864D01*
X97070492Y-100220440D01*
X96816442Y-100049973D01*
X96503755Y-99892308D01*
X96250018Y-99791907D01*
X96037345Y-99737926D01*
X95776487Y-99702735D01*
X95497400Y-99687603D01*
X95230040Y-99693801D01*
X95004361Y-99722600D01*
X94946476Y-99736617D01*
X94566973Y-99882250D01*
X94247873Y-100086283D01*
X93991709Y-100345315D01*
X93801013Y-100655943D01*
X93678318Y-101014766D01*
X93626158Y-101418380D01*
X93624400Y-101512334D01*
X93664284Y-101983040D01*
X93779635Y-102427673D01*
X93964002Y-102839372D01*
X94210932Y-103211278D01*
X94513975Y-103536531D01*
X94866677Y-103808271D01*
X95262588Y-104019639D01*
X95695256Y-104163776D01*
X96158228Y-104233820D01*
X96185566Y-104235448D01*
X96614879Y-104228484D01*
G37*
X96614879Y-104228484D02*
X96994217Y-104156371D01*
X97330084Y-104017034D01*
X97628984Y-103808401D01*
X97686182Y-103756978D01*
X97803632Y-103629850D01*
X97918968Y-103476258D01*
X98018129Y-103318491D01*
X98087057Y-103178838D01*
X98111733Y-103082343D01*
X98074160Y-103048222D01*
X97976257Y-103005280D01*
X97856501Y-102967756D01*
X97601269Y-102899370D01*
X97521982Y-103054019D01*
X97381731Y-103258643D01*
X97187733Y-103449856D01*
X96969586Y-103599360D01*
X96930627Y-103619372D01*
X96721555Y-103689033D01*
X96459685Y-103728623D01*
X96171659Y-103737345D01*
X95884123Y-103714403D01*
X95623722Y-103659003D01*
X95621895Y-103658450D01*
X95242940Y-103501308D01*
X94913361Y-103276921D01*
X94636365Y-102989016D01*
X94415157Y-102641317D01*
X94252942Y-102237548D01*
X94190448Y-101994896D01*
X94145815Y-101620645D01*
X94173121Y-101272925D01*
X94269265Y-100959230D01*
X94431146Y-100687052D01*
X94655664Y-100463886D01*
X94881899Y-100323906D01*
X95031025Y-100260138D01*
X95180663Y-100220361D01*
X95363206Y-100197508D01*
X95499965Y-100189077D01*
X95716990Y-100186553D01*
X95930498Y-100197313D01*
X96102285Y-100219296D01*
X96117220Y-100222360D01*
X96374258Y-100299933D01*
X96646216Y-100418595D01*
X96902357Y-100562623D01*
X97111943Y-100716295D01*
X97149100Y-100750169D01*
X97258474Y-100864068D01*
X97324030Y-100966279D01*
X97364664Y-101093061D01*
X97386701Y-101206032D01*
X97411312Y-101354495D01*
X97428537Y-101472041D01*
X97434400Y-101529385D01*
X97406046Y-101550124D01*
X97316484Y-101564856D01*
X97158956Y-101574103D01*
X96926708Y-101578387D01*
X96793861Y-101578834D01*
X96153322Y-101578834D01*
X96179561Y-101737584D01*
X96197205Y-101862667D01*
X96206050Y-101961117D01*
X96206267Y-101970417D01*
X96212126Y-101994920D01*
X96236307Y-102013361D01*
X96289242Y-102026594D01*
X96381364Y-102035468D01*
X96523105Y-102040835D01*
X96724896Y-102043546D01*
X96997171Y-102044452D01*
X97114238Y-102044500D01*
X98021743Y-102044500D01*
X97998926Y-101906917D01*
X97985204Y-101826881D01*
X97959104Y-101677103D01*
X97923019Y-101471209D01*
X97879338Y-101222827D01*
X97830453Y-100945584D01*
X97800229Y-100774500D01*
X97624348Y-99779667D01*
X97387480Y-99767158D01*
X97150612Y-99754650D01*
X97204615Y-100042021D01*
X97229951Y-100186483D01*
X97245282Y-100293393D01*
X97247436Y-100340483D01*
X97247184Y-100340827D01*
X97210811Y-100323559D01*
X97130408Y-100266864D01*
X97070492Y-100220440D01*
X96816442Y-100049973D01*
X96503755Y-99892308D01*
X96250018Y-99791907D01*
X96037345Y-99737926D01*
X95776487Y-99702735D01*
X95497400Y-99687603D01*
X95230040Y-99693801D01*
X95004361Y-99722600D01*
X94946476Y-99736617D01*
X94566973Y-99882250D01*
X94247873Y-100086283D01*
X93991709Y-100345315D01*
X93801013Y-100655943D01*
X93678318Y-101014766D01*
X93626158Y-101418380D01*
X93624400Y-101512334D01*
X93664284Y-101983040D01*
X93779635Y-102427673D01*
X93964002Y-102839372D01*
X94210932Y-103211278D01*
X94513975Y-103536531D01*
X94866677Y-103808271D01*
X95262588Y-104019639D01*
X95695256Y-104163776D01*
X96158228Y-104233820D01*
X96185566Y-104235448D01*
X96614879Y-104228484D01*
G36*
X66231121Y-104151367D02*
G01*
X66467110Y-104141751D01*
X66646123Y-104127271D01*
X66703022Y-104119336D01*
X67014346Y-104034328D01*
X67273056Y-103897921D01*
X67469610Y-103715824D01*
X67534555Y-103621662D01*
X67594064Y-103510935D01*
X67629212Y-103410235D01*
X67645862Y-103290928D01*
X67649881Y-103124381D01*
X67649496Y-103060500D01*
X67618730Y-102708185D01*
X67529937Y-102406422D01*
X67377507Y-102139274D01*
X67284609Y-102023774D01*
X67096995Y-101835283D01*
X66896613Y-101688548D01*
X66670057Y-101578770D01*
X66403921Y-101501154D01*
X66084796Y-101450902D01*
X65699275Y-101423216D01*
X65595420Y-101419398D01*
X64934940Y-101398698D01*
X64794474Y-100578599D01*
X64654009Y-99758500D01*
X64391908Y-99758500D01*
X64248883Y-99760533D01*
X64172409Y-99771341D01*
X64144386Y-99797988D01*
X64146716Y-99847537D01*
X64147870Y-99853750D01*
X64158592Y-99913228D01*
X64182502Y-100047735D01*
X64218122Y-100248913D01*
X64263978Y-100508405D01*
X64318594Y-100817853D01*
X64380494Y-101168898D01*
X64448202Y-101553183D01*
X64504892Y-101875167D01*
X65023099Y-101875167D01*
X65542165Y-101875167D01*
X65766863Y-101878925D01*
X65982291Y-101889121D01*
X66162294Y-101904144D01*
X66270817Y-101920115D01*
X66563551Y-102020388D01*
X66797714Y-102180882D01*
X66969856Y-102397553D01*
X67076527Y-102666353D01*
X67111873Y-102906225D01*
X67107579Y-103142325D01*
X67057923Y-103319772D01*
X66953991Y-103456332D01*
X66786870Y-103569772D01*
X66776144Y-103575445D01*
X66693715Y-103613710D01*
X66604910Y-103641204D01*
X66492699Y-103660297D01*
X66340048Y-103673358D01*
X66129925Y-103682758D01*
X65970150Y-103687600D01*
X65750978Y-103692638D01*
X65565155Y-103695053D01*
X65427490Y-103694799D01*
X65352794Y-103691831D01*
X65343655Y-103689531D01*
X65335995Y-103645240D01*
X65315731Y-103529866D01*
X65285030Y-103355693D01*
X65246058Y-103135008D01*
X65200982Y-102880095D01*
X65182338Y-102774750D01*
X65023099Y-101875167D01*
X64504892Y-101875167D01*
X64520242Y-101962350D01*
X64534700Y-102044500D01*
X64903466Y-104140000D01*
X65664350Y-104153508D01*
X65957190Y-104155495D01*
X66231121Y-104151367D01*
G37*
X66231121Y-104151367D02*
X66467110Y-104141751D01*
X66646123Y-104127271D01*
X66703022Y-104119336D01*
X67014346Y-104034328D01*
X67273056Y-103897921D01*
X67469610Y-103715824D01*
X67534555Y-103621662D01*
X67594064Y-103510935D01*
X67629212Y-103410235D01*
X67645862Y-103290928D01*
X67649881Y-103124381D01*
X67649496Y-103060500D01*
X67618730Y-102708185D01*
X67529937Y-102406422D01*
X67377507Y-102139274D01*
X67284609Y-102023774D01*
X67096995Y-101835283D01*
X66896613Y-101688548D01*
X66670057Y-101578770D01*
X66403921Y-101501154D01*
X66084796Y-101450902D01*
X65699275Y-101423216D01*
X65595420Y-101419398D01*
X64934940Y-101398698D01*
X64794474Y-100578599D01*
X64654009Y-99758500D01*
X64391908Y-99758500D01*
X64248883Y-99760533D01*
X64172409Y-99771341D01*
X64144386Y-99797988D01*
X64146716Y-99847537D01*
X64147870Y-99853750D01*
X64158592Y-99913228D01*
X64182502Y-100047735D01*
X64218122Y-100248913D01*
X64263978Y-100508405D01*
X64318594Y-100817853D01*
X64380494Y-101168898D01*
X64448202Y-101553183D01*
X64504892Y-101875167D01*
X65023099Y-101875167D01*
X65542165Y-101875167D01*
X65766863Y-101878925D01*
X65982291Y-101889121D01*
X66162294Y-101904144D01*
X66270817Y-101920115D01*
X66563551Y-102020388D01*
X66797714Y-102180882D01*
X66969856Y-102397553D01*
X67076527Y-102666353D01*
X67111873Y-102906225D01*
X67107579Y-103142325D01*
X67057923Y-103319772D01*
X66953991Y-103456332D01*
X66786870Y-103569772D01*
X66776144Y-103575445D01*
X66693715Y-103613710D01*
X66604910Y-103641204D01*
X66492699Y-103660297D01*
X66340048Y-103673358D01*
X66129925Y-103682758D01*
X65970150Y-103687600D01*
X65750978Y-103692638D01*
X65565155Y-103695053D01*
X65427490Y-103694799D01*
X65352794Y-103691831D01*
X65343655Y-103689531D01*
X65335995Y-103645240D01*
X65315731Y-103529866D01*
X65285030Y-103355693D01*
X65246058Y-103135008D01*
X65200982Y-102880095D01*
X65182338Y-102774750D01*
X65023099Y-101875167D01*
X64504892Y-101875167D01*
X64520242Y-101962350D01*
X64534700Y-102044500D01*
X64903466Y-104140000D01*
X65664350Y-104153508D01*
X65957190Y-104155495D01*
X66231121Y-104151367D01*
G36*
X69769706Y-104152671D02*
G01*
X70047816Y-104151141D01*
X71506051Y-104140000D01*
X71435275Y-103695500D01*
X68988013Y-103695500D01*
X68967028Y-103600250D01*
X68951875Y-103522276D01*
X68926281Y-103381089D01*
X68893863Y-103196971D01*
X68859400Y-102997000D01*
X68823824Y-102790643D01*
X68791569Y-102607591D01*
X68766254Y-102468123D01*
X68751771Y-102393750D01*
X68730786Y-102298500D01*
X70642587Y-102298500D01*
X70613433Y-102097417D01*
X70592688Y-101972614D01*
X70573230Y-101884783D01*
X70566007Y-101864584D01*
X70520232Y-101855429D01*
X70402064Y-101847307D01*
X70223776Y-101840622D01*
X69997642Y-101835776D01*
X69735931Y-101833170D01*
X69597734Y-101832834D01*
X69324350Y-101831486D01*
X69081742Y-101827708D01*
X68881874Y-101821900D01*
X68736710Y-101814462D01*
X68658214Y-101805794D01*
X68647705Y-101801084D01*
X68640504Y-101750783D01*
X68620590Y-101631644D01*
X68590461Y-101458118D01*
X68552618Y-101244655D01*
X68521363Y-101070834D01*
X68479148Y-100833328D01*
X68442842Y-100621323D01*
X68415009Y-100450414D01*
X68398212Y-100336198D01*
X68394391Y-100298250D01*
X68399179Y-100276762D01*
X68419976Y-100259866D01*
X68465794Y-100247014D01*
X68545643Y-100237660D01*
X68668533Y-100231256D01*
X68843476Y-100227254D01*
X69079483Y-100225108D01*
X69385565Y-100224270D01*
X69614190Y-100224167D01*
X70834648Y-100224167D01*
X70792445Y-99991334D01*
X70750243Y-99758500D01*
X69255816Y-99758500D01*
X68845568Y-99759093D01*
X68513267Y-99761029D01*
X68252200Y-99764551D01*
X68055654Y-99769899D01*
X67916918Y-99777313D01*
X67829278Y-99787033D01*
X67786022Y-99799301D01*
X67778959Y-99811417D01*
X67789447Y-99862359D01*
X67812928Y-99988625D01*
X67847962Y-100182112D01*
X67893107Y-100434716D01*
X67946924Y-100738334D01*
X68007972Y-101084863D01*
X68074812Y-101466200D01*
X68146002Y-101874240D01*
X68164576Y-101981000D01*
X68236783Y-102393745D01*
X68305404Y-102781156D01*
X68368962Y-103135232D01*
X68425981Y-103447968D01*
X68474985Y-103711362D01*
X68514495Y-103917411D01*
X68543036Y-104058110D01*
X68559131Y-104125457D01*
X68561103Y-104129975D01*
X68608687Y-104137251D01*
X68731022Y-104143318D01*
X68918200Y-104148034D01*
X69160313Y-104151259D01*
X69447451Y-104152852D01*
X69769706Y-104152671D01*
G37*
X69769706Y-104152671D02*
X70047816Y-104151141D01*
X71506051Y-104140000D01*
X71435275Y-103695500D01*
X68988013Y-103695500D01*
X68967028Y-103600250D01*
X68951875Y-103522276D01*
X68926281Y-103381089D01*
X68893863Y-103196971D01*
X68859400Y-102997000D01*
X68823824Y-102790643D01*
X68791569Y-102607591D01*
X68766254Y-102468123D01*
X68751771Y-102393750D01*
X68730786Y-102298500D01*
X70642587Y-102298500D01*
X70613433Y-102097417D01*
X70592688Y-101972614D01*
X70573230Y-101884783D01*
X70566007Y-101864584D01*
X70520232Y-101855429D01*
X70402064Y-101847307D01*
X70223776Y-101840622D01*
X69997642Y-101835776D01*
X69735931Y-101833170D01*
X69597734Y-101832834D01*
X69324350Y-101831486D01*
X69081742Y-101827708D01*
X68881874Y-101821900D01*
X68736710Y-101814462D01*
X68658214Y-101805794D01*
X68647705Y-101801084D01*
X68640504Y-101750783D01*
X68620590Y-101631644D01*
X68590461Y-101458118D01*
X68552618Y-101244655D01*
X68521363Y-101070834D01*
X68479148Y-100833328D01*
X68442842Y-100621323D01*
X68415009Y-100450414D01*
X68398212Y-100336198D01*
X68394391Y-100298250D01*
X68399179Y-100276762D01*
X68419976Y-100259866D01*
X68465794Y-100247014D01*
X68545643Y-100237660D01*
X68668533Y-100231256D01*
X68843476Y-100227254D01*
X69079483Y-100225108D01*
X69385565Y-100224270D01*
X69614190Y-100224167D01*
X70834648Y-100224167D01*
X70792445Y-99991334D01*
X70750243Y-99758500D01*
X69255816Y-99758500D01*
X68845568Y-99759093D01*
X68513267Y-99761029D01*
X68252200Y-99764551D01*
X68055654Y-99769899D01*
X67916918Y-99777313D01*
X67829278Y-99787033D01*
X67786022Y-99799301D01*
X67778959Y-99811417D01*
X67789447Y-99862359D01*
X67812928Y-99988625D01*
X67847962Y-100182112D01*
X67893107Y-100434716D01*
X67946924Y-100738334D01*
X68007972Y-101084863D01*
X68074812Y-101466200D01*
X68146002Y-101874240D01*
X68164576Y-101981000D01*
X68236783Y-102393745D01*
X68305404Y-102781156D01*
X68368962Y-103135232D01*
X68425981Y-103447968D01*
X68474985Y-103711362D01*
X68514495Y-103917411D01*
X68543036Y-104058110D01*
X68559131Y-104125457D01*
X68561103Y-104129975D01*
X68608687Y-104137251D01*
X68731022Y-104143318D01*
X68918200Y-104148034D01*
X69160313Y-104151259D01*
X69447451Y-104152852D01*
X69769706Y-104152671D01*
G36*
X73654836Y-104151027D02*
G01*
X73893089Y-104140654D01*
X74071576Y-104125018D01*
X74116068Y-104118494D01*
X74436068Y-104029978D01*
X74696159Y-103886891D01*
X74892589Y-103693247D01*
X75021608Y-103453059D01*
X75079463Y-103170342D01*
X75082400Y-103084517D01*
X75044778Y-102717949D01*
X74934293Y-102391382D01*
X74754510Y-102109956D01*
X74508998Y-101878814D01*
X74201323Y-101703097D01*
X74094812Y-101661017D01*
X73966776Y-101604990D01*
X73896605Y-101552458D01*
X73888516Y-101527764D01*
X73897156Y-101498476D01*
X73915534Y-101447560D01*
X73947022Y-101366719D01*
X73994989Y-101247651D01*
X74062807Y-101082057D01*
X74153844Y-100861639D01*
X74271472Y-100578095D01*
X74387810Y-100298250D01*
X74612325Y-99758500D01*
X73990673Y-99758500D01*
X73643066Y-100626334D01*
X73295459Y-101494167D01*
X72838792Y-101494167D01*
X72613520Y-101490673D01*
X72464354Y-101479575D01*
X72382996Y-101459954D01*
X72362165Y-101441250D01*
X72349067Y-101384673D01*
X72324393Y-101258380D01*
X72290683Y-101076136D01*
X72250479Y-100851708D01*
X72206323Y-100598860D01*
X72201939Y-100573417D01*
X72061673Y-99758500D01*
X71799907Y-99758500D01*
X71656997Y-99760539D01*
X71580628Y-99771371D01*
X71552694Y-99798076D01*
X71555085Y-99847729D01*
X71556203Y-99853750D01*
X71566926Y-99913228D01*
X71590835Y-100047735D01*
X71626455Y-100248913D01*
X71672312Y-100508405D01*
X71726927Y-100817853D01*
X71788827Y-101168898D01*
X71856535Y-101553183D01*
X71928575Y-101962350D01*
X71929393Y-101967003D01*
X72457733Y-101967003D01*
X72471483Y-101944426D01*
X72520217Y-101929407D01*
X72615161Y-101921221D01*
X72767542Y-101919141D01*
X72988586Y-101922440D01*
X73103316Y-101925222D01*
X73363399Y-101933477D01*
X73556190Y-101944199D01*
X73699062Y-101959661D01*
X73809389Y-101982136D01*
X73904546Y-102013899D01*
X73959019Y-102037195D01*
X74139373Y-102128931D01*
X74263658Y-102223957D01*
X74357722Y-102346971D01*
X74431819Y-102489000D01*
X74508319Y-102717149D01*
X74535377Y-102953902D01*
X74512846Y-103173910D01*
X74440582Y-103351829D01*
X74436816Y-103357474D01*
X74348016Y-103468773D01*
X74244859Y-103551845D01*
X74113597Y-103611006D01*
X73940481Y-103650572D01*
X73711764Y-103674858D01*
X73413697Y-103688178D01*
X73380435Y-103689051D01*
X72757971Y-103704633D01*
X72735231Y-103604817D01*
X72717300Y-103515633D01*
X72689851Y-103366506D01*
X72655638Y-103173682D01*
X72617414Y-102953406D01*
X72577931Y-102721924D01*
X72539941Y-102495482D01*
X72506198Y-102290327D01*
X72479453Y-102122704D01*
X72462460Y-102008858D01*
X72457733Y-101967003D01*
X71929393Y-101967003D01*
X71943033Y-102044500D01*
X72311800Y-104140000D01*
X73072683Y-104153508D01*
X73375230Y-104155517D01*
X73654836Y-104151027D01*
G37*
X73654836Y-104151027D02*
X73893089Y-104140654D01*
X74071576Y-104125018D01*
X74116068Y-104118494D01*
X74436068Y-104029978D01*
X74696159Y-103886891D01*
X74892589Y-103693247D01*
X75021608Y-103453059D01*
X75079463Y-103170342D01*
X75082400Y-103084517D01*
X75044778Y-102717949D01*
X74934293Y-102391382D01*
X74754510Y-102109956D01*
X74508998Y-101878814D01*
X74201323Y-101703097D01*
X74094812Y-101661017D01*
X73966776Y-101604990D01*
X73896605Y-101552458D01*
X73888516Y-101527764D01*
X73897156Y-101498476D01*
X73915534Y-101447560D01*
X73947022Y-101366719D01*
X73994989Y-101247651D01*
X74062807Y-101082057D01*
X74153844Y-100861639D01*
X74271472Y-100578095D01*
X74387810Y-100298250D01*
X74612325Y-99758500D01*
X73990673Y-99758500D01*
X73643066Y-100626334D01*
X73295459Y-101494167D01*
X72838792Y-101494167D01*
X72613520Y-101490673D01*
X72464354Y-101479575D01*
X72382996Y-101459954D01*
X72362165Y-101441250D01*
X72349067Y-101384673D01*
X72324393Y-101258380D01*
X72290683Y-101076136D01*
X72250479Y-100851708D01*
X72206323Y-100598860D01*
X72201939Y-100573417D01*
X72061673Y-99758500D01*
X71799907Y-99758500D01*
X71656997Y-99760539D01*
X71580628Y-99771371D01*
X71552694Y-99798076D01*
X71555085Y-99847729D01*
X71556203Y-99853750D01*
X71566926Y-99913228D01*
X71590835Y-100047735D01*
X71626455Y-100248913D01*
X71672312Y-100508405D01*
X71726927Y-100817853D01*
X71788827Y-101168898D01*
X71856535Y-101553183D01*
X71928575Y-101962350D01*
X71929393Y-101967003D01*
X72457733Y-101967003D01*
X72471483Y-101944426D01*
X72520217Y-101929407D01*
X72615161Y-101921221D01*
X72767542Y-101919141D01*
X72988586Y-101922440D01*
X73103316Y-101925222D01*
X73363399Y-101933477D01*
X73556190Y-101944199D01*
X73699062Y-101959661D01*
X73809389Y-101982136D01*
X73904546Y-102013899D01*
X73959019Y-102037195D01*
X74139373Y-102128931D01*
X74263658Y-102223957D01*
X74357722Y-102346971D01*
X74431819Y-102489000D01*
X74508319Y-102717149D01*
X74535377Y-102953902D01*
X74512846Y-103173910D01*
X74440582Y-103351829D01*
X74436816Y-103357474D01*
X74348016Y-103468773D01*
X74244859Y-103551845D01*
X74113597Y-103611006D01*
X73940481Y-103650572D01*
X73711764Y-103674858D01*
X73413697Y-103688178D01*
X73380435Y-103689051D01*
X72757971Y-103704633D01*
X72735231Y-103604817D01*
X72717300Y-103515633D01*
X72689851Y-103366506D01*
X72655638Y-103173682D01*
X72617414Y-102953406D01*
X72577931Y-102721924D01*
X72539941Y-102495482D01*
X72506198Y-102290327D01*
X72479453Y-102122704D01*
X72462460Y-102008858D01*
X72457733Y-101967003D01*
X71929393Y-101967003D01*
X71943033Y-102044500D01*
X72311800Y-104140000D01*
X73072683Y-104153508D01*
X73375230Y-104155517D01*
X73654836Y-104151027D01*
G36*
X77134901Y-102850570D02*
G01*
X77255830Y-102536997D01*
X77367907Y-102250219D01*
X77467419Y-101999436D01*
X77550656Y-101793848D01*
X77613906Y-101642655D01*
X77653458Y-101555056D01*
X77665018Y-101536500D01*
X77695212Y-101569405D01*
X77769899Y-101663207D01*
X77883490Y-101810534D01*
X78030395Y-102004019D01*
X78205025Y-102236290D01*
X78401791Y-102499978D01*
X78615104Y-102787712D01*
X78660247Y-102848834D01*
X79628906Y-104161167D01*
X80169127Y-104161167D01*
X80145319Y-104044750D01*
X80131958Y-103973576D01*
X80106368Y-103831848D01*
X80070233Y-103629193D01*
X80025237Y-103375241D01*
X79973066Y-103079619D01*
X79915402Y-102751957D01*
X79853932Y-102401881D01*
X79790339Y-102039021D01*
X79726307Y-101673005D01*
X79663521Y-101313461D01*
X79603666Y-100970018D01*
X79548426Y-100652303D01*
X79499484Y-100369945D01*
X79458527Y-100132572D01*
X79427238Y-99949813D01*
X79407301Y-99831295D01*
X79400400Y-99786709D01*
X79361831Y-99772175D01*
X79261135Y-99761991D01*
X79132408Y-99758500D01*
X78864416Y-99758500D01*
X78964032Y-100319417D01*
X79030367Y-100691732D01*
X79098044Y-101069360D01*
X79165252Y-101442401D01*
X79230184Y-101800951D01*
X79291032Y-102135108D01*
X79345986Y-102434970D01*
X79393239Y-102690634D01*
X79430983Y-102892197D01*
X79457408Y-103029757D01*
X79470409Y-103092250D01*
X79480288Y-103166962D01*
X79455675Y-103179201D01*
X79394184Y-103126766D01*
X79293426Y-103007454D01*
X79151015Y-102819062D01*
X79103314Y-102753584D01*
X78977134Y-102580205D01*
X78814617Y-102358234D01*
X78629973Y-102107003D01*
X78437410Y-101845842D01*
X78251137Y-101594085D01*
X78247676Y-101589417D01*
X78069074Y-101349017D01*
X77932661Y-101168181D01*
X77830243Y-101038428D01*
X77753622Y-100951282D01*
X77694605Y-100898261D01*
X77644995Y-100870888D01*
X77596597Y-100860683D01*
X77541835Y-100859167D01*
X77429524Y-100871708D01*
X77362324Y-100903243D01*
X77356663Y-100912084D01*
X77266976Y-101141794D01*
X77165558Y-101404011D01*
X77057474Y-101685389D01*
X76947786Y-101972583D01*
X76841560Y-102252250D01*
X76743857Y-102511044D01*
X76659743Y-102735620D01*
X76594281Y-102912634D01*
X76552535Y-103028740D01*
X76544417Y-103052660D01*
X76501031Y-103170747D01*
X76465065Y-103243221D01*
X76448463Y-103255342D01*
X76437818Y-103219925D01*
X76417424Y-103123751D01*
X76386806Y-102964150D01*
X76345493Y-102738457D01*
X76293011Y-102444000D01*
X76228887Y-102078114D01*
X76152648Y-101638129D01*
X76063821Y-101121377D01*
X75961932Y-100525191D01*
X75901650Y-100171250D01*
X75831423Y-99758500D01*
X75568615Y-99758500D01*
X75425347Y-99760522D01*
X75348649Y-99771277D01*
X75320441Y-99797802D01*
X75322643Y-99847133D01*
X75323870Y-99853750D01*
X75334590Y-99913228D01*
X75358494Y-100047736D01*
X75394105Y-100248916D01*
X75439949Y-100508410D01*
X75494550Y-100817860D01*
X75556433Y-101168908D01*
X75624123Y-101553195D01*
X75696143Y-101962364D01*
X75710594Y-102044500D01*
X76079254Y-104140000D01*
X76355305Y-104152320D01*
X76631355Y-104164639D01*
X77134901Y-102850570D01*
G37*
X77134901Y-102850570D02*
X77255830Y-102536997D01*
X77367907Y-102250219D01*
X77467419Y-101999436D01*
X77550656Y-101793848D01*
X77613906Y-101642655D01*
X77653458Y-101555056D01*
X77665018Y-101536500D01*
X77695212Y-101569405D01*
X77769899Y-101663207D01*
X77883490Y-101810534D01*
X78030395Y-102004019D01*
X78205025Y-102236290D01*
X78401791Y-102499978D01*
X78615104Y-102787712D01*
X78660247Y-102848834D01*
X79628906Y-104161167D01*
X80169127Y-104161167D01*
X80145319Y-104044750D01*
X80131958Y-103973576D01*
X80106368Y-103831848D01*
X80070233Y-103629193D01*
X80025237Y-103375241D01*
X79973066Y-103079619D01*
X79915402Y-102751957D01*
X79853932Y-102401881D01*
X79790339Y-102039021D01*
X79726307Y-101673005D01*
X79663521Y-101313461D01*
X79603666Y-100970018D01*
X79548426Y-100652303D01*
X79499484Y-100369945D01*
X79458527Y-100132572D01*
X79427238Y-99949813D01*
X79407301Y-99831295D01*
X79400400Y-99786709D01*
X79361831Y-99772175D01*
X79261135Y-99761991D01*
X79132408Y-99758500D01*
X78864416Y-99758500D01*
X78964032Y-100319417D01*
X79030367Y-100691732D01*
X79098044Y-101069360D01*
X79165252Y-101442401D01*
X79230184Y-101800951D01*
X79291032Y-102135108D01*
X79345986Y-102434970D01*
X79393239Y-102690634D01*
X79430983Y-102892197D01*
X79457408Y-103029757D01*
X79470409Y-103092250D01*
X79480288Y-103166962D01*
X79455675Y-103179201D01*
X79394184Y-103126766D01*
X79293426Y-103007454D01*
X79151015Y-102819062D01*
X79103314Y-102753584D01*
X78977134Y-102580205D01*
X78814617Y-102358234D01*
X78629973Y-102107003D01*
X78437410Y-101845842D01*
X78251137Y-101594085D01*
X78247676Y-101589417D01*
X78069074Y-101349017D01*
X77932661Y-101168181D01*
X77830243Y-101038428D01*
X77753622Y-100951282D01*
X77694605Y-100898261D01*
X77644995Y-100870888D01*
X77596597Y-100860683D01*
X77541835Y-100859167D01*
X77429524Y-100871708D01*
X77362324Y-100903243D01*
X77356663Y-100912084D01*
X77266976Y-101141794D01*
X77165558Y-101404011D01*
X77057474Y-101685389D01*
X76947786Y-101972583D01*
X76841560Y-102252250D01*
X76743857Y-102511044D01*
X76659743Y-102735620D01*
X76594281Y-102912634D01*
X76552535Y-103028740D01*
X76544417Y-103052660D01*
X76501031Y-103170747D01*
X76465065Y-103243221D01*
X76448463Y-103255342D01*
X76437818Y-103219925D01*
X76417424Y-103123751D01*
X76386806Y-102964150D01*
X76345493Y-102738457D01*
X76293011Y-102444000D01*
X76228887Y-102078114D01*
X76152648Y-101638129D01*
X76063821Y-101121377D01*
X75961932Y-100525191D01*
X75901650Y-100171250D01*
X75831423Y-99758500D01*
X75568615Y-99758500D01*
X75425347Y-99760522D01*
X75348649Y-99771277D01*
X75320441Y-99797802D01*
X75322643Y-99847133D01*
X75323870Y-99853750D01*
X75334590Y-99913228D01*
X75358494Y-100047736D01*
X75394105Y-100248916D01*
X75439949Y-100508410D01*
X75494550Y-100817860D01*
X75556433Y-101168908D01*
X75624123Y-101553195D01*
X75696143Y-101962364D01*
X75710594Y-102044500D01*
X76079254Y-104140000D01*
X76355305Y-104152320D01*
X76631355Y-104164639D01*
X77134901Y-102850570D01*
G36*
X81606217Y-104150344D02*
G01*
X81633531Y-104127634D01*
X81629142Y-104089195D01*
X81617764Y-104033639D01*
X81593376Y-103902859D01*
X81557440Y-103705053D01*
X81511418Y-103448417D01*
X81456772Y-103141150D01*
X81394963Y-102791448D01*
X81327454Y-102407508D01*
X81255706Y-101997528D01*
X81236201Y-101885750D01*
X80865229Y-99758500D01*
X80604352Y-99758500D01*
X80461748Y-99760553D01*
X80385661Y-99771453D01*
X80357959Y-99798312D01*
X80360511Y-99848243D01*
X80361537Y-99853750D01*
X80372257Y-99913229D01*
X80396160Y-100047737D01*
X80431770Y-100248917D01*
X80477613Y-100508411D01*
X80532212Y-100817861D01*
X80594093Y-101168909D01*
X80661780Y-101553196D01*
X80733798Y-101962366D01*
X80748248Y-102044500D01*
X81116896Y-104140000D01*
X81384004Y-104152695D01*
X81528745Y-104157221D01*
X81606217Y-104150344D01*
G37*
X81606217Y-104150344D02*
X81633531Y-104127634D01*
X81629142Y-104089195D01*
X81617764Y-104033639D01*
X81593376Y-103902859D01*
X81557440Y-103705053D01*
X81511418Y-103448417D01*
X81456772Y-103141150D01*
X81394963Y-102791448D01*
X81327454Y-102407508D01*
X81255706Y-101997528D01*
X81236201Y-101885750D01*
X80865229Y-99758500D01*
X80604352Y-99758500D01*
X80461748Y-99760553D01*
X80385661Y-99771453D01*
X80357959Y-99798312D01*
X80360511Y-99848243D01*
X80361537Y-99853750D01*
X80372257Y-99913229D01*
X80396160Y-100047737D01*
X80431770Y-100248917D01*
X80477613Y-100508411D01*
X80532212Y-100817861D01*
X80594093Y-101168909D01*
X80661780Y-101553196D01*
X80733798Y-101962366D01*
X80748248Y-102044500D01*
X81116896Y-104140000D01*
X81384004Y-104152695D01*
X81528745Y-104157221D01*
X81606217Y-104150344D01*
G36*
X83084279Y-104151923D02*
G01*
X83112227Y-104128630D01*
X83108846Y-104081785D01*
X83105721Y-104067972D01*
X83091232Y-103995415D01*
X83064804Y-103852675D01*
X83028236Y-103650106D01*
X82983326Y-103398062D01*
X82931874Y-103106900D01*
X82875679Y-102786973D01*
X82816539Y-102448637D01*
X82756254Y-102102245D01*
X82696623Y-101758153D01*
X82639443Y-101426717D01*
X82586516Y-101118289D01*
X82539639Y-100843226D01*
X82500611Y-100611882D01*
X82471232Y-100434612D01*
X82453300Y-100321771D01*
X82448400Y-100284466D01*
X82459753Y-100266170D01*
X82499628Y-100251873D01*
X82576744Y-100241113D01*
X82699823Y-100233432D01*
X82877586Y-100228371D01*
X83118752Y-100225471D01*
X83432043Y-100224273D01*
X83593993Y-100224167D01*
X84739587Y-100224167D01*
X84710433Y-100023084D01*
X84689688Y-99898280D01*
X84670230Y-99810450D01*
X84663007Y-99790250D01*
X84617837Y-99782676D01*
X84497993Y-99775748D01*
X84313465Y-99769689D01*
X84074247Y-99764722D01*
X83790328Y-99761069D01*
X83471701Y-99758950D01*
X83234938Y-99758500D01*
X81825140Y-99758500D01*
X81843203Y-99853750D01*
X81853923Y-99913229D01*
X81877826Y-100047737D01*
X81913437Y-100248917D01*
X81959279Y-100508411D01*
X82013879Y-100817861D01*
X82075760Y-101168909D01*
X82143447Y-101553196D01*
X82215464Y-101962366D01*
X82229915Y-102044500D01*
X82598563Y-104140000D01*
X82863470Y-104152638D01*
X83007270Y-104157860D01*
X83084279Y-104151923D01*
G37*
X83084279Y-104151923D02*
X83112227Y-104128630D01*
X83108846Y-104081785D01*
X83105721Y-104067972D01*
X83091232Y-103995415D01*
X83064804Y-103852675D01*
X83028236Y-103650106D01*
X82983326Y-103398062D01*
X82931874Y-103106900D01*
X82875679Y-102786973D01*
X82816539Y-102448637D01*
X82756254Y-102102245D01*
X82696623Y-101758153D01*
X82639443Y-101426717D01*
X82586516Y-101118289D01*
X82539639Y-100843226D01*
X82500611Y-100611882D01*
X82471232Y-100434612D01*
X82453300Y-100321771D01*
X82448400Y-100284466D01*
X82459753Y-100266170D01*
X82499628Y-100251873D01*
X82576744Y-100241113D01*
X82699823Y-100233432D01*
X82877586Y-100228371D01*
X83118752Y-100225471D01*
X83432043Y-100224273D01*
X83593993Y-100224167D01*
X84739587Y-100224167D01*
X84710433Y-100023084D01*
X84689688Y-99898280D01*
X84670230Y-99810450D01*
X84663007Y-99790250D01*
X84617837Y-99782676D01*
X84497993Y-99775748D01*
X84313465Y-99769689D01*
X84074247Y-99764722D01*
X83790328Y-99761069D01*
X83471701Y-99758950D01*
X83234938Y-99758500D01*
X81825140Y-99758500D01*
X81843203Y-99853750D01*
X81853923Y-99913229D01*
X81877826Y-100047737D01*
X81913437Y-100248917D01*
X81959279Y-100508411D01*
X82013879Y-100817861D01*
X82075760Y-101168909D01*
X82143447Y-101553196D01*
X82215464Y-101962366D01*
X82229915Y-102044500D01*
X82598563Y-104140000D01*
X82863470Y-104152638D01*
X83007270Y-104157860D01*
X83084279Y-104151923D01*
G36*
X87338040Y-104152671D02*
G01*
X87616149Y-104151141D01*
X89074384Y-104140000D01*
X89003608Y-103695500D01*
X86556346Y-103695500D01*
X86535361Y-103600250D01*
X86520208Y-103522276D01*
X86494614Y-103381089D01*
X86462196Y-103196971D01*
X86427733Y-102997000D01*
X86392157Y-102790643D01*
X86359902Y-102607591D01*
X86334588Y-102468123D01*
X86320104Y-102393750D01*
X86299120Y-102298500D01*
X88210921Y-102298500D01*
X88181766Y-102097417D01*
X88161021Y-101972614D01*
X88141563Y-101884783D01*
X88134341Y-101864584D01*
X88088565Y-101855429D01*
X87970397Y-101847307D01*
X87792110Y-101840622D01*
X87565975Y-101835776D01*
X87304265Y-101833170D01*
X87166068Y-101832834D01*
X86892684Y-101831486D01*
X86650075Y-101827708D01*
X86450207Y-101821900D01*
X86305043Y-101814462D01*
X86226547Y-101805794D01*
X86216038Y-101801084D01*
X86208838Y-101750783D01*
X86188923Y-101631644D01*
X86158794Y-101458118D01*
X86120951Y-101244655D01*
X86089696Y-101070834D01*
X86047481Y-100833328D01*
X86011176Y-100621323D01*
X85983343Y-100450414D01*
X85966545Y-100336198D01*
X85962724Y-100298250D01*
X85967512Y-100276762D01*
X85988310Y-100259866D01*
X86034127Y-100247014D01*
X86113976Y-100237660D01*
X86236866Y-100231256D01*
X86411810Y-100227254D01*
X86647816Y-100225108D01*
X86953898Y-100224270D01*
X87182524Y-100224167D01*
X88402981Y-100224167D01*
X88360779Y-99991334D01*
X88318576Y-99758500D01*
X86824150Y-99758500D01*
X86413902Y-99759093D01*
X86081600Y-99761029D01*
X85820533Y-99764551D01*
X85623988Y-99769899D01*
X85485251Y-99777313D01*
X85397611Y-99787033D01*
X85354355Y-99799301D01*
X85347292Y-99811417D01*
X85357781Y-99862359D01*
X85381262Y-99988625D01*
X85416295Y-100182112D01*
X85461440Y-100434716D01*
X85515257Y-100738334D01*
X85576306Y-101084863D01*
X85643145Y-101466200D01*
X85714336Y-101874240D01*
X85732910Y-101981000D01*
X85805116Y-102393745D01*
X85873737Y-102781156D01*
X85937296Y-103135232D01*
X85994315Y-103447968D01*
X86043318Y-103711362D01*
X86082828Y-103917411D01*
X86111370Y-104058110D01*
X86127464Y-104125457D01*
X86129437Y-104129975D01*
X86177021Y-104137251D01*
X86299356Y-104143318D01*
X86486534Y-104148034D01*
X86728646Y-104151259D01*
X87015784Y-104152852D01*
X87338040Y-104152671D01*
G37*
X87338040Y-104152671D02*
X87616149Y-104151141D01*
X89074384Y-104140000D01*
X89003608Y-103695500D01*
X86556346Y-103695500D01*
X86535361Y-103600250D01*
X86520208Y-103522276D01*
X86494614Y-103381089D01*
X86462196Y-103196971D01*
X86427733Y-102997000D01*
X86392157Y-102790643D01*
X86359902Y-102607591D01*
X86334588Y-102468123D01*
X86320104Y-102393750D01*
X86299120Y-102298500D01*
X88210921Y-102298500D01*
X88181766Y-102097417D01*
X88161021Y-101972614D01*
X88141563Y-101884783D01*
X88134341Y-101864584D01*
X88088565Y-101855429D01*
X87970397Y-101847307D01*
X87792110Y-101840622D01*
X87565975Y-101835776D01*
X87304265Y-101833170D01*
X87166068Y-101832834D01*
X86892684Y-101831486D01*
X86650075Y-101827708D01*
X86450207Y-101821900D01*
X86305043Y-101814462D01*
X86226547Y-101805794D01*
X86216038Y-101801084D01*
X86208838Y-101750783D01*
X86188923Y-101631644D01*
X86158794Y-101458118D01*
X86120951Y-101244655D01*
X86089696Y-101070834D01*
X86047481Y-100833328D01*
X86011176Y-100621323D01*
X85983343Y-100450414D01*
X85966545Y-100336198D01*
X85962724Y-100298250D01*
X85967512Y-100276762D01*
X85988310Y-100259866D01*
X86034127Y-100247014D01*
X86113976Y-100237660D01*
X86236866Y-100231256D01*
X86411810Y-100227254D01*
X86647816Y-100225108D01*
X86953898Y-100224270D01*
X87182524Y-100224167D01*
X88402981Y-100224167D01*
X88360779Y-99991334D01*
X88318576Y-99758500D01*
X86824150Y-99758500D01*
X86413902Y-99759093D01*
X86081600Y-99761029D01*
X85820533Y-99764551D01*
X85623988Y-99769899D01*
X85485251Y-99777313D01*
X85397611Y-99787033D01*
X85354355Y-99799301D01*
X85347292Y-99811417D01*
X85357781Y-99862359D01*
X85381262Y-99988625D01*
X85416295Y-100182112D01*
X85461440Y-100434716D01*
X85515257Y-100738334D01*
X85576306Y-101084863D01*
X85643145Y-101466200D01*
X85714336Y-101874240D01*
X85732910Y-101981000D01*
X85805116Y-102393745D01*
X85873737Y-102781156D01*
X85937296Y-103135232D01*
X85994315Y-103447968D01*
X86043318Y-103711362D01*
X86082828Y-103917411D01*
X86111370Y-104058110D01*
X86127464Y-104125457D01*
X86129437Y-104129975D01*
X86177021Y-104137251D01*
X86299356Y-104143318D01*
X86486534Y-104148034D01*
X86728646Y-104151259D01*
X87015784Y-104152852D01*
X87338040Y-104152671D01*
G36*
X92530290Y-101981000D02*
G01*
X92633369Y-101567278D01*
X92730073Y-101178390D01*
X92818493Y-100822069D01*
X92896717Y-100506049D01*
X92962836Y-100238063D01*
X93014941Y-100025844D01*
X93051121Y-99877124D01*
X93069466Y-99799637D01*
X93071388Y-99790250D01*
X93034221Y-99774075D01*
X92934379Y-99762639D01*
X92799706Y-99758500D01*
X92651272Y-99760602D01*
X92566157Y-99772361D01*
X92523024Y-99801956D01*
X92500540Y-99857566D01*
X92496041Y-99874917D01*
X92474495Y-99963004D01*
X92438900Y-100111155D01*
X92394607Y-100297020D01*
X92356705Y-100457000D01*
X92246674Y-100922667D01*
X90012294Y-100922667D01*
X89327566Y-99760105D01*
X89062983Y-99759303D01*
X88926165Y-99763507D01*
X88831065Y-99775267D01*
X88799744Y-99790250D01*
X88821248Y-99831267D01*
X88882726Y-99938343D01*
X88980371Y-100105071D01*
X89110373Y-100325042D01*
X89268927Y-100591848D01*
X89452223Y-100899080D01*
X89656454Y-101240331D01*
X89779332Y-101445090D01*
X90329455Y-101445090D01*
X90365467Y-101434639D01*
X90474153Y-101425401D01*
X90643522Y-101417854D01*
X90861585Y-101412476D01*
X91116352Y-101409745D01*
X91222521Y-101409500D01*
X92129698Y-101409500D01*
X91871632Y-102467361D01*
X91800970Y-102752830D01*
X91735563Y-103009147D01*
X91678351Y-103225426D01*
X91632270Y-103390784D01*
X91600258Y-103494335D01*
X91585991Y-103525695D01*
X91560148Y-103491214D01*
X91497875Y-103394996D01*
X91405885Y-103248156D01*
X91290890Y-103061807D01*
X91159602Y-102847063D01*
X91018733Y-102615039D01*
X90874995Y-102376848D01*
X90735101Y-102143605D01*
X90605762Y-101926424D01*
X90493690Y-101736418D01*
X90405598Y-101584703D01*
X90348198Y-101482391D01*
X90329455Y-101445090D01*
X89779332Y-101445090D01*
X89877812Y-101609193D01*
X90101494Y-101981000D01*
X91401900Y-104140000D01*
X91991870Y-104140000D01*
X92530290Y-101981000D01*
G37*
X92530290Y-101981000D02*
X92633369Y-101567278D01*
X92730073Y-101178390D01*
X92818493Y-100822069D01*
X92896717Y-100506049D01*
X92962836Y-100238063D01*
X93014941Y-100025844D01*
X93051121Y-99877124D01*
X93069466Y-99799637D01*
X93071388Y-99790250D01*
X93034221Y-99774075D01*
X92934379Y-99762639D01*
X92799706Y-99758500D01*
X92651272Y-99760602D01*
X92566157Y-99772361D01*
X92523024Y-99801956D01*
X92500540Y-99857566D01*
X92496041Y-99874917D01*
X92474495Y-99963004D01*
X92438900Y-100111155D01*
X92394607Y-100297020D01*
X92356705Y-100457000D01*
X92246674Y-100922667D01*
X90012294Y-100922667D01*
X89327566Y-99760105D01*
X89062983Y-99759303D01*
X88926165Y-99763507D01*
X88831065Y-99775267D01*
X88799744Y-99790250D01*
X88821248Y-99831267D01*
X88882726Y-99938343D01*
X88980371Y-100105071D01*
X89110373Y-100325042D01*
X89268927Y-100591848D01*
X89452223Y-100899080D01*
X89656454Y-101240331D01*
X89779332Y-101445090D01*
X90329455Y-101445090D01*
X90365467Y-101434639D01*
X90474153Y-101425401D01*
X90643522Y-101417854D01*
X90861585Y-101412476D01*
X91116352Y-101409745D01*
X91222521Y-101409500D01*
X92129698Y-101409500D01*
X91871632Y-102467361D01*
X91800970Y-102752830D01*
X91735563Y-103009147D01*
X91678351Y-103225426D01*
X91632270Y-103390784D01*
X91600258Y-103494335D01*
X91585991Y-103525695D01*
X91560148Y-103491214D01*
X91497875Y-103394996D01*
X91405885Y-103248156D01*
X91290890Y-103061807D01*
X91159602Y-102847063D01*
X91018733Y-102615039D01*
X90874995Y-102376848D01*
X90735101Y-102143605D01*
X90605762Y-101926424D01*
X90493690Y-101736418D01*
X90405598Y-101584703D01*
X90348198Y-101482391D01*
X90329455Y-101445090D01*
X89779332Y-101445090D01*
X89877812Y-101609193D01*
X90101494Y-101981000D01*
X91401900Y-104140000D01*
X91991870Y-104140000D01*
X92530290Y-101981000D01*
G36*
X100461373Y-104152671D02*
G01*
X100739483Y-104151141D01*
X102197717Y-104140000D01*
X102162330Y-103917750D01*
X102126942Y-103695500D01*
X99679679Y-103695500D01*
X99658695Y-103600250D01*
X99643542Y-103522276D01*
X99617947Y-103381089D01*
X99585530Y-103196971D01*
X99551066Y-102997000D01*
X99515490Y-102790643D01*
X99483236Y-102607591D01*
X99457921Y-102468123D01*
X99443438Y-102393750D01*
X99422453Y-102298500D01*
X101334254Y-102298500D01*
X101305100Y-102097417D01*
X101284354Y-101972614D01*
X101264896Y-101884783D01*
X101257674Y-101864584D01*
X101211898Y-101855429D01*
X101093731Y-101847307D01*
X100915443Y-101840622D01*
X100689308Y-101835776D01*
X100427598Y-101833170D01*
X100289401Y-101832834D01*
X100016017Y-101831486D01*
X99773409Y-101827708D01*
X99573540Y-101821900D01*
X99428376Y-101814462D01*
X99349881Y-101805794D01*
X99339371Y-101801084D01*
X99332171Y-101750783D01*
X99312256Y-101631644D01*
X99282128Y-101458118D01*
X99244285Y-101244655D01*
X99213030Y-101070834D01*
X99170815Y-100833328D01*
X99134509Y-100621323D01*
X99106676Y-100450414D01*
X99089878Y-100336198D01*
X99086058Y-100298250D01*
X99090846Y-100276762D01*
X99111643Y-100259866D01*
X99157461Y-100247014D01*
X99237309Y-100237660D01*
X99360200Y-100231256D01*
X99535143Y-100227254D01*
X99771150Y-100225108D01*
X100077231Y-100224270D01*
X100305857Y-100224167D01*
X101526314Y-100224167D01*
X101484112Y-99991334D01*
X101441909Y-99758500D01*
X99947483Y-99758500D01*
X99537235Y-99759093D01*
X99204934Y-99761029D01*
X98943866Y-99764551D01*
X98747321Y-99769899D01*
X98608585Y-99777313D01*
X98520945Y-99787033D01*
X98477689Y-99799301D01*
X98470625Y-99811417D01*
X98481114Y-99862359D01*
X98504595Y-99988625D01*
X98539628Y-100182112D01*
X98584774Y-100434716D01*
X98638591Y-100738334D01*
X98699639Y-101084863D01*
X98766479Y-101466200D01*
X98837669Y-101874240D01*
X98856243Y-101981000D01*
X98928450Y-102393745D01*
X98997070Y-102781156D01*
X99060629Y-103135232D01*
X99117648Y-103447968D01*
X99166651Y-103711362D01*
X99206162Y-103917411D01*
X99234703Y-104058110D01*
X99250798Y-104125457D01*
X99252770Y-104129975D01*
X99300354Y-104137251D01*
X99422689Y-104143318D01*
X99609867Y-104148034D01*
X99851979Y-104151259D01*
X100139118Y-104152852D01*
X100461373Y-104152671D01*
G37*
X100461373Y-104152671D02*
X100739483Y-104151141D01*
X102197717Y-104140000D01*
X102162330Y-103917750D01*
X102126942Y-103695500D01*
X99679679Y-103695500D01*
X99658695Y-103600250D01*
X99643542Y-103522276D01*
X99617947Y-103381089D01*
X99585530Y-103196971D01*
X99551066Y-102997000D01*
X99515490Y-102790643D01*
X99483236Y-102607591D01*
X99457921Y-102468123D01*
X99443438Y-102393750D01*
X99422453Y-102298500D01*
X101334254Y-102298500D01*
X101305100Y-102097417D01*
X101284354Y-101972614D01*
X101264896Y-101884783D01*
X101257674Y-101864584D01*
X101211898Y-101855429D01*
X101093731Y-101847307D01*
X100915443Y-101840622D01*
X100689308Y-101835776D01*
X100427598Y-101833170D01*
X100289401Y-101832834D01*
X100016017Y-101831486D01*
X99773409Y-101827708D01*
X99573540Y-101821900D01*
X99428376Y-101814462D01*
X99349881Y-101805794D01*
X99339371Y-101801084D01*
X99332171Y-101750783D01*
X99312256Y-101631644D01*
X99282128Y-101458118D01*
X99244285Y-101244655D01*
X99213030Y-101070834D01*
X99170815Y-100833328D01*
X99134509Y-100621323D01*
X99106676Y-100450414D01*
X99089878Y-100336198D01*
X99086058Y-100298250D01*
X99090846Y-100276762D01*
X99111643Y-100259866D01*
X99157461Y-100247014D01*
X99237309Y-100237660D01*
X99360200Y-100231256D01*
X99535143Y-100227254D01*
X99771150Y-100225108D01*
X100077231Y-100224270D01*
X100305857Y-100224167D01*
X101526314Y-100224167D01*
X101484112Y-99991334D01*
X101441909Y-99758500D01*
X99947483Y-99758500D01*
X99537235Y-99759093D01*
X99204934Y-99761029D01*
X98943866Y-99764551D01*
X98747321Y-99769899D01*
X98608585Y-99777313D01*
X98520945Y-99787033D01*
X98477689Y-99799301D01*
X98470625Y-99811417D01*
X98481114Y-99862359D01*
X98504595Y-99988625D01*
X98539628Y-100182112D01*
X98584774Y-100434716D01*
X98638591Y-100738334D01*
X98699639Y-101084863D01*
X98766479Y-101466200D01*
X98837669Y-101874240D01*
X98856243Y-101981000D01*
X98928450Y-102393745D01*
X98997070Y-102781156D01*
X99060629Y-103135232D01*
X99117648Y-103447968D01*
X99166651Y-103711362D01*
X99206162Y-103917411D01*
X99234703Y-104058110D01*
X99250798Y-104125457D01*
X99252770Y-104129975D01*
X99300354Y-104137251D01*
X99422689Y-104143318D01*
X99609867Y-104148034D01*
X99851979Y-104151259D01*
X100139118Y-104152852D01*
X100461373Y-104152671D01*
G36*
X58570322Y-109823250D02*
G01*
X58461579Y-109233502D01*
X58369809Y-108720737D01*
X58294871Y-108279021D01*
X58236626Y-107902418D01*
X58194935Y-107584993D01*
X58169658Y-107320810D01*
X58160656Y-107103935D01*
X58167789Y-106928430D01*
X58190918Y-106788362D01*
X58229904Y-106677795D01*
X58284606Y-106590792D01*
X58354885Y-106521420D01*
X58440603Y-106463742D01*
X58490742Y-106436650D01*
X58649120Y-106386929D01*
X58856429Y-106363522D01*
X59081179Y-106366269D01*
X59291879Y-106395010D01*
X59440233Y-106441480D01*
X59639813Y-106572071D01*
X59820578Y-106764158D01*
X59962385Y-106994580D01*
X60001806Y-107087212D01*
X60030290Y-107185347D01*
X60070443Y-107354653D01*
X60119727Y-107582836D01*
X60175603Y-107857599D01*
X60235531Y-108166649D01*
X60296974Y-108497690D01*
X60323236Y-108643789D01*
X60381364Y-108968085D01*
X60435352Y-109264802D01*
X60483306Y-109523882D01*
X60523334Y-109735271D01*
X60553543Y-109888911D01*
X60572040Y-109974749D01*
X60576535Y-109989414D01*
X60623301Y-109995388D01*
X60735732Y-109997936D01*
X60894889Y-109996852D01*
X61013670Y-109994126D01*
X61433969Y-109982000D01*
X61193420Y-108621657D01*
X61122016Y-108219234D01*
X61062560Y-107890008D01*
X61012481Y-107623760D01*
X60969212Y-107410273D01*
X60930181Y-107239330D01*
X60892821Y-107100715D01*
X60854560Y-106984208D01*
X60812830Y-106879595D01*
X60765062Y-106776657D01*
X60708685Y-106665176D01*
X60694512Y-106637795D01*
X60467356Y-106287188D01*
X60184236Y-105997372D01*
X59851988Y-105772353D01*
X59477445Y-105616134D01*
X59067445Y-105532720D01*
X58785755Y-105519434D01*
X58591296Y-105528762D01*
X58395600Y-105549614D01*
X58249968Y-105575599D01*
X58023680Y-105652691D01*
X57802188Y-105766192D01*
X57619230Y-105897746D01*
X57569429Y-105945847D01*
X57443065Y-106125723D01*
X57336910Y-106362023D01*
X57261423Y-106627064D01*
X57229898Y-106844402D01*
X57225406Y-106943951D01*
X57227434Y-107055768D01*
X57237285Y-107189873D01*
X57256261Y-107356285D01*
X57285664Y-107565026D01*
X57326797Y-107826115D01*
X57380963Y-108149574D01*
X57449463Y-108545421D01*
X57455444Y-108579619D01*
X57704566Y-110003112D01*
X58154184Y-110003140D01*
X58603802Y-110003167D01*
X58570322Y-109823250D01*
G37*
X58570322Y-109823250D02*
X58461579Y-109233502D01*
X58369809Y-108720737D01*
X58294871Y-108279021D01*
X58236626Y-107902418D01*
X58194935Y-107584993D01*
X58169658Y-107320810D01*
X58160656Y-107103935D01*
X58167789Y-106928430D01*
X58190918Y-106788362D01*
X58229904Y-106677795D01*
X58284606Y-106590792D01*
X58354885Y-106521420D01*
X58440603Y-106463742D01*
X58490742Y-106436650D01*
X58649120Y-106386929D01*
X58856429Y-106363522D01*
X59081179Y-106366269D01*
X59291879Y-106395010D01*
X59440233Y-106441480D01*
X59639813Y-106572071D01*
X59820578Y-106764158D01*
X59962385Y-106994580D01*
X60001806Y-107087212D01*
X60030290Y-107185347D01*
X60070443Y-107354653D01*
X60119727Y-107582836D01*
X60175603Y-107857599D01*
X60235531Y-108166649D01*
X60296974Y-108497690D01*
X60323236Y-108643789D01*
X60381364Y-108968085D01*
X60435352Y-109264802D01*
X60483306Y-109523882D01*
X60523334Y-109735271D01*
X60553543Y-109888911D01*
X60572040Y-109974749D01*
X60576535Y-109989414D01*
X60623301Y-109995388D01*
X60735732Y-109997936D01*
X60894889Y-109996852D01*
X61013670Y-109994126D01*
X61433969Y-109982000D01*
X61193420Y-108621657D01*
X61122016Y-108219234D01*
X61062560Y-107890008D01*
X61012481Y-107623760D01*
X60969212Y-107410273D01*
X60930181Y-107239330D01*
X60892821Y-107100715D01*
X60854560Y-106984208D01*
X60812830Y-106879595D01*
X60765062Y-106776657D01*
X60708685Y-106665176D01*
X60694512Y-106637795D01*
X60467356Y-106287188D01*
X60184236Y-105997372D01*
X59851988Y-105772353D01*
X59477445Y-105616134D01*
X59067445Y-105532720D01*
X58785755Y-105519434D01*
X58591296Y-105528762D01*
X58395600Y-105549614D01*
X58249968Y-105575599D01*
X58023680Y-105652691D01*
X57802188Y-105766192D01*
X57619230Y-105897746D01*
X57569429Y-105945847D01*
X57443065Y-106125723D01*
X57336910Y-106362023D01*
X57261423Y-106627064D01*
X57229898Y-106844402D01*
X57225406Y-106943951D01*
X57227434Y-107055768D01*
X57237285Y-107189873D01*
X57256261Y-107356285D01*
X57285664Y-107565026D01*
X57326797Y-107826115D01*
X57380963Y-108149574D01*
X57449463Y-108545421D01*
X57455444Y-108579619D01*
X57704566Y-110003112D01*
X58154184Y-110003140D01*
X58603802Y-110003167D01*
X58570322Y-109823250D01*
G36*
X68627148Y-110054002D02*
G01*
X68998311Y-109955974D01*
X69327736Y-109798956D01*
X69607389Y-109588150D01*
X69829239Y-109328760D01*
X69985254Y-109025992D01*
X70019132Y-108923667D01*
X70022559Y-108884574D01*
X69998299Y-108851924D01*
X69933192Y-108819462D01*
X69814076Y-108780936D01*
X69627789Y-108730091D01*
X69591892Y-108720662D01*
X69393900Y-108669717D01*
X69262087Y-108639750D01*
X69180960Y-108629429D01*
X69135023Y-108637422D01*
X69108782Y-108662396D01*
X69099532Y-108678329D01*
X69010668Y-108799463D01*
X68875808Y-108934127D01*
X68721405Y-109059997D01*
X68573911Y-109154749D01*
X68494363Y-109189050D01*
X68361599Y-109215495D01*
X68183769Y-109233903D01*
X68007821Y-109240162D01*
X67654402Y-109199571D01*
X67332047Y-109084600D01*
X67047328Y-108901912D01*
X66806814Y-108658173D01*
X66617073Y-108360049D01*
X66484677Y-108014204D01*
X66416195Y-107627302D01*
X66416025Y-107625290D01*
X66420359Y-107286884D01*
X66492085Y-106992460D01*
X66629031Y-106746522D01*
X66829022Y-106553573D01*
X66975556Y-106466485D01*
X67095081Y-106411917D01*
X67197606Y-106379662D01*
X67310700Y-106365491D01*
X67461932Y-106365177D01*
X67600136Y-106370698D01*
X67932708Y-106409585D01*
X68214540Y-106499124D01*
X68469480Y-106649905D01*
X68714405Y-106865467D01*
X68945266Y-107098177D01*
X69251583Y-107020114D01*
X69416174Y-106976752D01*
X69559587Y-106936476D01*
X69652163Y-106907634D01*
X69655333Y-106906494D01*
X69752766Y-106870936D01*
X69625493Y-106685951D01*
X69374644Y-106384235D01*
X69061843Y-106107189D01*
X68708652Y-105869574D01*
X68336631Y-105686152D01*
X68012733Y-105581746D01*
X67746844Y-105538749D01*
X67449423Y-105521954D01*
X67154742Y-105531380D01*
X66897076Y-105567045D01*
X66838599Y-105581095D01*
X66462207Y-105721059D01*
X66142582Y-105921997D01*
X65882340Y-106181799D01*
X65684100Y-106498358D01*
X65674476Y-106518593D01*
X65574541Y-106813454D01*
X65522030Y-107156507D01*
X65518520Y-107524765D01*
X65565592Y-107895240D01*
X65576392Y-107946350D01*
X65716571Y-108390778D01*
X65926603Y-108797863D01*
X66198359Y-109161026D01*
X66523712Y-109473686D01*
X66894531Y-109729266D01*
X67302688Y-109921185D01*
X67740054Y-110042864D01*
X68198500Y-110087725D01*
X68222277Y-110087834D01*
X68627148Y-110054002D01*
G37*
X68627148Y-110054002D02*
X68998311Y-109955974D01*
X69327736Y-109798956D01*
X69607389Y-109588150D01*
X69829239Y-109328760D01*
X69985254Y-109025992D01*
X70019132Y-108923667D01*
X70022559Y-108884574D01*
X69998299Y-108851924D01*
X69933192Y-108819462D01*
X69814076Y-108780936D01*
X69627789Y-108730091D01*
X69591892Y-108720662D01*
X69393900Y-108669717D01*
X69262087Y-108639750D01*
X69180960Y-108629429D01*
X69135023Y-108637422D01*
X69108782Y-108662396D01*
X69099532Y-108678329D01*
X69010668Y-108799463D01*
X68875808Y-108934127D01*
X68721405Y-109059997D01*
X68573911Y-109154749D01*
X68494363Y-109189050D01*
X68361599Y-109215495D01*
X68183769Y-109233903D01*
X68007821Y-109240162D01*
X67654402Y-109199571D01*
X67332047Y-109084600D01*
X67047328Y-108901912D01*
X66806814Y-108658173D01*
X66617073Y-108360049D01*
X66484677Y-108014204D01*
X66416195Y-107627302D01*
X66416025Y-107625290D01*
X66420359Y-107286884D01*
X66492085Y-106992460D01*
X66629031Y-106746522D01*
X66829022Y-106553573D01*
X66975556Y-106466485D01*
X67095081Y-106411917D01*
X67197606Y-106379662D01*
X67310700Y-106365491D01*
X67461932Y-106365177D01*
X67600136Y-106370698D01*
X67932708Y-106409585D01*
X68214540Y-106499124D01*
X68469480Y-106649905D01*
X68714405Y-106865467D01*
X68945266Y-107098177D01*
X69251583Y-107020114D01*
X69416174Y-106976752D01*
X69559587Y-106936476D01*
X69652163Y-106907634D01*
X69655333Y-106906494D01*
X69752766Y-106870936D01*
X69625493Y-106685951D01*
X69374644Y-106384235D01*
X69061843Y-106107189D01*
X68708652Y-105869574D01*
X68336631Y-105686152D01*
X68012733Y-105581746D01*
X67746844Y-105538749D01*
X67449423Y-105521954D01*
X67154742Y-105531380D01*
X66897076Y-105567045D01*
X66838599Y-105581095D01*
X66462207Y-105721059D01*
X66142582Y-105921997D01*
X65882340Y-106181799D01*
X65684100Y-106498358D01*
X65674476Y-106518593D01*
X65574541Y-106813454D01*
X65522030Y-107156507D01*
X65518520Y-107524765D01*
X65565592Y-107895240D01*
X65576392Y-107946350D01*
X65716571Y-108390778D01*
X65926603Y-108797863D01*
X66198359Y-109161026D01*
X66523712Y-109473686D01*
X66894531Y-109729266D01*
X67302688Y-109921185D01*
X67740054Y-110042864D01*
X68198500Y-110087725D01*
X68222277Y-110087834D01*
X68627148Y-110054002D01*
G36*
X63585300Y-110001495D02*
G01*
X63886486Y-109995443D01*
X64125669Y-109983085D01*
X64314161Y-109962581D01*
X64463274Y-109932092D01*
X64584320Y-109889778D01*
X64688609Y-109833800D01*
X64787453Y-109762319D01*
X64811450Y-109742794D01*
X64986610Y-109547919D01*
X65092686Y-109319703D01*
X65131612Y-109070900D01*
X65105323Y-108814264D01*
X65015753Y-108562549D01*
X64864836Y-108328511D01*
X64654507Y-108124902D01*
X64555579Y-108055727D01*
X64374229Y-107940717D01*
X64544566Y-107863906D01*
X64765004Y-107722836D01*
X64921836Y-107532224D01*
X65013018Y-107300657D01*
X65036503Y-107036720D01*
X64990246Y-106749001D01*
X64879074Y-106459901D01*
X64693967Y-106172189D01*
X64450066Y-105943417D01*
X64145285Y-105772032D01*
X63812482Y-105664446D01*
X63692462Y-105645299D01*
X63516038Y-105629212D01*
X63295800Y-105616245D01*
X63044338Y-105606454D01*
X62774242Y-105599899D01*
X62498101Y-105596636D01*
X62228505Y-105596724D01*
X61978044Y-105600221D01*
X61759309Y-105607185D01*
X61584887Y-105617674D01*
X61467370Y-105631746D01*
X61419347Y-105649459D01*
X61419180Y-105653417D01*
X61430075Y-105704282D01*
X61454058Y-105830519D01*
X61489681Y-106024093D01*
X61535499Y-106276965D01*
X61552953Y-106374250D01*
X62437788Y-106374250D01*
X62449918Y-106347109D01*
X62494332Y-106331118D01*
X62584941Y-106323403D01*
X62735661Y-106321089D01*
X62900176Y-106321177D01*
X63111755Y-106325041D01*
X63309207Y-106334691D01*
X63466854Y-106348549D01*
X63543290Y-106360700D01*
X63758779Y-106446812D01*
X63931520Y-106586368D01*
X64052333Y-106763877D01*
X64112039Y-106963848D01*
X64101457Y-107170789D01*
X64073842Y-107256065D01*
X64007379Y-107365049D01*
X63904025Y-107445121D01*
X63753031Y-107499684D01*
X63543648Y-107532139D01*
X63265127Y-107545889D01*
X63154983Y-107546904D01*
X62956690Y-107544719D01*
X62793400Y-107538081D01*
X62681303Y-107527999D01*
X62636588Y-107515483D01*
X62636400Y-107514583D01*
X62629373Y-107462087D01*
X62610585Y-107345944D01*
X62583474Y-107185800D01*
X62551479Y-107001301D01*
X62518037Y-106812092D01*
X62486586Y-106637817D01*
X62460566Y-106498122D01*
X62444026Y-106415417D01*
X62437788Y-106374250D01*
X61552953Y-106374250D01*
X61590065Y-106581099D01*
X61651933Y-106928459D01*
X61719656Y-107311007D01*
X61791789Y-107720705D01*
X61815292Y-107854663D01*
X61880242Y-108225167D01*
X62768723Y-108225167D01*
X63254997Y-108225167D01*
X63522898Y-108230511D01*
X63713848Y-108247011D01*
X63834913Y-108275365D01*
X63855585Y-108284645D01*
X64037857Y-108414405D01*
X64147634Y-108581698D01*
X64192324Y-108785758D01*
X64196727Y-108930777D01*
X64176262Y-109024800D01*
X64123818Y-109099615D01*
X64121579Y-109101998D01*
X63991598Y-109193067D01*
X63801897Y-109250311D01*
X63545191Y-109275310D01*
X63324647Y-109274564D01*
X62954677Y-109262334D01*
X62887434Y-108902500D01*
X62852818Y-108714784D01*
X62821147Y-108538724D01*
X62798132Y-108406174D01*
X62794457Y-108383917D01*
X62768723Y-108225167D01*
X61880242Y-108225167D01*
X62191900Y-110002991D01*
X63210799Y-110003079D01*
X63585300Y-110001495D01*
G37*
X63585300Y-110001495D02*
X63886486Y-109995443D01*
X64125669Y-109983085D01*
X64314161Y-109962581D01*
X64463274Y-109932092D01*
X64584320Y-109889778D01*
X64688609Y-109833800D01*
X64787453Y-109762319D01*
X64811450Y-109742794D01*
X64986610Y-109547919D01*
X65092686Y-109319703D01*
X65131612Y-109070900D01*
X65105323Y-108814264D01*
X65015753Y-108562549D01*
X64864836Y-108328511D01*
X64654507Y-108124902D01*
X64555579Y-108055727D01*
X64374229Y-107940717D01*
X64544566Y-107863906D01*
X64765004Y-107722836D01*
X64921836Y-107532224D01*
X65013018Y-107300657D01*
X65036503Y-107036720D01*
X64990246Y-106749001D01*
X64879074Y-106459901D01*
X64693967Y-106172189D01*
X64450066Y-105943417D01*
X64145285Y-105772032D01*
X63812482Y-105664446D01*
X63692462Y-105645299D01*
X63516038Y-105629212D01*
X63295800Y-105616245D01*
X63044338Y-105606454D01*
X62774242Y-105599899D01*
X62498101Y-105596636D01*
X62228505Y-105596724D01*
X61978044Y-105600221D01*
X61759309Y-105607185D01*
X61584887Y-105617674D01*
X61467370Y-105631746D01*
X61419347Y-105649459D01*
X61419180Y-105653417D01*
X61430075Y-105704282D01*
X61454058Y-105830519D01*
X61489681Y-106024093D01*
X61535499Y-106276965D01*
X61552953Y-106374250D01*
X62437788Y-106374250D01*
X62449918Y-106347109D01*
X62494332Y-106331118D01*
X62584941Y-106323403D01*
X62735661Y-106321089D01*
X62900176Y-106321177D01*
X63111755Y-106325041D01*
X63309207Y-106334691D01*
X63466854Y-106348549D01*
X63543290Y-106360700D01*
X63758779Y-106446812D01*
X63931520Y-106586368D01*
X64052333Y-106763877D01*
X64112039Y-106963848D01*
X64101457Y-107170789D01*
X64073842Y-107256065D01*
X64007379Y-107365049D01*
X63904025Y-107445121D01*
X63753031Y-107499684D01*
X63543648Y-107532139D01*
X63265127Y-107545889D01*
X63154983Y-107546904D01*
X62956690Y-107544719D01*
X62793400Y-107538081D01*
X62681303Y-107527999D01*
X62636588Y-107515483D01*
X62636400Y-107514583D01*
X62629373Y-107462087D01*
X62610585Y-107345944D01*
X62583474Y-107185800D01*
X62551479Y-107001301D01*
X62518037Y-106812092D01*
X62486586Y-106637817D01*
X62460566Y-106498122D01*
X62444026Y-106415417D01*
X62437788Y-106374250D01*
X61552953Y-106374250D01*
X61590065Y-106581099D01*
X61651933Y-106928459D01*
X61719656Y-107311007D01*
X61791789Y-107720705D01*
X61815292Y-107854663D01*
X61880242Y-108225167D01*
X62768723Y-108225167D01*
X63254997Y-108225167D01*
X63522898Y-108230511D01*
X63713848Y-108247011D01*
X63834913Y-108275365D01*
X63855585Y-108284645D01*
X64037857Y-108414405D01*
X64147634Y-108581698D01*
X64192324Y-108785758D01*
X64196727Y-108930777D01*
X64176262Y-109024800D01*
X64123818Y-109099615D01*
X64121579Y-109101998D01*
X63991598Y-109193067D01*
X63801897Y-109250311D01*
X63545191Y-109275310D01*
X63324647Y-109274564D01*
X62954677Y-109262334D01*
X62887434Y-108902500D01*
X62852818Y-108714784D01*
X62821147Y-108538724D01*
X62798132Y-108406174D01*
X62794457Y-108383917D01*
X62768723Y-108225167D01*
X61880242Y-108225167D01*
X62191900Y-110002991D01*
X63210799Y-110003079D01*
X63585300Y-110001495D01*
M02*
